<svg width="315" height="287" viewBox="0 0 315 287" fill="none" xmlns="http://www.w3.org/2000/svg">
<rect x="43.4053" y="22.2227" width="226" height="226" rx="113" fill="#FADACA" fill-opacity="0.5"/>
<g filter="url(#filter0_d_1528_7237)">
<circle cx="164.744" cy="237.969" r="38.5" transform="rotate(-16.2695 164.744 237.969)" fill="#FCFCFC"/>
</g>
<g clip-path="url(#clip0_1528_7237)">
<path d="M181.955 223.564C181.797 222.515 181.659 221.471 181.541 220.585C181.261 218.492 179.766 216.773 177.731 216.2C177.114 216.025 176.472 215.968 175.826 216.025C173.937 216.196 172.247 216.358 170.647 216.525C168.827 216.72 166.707 217.066 164.733 218.171C162.946 219.167 161.508 220.028 160.216 220.877C159.042 221.642 157.807 222.487 156.702 223.507C154.346 225.681 152.718 228.566 151.71 232.326L151.572 232.797C151.462 233.187 151.353 233.581 151.247 233.975C151.186 234.199 151.154 234.406 151.129 234.589C151.117 234.658 151.109 234.727 151.097 234.792C150.853 236.154 151.596 237.397 152.856 237.751L152.904 237.767C154.2 238.096 155.5 237.357 155.935 236.044C156.069 235.642 156.211 235.243 156.365 234.857C156.658 235.215 157.056 235.483 157.515 235.613C157.844 235.707 158.185 235.727 158.53 235.67C159.525 235.516 160.24 234.857 160.488 233.854C160.504 233.801 160.512 233.748 160.529 233.691C160.776 233.947 161.093 234.138 161.451 234.24C161.816 234.341 162.223 234.349 162.617 234.26C163.437 234.073 164.05 233.508 164.355 232.667C164.424 232.472 164.493 232.269 164.558 232.074C164.794 231.395 165.017 230.753 165.306 230.164C165.789 229.184 166.613 228.404 167.442 227.713L167.791 227.42C168.185 227.538 168.563 227.705 168.925 227.912C169.331 228.14 169.575 228.416 169.623 228.688C169.684 229.03 169.424 229.387 169.266 229.57C168.86 230.046 168.344 230.468 167.8 230.919C167.564 231.106 167.332 231.297 167.109 231.492C166.914 231.663 166.711 231.83 166.5 232C166.134 232.297 165.752 232.602 165.395 232.96C164.014 234.317 163.896 236.515 165.127 238.06C165.456 238.47 165.862 238.751 166.309 238.877C167.012 239.076 167.755 238.877 168.348 238.336C168.697 238.019 169.047 237.698 169.396 237.377C170.497 236.373 171.638 235.337 172.739 234.284C174.01 233.073 175.294 231.83 176.537 230.627C177.991 229.217 179.498 227.758 180.997 226.339C181.805 225.571 182.118 224.661 181.955 223.564ZM159.846 231.594C159.838 231.655 159.834 231.716 159.83 231.781C159.623 232.362 159.456 232.955 159.31 233.561C159.184 234.073 158.859 234.386 158.343 234.463C158.173 234.492 158.006 234.483 157.852 234.439C157.389 234.309 157.064 233.882 157.023 233.362C157.32 232.752 157.641 232.163 157.986 231.602C158.855 230.188 159.891 229.115 161.118 228.375C160.415 229.375 159.984 230.456 159.846 231.598L159.846 231.594ZM164.221 229.627C163.807 230.464 163.526 231.371 163.21 232.256C163.059 232.683 162.791 232.972 162.357 233.069C162.158 233.114 161.958 233.114 161.784 233.065C161.585 233.008 161.41 232.89 161.292 232.699C161.17 232.496 161.077 232.236 161.049 231.992C161.04 231.907 161.045 231.826 161.049 231.748C161.227 230.31 161.93 229.115 162.929 228.091C163.128 227.884 163.34 227.697 163.522 227.473C163.551 227.437 163.579 227.404 163.612 227.376C163.77 227.335 163.929 227.303 164.087 227.278C164.14 227.266 164.193 227.258 164.249 227.246C164.972 227.128 165.63 227.091 166.252 227.132C165.419 227.871 164.692 228.656 164.217 229.627L164.221 229.627ZM180.16 225.453C177.39 228.083 174.664 230.761 171.898 233.398C170.464 234.768 168.986 236.097 167.527 237.434C167.243 237.694 166.93 237.779 166.642 237.698C166.443 237.641 166.252 237.503 166.085 237.296C165.261 236.255 165.314 234.748 166.252 233.817C166.768 233.309 167.365 232.886 167.913 232.407C168.685 231.736 169.534 231.131 170.192 230.359C171.289 229.091 170.992 227.676 169.53 226.843C169.311 226.717 169.091 226.608 168.864 226.514C168.555 226.376 168.246 226.266 167.934 226.181C167.032 225.925 166.098 225.856 165.147 225.917C164.786 225.937 164.424 225.978 164.059 226.039C163.697 226.096 163.348 226.173 163.002 226.266C160.382 226.965 158.4 228.599 156.942 230.96C156.52 231.643 156.142 232.35 155.805 233.081C155.411 233.915 155.069 234.78 154.781 235.658C154.541 236.373 153.879 236.755 153.209 236.585L153.185 236.576C152.539 236.394 152.165 235.731 152.295 235.004C152.336 234.764 152.364 234.52 152.425 234.284C152.571 233.736 152.734 233.187 152.888 232.638C153.725 229.497 155.114 226.632 157.531 224.401C158.551 223.458 159.712 222.657 160.882 221.893C162.328 220.947 163.819 220.073 165.326 219.236C167.007 218.293 168.88 217.939 170.773 217.736C172.491 217.553 174.213 217.391 175.932 217.232C176.439 217.192 176.939 217.236 177.398 217.366C178.921 217.793 180.103 219.085 180.327 220.739C180.465 221.739 180.599 222.739 180.745 223.738C180.847 224.433 180.68 224.95 180.152 225.449L180.16 225.453Z" fill="black"/>
<path d="M167.3 243.78C167.239 243.597 167.113 243.446 166.938 243.353L160.155 239.87C159.984 239.781 159.781 239.764 159.598 239.825L155.674 241.085C155.492 241.146 155.337 241.272 155.248 241.447L150.081 251.525C149.992 251.7 149.975 251.895 150.036 252.082L151.3 256.008C151.361 256.195 151.486 256.345 151.661 256.435L158.44 259.917C158.546 259.97 158.66 259.999 158.774 259.999C158.851 259.999 158.924 259.986 158.997 259.962L162.921 258.698C163.104 258.637 163.258 258.507 163.347 258.337L168.518 248.258C168.608 248.083 168.624 247.888 168.563 247.701L167.3 243.776L167.3 243.78ZM167.19 247.421L164.976 247.718L164.424 246.007L166.361 244.852L167.19 247.425L167.19 247.421ZM154.907 254.74L157.904 256.28L158.079 258.365L153.144 255.829L154.907 254.74ZM159.131 256.333L160.821 255.788L161.885 257.755L159.322 258.58L159.131 256.333ZM160.703 254.545L158.546 255.24L155.394 253.622L154.699 251.464L157.892 245.247L160.049 244.552L163.201 246.169L163.896 248.327L160.703 254.545ZM163.668 245.039L160.671 243.499L160.524 241.431L165.46 243.967L163.664 245.039L163.668 245.039ZM159.448 243.463L157.754 244.007L156.706 242.036L159.289 241.203L159.448 243.463ZM155.829 242.983L156.771 244.755L153.656 250.83L151.673 251.082L155.829 242.983ZM151.401 252.35L153.619 252.07L154.163 253.769L152.238 254.955L151.401 252.35ZM162.762 256.813L161.812 255.057L164.944 248.957L166.934 248.689L162.762 256.817L162.762 256.813Z" fill="black"/>
</g>
<g filter="url(#filter1_d_1528_7237)">
<circle cx="83.8945" cy="50.1193" r="38.5" transform="rotate(9.0215 83.8945 50.1193)" fill="#FCFCFC"/>
</g>
<path d="M97.579 36.0804C97.0851 36.002 96.5746 35.9632 96.0634 35.9613C95.543 33.7392 93.7403 32.0108 91.4976 31.6547C90.0159 31.4195 88.5359 31.792 87.3359 32.6791C86.1216 31.3453 84.5139 30.4719 82.7449 30.1911C78.6425 29.5397 74.7503 32.2182 73.7169 36.2539C73.6211 36.2387 73.5304 36.2243 73.4548 36.2123C71.3028 35.8706 69.1537 36.4222 67.4015 37.7605C65.6451 39.0929 64.5233 41.049 64.2294 43.2581C63.6632 47.6057 66.7171 51.704 71.0362 52.3897L80.3598 53.87L76.3039 59.1744C75.9864 59.5466 75.8919 60.0441 76.0508 60.5078C76.2402 61.0397 76.7312 61.4293 77.336 61.5253L80.0575 61.9574L79.1297 67.8008C79.0397 68.3676 79.3374 68.9008 79.89 69.1629C80.0296 69.2273 80.1725 69.2711 80.3136 69.2936C80.7974 69.3704 81.2937 69.2062 81.6052 68.8383L89.2148 59.9617C89.5322 59.5895 89.6267 59.092 89.4678 58.6284C89.2784 58.0964 88.7874 57.7068 88.1826 57.6108L85.4612 57.1787L85.8489 54.7362L94.215 56.0645C96.8861 56.4886 99.6801 55.7805 101.877 54.1166C104.038 52.4787 105.432 50.1114 105.803 47.4497C106.567 42.0189 102.872 36.9155 97.5748 36.0745L97.579 36.0804ZM87.886 59.1538L80.7267 67.5049L81.6758 61.5276C81.7527 61.0432 81.4318 60.5908 80.9581 60.5156L77.6167 59.9851L84.9989 50.3275L83.842 57.6137C83.7651 58.098 84.086 58.5504 84.5597 58.6257L87.881 59.153L87.886 59.1538ZM100.969 52.8684C99.1014 54.2835 96.7326 54.8847 94.4596 54.5238L86.0936 53.1955L86.6032 49.9853C86.6932 49.4185 86.3956 48.8852 85.843 48.6231C85.2425 48.3376 84.5345 48.4682 84.0968 48.9798L81.436 52.4613L71.2808 50.849C67.7731 50.2921 65.2873 46.9761 65.7471 43.4621C65.9848 41.672 66.8915 40.0938 68.309 39.0087C69.7265 37.9236 71.4656 37.4813 73.2043 37.7574C73.3102 37.7742 73.4563 37.7974 73.5916 37.8241C74.2846 37.95 74.4661 37.9788 74.7464 37.775L75.0092 37.5843L75.0607 37.2597C75.6326 33.6579 78.9658 31.1812 82.4886 31.7405C84.1164 31.9989 85.5689 32.874 86.5682 34.1949C86.8392 34.5707 87.3482 34.6516 87.7239 34.3678L87.8017 34.3009C88.7298 33.4023 89.9864 33.0049 91.2413 33.2041C93.0304 33.4882 94.4325 34.9734 94.6484 36.8355C94.6846 37.0631 94.7979 37.2607 94.9789 37.3898L95.2727 37.5896L95.5436 37.5428C96.1436 37.506 96.7431 37.5378 97.3176 37.629C101.798 38.3404 104.921 42.6556 104.274 47.2493C103.959 49.492 102.785 51.4873 100.958 52.8719L100.969 52.8684Z" fill="black"/>
<g filter="url(#filter2_d_1528_7237)">
<rect x="6.40527" y="93.2266" width="297.829" height="96.8516" rx="5.90558" fill="#FCFCFC" shape-rendering="crispEdges"/>
<path d="M105.733 127.471C106.023 127.256 106.3 127.018 106.562 126.756C107.958 125.36 108.727 123.504 108.727 121.53C108.727 119.555 107.958 117.699 106.562 116.303C103.68 113.421 98.991 113.421 96.1089 116.303C95.8497 116.562 95.6123 116.837 95.3976 117.125C95.1816 116.835 94.943 116.559 94.6826 116.298C91.8005 113.416 87.1111 113.416 84.229 116.298C81.3473 119.18 81.3473 123.87 84.229 126.752C84.4894 127.012 84.7647 127.249 85.0518 127.462C84.7615 127.678 84.4846 127.917 84.2242 128.177C82.8281 129.573 82.0591 131.43 82.0591 133.404C82.0591 135.379 82.8281 137.235 84.2242 138.631C85.6202 140.027 87.4764 140.796 89.4506 140.796C91.4247 140.796 93.2813 140.027 94.6774 138.631C94.9361 138.372 95.1735 138.097 95.3883 137.809C95.6043 138.1 95.8429 138.376 96.1037 138.637C97.4997 140.033 99.3559 140.802 101.33 140.802C103.305 140.802 105.161 140.033 106.557 138.637C107.953 137.241 108.722 135.384 108.722 133.41C108.722 131.435 107.953 129.579 106.557 128.183C106.297 127.923 106.022 127.686 105.733 127.471ZM96.6797 116.874C97.9635 115.59 99.6494 114.948 101.335 114.948C103.021 114.948 104.707 115.59 105.991 116.874C107.235 118.117 107.919 119.771 107.919 121.53C107.919 123.288 107.234 124.942 105.991 126.185C105.684 126.492 105.355 126.762 105.007 126.995C103.9 126.358 102.641 126.018 101.33 126.018C100.546 126.018 99.7802 126.14 99.0548 126.374L101.83 123.599L101.259 123.028L97.4448 126.842C97.1775 126.646 96.9216 126.428 96.6801 126.186L96.6793 126.185C96.4375 125.943 96.2175 125.686 96.0189 125.416L99.8327 121.602L99.2619 121.031L96.4924 123.8C96.7262 123.075 96.8481 122.309 96.8481 121.525C96.8481 120.215 96.509 118.957 95.8731 117.851C96.1077 117.504 96.3774 117.176 96.6801 116.874H96.6797ZM96.1037 128.183L96.1024 128.184L95.3935 128.893L93.9672 127.467L94.6802 126.754C94.6802 126.754 94.6818 126.752 94.6826 126.751C94.6834 126.751 94.6842 126.75 94.685 126.749L95.3935 126.041L96.8198 127.467L96.1049 128.182L96.1037 128.183ZM95.3947 124.375C94.9737 123.498 94.7512 122.531 94.7512 121.529C94.7512 120.528 94.9745 119.557 95.3968 118.679C95.8178 119.556 96.0403 120.523 96.0403 121.525C96.0403 122.526 95.817 123.497 95.3947 124.375ZM95.3919 130.558C95.8126 131.435 96.035 132.402 96.035 133.404C96.035 134.405 95.8118 135.377 95.3891 136.255C94.9684 135.378 94.746 134.411 94.746 133.409C94.746 132.408 94.9692 131.436 95.3919 130.558ZM104.177 127.469C102.384 128.324 100.282 128.323 98.4892 127.466C99.3648 127.047 100.33 126.825 101.33 126.825C102.33 126.825 103.3 127.048 104.177 127.469ZM84.7999 126.181C82.2331 123.613 82.2331 119.436 84.7999 116.869C86.0836 115.585 87.7695 114.944 89.4558 114.944C91.1421 114.944 92.828 115.586 94.1118 116.869C94.4157 117.173 94.6862 117.502 94.9216 117.85C94.2841 118.957 93.9442 120.217 93.9442 121.53C93.9442 122.314 94.0661 123.079 94.2999 123.805L91.5248 121.03L90.954 121.601L94.7694 125.416C94.5728 125.683 94.3544 125.938 94.1154 126.177L94.1089 126.184C93.8667 126.426 93.61 126.645 93.3419 126.841L89.5277 123.027L88.9568 123.598L91.7267 126.368C91.0012 126.134 90.2354 126.012 89.451 126.012C88.1413 126.012 86.8838 126.351 85.7776 126.986C85.4329 126.753 85.105 126.485 84.8002 126.181H84.7999ZM92.2983 127.464C90.5046 128.32 88.4009 128.319 86.6076 127.462C87.4837 127.042 88.4498 126.82 89.4502 126.82C90.4505 126.82 91.4206 127.043 92.2979 127.464H92.2983ZM94.1065 138.06C92.8627 139.304 91.2095 139.988 89.4506 139.988C87.6916 139.988 86.0384 139.304 84.795 138.06C83.5512 136.816 82.8665 135.163 82.8665 133.404C82.8665 131.645 83.5516 129.992 84.795 128.748C85.0994 128.443 85.4288 128.173 85.778 127.937C86.9129 128.587 88.1841 128.913 89.4558 128.913C90.2265 128.913 90.9976 128.793 91.7376 128.554L88.956 131.336L89.5269 131.907L93.3423 128.091C93.6108 128.289 93.8663 128.508 94.1061 128.748C94.3483 128.99 94.5688 129.248 94.7674 129.518L90.9532 133.333L91.524 133.904L94.2938 131.134C94.0601 131.86 93.9382 132.625 93.9382 133.409C93.9382 134.719 94.2769 135.977 94.9123 137.083C94.6778 137.43 94.4085 137.757 94.1061 138.059L94.1065 138.06ZM105.986 138.066C104.743 139.31 103.089 139.994 101.33 139.994C99.5719 139.994 97.9183 139.31 96.6745 138.066C96.3705 137.762 96.1 137.433 95.8643 137.084C96.5021 135.977 96.8424 134.716 96.8424 133.404C96.8424 132.619 96.7205 131.854 96.4868 131.128L99.2619 133.904L99.8327 133.333L96.0181 129.518C96.2151 129.25 96.4335 128.996 96.6725 128.756L96.6765 128.752C96.9179 128.511 97.1751 128.291 97.4452 128.093L101.259 131.906L101.83 131.336L99.0535 128.559C99.7939 128.798 100.565 128.918 101.335 128.918C102.605 128.918 103.873 128.593 105.006 127.946C105.354 128.181 105.682 128.451 105.986 128.754C107.229 129.998 107.914 131.651 107.914 133.41C107.914 135.169 107.229 136.822 105.986 138.066H105.986Z" fill="black"/>
<path d="M44.407 152.324H47.6003V163.965H44.407V162.356C43.3259 163.739 42.0687 164.368 40.359 164.368C37.0902 164.368 34.752 161.828 34.752 158.283C34.752 154.738 37.2162 151.922 40.6106 151.922C42.1947 151.922 43.2758 152.475 44.4074 153.808V152.324H44.407ZM38.1714 158.233C38.1714 160.269 39.504 161.803 41.2387 161.803C42.9734 161.803 44.4571 160.143 44.4571 158.132C44.4571 156.121 43.1495 154.612 41.2638 154.612C39.378 154.612 38.1709 156.096 38.1709 158.233L38.1714 158.233Z" fill="black"/>
<path d="M53.9365 152.324V153.758C54.8921 152.475 56.0233 151.922 57.7584 151.922C58.9905 151.922 60.0212 152.223 61.0018 152.877C62.7619 154.085 63.642 155.844 63.642 158.183C63.642 161.904 61.3288 164.368 57.8339 164.368C56.1492 164.368 54.9171 163.84 53.9365 162.709V169.17H50.7432V152.324H53.9365V152.324ZM53.9365 158.283C53.9365 160.396 55.1686 161.803 57.0293 161.803C58.89 161.803 60.2226 160.32 60.2226 158.258C60.2226 156.196 58.9404 154.612 57.1298 154.612C55.3192 154.612 53.9365 156.121 53.9365 158.283V158.283Z" fill="black"/>
<path d="M69.2485 152.324V153.758C70.2041 152.475 71.3353 151.922 73.0704 151.922C74.3025 151.922 75.3332 152.223 76.3138 152.877C78.0739 154.085 78.954 155.844 78.954 158.183C78.954 161.904 76.6408 164.368 73.1459 164.368C71.4612 164.368 70.2291 163.84 69.2485 162.709V169.17H66.0552V152.324H69.2485V152.324ZM69.2485 158.283C69.2485 160.396 70.4806 161.803 72.3413 161.803C74.202 161.803 75.5346 160.32 75.5346 158.258C75.5346 156.196 74.2524 154.612 72.4418 154.612C70.6312 154.612 69.2485 156.121 69.2485 158.283V158.283Z" fill="black"/>
<path d="M84.5605 152.324V154.034C84.8875 153.179 85.1136 152.827 85.5916 152.475C86.0946 152.123 86.7732 151.922 87.4773 151.922C87.5528 151.922 87.6783 151.922 87.8544 151.947V155.216C87.6029 155.191 87.3513 155.165 87.1753 155.165C86.2952 155.165 85.4907 155.567 85.0381 156.221C84.661 156.749 84.5605 157.252 84.5605 158.359V163.966H81.3672V152.324H84.5605Z" fill="black"/>
<path d="M92.3047 158.951C92.5813 160.56 93.7629 161.566 95.3471 161.566C96.5287 161.566 97.5347 160.987 98.0374 160.057L100.979 160.862C99.8225 163.125 97.7858 164.407 95.322 164.407C91.6261 164.407 88.9858 161.792 88.9858 158.172C88.9858 154.551 91.5252 151.961 95.121 151.961C98.7168 151.961 101.432 154.576 101.432 158.322L101.407 158.951H92.3051L92.3047 158.951ZM98.1379 157.115C97.8613 155.582 96.7552 154.651 95.171 154.651C93.5869 154.651 92.6063 155.531 92.3047 157.115H98.1379Z" fill="black"/>
<path d="M113.942 162.242C112.71 163.551 111.373 164.188 109.619 164.328C106.085 164.611 103.27 162.212 102.988 158.678C102.695 155.019 105.043 152.208 108.653 151.92C110.382 151.781 111.859 152.269 113.444 153.479L111.468 155.579C110.71 154.933 109.932 154.667 109.005 154.742C107.25 154.882 106.061 156.415 106.213 158.32C106.371 160.3 107.814 161.622 109.669 161.474C110.496 161.408 111.077 161.109 111.846 160.316L113.943 162.242L113.942 162.242Z" fill="black"/>
<path d="M119.48 149.029C119.48 150.01 118.726 150.764 117.72 150.764C116.714 150.764 115.935 150.01 115.935 149.004C115.935 147.998 116.689 147.219 117.72 147.219C118.751 147.219 119.48 147.973 119.48 149.029V149.029ZM119.304 163.965H116.111V152.323H119.304V163.965Z" fill="black"/>
<path d="M130.824 152.324H134.017V163.965H130.824V162.356C129.743 163.739 128.486 164.368 126.776 164.368C123.507 164.368 121.169 161.828 121.169 158.283C121.169 154.738 123.633 151.922 127.028 151.922C128.612 151.922 129.693 152.475 130.824 153.808V152.324H130.824ZM124.588 158.233C124.588 160.269 125.921 161.803 127.656 161.803C129.39 161.803 130.874 160.143 130.874 158.132C130.874 156.121 129.566 154.612 127.681 154.612C125.795 154.612 124.588 156.096 124.588 158.233L124.588 158.233Z" fill="black"/>
<path d="M140.62 160.546C140.62 161.1 140.821 161.251 141.525 161.301H142.078V163.966H139.539C137.98 163.915 137.401 163.287 137.426 161.753V154.964H136.094V152.274H137.426V149.156H140.62V152.274H142.078V154.964H140.62V160.546Z" fill="black"/>
<path d="M146.815 158.912C147.092 160.521 148.273 161.527 149.857 161.527C151.039 161.527 152.045 160.948 152.548 160.018L155.489 160.823C154.333 163.086 152.296 164.368 149.832 164.368C146.136 164.368 143.496 161.753 143.496 158.133C143.496 154.512 146.036 151.922 149.631 151.922C153.227 151.922 155.942 154.537 155.942 158.283L155.917 158.912H146.815L146.815 158.912ZM152.648 157.076C152.372 155.543 151.265 154.612 149.681 154.612C148.097 154.612 147.117 155.492 146.815 157.076H152.648Z" fill="black"/>
<line x1="184.732" y1="112.568" x2="184.732" y2="170.738" stroke="#C4C4C4" stroke-width="0.885837" stroke-linecap="round"/>
<path d="M250.427 128.162L245.024 122.759C244.986 122.721 244.924 122.721 244.886 122.759L239.483 128.162C239.444 128.2 239.383 128.2 239.344 128.162L233.044 121.861C232.982 121.799 232.876 121.843 232.876 121.931L232.89 134.754V135.537C232.89 135.563 232.901 135.588 232.92 135.607L238.02 140.708L238.008 140.72L244.943 147.654L244.949 147.649L244.955 147.654L244.961 147.649L244.966 147.654L251.902 140.72L251.89 140.708L256.99 135.607C257.008 135.588 257.018 135.564 257.018 135.537V134.753L257.033 121.931C257.033 121.843 256.927 121.799 256.865 121.861L250.566 128.161C250.528 128.199 250.466 128.199 250.428 128.161L250.427 128.162ZM239.414 131.008L243.566 135.161L239.478 139.25C239.439 139.289 239.378 139.289 239.339 139.25L235.324 135.235C235.286 135.197 235.286 135.135 235.324 135.097L239.414 131.008ZM249.114 140.708L245.025 144.797C244.987 144.836 244.925 144.836 244.887 144.797L240.865 140.776C240.827 140.738 240.827 140.676 240.865 140.638L244.955 136.549L249.114 140.708ZM246.413 135.091L250.428 131.076C250.466 131.037 250.528 131.037 250.566 131.076L254.586 135.097C254.624 135.135 254.624 135.197 254.586 135.235L250.572 139.25C250.534 139.289 250.472 139.289 250.434 139.25L246.413 135.229C246.374 135.191 246.374 135.129 246.413 135.091ZM245.025 125.534L249.039 129.55C249.077 129.588 249.077 129.65 249.039 129.688L245.025 133.703C244.987 133.741 244.925 133.741 244.887 133.703L240.871 129.688C240.833 129.65 240.833 129.588 240.871 129.55L244.887 125.534C244.925 125.496 244.987 125.496 245.025 125.534ZM235.012 126.605L237.956 129.55C237.995 129.588 237.995 129.65 237.956 129.688L235.018 132.625C234.956 132.687 234.85 132.643 234.85 132.556L234.843 126.674C234.843 126.587 234.949 126.542 235.011 126.604L235.012 126.605ZM251.954 129.549L254.897 126.605C254.959 126.543 255.065 126.588 255.065 126.675L255.059 132.556C255.059 132.643 254.953 132.687 254.891 132.625L251.954 129.688C251.916 129.65 251.916 129.588 251.954 129.55V129.549Z" fill="black"/>
<path d="M216.981 152.138L219.156 158.736C219.18 158.811 219.279 158.828 219.327 158.765L223.955 152.718C223.994 152.666 224.073 152.667 224.112 152.719L228.589 158.764C228.637 158.827 228.735 158.812 228.761 158.738L231.087 152.136C231.101 152.097 231.138 152.07 231.18 152.07H235.248C235.315 152.07 235.363 152.137 235.34 152.202L232.067 161.375C232.053 161.415 232.016 161.44 231.975 161.44H226.228C226.194 161.44 226.162 161.423 226.145 161.394L224.112 158.105C224.076 158.045 223.989 158.042 223.949 158.099L221.576 161.4C221.557 161.426 221.528 161.441 221.497 161.441H215.94C215.897 161.441 215.861 161.415 215.847 161.375L212.642 152.201C212.619 152.137 212.667 152.07 212.734 152.07H216.888C216.93 152.07 216.967 152.098 216.981 152.138Z" fill="black"/>
<path d="M247.78 152.071H241.967C241.937 152.071 241.908 152.085 241.889 152.109L234.657 161.282C234.606 161.347 234.652 161.441 234.735 161.441H239.382C239.412 161.441 239.442 161.426 239.46 161.402L240.457 160.081C240.475 160.056 240.504 160.042 240.534 160.042L249.292 159.998C249.321 159.998 249.348 160.011 249.367 160.034L250.529 161.434C250.548 161.457 250.576 161.47 250.606 161.47L254.862 161.441C254.944 161.441 254.989 161.347 254.939 161.283L247.858 152.109C247.839 152.084 247.811 152.07 247.78 152.07V152.071ZM242.475 157.357L244.721 154.3C244.758 154.249 244.835 154.246 244.876 154.295L247.416 157.352C247.469 157.416 247.424 157.513 247.34 157.513H242.555C242.474 157.513 242.428 157.422 242.475 157.357Z" fill="black"/>
<path d="M257.016 152.25L263.189 156.697C263.244 156.736 263.243 156.818 263.189 156.857L257.018 161.266C256.94 161.321 256.979 161.443 257.075 161.443H262.335C262.356 161.443 262.376 161.437 262.392 161.426L266.196 158.725C266.232 158.7 266.278 158.7 266.312 158.727L269.883 161.425C269.899 161.437 269.921 161.444 269.942 161.444H275.786C275.882 161.444 275.922 161.32 275.842 161.266L269.48 156.859C269.424 156.82 269.424 156.737 269.48 156.698L275.845 152.253C275.923 152.198 275.885 152.074 275.789 152.074H270.021C269.999 152.074 269.978 152.082 269.96 152.095L266.495 154.826C266.459 154.854 266.41 154.855 266.375 154.827L262.783 152.094C262.766 152.081 262.745 152.074 262.723 152.074H257.073C256.978 152.074 256.938 152.196 257.016 152.252V152.25Z" fill="black"/>
</g>
<g filter="url(#filter3_d_1528_7237)">
<circle cx="213.5" cy="46.5687" r="38.5" transform="rotate(-13.79 213.5 46.5687)" fill="#FCFCFC"/>
</g>
<path d="M236.245 59.4909L199.73 68.453C199.666 68.4688 199.599 68.4284 199.582 68.3588L194.341 40.11C194.326 40.0511 194.368 39.9898 194.432 39.974L227.761 31.7938C227.82 31.7793 227.885 31.8144 227.905 31.872L236.338 59.3375C236.354 59.4018 236.32 59.4725 236.25 59.4896L236.245 59.4909Z" stroke="black" stroke-width="1.65389" stroke-miterlimit="10" stroke-linecap="round" stroke-dasharray="1.65 3.31"/>
<path d="M204.084 35.1825C203.359 31.4497 202.607 23.9707 207.848 22.6842C213.089 21.3978 215.884 28.3708 216.975 32.0187" stroke="black" stroke-width="1.65389" stroke-miterlimit="10" stroke-linecap="round" stroke-dasharray="1.35 2.71"/>
<path d="M214.146 52.5818C214.546 52.4835 214.791 52.0795 214.693 51.6794L214.62 51.3827C214.431 50.6123 214.61 50.1694 215.384 49.4096C216.849 48.0242 217.49 46.8792 217.112 45.3384C216.637 43.4035 214.591 42.5 212.634 42.9802C210.28 43.5581 209.06 45.2879 209.183 47.301C209.209 47.7245 209.622 47.9912 210.039 47.91C210.458 47.8284 210.722 47.4252 210.725 46.9987C210.733 45.7083 211.438 44.7554 212.977 44.3776C214.173 44.0842 215.313 44.5832 215.59 45.7119C215.832 46.6973 215.447 47.4756 214.282 48.5974C213.226 49.6163 212.872 50.5201 213.14 51.613L213.244 52.035C213.342 52.4352 213.746 52.68 214.146 52.5818ZM215.133 55.9485C215.67 55.8169 215.998 55.2754 215.866 54.739L215.833 54.6031C215.701 54.0667 215.16 53.7386 214.623 53.8703L214.41 53.9226C213.874 54.0542 213.546 54.5958 213.677 55.1321L213.711 55.268C213.842 55.8044 214.384 56.1325 214.92 56.0009L215.133 55.9485Z" fill="black"/>
<defs>
<filter id="filter0_d_1528_7237" x="120.234" y="193.461" width="93.02" height="93.0195" filterUnits="userSpaceOnUse" color-interpolation-filters="sRGB">
<feFlood flood-opacity="0" result="BackgroundImageFix"/>
<feColorMatrix in="SourceAlpha" type="matrix" values="0 0 0 0 0 0 0 0 0 0 0 0 0 0 0 0 0 0 127 0" result="hardAlpha"/>
<feOffset dx="2" dy="2"/>
<feGaussianBlur stdDeviation="4"/>
<feComposite in2="hardAlpha" operator="out"/>
<feColorMatrix type="matrix" values="0 0 0 0 0 0 0 0 0 0 0 0 0 0 0 0 0 0 0.25 0"/>
<feBlend mode="normal" in2="BackgroundImageFix" result="effect1_dropShadow_1528_7237"/>
<feBlend mode="normal" in="SourceGraphic" in2="effect1_dropShadow_1528_7237" result="shape"/>
</filter>
<filter id="filter1_d_1528_7237" x="39.3887" y="5.61328" width="93.0112" height="93.0117" filterUnits="userSpaceOnUse" color-interpolation-filters="sRGB">
<feFlood flood-opacity="0" result="BackgroundImageFix"/>
<feColorMatrix in="SourceAlpha" type="matrix" values="0 0 0 0 0 0 0 0 0 0 0 0 0 0 0 0 0 0 127 0" result="hardAlpha"/>
<feOffset dx="2" dy="2"/>
<feGaussianBlur stdDeviation="4"/>
<feComposite in2="hardAlpha" operator="out"/>
<feColorMatrix type="matrix" values="0 0 0 0 0 0 0 0 0 0 0 0 0 0 0 0 0 0 0.25 0"/>
<feBlend mode="normal" in2="BackgroundImageFix" result="effect1_dropShadow_1528_7237"/>
<feBlend mode="normal" in="SourceGraphic" in2="effect1_dropShadow_1528_7237" result="shape"/>
</filter>
<filter id="filter2_d_1528_7237" x="0.405273" y="87.2266" width="313.829" height="112.852" filterUnits="userSpaceOnUse" color-interpolation-filters="sRGB">
<feFlood flood-opacity="0" result="BackgroundImageFix"/>
<feColorMatrix in="SourceAlpha" type="matrix" values="0 0 0 0 0 0 0 0 0 0 0 0 0 0 0 0 0 0 127 0" result="hardAlpha"/>
<feOffset dx="2" dy="2"/>
<feGaussianBlur stdDeviation="4"/>
<feComposite in2="hardAlpha" operator="out"/>
<feColorMatrix type="matrix" values="0 0 0 0 0 0 0 0 0 0 0 0 0 0 0 0 0 0 0.25 0"/>
<feBlend mode="normal" in2="BackgroundImageFix" result="effect1_dropShadow_1528_7237"/>
<feBlend mode="normal" in="SourceGraphic" in2="effect1_dropShadow_1528_7237" result="shape"/>
</filter>
<filter id="filter3_d_1528_7237" x="168.991" y="2.05859" width="93.0181" height="93.0195" filterUnits="userSpaceOnUse" color-interpolation-filters="sRGB">
<feFlood flood-opacity="0" result="BackgroundImageFix"/>
<feColorMatrix in="SourceAlpha" type="matrix" values="0 0 0 0 0 0 0 0 0 0 0 0 0 0 0 0 0 0 127 0" result="hardAlpha"/>
<feOffset dx="2" dy="2"/>
<feGaussianBlur stdDeviation="4"/>
<feComposite in2="hardAlpha" operator="out"/>
<feColorMatrix type="matrix" values="0 0 0 0 0 0 0 0 0 0 0 0 0 0 0 0 0 0 0.25 0"/>
<feBlend mode="normal" in2="BackgroundImageFix" result="effect1_dropShadow_1528_7237"/>
<feBlend mode="normal" in="SourceGraphic" in2="effect1_dropShadow_1528_7237" result="shape"/>
</filter>
<clipPath id="clip0_1528_7237">
<rect width="32" height="44" fill="white" transform="translate(150 216)"/>
</clipPath>
</defs>
</svg>
