<svg width="380" height="173" viewBox="0 0 380 173" fill="none" xmlns="http://www.w3.org/2000/svg">
<path d="M222.57 42.0052C223.481 41.3299 224.355 40.5796 225.18 39.7542C229.578 35.3565 232 29.5089 232 23.2888C232 17.0686 229.578 11.221 225.18 6.8233C216.102 -2.25578 201.333 -2.25578 192.255 6.8233C191.438 7.63977 190.69 8.50584 190.014 9.41515C189.334 8.50076 188.582 7.6296 187.762 6.80932C178.684 -2.26977 163.913 -2.26977 154.835 6.80932C145.758 15.8884 145.758 30.6612 154.835 39.7402C155.655 40.5605 156.522 41.3058 157.426 41.9773C156.512 42.6577 155.64 43.4093 154.82 44.2308C150.422 48.6286 148 54.4761 148 60.6963C148 66.9165 150.422 72.764 154.82 77.1618C159.217 81.5595 165.064 83.9822 171.282 83.9822C177.5 83.9822 183.348 81.5595 187.745 77.1618C188.561 76.3465 189.308 75.4805 189.985 74.5724C190.665 75.4881 191.417 76.3593 192.238 77.1796C196.635 81.5773 202.482 84 208.702 84C214.921 84 220.767 81.5773 225.164 77.1796C229.561 72.7818 231.983 66.9343 231.983 60.7141C231.983 54.4939 229.561 48.6464 225.164 44.2486C224.346 43.4309 223.479 42.6831 222.57 42.0052ZM194.053 8.62157C198.096 4.57865 203.407 2.55655 208.717 2.55655C214.027 2.55655 219.339 4.57865 223.381 8.62157C227.299 12.5386 229.456 17.7477 229.456 23.2888C229.456 28.8298 227.298 34.0377 223.381 37.956C222.416 38.9212 221.377 39.7708 220.283 40.5058C216.797 38.499 212.83 37.4295 208.7 37.4295C206.23 37.4295 203.819 37.8135 201.534 38.5499L210.275 29.8078L208.476 28.0095L196.462 40.0251C195.621 39.407 194.814 38.719 194.054 37.9572L194.051 37.9547C193.29 37.1929 192.597 36.3828 191.971 35.5307L203.984 23.5164L202.186 21.7181L193.463 30.4424C194.199 28.1571 194.583 25.7458 194.583 23.2748C194.583 19.1479 193.515 15.1838 191.512 11.6992C192.251 10.6068 193.1 9.57539 194.054 8.62157H194.053ZM192.238 44.2486L192.234 44.2524L190.001 46.4856L185.509 41.9925L187.754 39.7466C187.754 39.7466 187.759 39.7415 187.762 39.739C187.765 39.7364 187.767 39.7339 187.77 39.7313L190.001 37.4994L194.494 41.9925L192.242 44.2448L192.238 44.2486ZM190.005 32.2534C188.679 29.4899 187.978 26.4427 187.978 23.2875C187.978 20.1323 188.681 17.075 190.011 14.3076C191.338 17.0711 192.038 20.1183 192.038 23.2735C192.038 26.4287 191.335 29.486 190.005 32.2534ZM189.996 51.7317C191.321 54.4939 192.022 57.5398 192.022 60.695C192.022 63.8503 191.319 66.9101 189.987 69.6762C188.662 66.9139 187.962 63.8681 187.962 60.7128C187.962 57.5576 188.665 54.4977 189.996 51.7317ZM217.666 41.9989C212.019 44.6937 205.398 44.6912 199.752 41.9913C202.51 40.6699 205.552 39.9717 208.702 39.9717C211.851 39.9717 214.904 40.6724 217.666 41.9989ZM156.633 37.9407C148.548 29.8536 148.548 16.6947 156.633 8.60758C160.677 4.56339 165.987 2.54256 171.298 2.54256C176.61 2.54256 181.92 4.56466 185.964 8.60758C186.921 9.56522 187.773 10.6004 188.515 11.698C186.507 15.1864 185.436 19.1543 185.436 23.2888C185.436 25.7598 185.82 28.1711 186.556 30.4564L177.815 21.7143L176.017 23.5126L188.035 35.532C187.416 36.3739 186.728 37.1764 185.975 37.9305L185.955 37.9509C185.192 38.7127 184.383 39.4032 183.539 40.0213L171.525 28.0057L169.727 29.804L178.451 38.5295C176.166 37.7932 173.754 37.4091 171.283 37.4091C167.158 37.4091 163.197 38.4761 159.713 40.4779C158.627 39.7453 157.594 38.9009 156.634 37.9407H156.633ZM180.252 41.9836C174.602 44.681 167.976 44.6785 162.327 41.976C165.087 40.6534 168.13 39.9539 171.281 39.9539C174.432 39.9539 177.487 40.6559 180.251 41.9836H180.252ZM185.947 75.3622C182.03 79.2805 176.822 81.4374 171.282 81.4374C165.741 81.4374 160.534 79.2805 156.618 75.3622C152.7 71.4452 150.543 66.2361 150.543 60.695C150.543 55.154 152.701 49.9461 156.618 46.0278C157.576 45.0689 158.614 44.2156 159.714 43.4729C163.289 45.5217 167.293 46.548 171.298 46.548C173.726 46.548 176.155 46.1715 178.486 45.4186L169.724 54.1811L171.522 55.9793L183.54 43.9599C184.386 44.5818 185.191 45.2724 185.946 46.0278C186.709 46.7909 187.403 47.6023 188.029 48.4556L176.015 60.4712L177.813 62.2695L186.537 53.5452C185.801 55.8305 185.417 58.2418 185.417 60.7128C185.417 64.8397 186.484 68.8012 188.486 72.2858C187.747 73.3783 186.899 74.4084 185.946 75.3609L185.947 75.3622ZM223.366 75.3813C219.449 79.2996 214.241 81.4565 208.702 81.4565C203.162 81.4565 197.954 79.2996 194.036 75.3813C193.079 74.4237 192.227 73.3872 191.484 72.2884C193.493 68.7999 194.565 64.8295 194.565 60.695C194.565 58.224 194.181 55.8127 193.445 53.5274L202.186 62.2695L203.984 60.4712L191.968 48.4543C192.589 47.6112 193.277 46.8087 194.03 46.0545L194.042 46.0418C194.803 45.2813 195.613 44.5895 196.464 43.9638L208.476 55.9781L210.275 54.1798L201.53 45.4339C203.862 46.1868 206.289 46.5632 208.717 46.5632C212.715 46.5632 216.711 45.5407 220.28 43.5008C221.376 44.241 222.41 45.0918 223.364 46.0482C227.282 49.9652 229.439 55.1743 229.439 60.7154C229.439 66.2564 227.281 71.4643 223.364 75.3813H223.366Z" fill="black"/>
<path d="M30.274 120.179H40.2869V156.681H30.274V151.635C26.8841 155.971 22.9422 157.943 17.5814 157.943C7.33179 157.943 0 149.981 0 138.864C0 127.747 7.72674 118.918 18.37 118.918C23.3372 118.918 26.7271 120.652 30.2753 124.831V120.179H30.274ZM10.7217 138.706C10.7217 145.092 14.9003 149.901 20.3396 149.901C25.779 149.901 30.431 144.697 30.431 138.391C30.431 132.084 26.3309 127.354 20.4181 127.354C14.5054 127.354 10.7205 132.006 10.7205 138.707L10.7217 138.706Z" fill="black"/>
<path d="M60.1542 120.179V124.672C63.1505 120.652 66.6974 118.917 72.138 118.917C76.0014 118.917 79.2331 119.862 82.3078 121.913C87.8269 125.698 90.5865 131.215 90.5865 138.549C90.5865 150.217 83.3332 157.943 72.3747 157.943C67.0923 157.943 63.229 156.287 60.1542 152.739V173H50.1414V120.177H60.1542V120.179ZM60.1542 138.864C60.1542 145.487 64.0176 149.901 69.8519 149.901C75.6862 149.901 79.8647 145.249 79.8647 138.784C79.8647 132.319 75.8444 127.352 70.1671 127.352C64.4897 127.352 60.1542 132.083 60.1542 138.862V138.864Z" fill="black"/>
<path d="M108.167 120.179V124.672C111.163 120.652 114.71 118.917 120.15 118.917C124.014 118.917 127.245 119.862 130.32 121.913C135.839 125.698 138.599 131.215 138.599 138.549C138.599 150.217 131.345 157.943 120.387 157.943C115.105 157.943 111.241 156.287 108.167 152.739V173H98.1537V120.177H108.167V120.179ZM108.167 138.864C108.167 145.487 112.03 149.901 117.864 149.901C123.698 149.901 127.877 145.249 127.877 138.784C127.877 132.319 123.857 127.352 118.179 127.352C112.502 127.352 108.167 132.083 108.167 138.862V138.864Z" fill="black"/>
<path d="M156.179 120.179V125.539C157.204 122.858 157.913 121.755 159.412 120.651C160.989 119.547 163.117 118.917 165.325 118.917C165.561 118.917 165.955 118.917 166.507 118.995V129.245C165.718 129.166 164.93 129.086 164.378 129.086C161.618 129.086 159.095 130.347 157.676 132.398C156.494 134.054 156.179 135.631 156.179 139.099V156.681H146.166V120.179H156.179Z" fill="black"/>
<path d="M180.46 140.961C181.327 146.007 185.032 149.16 189.999 149.16C193.705 149.16 196.859 147.346 198.435 144.43L207.659 146.953C204.033 154.048 197.646 158.069 189.921 158.069C178.332 158.069 170.053 149.87 170.053 138.517C170.053 127.164 178.016 119.043 189.291 119.043C200.565 119.043 209.08 127.242 209.08 138.989L209.001 140.96H180.461L180.46 140.961ZM198.75 135.206C197.883 130.397 194.415 127.479 189.448 127.479C184.48 127.479 181.406 130.238 180.46 135.206H198.75Z" fill="black"/>
<path d="M248.305 151.281C244.441 155.386 240.25 157.382 234.75 157.822C223.669 158.708 214.842 151.188 213.957 140.107C213.039 128.633 220.403 119.819 231.719 118.915C237.142 118.481 241.772 120.009 246.742 123.804L240.546 130.388C238.17 128.364 235.73 127.53 232.823 127.764C227.322 128.203 223.594 133.009 224.07 138.983C224.566 145.191 229.09 149.338 234.905 148.873C237.498 148.665 239.323 147.728 241.734 145.243L248.306 151.282L248.305 151.281Z" fill="black"/>
<path d="M265.671 109.851C265.671 112.925 263.306 115.29 260.152 115.29C256.997 115.29 254.554 112.925 254.554 109.771C254.554 106.616 256.919 104.173 260.152 104.173C263.385 104.173 265.671 106.538 265.671 109.849V109.851ZM265.119 156.681H255.106V120.179H265.119V156.681Z" fill="black"/>
<path d="M301.24 120.179H311.252V156.681H301.24V151.635C297.85 155.971 293.908 157.943 288.547 157.943C278.297 157.943 270.966 149.981 270.966 138.864C270.966 127.747 278.692 118.918 289.336 118.918C294.303 118.918 297.693 120.652 301.241 124.831V120.179H301.24ZM281.687 138.706C281.687 145.092 285.866 149.901 291.305 149.901C296.745 149.901 301.397 144.697 301.397 138.391C301.397 132.084 297.296 127.354 291.384 127.354C285.471 127.354 281.686 132.006 281.686 138.707L281.687 138.706Z" fill="black"/>
<path d="M331.955 145.959C331.955 147.693 332.586 148.167 334.793 148.324H336.528V156.681H328.565C323.678 156.523 321.864 154.552 321.942 149.743V128.456H317.764V120.021H321.942V110.244H331.955V120.021H336.528V128.456H331.955V145.959Z" fill="black"/>
<path d="M351.38 140.835C352.248 145.88 355.953 149.034 360.92 149.034C364.625 149.034 367.78 147.22 369.355 144.303L378.58 146.826C374.953 153.921 368.567 157.943 360.841 157.943C349.253 157.943 340.974 149.744 340.974 138.39C340.974 127.037 348.937 118.917 360.211 118.917C371.485 118.917 380 127.115 380 138.862L379.922 140.833H351.382L351.38 140.835ZM369.671 135.079C368.804 130.27 365.335 127.352 360.368 127.352C355.401 127.352 352.326 130.112 351.38 135.079H369.671Z" fill="black"/>
</svg>
