<svg width="372" height="68" viewBox="0 0 372 68" fill="none" xmlns="http://www.w3.org/2000/svg">
<path d="M39.4384 15.8136V51.8768H29.6359V46.8905C26.3165 51.1742 22.4568 53.1195 17.2101 53.1195C7.17912 53.1195 0 45.2546 0 34.2699C0 22.8972 7.56353 14.5657 17.979 14.5657C22.8412 14.5657 26.1607 16.2802 29.6308 20.4067V15.8136H39.4384ZM10.4986 34.1179C10.4986 40.4255 14.5868 45.1759 19.9114 45.1759C25.3918 45.1759 29.7866 40.0323 29.7866 33.8033C29.7866 27.417 25.7763 22.8972 19.9841 22.8972C14.4362 22.9025 10.4986 27.4956 10.4986 34.1179Z" fill="#666666"/>
<path d="M58.8875 15.8137V20.2548C61.8173 16.2804 65.2926 14.5711 70.6172 14.5711C74.399 14.5711 77.5625 15.5044 80.5703 17.5283C85.9728 21.2667 88.6741 26.7197 88.6741 33.9607C88.6741 45.4854 81.5729 53.1196 70.851 53.1196C65.6822 53.1196 61.9004 51.4837 58.8875 47.9812V68H49.085V15.8137H58.8875ZM58.8875 34.2753C58.8875 40.8189 62.6692 45.1813 68.3783 45.1813C74.0873 45.1813 78.1755 40.5882 78.1755 34.1966C78.1755 27.5744 74.2379 22.9026 68.6847 22.9026C62.8978 22.9026 58.8875 27.5744 58.8875 34.2753Z" fill="#666666"/>
<path d="M105.889 15.8137V20.2548C108.819 16.2804 112.295 14.5711 117.619 14.5711C121.401 14.5711 124.564 15.5044 127.572 17.5283C132.975 21.2667 135.676 26.7197 135.676 33.9607C135.676 45.4854 128.575 53.1196 117.853 53.1196C112.684 53.1196 108.902 51.4837 105.889 47.9812V68H96.087V15.8137H105.889ZM105.889 34.2753C105.889 40.8189 109.671 45.1813 115.38 45.1813C121.089 45.1813 125.183 40.5882 125.183 34.1966C125.183 27.5744 121.245 22.9026 115.692 22.9026C109.9 22.9026 105.889 27.5744 105.889 34.2753Z" fill="#666666"/>
<path d="M152.886 15.8136V21.1093C153.889 18.4614 154.585 17.3708 156.05 16.2802C157.593 15.1896 159.676 14.5657 161.837 14.5657C162.07 14.5657 162.455 14.5657 162.995 14.6443V24.7691C162.221 24.6904 161.452 24.6118 160.912 24.6118C158.211 24.6118 155.743 25.8597 154.351 27.8836C153.193 29.5195 152.886 31.0768 152.886 34.5059V51.8768H143.084V15.8136H152.886Z" fill="#666666"/>
<path d="M176.657 36.2205C177.504 41.2069 181.135 44.3214 185.997 44.3214C189.623 44.3214 192.709 42.5282 194.257 39.6496L203.285 42.1402C199.737 49.1504 193.483 53.1248 185.925 53.1248C174.579 53.1248 166.481 45.024 166.481 33.8086C166.481 22.5146 174.273 14.5711 185.312 14.5711C196.735 14.5711 204.683 22.6719 204.683 34.2753L204.605 36.2205H176.657ZM194.558 30.5368C193.712 25.7864 190.314 22.9026 185.452 22.9026C180.745 22.9026 177.582 25.6291 176.657 30.5368H194.558Z" fill="#666666"/>
<path d="M243.025 46.4817C239.228 50.5243 235.119 52.48 229.732 52.8942C218.885 53.7279 210.272 46.2667 209.446 35.3188C208.589 23.9776 215.831 15.3 226.911 14.4453C232.22 14.0364 236.745 15.5621 241.597 19.3321L235.508 25.8127C233.192 23.8046 230.807 22.9709 227.96 23.1911C222.574 23.6053 218.906 28.34 219.353 34.2439C219.815 40.3785 224.225 44.4945 229.924 44.0541C232.464 43.8601 234.251 42.9373 236.62 40.4939L243.025 46.4817Z" fill="#666666"/>
<path d="M259.96 5.61031C259.96 8.64616 257.643 10.9847 254.557 10.9847C251.394 10.9847 249.077 8.64615 249.077 5.53164C249.077 2.33849 251.394 0 254.557 0C257.721 0 259.96 2.33851 259.96 5.61031ZM259.42 51.8769H249.617V15.8137H259.42V51.8769Z" fill="#666666"/>
<path d="M304.536 15.8136V51.8768H294.734V46.8905C291.414 51.1742 287.554 53.1195 282.308 53.1195C272.277 53.1195 265.098 45.2546 265.098 34.2699C265.098 22.8972 272.661 14.5657 283.077 14.5657C287.939 14.5657 291.258 16.2802 294.728 20.4067V15.8136H304.536ZM275.596 34.1179C275.596 40.4255 279.684 45.1759 285.009 45.1759C290.489 45.1759 294.884 40.0323 294.884 33.8033C294.884 27.417 290.874 22.8972 285.082 22.8972C279.534 22.9025 275.596 27.4956 275.596 34.1179Z" fill="#666666"/>
<path d="M324.837 41.2855C324.837 43 325.455 43.4667 327.616 43.624H329.315V51.8821H321.523C316.738 51.7248 314.962 49.7796 315.04 45.0292V23.9932H310.951V15.6564H315.04V5.99827H324.842V15.6564H329.32V23.9932H324.842V41.2855H324.837Z" fill="#666666"/>
<path d="M343.974 36.2205C344.821 41.2069 348.452 44.3214 353.315 44.3214C356.94 44.3214 360.026 42.5282 361.574 39.6496L370.603 42.1402C367.055 49.1504 360.8 53.1248 353.242 53.1248C341.897 53.1248 333.798 45.024 333.798 33.8086C333.798 22.5146 341.59 14.5711 352.629 14.5711C364.052 14.5711 372 22.6719 372 34.2753L371.922 36.2205H343.974ZM361.875 30.5368C361.029 25.7864 357.631 22.9026 352.769 22.9026C348.063 22.9026 344.899 25.6291 343.974 30.5368H361.875Z" fill="#666666"/>
</svg>
