<svg width="99" height="18" viewBox="0 0 99 18" fill="none" xmlns="http://www.w3.org/2000/svg">
<path d="M10.4957 4.18595V13.7321H7.88699V12.4122C7.00359 13.5461 5.97641 14.061 4.58012 14.061C1.91057 14.061 0 11.9791 0 9.07144C0 6.06104 2.01287 3.85562 4.78472 3.85562C6.07872 3.85562 6.96211 4.30947 7.8856 5.40177V4.18595H10.4957ZM2.79397 9.0312C2.79397 10.7009 3.88197 11.9583 5.299 11.9583C6.75751 11.9583 7.92708 10.5968 7.92708 8.94792C7.92708 7.25743 6.85981 6.06104 5.31836 6.06104C3.84188 6.06242 2.79397 7.27825 2.79397 9.0312Z" fill="#222222"/>
<path d="M15.6717 4.18599V5.36156C16.4514 4.30951 17.3763 3.85705 18.7933 3.85705C19.7997 3.85705 20.6416 4.1041 21.4421 4.63984C22.8799 5.62943 23.5987 7.07287 23.5987 8.98959C23.5987 12.0402 21.7089 14.0611 18.8555 14.0611C17.4799 14.0611 16.4735 13.628 15.6717 12.7009V18H13.0629V4.18599H15.6717ZM15.6717 9.07287C15.6717 10.805 16.6781 11.9597 18.1974 11.9597C19.7168 11.9597 20.8048 10.7439 20.8048 9.05205C20.8048 7.2991 19.7569 6.06246 18.279 6.06246C16.7389 6.06246 15.6717 7.2991 15.6717 9.07287Z" fill="#222222"/>
<path d="M28.1802 4.18599V5.36156C28.96 4.30951 29.8848 3.85705 31.3019 3.85705C32.3083 3.85705 33.1502 4.1041 33.9507 4.63984C35.3884 5.62943 36.1073 7.07287 36.1073 8.98959C36.1073 12.0402 34.2175 14.0611 31.3641 14.0611C29.9885 14.0611 28.9821 13.628 28.1802 12.7009V18H25.5715V4.18599H28.1802ZM28.1802 9.07287C28.1802 10.805 29.1867 11.9597 30.706 11.9597C32.2253 11.9597 33.3147 10.7439 33.3147 9.05205C33.3147 7.2991 32.2668 6.06246 30.789 6.06246C29.2475 6.06246 28.1802 7.2991 28.1802 9.07287Z" fill="#222222"/>
<path d="M40.6874 4.18595V5.58776C40.9543 4.88685 41.1395 4.59816 41.5294 4.30947C41.94 4.02079 42.4943 3.85562 43.0694 3.85562C43.1316 3.85562 43.2339 3.85562 43.3777 3.87644V6.55653C43.1717 6.53571 42.9671 6.51489 42.8234 6.51489C42.1045 6.51489 41.4478 6.84521 41.0773 7.38095C40.769 7.81399 40.6874 8.2262 40.6874 9.1339V13.7321H38.0787V4.18595H40.6874Z" fill="#222222"/>
<path d="M47.0136 9.58779C47.239 10.9077 48.2053 11.7321 49.4993 11.7321C50.4643 11.7321 51.2854 11.2575 51.6974 10.4955L54.1002 11.1548C53.1559 13.0104 51.4914 14.0625 49.4799 14.0625C46.4606 14.0625 44.3054 11.9181 44.3054 8.94934C44.3054 5.95975 46.3791 3.85705 49.3168 3.85705C52.3569 3.85705 54.472 6.00139 54.472 9.07287L54.4513 9.58779H47.0136ZM51.7776 8.08328C51.5523 6.82582 50.6481 6.06246 49.3541 6.06246C48.1016 6.06246 47.2597 6.78418 47.0136 8.08328H51.7776Z" fill="#222222"/>
<path d="M64.6761 12.304C63.6655 13.3741 62.5719 13.8918 61.1383 14.0014C58.2517 14.2221 55.9596 12.2471 55.7398 9.34909C55.5117 6.34701 57.4388 4.04999 60.3876 3.82376C61.8005 3.7155 63.0047 4.11939 64.2959 5.11731L62.6756 6.83279C62.059 6.30121 61.4245 6.08053 60.6669 6.13882C59.2333 6.24847 58.2573 7.50176 58.3761 9.06457C58.4992 10.6884 59.6729 11.778 61.1895 11.6614C61.8655 11.61 62.3411 11.3657 62.9715 10.719L64.6761 12.304Z" fill="#222222"/>
<path d="M69.1829 1.48508C69.1829 2.28869 68.5663 2.9077 67.7451 2.9077C66.9032 2.9077 66.2866 2.28869 66.2866 1.46426C66.2866 0.619013 66.9032 0 67.7451 0C68.587 0 69.1829 0.619016 69.1829 1.48508ZM69.0391 13.7321H66.4304V4.18598H69.0391V13.7321Z" fill="#222222"/>
<path d="M81.0459 4.18595V13.7321H78.4371V12.4122C77.5537 13.5461 76.5266 14.061 75.1303 14.061C72.4607 14.061 70.5502 11.9791 70.5502 9.07144C70.5502 6.06104 72.563 3.85562 75.3349 3.85562C76.6289 3.85562 77.5123 4.30947 78.4358 5.40177V4.18595H81.0459ZM73.3441 9.0312C73.3441 10.7009 74.4321 11.9583 75.8492 11.9583C77.3077 11.9583 78.4772 10.5968 78.4772 8.94792C78.4772 7.25743 77.41 6.06104 75.8685 6.06104C74.392 6.06242 73.3441 7.27825 73.3441 9.0312Z" fill="#222222"/>
<path d="M86.4485 10.9285C86.4485 11.3824 86.613 11.5059 87.1881 11.5475H87.6402V13.7335H85.5665C84.2933 13.6919 83.8205 13.1769 83.8412 11.9195V6.35114H82.7532V4.14433H83.8412V1.58778H86.4499V4.14433H87.6416V6.35114H86.4499V10.9285H86.4485Z" fill="#222222"/>
<path d="M91.5416 9.58779C91.7669 10.9077 92.7333 11.7321 94.0273 11.7321C94.9922 11.7321 95.8134 11.2575 96.2254 10.4955L98.6281 11.1548C97.6839 13.0104 96.0194 14.0625 94.0079 14.0625C90.9886 14.0625 88.8333 11.9181 88.8333 8.94934C88.8333 5.95975 90.907 3.85705 93.8448 3.85705C96.8848 3.85705 99 6.00139 99 9.07287L98.9793 9.58779H91.5416ZM96.3056 8.08328C96.0802 6.82582 95.1761 6.06246 93.8821 6.06246C92.6296 6.06246 91.7877 6.78418 91.5416 8.08328H96.3056Z" fill="#222222"/>
</svg>
