<svg width="139" height="26" viewBox="0 0 139 26" fill="none" xmlns="http://www.w3.org/2000/svg">
<path d="M11.0739 6.0461H14.7365V19.8351H11.0739V17.9291C9.83391 19.5668 8.39203 20.3119 6.43108 20.3119C2.68189 20.3119 0 17.3041 0 13.1046C0 8.90518 2.82636 5.56982 6.71955 5.56982C8.53649 5.56982 9.7765 6.22494 11.0744 7.80344V6.0461H11.0739ZM3.9219 13.0448C3.9219 15.4573 5.45037 17.2739 7.44003 17.2739C9.42968 17.2739 11.1313 15.3081 11.1313 12.9258C11.1313 10.5435 9.63157 8.75646 7.46874 8.75646C5.30591 8.75646 3.92143 10.5138 3.92143 13.0453L3.9219 13.0448Z" fill="black"/>
<path d="M22.0039 6.04609V7.74365C23.0999 6.22493 24.3973 5.56934 26.3874 5.56934C27.8006 5.56934 28.9828 5.92654 30.1075 6.7012C32.1263 8.13098 33.1357 10.2154 33.1357 12.9855C33.1357 17.3935 30.4825 20.3119 26.474 20.3119C24.5418 20.3119 23.1286 19.6864 22.0039 18.346V25.9999H18.3413V6.04561H22.0039V6.04609ZM22.0039 13.1046C22.0039 15.6065 23.4171 17.2739 25.5512 17.2739C27.6853 17.2739 29.2138 15.5166 29.2138 13.0745C29.2138 10.6324 27.7432 8.75597 25.6665 8.75597C23.5898 8.75597 22.0039 10.543 22.0039 13.1041V13.1046Z" fill="black"/>
<path d="M39.5662 6.04609V7.74365C40.6622 6.22493 41.9596 5.56934 43.9497 5.56934C45.3629 5.56934 46.545 5.92654 47.6697 6.7012C49.6885 8.13098 50.698 10.2154 50.698 12.9855C50.698 17.3935 48.0448 20.3119 44.0363 20.3119C42.104 20.3119 40.6909 19.6864 39.5662 18.346V25.9999H35.9036V6.04561H39.5662V6.04609ZM39.5662 13.1046C39.5662 15.6065 40.9793 17.2739 43.1135 17.2739C45.2476 17.2739 46.7761 15.5166 46.7761 13.0745C46.7761 10.6324 45.3055 8.75597 43.2288 8.75597C41.1521 8.75597 39.5662 10.543 39.5662 13.1041V13.1046Z" fill="black"/>
<path d="M57.1287 6.04609V8.07121C57.5037 7.05841 57.763 6.64143 58.3113 6.22445C58.8882 5.80747 59.6666 5.56934 60.4741 5.56934C60.5607 5.56934 60.7047 5.56934 60.9066 5.59898V9.47087C60.6181 9.44122 60.3296 9.41109 60.1277 9.41109C59.1183 9.41109 58.1955 9.88736 57.6764 10.662C57.244 11.2875 57.1287 11.8833 57.1287 13.1936V19.8351H53.4661V6.04609H57.1287Z" fill="black"/>
<path d="M66.0107 13.897C66.3279 15.8031 67.6832 16.9942 69.5001 16.9942C70.8554 16.9942 72.0093 16.309 72.5858 15.2072L75.9599 16.1603C74.6333 18.8405 72.2973 20.3597 69.4714 20.3597C65.2323 20.3597 62.2041 17.2625 62.2041 12.9736C62.2041 8.68476 65.1166 5.61719 69.2408 5.61719C73.3651 5.61719 76.4794 8.71441 76.4794 13.152L76.4507 13.8965H66.0112L66.0107 13.897ZM72.7011 11.7227C72.3839 9.90605 71.1152 8.80383 69.2982 8.80383C67.4813 8.80383 66.3566 9.84628 66.0107 11.7227H72.7011Z" fill="black"/>
<path d="M90.8276 17.7954C89.4142 19.3462 87.8813 20.1 85.8694 20.2662C81.816 20.6008 78.5873 17.7603 78.2633 13.5742C77.9277 9.23986 80.6212 5.91013 84.7608 5.56861C86.7444 5.40477 88.438 5.98221 90.256 7.41551L87.9895 9.90298C87.1202 9.13816 86.2278 8.82324 85.1645 8.9114C83.1521 9.07755 81.7885 10.893 81.9628 13.1496C82.1442 15.4947 83.7989 17.0614 85.9261 16.8856C86.8746 16.8071 87.5419 16.4533 88.4238 15.5144L90.828 17.7958L90.8276 17.7954Z" fill="black"/>
<path d="M97.1796 2.14467C97.1796 3.30619 96.3147 4.19944 95.1608 4.19944C94.0069 4.19944 93.1133 3.30619 93.1133 2.11455C93.1133 0.922903 93.9782 0 95.1608 0C96.3434 0 97.1796 0.893255 97.1796 2.14419V2.14467ZM96.9778 19.8352H93.3152V6.0462H96.9778V19.8352Z" fill="black"/>
<path d="M110.19 6.0461H113.853V19.8351H110.19V17.9291C108.95 19.5668 107.509 20.3119 105.548 20.3119C101.798 20.3119 99.1166 17.3041 99.1166 13.1046C99.1166 8.90518 101.943 5.56982 105.836 5.56982C107.653 5.56982 108.893 6.22494 110.191 7.80344V6.0461H110.19ZM103.038 13.0448C103.038 15.4573 104.567 17.2739 106.557 17.2739C108.546 17.2739 110.248 15.3081 110.248 12.9258C110.248 10.5435 108.748 8.75646 106.585 8.75646C104.422 8.75646 103.038 10.5138 103.038 13.0453L103.038 13.0448Z" fill="black"/>
<path d="M121.426 15.785C121.426 16.4401 121.657 16.619 122.464 16.6783H123.099V19.8353H120.186C118.398 19.7755 117.735 19.031 117.763 17.2143V9.17314H116.235V5.9865H117.763V2.29346H121.426V5.9865H123.099V9.17314H121.426V15.785Z" fill="black"/>
<path d="M128.531 13.8491C128.848 15.7552 130.204 16.9464 132.021 16.9464C133.376 16.9464 134.53 16.2611 135.106 15.1594L138.48 16.1124C137.154 18.7927 134.818 20.3119 131.992 20.3119C127.753 20.3119 124.725 17.2146 124.725 12.9258C124.725 8.63691 127.638 5.56934 131.761 5.56934C135.885 5.56934 139 8.66656 139 13.1041L138.971 13.8487H128.532L128.531 13.8491ZM135.222 11.6748C134.904 9.8582 133.636 8.75597 131.819 8.75597C130.002 8.75597 128.877 9.79842 128.531 11.6748H135.222Z" fill="black"/>
</svg>
