<svg width="139" height="26" viewBox="0 0 139 26" fill="none" xmlns="http://www.w3.org/2000/svg">
<path d="M11.0674 6.04338H14.7279V19.8244H11.0674V17.9195C9.8281 19.5563 8.38705 20.3009 6.42724 20.3009C2.68022 20.3009 -0.00012207 17.2948 -0.00012207 13.0978C-0.00012207 8.90081 2.8246 5.56738 6.71554 5.56738C8.53143 5.56738 9.77072 6.22212 11.0679 7.7997V6.04338H11.0674ZM3.91951 13.0381C3.91951 15.4491 5.4471 17.2647 7.4356 17.2647C9.42411 17.2647 11.1248 15.3 11.1248 12.9191C11.1248 10.5381 9.62587 8.75218 7.46429 8.75218C5.30271 8.75218 3.91904 10.5085 3.91904 13.0386L3.91951 13.0381Z" fill="#FCFCFC"/>
<path d="M21.9908 6.04288V7.73947C23.0862 6.22162 24.3828 5.56641 26.3718 5.56641C27.7842 5.56641 28.9656 5.9234 30.0897 6.69762C32.1073 8.12657 33.1162 10.2098 33.1162 12.9783C33.1162 17.3837 30.4645 20.3004 26.4583 20.3004C24.5272 20.3004 23.1149 19.6753 21.9908 18.3357V25.9851H18.3303V6.0424H21.9908V6.04288ZM21.9908 13.0973C21.9908 15.5978 23.4032 17.2642 25.5361 17.2642C27.6689 17.2642 29.1965 15.5079 29.1965 13.0672C29.1965 10.6265 27.7268 8.7512 25.6513 8.7512C23.5758 8.7512 21.9908 10.5372 21.9908 13.0968V13.0973Z" fill="#FCFCFC"/>
<path d="M39.5432 6.04288V7.73947C40.6385 6.22162 41.9352 5.56641 43.9242 5.56641C45.3365 5.56641 46.518 5.9234 47.642 6.69762C49.6597 8.12657 50.6685 10.2098 50.6685 12.9783C50.6685 17.3837 48.0169 20.3004 44.0107 20.3004C42.0796 20.3004 40.6672 19.6753 39.5432 18.3357V25.9851H35.8827V6.0424H39.5432V6.04288ZM39.5432 13.0973C39.5432 15.5978 40.9555 17.2642 43.0884 17.2642C45.2213 17.2642 46.7489 15.5079 46.7489 13.0672C46.7489 10.6265 45.2792 8.7512 43.2036 8.7512C41.1281 8.7512 39.5432 10.5372 39.5432 13.0968V13.0973Z" fill="#FCFCFC"/>
<path d="M57.0955 6.04288V8.06684C57.4704 7.05462 57.7295 6.63788 58.2774 6.22114C58.854 5.80441 59.632 5.56641 60.439 5.56641C60.5256 5.56641 60.6695 5.56641 60.8712 5.59604V9.46568C60.5829 9.43605 60.2946 9.40594 60.0929 9.40594C59.084 9.40594 58.1618 9.88194 57.643 10.6562C57.2108 11.2813 57.0955 11.8767 57.0955 13.1862V19.8239H53.4351V6.04288H57.0955V6.04288Z" fill="#FCFCFC"/>
<path d="M65.9722 13.8893C66.2892 15.7942 67.6438 16.9847 69.4596 16.9847C70.8142 16.9847 71.9674 16.2999 72.5435 15.1988L75.9157 16.1512C74.5899 18.8299 72.2552 20.3482 69.431 20.3482C65.1943 20.3482 62.1678 17.2528 62.1678 12.9664C62.1678 8.68006 65.0786 5.61426 69.2005 5.61426C73.3224 5.61426 76.4349 8.70969 76.4349 13.1447L76.4062 13.8888H65.9727L65.9722 13.8893ZM72.6588 11.7162C72.3418 9.90064 71.0738 8.79905 69.2579 8.79905C67.442 8.79905 66.3179 9.8409 65.9722 11.7162H72.6588Z" fill="#FCFCFC"/>
<path d="M90.7749 17.7856C89.3624 19.3355 87.8303 20.0889 85.8196 20.255C81.7685 20.5894 78.5417 17.7505 78.2179 13.5669C77.8825 9.23503 80.5744 5.90722 84.7116 5.5659C86.6941 5.40215 88.3867 5.97926 90.2037 7.41173L87.9384 9.89776C87.0696 9.13338 86.1778 8.81865 85.1151 8.90676C83.1039 9.07281 81.741 10.8872 81.9152 13.1425C82.0965 15.4863 83.7503 17.0521 85.8763 16.8763C86.8242 16.7979 87.4911 16.4443 88.3725 15.5059L90.7753 17.786L90.7749 17.7856Z" fill="#FCFCFC"/>
<path d="M97.1237 2.14343C97.1237 3.30428 96.2593 4.19701 95.106 4.19701C93.9528 4.19701 93.0597 3.30428 93.0597 2.11332C93.0597 0.922369 93.9241 0 95.106 0C96.2879 0 97.1237 0.892739 97.1237 2.14295V2.14343ZM96.9219 19.8237H93.2615V6.0427H96.9219V19.8237Z" fill="#FCFCFC"/>
<path d="M110.127 6.04338H113.787V19.8244H110.127V17.9195C108.887 19.5563 107.446 20.3009 105.486 20.3009C101.739 20.3009 99.0591 17.2948 99.0591 13.0978C99.0591 8.90081 101.884 5.56738 105.775 5.56738C107.591 5.56738 108.83 6.22212 110.127 7.7997V6.04338H110.127ZM102.979 13.0381C102.979 15.4491 104.506 17.2647 106.495 17.2647C108.483 17.2647 110.184 15.3 110.184 12.9191C110.184 10.5381 108.685 8.75218 106.523 8.75218C104.362 8.75218 102.978 10.5085 102.978 13.0386L102.979 13.0381Z" fill="#FCFCFC"/>
<path d="M121.356 15.7763C121.356 16.431 121.586 16.6097 122.393 16.669H123.027V19.8242H120.117C118.33 19.7644 117.667 19.0203 117.695 17.2047V9.16818H116.168V5.98338H117.695V2.29248H121.356V5.98338H123.027V9.16818H121.356V15.7763V15.7763Z" fill="#FCFCFC"/>
<path d="M128.457 13.8414C128.774 15.7464 130.128 16.9369 131.944 16.9369C133.299 16.9369 134.452 16.252 135.028 15.1509L138.4 16.1034C137.074 18.7821 134.74 20.3004 131.915 20.3004C127.679 20.3004 124.652 17.205 124.652 12.9186C124.652 8.63221 127.563 5.56641 131.685 5.56641C135.806 5.56641 138.919 8.66183 138.919 13.0968L138.891 13.841H128.457L128.457 13.8414ZM135.143 11.6684C134.826 9.85279 133.558 8.7512 131.742 8.7512C129.926 8.7512 128.802 9.79305 128.457 11.6684H135.143Z" fill="#FCFCFC"/>
</svg>
