<svg width="133" height="24" viewBox="0 0 133 24" fill="none" xmlns="http://www.w3.org/2000/svg">
<path d="M14.0495 5.58127V18.3095H10.5575V16.5496C9.37497 18.0615 8 18.748 6.13093 18.748C2.55748 18.748 0 15.9722 0 12.0953C0 8.08138 2.69442 5.14083 6.40481 5.14083C8.13694 5.14083 9.31945 5.74597 10.5556 7.20236V5.58127H14.0495ZM3.73999 12.0416C3.73999 14.2678 5.19639 15.9444 7.09322 15.9444C9.04557 15.9444 10.6111 14.129 10.6111 11.9306C10.6111 9.67657 9.18251 8.08138 7.11913 8.08138C5.14272 8.08323 3.73999 9.70433 3.73999 12.0416Z" fill="#FEF2DA" fill-opacity="0.4"/>
<path d="M20.978 5.58131V7.14874C22.0217 5.74602 23.2598 5.14273 25.1566 5.14273C26.5038 5.14273 27.6308 5.47213 28.7023 6.18645C30.6269 7.5059 31.5892 9.43049 31.5892 11.9861C31.5892 16.0537 29.0594 18.7481 25.2399 18.7481C23.3986 18.7481 22.0513 18.1707 20.978 16.9345V24H17.486V5.58131H20.978ZM20.978 12.0972C20.978 14.4067 22.3252 15.9463 24.359 15.9463C26.3928 15.9463 27.8492 14.3252 27.8492 12.0694C27.8492 9.73213 26.4464 8.08328 24.4682 8.08328C22.4067 8.08328 20.978 9.73213 20.978 12.0972Z" fill="#FEF2DA" fill-opacity="0.4"/>
<path d="M37.7219 5.58131V7.14874C38.7657 5.74602 40.0037 5.14273 41.9005 5.14273C43.2477 5.14273 44.3747 5.47213 45.4462 6.18645C47.3708 7.5059 48.3331 9.43049 48.3331 11.9861C48.3331 16.0537 45.8034 18.7481 41.9838 18.7481C40.1425 18.7481 38.7953 18.1707 37.7219 16.9345V24H34.2299V5.58131H37.7219ZM37.7219 12.0972C37.7219 14.4067 39.0691 15.9463 41.1029 15.9463C43.1367 15.9463 44.5949 14.3252 44.5949 12.0694C44.5949 9.73213 43.1922 8.08328 41.214 8.08328C39.1506 8.08328 37.7219 9.73213 37.7219 12.0972Z" fill="#FEF2DA" fill-opacity="0.4"/>
<path d="M54.464 5.58127V7.45034C54.8212 6.51581 55.0691 6.13088 55.591 5.74597C56.1406 5.36105 56.8827 5.14083 57.6525 5.14083C57.7358 5.14083 57.8727 5.14083 58.0652 5.16859V8.74203C57.7895 8.71428 57.5156 8.68652 57.3231 8.68652C56.3608 8.68652 55.4818 9.12695 54.9859 9.84127C54.5732 10.4186 54.464 10.9683 54.464 12.1785V18.3095H50.972V5.58127H54.464Z" fill="#FEF2DA" fill-opacity="0.4"/>
<path d="M62.9322 12.7837C63.2338 14.5436 64.5274 15.6428 66.2595 15.6428C67.5512 15.6428 68.6505 15.0099 69.2019 13.994L72.4182 14.873C71.1543 17.3472 68.9262 18.7499 66.2336 18.7499C62.192 18.7499 59.3069 15.8908 59.3069 11.9325C59.3069 7.94634 62.0828 5.14273 66.0152 5.14273C70.0846 5.14273 72.916 8.00185 72.916 12.0972L72.8882 12.7837H62.9322ZM69.3092 10.7777C69.0076 9.10109 67.7973 8.08328 66.0652 8.08328C64.3886 8.08328 63.2616 9.04557 62.9322 10.7777H69.3092Z" fill="#FEF2DA" fill-opacity="0.4"/>
<path d="M86.5751 16.4053C85.2223 17.8321 83.7585 18.5224 81.8395 18.6686C77.9755 18.9628 74.9072 16.3294 74.613 12.4655C74.3076 8.46268 76.8873 5.39999 80.8346 5.09835C82.7259 4.95401 84.3377 5.49252 86.0661 6.82308L83.8973 9.11038C83.0719 8.40162 82.2225 8.10738 81.2084 8.1851C79.2894 8.33129 77.9829 10.0024 78.142 12.0861C78.3067 14.2513 79.8779 15.7039 81.9079 15.5485C82.8129 15.48 83.4494 15.1543 84.2933 14.292L86.5751 16.4053Z" fill="#FEF2DA" fill-opacity="0.4"/>
<path d="M92.6079 1.98011C92.6079 3.05159 91.7825 3.87694 90.6833 3.87694C89.5563 3.87694 88.7309 3.05158 88.7309 1.95235C88.7309 0.82535 89.5563 0 90.6833 0C91.8103 0 92.6079 0.825355 92.6079 1.98011ZM92.4154 18.3095H88.9234V5.58131H92.4154V18.3095Z" fill="#FEF2DA" fill-opacity="0.4"/>
<path d="M108.488 5.58127V18.3095H104.996V16.5496C103.813 18.0615 102.438 18.748 100.569 18.748C96.9956 18.748 94.4381 15.9722 94.4381 12.0953C94.4381 8.08138 97.1325 5.14083 100.843 5.14083C102.575 5.14083 103.758 5.74597 104.994 7.20236V5.58127H108.488ZM98.1781 12.0416C98.1781 14.2678 99.6345 15.9444 101.531 15.9444C103.484 15.9444 105.049 14.129 105.049 11.9306C105.049 9.67657 103.621 8.08138 101.557 8.08138C99.5808 8.08323 98.1781 9.70433 98.1781 12.0416Z" fill="#FEF2DA" fill-opacity="0.4"/>
<path d="M115.72 14.5713C115.72 15.1765 115.94 15.3412 116.71 15.3967H117.315V18.3113H114.539C112.835 18.2558 112.202 17.5693 112.229 15.8927V8.46818H110.773V5.52578H112.229V2.11704H115.721V5.52578H117.317V8.46818H115.721V14.5713H115.72Z" fill="#FEF2DA" fill-opacity="0.4"/>
<path d="M122.537 12.7837C122.839 14.5436 124.132 15.6428 125.864 15.6428C127.156 15.6428 128.255 15.0099 128.807 13.994L132.023 14.873C130.759 17.3472 128.531 18.7499 125.839 18.7499C121.797 18.7499 118.912 15.8908 118.912 11.9325C118.912 7.94634 121.688 5.14273 125.62 5.14273C129.69 5.14273 132.521 8.00185 132.521 12.0972L132.493 12.7837H122.537ZM128.914 10.7777C128.613 9.10109 127.402 8.08328 125.67 8.08328C123.993 8.08328 122.866 9.04557 122.537 10.7777H128.914Z" fill="#FEF2DA" fill-opacity="0.4"/>
</svg>
