<svg width="160" height="160" viewBox="0 0 160 160" fill="none" xmlns="http://www.w3.org/2000/svg">
<rect width="160" height="160" fill="#F3F3F3"/>
<path d="M40.0138 58.804C40.0138 55.4467 36.9642 54.9476 35.1454 54.9476H34.6121V62.339H35.8497C38.4958 62.339 40.0138 61.0467 40.0138 58.804ZM34.6121 54.0177H35.795C37.7232 54.0177 38.701 53.1219 38.701 51.3578C38.701 49.7305 37.73 48.8279 35.9659 48.8279H34.5984L34.6121 54.0177ZM37.9625 54.4279C40.3625 54.7766 42.8035 56.1373 42.8035 58.9886C42.8013 59.7254 42.5788 60.4446 42.1645 61.0539C41.7502 61.6631 41.1631 62.1345 40.4788 62.4074C39.1201 62.9966 37.6518 63.2903 36.1711 63.2689H31.501V62.9749C32.1164 62.6741 32.0958 61.6758 32.0958 60.9715V50.1681C32.0958 49.4843 32.0958 48.4655 31.501 48.1647V47.8638H35.2753C37.2719 47.8638 38.742 48.1031 39.6445 48.5818C40.1413 48.8326 40.5604 49.214 40.8567 49.685C41.1531 50.156 41.3155 50.6989 41.3266 51.2553C41.3266 52.7117 40.2258 53.751 37.9625 54.4279ZM57.9762 55.5835C57.9762 51.6587 56.007 48.4724 52.7386 48.4724C49.4702 48.4724 47.501 51.6587 47.501 55.5835C47.501 59.5082 49.4702 62.7014 52.7386 62.7014C56.007 62.7014 57.9762 59.4877 57.9762 55.5835ZM52.7386 47.5082C54.3299 47.5339 55.8782 48.0291 57.189 48.9319C58.4998 49.8346 59.5145 51.1045 60.1058 52.5822C60.6971 54.0598 60.8387 55.6792 60.5126 57.237C60.1865 58.7948 59.4073 60.2215 58.2729 61.3378C57.1386 62.4542 55.6997 63.2105 54.1369 63.5117C52.5741 63.8129 50.9572 63.6456 49.4892 63.0308C48.0212 62.4159 46.7676 61.381 45.8859 60.056C45.0042 58.731 44.5337 57.175 44.5335 55.5835C44.5515 53.4248 45.4259 51.3617 46.9645 49.8474C48.5031 48.3332 50.5799 47.4919 52.7386 47.5082ZM61.477 49.5595V47.8638H71.1523V49.5664H70.8651C70.3659 48.8006 69.4976 48.8074 68.8138 48.8074H67.5557V61.0262C67.5557 61.71 67.5557 62.7356 68.1505 63.0296V63.3305H64.4787V63.0296C65.0873 62.7356 65.0736 61.7305 65.0736 61.0262V48.7869H63.8224C63.1386 48.7869 62.2634 48.7869 61.7711 49.5459H61.4839L61.477 49.5595ZM73.7916 49.5459V47.8638H83.4189V49.5664H83.1386C82.6326 48.8006 81.7711 48.8074 81.0873 48.8074H79.8429V61.0262C79.8429 61.71 79.8429 62.7356 80.4377 63.0296V63.3305H76.7659V63.0296C77.3813 62.7356 77.3608 61.7305 77.3608 61.0262V48.7869H76.1095C75.4258 48.7869 74.5505 48.7869 74.0582 49.5459H73.7711H73.7916ZM94.2018 62.3664C94.8856 62.3664 95.7882 62.3664 96.2531 61.6074H96.5403V63.31H86.154V63.0159C86.9335 62.51 86.9266 61.5869 86.9266 60.8621V50.2912C86.9266 49.5664 86.9266 48.6433 86.154 48.1373V47.8638H95.9044V49.5664H95.6172C95.1249 48.8006 94.2497 48.8074 93.5659 48.8074H89.4018V54.9134H92.889C93.5728 54.9134 94.5984 54.9134 94.8719 54.3117H95.1591V56.4518H94.8719C94.5984 55.8433 93.5933 55.8501 92.889 55.8501H89.4018V62.3869H94.1882L94.2018 62.3664ZM110.284 56.3971V56.0689H114.188C114.18 57.4278 113.82 58.7613 113.142 59.939C112.456 61.1008 111.47 62.0565 110.287 62.7061C109.105 63.3558 107.769 63.6753 106.421 63.6313C104.254 63.6551 102.158 62.8644 100.547 61.4159C99.7553 60.6904 99.1246 59.8067 98.6958 58.822C98.2671 57.8374 98.0499 56.7736 98.0582 55.6997C98.0844 54.4182 98.3977 53.1589 98.9752 52.0145C99.5527 50.8702 100.38 49.87 101.395 49.0877C102.822 48.0191 104.563 47.4539 106.345 47.4809C107.299 47.4795 108.249 47.606 109.169 47.857C109.584 47.9725 110.007 48.0571 110.434 48.11C110.977 48.2185 111.541 48.1261 112.021 47.8501H112.308V51.4057L112.021 51.4536C111.925 51.2894 111.829 51.1253 111.72 50.9681C111.16 50.1446 110.396 49.4797 109.504 49.0376C108.612 48.5956 107.62 48.3915 106.626 48.445C105.769 48.4002 104.915 48.5737 104.144 48.9492C103.372 49.3248 102.709 49.89 102.215 50.592C101.316 52.0854 100.89 53.8158 100.992 55.5561C100.912 57.2617 101.325 58.9543 102.181 60.4313C102.763 61.3024 103.604 61.9685 104.585 62.3352C105.566 62.7019 106.638 62.7507 107.648 62.4747C108.658 62.1986 109.556 61.6118 110.215 60.7971C110.873 59.9825 111.258 58.9814 111.316 57.9356C111.316 56.4997 110.304 56.3493 110.304 56.3493L110.284 56.3971ZM123.186 57.3134L120.786 51.0365L118.393 57.3134H123.186ZM127.398 61.3476C127.549 61.7236 127.973 62.7629 128.527 62.9681V63.2758H124.424V62.9749C124.545 62.9244 124.654 62.8487 124.743 62.7529C124.833 62.657 124.901 62.5432 124.943 62.419C124.985 62.2948 125 62.163 124.987 62.0325C124.974 61.902 124.934 61.7757 124.868 61.6621L123.59 58.2433H118.017L116.725 61.6621C116.659 61.7762 116.619 61.903 116.606 62.034C116.593 62.165 116.608 62.2972 116.65 62.422C116.692 62.5467 116.76 62.6611 116.85 62.7576C116.939 62.8541 117.048 62.9305 117.169 62.9818V63.2826H114.523V62.9749C115.125 62.804 115.638 61.8604 115.829 61.3271L121.026 47.8638H122.195V47.9048L127.398 61.3476ZM50.8309 97.3339V97.033H53.4702V97.3476C52.889 97.5048 52.3762 98.4211 52.1779 98.9954L47.5352 112.5H46.2565L41.7095 98.9612C41.4976 98.339 41.1078 97.539 40.6087 97.3339V97.0262H44.7112V97.327C44.4579 97.476 44.2717 97.7169 44.1915 97.9997C44.1113 98.2824 44.1431 98.5852 44.2805 98.845L47.6993 109.067L51.3232 98.5373C51.3715 98.4266 51.3972 98.3073 51.3989 98.1865C51.4005 98.0657 51.3781 97.9458 51.3329 97.8338C51.2877 97.7217 51.2206 97.6198 51.1356 97.534C51.0506 97.4482 50.9493 97.3801 50.8377 97.3339H50.8309ZM63.7608 111.549C64.4446 111.549 65.3471 111.549 65.8121 110.79H66.0993V112.493H55.7129V112.199C56.4924 111.693 56.4856 110.77 56.4856 110.045V99.4741C56.4856 98.7493 56.4856 97.8262 55.7129 97.3202V97.0262H65.4634V98.7288H65.1762C64.6839 97.963 63.8087 97.9698 63.1249 97.9698H58.9676V104.076H62.4548C63.1386 104.076 64.1642 104.076 64.4377 103.474H64.7249V105.614H64.4377C64.1642 105.006 63.1591 105.013 62.4548 105.013H58.9676V111.549H63.754H63.7608ZM78.2976 97.3202V97.0262H80.2599V97.3202C79.7745 97.6347 79.7745 98.5988 79.7813 98.8997V112.493H79.1317L70.3249 99.8296V110.647C70.3249 110.948 70.3249 111.912 70.8104 112.226V112.52H68.848V112.226C69.3335 111.912 69.3335 110.948 69.3266 110.647V99.4125C69.3266 98.7288 69.3266 97.8057 68.5813 97.3202V97.0262H71.6104L78.7625 107.283V98.8997C78.7625 98.5988 78.7625 97.6347 78.277 97.3202H78.2976ZM91.2275 111.549C91.9112 111.549 92.8206 111.549 93.2787 110.79H93.5659V112.486H83.2138V112.199C83.9865 111.686 83.9865 110.77 83.9865 110.045V99.4741C83.9865 98.7493 83.9865 97.8262 83.2138 97.3202V97.0262H92.9916V98.7288H92.7044C92.2053 97.963 91.3369 97.9698 90.6531 97.9698H86.489V104.076H89.983C90.6668 104.076 91.6924 104.076 91.9659 103.474H92.2531V105.614H91.9659C91.6924 105.006 90.6873 105.013 89.983 105.013H86.489V111.549H91.2753H91.2275ZM95.7266 98.7219V97.0262H105.402V98.7288H105.115C104.615 97.963 103.747 97.9698 103.063 97.9698H101.812V110.189C101.812 110.872 101.812 111.891 102.407 112.192V112.493H98.7352V112.192C99.3437 111.891 99.33 110.893 99.33 110.189V97.9698H98.0856C97.4018 97.9698 96.5266 97.9698 96.0343 98.7288H95.7266V98.7219ZM114.243 106.517L111.85 100.226L109.463 106.517H114.243ZM118.434 110.558C118.592 110.934 119.009 111.98 119.562 112.185V112.493H115.46V112.185C115.581 112.135 115.69 112.059 115.779 111.963C115.869 111.867 115.937 111.753 115.979 111.629C116.021 111.505 116.036 111.373 116.023 111.243C116.01 111.112 115.97 110.986 115.904 110.872L114.633 107.454H109.163L107.877 110.872C107.812 110.986 107.771 111.112 107.758 111.243C107.745 111.373 107.76 111.505 107.802 111.629C107.845 111.753 107.913 111.867 108.002 111.963C108.092 112.059 108.2 112.135 108.321 112.185V112.493H105.641V112.178C106.243 112.007 106.749 111.071 106.94 110.53L112.082 97.0262H113.245V97.0741L118.434 110.558Z" fill="#3A3E55"/>
</svg>
