<svg width="376" height="126" viewBox="0 0 376 126" fill="none" xmlns="http://www.w3.org/2000/svg">
<path d="M41.4384 22.8136V58.8768H31.6359V53.8905C28.3165 58.1742 24.4568 60.1195 19.2101 60.1195C9.17912 60.1195 2 52.2546 2 41.2699C2 29.8972 9.56353 21.5657 19.979 21.5657C24.8412 21.5657 28.1607 23.2802 31.6308 27.4067V22.8136H41.4384ZM12.4986 41.1179C12.4986 47.4255 16.5868 52.1759 21.9114 52.1759C27.3918 52.1759 31.7866 47.0323 31.7866 40.8033C31.7866 34.417 27.7763 29.8972 21.9841 29.8972C16.4362 29.9025 12.4986 34.4956 12.4986 41.1179Z" fill="#444444"/>
<path d="M60.8875 22.8137V27.2548C63.8173 23.2804 67.2926 21.5711 72.6172 21.5711C76.399 21.5711 79.5625 22.5044 82.5703 24.5283C87.9728 28.2667 90.6741 33.7197 90.6741 40.9607C90.6741 52.4854 83.5729 60.1196 72.851 60.1196C67.6822 60.1196 63.9004 58.4837 60.8875 54.9812V75H51.085V22.8137H60.8875ZM60.8875 41.2753C60.8875 47.8189 64.6692 52.1813 70.3783 52.1813C76.0873 52.1813 80.1755 47.5882 80.1755 41.1966C80.1755 34.5744 76.2379 29.9026 70.6847 29.9026C64.8978 29.9026 60.8875 34.5744 60.8875 41.2753Z" fill="#444444"/>
<path d="M107.889 22.8137V27.2548C110.819 23.2804 114.295 21.5711 119.619 21.5711C123.401 21.5711 126.564 22.5044 129.572 24.5283C134.975 28.2667 137.676 33.7197 137.676 40.9607C137.676 52.4854 130.575 60.1196 119.853 60.1196C114.684 60.1196 110.902 58.4837 107.889 54.9812V75H98.087V22.8137H107.889ZM107.889 41.2753C107.889 47.8189 111.671 52.1813 117.38 52.1813C123.089 52.1813 127.183 47.5882 127.183 41.1966C127.183 34.5744 123.245 29.9026 117.692 29.9026C111.9 29.9026 107.889 34.5744 107.889 41.2753Z" fill="#444444"/>
<path d="M154.886 22.8136V28.1093C155.889 25.4614 156.585 24.3708 158.05 23.2802C159.593 22.1896 161.676 21.5657 163.837 21.5657C164.07 21.5657 164.455 21.5657 164.995 21.6443V31.7691C164.221 31.6904 163.452 31.6118 162.912 31.6118C160.211 31.6118 157.743 32.8597 156.351 34.8836C155.193 36.5195 154.886 38.0768 154.886 41.5059V58.8768H145.084V22.8136H154.886Z" fill="#444444"/>
<path d="M178.657 43.2205C179.504 48.2069 183.135 51.3214 187.997 51.3214C191.623 51.3214 194.709 49.5282 196.257 46.6496L205.285 49.1402C201.737 56.1504 195.483 60.1248 187.925 60.1248C176.579 60.1248 168.481 52.024 168.481 40.8086C168.481 29.5146 176.273 21.5711 187.312 21.5711C198.735 21.5711 206.683 29.6719 206.683 41.2753L206.605 43.2205H178.657ZM196.558 37.5368C195.712 32.7864 192.314 29.9026 187.452 29.9026C182.745 29.9026 179.582 32.6291 178.657 37.5368H196.558Z" fill="#444444"/>
<path d="M245.025 53.4817C241.228 57.5243 237.119 59.48 231.732 59.8942C220.885 60.7279 212.272 53.2667 211.446 42.3188C210.589 30.9776 217.831 22.3 228.911 21.4453C234.22 21.0364 238.745 22.5621 243.597 26.3321L237.508 32.8127C235.192 30.8046 232.807 29.9709 229.96 30.1911C224.574 30.6053 220.906 35.34 221.353 41.2439C221.815 47.3786 226.225 51.4945 231.924 51.0541C234.464 50.8601 236.251 49.9373 238.62 47.4939L245.025 53.4817Z" fill="#444444"/>
<path d="M261.96 12.6103C261.96 15.6462 259.643 17.9847 256.557 17.9847C253.394 17.9847 251.077 15.6461 251.077 12.5316C251.077 9.33849 253.394 7 256.557 7C259.721 7 261.96 9.33851 261.96 12.6103ZM261.42 58.8769H251.617V22.8137H261.42V58.8769Z" fill="#444444"/>
<path d="M306.536 22.8136V58.8768H296.734V53.8905C293.414 58.1742 289.554 60.1195 284.308 60.1195C274.277 60.1195 267.098 52.2546 267.098 41.2699C267.098 29.8972 274.661 21.5657 285.077 21.5657C289.939 21.5657 293.258 23.2802 296.728 27.4067V22.8136H306.536ZM277.596 41.1179C277.596 47.4255 281.684 52.1759 287.009 52.1759C292.489 52.1759 296.884 47.0323 296.884 40.8033C296.884 34.417 292.874 29.8972 287.082 29.8972C281.534 29.9025 277.596 34.4956 277.596 41.1179Z" fill="#444444"/>
<path d="M326.837 48.2855C326.837 50 327.455 50.4667 329.616 50.624H331.315V58.8821H323.523C318.738 58.7248 316.962 56.7796 317.04 52.0292V30.9932H312.951V22.6564H317.04V12.9983H326.842V22.6564H331.32V30.9932H326.842V48.2855H326.837Z" fill="#444444"/>
<path d="M345.974 43.2205C346.821 48.2069 350.452 51.3214 355.315 51.3214C358.94 51.3214 362.026 49.5282 363.574 46.6496L372.603 49.1402C369.055 56.1504 362.8 60.1248 355.242 60.1248C343.897 60.1248 335.798 52.024 335.798 40.8086C335.798 29.5146 343.59 21.5711 354.629 21.5711C366.052 21.5711 374 29.6719 374 41.2753L373.922 43.2205H345.974ZM363.875 37.5368C363.029 32.7864 359.631 29.9026 354.769 29.9026C350.063 29.9026 346.899 32.6291 345.974 37.5368H363.875Z" fill="#444444"/>
<path d="M111.359 94.99V115H116.999C119.519 115 120.809 114.73 121.979 113.98C123.329 113.11 124.139 111.49 124.139 109.6C124.139 107.98 123.569 106.63 122.459 105.79C121.859 105.28 121.349 105.07 120.209 104.83C121.289 104.41 121.739 104.11 122.249 103.54C122.999 102.73 123.389 101.56 123.389 100.3C123.389 96.91 121.079 94.99 116.999 94.99H111.359ZM113.879 97.06H115.949C117.779 97.06 118.619 97.18 119.339 97.54C120.329 97.99 120.929 99.13 120.929 100.42C120.929 101.53 120.479 102.55 119.699 103.15C118.979 103.72 117.989 103.96 116.429 103.96H113.879V97.06ZM113.879 106H117.029C120.209 106 121.619 107.05 121.619 109.45C121.619 110.8 121.139 111.76 120.179 112.3C119.309 112.81 118.499 112.96 116.399 112.96H113.879V106ZM127.673 101.17V115H129.953V107.98C129.953 106.39 130.163 105.58 130.763 104.71C131.453 103.69 132.533 103.12 133.763 103.12C133.913 103.12 134.153 103.12 134.393 103.15V100.84H133.853C132.863 100.84 131.903 101.14 131.213 101.68C130.673 102.1 130.373 102.52 129.953 103.51V101.17H127.673ZM147.283 103.45C145.933 101.65 144.403 100.84 142.303 100.84C138.493 100.84 135.733 103.9 135.733 108.13C135.733 112.33 138.463 115.33 142.243 115.33C144.343 115.33 145.933 114.4 147.283 112.33V115H149.562V101.17H147.283V103.45ZM142.663 102.88C145.423 102.88 147.343 104.95 147.343 107.95C147.343 110.92 145.213 113.35 142.603 113.35C140.053 113.35 138.133 111.13 138.133 108.19C138.133 106.84 138.553 105.52 139.273 104.53C140.113 103.39 141.133 102.88 142.663 102.88ZM154.157 101.17V115H156.437V106.57C156.437 105.43 156.677 104.77 157.337 104.05C158.027 103.27 158.957 102.88 159.977 102.88C160.907 102.88 161.747 103.24 162.137 103.81C162.497 104.29 162.647 104.95 162.647 106.18V115H164.927V105.67C164.927 103.78 164.627 102.82 163.757 101.98C162.947 101.26 161.807 100.84 160.547 100.84C158.837 100.84 157.637 101.5 156.437 103.12V101.17H154.157ZM179.771 103.27C178.391 101.59 176.861 100.84 174.821 100.84C171.071 100.84 168.311 103.96 168.311 108.16C168.311 112.36 171.011 115.33 174.821 115.33C176.921 115.33 178.391 114.52 179.771 112.63V115H182.051V94.99H179.771V103.27ZM175.301 102.88C177.941 102.88 179.771 105.01 179.771 108.13C179.771 111.13 177.821 113.35 175.151 113.35C172.541 113.35 170.711 111.22 170.711 108.19C170.711 105.07 172.571 102.88 175.301 102.88ZM198.371 107.35H201.461C203.681 107.35 205.241 106.9 206.411 105.97C207.761 104.86 208.541 103.09 208.541 101.11C208.541 97.15 205.931 94.99 201.191 94.99H195.851V115H198.371V107.35ZM198.371 105.19V97.15H200.651C201.851 97.15 202.661 97.27 203.441 97.54C205.031 98.08 205.991 99.46 205.991 101.17C205.991 102.88 205.001 104.32 203.471 104.83C202.781 105.1 202.061 105.19 200.981 105.19H198.371ZM217.08 100.84C212.88 100.84 210 103.78 210 108.07C210 112.33 212.88 115.33 216.99 115.33C220.95 115.33 224.07 112.18 224.07 108.13C224.07 103.9 221.16 100.84 217.08 100.84ZM217.05 102.94C219.84 102.94 221.73 105.01 221.73 108.1C221.73 111.1 219.78 113.23 217.05 113.23C214.26 113.23 212.34 111.16 212.34 108.1C212.34 105.01 214.23 102.94 217.05 102.94ZM227.546 101.17V115H229.826V107.98C229.826 106.39 230.036 105.58 230.636 104.71C231.326 103.69 232.406 103.12 233.636 103.12C233.786 103.12 234.026 103.12 234.266 103.15V100.84H233.726C232.736 100.84 231.776 101.14 231.086 101.68C230.546 102.1 230.246 102.52 229.826 103.51V101.17H227.546ZM240.171 103.18H242.271V101.17H240.171V96.82H237.891V101.17H235.971V103.18H237.891V112.84C237.891 114.37 238.551 115 240.141 115H242.271V113.02H241.221C240.411 113.02 240.171 112.84 240.171 112.18V103.18ZM255.681 103.45C254.331 101.65 252.801 100.84 250.701 100.84C246.891 100.84 244.131 103.9 244.131 108.13C244.131 112.33 246.861 115.33 250.641 115.33C252.741 115.33 254.331 114.4 255.681 112.33V115H257.961V101.17H255.681V103.45ZM251.061 102.88C253.821 102.88 255.741 104.95 255.741 107.95C255.741 110.92 253.611 113.35 251.001 113.35C248.451 113.35 246.531 111.13 246.531 108.19C246.531 106.84 246.951 105.52 247.671 104.53C248.511 103.39 249.531 102.88 251.061 102.88ZM264.835 115V94.99H262.555V115H264.835Z" fill="#444444"/>
</svg>
