<svg width="160" height="160" viewBox="0 0 160 160" fill="none" xmlns="http://www.w3.org/2000/svg">
<rect width="160" height="160" fill="#F3F3F3"/>
<path d="M84.7247 81.1211H91.576V78.1536H84.7247V75.1109H92.5401V72.2049H81.1692V87.4186H92.923V84.369H84.7247V81.1211Z" fill="#3A3E55"/>
<path d="M45.4153 81.1618C45.4153 83.3294 44.2871 84.5806 42.3179 84.5806C40.3555 84.5806 39.2273 83.343 39.2273 81.1618V72.2182H35.6717V81.4012C35.6717 85.4012 38.1606 87.7943 42.3179 87.7943C46.482 87.7943 48.964 85.4012 48.964 81.4012V72.2182H45.4153V81.1618Z" fill="#3A3E55"/>
<path d="M31.0292 78.9946C31.7041 78.575 32.2246 77.9476 32.5126 77.2069C32.8006 76.4661 32.8404 75.6519 32.6262 74.8866C32.4119 74.1213 31.9551 73.4461 31.3244 72.9625C30.6936 72.479 29.923 72.2131 29.1283 72.2049H21.3882V87.4186H29.7916C30.82 87.4109 31.8118 87.0356 32.5876 86.3604C33.3635 85.6852 33.8721 84.7547 34.0216 83.7371C34.1711 82.7196 33.9516 81.6821 33.4027 80.8123C32.8539 79.9425 32.012 79.2978 31.0292 78.9946ZM24.8753 75.0425H27.7198C28.1377 75.046 28.5379 75.2121 28.8353 75.5057C29.1327 75.7993 29.3041 76.1973 29.3129 76.6151C29.3139 76.8237 29.2732 77.0303 29.1932 77.2229C29.1132 77.4154 28.9956 77.5901 28.8472 77.7366C28.6988 77.8831 28.5226 77.9984 28.329 78.0759C28.1354 78.1534 27.9283 78.1914 27.7198 78.1878H24.8753V75.0425ZM28.7591 84.581H24.8753V81.0254H28.7591C29.2306 81.0254 29.6828 81.2127 30.0162 81.5461C30.3496 81.8795 30.5369 82.3317 30.5369 82.8032C30.5369 83.2747 30.3496 83.7269 30.0162 84.0603C29.6828 84.3937 29.2306 84.581 28.7591 84.581Z" fill="#3A3E55"/>
<path d="M107.72 76.8613C107.718 75.6269 107.227 74.4436 106.354 73.5707C105.481 72.6979 104.298 72.2067 103.063 72.2049H95.2887V87.4186H98.7486V81.5177H101.484L104.848 87.4186H108.718L105.08 81.0459C105.87 80.6682 106.537 80.0749 107.004 79.3345C107.471 78.594 107.719 77.7367 107.72 76.8613ZM102.331 78.5775H98.6939V75.1587H102.4C103.535 75.2203 104.26 75.8767 104.26 76.8681C104.26 77.8596 103.487 78.5365 102.331 78.5775Z" fill="#3A3E55"/>
<path d="M63.959 76.8613C63.9572 75.6281 63.467 74.4458 62.5956 73.5731C61.7242 72.7005 60.5427 72.2085 59.3094 72.2049H51.5351V87.4186H54.9539V81.5177H57.6889L61.053 87.4186H64.9573L61.3265 81.0459C62.1144 80.6665 62.7794 80.0727 63.245 79.3325C63.7107 78.5923 63.9581 77.7358 63.959 76.8613ZM58.571 78.5775H54.9334V75.1587H58.6462C59.7812 75.2203 60.4992 75.8767 60.4992 76.8681C60.4992 77.8596 59.7265 78.5365 58.571 78.5775Z" fill="#3A3E55"/>
<path d="M76.2188 78.9946C76.8942 78.5746 77.415 77.9467 77.7028 77.2053C77.9906 76.4639 78.0299 75.649 77.8148 74.8834C77.5997 74.1177 77.1417 73.4426 76.5099 72.9595C75.878 72.4765 75.1064 72.2117 74.3111 72.2049H66.5778V87.4186H74.9744C76.0034 87.4125 76.9963 87.0383 77.7733 86.3637C78.5503 85.689 79.0602 84.7585 79.2106 83.7405C79.361 82.7225 79.142 81.6843 78.5932 80.8138C78.0444 79.9433 77.2021 79.298 76.2188 78.9946ZM70.065 75.0425H72.9026C73.3217 75.0442 73.7236 75.2096 74.0225 75.5034C74.3214 75.7972 74.4937 76.1961 74.5026 76.6151C74.5026 76.824 74.4611 77.0308 74.3803 77.2234C74.2996 77.416 74.1813 77.5906 74.0324 77.737C73.8834 77.8834 73.7068 77.9986 73.5128 78.076C73.3189 78.1534 73.1114 78.1914 72.9026 78.1878H70.065V75.0425ZM73.9419 84.581H70.065V81.0254H73.9419C74.4134 81.0254 74.8656 81.2127 75.199 81.5461C75.5324 81.8795 75.7197 82.3317 75.7197 82.8032C75.7197 83.2747 75.5324 83.7269 75.199 84.0603C74.8656 84.3937 74.4134 84.581 73.9419 84.581Z" fill="#3A3E55"/>
<path d="M134.174 72.2049L130.687 77.4357L127.213 72.2049H122.783L128.814 81.2237V87.4186H132.561V81.2237L138.612 72.2049H134.174Z" fill="#3A3E55"/>
<path d="M122.762 76.8613C122.761 75.6281 122.27 74.4458 121.399 73.5731C120.528 72.7005 119.346 72.2085 118.113 72.2049H110.338V87.4186H113.757V81.5177H116.492L119.856 87.4186H123.761L120.13 81.0459C120.918 80.6665 121.583 80.0727 122.048 79.3325C122.514 78.5923 122.762 77.7358 122.762 76.8613ZM117.374 78.5775H113.737V75.1587H117.45C118.585 75.2203 119.303 75.8767 119.303 76.8681C119.303 77.8596 118.53 78.5365 117.374 78.5775Z" fill="#3A3E55"/>
</svg>
