<svg width="160" height="160" viewBox="0 0 160 160" fill="none" xmlns="http://www.w3.org/2000/svg">
<rect width="160" height="160" fill="#F3F3F3"/>
<path fill-rule="evenodd" clip-rule="evenodd" d="M130.708 88.2051V80.9846H138.626V77.265H130.708V71.5419H140.526V67.8496H126.646V91.8974H141.538V88.2051H130.708ZM119.555 92.8205V67.8496H115.555L115.624 83.6581L97.846 67.1795L97.7777 91.8974H101.832L101.771 76.6906L119.555 92.8205ZM90.6597 91.8974V67.8496H86.605V91.8974H90.6597ZM67.4118 91.8974H81.511V88.2051H71.4939V67.8496H67.4392L67.4118 91.8974ZM46.4409 91.8974H61.3332V88.2051H50.523V80.9846H58.4409V77.265H50.523V71.5419H60.3486V67.8496H46.4956L46.4409 91.8974ZM22.7691 79.747C22.7691 75.1658 25.9349 70.9949 31.323 70.9949C33.7672 70.9611 36.1295 71.8752 37.9144 73.5453L40.0683 70.7077C39.2751 69.7573 36.2324 67.2889 31.323 67.2889C23.7195 67.2889 18.4614 73.0735 18.4614 79.8222C18.4614 86.7214 24.0067 92.4513 31.7674 92.4513C33.3193 92.498 34.8651 92.2381 36.3165 91.6867C37.7678 91.1353 39.0962 90.303 40.2255 89.2376L38.3589 86.5983C37.4084 87.5487 34.9401 88.7932 31.9589 88.7932C30.7514 88.8343 29.5482 88.6289 28.4227 88.1894C27.2973 87.7499 26.2733 87.0856 25.4132 86.2371C24.5532 85.3885 23.8751 84.3736 23.4205 83.2542C22.9659 82.1348 22.7443 80.9345 22.7691 79.7265V79.747Z" fill="#3A3E55"/>
</svg>
