<svg width="163" height="162" viewBox="0 0 163 162" fill="none" xmlns="http://www.w3.org/2000/svg">
<g clip-path="url(#clip0_430_20042)">
<path d="M118.5 91.5C140.868 91.5 159 73.3675 159 51C159 28.6325 140.868 10.5 118.5 10.5C96.1325 10.5 78 28.6325 78 51C78 73.3675 96.1325 91.5 118.5 91.5Z" fill="#E6ECC7"/>
<path d="M43.275 122.55C53.0919 122.55 61.05 114.592 61.05 104.775C61.05 94.9581 53.0919 87 43.275 87C33.4581 87 25.5 94.9581 25.5 104.775C25.5 114.592 33.4581 122.55 43.275 122.55Z" fill="#CBBDD5"/>
<path d="M105.84 156.99H56.325C55.08 156.99 54.075 157.995 54.075 159.24C54.075 160.485 55.08 161.49 56.325 161.49H105.825C107.07 161.49 108.075 160.485 108.075 159.24C108.075 157.995 107.07 156.99 105.825 156.99H105.84Z" fill="black"/>
<path d="M128.805 143.52H33.21C31.965 143.52 30.96 144.525 30.96 145.77C30.96 147.015 31.965 148.02 33.21 148.02H128.805C130.05 148.02 131.055 147.015 131.055 145.77C131.055 144.525 130.05 143.52 128.805 143.52Z" fill="black"/>
<path d="M140.565 58.29C139.32 58.29 138.315 59.295 138.315 60.54V105.435H128.79C128.79 105.435 128.67 105.435 128.61 105.45C127.53 97.77 120.945 91.875 112.98 91.875H95.3999C95.3999 83.145 88.32 76.065 79.59 76.065H48.855C40.89 76.065 34.32 81.96 33.225 89.625H23.7V60.54C23.7 59.295 22.695 58.29 21.45 58.29C20.205 58.29 19.2 59.295 19.2 60.54V91.56C19.2 92.985 20.355 94.14 21.78 94.14H33.24C34.335 101.805 40.905 107.7 48.87 107.7H66.45C66.45 116.43 73.53 123.51 82.26 123.51H112.995C120.975 123.51 127.545 117.6 128.625 109.935C128.685 109.935 128.745 109.95 128.805 109.95H140.25C141.675 109.95 142.83 108.795 142.83 107.37V60.54C142.83 59.295 141.825 58.29 140.58 58.29H140.565ZM48.855 103.185C42.615 103.185 37.545 98.115 37.545 91.875C37.545 85.635 42.615 80.565 48.855 80.565H79.59C85.83 80.565 90.8999 85.635 90.8999 91.875H82.26C75.09 91.875 69.045 96.645 67.11 103.185H48.87H48.855ZM89.955 96.375C88.215 100.38 84.225 103.185 79.575 103.185H71.865C73.605 99.18 77.595 96.375 82.245 96.375H89.955ZM112.98 118.995H82.245C76.005 118.995 70.935 113.925 70.935 107.685H79.575C86.7449 107.685 92.79 102.915 94.725 96.375H112.965C119.205 96.375 124.275 101.445 124.275 107.685C124.275 113.925 119.205 118.995 112.965 118.995H112.98Z" fill="black"/>
<path d="M42.15 51.9C42.63 51.42 42.9 50.745 42.9 50.055C42.795 38.28 37.125 28.215 29.235 24.12C32.58 21.69 34.77 17.775 34.77 13.32C34.77 5.985 28.8 0 21.45 0C14.1 0 8.13 5.985 8.13 13.32C8.13 17.76 10.32 21.69 13.665 24.12C5.775 28.215 0.105 38.28 0 50.055C0 50.745 0.27 51.405 0.75 51.9C1.23 52.38 1.905 52.665 2.58 52.665H40.32C41.01 52.665 41.67 52.395 42.15 51.9ZM12.63 13.32C12.63 8.46 16.59 4.5 21.45 4.5C26.31 4.5 30.27 8.46 30.27 13.32C30.27 18.18 26.31 22.14 21.45 22.14C16.59 22.14 12.63 18.18 12.63 13.32ZM4.575 48.15C5.385 36.12 12.69 26.64 21.45 26.64C30.21 26.64 37.5 36.12 38.325 48.15H4.575Z" fill="black"/>
<path d="M148.35 24.12C151.695 21.69 153.885 17.775 153.885 13.32C153.885 5.97 147.9 0 140.565 0C133.23 0 127.245 5.985 127.245 13.32C127.245 17.76 129.435 21.69 132.78 24.12C124.89 28.215 119.235 38.28 119.115 50.04C119.115 50.73 119.37 51.405 119.85 51.885C120.33 52.365 121.005 52.65 121.695 52.65H159.435C160.125 52.65 160.785 52.365 161.28 51.885C161.775 51.405 162.03 50.715 162.015 50.055C161.91 38.28 156.24 28.215 148.35 24.12ZM131.745 13.32C131.745 8.46 135.705 4.5 140.565 4.5C145.425 4.5 149.385 8.46 149.385 13.32C149.385 18.18 145.425 22.14 140.565 22.14C135.705 22.14 131.745 18.18 131.745 13.32ZM123.705 48.15C124.515 36.12 131.82 26.64 140.58 26.64C149.34 26.64 156.63 36.12 157.455 48.15H123.705Z" fill="black"/>
</g>
<defs>
<clipPath id="clip0_430_20042">
<rect width="162.015" height="161.49" fill="white"/>
</clipPath>
</defs>
</svg>
