<svg width="160" height="160" viewBox="0 0 160 160" fill="none" xmlns="http://www.w3.org/2000/svg">
<rect width="160" height="160" fill="#F3F3F3"/>
<path fill-rule="evenodd" clip-rule="evenodd" d="M48.8511 104.005C48.8511 104.005 48.8511 104.07 48.8128 104.098C48.251 105.175 47.4062 106.079 46.3691 106.713C45.332 107.346 44.1419 107.685 42.9268 107.692C41.136 107.642 39.4355 106.895 38.1867 105.61C36.9379 104.325 36.2393 102.604 36.2393 100.812C36.2393 99.0205 36.9379 97.2993 38.1867 96.0146C39.4355 94.7299 41.136 93.9829 42.9268 93.9324C44.1495 93.9428 45.3457 94.2892 46.3848 94.9338C47.4238 95.5784 48.2657 96.4962 48.8183 97.5871C48.8458 97.6268 48.8696 97.6689 48.8894 97.7129C48.8894 97.7129 46.756 99.2722 46.7341 99.2394C46.7276 99.2052 46.7125 99.1732 46.6904 99.1463C46.3957 98.3899 45.8766 97.7417 45.2029 97.2889C44.5292 96.8361 43.733 96.6003 42.9213 96.6132C41.8312 96.6525 40.7989 97.1133 40.0416 97.8985C39.2842 98.6838 38.861 99.7322 38.861 100.823C38.861 101.914 39.2842 102.963 40.0416 103.748C40.7989 104.533 41.8312 104.994 42.9213 105.033C43.7069 105.025 44.4737 104.792 45.1309 104.361C45.7882 103.931 46.3085 103.321 46.6302 102.604C46.6302 102.549 46.6685 102.506 46.6904 102.467L48.8511 104.005Z" fill="#3A3E55"/>
<path fill-rule="evenodd" clip-rule="evenodd" d="M51.6299 94.0584H54.2064V98.8621H60.9676V94.0584H63.5879V107.43H60.9895V101.554H54.2064V107.43H51.6299V94.0584Z" fill="#3A3E55"/>
<path fill-rule="evenodd" clip-rule="evenodd" d="M99.9214 107.43V94.0584H109.27V96.7557H102.525V99.4311H108.756V102.101H102.525V104.771H110.222V107.43H99.9214Z" fill="#3A3E55"/>
<path fill-rule="evenodd" clip-rule="evenodd" d="M113.876 107.43V94.0584H116.496V104.771H123.761V107.43H113.876Z" fill="#3A3E55"/>
<path fill-rule="evenodd" clip-rule="evenodd" d="M85.8684 107.43H83.2481V94.0584H86.8804L92.6077 102.101V94.0584H95.2061V107.43H93.1274L85.8629 97.3466L85.8684 107.43Z" fill="#3A3E55"/>
<path fill-rule="evenodd" clip-rule="evenodd" d="M73.3962 96.7557L71.1151 102.101H75.7867L73.3962 96.7557ZM69.939 104.771L68.7465 107.43H65.6504L71.5746 94.0584H75.1959L81.164 107.43H78.0678L76.8644 104.771H69.939Z" fill="#3A3E55"/>
<path fill-rule="evenodd" clip-rule="evenodd" d="M81.3443 88.9045C78.3783 90.6082 75.0167 91.5025 71.5963 91.4978C68.1115 91.4917 64.689 90.5728 61.6696 88.8325C58.6503 87.0922 56.1393 84.5912 54.3869 81.5786C54.3869 81.5786 54.3869 81.5786 54.3869 81.5239C54.3869 81.4692 54.3869 81.5239 54.3869 81.4691L57.1931 80.0138L60.0048 78.5804C60.0386 78.6116 60.0664 78.6487 60.0869 78.6898C61.2996 80.6543 62.9926 82.2773 65.0063 83.4059C67.02 84.5345 69.288 85.1314 71.5963 85.1403C73.1018 85.1366 74.5973 84.8947 76.0272 84.4236C72.9317 80.8468 71.2234 76.2771 71.2133 71.5464C71.2033 66.8158 72.8922 62.2389 75.9725 58.649C74.5641 58.1669 73.0849 57.9246 71.5963 57.9323C69.2243 57.9429 66.8959 58.5703 64.8397 59.753C62.7835 60.9358 61.0702 62.633 59.8681 64.6782C59.8576 64.6889 59.8497 64.7018 59.8449 64.716C59.8402 64.7303 59.8388 64.7454 59.8407 64.7603L54.1954 61.8441C54.218 61.7941 54.2454 61.7464 54.2775 61.7019C56.0195 58.644 58.5391 56.1012 61.5806 54.3314C64.6221 52.5615 68.0775 51.6275 71.5963 51.624C75.0203 51.6131 78.3853 52.5159 81.3443 54.2392C84.3027 52.5147 87.668 51.6118 91.0923 51.624C94.611 51.628 98.0661 52.5623 101.108 54.3321C104.149 56.1019 106.669 58.6444 108.411 61.7019C108.443 61.7464 108.471 61.7941 108.493 61.8441L102.848 64.7603C102.854 64.7474 102.857 64.7334 102.857 64.7192C102.857 64.7051 102.854 64.6911 102.848 64.6782C101.646 62.633 99.9324 60.9358 97.8762 59.753C95.82 58.5703 93.4916 57.9429 91.1196 57.9323C89.6311 57.9257 88.152 58.1679 86.7434 58.649C89.8322 62.2349 91.5266 66.8133 91.5166 71.5465C91.5065 76.2796 89.7927 80.8508 86.6887 84.4236C88.1206 84.8943 89.6178 85.1362 91.1251 85.1403C93.4447 85.1384 95.7252 84.5426 97.7495 83.4096C99.7737 82.2767 101.474 80.6443 102.689 78.6679C102.71 78.6268 102.737 78.5897 102.771 78.5585L105.577 79.992L108.384 81.4473C108.384 81.4746 108.356 81.4746 108.356 81.502C108.356 81.5293 108.356 81.5293 108.356 81.5567C106.604 84.5686 104.094 87.069 101.076 88.8093C98.0577 90.5495 94.6363 91.4689 91.1524 91.4759C87.7134 91.4995 84.3295 90.6123 81.3443 88.9045ZM81.3443 81.0041C78.9072 78.4599 77.537 75.0787 77.5151 71.5554C77.511 68.0609 78.8873 64.7062 81.3443 62.2216C83.7898 64.7112 85.154 68.0654 85.1406 71.5554C85.1282 75.0743 83.7698 78.4551 81.3443 81.0041Z" fill="#3A3E55"/>
</svg>
