<svg width="160" height="160" viewBox="0 0 160 160" fill="none" xmlns="http://www.w3.org/2000/svg">
<rect width="160" height="160" fill="#F3F3F3"/>
<path d="M54.2354 84.5297C53.6656 84.5297 53.2269 85.04 52.7312 86.1795C52.2298 87.3626 51.659 88.5155 51.0218 89.6321C50.452 90.6355 48.6116 93.1016 44.3896 93.1016C43.3268 93.092 42.2764 92.8737 41.2987 92.4593C40.3209 92.0449 39.435 91.4424 38.6917 90.6865C36.2474 88.3735 35.0167 84.7678 35.0167 79.915C34.9332 77.4216 35.3878 74.9394 36.35 72.6356C37.0338 71.0031 38.1788 69.603 39.6462 68.6048C41.1136 67.6066 42.8404 67.0532 44.6175 67.0117C47.9678 67.0117 50.566 69.2794 52.2069 73.5597C52.6343 74.6652 52.9078 74.9884 53.3864 74.9884C53.865 74.9884 54.1727 74.5462 54.1727 73.4747C54.1727 73.0665 54.0872 71.1786 53.9505 69.5799C53.9979 69.094 53.9039 68.6047 53.6796 68.1705C53.4553 67.7362 53.1103 67.3753 52.6856 67.1308C51.848 66.6546 48.8738 64.4606 44.9252 64.2962C42.3216 64.152 39.7262 64.6978 37.404 65.8779C34.6589 67.1652 32.3464 69.2147 30.7451 71.7797C29.1438 74.3446 28.322 77.3155 28.3787 80.3345C28.3787 89.0425 35.1819 95.7265 44.0363 95.7265C47.0113 95.7202 49.9312 94.9279 52.4975 93.4305C52.7928 93.2833 53.0637 93.0921 53.3009 92.8635C53.6941 92.4553 53.8707 91.9451 54.0872 90.7035C54.1214 90.4824 55.0274 85.8903 55.0274 85.5672C55.0217 84.9039 54.714 84.5297 54.2354 84.5297Z" fill="#3A3E55"/>
<path d="M76.5594 93.4419C75.5167 92.8296 75.2774 92.2513 75.2774 90.4145C75.2774 90.4145 75.1919 82.6079 75.1577 81.3153C75.2097 80.3908 75.0998 79.4642 74.833 78.5771C74.4862 77.5955 73.8559 76.7376 73.0211 76.111C71.7409 75.2828 70.2402 74.8562 68.7135 74.8864C67.2968 74.8954 65.9066 75.2705 64.6795 75.9749C64.4452 76.1656 64.16 76.2838 63.859 76.3151C63.5342 76.3151 63.3804 76.0259 63.3804 75.4307C63.3804 75.2436 63.4317 67.1989 63.4317 66.4336C63.4317 65.6682 63.4317 64.8348 62.7821 64.7838C62.0129 64.7328 61.7394 65.6342 60.2181 66.4846C59.2104 66.9594 58.1775 67.3795 57.1242 67.7432C56.6284 67.9132 56.4404 68.1173 56.4404 68.3101C56.4404 68.5028 56.6797 68.7863 57.1242 69.1264C57.5686 69.4666 57.9275 69.7557 57.9788 71.6266C57.9788 71.6266 57.9789 91.3386 57.9447 91.7468C57.9005 92.2934 57.6715 92.8089 57.2951 93.2094C56.9874 93.5496 56.2524 93.8387 56.2353 94.2299C56.2182 94.6211 56.6798 94.7231 57.7396 94.7231H64.1496C64.9359 94.7231 65.5855 94.5871 65.5855 94.1959C65.5855 93.9578 65.2949 93.6857 64.594 93.2435C64.0243 92.8863 63.8419 92.7332 63.6709 92.3591C63.4461 91.7678 63.3472 91.1365 63.3804 90.5052C63.3804 90.2671 63.4488 82.7497 63.4317 81.5591C63.4317 80.6917 63.4829 79.8073 63.7906 79.3991C64.15 78.9467 64.6069 78.5804 65.1276 78.3272C65.6483 78.074 66.2195 77.9405 66.7991 77.9365C68.0127 77.9875 69.5853 78.3787 69.648 80.2835C69.648 80.2835 69.8018 90.8113 69.8018 90.9814C69.8376 91.4248 69.759 91.87 69.5736 92.2748C69.3881 92.6796 69.1019 93.0305 68.742 93.2945C68.1722 93.7027 67.9728 93.9748 67.9728 94.1959C67.9728 94.5531 68.4344 94.7061 69.5796 94.7061L74.3487 94.6381C76.2461 94.6381 77.1691 94.5871 77.1976 94.0712C77.209 93.8841 77.0552 93.748 76.5594 93.4419Z" fill="#3A3E55"/>
<path d="M86.9353 92.7443C86.5592 92.2681 86.4567 91.5368 86.4567 90.0231C86.4567 89.6999 86.2857 66.2122 86.2857 66.2122C86.3199 65.1407 86.0464 64.8346 85.5678 64.8856C85.0892 64.9366 84.998 65.1407 84.5593 65.4979C83.9152 66.0496 83.1959 66.5077 82.4226 66.8585C81.7817 67.1577 81.1189 67.4079 80.4398 67.6069C79.927 67.7429 79.4997 67.896 79.3287 68.2361C79.1578 68.5763 79.4826 68.8484 79.8985 69.1035C80.1861 69.2808 80.4194 69.533 80.5731 69.8328C80.7267 70.1326 80.7949 70.4686 80.7702 70.8043C80.7702 70.8043 80.8557 91.2647 80.8557 91.3837C80.8557 92.5176 80.6848 92.7103 80.1036 93.2035C79.7105 93.5267 78.9641 93.9179 78.9641 94.224C78.9641 94.5301 79.3572 94.5982 80.6734 94.6322L86.8783 94.5812C87.7159 94.5812 88.5364 94.5301 88.5877 94.224C88.6788 93.5437 87.243 93.1525 86.9353 92.7443Z" fill="#3A3E55"/>
<path d="M121.92 73.713C123.165 73.548 124.36 73.1188 125.424 72.4544C127.099 71.4509 128.039 70.3624 128.039 69.427C128.039 68.6787 127.47 68.2932 126.398 68.0154C126.262 67.9814 124.227 67.3691 123.441 67.1139C122.911 66.9439 121.954 67.0799 121.954 67.7432C121.954 67.9984 122.108 68.2535 122.524 68.6787C122.719 68.8418 122.876 69.0447 122.985 69.2736C123.094 69.5025 123.152 69.752 123.156 70.0053C123.152 70.3568 123.045 70.6995 122.849 70.9917C122.639 71.3296 122.336 71.6009 121.977 71.7741C121.139 72.3013 120.797 72.6585 120.797 72.9986C120.792 73.6789 121.538 73.713 121.92 73.713Z" fill="#3A3E55"/>
<path d="M126.979 85.7709C127.834 85.7709 130.244 85.89 130.637 85.5158C131.031 85.1416 130.928 84.9035 130.928 84.3252C130.928 79.6481 127.612 74.92 121.92 74.92C115.652 74.92 112.074 80.6856 112.074 84.9035C112.075 86.9493 112.693 88.9478 113.847 90.6412C115 92.3346 116.637 93.6453 118.547 94.4042C120.456 95.1632 122.55 95.3356 124.559 94.8992C126.568 94.4629 128.399 93.4377 129.817 91.9561C130.177 91.6361 130.403 91.1928 130.449 90.7145C130.451 90.6038 130.43 90.494 130.389 90.3912C130.348 90.2885 130.286 90.1949 130.208 90.1159C130.131 90.0368 130.038 89.9739 129.935 89.9307C129.833 89.8875 129.723 89.8648 129.612 89.8641C129.304 89.8641 128.979 90.0512 128.472 90.5104C127.618 91.2928 125.19 93.0786 122.774 92.5854C118.108 91.5989 118.216 86.4285 118.416 85.7822C118.416 85.7709 126.666 85.7709 126.979 85.7709ZM118.364 82.0292C118.775 80.3795 119.441 77.199 121.868 77.199C123.851 77.199 124.791 79.7502 125.048 82.2503C125.116 82.8796 125.185 83.4579 123.698 83.4579H119.612C118.119 83.4522 118.119 82.9476 118.364 82.0292Z" fill="#3A3E55"/>
<path d="M100.314 74.8867C92.9064 74.8867 89.5846 80.6864 89.5846 84.7512C89.5846 89.9216 93.1571 95.194 99.9717 95.194C101.312 95.2163 102.643 94.9758 103.89 94.4862C105.137 93.9966 106.274 93.2674 107.238 92.3403C108.201 91.4133 108.972 90.3065 109.505 89.0831C110.039 87.8598 110.325 86.5438 110.347 85.2105C110.37 83.8771 110.128 82.5523 109.636 81.3119C109.144 80.0714 108.411 78.9396 107.479 77.9809C106.548 77.0223 105.435 76.2556 104.206 75.7247C102.976 75.1938 101.654 74.9091 100.314 74.8867ZM100.416 92.881C96.6898 92.881 95.6128 89.0372 95.6128 84.9723C95.6128 79.6999 97.9889 77.1998 99.6982 77.1998C103.784 77.1998 104.416 81.7749 104.416 84.9723C104.399 90.4658 102.348 92.881 100.416 92.881Z" fill="#3A3E55"/>
</svg>
