<svg width="160" height="160" viewBox="0 0 160 160" fill="none" xmlns="http://www.w3.org/2000/svg">
<rect width="160" height="160" fill="#F3F3F3"/>
<path d="M127.25 81.0489C126.511 81.0532 125.795 81.3036 125.214 81.7608C123.9 82.5728 122.247 85.3314 121.743 86.16V82.4171C121.743 82.05 121.837 81.5272 121.515 81.3048C121.193 81.0823 120.96 81.1991 119.585 81.9666C118.114 82.7038 116.583 83.3141 115.009 83.7908C114.072 84.0856 114.072 84.2468 114.105 84.4359C114.261 84.7808 114.826 84.5305 115.653 84.258C116.479 83.9855 116.939 84.0355 117.189 84.1801C117.439 84.3247 117.705 84.4526 117.705 85.3592L117.755 96.5436C117.778 97.0772 117.663 97.6078 117.422 98.0841C116.912 98.9796 115.131 98.835 114.793 98.8795C114.455 98.9239 114.017 98.8795 114.017 99.1575C114.017 99.4356 114.15 99.4189 114.488 99.4189H125.026C125.425 99.4189 125.425 99.3522 125.425 99.2187C125.425 99.0852 125.425 98.974 124.993 98.9128C124.56 98.8516 122.979 98.835 122.552 98.5736C122.275 98.4184 122.05 98.1835 121.906 97.899C121.763 97.6145 121.708 97.2936 121.748 96.9774C121.748 96.9774 121.626 90.6093 121.748 88.5627C121.92 85.7819 124.921 83.8353 125.458 83.6518C125.733 83.5862 126.021 83.6159 126.276 83.7362C126.531 83.8565 126.737 84.0601 126.862 84.3136C127.2 84.8364 127.599 85.3592 128.165 85.4259C128.864 85.5205 129.973 84.9198 129.912 83.4126C129.834 81.5105 128.021 81.0378 127.25 81.0489Z" fill="#3A3E55"/>
<path d="M87.7662 98.9185C86.5738 98.9185 85.6531 98.7239 85.2871 98.3624C84.921 98.0009 84.8156 97.6839 84.8156 96.8719V82.4117C84.8156 81.9501 84.8433 81.3828 84.5217 81.2715C84.2 81.1603 83.967 81.2715 82.4252 82.1169C81.0618 82.8383 79.6193 83.3982 78.1268 83.7854C77.3448 83.9912 77.0786 84.1691 77.2228 84.4472C77.367 84.7253 78.4707 84.2915 79.3803 84.0801C79.5477 84.0155 79.7285 83.9941 79.9063 84.0178C80.0841 84.0415 80.2531 84.1097 80.3977 84.216C80.5424 84.3223 80.6581 84.4634 80.7342 84.6262C80.8104 84.7891 80.8445 84.9685 80.8334 85.148V96.6327C80.8446 97.1101 80.7597 97.5849 80.5838 98.0287C80.1568 99.0131 78.26 98.874 77.8495 98.874C77.4391 98.874 77.2228 98.9797 77.2228 99.1521C77.2228 99.3245 77.2949 99.4246 77.6222 99.4246H88.0879C88.3042 99.4246 88.4706 99.4246 88.4706 99.1966C88.4706 98.9686 88.3208 98.9185 87.7662 98.9185Z" fill="#3A3E55"/>
<path d="M82.5527 74.448C83.0619 74.4491 83.56 74.2986 83.9839 74.0157C84.4078 73.7329 84.7385 73.3302 84.9342 72.8588C85.1298 72.3873 85.1816 71.8683 85.0829 71.3673C84.9842 70.8664 84.7396 70.4061 84.3799 70.0446C84.0202 69.6831 83.5617 69.4368 83.0623 69.3368C82.563 69.2368 82.0452 69.2875 81.5747 69.4827C81.1041 69.6779 80.7019 70.0086 80.4189 70.4331C80.1358 70.8576 79.9847 71.3567 79.9847 71.8674C79.9847 72.5508 80.2551 73.2064 80.7366 73.6902C81.218 74.174 81.8711 74.4465 82.5527 74.448Z" fill="#3A3E55"/>
<path d="M98.5593 80.7493C96.0517 81.2924 93.8574 82.8019 92.4495 84.9524C91.0416 87.1029 90.5329 89.7221 91.0331 92.2452C92.281 99.7756 99.2027 100.41 103.274 99.5198C107.444 98.6132 112.247 94.887 110.811 87.8849C109.374 80.8828 103.024 79.9151 98.5593 80.7493ZM101.887 98.5854C98.4318 99.2028 95.6475 95.5488 95.1262 90.8492C94.6049 86.1497 96.2909 81.9173 99.9958 81.578C103.579 81.2555 106.241 83.9473 106.651 89.3643C107.095 94.6589 105.359 97.9737 101.893 98.5854H101.887Z" fill="#3A3E55"/>
<path d="M51.7158 60.171H31.9656C31.5275 60.171 31.3666 60.31 31.3666 60.5547C31.3666 60.7994 31.4332 60.9162 32.2818 60.9997C34.6833 61.2444 38.0942 60.7994 38.0942 63.6136V94.931C38.0942 97.2113 37.645 97.4727 37.3399 97.7897C36.7853 98.3459 35.8646 98.5461 30.9673 98.6851C30.5403 98.6851 30.0854 98.7574 30.0854 99.1078C30.0854 99.4582 30.4071 99.4638 30.7177 99.4638H55.9364C68.4986 99.4638 74.5108 89.4529 74.5108 80.3207C74.5108 76.0827 73.4015 60.171 51.7158 60.171ZM63.9175 92.8844C60.5287 97.3948 57.9442 98.2958 48.3215 98.2958H45.7369C44.9771 98.2958 44.7109 98.2013 44.7109 97.4449V62.6181C44.7109 61.9507 44.7608 61.5058 45.7147 61.5058H49.7468C54.6941 61.5058 60.3512 62.7071 63.74 67.3566C67.1287 72.0061 67.7056 77.4954 67.7056 79.6867C67.7056 81.8779 67.3173 88.3517 63.9175 92.8844Z" fill="#3A3E55"/>
</svg>
