<svg width="152" height="152" viewBox="0 0 152 152" fill="none" xmlns="http://www.w3.org/2000/svg">
<g clip-path="url(#clip0_434_7507)">
<path d="M113.775 146.55C123.592 146.55 131.55 138.592 131.55 128.775C131.55 118.958 123.592 111 113.775 111C103.958 111 96 118.958 96 128.775C96 138.592 103.958 146.55 113.775 146.55Z" fill="#C6CBBD"/>
<path d="M43.5 84C65.8675 84 84 65.8675 84 43.5C84 21.1325 65.8675 3 43.5 3C21.1325 3 3 21.1325 3 43.5C3 65.8675 21.1325 84 43.5 84Z" fill="#FADACA"/>
<path d="M131.85 36.42C118.665 23.145 101.325 16.5 83.985 16.5V21C100.89 21 116.745 27.6 128.67 39.585C140.52 51.525 147.03 67.35 146.97 84.18C146.91 100.995 140.31 116.79 128.385 128.655C116.505 140.46 100.74 146.955 84 146.955C67.26 146.955 51.225 140.355 39.315 128.37C14.82 103.725 14.955 63.78 39.585 39.3C51.465 27.495 67.23 21 83.97 21V16.5C66.78 16.5 49.575 23.025 36.405 36.105C9.97496 62.37 9.82496 105.09 36.09 131.535C49.275 144.81 66.615 151.455 83.955 151.455C101.295 151.455 118.35 144.93 131.52 131.85C157.965 105.585 158.1 62.865 131.835 36.42H131.85Z" fill="black"/>
<path d="M56.565 70.56C49.155 70.56 43.14 76.575 43.14 83.985C43.14 91.395 49.155 97.41 56.565 97.41C61.005 97.41 64.935 95.235 67.38 91.905L97.725 107.07C97.35 108.3 97.14 109.62 97.14 110.97C97.14 118.38 103.155 124.395 110.565 124.395C117.975 124.395 123.99 118.38 123.99 110.97C123.99 103.56 117.975 97.545 110.565 97.545C106.125 97.545 102.195 99.72 99.75 103.05L69.405 87.885C69.78 86.655 69.99 85.335 69.99 83.985C69.99 82.635 69.78 81.315 69.405 80.085L99.75 64.92C102.195 68.25 106.125 70.425 110.565 70.425C117.975 70.425 123.99 64.41 123.99 57C123.99 49.59 117.975 43.575 110.565 43.575C103.155 43.575 97.14 49.59 97.14 57C97.14 58.365 97.35 59.67 97.725 60.9L67.38 76.065C64.935 72.735 61.005 70.56 56.565 70.56ZM56.565 92.91C51.645 92.91 47.64 88.905 47.64 83.985C47.64 79.065 51.645 75.06 56.565 75.06C61.485 75.06 65.49 79.065 65.49 83.985C65.49 88.905 61.485 92.91 56.565 92.91ZM110.565 102.06C115.485 102.06 119.49 106.065 119.49 110.985C119.49 115.905 115.485 119.91 110.565 119.91C105.645 119.91 101.64 115.905 101.64 110.985C101.64 106.065 105.645 102.06 110.565 102.06ZM110.565 48.06C115.485 48.06 119.49 52.065 119.49 56.985C119.49 61.905 115.485 65.91 110.565 65.91C105.645 65.91 101.64 61.905 101.64 56.985C101.64 52.065 105.645 48.06 110.565 48.06Z" fill="black"/>
</g>
<defs>
<clipPath id="clip0_434_7507">
<rect width="151.5" height="151.5" fill="white"/>
</clipPath>
</defs>
</svg>
