<svg width="160" height="160" viewBox="0 0 160 160" fill="none" xmlns="http://www.w3.org/2000/svg">
<rect width="160" height="160" fill="#F3F3F3"/>
<path d="M74.4487 61.4852C76.3011 61.4852 78.1534 61.4852 80.0003 61.4852C80.0003 60.4902 80.0003 59.4898 80.0003 58.4894C78.148 58.4894 76.3011 58.4894 74.4542 58.4894C74.4542 56.9243 74.4542 55.3592 74.4542 53.794C77.746 53.794 81.0433 53.794 84.3351 53.794C84.3351 52.7506 84.3352 51.7018 84.3732 50.653C83.189 50.61 82.0048 50.6853 80.8206 50.6046C77.5613 50.6046 74.302 50.6046 71.0428 50.6046C71.0428 54.8285 71.0428 59.0524 71.0428 63.2762C70.9667 66.627 71.0428 69.9778 70.9994 73.3232C72.1546 73.3447 73.3134 73.3447 74.4758 73.3232C74.4324 69.3646 74.4542 65.4222 74.4487 61.4852Z" fill="#3A3E55"/>
<path d="M85.5517 62.3771C83.6994 62.3771 81.847 62.3771 80.0001 62.3771C80.0001 63.3829 80.0001 64.3833 80.0001 65.3837H85.5463C85.5463 66.9596 85.5463 68.5354 85.5463 70.1113C82.2544 70.1113 78.968 70.1113 75.6816 70.1113C75.6816 71.187 75.6816 72.2197 75.6816 73.2739C78.2401 73.2739 80.7987 73.2739 83.3572 73.2739C85.2258 73.2739 87.089 73.3384 88.9577 73.3115C89.0228 72.3219 88.9957 71.3269 89.0011 70.3318V59.661C89.0717 56.6383 89.0011 53.6156 89.0391 50.5983C87.8821 50.5983 86.7305 50.5983 85.5789 50.5983C85.5572 54.5192 85.5463 58.467 85.5517 62.3771Z" fill="#3A3E55"/>
<path d="M31.1113 83.2084C31.1113 91.9269 31.1113 100.645 31.1113 109.364C32.817 109.342 34.5263 109.342 36.2392 109.364C36.2392 105.689 36.2392 102.017 36.2392 98.3487H47.0708C47.0708 96.7998 47.0708 95.2508 47.0708 93.7071C43.4712 93.7071 39.8661 93.7071 36.2555 93.7071C36.2555 91.7602 36.2555 89.8078 36.2555 87.8608C40.3767 87.8608 44.496 87.8608 48.6135 87.8608C48.6135 86.3064 48.6135 84.752 48.6135 83.203L31.1113 83.2084Z" fill="#3A3E55"/>
<path d="M57.0334 104.722C57.0334 102.485 57.0334 100.248 57.0334 98.0102C61.0169 98.0102 65.0005 98.0102 68.984 98.0102C68.984 96.4666 68.984 94.9176 68.984 93.3686C64.986 93.3686 60.9934 93.3686 56.9954 93.3686C56.9954 91.5453 56.9954 89.722 56.9954 87.8987C61.3411 87.8987 65.6867 87.8987 70.0324 87.8987C70.0324 86.3444 70.0324 84.79 70.0324 83.2356C64.0082 83.2356 57.9786 83.2356 51.9544 83.2356C51.9544 91.9594 51.9544 100.681 51.9544 109.402C58.1796 109.402 64.4047 109.402 70.6245 109.402C70.6245 107.849 70.6245 106.297 70.6245 104.744C66.1322 104.723 61.5855 104.722 57.0334 104.722Z" fill="#3A3E55"/>
<path d="M89.778 83.2083C89.778 89.2752 89.778 95.3456 89.778 101.42C86.5188 95.3743 83.2595 89.3039 80.0003 83.2083C78.1914 83.2083 76.377 83.2083 74.5681 83.2083C74.5681 91.9321 74.5681 100.654 74.5681 109.374C76.1978 109.374 77.7894 109.374 79.4027 109.374V90.7112C82.7706 96.9251 86.1294 103.144 89.4792 109.369C91.1904 109.369 92.8961 109.369 94.6072 109.369C94.6072 100.652 94.6072 91.9357 94.6072 83.2191C92.9776 83.2083 91.4077 83.2083 89.778 83.2083Z" fill="#3A3E55"/>
<path d="M116.395 85.1611C114.772 83.8809 112.751 83.1968 110.675 83.2249C106.949 83.2249 103.217 83.2249 99.4853 83.2249C99.4853 91.9433 99.4853 100.667 99.4853 109.386C103.13 109.353 106.775 109.386 110.42 109.386C111.866 109.377 113.29 109.031 114.576 108.375C116.314 107.411 117.697 105.925 118.525 104.131C119.85 101.571 120.258 98.661 120.328 95.8212C120.328 93.9746 120.085 92.1359 119.606 90.3513C119.003 88.3774 118.025 86.4358 116.395 85.1611ZM113.967 101.791C113.618 102.695 112.994 103.47 112.182 104.01C111.37 104.549 110.409 104.826 109.431 104.803H104.543C104.543 99.1307 104.543 93.4547 104.543 87.7751C106.27 87.7751 107.997 87.7751 109.719 87.7751C111.001 87.8611 112.403 88.2053 113.245 89.238C114.646 90.9161 114.972 93.1696 115.027 95.278C115.183 97.5018 114.817 99.7313 113.956 101.791H113.967Z" fill="#3A3E55"/>
<path d="M128.889 83.2083C127.178 83.2083 125.472 83.2083 123.767 83.2083C123.767 91.9321 123.767 100.656 123.767 109.38C125.472 109.337 127.178 109.38 128.884 109.38C128.887 100.652 128.889 91.9286 128.889 83.2083Z" fill="#3A3E55"/>
</svg>
