<svg width="160" height="160" viewBox="0 0 160 160" fill="none" xmlns="http://www.w3.org/2000/svg">
<rect width="160" height="160" fill="#F3F3F3"/>
<path d="M138.639 73.9079L134.92 78.8788H134.803L131.09 73.9079H128.184L133.716 80.9369V86.1061H136.007V80.9369L141.538 73.9079H138.639ZM122.167 78.8788H115.555V73.8942H113.272V86.0993H115.555V81.0053H122.167V86.0993H124.444V73.8942H122.161L122.167 78.8788ZM87.9383 73.9079V82.2429H87.8837L80.4854 73.9079H78.482V86.1061H80.6016V77.7369H80.6836L88.164 86.1061H90.099V73.9079H87.9383ZM72.3896 83.9865H64.8135V81.0053H70.2836V78.8856H64.8135V75.9933H72.3896V73.942H62.5298V86.1403H72.3896V83.9865ZM51.07 83.0634H51.0084L47.3503 73.9079H44.7042L50.0717 86.1061H51.9657L57.34 73.9079H54.7007L51.07 83.0634ZM37.2512 86.1061H39.5349V73.9079H37.2512V86.1061ZM24.5332 81.5865H28.4443V83.7061C27.4469 84.0291 26.4017 84.1794 25.3537 84.1506C22.5572 84.1506 21.0118 82.7489 21.0118 80.007C21.0118 77.2651 22.564 75.8566 25.3537 75.8566C28.1435 75.8566 29.6477 76.7386 30.4546 77.4019V74.954C29.5588 74.2155 27.5349 73.6685 25.3537 73.6685C22.1059 73.6685 18.4614 74.995 18.4614 80.0001C18.4614 85.0053 22.1059 86.3318 25.3537 86.3318C27.2145 86.3832 29.0561 85.9447 30.6939 85.06V79.4668H24.5401L24.5332 81.5865ZM95.5076 80.0001C95.5076 84.9984 99.1452 86.3318 102.4 86.3318C104.581 86.3318 106.598 85.7848 107.501 85.0463V82.5916C106.701 83.2753 105.237 84.1437 102.4 84.1437C99.5623 84.1437 98.058 82.7762 98.058 80.0001C98.058 77.2241 99.6101 75.8497 102.4 75.8497C105.19 75.8497 106.694 76.7318 107.501 77.4019V74.954C106.598 74.2155 104.574 73.6685 102.4 73.6685C99.1452 73.6685 95.5076 74.995 95.5076 80.0001Z" fill="#3A3E55"/>
</svg>
