<svg width="864" height="865" viewBox="0 0 864 865" fill="none" xmlns="http://www.w3.org/2000/svg">
<path d="M431.977 46.4467L385.954 0.34375H380.464L357.112 23.6976C355.344 19.9604 352.925 16.5178 349.917 13.4939C343.032 6.60866 333.883 2.8094 324.161 2.8094H324.145C309.538 2.8094 296.916 11.4779 291.117 23.9302L267.563 0.34375H262.073L216.019 46.4467L169.981 0.34375H164.492L141.139 23.6976C139.371 19.9604 136.952 16.5178 133.944 13.4939C127.059 6.60866 117.91 2.8094 108.188 2.8094H108.172C93.5655 2.8094 80.9588 11.4779 75.1439 23.9302L51.5897 0.34375H46.1005L0 46.4932V51.8897L23.4922 75.3832C19.8016 77.151 16.3902 79.5391 13.413 82.532C6.52818 89.4172 2.74463 98.5664 2.74463 108.305C2.74463 122.82 11.2576 135.365 23.5232 141.242L0 164.813V170.179L46.116 216.344L0 262.509V267.905L23.4922 291.383C19.8016 293.151 16.3902 295.555 13.413 298.532C6.52818 305.417 2.74463 314.582 2.74463 324.32C2.74463 338.82 11.2576 351.381 23.5232 357.242L0 380.829V386.194L46.085 432.344H51.6052L75.0819 408.819C76.8651 412.619 79.2996 416.123 82.3544 419.194C89.2392 426.079 98.388 429.863 108.11 429.863H108.126C122.671 429.863 135.262 421.272 141.093 408.897L164.476 432.344H169.996L216.05 386.241L262.089 432.344H267.609L291.086 408.819C292.869 412.619 295.303 416.123 298.358 419.194C305.243 426.079 314.392 429.863 324.114 429.863C331.387 429.863 338.179 427.723 343.869 424.016C349.56 420.326 354.166 415.084 357.081 408.897L380.48 432.344H386L432.039 386.241V380.782L408.671 357.351C421.014 351.505 429.558 338.928 429.558 324.383C429.558 309.837 420.983 297.214 408.609 291.383L432.039 267.952V262.462L385.985 216.359L432.039 170.225V164.767L408.671 141.351C421.014 135.505 429.558 122.913 429.558 108.383C429.558 93.8522 420.983 81.2139 408.609 75.3677L432.039 51.9363V46.4467H431.977ZM356.709 39.2824C356.709 47.5787 353.561 55.1462 348.444 60.8994L336.923 49.3776L355.546 30.7534C356.29 33.4982 356.709 36.3515 356.709 39.2824V39.2824ZM326.502 357.025C325.696 356.963 324.89 356.932 324.083 356.932C323.277 356.932 322.533 356.963 321.773 357.01L291.52 356.963V326.15C291.551 325.546 291.566 324.941 291.566 324.32C291.566 323.7 291.551 323.111 291.52 322.506V291.755L356.476 291.864V357.072L326.487 357.025H326.502ZM353.809 360.948L348.459 366.299C346.087 364.159 343.466 362.36 340.675 360.917L353.809 360.948ZM307.662 360.855C304.731 362.344 302.033 364.205 299.63 366.392L294.094 360.84H307.662V360.855ZM279.316 346.062L264.988 331.717L242.411 354.327C230.766 349.365 222.579 337.796 222.579 324.336C222.579 310.876 230.75 299.323 242.38 294.345L265.019 316.986L279.347 302.641C284.325 308.193 287.411 315.45 287.643 323.421V325.251C287.411 333.237 284.309 340.51 279.316 346.062ZM287.643 340.774V354.389L282.092 348.837C284.278 346.418 286.155 343.704 287.643 340.774ZM276.572 348.806C270.834 353.846 263.345 356.932 255.126 356.932C252.134 356.932 249.25 356.482 246.489 355.723L264.988 337.191L276.572 348.806V348.806ZM246.474 292.949C249.234 292.19 252.134 291.74 255.126 291.74C263.36 291.74 270.865 294.841 276.603 299.897L265.019 311.496L246.474 292.949V292.949ZM282.123 299.866L287.643 294.345V307.914C286.155 304.983 284.294 302.269 282.123 299.866ZM279.363 297.136C272.928 291.383 264.43 287.863 255.126 287.863C251.017 287.863 247.048 288.561 243.357 289.832L218.748 265.222L264.802 219.12L289.566 243.885C288.372 247.482 287.721 251.312 287.721 255.313C287.721 264.339 290.977 272.868 296.932 279.551L279.363 297.136V297.136ZM167.035 331.717L152.769 345.984C147.667 340.231 144.55 332.679 144.55 324.398C144.55 316.117 147.683 308.534 152.8 302.781L167.004 316.986L189.643 294.33C201.381 299.261 209.646 310.876 209.646 324.398C209.646 337.92 201.412 349.489 189.721 354.435L167.035 331.717ZM185.611 355.816C182.898 356.56 180.045 356.994 177.098 356.994C168.818 356.994 161.266 353.846 155.513 348.729L167.035 337.191L185.611 355.816V355.816ZM150.009 348.76L144.38 354.389V340.417C145.868 343.456 147.776 346.263 150.009 348.76ZM144.38 308.379V294.345L150.04 300.005C147.791 302.502 145.884 305.324 144.38 308.379ZM155.544 300.036C161.297 294.934 168.833 291.802 177.098 291.802C180.014 291.802 182.836 292.236 185.534 292.965L167.004 311.496L155.544 300.036ZM188.666 289.832C185.038 288.607 181.145 287.925 177.098 287.925C167.763 287.925 159.235 291.461 152.784 297.26L135.231 279.691C141.046 273.224 144.597 264.68 144.597 255.313C144.597 251.281 143.93 247.358 142.69 243.652L167.221 219.104L213.275 265.222L188.666 289.832ZM110.529 357.041C109.723 356.979 108.917 356.948 108.11 356.948C107.304 356.948 106.575 356.979 105.816 357.025L75.5471 356.963V326.104C75.5781 325.515 75.5936 324.925 75.5936 324.336C75.5936 323.747 75.5781 323.157 75.5471 322.584V291.771L140.503 291.879V357.087L110.514 357.041H110.529ZM137.836 360.964L132.486 366.314C130.114 364.174 127.493 362.375 124.702 360.933L137.836 360.964ZM91.6892 360.871C88.774 362.36 86.0604 364.221 83.6569 366.407L78.1211 360.855H91.6892V360.871ZM75.5471 106.584V75.7708L140.503 75.8949V141.103L110.529 141.041C109.723 140.994 108.917 140.948 108.095 140.948C107.32 140.948 106.544 140.979 105.785 141.041L75.5316 140.979V110.104C75.5626 109.53 75.5781 108.941 75.5781 108.336C75.5781 107.731 75.5626 107.173 75.5316 106.584H75.5471ZM78.1056 71.894L83.6879 66.3114C86.1689 68.5755 88.9136 70.4519 91.8443 71.925L78.1056 71.894V71.894ZM124.346 71.9871C127.307 70.4984 130.052 68.6375 132.502 66.4355L138.069 72.0026H124.346V71.9871ZM167.019 100.97L189.658 78.3295C201.397 83.2608 209.662 94.8757 209.662 108.398C209.662 121.92 201.428 133.489 189.736 138.435L167.05 115.702L152.784 129.984C147.683 124.215 144.566 116.679 144.566 108.383C144.566 100.086 147.698 92.5341 152.815 86.7655L167.019 100.97ZM155.56 84.0207C161.313 78.9188 168.849 75.8019 177.114 75.8019C180.029 75.8019 182.851 76.2206 185.549 76.9494L167.019 95.496L155.56 84.0207V84.0207ZM185.627 139.816C182.913 140.544 180.06 140.979 177.114 140.979C168.833 140.979 161.282 137.846 155.529 132.729L167.05 121.191L185.627 139.816V139.816ZM144.395 92.3636V78.3295L150.055 84.0052C147.807 86.5018 145.9 89.3086 144.395 92.3636V92.3636ZM150.024 132.744L144.395 138.389V124.401C145.884 127.456 147.791 130.248 150.024 132.744ZM152.769 135.489C159.219 141.304 167.763 144.855 177.114 144.855C181.177 144.855 185.1 144.173 188.759 142.933L213.275 167.512L167.221 213.63L142.643 188.989C143.868 185.345 144.535 181.453 144.535 177.405C144.535 168.318 141.248 159.758 135.231 153.059L152.769 135.489V135.489ZM129.726 153.074L115.523 167.294L138.131 189.966C133.215 201.72 121.617 210.001 108.11 210.001C99.4114 210.001 91.2395 206.605 85.0835 200.449C82.0132 197.378 79.6252 193.781 78.0126 189.873L100.543 167.294L86.4325 153.167C91.8133 148.329 98.8066 145.274 106.498 144.902H109.925C117.306 145.305 124.206 148.159 129.726 153.074V153.074ZM124.702 144.933H137.836L132.486 150.314C130.114 148.159 127.493 146.36 124.702 144.933ZM120.996 167.294L132.455 155.819C137.743 161.789 140.658 169.357 140.658 177.405C140.658 180.336 140.24 183.158 139.511 185.857L120.996 167.294V167.294ZM91.6892 144.871C88.7585 146.36 86.0604 148.205 83.6569 150.392L78.1211 144.84L91.6892 144.871ZM83.7034 155.912L95.0696 167.294L76.6635 185.748C75.9502 183.05 75.5471 180.258 75.5471 177.405C75.5471 169.171 78.6483 161.665 83.7034 155.912V155.912ZM82.3389 203.194C89.2237 210.079 98.3725 213.878 108.11 213.878C122.655 213.878 135.247 205.287 141.077 192.897L164.492 216.375L141.139 239.729C139.371 235.991 136.952 232.533 133.944 229.525C127.059 222.64 117.91 218.84 108.172 218.84C93.5655 218.84 80.9588 227.493 75.1439 239.946L51.5742 216.375L75.0664 192.819C76.8496 196.634 79.2841 200.139 82.3389 203.194V203.194ZM132.502 282.435L138.069 288.003L124.346 287.972C127.307 286.498 130.052 284.622 132.502 282.435V282.435ZM108.172 287.894C104.11 287.894 100.187 287.15 96.5117 285.739C92.8522 284.312 89.4408 282.218 86.4636 279.536L100.59 265.393L78.0901 242.892C82.9746 231.076 94.6199 222.717 108.172 222.717C116.872 222.717 125.043 226.098 131.199 232.254C134.223 235.294 136.58 238.829 138.193 242.675L115.476 265.393L129.726 279.66C123.989 284.777 116.453 287.894 108.172 287.894V287.894ZM132.471 276.915L120.965 265.393L139.573 246.769C140.317 249.529 140.736 252.382 140.736 255.313C140.736 263.61 137.588 271.162 132.471 276.915ZM76.7256 247.017L95.1006 265.393L83.7344 276.775C78.5088 270.836 75.6246 263.3 75.6246 255.313C75.6246 252.445 76.0278 249.669 76.7256 247.017V247.017ZM91.8443 287.91H78.1056L83.6879 282.311C86.1689 284.575 88.9136 286.436 91.8443 287.91ZM169.95 216.375L216.019 170.241L262.073 216.375L216.019 262.478L169.95 216.375ZM265.019 100.97L279.347 86.6259C284.325 92.1775 287.411 99.4349 287.643 107.421V109.235C287.411 117.237 284.309 124.495 279.316 130.062L264.988 115.702L242.411 138.327C230.766 133.349 222.579 121.781 222.579 108.32C222.579 94.8602 230.75 83.3229 242.396 78.345L265.019 100.97ZM246.474 76.9494C249.234 76.174 252.134 75.7398 255.126 75.7398C263.36 75.7398 270.865 78.8413 276.603 83.8966L265.019 95.496L246.474 76.9494ZM282.123 83.8656L287.643 78.3295V91.8983C286.155 88.9675 284.294 86.2692 282.123 83.8656ZM287.643 124.758V138.389L282.092 132.837C284.278 130.418 286.155 127.705 287.643 124.758V124.758ZM276.572 132.791C270.834 137.831 263.345 140.917 255.126 140.917C252.134 140.917 249.25 140.482 246.489 139.723L264.988 121.191L276.572 132.791ZM243.388 142.84C247.063 144.096 251.017 144.793 255.126 144.793C264.415 144.793 272.897 141.304 279.332 135.551L296.901 153.152C291.148 159.603 287.643 168.101 287.643 177.405C287.643 181.375 288.279 185.236 289.489 188.896L264.802 213.63L218.748 167.512L243.388 142.84V142.84ZM316.501 167.294L302.39 153.167C307.771 148.329 314.748 145.274 322.455 144.902H325.882C333.248 145.305 340.163 148.159 345.668 153.074L331.464 167.294L354.088 189.966C349.173 201.72 337.558 210.001 324.052 210.001C315.369 210.001 307.181 206.605 301.041 200.449C297.971 197.378 295.583 193.781 293.97 189.873L316.501 167.294ZM292.621 185.748C291.908 183.05 291.504 180.258 291.504 177.405C291.504 169.171 294.606 161.665 299.645 155.912L311.027 167.294L292.621 185.748V185.748ZM299.614 150.392L294.078 144.84L307.647 144.871C304.716 146.36 302.018 148.205 299.614 150.392ZM302.405 279.536L316.547 265.393L294.047 242.892C298.932 231.06 310.577 222.717 324.13 222.717H324.145C332.829 222.717 341.001 226.113 347.157 232.254C350.181 235.294 352.537 238.829 354.15 242.675L331.433 265.393L345.684 279.66C339.946 284.777 332.395 287.894 324.13 287.894C320.067 287.894 316.144 287.15 312.469 285.739C308.809 284.312 305.398 282.218 302.405 279.536V279.536ZM307.802 287.91H294.063L299.645 282.311C302.126 284.575 304.871 286.436 307.802 287.91V287.91ZM311.058 265.393L299.692 276.775C294.466 270.836 291.582 263.3 291.582 255.313C291.582 252.445 291.985 249.669 292.683 247.017L311.058 265.393ZM340.303 287.972C343.265 286.498 346.009 284.622 348.459 282.435L354.011 288.003L340.303 287.972ZM348.428 276.93L336.907 265.393L355.53 246.769C356.275 249.529 356.693 252.382 356.693 255.313C356.693 263.61 353.545 271.162 348.428 276.93V276.93ZM349.901 229.525C343.017 222.64 333.868 218.84 324.145 218.84H324.13C309.523 218.84 296.901 227.493 291.101 239.946L267.532 216.375L291.024 192.819C292.807 196.634 295.241 200.139 298.296 203.194C305.181 210.079 314.33 213.878 324.052 213.878C338.613 213.878 351.188 205.287 357.019 192.897L380.449 216.375L357.096 239.729C355.329 235.991 352.91 232.533 349.901 229.525V229.525ZM355.468 185.857L336.954 167.294L348.413 155.819C353.7 161.789 356.616 169.357 356.616 177.405C356.616 180.336 356.197 183.158 355.468 185.857V185.857ZM340.66 144.933H353.794L348.444 150.314C346.071 148.159 343.451 146.36 340.66 144.933ZM326.502 141.025C325.696 140.979 324.874 140.932 324.068 140.932C323.261 140.932 322.517 140.963 321.757 141.025L291.504 140.963V110.15C291.535 109.546 291.551 108.941 291.551 108.32C291.551 107.7 291.535 107.111 291.504 106.506V75.7553L356.461 75.8794V141.087L326.487 141.025H326.502ZM294.063 71.8785L299.645 66.2959C302.126 68.56 304.871 70.4364 307.802 71.9095L294.063 71.8785V71.8785ZM340.303 71.9716C343.265 70.4829 346.009 68.622 348.459 66.42L354.011 71.9871H340.303V71.9716ZM324.13 6.6862H324.145C332.829 6.6862 341.001 10.0823 347.157 16.2386C350.181 19.2781 352.537 22.7982 354.15 26.644L331.433 49.3776L345.684 63.6442C339.931 68.7461 332.395 71.8785 324.13 71.8785C315.865 71.8785 308.391 68.9011 302.405 63.5201L316.547 49.3776L294.047 26.8766C298.932 15.0446 310.577 6.70171 324.13 6.6862V6.6862ZM292.683 31.0015L311.058 49.3776L299.692 60.7599C294.466 54.8051 291.582 47.2841 291.582 39.2824C291.582 36.4135 291.985 33.6532 292.683 31.0015V31.0015ZM264.818 3.08853L289.582 27.8535C288.388 31.4512 287.736 35.297 287.736 39.2824C287.736 48.3231 290.993 56.8365 296.947 63.5201L279.378 81.1208C272.943 75.3521 264.446 71.8475 255.142 71.8475C251.033 71.8475 247.063 72.5453 243.373 73.8169L218.764 49.1915L264.818 3.08853ZM239.48 75.3987C227.215 81.2759 218.717 93.8212 218.717 108.305C218.717 122.789 227.215 135.365 239.496 141.242L216.019 164.767L192.636 141.351C204.979 135.505 213.523 122.913 213.523 108.383C213.523 93.8522 204.948 81.2139 192.589 75.3677L216.019 51.9363L239.48 75.3987ZM142.705 27.6209L167.236 3.08853L213.29 49.1915L188.682 73.8014C185.053 72.5764 181.161 71.9095 177.114 71.9095C167.779 71.9095 159.25 75.4452 152.8 81.2449L135.231 63.6597C141.062 57.1932 144.612 48.6487 144.612 39.2824C144.612 35.2505 143.946 31.3272 142.705 27.6209V27.6209ZM140.736 39.2824C140.736 47.5787 137.588 55.1307 132.471 60.8994L120.965 49.3776L139.573 30.7534C140.317 33.4982 140.736 36.3515 140.736 39.2824ZM108.172 6.6862H108.188C116.872 6.6862 125.043 10.0823 131.199 16.2386C134.223 19.2781 136.58 22.7982 138.193 26.644L115.476 49.3776L129.726 63.6442C123.989 68.7461 116.453 71.8785 108.172 71.8785C99.8921 71.8785 92.4335 68.9011 86.4636 63.5046L100.59 49.3776L78.0901 26.8766C82.9746 15.0446 94.6199 6.6862 108.172 6.6862V6.6862ZM76.7256 31.0015L95.1006 49.3776L83.7344 60.7599C78.5088 54.8051 75.6246 47.2841 75.6246 39.2824C75.6246 36.4135 76.0278 33.6532 76.7256 31.0015V31.0015ZM2.79115 49.1915L48.8451 3.08853L73.6088 27.8535C72.4148 31.4512 71.7635 35.297 71.7635 39.2824C71.7635 48.3231 75.0199 56.8365 80.9743 63.5201L63.4056 81.1208C56.9704 75.3521 48.4729 71.8475 39.1691 71.8475C35.1064 71.8475 31.1368 72.5143 27.3843 73.8014L2.79115 49.1915ZM71.6705 78.314V91.8828C70.1819 88.952 68.3366 86.2537 66.1502 83.8346L71.6705 78.314ZM60.6299 83.8811L49.0467 95.4805L30.4855 76.9184C33.2767 76.143 36.1919 75.7243 39.1536 75.7243C47.3875 75.7243 54.8926 78.8103 60.6299 83.8811ZM6.62122 108.305C6.62122 99.6054 10.0171 91.4176 16.1576 85.2613C19.1504 82.2684 22.6393 79.9268 26.4229 78.314L49.0622 100.955L63.3901 86.6104C68.3676 92.1775 71.4689 99.4348 71.686 107.437V109.189C71.4689 117.206 68.3676 124.479 63.3746 130.046L49.0312 115.686L26.4539 138.311C14.8086 133.334 6.62122 121.765 6.62122 108.305V108.305ZM71.6705 124.743V138.373L66.1192 132.822C68.3211 130.403 70.1819 127.673 71.6705 124.743ZM60.5989 132.775C54.8616 137.815 47.372 140.901 39.1536 140.901C36.1609 140.901 33.2767 140.467 30.5321 139.707L49.0157 121.176L60.5989 132.775ZM2.79115 167.496L27.4308 142.824C31.1213 144.08 35.0599 144.778 39.1691 144.778C48.4574 144.778 56.9394 141.289 63.3746 135.536L80.9433 153.136C75.2059 159.587 71.686 168.085 71.686 177.39C71.686 181.359 72.3217 185.221 73.5312 188.88L48.8451 213.614L2.79115 167.496ZM2.79115 265.207L48.8451 219.089L73.6088 243.869C72.4148 247.467 71.7635 251.297 71.7635 255.298C71.7635 264.323 75.0199 272.852 80.9743 279.536L63.4056 297.121C56.9704 291.368 48.4729 287.847 39.1691 287.847C35.1064 287.847 31.1368 288.53 27.3843 289.801L2.79115 265.207V265.207ZM71.6705 294.314V307.898C70.1819 304.967 68.3366 302.254 66.1502 299.85L71.6705 294.314ZM60.6299 299.881L49.0467 311.48L30.4855 292.918C33.2767 292.159 36.1919 291.724 39.1536 291.724C47.3875 291.724 54.8926 294.826 60.6299 299.881V299.881ZM6.60572 324.32C6.60572 315.621 10.0016 307.433 16.1421 301.277C19.1349 298.268 22.6238 295.942 26.4074 294.33L49.0467 316.97L63.3746 302.626C68.3521 308.177 71.4534 315.45 71.6705 323.437V325.204C71.4534 333.206 68.3521 340.479 63.3591 346.046L49.0157 331.702L26.4384 354.311C14.7931 349.349 6.60572 337.781 6.60572 324.32V324.32ZM71.655 340.743V354.373L66.1037 348.822C68.3056 346.403 70.1664 343.689 71.655 340.743V340.743ZM60.5834 348.775C54.8461 353.831 47.3565 356.917 39.1381 356.917C36.1454 356.917 33.2612 356.467 30.5166 355.707L49.0002 337.176L60.5834 348.775ZM73.5002 404.88L48.8141 429.614L2.79115 383.511L27.4308 358.824C31.1213 360.096 35.0599 360.793 39.1691 360.793C48.4574 360.793 56.9394 357.289 63.3746 351.551L80.9433 369.136C75.2059 375.587 71.686 384.101 71.686 393.405C71.686 397.359 72.3217 401.221 73.5312 404.88H73.5002ZM75.5316 393.405C75.5316 385.171 78.6328 377.65 83.6879 371.912L95.0541 383.294L76.648 401.732C75.9347 399.05 75.5316 396.258 75.5316 393.405V393.405ZM108.095 425.986H108.079C99.3959 425.986 91.224 422.605 85.068 416.449C81.9977 413.363 79.6097 409.781 77.9971 405.873L100.528 383.294L86.417 369.152C91.7978 364.314 98.7911 361.259 106.498 360.886H109.894C117.275 361.29 124.191 364.143 129.711 369.074L115.507 383.294L138.115 405.95C133.2 417.705 121.601 425.986 108.095 425.986V425.986ZM139.495 401.841L120.981 383.294L132.44 371.819C137.728 377.789 140.643 385.357 140.643 393.39C140.643 396.32 140.224 399.143 139.495 401.841V401.841ZM167.205 429.614L142.628 404.973C143.853 401.345 144.519 397.452 144.519 393.39C144.519 384.318 141.232 375.742 135.216 369.043L152.753 351.489C159.204 357.304 167.748 360.855 177.098 360.855C181.161 360.855 185.084 360.173 188.744 358.933L213.259 383.511L167.205 429.614V429.614ZM192.636 357.351C204.979 351.505 213.523 338.928 213.523 324.383C213.523 309.837 204.948 297.214 192.589 291.383L216.019 267.936L239.48 291.399C227.215 297.276 218.717 309.821 218.717 324.32C218.717 338.82 227.215 351.381 239.496 357.242L216.019 380.782L192.636 357.351V357.351ZM289.489 404.88L264.802 429.614L218.748 383.511L243.373 358.824C247.063 360.096 251.017 360.793 255.126 360.793C264.415 360.793 272.897 357.289 279.332 351.551L296.901 369.152C291.148 375.587 287.643 384.101 287.643 393.405C287.643 397.359 288.279 401.221 289.489 404.88V404.88ZM291.52 393.405C291.52 385.171 294.621 377.65 299.661 371.912L311.042 383.294L292.636 401.732C291.923 399.05 291.52 396.258 291.52 393.405V393.405ZM324.068 425.986C315.384 425.986 307.197 422.605 301.056 416.449C297.986 413.363 295.598 409.781 293.985 405.873L316.516 383.294L302.39 369.152C307.786 364.329 314.779 361.274 322.471 360.886H325.882C333.263 361.305 340.179 364.143 345.684 369.074L331.48 383.294L354.104 405.95C349.188 417.705 337.574 425.986 324.068 425.986ZM355.484 401.841L336.969 383.294L348.428 371.819C353.716 377.789 356.631 385.357 356.631 393.39C356.631 396.32 356.212 399.143 355.484 401.841V401.841ZM429.232 383.511L383.178 429.614L358.6 404.989C359.81 401.345 360.492 397.452 360.492 393.39C360.492 384.318 357.205 375.742 351.173 369.043L368.726 351.489C375.177 357.304 383.721 360.855 393.071 360.855C397.134 360.855 401.057 360.173 404.701 358.933L429.232 383.511V383.511ZM360.368 354.373V340.401C361.857 343.441 363.764 346.248 365.997 348.744L360.368 354.373ZM371.502 348.713L383.023 337.176L401.6 355.8C398.886 356.544 396.033 356.979 393.087 356.979C384.806 356.979 377.255 353.831 371.502 348.713V348.713ZM425.635 324.383C425.635 337.874 417.401 349.473 405.709 354.42L383.023 331.702L368.757 345.969C363.656 340.215 360.523 332.663 360.523 324.383C360.523 316.102 363.671 308.519 368.788 302.765L382.992 316.97L405.631 294.314C417.37 299.245 425.635 310.86 425.635 324.383ZM360.384 308.364V294.33L366.044 299.99C363.795 302.486 361.888 305.309 360.384 308.364ZM371.548 300.021C377.301 294.919 384.837 291.786 393.102 291.786C396.017 291.786 398.84 292.221 401.538 292.949L383.008 311.48L371.548 300.021V300.021ZM429.263 265.207L404.654 289.817C401.01 288.592 397.134 287.91 393.087 287.91C383.752 287.91 375.223 291.445 368.773 297.26L351.204 279.675C357.034 273.209 360.585 264.664 360.585 255.298C360.585 251.266 359.919 247.343 358.678 243.636L383.209 219.104L429.263 265.207ZM429.248 167.496L383.194 213.614L358.616 188.974C359.825 185.329 360.508 181.437 360.508 177.39C360.508 168.318 357.22 159.742 351.188 153.043L368.742 135.474C375.192 141.289 383.736 144.84 393.087 144.84C397.149 144.84 401.072 144.158 404.716 142.917L429.248 167.496V167.496ZM360.384 138.373V124.401C361.872 127.441 363.78 130.232 366.013 132.729L360.384 138.373ZM371.517 132.713L383.039 121.176L401.615 139.8C398.902 140.544 396.048 140.963 393.102 140.963C384.822 140.963 377.27 137.831 371.517 132.713ZM425.65 108.383C425.65 121.874 417.416 133.473 405.724 138.42L383.039 115.686L368.773 129.969C363.671 124.215 360.539 116.663 360.539 108.383C360.539 100.102 363.687 92.5186 368.804 86.7499L383.008 100.955L405.647 78.314C417.385 83.2453 425.65 94.8602 425.65 108.383ZM360.399 92.3481V78.314L366.059 83.9897C363.811 86.4863 361.903 89.2931 360.399 92.3481ZM371.564 84.0052C377.317 78.9033 384.853 75.7863 393.118 75.7863C396.033 75.7863 398.855 76.205 401.553 76.9339L383.023 95.4805L371.564 84.0052V84.0052ZM404.685 73.8014C401.041 72.5764 397.165 71.9095 393.118 71.9095C383.783 71.9095 375.254 75.4452 368.804 81.2449L351.235 63.6597C357.065 57.2087 360.616 48.6487 360.616 39.2824C360.616 35.2505 359.95 31.3272 358.709 27.6209L383.24 3.08853L429.294 49.1915L404.685 73.8014Z" fill="#F6F6F4"/>
<path d="M863.954 46.4467L817.931 0.34375H812.441L789.089 23.6976C787.321 19.9604 784.902 16.5178 781.894 13.4939C775.009 6.60866 765.86 2.8094 756.138 2.8094H756.122C741.515 2.8094 728.893 11.4779 723.094 23.9302L699.524 0.34375H694.035L647.981 46.4467L601.958 0.34375H596.469L573.116 23.6976C571.348 19.9604 568.929 16.5178 565.921 13.4939C559.036 6.60866 549.887 2.8094 540.165 2.8094H540.149C525.542 2.8094 512.936 11.4779 507.121 23.9302L483.551 0.34375H478.062L431.961 46.4932V51.8897L455.454 75.3832C451.763 77.151 448.352 79.5391 445.374 82.532C438.49 89.4172 434.706 98.5664 434.706 108.305C434.706 122.82 443.219 135.365 455.485 141.242L431.961 164.813V170.179L478.077 216.344L431.961 262.509V267.905L455.454 291.383C451.763 293.151 448.352 295.555 445.374 298.532C438.49 305.417 434.706 314.582 434.706 324.32C434.706 338.82 443.219 351.381 455.485 357.242L431.961 380.829V386.194L478.046 432.344H483.567L507.043 408.819C508.827 412.619 511.261 416.123 514.316 419.194C521.201 426.079 530.349 429.863 540.072 429.863H540.087C554.632 429.863 567.224 421.272 573.054 408.897L596.438 432.344H601.958L648.012 386.241L694.05 432.344H699.57L723.047 408.819C724.83 412.619 727.265 416.123 730.32 419.194C737.204 426.079 746.353 429.863 756.076 429.863C763.348 429.863 770.14 427.723 775.831 424.016C781.522 420.326 786.127 415.084 789.042 408.897L812.441 432.344H817.962L864 386.241V380.782L840.632 357.351C852.975 351.505 861.519 338.928 861.519 324.383C861.519 309.837 852.944 297.214 840.57 291.383L864 267.952V262.462L817.946 216.359L864 170.225V164.767L840.632 141.351C852.975 135.505 861.519 122.913 861.519 108.383C861.519 93.8522 852.944 81.2139 840.57 75.3677L864 51.9363V46.4467H863.954ZM788.686 39.2824C788.686 47.5787 785.538 55.1462 780.421 60.8994L768.899 49.3776L787.523 30.7534C788.267 33.4982 788.686 36.3515 788.686 39.2824ZM758.479 357.025C757.673 356.963 756.867 356.932 756.06 356.932C755.254 356.932 754.51 356.963 753.75 357.01L723.497 356.963V326.15C723.528 325.546 723.543 324.941 723.543 324.32C723.543 323.7 723.528 323.111 723.497 322.506V291.755L788.453 291.864V357.072L758.464 357.025H758.479ZM785.786 360.948L780.436 366.299C778.064 364.159 775.443 362.36 772.652 360.917L785.786 360.948V360.948ZM739.639 360.855C736.708 362.344 734.01 364.205 731.607 366.392L726.071 360.84H739.639V360.855ZM711.293 346.062L696.965 331.717L674.388 354.327C662.743 349.365 654.555 337.796 654.555 324.336C654.555 310.876 662.727 299.323 674.357 294.345L696.996 316.986L711.324 302.641C716.302 308.193 719.388 315.45 719.62 323.421V325.251C719.388 333.237 716.286 340.51 711.293 346.062ZM719.62 340.774V354.389L714.069 348.837C716.255 346.418 718.132 343.704 719.62 340.774ZM708.549 348.806C702.811 353.846 695.322 356.932 687.103 356.932C684.111 356.932 681.226 356.482 678.466 355.723L696.965 337.191L708.549 348.806V348.806ZM678.451 292.949C681.211 292.19 684.111 291.74 687.103 291.74C695.337 291.74 702.842 294.841 708.58 299.897L696.996 311.496L678.451 292.949V292.949ZM714.1 299.866L719.62 294.345V307.914C718.132 304.983 716.271 302.269 714.1 299.866ZM711.34 297.136C704.905 291.383 696.407 287.863 687.103 287.863C682.994 287.863 679.025 288.561 675.334 289.832L650.725 265.222L696.779 219.12L721.543 243.885C720.349 247.482 719.698 251.312 719.698 255.313C719.698 264.339 722.954 272.868 728.909 279.551L711.34 297.136V297.136ZM599.012 331.717L584.746 345.984C579.644 340.231 576.527 332.679 576.527 324.398C576.527 316.117 579.66 308.534 584.777 302.781L598.981 316.986L621.62 294.33C633.358 299.261 641.623 310.876 641.623 324.398C641.623 337.92 633.389 349.489 621.697 354.435L599.012 331.717ZM617.588 355.816C614.875 356.56 612.021 356.994 609.075 356.994C600.795 356.994 593.243 353.846 587.49 348.729L599.012 337.191L617.588 355.816V355.816ZM581.986 348.76L576.357 354.389V340.417C577.845 343.456 579.753 346.263 581.986 348.76ZM576.357 308.379V294.345L582.017 300.005C579.768 302.502 577.861 305.324 576.357 308.379ZM587.521 300.036C593.274 294.934 600.81 291.802 609.075 291.802C611.99 291.802 614.813 292.236 617.511 292.965L598.981 311.496L587.521 300.036ZM620.643 289.832C617.015 288.607 613.122 287.925 609.075 287.925C599.74 287.925 591.212 291.461 584.761 297.26L567.208 279.691C573.023 273.224 576.574 264.68 576.574 255.313C576.574 251.281 575.907 247.358 574.667 243.652L599.198 219.104L645.252 265.222L620.643 289.832ZM542.506 357.041C541.7 356.979 540.894 356.948 540.087 356.948C539.281 356.948 538.552 356.979 537.792 357.025L507.524 356.963V326.104C507.555 325.515 507.57 324.925 507.57 324.336C507.57 323.747 507.555 323.157 507.524 322.584V291.771L572.48 291.879V357.087L542.491 357.041H542.506ZM569.813 360.964L564.463 366.314C562.091 364.174 559.47 362.375 556.679 360.933L569.813 360.964V360.964ZM523.666 360.871C520.751 362.36 518.037 364.221 515.634 366.407L510.098 360.855H523.666V360.871ZM507.524 106.584V75.7708L572.48 75.8949V141.103L542.506 141.041C541.7 140.994 540.894 140.948 540.072 140.948C539.297 140.948 538.521 140.979 537.761 141.041L507.508 140.979V110.104C507.54 109.53 507.555 108.941 507.555 108.336C507.555 107.731 507.54 107.173 507.508 106.584H507.524ZM510.083 71.894L515.665 66.3114C518.146 68.5755 520.89 70.4519 523.821 71.925L510.083 71.894V71.894ZM556.323 71.9871C559.284 70.4984 562.029 68.6375 564.479 66.4355L570.046 72.0026H556.323V71.9871ZM598.996 100.97L621.635 78.3295C633.374 83.2608 641.639 94.8757 641.639 108.398C641.639 121.92 633.405 133.489 621.713 138.435L599.027 115.702L584.761 129.984C579.66 124.215 576.543 116.679 576.543 108.383C576.543 100.086 579.675 92.5341 584.792 86.7655L598.996 100.97ZM587.537 84.0207C593.29 78.9188 600.826 75.8019 609.091 75.8019C612.006 75.8019 614.828 76.2206 617.526 76.9494L598.996 95.496L587.537 84.0207V84.0207ZM617.604 139.816C614.89 140.544 612.037 140.979 609.091 140.979C600.81 140.979 593.259 137.846 587.506 132.729L599.027 121.191L617.604 139.816ZM576.372 92.3636V78.3295L582.032 84.0052C579.784 86.5018 577.876 89.3086 576.372 92.3636V92.3636ZM582.001 132.744L576.372 138.389V124.401C577.861 127.456 579.768 130.248 582.001 132.744ZM584.746 135.489C591.196 141.304 599.74 144.855 609.091 144.855C613.153 144.855 617.077 144.173 620.736 142.933L645.252 167.512L599.198 213.63L574.62 188.989C575.845 185.345 576.512 181.453 576.512 177.405C576.512 168.318 573.225 159.758 567.208 153.059L584.746 135.489V135.489ZM561.703 153.074L547.499 167.294L570.108 189.966C565.192 201.72 553.593 210.001 540.087 210.001C531.388 210.001 523.216 206.605 517.06 200.449C513.99 197.378 511.602 193.781 509.99 189.873L532.52 167.294L518.409 153.167C523.79 148.329 530.784 145.274 538.475 144.902H541.902C549.283 145.305 556.183 148.159 561.703 153.074V153.074ZM556.679 144.933H569.813L564.463 150.314C562.091 148.159 559.47 146.36 556.679 144.933V144.933ZM552.973 167.294L564.432 155.819C569.72 161.789 572.635 169.357 572.635 177.405C572.635 180.336 572.217 183.158 571.488 185.857L552.973 167.294ZM523.666 144.871C520.735 146.36 518.037 148.205 515.634 150.392L510.098 144.84L523.666 144.871ZM515.68 155.912L527.047 167.294L508.64 185.748C507.927 183.05 507.524 180.258 507.524 177.405C507.524 169.171 510.625 161.665 515.68 155.912V155.912ZM514.316 203.194C521.201 210.079 530.349 213.878 540.087 213.878C554.632 213.878 567.224 205.287 573.054 192.897L596.469 216.375L573.116 239.729C571.348 235.991 568.929 232.533 565.921 229.525C559.036 222.64 549.887 218.84 540.149 218.84C525.542 218.84 512.936 227.493 507.121 239.946L483.551 216.375L507.043 192.819C508.827 196.634 511.261 200.139 514.316 203.194V203.194ZM564.479 282.435L570.046 288.003L556.323 287.972C559.284 286.498 562.029 284.622 564.479 282.435V282.435ZM540.149 287.894C536.087 287.894 532.164 287.15 528.489 285.739C524.829 284.312 521.418 282.218 518.44 279.536L532.567 265.393L510.067 242.892C514.952 231.076 526.597 222.717 540.149 222.717C548.848 222.717 557.02 226.098 563.176 232.254C566.2 235.294 568.557 238.829 570.17 242.675L547.453 265.393L561.703 279.66C555.966 284.777 548.43 287.894 540.149 287.894V287.894ZM564.448 276.915L552.942 265.393L571.55 246.769C572.294 249.529 572.713 252.382 572.713 255.313C572.713 263.61 569.565 271.162 564.448 276.915ZM508.702 247.017L527.078 265.393L515.711 276.775C510.486 270.836 507.602 263.3 507.602 255.313C507.602 252.445 508.005 249.669 508.702 247.017ZM523.821 287.91H510.083L515.665 282.311C518.146 284.575 520.89 286.436 523.821 287.91ZM601.927 216.375L647.996 170.241L694.05 216.375L647.996 262.478L601.927 216.375ZM696.996 100.97L711.324 86.6259C716.302 92.1775 719.388 99.4349 719.62 107.421V109.235C719.388 117.237 716.286 124.495 711.293 130.062L696.965 115.702L674.388 138.327C662.743 133.349 654.555 121.781 654.555 108.32C654.555 94.8602 662.727 83.3229 674.373 78.345L696.996 100.97V100.97ZM678.451 76.9494C681.211 76.174 684.111 75.7398 687.103 75.7398C695.337 75.7398 702.842 78.8413 708.58 83.8966L696.996 95.496L678.451 76.9494ZM714.1 83.8656L719.62 78.3295V91.8983C718.132 88.9675 716.271 86.2692 714.1 83.8656ZM719.62 124.758V138.389L714.069 132.837C716.255 130.418 718.132 127.705 719.62 124.758V124.758ZM708.549 132.791C702.811 137.831 695.322 140.917 687.103 140.917C684.111 140.917 681.226 140.482 678.466 139.723L696.965 121.191L708.549 132.791V132.791ZM675.365 142.84C679.04 144.096 682.994 144.793 687.103 144.793C696.392 144.793 704.874 141.304 711.309 135.551L728.878 153.152C723.125 159.603 719.62 168.101 719.62 177.405C719.62 181.375 720.256 185.236 721.465 188.896L696.779 213.63L650.725 167.512L675.365 142.84V142.84ZM748.478 167.294L734.367 153.167C739.747 148.329 746.725 145.274 754.432 144.902H757.859C765.224 145.305 772.14 148.159 777.645 153.074L763.441 167.294L786.065 189.966C781.15 201.72 769.535 210.001 756.029 210.001C747.346 210.001 739.158 206.605 733.018 200.449C729.947 197.378 727.559 193.781 725.947 189.873L748.478 167.294V167.294ZM724.598 185.748C723.884 183.05 723.481 180.258 723.481 177.405C723.481 169.171 726.583 161.665 731.622 155.912L743.004 167.294L724.598 185.748V185.748ZM731.591 150.392L726.055 144.84L739.623 144.871C736.693 146.36 733.995 148.205 731.591 150.392ZM734.382 279.536L748.524 265.393L726.024 242.892C730.909 231.06 742.554 222.717 756.107 222.717H756.122C764.806 222.717 772.978 226.113 779.134 232.254C782.157 235.294 784.514 238.829 786.127 242.675L763.41 265.393L777.661 279.66C771.923 284.777 764.372 287.894 756.107 287.894C752.044 287.894 748.121 287.15 744.446 285.739C740.786 284.312 737.375 282.218 734.382 279.536V279.536ZM739.778 287.91H726.04L731.622 282.311C734.103 284.575 736.848 286.436 739.778 287.91ZM743.035 265.393L731.669 276.775C726.443 270.836 723.559 263.3 723.559 255.313C723.559 252.445 723.962 249.669 724.66 247.017L743.035 265.393ZM772.28 287.972C775.242 286.498 777.986 284.622 780.436 282.435L785.988 288.003L772.28 287.972ZM780.405 276.93L768.884 265.393L787.507 246.769C788.251 249.529 788.67 252.382 788.67 255.313C788.67 263.61 785.522 271.162 780.405 276.93ZM781.878 229.525C774.994 222.64 765.845 218.84 756.122 218.84H756.107C741.5 218.84 728.878 227.493 723.078 239.946L699.508 216.375L723.001 192.819C724.784 196.634 727.218 200.139 730.273 203.194C737.158 210.079 746.307 213.878 756.029 213.878C770.59 213.878 783.165 205.287 788.996 192.897L812.426 216.375L789.073 239.729C787.306 235.991 784.887 232.533 781.878 229.525V229.525ZM787.445 185.857L768.931 167.294L780.39 155.819C785.677 161.789 788.593 169.357 788.593 177.405C788.593 180.336 788.174 183.158 787.445 185.857ZM772.637 144.933H785.77L780.421 150.314C778.048 148.159 775.428 146.36 772.637 144.933V144.933ZM758.479 141.025C757.673 140.979 756.851 140.932 756.045 140.932C755.238 140.932 754.494 140.963 753.734 141.025L723.481 140.963V110.15C723.512 109.546 723.528 108.941 723.528 108.32C723.528 107.7 723.512 107.111 723.481 106.506V75.7553L788.438 75.8794V141.087L758.464 141.025H758.479ZM726.04 71.8785L731.622 66.2959C734.103 68.56 736.848 70.4364 739.778 71.9095L726.04 71.8785V71.8785ZM772.28 71.9716C775.242 70.4829 777.986 68.622 780.436 66.42L785.988 71.9871H772.28V71.9716ZM756.107 6.6862H756.122C764.806 6.6862 772.978 10.0823 779.134 16.2386C782.157 19.2781 784.514 22.7982 786.127 26.644L763.41 49.3776L777.661 63.6442C771.908 68.7461 764.372 71.8785 756.107 71.8785C747.842 71.8785 740.368 68.9011 734.382 63.5201L748.524 49.3776L726.024 26.8766C730.909 15.0446 742.554 6.70171 756.107 6.6862V6.6862ZM724.66 31.0015L743.035 49.3776L731.669 60.7599C726.443 54.8051 723.559 47.2841 723.559 39.2824C723.559 36.4135 723.962 33.6532 724.66 31.0015V31.0015ZM696.795 3.08853L721.558 27.8535C720.365 31.4512 719.713 35.297 719.713 39.2824C719.713 48.3231 722.97 56.8365 728.924 63.5201L711.355 81.1208C704.92 75.3521 696.423 71.8475 687.119 71.8475C683.01 71.8475 679.04 72.5453 675.35 73.8169L650.741 49.1915L696.795 3.08853ZM671.457 75.3987C659.192 81.2759 650.694 93.8212 650.694 108.305C650.694 122.789 659.192 135.365 671.473 141.242L647.996 164.767L624.613 141.351C636.956 135.505 645.5 122.913 645.5 108.383C645.5 93.8522 636.925 81.2139 624.566 75.3677L647.996 51.9363L671.457 75.3987V75.3987ZM574.682 27.6209L599.213 3.08853L645.267 49.1915L620.659 73.8014C617.03 72.5764 613.138 71.9095 609.091 71.9095C599.756 71.9095 591.227 75.4452 584.777 81.2449L567.208 63.6597C573.038 57.1932 576.589 48.6487 576.589 39.2824C576.589 35.2505 575.923 31.3272 574.682 27.6209V27.6209ZM572.713 39.2824C572.713 47.5787 569.565 55.1307 564.448 60.8994L552.942 49.3776L571.55 30.7534C572.294 33.4982 572.713 36.3515 572.713 39.2824ZM540.149 6.6862H540.165C548.848 6.6862 557.02 10.0823 563.176 16.2386C566.2 19.2781 568.557 22.7982 570.17 26.644L547.453 49.3776L561.703 63.6442C555.966 68.7461 548.43 71.8785 540.149 71.8785C531.869 71.8785 524.41 68.9011 518.44 63.5046L532.567 49.3776L510.067 26.8766C514.952 15.0446 526.597 6.6862 540.149 6.6862V6.6862ZM508.702 31.0015L527.078 49.3776L515.711 60.7599C510.486 54.8051 507.602 47.2841 507.602 39.2824C507.602 36.4135 508.005 33.6532 508.702 31.0015ZM434.768 49.1915L480.822 3.08853L505.586 27.8535C504.392 31.4512 503.74 35.297 503.74 39.2824C503.74 48.3231 506.997 56.8365 512.951 63.5201L495.382 81.1208C488.947 75.3521 480.45 71.8475 471.146 71.8475C467.083 71.8475 463.114 72.5143 459.361 73.8014L434.768 49.1915V49.1915ZM503.647 78.314V91.8828C502.159 88.952 500.314 86.2537 498.127 83.8346L503.647 78.314ZM492.607 83.8811L481.024 95.4805L462.462 76.9184C465.254 76.143 468.169 75.7243 471.131 75.7243C479.364 75.7243 486.869 78.8103 492.607 83.8811V83.8811ZM438.583 108.305C438.583 99.6054 441.979 91.4176 448.119 85.2613C451.112 82.2684 454.601 79.9268 458.384 78.314L481.024 100.955L495.352 86.6104C500.329 92.1775 503.43 99.4348 503.647 107.437V109.189C503.43 117.206 500.329 124.479 495.336 130.046L480.993 115.686L458.415 138.311C446.77 133.334 438.583 121.765 438.583 108.305ZM503.632 124.743V138.373L498.081 132.822C500.282 130.403 502.143 127.673 503.632 124.743ZM492.56 132.775C486.823 137.815 479.333 140.901 471.115 140.901C468.122 140.901 465.238 140.467 462.493 139.707L480.977 121.176L492.56 132.775V132.775ZM434.753 167.496L459.392 142.824C463.083 144.08 467.021 144.778 471.131 144.778C480.419 144.778 488.901 141.289 495.336 135.536L512.905 153.136C507.167 159.587 503.647 168.085 503.647 177.39C503.647 181.359 504.283 185.221 505.493 188.88L480.807 213.614L434.753 167.496V167.496ZM434.753 265.207L480.807 219.089L505.57 243.869C504.376 247.467 503.725 251.297 503.725 255.298C503.725 264.323 506.981 272.852 512.936 279.536L495.367 297.121C488.932 291.368 480.434 287.847 471.131 287.847C467.068 287.847 463.098 288.53 459.346 289.801L434.753 265.207ZM503.632 294.314V307.898C502.143 304.967 500.298 302.254 498.112 299.85L503.632 294.314ZM492.591 299.881L481.008 311.48L462.447 292.918C465.238 292.159 468.153 291.724 471.115 291.724C479.349 291.724 486.854 294.826 492.591 299.881V299.881ZM438.567 324.32C438.567 315.621 441.963 307.433 448.104 301.277C451.096 298.268 454.585 295.942 458.369 294.33L481.008 316.97L495.336 302.626C500.314 308.177 503.415 315.45 503.632 323.437V325.204C503.415 333.206 500.314 340.479 495.32 346.046L480.977 331.702L458.4 354.311C446.754 349.349 438.567 337.781 438.567 324.32V324.32ZM503.616 340.743V354.373L498.065 348.822C500.267 346.403 502.128 343.689 503.616 340.743V340.743ZM492.545 348.775C486.807 353.831 479.318 356.917 471.1 356.917C468.107 356.917 465.223 356.467 462.478 355.707L480.962 337.176L492.545 348.775V348.775ZM505.462 404.88L480.775 429.614L434.722 383.511L459.361 358.824C463.052 360.096 466.99 360.793 471.1 360.793C480.388 360.793 488.87 357.289 495.305 351.551L512.874 369.136C507.136 375.587 503.616 384.101 503.616 393.405C503.616 397.359 504.252 401.221 505.462 404.88V404.88ZM507.493 393.405C507.493 385.171 510.594 377.65 515.649 371.912L527.015 383.294L508.609 401.732C507.896 399.05 507.493 396.258 507.493 393.405V393.405ZM540.056 425.986H540.041C531.357 425.986 523.185 422.605 517.029 416.449C513.959 413.363 511.571 409.781 509.958 405.873L532.489 383.294L518.378 369.152C523.759 364.314 530.753 361.259 538.459 360.886H541.855C549.236 361.29 556.152 364.143 561.672 369.074L547.468 383.294L570.077 405.95C565.161 417.705 553.562 425.986 540.056 425.986V425.986ZM571.457 401.841L552.942 383.294L564.401 371.819C569.689 377.789 572.604 385.357 572.604 393.39C572.604 396.32 572.186 399.143 571.457 401.841ZM599.167 429.614L574.589 404.973C575.814 401.345 576.481 397.452 576.481 393.39C576.481 384.318 573.193 375.742 567.177 369.043L584.715 351.489C591.165 357.304 599.709 360.855 609.06 360.855C613.122 360.855 617.046 360.173 620.705 358.933L645.221 383.511L599.167 429.614ZM624.597 357.351C636.94 351.505 645.484 338.928 645.484 324.383C645.484 309.837 636.909 297.214 624.551 291.383L647.981 267.936L671.442 291.399C659.176 297.276 650.679 309.821 650.679 324.32C650.679 338.82 659.176 351.381 671.457 357.242L647.981 380.782L624.597 357.351V357.351ZM721.45 404.88L696.764 429.614L650.71 383.511L675.334 358.824C679.025 360.096 682.979 360.793 687.088 360.793C696.376 360.793 704.858 357.289 711.293 351.551L728.862 369.152C723.109 375.587 719.605 384.101 719.605 393.405C719.605 397.359 720.24 401.221 721.45 404.88V404.88ZM723.481 393.405C723.481 385.171 726.583 377.65 731.622 371.912L743.004 383.294L724.598 401.732C723.884 399.05 723.481 396.258 723.481 393.405V393.405ZM756.029 425.986C747.346 425.986 739.158 422.605 733.018 416.449C729.947 413.363 727.559 409.781 725.947 405.873L748.478 383.294L734.351 369.152C739.747 364.329 746.741 361.274 754.432 360.886H757.843C765.224 361.305 772.14 364.143 777.645 369.074L763.441 383.294L786.065 405.95C781.15 417.705 769.535 425.986 756.029 425.986V425.986ZM787.445 401.841L768.931 383.294L780.39 371.819C785.677 377.789 788.593 385.357 788.593 393.39C788.593 396.32 788.174 399.143 787.445 401.841ZM861.193 383.511L815.139 429.614L790.562 404.989C791.771 401.345 792.454 397.452 792.454 393.39C792.454 384.318 789.166 375.742 783.134 369.043L800.688 351.489C807.138 357.304 815.682 360.855 825.033 360.855C829.095 360.855 833.018 360.173 836.662 358.933L861.193 383.511V383.511ZM792.33 354.373V340.401C793.818 343.441 795.725 346.248 797.958 348.744L792.33 354.373ZM803.463 348.713L814.984 337.176L833.561 355.8C830.847 356.544 827.994 356.979 825.048 356.979C816.768 356.979 809.216 353.831 803.463 348.713V348.713ZM857.596 324.383C857.596 337.874 849.362 349.473 837.67 354.42L814.984 331.702L800.719 345.969C795.617 340.215 792.485 332.663 792.485 324.383C792.485 316.102 795.633 308.519 800.75 302.765L814.953 316.97L837.593 294.314C849.331 299.245 857.596 310.86 857.596 324.383V324.383ZM792.345 308.364V294.33L798.005 299.99C795.757 302.486 793.849 305.309 792.345 308.364V308.364ZM803.51 300.021C809.263 294.919 816.799 291.786 825.064 291.786C827.979 291.786 830.801 292.221 833.499 292.949L814.969 311.48L803.51 300.021ZM861.224 265.207L836.616 289.817C832.972 288.592 829.095 287.91 825.048 287.91C815.713 287.91 807.185 291.445 800.734 297.26L783.165 279.675C788.996 273.209 792.547 264.664 792.547 255.298C792.547 251.266 791.88 247.343 790.639 243.636L815.171 219.104L861.224 265.207V265.207ZM861.209 167.496L815.155 213.614L790.577 188.974C791.787 185.329 792.469 181.437 792.469 177.39C792.469 168.318 789.182 159.742 783.15 153.043L800.703 135.474C807.154 141.289 815.698 144.84 825.048 144.84C829.111 144.84 833.034 144.158 836.678 142.917L861.209 167.496V167.496ZM792.345 138.373V124.401C793.834 127.441 795.741 130.232 797.974 132.729L792.345 138.373ZM803.479 132.713L815 121.176L833.577 139.8C830.863 140.544 828.01 140.963 825.064 140.963C816.783 140.963 809.232 137.831 803.479 132.713ZM857.611 108.383C857.611 121.874 849.378 133.473 837.686 138.42L815 115.686L800.734 129.969C795.633 124.215 792.5 116.663 792.5 108.383C792.5 100.102 795.648 92.5186 800.765 86.7499L814.969 100.955L837.608 78.314C849.347 83.2453 857.611 94.8602 857.611 108.383V108.383ZM792.361 92.3481V78.314L798.02 83.9897C795.772 86.4863 793.865 89.2931 792.361 92.3481V92.3481ZM803.525 84.0052C809.278 78.9033 816.814 75.7863 825.079 75.7863C827.994 75.7863 830.816 76.205 833.515 76.9339L814.984 95.4805L803.525 84.0052V84.0052ZM836.647 73.8014C833.003 72.5764 829.126 71.9095 825.079 71.9095C815.744 71.9095 807.216 75.4452 800.765 81.2449L783.196 63.6597C789.027 57.2087 792.578 48.6487 792.578 39.2824C792.578 35.2505 791.911 31.3272 790.67 27.6209L815.201 3.08853L861.255 49.1915L836.647 73.8014V73.8014Z" fill="#F6F6F4"/>
<path d="M431.977 478.447L385.938 432.344H380.449L357.096 455.698C355.329 451.96 352.91 448.518 349.901 445.494C343.017 438.609 333.868 434.809 324.145 434.809H324.13C309.523 434.809 296.901 443.478 291.101 455.93L267.532 432.344H262.042L215.988 478.447L169.934 432.344H164.445L141.093 455.698C139.325 451.96 136.906 448.518 133.898 445.494C127.013 438.609 117.864 434.809 108.141 434.809H108.126C93.519 434.809 80.9123 443.478 75.0974 455.93L51.5277 432.344H46.0384L0 478.493V483.89L23.4922 507.383C19.8016 509.151 16.3902 511.539 13.413 514.532C6.52818 521.417 2.74463 530.566 2.74463 540.305C2.74463 554.82 11.2576 567.365 23.5232 573.242L0 596.813V602.179L46.116 648.344L0 694.509V699.905L23.4922 723.383C19.8016 725.151 16.3902 727.555 13.413 730.532C6.52818 737.417 2.74463 746.582 2.74463 756.32C2.74463 770.82 11.2576 783.381 23.5232 789.242L0 812.829V818.194L46.085 864.344H51.6052L75.0819 840.819C76.8651 844.619 79.2996 848.123 82.3544 851.194C89.2392 858.079 98.388 861.863 108.11 861.863H108.126C122.671 861.863 135.262 853.272 141.093 840.897L164.476 864.344H169.996L216.05 818.241L262.089 864.344H267.609L291.086 840.819C292.869 844.619 295.303 848.123 298.358 851.194C305.243 858.079 314.392 861.863 324.114 861.863C331.387 861.863 338.179 859.723 343.869 856.016C349.56 852.326 354.166 847.084 357.081 840.897L380.48 864.344H386L432.039 818.241V812.782L408.671 789.351C421.014 783.505 429.558 770.928 429.558 756.383C429.558 741.837 420.983 729.214 408.609 723.383L432.039 699.952V694.462L385.985 648.359L432.039 602.225V596.767L408.671 573.351C421.014 567.505 429.558 554.913 429.558 540.383C429.558 525.852 420.983 513.214 408.609 507.368L432.039 483.936V478.447H431.977ZM356.709 471.282C356.709 479.579 353.561 487.146 348.444 492.899L336.923 481.378L355.546 462.753C356.29 465.498 356.709 468.352 356.709 471.282V471.282ZM326.502 789.025C325.696 788.963 324.89 788.932 324.083 788.932C323.277 788.932 322.533 788.963 321.773 789.01L291.52 788.963V758.15C291.551 757.546 291.566 756.941 291.566 756.32C291.566 755.7 291.551 755.111 291.52 754.506V723.755L356.476 723.864V789.072L326.487 789.025H326.502ZM353.809 792.949L348.459 798.299C346.087 796.159 343.466 794.36 340.675 792.918L353.809 792.949ZM307.662 792.855C304.731 794.344 302.033 796.205 299.63 798.392L294.094 792.84H307.662V792.855ZM279.316 778.062L264.988 763.717L242.411 786.327C230.766 781.365 222.579 769.796 222.579 756.336C222.579 742.876 230.75 731.323 242.38 726.345L265.019 748.986L279.347 734.641C284.325 740.193 287.411 747.45 287.643 755.421V757.251C287.411 765.237 284.309 772.51 279.316 778.062V778.062ZM287.643 772.774V786.389L282.092 780.837C284.278 778.418 286.155 775.704 287.643 772.774ZM276.572 780.806C270.834 785.846 263.345 788.932 255.126 788.932C252.134 788.932 249.25 788.482 246.489 787.723L264.988 769.191L276.572 780.806V780.806ZM246.474 724.949C249.234 724.19 252.134 723.74 255.126 723.74C263.36 723.74 270.865 726.841 276.603 731.897L265.019 743.496L246.474 724.949V724.949ZM282.123 731.866L287.643 726.345V739.914C286.155 736.983 284.294 734.269 282.123 731.866ZM279.363 729.136C272.928 723.383 264.43 719.863 255.126 719.863C251.017 719.863 247.048 720.561 243.357 721.832L218.748 697.223L264.802 651.12L289.566 675.885C288.372 679.482 287.721 683.313 287.721 687.313C287.721 696.339 290.977 704.868 296.932 711.551L279.363 729.136V729.136ZM167.035 763.717L152.769 777.984C147.667 772.231 144.55 764.679 144.55 756.398C144.55 748.117 147.683 740.534 152.8 734.781L167.004 748.986L189.643 726.33C201.381 731.261 209.646 742.876 209.646 756.398C209.646 769.92 201.412 781.489 189.721 786.436L167.035 763.717ZM185.611 787.816C182.898 788.56 180.045 788.994 177.098 788.994C168.818 788.994 161.266 785.846 155.513 780.729L167.035 769.191L185.611 787.816ZM150.009 780.76L144.38 786.389V772.417C145.868 775.456 147.776 778.263 150.009 780.76ZM144.38 740.379V726.345L150.04 732.005C147.791 734.502 145.884 737.324 144.38 740.379V740.379ZM155.544 732.036C161.297 726.934 168.833 723.802 177.098 723.802C180.014 723.802 182.836 724.236 185.534 724.965L167.004 743.496L155.544 732.036ZM188.666 721.832C185.038 720.607 181.145 719.925 177.098 719.925C167.763 719.925 159.235 723.461 152.784 729.26L135.231 711.691C141.046 705.224 144.597 696.68 144.597 687.313C144.597 683.282 143.93 679.358 142.69 675.652L167.221 651.104L213.275 697.223L188.666 721.832ZM110.529 789.041C109.723 788.979 108.917 788.948 108.11 788.948C107.304 788.948 106.575 788.979 105.816 789.025L75.5471 788.963V758.104C75.5781 757.515 75.5936 756.925 75.5936 756.336C75.5936 755.747 75.5781 755.157 75.5471 754.584V723.771L140.503 723.879V789.087L110.514 789.041H110.529ZM137.836 792.964L132.486 798.314C130.114 796.174 127.493 794.375 124.702 792.933L137.836 792.964ZM91.6892 792.871C88.774 794.36 86.0604 796.221 83.6569 798.407L78.1211 792.855H91.6892V792.871ZM75.5471 538.584V507.771L140.503 507.895V573.103L110.529 573.041C109.723 572.994 108.917 572.948 108.095 572.948C107.32 572.948 106.544 572.979 105.785 573.041L75.5316 572.979V542.104C75.5626 541.53 75.5781 540.941 75.5781 540.336C75.5781 539.731 75.5626 539.173 75.5316 538.584H75.5471ZM78.1056 503.894L83.6879 498.311C86.1689 500.576 88.9136 502.452 91.8443 503.925L78.1056 503.894ZM124.346 503.987C127.307 502.498 130.052 500.638 132.502 498.436L138.069 504.003H124.346V503.987ZM167.019 532.97L189.658 510.33C201.397 515.261 209.662 526.876 209.662 540.398C209.662 553.92 201.428 565.489 189.736 570.436L167.05 547.702L152.784 561.984C147.683 556.215 144.566 548.679 144.566 540.383C144.566 532.086 147.698 524.534 152.815 518.765L167.019 532.97V532.97ZM155.56 516.021C161.313 510.919 168.849 507.802 177.114 507.802C180.029 507.802 182.851 508.221 185.549 508.949L167.019 527.496L155.56 516.021ZM185.627 571.816C182.913 572.544 180.06 572.979 177.114 572.979C168.833 572.979 161.282 569.846 155.529 564.729L167.05 553.192L185.627 571.816V571.816ZM144.395 524.364V510.33L150.055 516.005C147.807 518.502 145.9 521.309 144.395 524.364ZM150.024 564.744L144.395 570.389V556.401C145.884 559.456 147.791 562.248 150.024 564.744ZM152.769 567.489C159.219 573.304 167.763 576.855 177.114 576.855C181.177 576.855 185.1 576.173 188.759 574.933L213.275 599.512L167.221 645.63L142.643 620.989C143.868 617.345 144.535 613.453 144.535 609.405C144.535 600.318 141.248 591.758 135.231 585.059L152.769 567.489V567.489ZM129.726 585.074L115.523 599.294L138.131 621.966C133.215 633.72 121.617 642.001 108.11 642.001C99.4114 642.001 91.2395 638.605 85.0835 632.449C82.0132 629.378 79.6252 625.781 78.0126 621.873L100.543 599.294L86.4325 585.167C91.8133 580.329 98.8066 577.274 106.498 576.902H109.925C117.306 577.305 124.206 580.159 129.726 585.074V585.074ZM124.702 576.933H137.836L132.486 582.314C130.114 580.159 127.493 578.36 124.702 576.933ZM120.996 599.294L132.455 587.819C137.743 593.789 140.658 601.357 140.658 609.405C140.658 612.336 140.24 615.158 139.511 617.857L120.996 599.294V599.294ZM91.6892 576.871C88.7585 578.36 86.0604 580.205 83.6569 582.392L78.1211 576.84L91.6892 576.871ZM83.7034 587.912L95.0696 599.294L76.6635 617.748C75.9502 615.05 75.5471 612.258 75.5471 609.405C75.5471 601.171 78.6483 593.665 83.7034 587.912V587.912ZM82.3389 635.194C89.2237 642.079 98.3725 645.878 108.11 645.878C122.655 645.878 135.247 637.287 141.077 624.897L164.492 648.375L141.139 671.729C139.371 667.991 136.952 664.533 133.944 661.525C127.059 654.64 117.91 650.84 108.172 650.84C93.5655 650.84 80.9588 659.493 75.1439 671.946L51.5742 648.375L75.0664 624.819C76.8496 628.634 79.2841 632.139 82.3389 635.194V635.194ZM132.502 714.435L138.069 720.003L124.346 719.972C127.307 718.498 130.052 716.622 132.502 714.435V714.435ZM108.172 719.894C104.11 719.894 100.187 719.15 96.5117 717.739C92.8522 716.312 89.4408 714.218 86.4636 711.536L100.59 697.393L78.0901 674.892C82.9746 663.076 94.6199 654.717 108.172 654.717C116.872 654.717 125.043 658.098 131.199 664.254C134.223 667.294 136.58 670.829 138.193 674.675L115.476 697.393L129.726 711.66C123.989 716.777 116.453 719.894 108.172 719.894V719.894ZM132.471 708.915L120.965 697.393L139.573 678.769C140.317 681.529 140.736 684.383 140.736 687.313C140.736 695.61 137.588 703.162 132.471 708.915ZM76.7256 679.017L95.1006 697.393L83.7344 708.775C78.5088 702.836 75.6246 695.3 75.6246 687.313C75.6246 684.445 76.0278 681.669 76.7256 679.017V679.017ZM91.8443 719.91H78.1056L83.6879 714.311C86.1689 716.576 88.9136 718.436 91.8443 719.91ZM169.95 648.375L216.019 602.241L262.073 648.375L216.019 694.478L169.95 648.375ZM265.019 532.97L279.347 518.626C284.325 524.177 287.411 531.435 287.643 539.421V541.235C287.411 549.237 284.309 556.495 279.316 562.062L264.988 547.702L242.411 570.327C230.766 565.349 222.579 553.781 222.579 540.32C222.579 526.86 230.75 515.323 242.396 510.345L265.019 532.97ZM246.474 508.949C249.234 508.174 252.134 507.74 255.126 507.74C263.36 507.74 270.865 510.841 276.603 515.897L265.019 527.496L246.474 508.949V508.949ZM282.123 515.866L287.643 510.33V523.898C286.155 520.967 284.294 518.269 282.123 515.866ZM287.643 556.758V570.389L282.092 564.837C284.278 562.418 286.155 559.705 287.643 556.758V556.758ZM276.572 564.791C270.834 569.831 263.345 572.917 255.126 572.917C252.134 572.917 249.25 572.482 246.489 571.723L264.988 553.192L276.572 564.791V564.791ZM243.388 574.84C247.063 576.096 251.017 576.793 255.126 576.793C264.415 576.793 272.897 573.304 279.332 567.551L296.901 585.152C291.148 591.603 287.643 600.101 287.643 609.405C287.643 613.375 288.279 617.236 289.489 620.896L264.802 645.63L218.748 599.512L243.388 574.84V574.84ZM316.501 599.294L302.39 585.167C307.771 580.329 314.748 577.274 322.455 576.902H325.882C333.248 577.305 340.163 580.159 345.668 585.074L331.464 599.294L354.088 621.966C349.173 633.72 337.558 642.001 324.052 642.001C315.369 642.001 307.181 638.605 301.041 632.449C297.971 629.378 295.583 625.781 293.97 621.873L316.501 599.294ZM292.621 617.748C291.908 615.05 291.504 612.258 291.504 609.405C291.504 601.171 294.606 593.665 299.645 587.912L311.027 599.294L292.621 617.748V617.748ZM299.614 582.392L294.078 576.84L307.647 576.871C304.716 578.36 302.018 580.205 299.614 582.392ZM302.405 711.536L316.547 697.393L294.047 674.892C298.932 663.06 310.577 654.717 324.13 654.717H324.145C332.829 654.717 341.001 658.113 347.157 664.254C350.181 667.294 352.537 670.829 354.15 674.675L331.433 697.393L345.684 711.66C339.946 716.777 332.395 719.894 324.13 719.894C320.067 719.894 316.144 719.15 312.469 717.739C308.809 716.312 305.398 714.218 302.405 711.536V711.536ZM307.802 719.91H294.063L299.645 714.311C302.126 716.576 304.871 718.436 307.802 719.91V719.91ZM311.058 697.393L299.692 708.775C294.466 702.836 291.582 695.3 291.582 687.313C291.582 684.445 291.985 681.669 292.683 679.017L311.058 697.393ZM340.303 719.972C343.265 718.498 346.009 716.622 348.459 714.435L354.011 720.003L340.303 719.972ZM348.428 708.93L336.907 697.393L355.53 678.769C356.275 681.529 356.693 684.383 356.693 687.313C356.693 695.61 353.545 703.162 348.428 708.93V708.93ZM349.901 661.525C343.017 654.64 333.868 650.84 324.145 650.84H324.13C309.523 650.84 296.901 659.493 291.101 671.946L267.532 648.375L291.024 624.819C292.807 628.634 295.241 632.139 298.296 635.194C305.181 642.079 314.33 645.878 324.052 645.878C338.613 645.878 351.188 637.287 357.019 624.897L380.449 648.375L357.096 671.729C355.329 667.991 352.91 664.533 349.901 661.525V661.525ZM355.468 617.857L336.954 599.294L348.413 587.819C353.7 593.789 356.616 601.357 356.616 609.405C356.616 612.336 356.197 615.158 355.468 617.857V617.857ZM340.66 576.933H353.794L348.444 582.314C346.071 580.159 343.451 578.36 340.66 576.933ZM326.502 573.025C325.696 572.979 324.874 572.932 324.068 572.932C323.261 572.932 322.517 572.963 321.757 573.025L291.504 572.963V542.15C291.535 541.546 291.551 540.941 291.551 540.32C291.551 539.7 291.535 539.111 291.504 538.506V507.755L356.461 507.879V573.087L326.487 573.025H326.502ZM294.063 503.879L299.645 498.296C302.126 500.56 304.871 502.436 307.802 503.91L294.063 503.879ZM340.303 503.972C343.265 502.483 346.009 500.622 348.459 498.42L354.011 503.987H340.303V503.972ZM324.13 438.686H324.145C332.829 438.686 341.001 442.082 347.157 448.239C350.181 451.278 352.537 454.798 354.15 458.644L331.433 481.378L345.684 495.644C339.931 500.746 332.395 503.879 324.13 503.879C315.865 503.879 308.391 500.901 302.405 495.52L316.547 481.378L294.047 458.877C298.932 447.045 310.577 438.702 324.13 438.686V438.686ZM292.683 463.002L311.058 481.378L299.692 492.76C294.466 486.805 291.582 479.284 291.582 471.282C291.582 468.414 291.985 465.653 292.683 463.002ZM264.787 435.089L289.551 459.854C288.357 463.451 287.705 467.297 287.705 471.282C287.705 480.323 290.962 488.837 296.916 495.52L279.347 513.121C272.912 507.352 264.415 503.848 255.111 503.848C251.002 503.848 247.032 504.545 243.342 505.817L218.733 481.191L264.787 435.089V435.089ZM239.449 507.399C227.184 513.276 218.686 525.821 218.686 540.305C218.686 554.789 227.184 567.365 239.465 573.242L215.988 596.767L192.605 573.351C204.948 567.505 213.492 554.913 213.492 540.383C213.492 525.852 204.917 513.214 192.558 507.368L215.988 483.936L239.449 507.399ZM142.674 459.621L167.205 435.089L213.259 481.191L188.651 505.801C185.022 504.576 181.13 503.91 177.083 503.91C167.748 503.91 159.219 507.445 152.769 513.245L135.2 495.66C141.031 489.193 144.581 480.649 144.581 471.282C144.581 467.251 143.915 463.327 142.674 459.621V459.621ZM140.705 471.282C140.705 479.579 137.557 487.131 132.44 492.899L120.934 481.378L139.542 462.753C140.286 465.498 140.705 468.352 140.705 471.282ZM108.141 438.686H108.157C116.841 438.686 125.012 442.082 131.168 448.239C134.192 451.278 136.549 454.798 138.162 458.644L115.445 481.378L129.695 495.644C123.958 500.746 116.422 503.879 108.141 503.879C99.8611 503.879 92.4025 500.901 86.4325 495.505L100.559 481.378L78.0591 458.877C82.9436 447.045 94.5889 438.686 108.141 438.686V438.686ZM76.6945 463.002L95.0696 481.378L83.7034 492.76C78.4778 486.805 75.5936 479.284 75.5936 471.282C75.5936 468.414 75.9968 465.653 76.6945 463.002V463.002ZM2.79115 481.191L48.8451 435.089L73.6088 459.854C72.4148 463.451 71.7635 467.297 71.7635 471.282C71.7635 480.323 75.0199 488.837 80.9743 495.52L63.4056 513.121C56.9704 507.352 48.4729 503.848 39.1691 503.848C35.1064 503.848 31.1368 504.514 27.3843 505.801L2.79115 481.191V481.191ZM71.6705 510.314V523.883C70.1819 520.952 68.3366 518.254 66.1502 515.835L71.6705 510.314ZM60.6299 515.881L49.0467 527.481L30.4855 508.918C33.2767 508.143 36.1919 507.724 39.1536 507.724C47.3875 507.724 54.8926 510.81 60.6299 515.881ZM6.60572 540.305C6.60572 531.605 10.0016 523.418 16.1421 517.261C19.1349 514.268 22.6238 511.927 26.4074 510.314L49.0467 532.955L63.3746 518.61C68.3521 524.177 71.4534 531.435 71.6705 539.437V541.189C71.4534 549.206 68.3521 556.479 63.3591 562.046L49.0157 547.686L26.4384 570.311C14.7931 565.334 6.60572 553.765 6.60572 540.305V540.305ZM71.655 556.743V570.373L66.1037 564.822C68.3056 562.403 70.1664 559.673 71.655 556.743V556.743ZM60.5834 564.775C54.8461 569.815 47.3565 572.901 39.1381 572.901C36.1454 572.901 33.2612 572.467 30.5166 571.707L49.0002 553.176L60.5834 564.775V564.775ZM2.79115 599.496L27.4308 574.824C31.1213 576.08 35.0599 576.778 39.1691 576.778C48.4574 576.778 56.9394 573.289 63.3746 567.536L80.9433 585.136C75.2059 591.587 71.686 600.085 71.686 609.39C71.686 613.359 72.3217 617.221 73.5312 620.88L48.8451 645.614L2.79115 599.496ZM2.79115 697.207L48.8451 651.089L73.6088 675.869C72.4148 679.467 71.7635 683.297 71.7635 687.298C71.7635 696.323 75.0199 704.852 80.9743 711.536L63.4056 729.121C56.9704 723.368 48.4729 719.848 39.1691 719.848C35.1064 719.848 31.1368 720.53 27.3843 721.801L2.79115 697.207V697.207ZM71.6705 726.314V739.898C70.1819 736.967 68.3366 734.254 66.1502 731.85L71.6705 726.314ZM60.6299 731.881L49.0467 743.481L30.4855 724.918C33.2767 724.159 36.1919 723.724 39.1536 723.724C47.3875 723.724 54.8926 726.826 60.6299 731.881ZM6.60572 756.32C6.60572 747.621 10.0016 739.433 16.1421 733.277C19.1349 730.268 22.6238 727.942 26.4074 726.33L49.0467 748.97L63.3746 734.626C68.3521 740.177 71.4534 747.45 71.6705 755.437V757.204C71.4534 765.206 68.3521 772.479 63.3591 778.046L49.0157 763.702L26.4384 786.311C14.7931 781.349 6.60572 769.781 6.60572 756.32ZM71.655 772.743V786.373L66.1037 780.822C68.3056 778.403 70.1664 775.689 71.655 772.743V772.743ZM60.5834 780.775C54.8461 785.831 47.3565 788.917 39.1381 788.917C36.1454 788.917 33.2612 788.467 30.5166 787.707L49.0002 769.176L60.5834 780.775V780.775ZM73.5002 836.88L48.8141 861.615L2.76014 815.511L27.3998 790.824C31.0903 792.096 35.0289 792.793 39.1381 792.793C48.4264 792.793 56.9084 789.289 63.3435 783.551L80.9123 801.136C75.1749 807.587 71.655 816.101 71.655 825.405C71.655 829.359 72.2907 833.221 73.5002 836.88V836.88ZM75.5316 825.405C75.5316 817.171 78.6328 809.65 83.6879 803.912L95.0541 815.294L76.648 833.732C75.9347 831.05 75.5316 828.258 75.5316 825.405ZM108.095 857.986H108.079C99.3959 857.986 91.224 854.605 85.068 848.449C81.9977 845.363 79.6097 841.781 77.9971 837.873L100.528 815.294L86.417 801.152C91.7978 796.314 98.7911 793.259 106.498 792.886H109.894C117.275 793.29 124.191 796.143 129.711 801.074L115.507 815.294L138.115 837.95C133.2 849.705 121.601 857.986 108.095 857.986V857.986ZM139.495 833.841L120.981 815.294L132.44 803.819C137.728 809.789 140.643 817.357 140.643 825.39C140.643 828.32 140.224 831.143 139.495 833.841V833.841ZM167.205 861.615L142.628 836.974C143.853 833.345 144.519 829.452 144.519 825.39C144.519 816.318 141.232 807.742 135.216 801.043L152.753 783.489C159.204 789.304 167.748 792.855 177.098 792.855C181.161 792.855 185.084 792.173 188.744 790.933L213.259 815.511L167.205 861.615V861.615ZM192.636 789.351C204.979 783.505 213.523 770.928 213.523 756.383C213.523 741.837 204.948 729.214 192.589 723.383L216.019 699.936L239.48 723.399C227.215 729.276 218.717 741.821 218.717 756.32C218.717 770.82 227.215 783.381 239.496 789.242L216.019 812.782L192.636 789.351V789.351ZM289.489 836.88L264.802 861.615L218.748 815.511L243.373 790.824C247.063 792.096 251.017 792.793 255.126 792.793C264.415 792.793 272.897 789.289 279.332 783.551L296.901 801.152C291.148 807.587 287.643 816.101 287.643 825.405C287.643 829.359 288.279 833.221 289.489 836.88V836.88ZM291.52 825.405C291.52 817.171 294.621 809.65 299.661 803.912L311.042 815.294L292.636 833.732C291.923 831.05 291.52 828.258 291.52 825.405ZM324.068 857.986C315.384 857.986 307.197 854.605 301.056 848.449C297.986 845.363 295.598 841.781 293.985 837.873L316.516 815.294L302.39 801.152C307.786 796.329 314.779 793.274 322.471 792.886H325.882C333.263 793.305 340.179 796.143 345.684 801.074L331.48 815.294L354.104 837.95C349.188 849.705 337.574 857.986 324.068 857.986ZM355.484 833.841L336.969 815.294L348.428 803.819C353.716 809.789 356.631 817.357 356.631 825.39C356.631 828.32 356.212 831.143 355.484 833.841V833.841ZM429.232 815.511L383.178 861.615L358.6 836.989C359.81 833.345 360.492 829.452 360.492 825.39C360.492 816.318 357.205 807.742 351.173 801.043L368.726 783.489C375.177 789.304 383.721 792.855 393.071 792.855C397.134 792.855 401.057 792.173 404.701 790.933L429.232 815.511ZM360.368 786.373V772.401C361.857 775.441 363.764 778.248 365.997 780.744L360.368 786.373ZM371.502 780.713L383.023 769.176L401.6 787.8C398.886 788.544 396.033 788.979 393.087 788.979C384.806 788.979 377.255 785.831 371.502 780.713ZM425.635 756.383C425.635 769.874 417.401 781.473 405.709 786.42L383.023 763.702L368.757 777.969C363.656 772.215 360.523 764.663 360.523 756.383C360.523 748.102 363.671 740.519 368.788 734.765L382.992 748.97L405.631 726.314C417.37 731.245 425.635 742.86 425.635 756.383ZM360.384 740.364V726.33L366.044 731.99C363.795 734.486 361.888 737.309 360.384 740.364V740.364ZM371.548 732.021C377.301 726.919 384.837 723.786 393.102 723.786C396.017 723.786 398.84 724.221 401.538 724.949L383.008 743.481L371.548 732.021V732.021ZM429.263 697.207L404.654 721.817C401.01 720.592 397.134 719.91 393.087 719.91C383.752 719.91 375.223 723.445 368.773 729.26L351.204 711.675C357.034 705.209 360.585 696.664 360.585 687.298C360.585 683.266 359.919 679.343 358.678 675.636L383.209 651.104L429.263 697.207ZM429.248 599.496L383.194 645.614L358.616 620.974C359.825 617.329 360.508 613.437 360.508 609.39C360.508 600.318 357.22 591.742 351.188 585.043L368.742 567.474C375.192 573.289 383.736 576.84 393.087 576.84C397.149 576.84 401.072 576.158 404.716 574.917L429.248 599.496V599.496ZM360.384 570.373V556.401C361.872 559.441 363.78 562.232 366.013 564.729L360.384 570.373ZM371.517 564.713L383.039 553.176L401.615 571.8C398.902 572.545 396.048 572.963 393.102 572.963C384.822 572.963 377.27 569.831 371.517 564.713ZM425.65 540.383C425.65 553.874 417.416 565.473 405.724 570.42L383.039 547.686L368.773 561.969C363.671 556.215 360.539 548.663 360.539 540.383C360.539 532.102 363.687 524.519 368.804 518.75L383.008 532.955L405.647 510.314C417.385 515.245 425.65 526.86 425.65 540.383V540.383ZM360.399 524.348V510.314L366.059 515.99C363.811 518.486 361.903 521.293 360.399 524.348ZM371.564 516.005C377.317 510.903 384.853 507.786 393.118 507.786C396.033 507.786 398.855 508.205 401.553 508.934L383.023 527.481L371.564 516.005V516.005ZM404.685 505.801C401.041 504.576 397.165 503.91 393.118 503.91C383.783 503.91 375.254 507.445 368.804 513.245L351.235 495.66C357.065 489.209 360.616 480.649 360.616 471.282C360.616 467.251 359.95 463.327 358.709 459.621L383.24 435.089L429.294 481.191L404.685 505.801Z" fill="#F6F6F4"/>
<path d="M863.953 478.447L817.915 432.344H812.426L789.073 455.698C787.305 451.96 784.886 448.518 781.878 445.494C774.993 438.609 765.845 434.809 756.122 434.809H756.107C741.5 434.809 728.877 443.478 723.078 455.93L699.508 432.344H694.019L647.965 478.447L601.911 432.344H596.422L573.069 455.698C571.302 451.96 568.883 448.518 565.874 445.494C558.99 438.609 549.841 434.809 540.118 434.809H540.103C525.496 434.809 512.889 443.478 507.074 455.93L483.504 432.344H478.015L431.915 478.493V483.89L455.407 507.383C451.716 509.151 448.305 511.539 445.328 514.532C438.443 521.417 434.659 530.566 434.659 540.305C434.659 554.82 443.172 567.365 455.438 573.242L431.915 596.813V602.179L478.031 648.344L431.915 694.509V699.905L455.407 723.383C451.716 725.151 448.305 727.555 445.328 730.532C438.443 737.417 434.659 746.582 434.659 756.32C434.659 770.82 443.172 783.381 455.438 789.242L431.915 812.829V818.194L478 864.344H483.52L506.997 840.819C508.78 844.619 511.214 848.123 514.269 851.194C521.154 858.079 530.303 861.863 540.025 861.863H540.041C554.586 861.863 567.177 853.272 573.007 840.897L596.391 864.344H601.911L647.965 818.241L694.004 864.344H699.524L723.001 840.819C724.784 844.619 727.218 848.123 730.273 851.194C737.158 858.079 746.307 861.863 756.029 861.863C763.302 861.863 770.093 859.723 775.784 856.016C781.475 852.326 786.08 847.084 788.996 840.897L812.395 864.344H817.915L863.953 818.241V812.782L840.585 789.351C852.928 783.505 861.472 770.928 861.472 756.383C861.472 741.837 852.897 729.214 840.523 723.383L863.953 699.952V694.462L817.9 648.359L863.953 602.225V596.767L840.585 573.351C852.928 567.505 861.472 554.913 861.472 540.383C861.472 525.852 852.897 513.214 840.523 507.368L863.953 483.936V478.447V478.447ZM788.686 471.282C788.686 479.579 785.538 487.146 780.421 492.899L768.899 481.378L787.523 462.753C788.267 465.498 788.686 468.352 788.686 471.282ZM758.479 789.025C757.673 788.963 756.866 788.932 756.06 788.932C755.254 788.932 754.509 788.963 753.75 789.01L723.497 788.963V758.15C723.528 757.546 723.543 756.941 723.543 756.32C723.543 755.7 723.528 755.111 723.497 754.506V723.755L788.453 723.864V789.072L758.464 789.025H758.479ZM785.786 792.949L780.436 798.299C778.064 796.159 775.443 794.36 772.652 792.918L785.786 792.949V792.949ZM739.639 792.855C736.708 794.344 734.01 796.205 731.607 798.392L726.071 792.84H739.639V792.855ZM711.293 778.062L696.965 763.717L674.388 786.327C662.743 781.365 654.555 769.796 654.555 756.336C654.555 742.876 662.727 731.323 674.357 726.345L696.996 748.986L711.324 734.641C716.302 740.193 719.387 747.45 719.62 755.421V757.251C719.387 765.237 716.286 772.51 711.293 778.062V778.062ZM719.62 772.774V786.389L714.069 780.837C716.255 778.418 718.131 775.704 719.62 772.774ZM708.549 780.806C702.811 785.846 695.322 788.932 687.103 788.932C684.11 788.932 681.226 788.482 678.466 787.723L696.965 769.191L708.549 780.806V780.806ZM678.451 724.949C681.211 724.19 684.11 723.74 687.103 723.74C695.337 723.74 702.842 726.841 708.58 731.897L696.996 743.496L678.451 724.949V724.949ZM714.1 731.866L719.62 726.345V739.914C718.131 736.983 716.271 734.269 714.1 731.866ZM711.34 729.136C704.905 723.383 696.407 719.863 687.103 719.863C682.994 719.863 679.024 720.561 675.334 721.832L650.725 697.223L696.779 651.12L721.543 675.885C720.349 679.482 719.698 683.313 719.698 687.313C719.698 696.339 722.954 704.868 728.908 711.551L711.34 729.136V729.136ZM599.011 763.717L584.746 777.984C579.644 772.231 576.527 764.679 576.527 756.398C576.527 748.117 579.66 740.534 584.777 734.781L598.98 748.986L621.62 726.33C633.358 731.261 641.623 742.876 641.623 756.398C641.623 769.92 633.389 781.489 621.697 786.436L599.011 763.717ZM617.588 787.816C614.875 788.56 612.021 788.994 609.075 788.994C600.795 788.994 593.243 785.846 587.49 780.729L599.011 769.191L617.588 787.816ZM581.986 780.76L576.357 786.389V772.417C577.845 775.456 579.753 778.263 581.986 780.76ZM576.357 740.379V726.345L582.017 732.005C579.768 734.502 577.861 737.324 576.357 740.379V740.379ZM587.521 732.036C593.274 726.934 600.81 723.802 609.075 723.802C611.99 723.802 614.813 724.236 617.511 724.965L598.98 743.496L587.521 732.036ZM620.643 721.832C617.014 720.607 613.122 719.925 609.075 719.925C599.74 719.925 591.212 723.461 584.761 729.26L567.208 711.691C573.023 705.224 576.574 696.68 576.574 687.313C576.574 683.282 575.907 679.358 574.666 675.652L599.198 651.104L645.252 697.223L620.643 721.832ZM542.506 789.041C541.7 788.979 540.894 788.948 540.087 788.948C539.281 788.948 538.552 788.979 537.792 789.025L507.524 788.963V758.104C507.555 757.515 507.57 756.925 507.57 756.336C507.57 755.747 507.555 755.157 507.524 754.584V723.771L572.48 723.879V789.087L542.491 789.041H542.506ZM569.813 792.964L564.463 798.314C562.091 796.174 559.47 794.375 556.679 792.933L569.813 792.964V792.964ZM523.666 792.871C520.751 794.36 518.037 796.221 515.634 798.407L510.098 792.855H523.666V792.871ZM507.524 538.584V507.771L572.48 507.895V573.103L542.506 573.041C541.7 572.994 540.894 572.948 540.072 572.948C539.296 572.948 538.521 572.979 537.761 573.041L507.508 572.979V542.104C507.539 541.53 507.555 540.941 507.555 540.336C507.555 539.731 507.539 539.173 507.508 538.584H507.524ZM510.082 503.894L515.665 498.311C518.146 500.576 520.89 502.452 523.821 503.925L510.082 503.894ZM556.322 503.987C559.284 502.498 562.029 500.638 564.479 498.436L570.046 504.003H556.322V503.987ZM598.996 532.97L621.635 510.33C633.374 515.261 641.639 526.876 641.639 540.398C641.639 553.92 633.405 565.489 621.713 570.436L599.027 547.702L584.761 561.984C579.66 556.215 576.543 548.679 576.543 540.383C576.543 532.086 579.675 524.534 584.792 518.765L598.996 532.97V532.97ZM587.537 516.021C593.29 510.919 600.826 507.802 609.091 507.802C612.006 507.802 614.828 508.221 617.526 508.949L598.996 527.496L587.537 516.021ZM617.604 571.816C614.89 572.544 612.037 572.979 609.091 572.979C600.81 572.979 593.259 569.846 587.506 564.729L599.027 553.192L617.604 571.816ZM576.372 524.364V510.33L582.032 516.005C579.784 518.502 577.876 521.309 576.372 524.364ZM582.001 564.744L576.372 570.389V556.401C577.861 559.456 579.768 562.248 582.001 564.744ZM584.746 567.489C591.196 573.304 599.74 576.855 609.091 576.855C613.153 576.855 617.076 576.173 620.736 574.933L645.252 599.512L599.198 645.63L574.62 620.989C575.845 617.345 576.512 613.453 576.512 609.405C576.512 600.318 573.224 591.758 567.208 585.059L584.746 567.489V567.489ZM561.703 585.074L547.499 599.294L570.108 621.966C565.192 633.72 553.593 642.001 540.087 642.001C531.388 642.001 523.216 638.605 517.06 632.449C513.99 629.378 511.602 625.781 509.989 621.873L532.52 599.294L518.409 585.167C523.79 580.329 530.783 577.274 538.475 576.902H541.902C549.283 577.305 556.183 580.159 561.703 585.074V585.074ZM556.679 576.933H569.813L564.463 582.314C562.091 580.159 559.47 578.36 556.679 576.933V576.933ZM552.973 599.294L564.432 587.819C569.72 593.789 572.635 601.357 572.635 609.405C572.635 612.336 572.216 615.158 571.488 617.857L552.973 599.294ZM523.666 576.871C520.735 578.36 518.037 580.205 515.634 582.392L510.098 576.84L523.666 576.871ZM515.68 587.912L527.046 599.294L508.64 617.748C507.927 615.05 507.524 612.258 507.524 609.405C507.524 601.171 510.625 593.665 515.68 587.912V587.912ZM514.316 635.194C521.2 642.079 530.349 645.878 540.087 645.878C554.632 645.878 567.223 637.287 573.054 624.897L596.468 648.375L573.116 671.729C571.348 667.991 568.929 664.533 565.921 661.525C559.036 654.64 549.887 650.84 540.149 650.84C525.542 650.84 512.936 659.493 507.121 671.946L483.551 648.375L507.043 624.819C508.826 628.634 511.261 632.139 514.316 635.194V635.194ZM564.479 714.435L570.046 720.003L556.322 719.972C559.284 718.498 562.029 716.622 564.479 714.435V714.435ZM540.149 719.894C536.087 719.894 532.164 719.15 528.489 717.739C524.829 716.312 521.418 714.218 518.44 711.536L532.567 697.393L510.067 674.892C514.951 663.076 526.597 654.717 540.149 654.717C548.848 654.717 557.02 658.098 563.176 664.254C566.2 667.294 568.557 670.829 570.17 674.675L547.453 697.393L561.703 711.66C555.966 716.777 548.43 719.894 540.149 719.894V719.894ZM564.448 708.915L552.942 697.393L571.55 678.769C572.294 681.529 572.713 684.383 572.713 687.313C572.713 695.61 569.565 703.162 564.448 708.915ZM508.702 679.017L527.077 697.393L515.711 708.775C510.486 702.836 507.601 695.3 507.601 687.313C507.601 684.445 508.005 681.669 508.702 679.017ZM523.821 719.91H510.082L515.665 714.311C518.146 716.576 520.89 718.436 523.821 719.91ZM601.927 648.375L647.996 602.241L694.05 648.375L647.996 694.478L601.927 648.375ZM696.996 532.97L711.324 518.626C716.302 524.177 719.387 531.435 719.62 539.421V541.235C719.387 549.237 716.286 556.495 711.293 562.062L696.965 547.702L674.388 570.327C662.743 565.349 654.555 553.781 654.555 540.32C654.555 526.86 662.727 515.323 674.372 510.345L696.996 532.97V532.97ZM678.451 508.949C681.211 508.174 684.11 507.74 687.103 507.74C695.337 507.74 702.842 510.841 708.58 515.897L696.996 527.496L678.451 508.949V508.949ZM714.1 515.866L719.62 510.33V523.898C718.131 520.967 716.271 518.269 714.1 515.866ZM719.62 556.758V570.389L714.069 564.837C716.255 562.418 718.131 559.705 719.62 556.758V556.758ZM708.549 564.791C702.811 569.831 695.322 572.917 687.103 572.917C684.11 572.917 681.226 572.482 678.466 571.723L696.965 553.192L708.549 564.791V564.791ZM675.365 574.84C679.04 576.096 682.994 576.793 687.103 576.793C696.392 576.793 704.874 573.304 711.309 567.551L728.877 585.152C723.125 591.603 719.62 600.101 719.62 609.405C719.62 613.375 720.256 617.236 721.465 620.896L696.779 645.63L650.725 599.512L675.365 574.84V574.84ZM748.477 599.294L734.367 585.167C739.747 580.329 746.725 577.274 754.432 576.902H757.859C765.224 577.305 772.14 580.159 777.645 585.074L763.441 599.294L786.065 621.966C781.149 633.72 769.535 642.001 756.029 642.001C747.346 642.001 739.158 638.605 733.018 632.449C729.947 629.378 727.559 625.781 725.947 621.873L748.477 599.294V599.294ZM724.598 617.748C723.884 615.05 723.481 612.258 723.481 609.405C723.481 601.171 726.582 593.665 731.622 587.912L743.004 599.294L724.598 617.748V617.748ZM731.591 582.392L726.055 576.84L739.623 576.871C736.693 578.36 733.994 580.205 731.591 582.392ZM734.382 711.536L748.524 697.393L726.024 674.892C730.909 663.06 742.554 654.717 756.107 654.717H756.122C764.806 654.717 772.978 658.113 779.134 664.254C782.157 667.294 784.514 670.829 786.127 674.675L763.41 697.393L777.66 711.66C771.923 716.777 764.371 719.894 756.107 719.894C752.044 719.894 748.121 719.15 744.446 717.739C740.786 716.312 737.375 714.218 734.382 711.536ZM739.778 719.91H726.04L731.622 714.311C734.103 716.576 736.848 718.436 739.778 719.91ZM743.035 697.393L731.669 708.775C726.443 702.836 723.559 695.3 723.559 687.313C723.559 684.445 723.962 681.669 724.66 679.017L743.035 697.393ZM772.28 719.972C775.241 718.498 777.986 716.622 780.436 714.435L785.987 720.003L772.28 719.972ZM780.405 708.93L768.884 697.393L787.507 678.769C788.251 681.529 788.67 684.383 788.67 687.313C788.67 695.61 785.522 703.162 780.405 708.93ZM781.878 661.525C774.993 654.64 765.845 650.84 756.122 650.84H756.107C741.5 650.84 728.877 659.493 723.078 671.946L699.508 648.375L723.001 624.819C724.784 628.634 727.218 632.139 730.273 635.194C737.158 642.079 746.307 645.878 756.029 645.878C770.59 645.878 783.165 637.287 788.996 624.897L812.426 648.375L789.073 671.729C787.305 667.991 784.886 664.533 781.878 661.525V661.525ZM787.445 617.857L768.93 599.294L780.39 587.819C785.677 593.789 788.592 601.357 788.592 609.405C788.592 612.336 788.174 615.158 787.445 617.857ZM772.636 576.933H785.77L780.421 582.314C778.048 580.159 775.428 578.36 772.636 576.933V576.933ZM758.479 573.025C757.673 572.979 756.851 572.932 756.045 572.932C755.238 572.932 754.494 572.963 753.734 573.025L723.481 572.963V542.15C723.512 541.546 723.528 540.941 723.528 540.32C723.528 539.7 723.512 539.111 723.481 538.506V507.755L788.437 507.879V573.087L758.464 573.025H758.479ZM726.04 503.879L731.622 498.296C734.103 500.56 736.848 502.436 739.778 503.91L726.04 503.879ZM772.28 503.972C775.241 502.483 777.986 500.622 780.436 498.42L785.987 503.987H772.28V503.972ZM756.107 438.686H756.122C764.806 438.686 772.978 442.082 779.134 448.239C782.157 451.278 784.514 454.798 786.127 458.644L763.41 481.378L777.66 495.644C771.908 500.746 764.371 503.879 756.107 503.879C747.842 503.879 740.368 500.901 734.382 495.52L748.524 481.378L726.024 458.877C730.909 447.045 742.554 438.702 756.107 438.686V438.686ZM724.66 463.002L743.035 481.378L731.669 492.76C726.443 486.805 723.559 479.284 723.559 471.282C723.559 468.414 723.962 465.653 724.66 463.002ZM696.764 435.089L721.527 459.854C720.333 463.451 719.682 467.297 719.682 471.282C719.682 480.323 722.938 488.837 728.893 495.52L711.324 513.121C704.889 507.352 696.392 503.848 687.088 503.848C682.979 503.848 679.009 504.545 675.318 505.817L650.71 481.191L696.764 435.089V435.089ZM671.426 507.399C659.161 513.276 650.663 525.821 650.663 540.305C650.663 554.789 659.161 567.365 671.442 573.242L647.965 596.767L624.582 573.351C636.925 567.505 645.469 554.913 645.469 540.383C645.469 525.852 636.894 513.214 624.535 507.368L647.965 483.936L671.426 507.399V507.399ZM574.651 459.621L599.182 435.089L645.236 481.191L620.627 505.801C616.999 504.576 613.107 503.91 609.06 503.91C599.725 503.91 591.196 507.445 584.746 513.245L567.177 495.66C573.007 489.193 576.558 480.649 576.558 471.282C576.558 467.251 575.891 463.327 574.651 459.621ZM572.682 471.282C572.682 479.579 569.534 487.131 564.417 492.899L552.911 481.378L571.519 462.753C572.263 465.498 572.682 468.352 572.682 471.282ZM540.118 438.686H540.134C548.817 438.686 556.989 442.082 563.145 448.239C566.169 451.278 568.526 454.798 570.139 458.644L547.422 481.378L561.672 495.644C555.935 500.746 548.399 503.879 540.118 503.879C531.838 503.879 524.379 500.901 518.409 495.505L532.536 481.378L510.036 458.877C514.92 447.045 526.566 438.686 540.118 438.686V438.686ZM508.671 463.002L527.046 481.378L515.68 492.76C510.455 486.805 507.57 479.284 507.57 471.282C507.57 468.414 507.974 465.653 508.671 463.002ZM434.737 481.191L480.791 435.089L505.555 459.854C504.361 463.451 503.709 467.297 503.709 471.282C503.709 480.323 506.966 488.837 512.92 495.52L495.351 513.121C488.916 507.352 480.419 503.848 471.115 503.848C467.052 503.848 463.083 504.514 459.33 505.801L434.737 481.191ZM503.616 510.314V523.883C502.128 520.952 500.282 518.254 498.096 515.835L503.616 510.314ZM492.576 515.881L480.992 527.481L462.431 508.918C465.222 508.143 468.138 507.724 471.099 507.724C479.333 507.724 486.838 510.81 492.576 515.881V515.881ZM438.552 540.305C438.552 531.605 441.947 523.418 448.088 517.261C451.081 514.268 454.57 511.927 458.353 510.314L480.992 532.955L495.32 518.61C500.298 524.177 503.399 531.435 503.616 539.437V541.189C503.399 549.206 500.298 556.479 495.305 562.046L480.961 547.686L458.384 570.311C446.739 565.334 438.552 553.765 438.552 540.305V540.305ZM503.601 556.743V570.373L498.049 564.822C500.251 562.403 502.112 559.673 503.601 556.743V556.743ZM492.529 564.775C486.792 569.815 479.302 572.901 471.084 572.901C468.091 572.901 465.207 572.467 462.462 571.707L480.946 553.176L492.529 564.775V564.775ZM434.721 599.496L459.361 574.824C463.052 576.08 466.99 576.778 471.099 576.778C480.388 576.778 488.87 573.289 495.305 567.536L512.874 585.136C507.136 591.587 503.616 600.085 503.616 609.39C503.616 613.359 504.252 617.221 505.462 620.88L480.775 645.614L434.721 599.496V599.496ZM434.721 697.207L480.775 651.089L505.539 675.869C504.345 679.467 503.694 683.297 503.694 687.298C503.694 696.323 506.95 704.852 512.905 711.536L495.336 729.121C488.901 723.368 480.403 719.848 471.099 719.848C467.037 719.848 463.067 720.53 459.315 721.801L434.721 697.207V697.207ZM503.601 726.314V739.898C502.112 736.967 500.267 734.254 498.08 731.85L503.601 726.314ZM492.56 731.881L480.977 743.481L462.416 724.918C465.207 724.159 468.122 723.724 471.084 723.724C479.318 723.724 486.823 726.826 492.56 731.881V731.881ZM438.536 756.32C438.536 747.621 441.932 739.433 448.072 733.277C451.065 730.268 454.554 727.942 458.338 726.33L480.977 748.97L495.305 734.626C500.282 740.177 503.384 747.45 503.601 755.437V757.204C503.384 765.206 500.282 772.479 495.289 778.046L480.946 763.702L458.369 786.311C446.723 781.349 438.536 769.781 438.536 756.32ZM503.585 772.743V786.373L498.034 780.822C500.236 778.403 502.097 775.689 503.585 772.743V772.743ZM492.514 780.775C486.776 785.831 479.287 788.917 471.068 788.917C468.076 788.917 465.191 788.467 462.447 787.707L480.93 769.176L492.514 780.775V780.775ZM505.431 836.88L480.744 861.615L434.69 815.511L459.33 790.824C463.021 792.096 466.959 792.793 471.068 792.793C480.357 792.793 488.839 789.289 495.274 783.551L512.843 801.136C507.105 807.587 503.585 816.101 503.585 825.405C503.585 829.359 504.221 833.221 505.431 836.88V836.88ZM507.462 825.405C507.462 817.171 510.563 809.65 515.618 803.912L526.984 815.294L508.578 833.732C507.865 831.05 507.462 828.258 507.462 825.405V825.405ZM540.025 857.986H540.01C531.326 857.986 523.154 854.605 516.998 848.449C513.928 845.363 511.54 841.781 509.927 837.873L532.458 815.294L518.347 801.152C523.728 796.314 530.721 793.259 538.428 792.886H541.824C549.205 793.29 556.121 796.143 561.641 801.074L547.437 815.294L570.046 837.95C565.13 849.705 553.531 857.986 540.025 857.986V857.986ZM571.426 833.841L552.911 815.294L564.37 803.819C569.658 809.789 572.573 817.357 572.573 825.39C572.573 828.32 572.154 831.143 571.426 833.841ZM599.136 861.615L574.558 836.974C575.783 833.345 576.45 829.452 576.45 825.39C576.45 816.318 573.162 807.742 567.146 801.043L584.684 783.489C591.134 789.304 599.678 792.855 609.029 792.855C613.091 792.855 617.014 792.173 620.674 790.933L645.189 815.511L599.136 861.615ZM624.566 789.351C636.909 783.505 645.453 770.928 645.453 756.383C645.453 741.837 636.878 729.214 624.519 723.383L647.95 699.936L671.411 723.399C659.145 729.276 650.648 741.821 650.648 756.32C650.648 770.82 659.145 783.381 671.426 789.242L647.95 812.782L624.566 789.351V789.351ZM721.419 836.88L696.733 861.615L650.679 815.511L675.303 790.824C678.993 792.096 682.948 792.793 687.057 792.793C696.345 792.793 704.827 789.289 711.262 783.551L728.831 801.152C723.078 807.587 719.574 816.101 719.574 825.405C719.574 829.359 720.209 833.221 721.419 836.88V836.88ZM723.45 825.405C723.45 817.171 726.551 809.65 731.591 803.912L742.973 815.294L724.567 833.732C723.853 831.05 723.45 828.258 723.45 825.405V825.405ZM755.998 857.986C747.315 857.986 739.127 854.605 732.987 848.449C729.916 845.363 727.528 841.781 725.916 837.873L748.446 815.294L734.32 801.152C739.716 796.329 746.71 793.274 754.401 792.886H757.812C765.193 793.305 772.109 796.143 777.614 801.074L763.41 815.294L786.034 837.95C781.118 849.705 769.504 857.986 755.998 857.986V857.986ZM787.414 833.841L768.899 815.294L780.359 803.819C785.646 809.789 788.561 817.357 788.561 825.39C788.561 828.32 788.143 831.143 787.414 833.841ZM861.162 815.511L815.108 861.615L790.531 836.989C791.74 833.345 792.423 829.452 792.423 825.39C792.423 816.318 789.135 807.742 783.103 801.043L800.656 783.489C807.107 789.304 815.651 792.855 825.001 792.855C829.064 792.855 832.987 792.173 836.631 790.933L861.162 815.511V815.511ZM792.299 786.373V772.401C793.787 775.441 795.694 778.248 797.927 780.744L792.299 786.373ZM803.432 780.713L814.953 769.176L833.53 787.8C830.816 788.544 827.963 788.979 825.017 788.979C816.737 788.979 809.185 785.831 803.432 780.713ZM857.565 756.383C857.565 769.874 849.331 781.473 837.639 786.42L814.953 763.702L800.687 777.969C795.586 772.215 792.454 764.663 792.454 756.383C792.454 748.102 795.601 740.519 800.718 734.765L814.922 748.97L837.562 726.314C849.3 731.245 857.565 742.86 857.565 756.383V756.383ZM792.314 740.364V726.33L797.974 731.99C795.725 734.486 793.818 737.309 792.314 740.364V740.364ZM803.479 732.021C809.231 726.919 816.768 723.786 825.032 723.786C827.948 723.786 830.77 724.221 833.468 724.949L814.938 743.481L803.479 732.021ZM861.193 697.207L836.585 721.817C832.941 720.592 829.064 719.91 825.017 719.91C815.682 719.91 807.154 723.445 800.703 729.26L783.134 711.675C788.965 705.209 792.516 696.664 792.516 687.298C792.516 683.266 791.849 679.343 790.608 675.636L815.139 651.104L861.193 697.207V697.207ZM861.178 599.496L815.124 645.614L790.546 620.974C791.756 617.329 792.438 613.437 792.438 609.39C792.438 600.318 789.151 591.742 783.119 585.043L800.672 567.474C807.123 573.289 815.667 576.84 825.017 576.84C829.08 576.84 833.003 576.158 836.647 574.917L861.178 599.496V599.496ZM792.314 570.373V556.401C793.803 559.441 795.71 562.232 797.943 564.729L792.314 570.373ZM803.448 564.713L814.969 553.176L833.545 571.8C830.832 572.545 827.979 572.963 825.032 572.963C816.752 572.963 809.2 569.831 803.448 564.713ZM857.58 540.383C857.58 553.874 849.346 565.473 837.655 570.42L814.969 547.686L800.703 561.969C795.601 556.215 792.469 548.663 792.469 540.383C792.469 532.102 795.617 524.519 800.734 518.75L814.938 532.955L837.577 510.314C849.315 515.245 857.58 526.86 857.58 540.383V540.383ZM792.33 524.348V510.314L797.989 515.99C795.741 518.486 793.834 521.293 792.33 524.348V524.348ZM803.494 516.005C809.247 510.903 816.783 507.786 825.048 507.786C827.963 507.786 830.785 508.205 833.483 508.934L814.953 527.481L803.494 516.005ZM836.616 505.801C832.972 504.576 829.095 503.91 825.048 503.91C815.713 503.91 807.185 507.445 800.734 513.245L783.165 495.66C788.996 489.209 792.547 480.649 792.547 471.282C792.547 467.251 791.88 463.327 790.639 459.621L815.17 435.089L861.224 481.191L836.616 505.801V505.801Z" fill="#F6F6F4"/>
</svg>
