<svg width="864" height="864" viewBox="0 0 864 864" fill="none" xmlns="http://www.w3.org/2000/svg">
<mask id="mask0_578_11396" style="mask-type:alpha" maskUnits="userSpaceOnUse" x="0" y="0" width="864" height="864">
<rect width="864" height="864" fill="#EEE9F1"/>
</mask>
<g mask="url(#mask0_578_11396)">
<path d="M130.657 33.0165C123.1 40.5711 113.212 44.3429 103.303 44.3318H102.681C92.9825 44.1876 83.3392 40.4047 75.9486 33.0165C68.3915 25.462 64.6296 15.5778 64.6296 5.67143C64.6296 -4.23494 60.8566 -14.1191 53.2995 -21.6737C45.7424 -29.2283 35.8439 -33 25.9453 -33H103.292C113.201 -33 123.089 -29.2283 130.646 -21.6737C145.738 -6.57563 145.738 17.9074 130.646 33.0055L130.657 33.0165Z" stroke="#F6F6F4" stroke-width="2.5" stroke-miterlimit="10"/>
<path d="M102.692 44.3319H25.9009C16.0134 44.3319 6.14817 40.5602 -1.39782 33.0167C-16.4898 17.9186 -16.4898 -6.56441 -1.39782 -21.6625C6.15927 -29.217 16.0578 -32.9888 25.9564 -32.9888C35.8549 -32.9888 45.7535 -29.217 53.3106 -21.6625C60.8677 -14.1079 64.6407 -4.22371 64.6407 5.68266C64.6407 15.589 68.4026 25.4732 75.9596 33.0278C83.3503 40.4159 92.9936 44.1877 102.692 44.343V44.3319Z" stroke="#F6F6F4" stroke-width="2.5" stroke-miterlimit="10"/>
<path d="M285.35 33.0165C277.793 40.5711 267.906 44.3429 257.996 44.3318H257.375C247.676 44.1876 238.033 40.4047 230.642 33.0165C223.085 25.462 219.323 15.5778 219.323 5.67143C219.323 -4.23494 215.55 -14.1191 207.993 -21.6737C200.436 -29.2283 190.537 -33 180.639 -33H257.985C267.895 -33 277.782 -29.2283 285.339 -21.6737C300.431 -6.57563 300.431 17.9074 285.339 33.0055L285.35 33.0165Z" stroke="#F6F6F4" stroke-width="2.5" stroke-miterlimit="10"/>
<path d="M257.375 44.3319H180.594C170.707 44.3319 160.842 40.5602 153.296 33.0167C138.204 17.9186 138.204 -6.56441 153.296 -21.6625C160.853 -29.217 170.751 -32.9888 180.65 -32.9888C190.548 -32.9888 200.447 -29.217 208.004 -21.6625C215.561 -14.1079 219.334 -4.22371 219.334 5.68266C219.334 15.589 223.096 25.4732 230.653 33.0278C238.044 40.4159 247.687 44.1877 257.386 44.343L257.375 44.3319Z" stroke="#F6F6F4" stroke-width="2.5" stroke-miterlimit="10"/>
<path d="M440.032 33.0165C432.475 40.5711 422.587 44.3429 412.678 44.3318H412.056C402.358 44.1876 392.714 40.4047 385.324 33.0165C377.766 25.462 374.005 15.5778 374.005 5.67143C374.005 -4.23494 370.232 -14.1191 362.675 -21.6737C355.117 -29.2283 345.219 -33 335.32 -33H412.667C422.576 -33 432.464 -29.2283 440.021 -21.6737C455.113 -6.57563 455.113 17.9074 440.021 33.0055L440.032 33.0165Z" stroke="#F6F6F4" stroke-width="2.5" stroke-miterlimit="10"/>
<path d="M412.067 44.3319H335.287C325.399 44.3319 315.534 40.5602 307.988 33.0167C292.896 17.9186 292.896 -6.56441 307.988 -21.6625C315.545 -29.217 325.444 -32.9888 335.342 -32.9888C345.241 -32.9888 355.139 -29.217 362.696 -21.6625C370.253 -14.1079 374.026 -4.22371 374.026 5.68266C374.026 15.589 377.788 25.4732 385.345 33.0278C392.736 40.4159 402.379 44.1877 412.078 44.343L412.067 44.3319Z" stroke="#F6F6F4" stroke-width="2.5" stroke-miterlimit="10"/>
<path d="M91.3738 110.692C83.8167 118.247 73.9292 122.019 64.0196 122.008H63.3981C53.6993 121.863 44.056 118.081 36.6654 110.692C29.1083 103.138 25.3464 93.2536 25.3464 83.3472C25.3464 73.4408 21.5734 63.5567 14.0163 56.0021C6.45923 48.4475 -3.43933 44.6758 -13.3379 44.6758H64.0196C73.9292 44.6758 83.8167 48.4475 91.3738 56.0021C106.466 71.1001 106.466 95.5832 91.3738 110.681V110.692Z" stroke="#F6F6F4" stroke-width="2.5" stroke-miterlimit="10"/>
<path d="M63.3981 122.007H-13.3823C-23.2698 122.007 -33.135 118.236 -40.681 110.692C-55.773 95.5942 -55.773 71.1111 -40.681 56.0131C-33.1239 48.4585 -23.2254 44.6868 -13.3268 44.6868C-3.42826 44.6868 6.4703 48.4585 14.0274 56.0131C21.5845 63.5677 25.3575 73.4518 25.3575 83.3582C25.3575 93.2646 29.1194 103.149 36.6764 110.703C44.0671 118.091 53.7104 121.863 63.4092 122.019L63.3981 122.007Z" stroke="#F6F6F4" stroke-width="2.5" stroke-miterlimit="10"/>
<path d="M246.055 110.692C238.498 118.247 228.611 122.019 218.701 122.008H218.08C208.381 121.863 198.738 118.081 191.347 110.692C183.79 103.138 180.028 93.2536 180.028 83.3472C180.028 73.4408 176.255 63.5567 168.698 56.0021C161.141 48.4475 151.242 44.6758 141.344 44.6758H218.69C228.6 44.6758 238.487 48.4475 246.044 56.0021C261.136 71.1001 261.136 95.5832 246.044 110.681L246.055 110.692Z" stroke="#F6F6F4" stroke-width="2.5" stroke-miterlimit="10"/>
<path d="M218.091 122.007H141.311C131.424 122.007 121.558 118.236 114.012 110.692C98.9204 95.5942 98.9204 71.1111 114.012 56.0131C121.569 48.4585 131.468 44.6868 141.367 44.6868C151.265 44.6868 161.164 48.4585 168.721 56.0131C176.278 63.5677 180.051 73.4518 180.051 83.3582C180.051 93.2646 183.813 103.149 191.37 110.703C198.76 118.091 208.404 121.863 218.103 122.019L218.091 122.007Z" stroke="#F6F6F4" stroke-width="2.5" stroke-miterlimit="10"/>
<path d="M400.749 110.692C393.192 118.247 383.304 122.019 373.395 122.008H372.773C363.074 121.863 353.431 118.081 346.04 110.692C338.483 103.138 334.721 93.2536 334.721 83.3472C334.721 73.4408 330.948 63.5567 323.391 56.0021C315.834 48.4475 305.936 44.6758 296.037 44.6758H373.383C383.293 44.6758 393.181 48.4475 400.738 56.0021C415.83 71.1001 415.83 95.5832 400.738 110.681L400.749 110.692Z" stroke="#F6F6F4" stroke-width="2.5" stroke-miterlimit="10"/>
<path d="M372.773 122.007H295.993C286.105 122.007 276.24 118.236 268.694 110.692C253.602 95.5942 253.602 71.1111 268.694 56.0131C276.251 48.4585 286.15 44.6868 296.048 44.6868C305.947 44.6868 315.845 48.4585 323.402 56.0131C330.959 63.5677 334.732 73.4518 334.732 83.3582C334.732 93.2646 338.494 103.149 346.051 110.703C353.442 118.091 363.085 121.863 372.784 122.019L372.773 122.007Z" stroke="#F6F6F4" stroke-width="2.5" stroke-miterlimit="10"/>
<path d="M130.657 188.013C123.1 195.567 113.212 199.339 103.303 199.328H102.681C92.9825 199.184 83.3392 195.401 75.9486 188.013C68.3915 180.458 64.6296 170.574 64.6296 160.668C64.6296 150.761 60.8566 140.877 53.2995 133.323C45.7424 125.768 35.8439 121.996 25.9453 121.996H103.292C113.201 121.996 123.089 125.768 130.646 133.323C145.738 148.421 145.738 172.904 130.646 188.002L130.657 188.013Z" stroke="#F6F6F4" stroke-width="2.5" stroke-miterlimit="10"/>
<path d="M102.692 199.328H25.9009C16.0134 199.328 6.14817 195.556 -1.39782 188.013C-16.4898 172.915 -16.4898 148.432 -1.39782 133.334C6.15927 125.779 16.0578 122.007 25.9564 122.007C35.8549 122.007 45.7535 125.779 53.3106 133.334C60.8677 140.888 64.6407 150.772 64.6407 160.679C64.6407 170.585 68.4026 180.469 75.9596 188.024C83.3503 195.412 92.9936 199.184 102.692 199.339V199.328Z" stroke="#F6F6F4" stroke-width="2.5" stroke-miterlimit="10"/>
<path d="M285.35 188.013C277.793 195.567 267.906 199.339 257.996 199.328H257.375C247.676 199.184 238.033 195.401 230.642 188.013C223.085 180.458 219.323 170.574 219.323 160.668C219.323 150.761 215.55 140.877 207.993 133.323C200.436 125.768 190.537 121.996 180.639 121.996H257.985C267.895 121.996 277.782 125.768 285.339 133.323C300.431 148.421 300.431 172.904 285.339 188.002L285.35 188.013Z" stroke="#F6F6F4" stroke-width="2.5" stroke-miterlimit="10"/>
<path d="M257.375 199.328H180.594C170.707 199.328 160.842 195.556 153.296 188.013C138.204 172.915 138.204 148.432 153.296 133.334C160.853 125.779 170.751 122.007 180.65 122.007C190.548 122.007 200.447 125.779 208.004 133.334C215.561 140.888 219.334 150.772 219.334 160.679C219.334 170.585 223.096 180.469 230.653 188.024C238.044 195.412 247.687 199.184 257.386 199.339L257.375 199.328Z" stroke="#F6F6F4" stroke-width="2.5" stroke-miterlimit="10"/>
<path d="M440.032 188.013C432.475 195.567 422.587 199.339 412.678 199.328H412.056C402.358 199.184 392.714 195.401 385.324 188.013C377.766 180.458 374.005 170.574 374.005 160.668C374.005 150.761 370.232 140.877 362.675 133.323C355.117 125.768 345.219 121.996 335.32 121.996H412.667C422.576 121.996 432.464 125.768 440.021 133.323C455.113 148.421 455.113 172.904 440.021 188.002L440.032 188.013Z" stroke="#F6F6F4" stroke-width="2.5" stroke-miterlimit="10"/>
<path d="M412.067 199.328H335.287C325.399 199.328 315.534 195.556 307.988 188.013C292.896 172.915 292.896 148.432 307.988 133.334C315.545 125.779 325.444 122.007 335.342 122.007C345.241 122.007 355.139 125.779 362.696 133.334C370.253 140.888 374.026 150.772 374.026 160.679C374.026 170.585 377.788 180.469 385.345 188.024C392.736 195.412 402.379 199.184 412.078 199.339L412.067 199.328Z" stroke="#F6F6F4" stroke-width="2.5" stroke-miterlimit="10"/>
<path d="M91.3738 265.688C83.8167 273.243 73.9292 277.015 64.0196 277.004H63.3981C53.6993 276.859 44.056 273.077 36.6654 265.688C29.1083 258.134 25.3464 248.25 25.3464 238.343C25.3464 228.437 21.5734 218.553 14.0163 210.998C6.45923 203.444 -3.43933 199.672 -13.3379 199.672H64.0196C73.9292 199.672 83.8167 203.444 91.3738 210.998C106.466 226.096 106.466 250.579 91.3738 265.677V265.688Z" stroke="#F6F6F4" stroke-width="2.5" stroke-miterlimit="10"/>
<path d="M63.3981 276.993H-13.3823C-23.2698 276.993 -33.135 273.221 -40.681 265.677C-55.773 250.579 -55.773 226.096 -40.681 210.998C-33.1239 203.444 -23.2254 199.672 -13.3268 199.672C-3.42826 199.672 6.4703 203.444 14.0274 210.998C21.5845 218.553 25.3575 228.437 25.3575 238.343C25.3575 248.25 29.1194 258.134 36.6764 265.688C44.0671 273.077 53.7104 276.848 63.4092 277.004L63.3981 276.993Z" stroke="#F6F6F4" stroke-width="2.5" stroke-miterlimit="10"/>
<path d="M246.055 265.688C238.498 273.243 228.611 277.015 218.701 277.004H218.08C208.381 276.859 198.738 273.077 191.347 265.688C183.79 258.134 180.028 248.25 180.028 238.343C180.028 228.437 176.255 218.553 168.698 210.998C161.141 203.444 151.242 199.672 141.344 199.672H218.69C228.6 199.672 238.487 203.444 246.044 210.998C261.136 226.096 261.136 250.579 246.044 265.677L246.055 265.688Z" stroke="#F6F6F4" stroke-width="2.5" stroke-miterlimit="10"/>
<path d="M218.091 276.993H141.311C131.424 276.993 121.558 273.221 114.012 265.677C98.9204 250.579 98.9204 226.096 114.012 210.998C121.569 203.444 131.468 199.672 141.367 199.672C151.265 199.672 161.164 203.444 168.721 210.998C176.278 218.553 180.051 228.437 180.051 238.343C180.051 248.25 183.813 258.134 191.37 265.688C198.76 273.077 208.404 276.848 218.103 277.004L218.091 276.993Z" stroke="#F6F6F4" stroke-width="2.5" stroke-miterlimit="10"/>
<path d="M400.749 265.688C393.192 273.243 383.304 277.015 373.395 277.004H372.773C363.074 276.859 353.431 273.077 346.04 265.688C338.483 258.134 334.721 248.25 334.721 238.343C334.721 228.437 330.948 218.553 323.391 210.998C315.834 203.444 305.936 199.672 296.037 199.672H373.383C383.293 199.672 393.181 203.444 400.738 210.998C415.83 226.096 415.83 250.579 400.738 265.677L400.749 265.688Z" stroke="#F6F6F4" stroke-width="2.5" stroke-miterlimit="10"/>
<path d="M372.773 276.993H295.993C286.105 276.993 276.24 273.221 268.694 265.677C253.602 250.579 253.602 226.096 268.694 210.998C276.251 203.444 286.15 199.672 296.048 199.672C305.947 199.672 315.845 203.444 323.402 210.998C330.959 218.553 334.732 228.437 334.732 238.343C334.732 248.25 338.494 258.134 346.051 265.688C353.442 273.077 363.085 276.848 372.784 277.004L372.773 276.993Z" stroke="#F6F6F4" stroke-width="2.5" stroke-miterlimit="10"/>
<path d="M130.657 343.009C123.1 350.564 113.212 354.336 103.303 354.324H102.681C92.9825 354.18 83.3392 350.397 75.9486 343.009C68.3915 335.455 64.6296 325.57 64.6296 315.664C64.6296 305.758 60.8566 295.874 53.2995 288.319C45.7424 280.764 35.8439 276.993 25.9453 276.993H103.292C113.201 276.993 123.089 280.764 130.646 288.319C145.738 303.417 145.738 327.9 130.646 342.998L130.657 343.009Z" stroke="#F6F6F4" stroke-width="2.5" stroke-miterlimit="10"/>
<path d="M102.692 354.324H25.9009C16.0134 354.324 6.14817 350.553 -1.39782 343.009C-16.4898 327.911 -16.4898 303.428 -1.39782 288.33C6.15927 280.775 16.0578 277.004 25.9564 277.004C35.8549 277.004 45.7535 280.775 53.3106 288.33C60.8677 295.885 64.6407 305.769 64.6407 315.675C64.6407 325.581 68.4026 335.466 75.9596 343.02C83.3503 350.408 92.9936 354.18 102.692 354.335V354.324Z" stroke="#F6F6F4" stroke-width="2.5" stroke-miterlimit="10"/>
<path d="M285.35 343.009C277.793 350.564 267.906 354.336 257.996 354.324H257.375C247.676 354.18 238.033 350.397 230.642 343.009C223.085 335.455 219.323 325.57 219.323 315.664C219.323 305.758 215.55 295.874 207.993 288.319C200.436 280.764 190.537 276.993 180.639 276.993H257.985C267.895 276.993 277.782 280.764 285.339 288.319C300.431 303.417 300.431 327.9 285.339 342.998L285.35 343.009Z" stroke="#F6F6F4" stroke-width="2.5" stroke-miterlimit="10"/>
<path d="M257.375 354.324H180.594C170.707 354.324 160.842 350.553 153.296 343.009C138.204 327.911 138.204 303.428 153.296 288.33C160.853 280.775 170.751 277.004 180.65 277.004C190.548 277.004 200.447 280.775 208.004 288.33C215.561 295.885 219.334 305.769 219.334 315.675C219.334 325.581 223.096 335.466 230.653 343.02C238.044 350.408 247.687 354.18 257.386 354.335L257.375 354.324Z" stroke="#F6F6F4" stroke-width="2.5" stroke-miterlimit="10"/>
<path d="M440.032 343.009C432.475 350.564 422.587 354.336 412.678 354.324H412.056C402.358 354.18 392.714 350.397 385.324 343.009C377.766 335.455 374.005 325.57 374.005 315.664C374.005 305.758 370.232 295.874 362.675 288.319C355.117 280.764 345.219 276.993 335.32 276.993H412.667C422.576 276.993 432.464 280.764 440.021 288.319C455.113 303.417 455.113 327.9 440.021 342.998L440.032 343.009Z" stroke="#F6F6F4" stroke-width="2.5" stroke-miterlimit="10"/>
<path d="M412.067 354.324H335.287C325.399 354.324 315.534 350.553 307.988 343.009C292.896 327.911 292.896 303.428 307.988 288.33C315.545 280.775 325.444 277.004 335.342 277.004C345.241 277.004 355.139 280.775 362.696 288.33C370.253 295.885 374.026 305.769 374.026 315.675C374.026 325.581 377.788 335.466 385.345 343.02C392.736 350.408 402.379 354.18 412.078 354.335L412.067 354.324Z" stroke="#F6F6F4" stroke-width="2.5" stroke-miterlimit="10"/>
<path d="M91.3738 420.674C83.8167 428.228 73.9292 432 64.0196 431.989H63.3981C53.6993 431.845 44.056 428.062 36.6654 420.674C29.1083 413.119 25.3464 403.235 25.3464 393.329C25.3464 383.422 21.5734 373.538 14.0163 365.984C6.45923 358.429 -3.43933 354.657 -13.3379 354.657H64.0196C73.9292 354.657 83.8167 358.429 91.3738 365.984C106.466 381.082 106.466 405.565 91.3738 420.663V420.674Z" stroke="#F6F6F4" stroke-width="2.5" stroke-miterlimit="10"/>
<path d="M63.3981 431.989H-13.3823C-23.2698 431.989 -33.135 428.217 -40.681 420.674C-55.773 405.576 -55.773 381.093 -40.681 365.995C-33.1239 358.44 -23.2254 354.668 -13.3268 354.668C-3.42826 354.668 6.4703 358.44 14.0274 365.995C21.5845 373.549 25.3575 383.433 25.3575 393.34C25.3575 403.246 29.1194 413.13 36.6764 420.685C44.0671 428.073 53.7104 431.845 63.4092 432L63.3981 431.989Z" stroke="#F6F6F4" stroke-width="2.5" stroke-miterlimit="10"/>
<path d="M246.055 420.674C238.498 428.228 228.611 432 218.701 431.989H218.08C208.381 431.845 198.738 428.062 191.347 420.674C183.79 413.119 180.028 403.235 180.028 393.329C180.028 383.422 176.255 373.538 168.698 365.984C161.141 358.429 151.242 354.657 141.344 354.657H218.69C228.6 354.657 238.487 358.429 246.044 365.984C261.136 381.082 261.136 405.565 246.044 420.663L246.055 420.674Z" stroke="#F6F6F4" stroke-width="2.5" stroke-miterlimit="10"/>
<path d="M218.091 431.989H141.311C131.424 431.989 121.558 428.217 114.012 420.674C98.9204 405.576 98.9204 381.093 114.012 365.995C121.569 358.44 131.468 354.668 141.367 354.668C151.265 354.668 161.164 358.44 168.721 365.995C176.278 373.549 180.051 383.433 180.051 393.34C180.051 403.246 183.813 413.13 191.37 420.685C198.76 428.073 208.404 431.845 218.103 432L218.091 431.989Z" stroke="#F6F6F4" stroke-width="2.5" stroke-miterlimit="10"/>
<path d="M400.749 420.674C393.192 428.228 383.304 432 373.395 431.989H372.773C363.074 431.845 353.431 428.062 346.04 420.674C338.483 413.119 334.721 403.235 334.721 393.329C334.721 383.422 330.948 373.538 323.391 365.984C315.834 358.429 305.936 354.657 296.037 354.657H373.383C383.293 354.657 393.181 358.429 400.738 365.984C415.83 381.082 415.83 405.565 400.738 420.663L400.749 420.674Z" stroke="#F6F6F4" stroke-width="2.5" stroke-miterlimit="10"/>
<path d="M372.773 431.989H295.993C286.105 431.989 276.24 428.217 268.694 420.674C253.602 405.576 253.602 381.093 268.694 365.995C276.251 358.44 286.15 354.668 296.048 354.668C305.947 354.668 315.845 358.44 323.402 365.995C330.959 373.549 334.732 383.433 334.732 393.34C334.732 403.246 338.494 413.13 346.051 420.685C353.442 428.073 363.085 431.845 372.784 432L372.773 431.989Z" stroke="#F6F6F4" stroke-width="2.5" stroke-miterlimit="10"/>
<path d="M130.657 498.017C123.1 505.571 113.212 509.343 103.303 509.332H102.681C92.9825 509.188 83.3392 505.405 75.9486 498.017C68.3915 490.462 64.6296 480.578 64.6296 470.671C64.6296 460.765 60.8566 450.881 53.2995 443.326C45.7424 435.772 35.8439 432 25.9453 432H103.292C113.201 432 123.089 435.772 130.646 443.326C145.738 458.424 145.738 482.907 130.646 498.005L130.657 498.017Z" stroke="#F6F6F4" stroke-width="2.5" stroke-miterlimit="10"/>
<path d="M102.692 509.332H25.9009C16.0134 509.332 6.14817 505.56 -1.39782 498.017C-16.4898 482.919 -16.4898 458.436 -1.39782 443.338C6.15927 435.783 16.0578 432.011 25.9564 432.011C35.8549 432.011 45.7535 435.783 53.3106 443.338C60.8677 450.892 64.6407 460.776 64.6407 470.683C64.6407 480.589 68.4026 490.473 75.9596 498.028C83.3503 505.416 92.9936 509.188 102.692 509.343V509.332Z" stroke="#F6F6F4" stroke-width="2.5" stroke-miterlimit="10"/>
<path d="M285.35 498.017C277.793 505.571 267.906 509.343 257.996 509.332H257.375C247.676 509.188 238.033 505.405 230.642 498.017C223.085 490.462 219.323 480.578 219.323 470.671C219.323 460.765 215.55 450.881 207.993 443.326C200.436 435.772 190.537 432 180.639 432H257.985C267.895 432 277.782 435.772 285.339 443.326C300.431 458.424 300.431 482.907 285.339 498.005L285.35 498.017Z" stroke="#F6F6F4" stroke-width="2.5" stroke-miterlimit="10"/>
<path d="M257.375 509.332H180.594C170.707 509.332 160.842 505.56 153.296 498.017C138.204 482.919 138.204 458.436 153.296 443.338C160.853 435.783 170.751 432.011 180.65 432.011C190.548 432.011 200.447 435.783 208.004 443.338C215.561 450.892 219.334 460.776 219.334 470.683C219.334 480.589 223.096 490.473 230.653 498.028C238.044 505.416 247.687 509.188 257.386 509.343L257.375 509.332Z" stroke="#F6F6F4" stroke-width="2.5" stroke-miterlimit="10"/>
<path d="M440.032 498.017C432.475 505.571 422.587 509.343 412.678 509.332H412.056C402.358 509.188 392.714 505.405 385.324 498.017C377.766 490.462 374.005 480.578 374.005 470.671C374.005 460.765 370.232 450.881 362.675 443.326C355.117 435.772 345.219 432 335.32 432H412.667C422.576 432 432.464 435.772 440.021 443.326C455.113 458.424 455.113 482.907 440.021 498.005L440.032 498.017Z" stroke="#F6F6F4" stroke-width="2.5" stroke-miterlimit="10"/>
<path d="M412.067 509.332H335.287C325.399 509.332 315.534 505.56 307.988 498.017C292.896 482.919 292.896 458.436 307.988 443.338C315.545 435.783 325.444 432.011 335.342 432.011C345.241 432.011 355.139 435.783 362.696 443.338C370.253 450.892 374.026 460.776 374.026 470.683C374.026 480.589 377.788 490.473 385.345 498.028C392.736 505.416 402.379 509.188 412.078 509.343L412.067 509.332Z" stroke="#F6F6F4" stroke-width="2.5" stroke-miterlimit="10"/>
<path d="M91.3738 575.692C83.8167 583.247 73.9292 587.019 64.0196 587.008H63.3981C53.6993 586.863 44.056 583.081 36.6654 575.692C29.1083 568.138 25.3464 558.254 25.3464 548.347C25.3464 538.441 21.5734 528.557 14.0163 521.002C6.45923 513.448 -3.43933 509.676 -13.3379 509.676H64.0196C73.9292 509.676 83.8167 513.448 91.3738 521.002C106.466 536.1 106.466 560.583 91.3738 575.681V575.692Z" stroke="#F6F6F4" stroke-width="2.5" stroke-miterlimit="10"/>
<path d="M63.3981 587.007H-13.3823C-23.2698 587.007 -33.135 583.236 -40.681 575.692C-55.773 560.594 -55.773 536.111 -40.681 521.013C-33.1239 513.459 -23.2254 509.687 -13.3268 509.687C-3.42826 509.687 6.4703 513.459 14.0274 521.013C21.5845 528.568 25.3575 538.452 25.3575 548.358C25.3575 558.265 29.1194 568.149 36.6764 575.703C44.0671 583.091 53.7104 586.863 63.4092 587.019L63.3981 587.007Z" stroke="#F6F6F4" stroke-width="2.5" stroke-miterlimit="10"/>
<path d="M246.055 575.692C238.498 583.247 228.611 587.019 218.701 587.008H218.08C208.381 586.863 198.738 583.081 191.347 575.692C183.79 568.138 180.028 558.254 180.028 548.347C180.028 538.441 176.255 528.557 168.698 521.002C161.141 513.448 151.242 509.676 141.344 509.676H218.69C228.6 509.676 238.487 513.448 246.044 521.002C261.136 536.1 261.136 560.583 246.044 575.681L246.055 575.692Z" stroke="#F6F6F4" stroke-width="2.5" stroke-miterlimit="10"/>
<path d="M218.091 587.007H141.311C131.424 587.007 121.558 583.236 114.012 575.692C98.9204 560.594 98.9204 536.111 114.012 521.013C121.569 513.459 131.468 509.687 141.367 509.687C151.265 509.687 161.164 513.459 168.721 521.013C176.278 528.568 180.051 538.452 180.051 548.358C180.051 558.265 183.813 568.149 191.37 575.703C198.76 583.091 208.404 586.863 218.103 587.019L218.091 587.007Z" stroke="#F6F6F4" stroke-width="2.5" stroke-miterlimit="10"/>
<path d="M400.749 575.692C393.192 583.247 383.304 587.019 373.395 587.008H372.773C363.074 586.863 353.431 583.081 346.04 575.692C338.483 568.138 334.721 558.254 334.721 548.347C334.721 538.441 330.948 528.557 323.391 521.002C315.834 513.448 305.936 509.676 296.037 509.676H373.383C383.293 509.676 393.181 513.448 400.738 521.002C415.83 536.1 415.83 560.583 400.738 575.681L400.749 575.692Z" stroke="#F6F6F4" stroke-width="2.5" stroke-miterlimit="10"/>
<path d="M372.773 587.007H295.993C286.105 587.007 276.24 583.236 268.694 575.692C253.602 560.594 253.602 536.111 268.694 521.013C276.251 513.459 286.15 509.687 296.048 509.687C305.947 509.687 315.845 513.459 323.402 521.013C330.959 528.568 334.732 538.452 334.732 548.358C334.732 558.265 338.494 568.149 346.051 575.703C353.442 583.091 363.085 586.863 372.784 587.019L372.773 587.007Z" stroke="#F6F6F4" stroke-width="2.5" stroke-miterlimit="10"/>
<path d="M130.657 653.013C123.1 660.567 113.212 664.339 103.303 664.328H102.681C92.9825 664.184 83.3392 660.401 75.9486 653.013C68.3915 645.458 64.6296 635.574 64.6296 625.668C64.6296 615.761 60.8566 605.877 53.2995 598.323C45.7424 590.768 35.8439 586.996 25.9453 586.996H103.292C113.201 586.996 123.089 590.768 130.646 598.323C145.738 613.421 145.738 637.904 130.646 653.002L130.657 653.013Z" stroke="#F6F6F4" stroke-width="2.5" stroke-miterlimit="10"/>
<path d="M102.692 664.328H25.9009C16.0134 664.328 6.14817 660.556 -1.39782 653.013C-16.4898 637.915 -16.4898 613.432 -1.39782 598.334C6.15927 590.779 16.0578 587.007 25.9564 587.007C35.8549 587.007 45.7535 590.779 53.3106 598.334C60.8677 605.888 64.6407 615.772 64.6407 625.679C64.6407 635.585 68.4026 645.469 75.9596 653.024C83.3503 660.412 92.9936 664.184 102.692 664.339V664.328Z" stroke="#F6F6F4" stroke-width="2.5" stroke-miterlimit="10"/>
<path d="M285.35 653.013C277.793 660.567 267.906 664.339 257.996 664.328H257.375C247.676 664.184 238.033 660.401 230.642 653.013C223.085 645.458 219.323 635.574 219.323 625.668C219.323 615.761 215.55 605.877 207.993 598.323C200.436 590.768 190.537 586.996 180.639 586.996H257.985C267.895 586.996 277.782 590.768 285.339 598.323C300.431 613.421 300.431 637.904 285.339 653.002L285.35 653.013Z" stroke="#F6F6F4" stroke-width="2.5" stroke-miterlimit="10"/>
<path d="M257.375 664.328H180.594C170.707 664.328 160.842 660.556 153.296 653.013C138.204 637.915 138.204 613.432 153.296 598.334C160.853 590.779 170.751 587.007 180.65 587.007C190.548 587.007 200.447 590.779 208.004 598.334C215.561 605.888 219.334 615.772 219.334 625.679C219.334 635.585 223.096 645.469 230.653 653.024C238.044 660.412 247.687 664.184 257.386 664.339L257.375 664.328Z" stroke="#F6F6F4" stroke-width="2.5" stroke-miterlimit="10"/>
<path d="M440.032 653.013C432.475 660.567 422.587 664.339 412.678 664.328H412.056C402.358 664.184 392.714 660.401 385.324 653.013C377.766 645.458 374.005 635.574 374.005 625.668C374.005 615.761 370.232 605.877 362.675 598.323C355.117 590.768 345.219 586.996 335.32 586.996H412.667C422.576 586.996 432.464 590.768 440.021 598.323C455.113 613.421 455.113 637.904 440.021 653.002L440.032 653.013Z" stroke="#F6F6F4" stroke-width="2.5" stroke-miterlimit="10"/>
<path d="M412.067 664.328H335.287C325.399 664.328 315.534 660.556 307.988 653.013C292.896 637.915 292.896 613.432 307.988 598.334C315.545 590.779 325.444 587.007 335.342 587.007C345.241 587.007 355.139 590.779 362.696 598.334C370.253 605.888 374.026 615.772 374.026 625.679C374.026 635.585 377.788 645.469 385.345 653.024C392.736 660.412 402.379 664.184 412.078 664.339L412.067 664.328Z" stroke="#F6F6F4" stroke-width="2.5" stroke-miterlimit="10"/>
<path d="M91.3738 730.688C83.8167 738.243 73.9292 742.015 64.0196 742.004H63.3981C53.6993 741.859 44.056 738.077 36.6654 730.688C29.1083 723.134 25.3464 713.25 25.3464 703.343C25.3464 693.437 21.5734 683.553 14.0163 675.998C6.45923 668.444 -3.43933 664.672 -13.3379 664.672H64.0196C73.9292 664.672 83.8167 668.444 91.3738 675.998C106.466 691.096 106.466 715.579 91.3738 730.677V730.688Z" stroke="#F6F6F4" stroke-width="2.5" stroke-miterlimit="10"/>
<path d="M63.3981 741.993H-13.3823C-23.2698 741.993 -33.135 738.221 -40.681 730.677C-55.773 715.579 -55.773 691.096 -40.681 675.998C-33.1239 668.444 -23.2254 664.672 -13.3268 664.672C-3.42826 664.672 6.4703 668.444 14.0274 675.998C21.5845 683.553 25.3575 693.437 25.3575 703.343C25.3575 713.25 29.1194 723.134 36.6764 730.688C44.0671 738.077 53.7104 741.848 63.4092 742.004L63.3981 741.993Z" stroke="#F6F6F4" stroke-width="2.5" stroke-miterlimit="10"/>
<path d="M246.055 730.688C238.498 738.243 228.611 742.015 218.701 742.004H218.08C208.381 741.859 198.738 738.077 191.347 730.688C183.79 723.134 180.028 713.25 180.028 703.343C180.028 693.437 176.255 683.553 168.698 675.998C161.141 668.444 151.242 664.672 141.344 664.672H218.69C228.6 664.672 238.487 668.444 246.044 675.998C261.136 691.096 261.136 715.579 246.044 730.677L246.055 730.688Z" stroke="#F6F6F4" stroke-width="2.5" stroke-miterlimit="10"/>
<path d="M218.091 741.993H141.311C131.424 741.993 121.558 738.221 114.012 730.677C98.9204 715.579 98.9204 691.096 114.012 675.998C121.569 668.444 131.468 664.672 141.367 664.672C151.265 664.672 161.164 668.444 168.721 675.998C176.278 683.553 180.051 693.437 180.051 703.343C180.051 713.25 183.813 723.134 191.37 730.688C198.76 738.077 208.404 741.848 218.103 742.004L218.091 741.993Z" stroke="#F6F6F4" stroke-width="2.5" stroke-miterlimit="10"/>
<path d="M400.749 730.688C393.192 738.243 383.304 742.015 373.395 742.004H372.773C363.074 741.859 353.431 738.077 346.04 730.688C338.483 723.134 334.721 713.25 334.721 703.343C334.721 693.437 330.948 683.553 323.391 675.998C315.834 668.444 305.936 664.672 296.037 664.672H373.383C383.293 664.672 393.181 668.444 400.738 675.998C415.83 691.096 415.83 715.579 400.738 730.677L400.749 730.688Z" stroke="#F6F6F4" stroke-width="2.5" stroke-miterlimit="10"/>
<path d="M372.773 741.993H295.993C286.105 741.993 276.24 738.221 268.694 730.677C253.602 715.579 253.602 691.096 268.694 675.998C276.251 668.444 286.15 664.672 296.048 664.672C305.947 664.672 315.845 668.444 323.402 675.998C330.959 683.553 334.732 693.437 334.732 703.343C334.732 713.25 338.494 723.134 346.051 730.688C353.442 738.077 363.085 741.848 372.784 742.004L372.773 741.993Z" stroke="#F6F6F4" stroke-width="2.5" stroke-miterlimit="10"/>
<path d="M130.657 808.009C123.1 815.564 113.212 819.336 103.303 819.324H102.681C92.9825 819.18 83.3392 815.397 75.9486 808.009C68.3915 800.455 64.6296 790.57 64.6296 780.664C64.6296 770.758 60.8566 760.874 53.2995 753.319C45.7424 745.764 35.8439 741.993 25.9453 741.993H103.292C113.201 741.993 123.089 745.764 130.646 753.319C145.738 768.417 145.738 792.9 130.646 807.998L130.657 808.009Z" stroke="#F6F6F4" stroke-width="2.5" stroke-miterlimit="10"/>
<path d="M102.692 819.324H25.9009C16.0134 819.324 6.14817 815.553 -1.39782 808.009C-16.4898 792.911 -16.4898 768.428 -1.39782 753.33C6.15927 745.775 16.0578 742.004 25.9564 742.004C35.8549 742.004 45.7535 745.775 53.3106 753.33C60.8677 760.885 64.6407 770.769 64.6407 780.675C64.6407 790.581 68.4026 800.466 75.9596 808.02C83.3503 815.408 92.9936 819.18 102.692 819.335V819.324Z" stroke="#F6F6F4" stroke-width="2.5" stroke-miterlimit="10"/>
<path d="M285.35 808.009C277.793 815.564 267.906 819.336 257.996 819.324H257.375C247.676 819.18 238.033 815.397 230.642 808.009C223.085 800.455 219.323 790.57 219.323 780.664C219.323 770.758 215.55 760.874 207.993 753.319C200.436 745.764 190.537 741.993 180.639 741.993H257.985C267.895 741.993 277.782 745.764 285.339 753.319C300.431 768.417 300.431 792.9 285.339 807.998L285.35 808.009Z" stroke="#F6F6F4" stroke-width="2.5" stroke-miterlimit="10"/>
<path d="M257.375 819.324H180.594C170.707 819.324 160.842 815.553 153.296 808.009C138.204 792.911 138.204 768.428 153.296 753.33C160.853 745.775 170.751 742.004 180.65 742.004C190.548 742.004 200.447 745.775 208.004 753.33C215.561 760.885 219.334 770.769 219.334 780.675C219.334 790.581 223.096 800.466 230.653 808.02C238.044 815.408 247.687 819.18 257.386 819.335L257.375 819.324Z" stroke="#F6F6F4" stroke-width="2.5" stroke-miterlimit="10"/>
<path d="M440.032 808.009C432.475 815.564 422.587 819.336 412.678 819.324H412.056C402.358 819.18 392.714 815.397 385.324 808.009C377.766 800.455 374.005 790.57 374.005 780.664C374.005 770.758 370.232 760.874 362.675 753.319C355.117 745.764 345.219 741.993 335.32 741.993H412.667C422.576 741.993 432.464 745.764 440.021 753.319C455.113 768.417 455.113 792.9 440.021 807.998L440.032 808.009Z" stroke="#F6F6F4" stroke-width="2.5" stroke-miterlimit="10"/>
<path d="M412.067 819.324H335.287C325.399 819.324 315.534 815.553 307.988 808.009C292.896 792.911 292.896 768.428 307.988 753.33C315.545 745.775 325.444 742.004 335.342 742.004C345.241 742.004 355.139 745.775 362.696 753.33C370.253 760.885 374.026 770.769 374.026 780.675C374.026 790.581 377.788 800.466 385.345 808.02C392.736 815.408 402.379 819.18 412.078 819.335L412.067 819.324Z" stroke="#F6F6F4" stroke-width="2.5" stroke-miterlimit="10"/>
<path d="M91.3738 885.674C83.8167 893.228 73.9292 897 64.0196 896.989H63.3981C53.6993 896.845 44.056 893.062 36.6654 885.674C29.1083 878.119 25.3464 868.235 25.3464 858.329C25.3464 848.422 21.5734 838.538 14.0163 830.984C6.45923 823.429 -3.43933 819.657 -13.3379 819.657H64.0196C73.9292 819.657 83.8167 823.429 91.3738 830.984C106.466 846.082 106.466 870.565 91.3738 885.663V885.674Z" stroke="#F6F6F4" stroke-width="2.5" stroke-miterlimit="10"/>
<path d="M63.3981 896.989H-13.3823C-23.2698 896.989 -33.135 893.217 -40.681 885.674C-55.773 870.576 -55.773 846.093 -40.681 830.995C-33.1239 823.44 -23.2254 819.668 -13.3268 819.668C-3.42826 819.668 6.4703 823.44 14.0274 830.995C21.5845 838.549 25.3575 848.433 25.3575 858.34C25.3575 868.246 29.1194 878.13 36.6764 885.685C44.0671 893.073 53.7104 896.845 63.4092 897L63.3981 896.989Z" stroke="#F6F6F4" stroke-width="2.5" stroke-miterlimit="10"/>
<path d="M246.055 885.674C238.498 893.228 228.611 897 218.701 896.989H218.08C208.381 896.845 198.738 893.062 191.347 885.674C183.79 878.119 180.028 868.235 180.028 858.329C180.028 848.422 176.255 838.538 168.698 830.984C161.141 823.429 151.242 819.657 141.344 819.657H218.69C228.6 819.657 238.487 823.429 246.044 830.984C261.136 846.082 261.136 870.565 246.044 885.663L246.055 885.674Z" stroke="#F6F6F4" stroke-width="2.5" stroke-miterlimit="10"/>
<path d="M218.091 896.989H141.311C131.424 896.989 121.558 893.217 114.012 885.674C98.9204 870.576 98.9204 846.093 114.012 830.995C121.569 823.44 131.468 819.668 141.367 819.668C151.265 819.668 161.164 823.44 168.721 830.995C176.278 838.549 180.051 848.433 180.051 858.34C180.051 868.246 183.813 878.13 191.37 885.685C198.76 893.073 208.404 896.845 218.103 897L218.091 896.989Z" stroke="#F6F6F4" stroke-width="2.5" stroke-miterlimit="10"/>
<path d="M400.749 885.674C393.192 893.228 383.304 897 373.395 896.989H372.773C363.074 896.845 353.431 893.062 346.04 885.674C338.483 878.119 334.721 868.235 334.721 858.329C334.721 848.422 330.948 838.538 323.391 830.984C315.834 823.429 305.936 819.657 296.037 819.657H373.383C383.293 819.657 393.181 823.429 400.738 830.984C415.83 846.082 415.83 870.565 400.738 885.663L400.749 885.674Z" stroke="#F6F6F4" stroke-width="2.5" stroke-miterlimit="10"/>
<path d="M372.773 896.989H295.993C286.105 896.989 276.24 893.217 268.694 885.674C253.602 870.576 253.602 846.093 268.694 830.995C276.251 823.44 286.15 819.668 296.048 819.668C305.947 819.668 315.845 823.44 323.402 830.995C330.959 838.549 334.732 848.433 334.732 858.34C334.732 868.246 338.494 878.13 346.051 885.685C353.442 893.073 363.085 896.845 372.784 897L372.773 896.989Z" stroke="#F6F6F4" stroke-width="2.5" stroke-miterlimit="10"/>
<path d="M594.514 33.0165C586.957 40.5711 577.07 44.3429 567.16 44.3318H566.539C556.84 44.1876 547.197 40.4047 539.806 33.0165C532.249 25.462 528.487 15.5778 528.487 5.67143C528.487 -4.23494 524.714 -14.1191 517.157 -21.6737C509.6 -29.2283 499.701 -33 489.803 -33H567.149C577.059 -33 586.946 -29.2283 594.503 -21.6737C609.595 -6.57563 609.595 17.9074 594.503 33.0055L594.514 33.0165Z" stroke="#F6F6F4" stroke-width="2.5" stroke-miterlimit="10"/>
<path d="M566.55 44.3319H489.758C479.871 44.3319 470.006 40.5602 462.46 33.0167C447.368 17.9186 447.368 -6.56441 462.46 -21.6625C470.017 -29.217 479.915 -32.9888 489.814 -32.9888C499.712 -32.9888 509.611 -29.217 517.168 -21.6625C524.725 -14.1079 528.498 -4.22371 528.498 5.68266C528.498 15.589 532.26 25.4732 539.817 33.0278C547.208 40.4159 556.851 44.1877 566.55 44.343V44.3319Z" stroke="#F6F6F4" stroke-width="2.5" stroke-miterlimit="10"/>
<path d="M749.206 33.0165C741.649 40.5711 731.761 44.3429 721.852 44.3318H721.23C711.531 44.1876 701.888 40.4047 694.497 33.0165C686.94 25.462 683.178 15.5778 683.178 5.67143C683.178 -4.23494 679.405 -14.1191 671.848 -21.6737C664.291 -29.2283 654.393 -33 644.494 -33H721.84C731.75 -33 741.638 -29.2283 749.195 -21.6737C764.287 -6.57563 764.287 17.9074 749.195 33.0055L749.206 33.0165Z" stroke="#F6F6F4" stroke-width="2.5" stroke-miterlimit="10"/>
<path d="M721.23 44.3319H644.45C634.562 44.3319 624.697 40.5602 617.151 33.0167C602.059 17.9186 602.059 -6.56441 617.151 -21.6625C624.708 -29.217 634.607 -32.9888 644.505 -32.9888C654.404 -32.9888 664.302 -29.217 671.859 -21.6625C679.417 -14.1079 683.189 -4.22371 683.189 5.68266C683.189 15.589 686.951 25.4732 694.508 33.0278C701.899 40.4159 711.542 44.1877 721.241 44.343L721.23 44.3319Z" stroke="#F6F6F4" stroke-width="2.5" stroke-miterlimit="10"/>
<path d="M903.888 33.0165C896.331 40.5711 886.444 44.3429 876.534 44.3318H875.913C866.214 44.1876 856.571 40.4047 849.18 33.0165C841.623 25.462 837.861 15.5778 837.861 5.67143C837.861 -4.23494 834.088 -14.1191 826.531 -21.6737C818.974 -29.2283 809.075 -33 799.177 -33H876.523C886.433 -33 896.32 -29.2283 903.877 -21.6737C918.969 -6.57563 918.969 17.9074 903.877 33.0055L903.888 33.0165Z" stroke="#F6F6F4" stroke-width="2.5" stroke-miterlimit="10"/>
<path d="M875.924 44.3319H799.143C789.256 44.3319 779.39 40.5602 771.844 33.0167C756.752 17.9186 756.752 -6.56441 771.844 -21.6625C779.401 -29.217 789.3 -32.9888 799.199 -32.9888C809.097 -32.9888 818.996 -29.217 826.553 -21.6625C834.11 -14.1079 837.883 -4.22371 837.883 5.68266C837.883 15.589 841.645 25.4732 849.202 33.0278C856.592 40.4159 866.236 44.1877 875.935 44.343L875.924 44.3319Z" stroke="#F6F6F4" stroke-width="2.5" stroke-miterlimit="10"/>
<path d="M555.23 110.692C547.673 118.247 537.786 122.019 527.876 122.008H527.255C517.556 121.863 507.912 118.081 500.522 110.692C492.965 103.138 489.203 93.2536 489.203 83.3472C489.203 73.4408 485.43 63.5567 477.873 56.0021C470.316 48.4475 460.417 44.6758 450.519 44.6758H527.876C537.786 44.6758 547.673 48.4475 555.23 56.0021C570.322 71.1001 570.322 95.5832 555.23 110.681V110.692Z" stroke="#F6F6F4" stroke-width="2.5" stroke-miterlimit="10"/>
<path d="M527.255 122.007H450.474C440.587 122.007 430.721 118.236 423.175 110.692C408.083 95.5942 408.083 71.1111 423.175 56.0131C430.733 48.4585 440.631 44.6868 450.53 44.6868C460.428 44.6868 470.327 48.4585 477.884 56.0131C485.441 63.5677 489.214 73.4518 489.214 83.3582C489.214 93.2646 492.976 103.149 500.533 110.703C507.924 118.091 517.567 121.863 527.266 122.019L527.255 122.007Z" stroke="#F6F6F4" stroke-width="2.5" stroke-miterlimit="10"/>
<path d="M709.913 110.692C702.356 118.247 692.468 122.019 682.559 122.008H681.937C672.238 121.863 662.595 118.081 655.204 110.692C647.647 103.138 643.885 93.2536 643.885 83.3472C643.885 73.4408 640.112 63.5567 632.555 56.0021C624.998 48.4475 615.1 44.6758 605.201 44.6758H682.548C692.457 44.6758 702.345 48.4475 709.902 56.0021C724.994 71.1001 724.994 95.5832 709.902 110.681L709.913 110.692Z" stroke="#F6F6F4" stroke-width="2.5" stroke-miterlimit="10"/>
<path d="M681.948 122.007H605.167C595.28 122.007 585.415 118.236 577.869 110.692C562.777 95.5942 562.777 71.1111 577.869 56.0131C585.426 48.4585 595.324 44.6868 605.223 44.6868C615.122 44.6868 625.02 48.4585 632.577 56.0131C640.134 63.5677 643.907 73.4518 643.907 83.3582C643.907 93.2646 647.669 103.149 655.226 110.703C662.617 118.091 672.26 121.863 681.959 122.019L681.948 122.007Z" stroke="#F6F6F4" stroke-width="2.5" stroke-miterlimit="10"/>
<path d="M864.605 110.692C857.048 118.247 847.161 122.019 837.251 122.008H836.63C826.931 121.863 817.287 118.081 809.897 110.692C802.34 103.138 798.578 93.2536 798.578 83.3472C798.578 73.4408 794.805 63.5567 787.248 56.0021C779.691 48.4475 769.792 44.6758 759.894 44.6758H837.24C847.15 44.6758 857.037 48.4475 864.594 56.0021C879.686 71.1001 879.686 95.5832 864.594 110.681L864.605 110.692Z" stroke="#F6F6F4" stroke-width="2.5" stroke-miterlimit="10"/>
<path d="M836.63 122.007H759.849C749.962 122.007 740.096 118.236 732.55 110.692C717.458 95.5942 717.458 71.1111 732.55 56.0131C740.108 48.4585 750.006 44.6868 759.905 44.6868C769.803 44.6868 779.702 48.4585 787.259 56.0131C794.816 63.5677 798.589 73.4518 798.589 83.3582C798.589 93.2646 802.351 103.149 809.908 110.703C817.299 118.091 826.942 121.863 836.641 122.019L836.63 122.007Z" stroke="#F6F6F4" stroke-width="2.5" stroke-miterlimit="10"/>
<path d="M594.514 188.013C586.957 195.567 577.07 199.339 567.16 199.328H566.539C556.84 199.184 547.197 195.401 539.806 188.013C532.249 180.458 528.487 170.574 528.487 160.668C528.487 150.761 524.714 140.877 517.157 133.323C509.6 125.768 499.701 121.996 489.803 121.996H567.149C577.059 121.996 586.946 125.768 594.503 133.323C609.595 148.421 609.595 172.904 594.503 188.002L594.514 188.013Z" stroke="#F6F6F4" stroke-width="2.5" stroke-miterlimit="10"/>
<path d="M566.55 199.328H489.758C479.871 199.328 470.006 195.556 462.46 188.013C447.368 172.915 447.368 148.432 462.46 133.334C470.017 125.779 479.915 122.007 489.814 122.007C499.712 122.007 509.611 125.779 517.168 133.334C524.725 140.888 528.498 150.772 528.498 160.679C528.498 170.585 532.26 180.469 539.817 188.024C547.208 195.412 556.851 199.184 566.55 199.339V199.328Z" stroke="#F6F6F4" stroke-width="2.5" stroke-miterlimit="10"/>
<path d="M749.206 188.013C741.649 195.567 731.761 199.339 721.852 199.328H721.23C711.531 199.184 701.888 195.401 694.497 188.013C686.94 180.458 683.178 170.574 683.178 160.668C683.178 150.761 679.405 140.877 671.848 133.323C664.291 125.768 654.393 121.996 644.494 121.996H721.84C731.75 121.996 741.638 125.768 749.195 133.323C764.287 148.421 764.287 172.904 749.195 188.002L749.206 188.013Z" stroke="#F6F6F4" stroke-width="2.5" stroke-miterlimit="10"/>
<path d="M721.23 199.328H644.45C634.562 199.328 624.697 195.556 617.151 188.013C602.059 172.915 602.059 148.432 617.151 133.334C624.708 125.779 634.607 122.007 644.505 122.007C654.404 122.007 664.302 125.779 671.859 133.334C679.417 140.888 683.189 150.772 683.189 160.679C683.189 170.585 686.951 180.469 694.508 188.024C701.899 195.412 711.542 199.184 721.241 199.339L721.23 199.328Z" stroke="#F6F6F4" stroke-width="2.5" stroke-miterlimit="10"/>
<path d="M903.888 188.013C896.331 195.567 886.444 199.339 876.534 199.328H875.913C866.214 199.184 856.571 195.401 849.18 188.013C841.623 180.458 837.861 170.574 837.861 160.668C837.861 150.761 834.088 140.877 826.531 133.323C818.974 125.768 809.075 121.996 799.177 121.996H876.523C886.433 121.996 896.32 125.768 903.877 133.323C918.969 148.421 918.969 172.904 903.877 188.002L903.888 188.013Z" stroke="#F6F6F4" stroke-width="2.5" stroke-miterlimit="10"/>
<path d="M875.924 199.328H799.143C789.256 199.328 779.39 195.556 771.844 188.013C756.752 172.915 756.752 148.432 771.844 133.334C779.401 125.779 789.3 122.007 799.199 122.007C809.097 122.007 818.996 125.779 826.553 133.334C834.11 140.888 837.883 150.772 837.883 160.679C837.883 170.585 841.645 180.469 849.202 188.024C856.592 195.412 866.236 199.184 875.935 199.339L875.924 199.328Z" stroke="#F6F6F4" stroke-width="2.5" stroke-miterlimit="10"/>
<path d="M555.23 265.688C547.673 273.243 537.786 277.015 527.876 277.004H527.255C517.556 276.859 507.912 273.077 500.522 265.688C492.965 258.134 489.203 248.25 489.203 238.343C489.203 228.437 485.43 218.553 477.873 210.998C470.316 203.444 460.417 199.672 450.519 199.672H527.876C537.786 199.672 547.673 203.444 555.23 210.998C570.322 226.096 570.322 250.579 555.23 265.677V265.688Z" stroke="#F6F6F4" stroke-width="2.5" stroke-miterlimit="10"/>
<path d="M527.255 276.993H450.474C440.587 276.993 430.721 273.221 423.175 265.677C408.083 250.579 408.083 226.096 423.175 210.998C430.733 203.444 440.631 199.672 450.53 199.672C460.428 199.672 470.327 203.444 477.884 210.998C485.441 218.553 489.214 228.437 489.214 238.343C489.214 248.25 492.976 258.134 500.533 265.688C507.924 273.077 517.567 276.848 527.266 277.004L527.255 276.993Z" stroke="#F6F6F4" stroke-width="2.5" stroke-miterlimit="10"/>
<path d="M709.913 265.688C702.356 273.243 692.468 277.015 682.559 277.004H681.937C672.238 276.859 662.595 273.077 655.204 265.688C647.647 258.134 643.885 248.25 643.885 238.343C643.885 228.437 640.112 218.553 632.555 210.998C624.998 203.444 615.1 199.672 605.201 199.672H682.548C692.457 199.672 702.345 203.444 709.902 210.998C724.994 226.096 724.994 250.579 709.902 265.677L709.913 265.688Z" stroke="#F6F6F4" stroke-width="2.5" stroke-miterlimit="10"/>
<path d="M681.948 276.993H605.167C595.28 276.993 585.415 273.221 577.869 265.677C562.777 250.579 562.777 226.096 577.869 210.998C585.426 203.444 595.324 199.672 605.223 199.672C615.122 199.672 625.02 203.444 632.577 210.998C640.134 218.553 643.907 228.437 643.907 238.343C643.907 248.25 647.669 258.134 655.226 265.688C662.617 273.077 672.26 276.848 681.959 277.004L681.948 276.993Z" stroke="#F6F6F4" stroke-width="2.5" stroke-miterlimit="10"/>
<path d="M864.605 265.688C857.048 273.243 847.161 277.015 837.251 277.004H836.63C826.931 276.859 817.287 273.077 809.897 265.688C802.34 258.134 798.578 248.25 798.578 238.343C798.578 228.437 794.805 218.553 787.248 210.998C779.691 203.444 769.792 199.672 759.894 199.672H837.24C847.15 199.672 857.037 203.444 864.594 210.998C879.686 226.096 879.686 250.579 864.594 265.677L864.605 265.688Z" stroke="#F6F6F4" stroke-width="2.5" stroke-miterlimit="10"/>
<path d="M836.63 276.993H759.849C749.962 276.993 740.096 273.221 732.55 265.677C717.458 250.579 717.458 226.096 732.55 210.998C740.108 203.444 750.006 199.672 759.905 199.672C769.803 199.672 779.702 203.444 787.259 210.998C794.816 218.553 798.589 228.437 798.589 238.343C798.589 248.25 802.351 258.134 809.908 265.688C817.299 273.077 826.942 276.848 836.641 277.004L836.63 276.993Z" stroke="#F6F6F4" stroke-width="2.5" stroke-miterlimit="10"/>
<path d="M594.514 343.009C586.957 350.564 577.07 354.336 567.16 354.324H566.539C556.84 354.18 547.197 350.397 539.806 343.009C532.249 335.455 528.487 325.57 528.487 315.664C528.487 305.758 524.714 295.874 517.157 288.319C509.6 280.764 499.701 276.993 489.803 276.993H567.149C577.059 276.993 586.946 280.764 594.503 288.319C609.595 303.417 609.595 327.9 594.503 342.998L594.514 343.009Z" stroke="#F6F6F4" stroke-width="2.5" stroke-miterlimit="10"/>
<path d="M566.55 354.324H489.758C479.871 354.324 470.006 350.553 462.46 343.009C447.368 327.911 447.368 303.428 462.46 288.33C470.017 280.775 479.915 277.004 489.814 277.004C499.712 277.004 509.611 280.775 517.168 288.33C524.725 295.885 528.498 305.769 528.498 315.675C528.498 325.581 532.26 335.466 539.817 343.02C547.208 350.408 556.851 354.18 566.55 354.335V354.324Z" stroke="#F6F6F4" stroke-width="2.5" stroke-miterlimit="10"/>
<path d="M749.206 343.009C741.649 350.564 731.761 354.336 721.852 354.324H721.23C711.531 354.18 701.888 350.397 694.497 343.009C686.94 335.455 683.178 325.57 683.178 315.664C683.178 305.758 679.405 295.874 671.848 288.319C664.291 280.764 654.393 276.993 644.494 276.993H721.84C731.75 276.993 741.638 280.764 749.195 288.319C764.287 303.417 764.287 327.9 749.195 342.998L749.206 343.009Z" stroke="#F6F6F4" stroke-width="2.5" stroke-miterlimit="10"/>
<path d="M721.23 354.324H644.45C634.562 354.324 624.697 350.553 617.151 343.009C602.059 327.911 602.059 303.428 617.151 288.33C624.708 280.775 634.607 277.004 644.505 277.004C654.404 277.004 664.302 280.775 671.859 288.33C679.417 295.885 683.189 305.769 683.189 315.675C683.189 325.581 686.951 335.466 694.508 343.02C701.899 350.408 711.542 354.18 721.241 354.335L721.23 354.324Z" stroke="#F6F6F4" stroke-width="2.5" stroke-miterlimit="10"/>
<path d="M903.888 343.009C896.331 350.564 886.444 354.336 876.534 354.324H875.913C866.214 354.18 856.571 350.397 849.18 343.009C841.623 335.455 837.861 325.57 837.861 315.664C837.861 305.758 834.088 295.874 826.531 288.319C818.974 280.764 809.075 276.993 799.177 276.993H876.523C886.433 276.993 896.32 280.764 903.877 288.319C918.969 303.417 918.969 327.9 903.877 342.998L903.888 343.009Z" stroke="#F6F6F4" stroke-width="2.5" stroke-miterlimit="10"/>
<path d="M875.924 354.324H799.143C789.256 354.324 779.39 350.553 771.844 343.009C756.752 327.911 756.752 303.428 771.844 288.33C779.401 280.775 789.3 277.004 799.199 277.004C809.097 277.004 818.996 280.775 826.553 288.33C834.11 295.885 837.883 305.769 837.883 315.675C837.883 325.581 841.645 335.466 849.202 343.02C856.592 350.408 866.236 354.18 875.935 354.335L875.924 354.324Z" stroke="#F6F6F4" stroke-width="2.5" stroke-miterlimit="10"/>
<path d="M555.23 420.674C547.673 428.228 537.786 432 527.876 431.989H527.255C517.556 431.845 507.912 428.062 500.522 420.674C492.965 413.119 489.203 403.235 489.203 393.329C489.203 383.422 485.43 373.538 477.873 365.984C470.316 358.429 460.417 354.657 450.519 354.657H527.876C537.786 354.657 547.673 358.429 555.23 365.984C570.322 381.082 570.322 405.565 555.23 420.663V420.674Z" stroke="#F6F6F4" stroke-width="2.5" stroke-miterlimit="10"/>
<path d="M527.255 431.989H450.474C440.587 431.989 430.721 428.217 423.175 420.674C408.083 405.576 408.083 381.093 423.175 365.995C430.733 358.44 440.631 354.668 450.53 354.668C460.428 354.668 470.327 358.44 477.884 365.995C485.441 373.549 489.214 383.433 489.214 393.34C489.214 403.246 492.976 413.13 500.533 420.685C507.924 428.073 517.567 431.845 527.266 432L527.255 431.989Z" stroke="#F6F6F4" stroke-width="2.5" stroke-miterlimit="10"/>
<path d="M709.913 420.674C702.356 428.228 692.468 432 682.559 431.989H681.937C672.238 431.845 662.595 428.062 655.204 420.674C647.647 413.119 643.885 403.235 643.885 393.329C643.885 383.422 640.112 373.538 632.555 365.984C624.998 358.429 615.1 354.657 605.201 354.657H682.548C692.457 354.657 702.345 358.429 709.902 365.984C724.994 381.082 724.994 405.565 709.902 420.663L709.913 420.674Z" stroke="#F6F6F4" stroke-width="2.5" stroke-miterlimit="10"/>
<path d="M681.948 431.989H605.167C595.28 431.989 585.415 428.217 577.869 420.674C562.777 405.576 562.777 381.093 577.869 365.995C585.426 358.44 595.324 354.668 605.223 354.668C615.122 354.668 625.02 358.44 632.577 365.995C640.134 373.549 643.907 383.433 643.907 393.34C643.907 403.246 647.669 413.13 655.226 420.685C662.617 428.073 672.26 431.845 681.959 432L681.948 431.989Z" stroke="#F6F6F4" stroke-width="2.5" stroke-miterlimit="10"/>
<path d="M864.605 420.674C857.048 428.228 847.161 432 837.251 431.989H836.63C826.931 431.845 817.287 428.062 809.897 420.674C802.34 413.119 798.578 403.235 798.578 393.329C798.578 383.422 794.805 373.538 787.248 365.984C779.691 358.429 769.792 354.657 759.894 354.657H837.24C847.15 354.657 857.037 358.429 864.594 365.984C879.686 381.082 879.686 405.565 864.594 420.663L864.605 420.674Z" stroke="#F6F6F4" stroke-width="2.5" stroke-miterlimit="10"/>
<path d="M836.63 431.989H759.849C749.962 431.989 740.096 428.217 732.55 420.674C717.458 405.576 717.458 381.093 732.55 365.995C740.108 358.44 750.006 354.668 759.905 354.668C769.803 354.668 779.702 358.44 787.259 365.995C794.816 373.549 798.589 383.433 798.589 393.34C798.589 403.246 802.351 413.13 809.908 420.685C817.299 428.073 826.942 431.845 836.641 432L836.63 431.989Z" stroke="#F6F6F4" stroke-width="2.5" stroke-miterlimit="10"/>
<path d="M594.514 498.017C586.957 505.571 577.07 509.343 567.16 509.332H566.539C556.84 509.188 547.197 505.405 539.806 498.017C532.249 490.462 528.487 480.578 528.487 470.671C528.487 460.765 524.714 450.881 517.157 443.326C509.6 435.772 499.701 432 489.803 432H567.149C577.059 432 586.946 435.772 594.503 443.326C609.595 458.424 609.595 482.907 594.503 498.005L594.514 498.017Z" stroke="#F6F6F4" stroke-width="2.5" stroke-miterlimit="10"/>
<path d="M566.55 509.332H489.758C479.871 509.332 470.006 505.56 462.46 498.017C447.368 482.919 447.368 458.436 462.46 443.338C470.017 435.783 479.915 432.011 489.814 432.011C499.712 432.011 509.611 435.783 517.168 443.338C524.725 450.892 528.498 460.776 528.498 470.683C528.498 480.589 532.26 490.473 539.817 498.028C547.208 505.416 556.851 509.188 566.55 509.343V509.332Z" stroke="#F6F6F4" stroke-width="2.5" stroke-miterlimit="10"/>
<path d="M749.206 498.017C741.649 505.571 731.761 509.343 721.852 509.332H721.23C711.531 509.188 701.888 505.405 694.497 498.017C686.94 490.462 683.178 480.578 683.178 470.671C683.178 460.765 679.405 450.881 671.848 443.326C664.291 435.772 654.393 432 644.494 432H721.84C731.75 432 741.638 435.772 749.195 443.326C764.287 458.424 764.287 482.907 749.195 498.005L749.206 498.017Z" stroke="#F6F6F4" stroke-width="2.5" stroke-miterlimit="10"/>
<path d="M721.23 509.332H644.45C634.562 509.332 624.697 505.56 617.151 498.017C602.059 482.919 602.059 458.436 617.151 443.338C624.708 435.783 634.607 432.011 644.505 432.011C654.404 432.011 664.302 435.783 671.859 443.338C679.417 450.892 683.189 460.776 683.189 470.683C683.189 480.589 686.951 490.473 694.508 498.028C701.899 505.416 711.542 509.188 721.241 509.343L721.23 509.332Z" stroke="#F6F6F4" stroke-width="2.5" stroke-miterlimit="10"/>
<path d="M903.888 498.017C896.331 505.571 886.444 509.343 876.534 509.332H875.913C866.214 509.188 856.571 505.405 849.18 498.017C841.623 490.462 837.861 480.578 837.861 470.671C837.861 460.765 834.088 450.881 826.531 443.326C818.974 435.772 809.075 432 799.177 432H876.523C886.433 432 896.32 435.772 903.877 443.326C918.969 458.424 918.969 482.907 903.877 498.005L903.888 498.017Z" stroke="#F6F6F4" stroke-width="2.5" stroke-miterlimit="10"/>
<path d="M875.924 509.332H799.143C789.256 509.332 779.39 505.56 771.844 498.017C756.752 482.919 756.752 458.436 771.844 443.338C779.401 435.783 789.3 432.011 799.199 432.011C809.097 432.011 818.996 435.783 826.553 443.338C834.11 450.892 837.883 460.776 837.883 470.683C837.883 480.589 841.645 490.473 849.202 498.028C856.592 505.416 866.236 509.188 875.935 509.343L875.924 509.332Z" stroke="#F6F6F4" stroke-width="2.5" stroke-miterlimit="10"/>
<path d="M555.23 575.692C547.673 583.247 537.786 587.019 527.876 587.008H527.255C517.556 586.863 507.912 583.081 500.522 575.692C492.965 568.138 489.203 558.254 489.203 548.347C489.203 538.441 485.43 528.557 477.873 521.002C470.316 513.448 460.417 509.676 450.519 509.676H527.876C537.786 509.676 547.673 513.448 555.23 521.002C570.322 536.1 570.322 560.583 555.23 575.681V575.692Z" stroke="#F6F6F4" stroke-width="2.5" stroke-miterlimit="10"/>
<path d="M527.255 587.007H450.474C440.587 587.007 430.721 583.236 423.175 575.692C408.083 560.594 408.083 536.111 423.175 521.013C430.733 513.459 440.631 509.687 450.53 509.687C460.428 509.687 470.327 513.459 477.884 521.013C485.441 528.568 489.214 538.452 489.214 548.358C489.214 558.265 492.976 568.149 500.533 575.703C507.924 583.091 517.567 586.863 527.266 587.019L527.255 587.007Z" stroke="#F6F6F4" stroke-width="2.5" stroke-miterlimit="10"/>
<path d="M709.913 575.692C702.356 583.247 692.468 587.019 682.559 587.008H681.937C672.238 586.863 662.595 583.081 655.204 575.692C647.647 568.138 643.885 558.254 643.885 548.347C643.885 538.441 640.112 528.557 632.555 521.002C624.998 513.448 615.1 509.676 605.201 509.676H682.548C692.457 509.676 702.345 513.448 709.902 521.002C724.994 536.1 724.994 560.583 709.902 575.681L709.913 575.692Z" stroke="#F6F6F4" stroke-width="2.5" stroke-miterlimit="10"/>
<path d="M681.948 587.007H605.167C595.28 587.007 585.415 583.236 577.869 575.692C562.777 560.594 562.777 536.111 577.869 521.013C585.426 513.459 595.324 509.687 605.223 509.687C615.122 509.687 625.02 513.459 632.577 521.013C640.134 528.568 643.907 538.452 643.907 548.358C643.907 558.265 647.669 568.149 655.226 575.703C662.617 583.091 672.26 586.863 681.959 587.019L681.948 587.007Z" stroke="#F6F6F4" stroke-width="2.5" stroke-miterlimit="10"/>
<path d="M864.605 575.692C857.048 583.247 847.161 587.019 837.251 587.008H836.63C826.931 586.863 817.287 583.081 809.897 575.692C802.34 568.138 798.578 558.254 798.578 548.347C798.578 538.441 794.805 528.557 787.248 521.002C779.691 513.448 769.792 509.676 759.894 509.676H837.24C847.15 509.676 857.037 513.448 864.594 521.002C879.686 536.1 879.686 560.583 864.594 575.681L864.605 575.692Z" stroke="#F6F6F4" stroke-width="2.5" stroke-miterlimit="10"/>
<path d="M836.63 587.007H759.849C749.962 587.007 740.096 583.236 732.55 575.692C717.458 560.594 717.458 536.111 732.55 521.013C740.108 513.459 750.006 509.687 759.905 509.687C769.803 509.687 779.702 513.459 787.259 521.013C794.816 528.568 798.589 538.452 798.589 548.358C798.589 558.265 802.351 568.149 809.908 575.703C817.299 583.091 826.942 586.863 836.641 587.019L836.63 587.007Z" stroke="#F6F6F4" stroke-width="2.5" stroke-miterlimit="10"/>
<path d="M594.514 653.013C586.957 660.567 577.07 664.339 567.16 664.328H566.539C556.84 664.184 547.197 660.401 539.806 653.013C532.249 645.458 528.487 635.574 528.487 625.668C528.487 615.761 524.714 605.877 517.157 598.323C509.6 590.768 499.701 586.996 489.803 586.996H567.149C577.059 586.996 586.946 590.768 594.503 598.323C609.595 613.421 609.595 637.904 594.503 653.002L594.514 653.013Z" stroke="#F6F6F4" stroke-width="2.5" stroke-miterlimit="10"/>
<path d="M566.55 664.328H489.758C479.871 664.328 470.006 660.556 462.46 653.013C447.368 637.915 447.368 613.432 462.46 598.334C470.017 590.779 479.915 587.007 489.814 587.007C499.712 587.007 509.611 590.779 517.168 598.334C524.725 605.888 528.498 615.772 528.498 625.679C528.498 635.585 532.26 645.469 539.817 653.024C547.208 660.412 556.851 664.184 566.55 664.339V664.328Z" stroke="#F6F6F4" stroke-width="2.5" stroke-miterlimit="10"/>
<path d="M749.206 653.013C741.649 660.567 731.761 664.339 721.852 664.328H721.23C711.531 664.184 701.888 660.401 694.497 653.013C686.94 645.458 683.178 635.574 683.178 625.668C683.178 615.761 679.405 605.877 671.848 598.323C664.291 590.768 654.393 586.996 644.494 586.996H721.84C731.75 586.996 741.638 590.768 749.195 598.323C764.287 613.421 764.287 637.904 749.195 653.002L749.206 653.013Z" stroke="#F6F6F4" stroke-width="2.5" stroke-miterlimit="10"/>
<path d="M721.23 664.328H644.45C634.562 664.328 624.697 660.556 617.151 653.013C602.059 637.915 602.059 613.432 617.151 598.334C624.708 590.779 634.607 587.007 644.505 587.007C654.404 587.007 664.302 590.779 671.859 598.334C679.417 605.888 683.189 615.772 683.189 625.679C683.189 635.585 686.951 645.469 694.508 653.024C701.899 660.412 711.542 664.184 721.241 664.339L721.23 664.328Z" stroke="#F6F6F4" stroke-width="2.5" stroke-miterlimit="10"/>
<path d="M903.888 653.013C896.331 660.567 886.444 664.339 876.534 664.328H875.913C866.214 664.184 856.571 660.401 849.18 653.013C841.623 645.458 837.861 635.574 837.861 625.668C837.861 615.761 834.088 605.877 826.531 598.323C818.974 590.768 809.075 586.996 799.177 586.996H876.523C886.433 586.996 896.32 590.768 903.877 598.323C918.969 613.421 918.969 637.904 903.877 653.002L903.888 653.013Z" stroke="#F6F6F4" stroke-width="2.5" stroke-miterlimit="10"/>
<path d="M875.924 664.328H799.143C789.256 664.328 779.39 660.556 771.844 653.013C756.752 637.915 756.752 613.432 771.844 598.334C779.401 590.779 789.3 587.007 799.199 587.007C809.097 587.007 818.996 590.779 826.553 598.334C834.11 605.888 837.883 615.772 837.883 625.679C837.883 635.585 841.645 645.469 849.202 653.024C856.592 660.412 866.236 664.184 875.935 664.339L875.924 664.328Z" stroke="#F6F6F4" stroke-width="2.5" stroke-miterlimit="10"/>
<path d="M555.23 730.688C547.673 738.243 537.786 742.015 527.876 742.004H527.255C517.556 741.859 507.912 738.077 500.522 730.688C492.965 723.134 489.203 713.25 489.203 703.343C489.203 693.437 485.43 683.553 477.873 675.998C470.316 668.444 460.417 664.672 450.519 664.672H527.876C537.786 664.672 547.673 668.444 555.23 675.998C570.322 691.096 570.322 715.579 555.23 730.677V730.688Z" stroke="#F6F6F4" stroke-width="2.5" stroke-miterlimit="10"/>
<path d="M527.255 741.993H450.474C440.587 741.993 430.721 738.221 423.175 730.677C408.083 715.579 408.083 691.096 423.175 675.998C430.733 668.444 440.631 664.672 450.53 664.672C460.428 664.672 470.327 668.444 477.884 675.998C485.441 683.553 489.214 693.437 489.214 703.343C489.214 713.25 492.976 723.134 500.533 730.688C507.924 738.077 517.567 741.848 527.266 742.004L527.255 741.993Z" stroke="#F6F6F4" stroke-width="2.5" stroke-miterlimit="10"/>
<path d="M709.913 730.688C702.356 738.243 692.468 742.015 682.559 742.004H681.937C672.238 741.859 662.595 738.077 655.204 730.688C647.647 723.134 643.885 713.25 643.885 703.343C643.885 693.437 640.112 683.553 632.555 675.998C624.998 668.444 615.1 664.672 605.201 664.672H682.548C692.457 664.672 702.345 668.444 709.902 675.998C724.994 691.096 724.994 715.579 709.902 730.677L709.913 730.688Z" stroke="#F6F6F4" stroke-width="2.5" stroke-miterlimit="10"/>
<path d="M681.948 741.993H605.167C595.28 741.993 585.415 738.221 577.869 730.677C562.777 715.579 562.777 691.096 577.869 675.998C585.426 668.444 595.324 664.672 605.223 664.672C615.122 664.672 625.02 668.444 632.577 675.998C640.134 683.553 643.907 693.437 643.907 703.343C643.907 713.25 647.669 723.134 655.226 730.688C662.617 738.077 672.26 741.848 681.959 742.004L681.948 741.993Z" stroke="#F6F6F4" stroke-width="2.5" stroke-miterlimit="10"/>
<path d="M864.605 730.688C857.048 738.243 847.161 742.015 837.251 742.004H836.63C826.931 741.859 817.287 738.077 809.897 730.688C802.34 723.134 798.578 713.25 798.578 703.343C798.578 693.437 794.805 683.553 787.248 675.998C779.691 668.444 769.792 664.672 759.894 664.672H837.24C847.15 664.672 857.037 668.444 864.594 675.998C879.686 691.096 879.686 715.579 864.594 730.677L864.605 730.688Z" stroke="#F6F6F4" stroke-width="2.5" stroke-miterlimit="10"/>
<path d="M836.63 741.993H759.849C749.962 741.993 740.096 738.221 732.55 730.677C717.458 715.579 717.458 691.096 732.55 675.998C740.108 668.444 750.006 664.672 759.905 664.672C769.803 664.672 779.702 668.444 787.259 675.998C794.816 683.553 798.589 693.437 798.589 703.343C798.589 713.25 802.351 723.134 809.908 730.688C817.299 738.077 826.942 741.848 836.641 742.004L836.63 741.993Z" stroke="#F6F6F4" stroke-width="2.5" stroke-miterlimit="10"/>
<path d="M594.514 808.009C586.957 815.564 577.07 819.336 567.16 819.324H566.539C556.84 819.18 547.197 815.397 539.806 808.009C532.249 800.455 528.487 790.57 528.487 780.664C528.487 770.758 524.714 760.874 517.157 753.319C509.6 745.764 499.701 741.993 489.803 741.993H567.149C577.059 741.993 586.946 745.764 594.503 753.319C609.595 768.417 609.595 792.9 594.503 807.998L594.514 808.009Z" stroke="#F6F6F4" stroke-width="2.5" stroke-miterlimit="10"/>
<path d="M566.55 819.324H489.758C479.871 819.324 470.006 815.553 462.46 808.009C447.368 792.911 447.368 768.428 462.46 753.33C470.017 745.775 479.915 742.004 489.814 742.004C499.712 742.004 509.611 745.775 517.168 753.33C524.725 760.885 528.498 770.769 528.498 780.675C528.498 790.581 532.26 800.466 539.817 808.02C547.208 815.408 556.851 819.18 566.55 819.335V819.324Z" stroke="#F6F6F4" stroke-width="2.5" stroke-miterlimit="10"/>
<path d="M749.206 808.009C741.649 815.564 731.761 819.336 721.852 819.324H721.23C711.531 819.18 701.888 815.397 694.497 808.009C686.94 800.455 683.178 790.57 683.178 780.664C683.178 770.758 679.405 760.874 671.848 753.319C664.291 745.764 654.393 741.993 644.494 741.993H721.84C731.75 741.993 741.638 745.764 749.195 753.319C764.287 768.417 764.287 792.9 749.195 807.998L749.206 808.009Z" stroke="#F6F6F4" stroke-width="2.5" stroke-miterlimit="10"/>
<path d="M721.23 819.324H644.45C634.562 819.324 624.697 815.553 617.151 808.009C602.059 792.911 602.059 768.428 617.151 753.33C624.708 745.775 634.607 742.004 644.505 742.004C654.404 742.004 664.302 745.775 671.859 753.33C679.417 760.885 683.189 770.769 683.189 780.675C683.189 790.581 686.951 800.466 694.508 808.02C701.899 815.408 711.542 819.18 721.241 819.335L721.23 819.324Z" stroke="#F6F6F4" stroke-width="2.5" stroke-miterlimit="10"/>
<path d="M903.888 808.009C896.331 815.564 886.444 819.336 876.534 819.324H875.913C866.214 819.18 856.571 815.397 849.18 808.009C841.623 800.455 837.861 790.57 837.861 780.664C837.861 770.758 834.088 760.874 826.531 753.319C818.974 745.764 809.075 741.993 799.177 741.993H876.523C886.433 741.993 896.32 745.764 903.877 753.319C918.969 768.417 918.969 792.9 903.877 807.998L903.888 808.009Z" stroke="#F6F6F4" stroke-width="2.5" stroke-miterlimit="10"/>
<path d="M875.924 819.324H799.143C789.256 819.324 779.39 815.553 771.844 808.009C756.752 792.911 756.752 768.428 771.844 753.33C779.401 745.775 789.3 742.004 799.199 742.004C809.097 742.004 818.996 745.775 826.553 753.33C834.11 760.885 837.883 770.769 837.883 780.675C837.883 790.581 841.645 800.466 849.202 808.02C856.592 815.408 866.236 819.18 875.935 819.335L875.924 819.324Z" stroke="#F6F6F4" stroke-width="2.5" stroke-miterlimit="10"/>
<path d="M555.23 885.674C547.673 893.228 537.786 897 527.876 896.989H527.255C517.556 896.845 507.912 893.062 500.522 885.674C492.965 878.119 489.203 868.235 489.203 858.329C489.203 848.422 485.43 838.538 477.873 830.984C470.316 823.429 460.417 819.657 450.519 819.657H527.876C537.786 819.657 547.673 823.429 555.23 830.984C570.322 846.082 570.322 870.565 555.23 885.663V885.674Z" stroke="#F6F6F4" stroke-width="2.5" stroke-miterlimit="10"/>
<path d="M527.255 896.989H450.474C440.587 896.989 430.721 893.217 423.175 885.674C408.083 870.576 408.083 846.093 423.175 830.995C430.733 823.44 440.631 819.668 450.53 819.668C460.428 819.668 470.327 823.44 477.884 830.995C485.441 838.549 489.214 848.433 489.214 858.34C489.214 868.246 492.976 878.13 500.533 885.685C507.924 893.073 517.567 896.845 527.266 897L527.255 896.989Z" stroke="#F6F6F4" stroke-width="2.5" stroke-miterlimit="10"/>
<path d="M709.913 885.674C702.356 893.228 692.468 897 682.559 896.989H681.937C672.238 896.845 662.595 893.062 655.204 885.674C647.647 878.119 643.885 868.235 643.885 858.329C643.885 848.422 640.112 838.538 632.555 830.984C624.998 823.429 615.1 819.657 605.201 819.657H682.548C692.457 819.657 702.345 823.429 709.902 830.984C724.994 846.082 724.994 870.565 709.902 885.663L709.913 885.674Z" stroke="#F6F6F4" stroke-width="2.5" stroke-miterlimit="10"/>
<path d="M681.948 896.989H605.167C595.28 896.989 585.415 893.217 577.869 885.674C562.777 870.576 562.777 846.093 577.869 830.995C585.426 823.44 595.324 819.668 605.223 819.668C615.122 819.668 625.02 823.44 632.577 830.995C640.134 838.549 643.907 848.433 643.907 858.34C643.907 868.246 647.669 878.13 655.226 885.685C662.617 893.073 672.26 896.845 681.959 897L681.948 896.989Z" stroke="#F6F6F4" stroke-width="2.5" stroke-miterlimit="10"/>
<path d="M864.605 885.674C857.048 893.228 847.161 897 837.251 896.989H836.63C826.931 896.845 817.287 893.062 809.897 885.674C802.34 878.119 798.578 868.235 798.578 858.329C798.578 848.422 794.805 838.538 787.248 830.984C779.691 823.429 769.792 819.657 759.894 819.657H837.24C847.15 819.657 857.037 823.429 864.594 830.984C879.686 846.082 879.686 870.565 864.594 885.663L864.605 885.674Z" stroke="#F6F6F4" stroke-width="2.5" stroke-miterlimit="10"/>
<path d="M836.63 896.989H759.849C749.962 896.989 740.096 893.217 732.55 885.674C717.458 870.576 717.458 846.093 732.55 830.995C740.108 823.44 750.006 819.668 759.905 819.668C769.803 819.668 779.702 823.44 787.259 830.995C794.816 838.549 798.589 848.433 798.589 858.34C798.589 868.246 802.351 878.13 809.908 885.685C817.299 893.073 826.942 896.845 836.641 897L836.63 896.989Z" stroke="#F6F6F4" stroke-width="2.5" stroke-miterlimit="10"/>
</g>
</svg>
