<svg width="160" height="160" viewBox="0 0 160 160" fill="none" xmlns="http://www.w3.org/2000/svg">
<rect width="160" height="160" fill="#F3F3F3"/>
<path fill-rule="evenodd" clip-rule="evenodd" d="M119.302 98.6729C119.3 105.596 116.539 112.236 111.627 117.132C106.714 122.029 100.05 124.782 93.1006 124.786C89.0587 124.799 85.07 123.868 81.4551 122.066C77.4623 124.021 73.0353 124.931 68.5919 124.709C64.1485 124.487 59.835 123.141 56.0585 120.798C52.282 118.455 49.1668 115.192 47.007 111.317C44.8471 107.442 43.7137 103.083 43.7137 98.6505C43.7137 94.2182 44.8471 89.859 47.007 85.9841C49.1668 82.1092 52.282 78.8463 56.0585 76.5033C59.835 74.1602 64.1485 72.8142 68.5919 72.5923C73.0353 72.3703 77.4623 73.2797 81.4551 75.2346C85.4565 73.2823 89.8903 72.3753 94.3401 72.5988C98.79 72.8224 103.11 74.1691 106.894 76.5124C110.678 78.8558 113.802 82.119 115.972 85.9954C118.142 89.8718 119.288 94.2342 119.302 98.6729ZM114.128 98.6729C114.118 95.3847 113.334 92.1447 111.839 89.2134C110.344 86.2821 108.179 83.7414 105.518 81.7957C102.857 79.85 99.7751 78.5537 96.5198 78.0109C93.2645 77.4682 89.9267 77.6942 86.7751 78.6709C90.8289 82.0473 93.7496 86.5778 95.1455 91.6548H89.73C88.2177 87.3458 85.3287 83.6498 81.5057 81.1334C77.6922 83.6433 74.8124 87.3323 73.3095 91.6324H67.894C69.3149 86.5498 72.2372 82.0103 76.2812 78.6037C74.2175 77.9703 72.0702 77.6478 69.9108 77.6467C67.1194 77.6013 64.3469 78.1098 61.7548 79.1425C59.1627 80.1753 56.8028 81.7116 54.8127 83.6621C52.8226 85.6125 51.2421 87.9381 50.1632 90.5032C49.0843 93.0683 48.5287 95.8217 48.5287 98.6029C48.5287 101.384 49.0843 104.137 50.1632 106.703C51.2421 109.268 52.8226 111.593 54.8127 113.544C56.8028 115.494 59.1627 117.031 61.7548 118.063C64.3469 119.096 67.1194 119.604 69.9108 119.559C72.0391 119.565 74.1556 119.244 76.1857 118.608C73.5382 116.388 71.3657 113.661 69.7975 110.588C68.2293 107.516 67.2973 104.16 67.057 100.721H79.517V105.831L73.4274 105.926C74.9827 110.082 77.8183 113.642 81.5282 116.095C85.2378 113.643 88.0718 110.083 89.6233 105.926L83.5393 105.831V100.721H95.9993C95.7251 104.164 94.7628 107.517 93.1691 110.584C91.5753 113.651 89.3823 116.369 86.7189 118.58C88.7801 119.229 90.9275 119.567 93.0894 119.581C95.8528 119.597 98.5919 119.067 101.149 118.023C103.706 116.978 106.03 115.44 107.986 113.496C109.943 111.552 111.495 109.241 112.551 106.697C113.607 104.153 114.146 101.426 114.139 98.6729H114.128Z" fill="#3A3E55"/>
<path d="M114.959 40.6982L114.796 40.7486C114.217 39.4464 113.29 38.3276 112.116 37.5138C110.835 36.6739 109.323 36.2532 107.791 36.3105C106.835 36.3092 105.891 36.5195 105.027 36.9262C104.147 37.3179 103.361 37.89 102.718 38.6051C102.042 39.3673 101.515 40.2478 101.162 41.2019C100.381 43.3729 100.381 45.7468 101.162 47.9178C101.521 48.8755 102.048 49.7623 102.718 50.5369C103.365 51.2469 104.151 51.8182 105.027 52.2159C105.898 52.5965 106.84 52.7873 107.791 52.7755C109.232 52.854 110.672 52.5992 111.998 52.0312C113.123 51.4469 114.076 50.5809 114.762 49.5184L114.925 49.5687L114.869 51.2812C114.444 51.7212 113.966 52.1083 113.448 52.4341C111.732 53.3963 109.799 53.9103 107.83 53.9284C106.49 53.9346 105.16 53.7093 103.898 53.2624C102.691 52.8429 101.572 52.2076 100.594 51.3876C99.6486 50.5744 98.8833 49.5737 98.3474 48.4494C97.7825 47.2448 97.4983 45.9285 97.516 44.599C97.4958 43.2764 97.7802 41.9669 98.3474 40.771C98.879 39.636 99.6446 38.6253 100.594 37.8048C101.563 36.9729 102.685 36.3362 103.898 35.93C105.161 35.4859 106.491 35.2606 107.83 35.264C108.496 35.2652 109.161 35.3195 109.819 35.4263C110.469 35.5293 111.107 35.6981 111.723 35.93C112.336 36.1395 112.922 36.4193 113.47 36.7639C113.992 37.0727 114.47 37.4491 114.892 37.8832L114.959 40.6982Z" fill="#3A3E55"/>
<path d="M55.8216 45.8079C55.619 45.897 55.4299 46.0138 55.2598 46.1549C55.175 46.2215 55.1066 46.3066 55.0598 46.4036C55.0131 46.5006 54.9892 46.6069 54.9901 46.7145V50.0053C54.1466 51.2189 53.0109 52.2022 51.6869 52.8651C50.304 53.5509 48.7768 53.8982 47.2321 53.8781C45.8926 53.8836 44.5622 53.6583 43.2997 53.2121C42.095 52.7926 40.9774 52.1572 40.0021 51.3373C39.0588 50.5218 38.2939 49.5217 37.755 48.3991C37.1927 47.1936 36.9086 45.8779 36.9236 44.5487C36.9062 43.2264 37.1905 41.9175 37.755 40.7207C38.289 39.5871 39.0543 38.5769 40.0021 37.7545C40.969 36.9226 42.089 36.2859 43.2997 35.8797C44.5629 35.4362 45.8928 35.211 47.2321 35.2137C47.8983 35.2149 48.5633 35.2692 49.2208 35.376C49.8709 35.4797 50.509 35.6485 51.1252 35.8797C51.7363 36.0892 52.3207 36.369 52.8666 36.7136C53.3898 37.0223 53.8696 37.3987 54.2935 37.8329L54.4003 40.6703L54.2374 40.7207C53.6543 39.4192 52.7259 38.3008 51.5521 37.4859C50.2733 36.6457 48.7628 36.2249 47.2321 36.2826C46.2764 36.2813 45.3323 36.4916 44.4682 36.8983C43.5887 37.29 42.8019 37.8621 42.1593 38.5772C41.4849 39.3403 40.9574 40.2205 40.6032 41.174C40.2001 42.2474 40.0001 43.3859 40.0133 44.5319C39.9984 45.6756 40.1886 46.8128 40.5751 47.8898C40.9319 48.8488 41.459 49.736 42.1312 50.509C42.783 51.2139 43.5675 51.7844 44.4401 52.188C45.3253 52.5728 46.2832 52.7637 47.2489 52.7476C48.9072 52.796 50.5511 52.4285 52.0296 51.6787V46.681C52.029 46.5707 52.0017 46.4621 51.9498 46.3647C51.898 46.2672 51.8232 46.1837 51.7319 46.1213C51.5577 45.9843 51.3694 45.8661 51.1701 45.7687V45.64C51.26 45.64 51.4173 45.6736 51.6532 45.6904L52.3779 45.7464H54.698L55.316 45.6904L55.771 45.64L55.8216 45.8079Z" fill="#3A3E55"/>
<path d="M75.2474 35.8015C75.0584 35.8992 74.8796 36.0154 74.7138 36.1485C74.6103 36.2546 74.5304 36.3812 74.4791 36.52C74.4278 36.6588 74.4063 36.8068 74.416 36.9544C74.416 37.3797 74.3992 37.9225 74.3655 38.5829C74.3655 39.2265 74.3655 39.9597 74.3374 40.7768C74.3093 41.5939 74.3374 42.4893 74.3374 43.4519V46.4349C74.3425 47.4414 74.1967 48.443 73.9048 49.4066C73.6788 50.1519 73.3149 50.8485 72.8318 51.4605C72.4358 51.9857 71.9442 52.4318 71.3825 52.7757C70.8965 53.0809 70.3736 53.3235 69.8264 53.4977C69.3692 53.6675 68.8911 53.7748 68.4051 53.8167C68.0568 53.8637 67.706 53.8899 67.3546 53.895C66.3577 53.8996 65.3651 53.7658 64.4053 53.4977C63.495 53.2653 62.6434 52.8459 61.9054 52.2664C61.1669 51.6635 60.5801 50.8969 60.192 50.0278C59.733 48.9847 59.5124 47.8531 59.546 46.7147V40.9391C59.546 40.0828 59.546 39.3161 59.546 38.6389C59.546 37.9617 59.546 37.3797 59.5179 36.96C59.5289 36.8136 59.5086 36.6665 59.4582 36.5285C59.4079 36.3905 59.3286 36.2648 59.2258 36.1597C59.0524 36.0215 58.8639 35.9033 58.664 35.8071V35.6728L59.0966 35.7287L59.7538 35.8015C59.9842 35.8015 60.2089 35.8015 60.4223 35.8015H61.3886C61.6021 35.8015 61.8268 35.8015 62.0627 35.8015C62.2986 35.8015 62.5065 35.7679 62.7031 35.7511C62.8559 35.7431 63.008 35.7244 63.1582 35.6951V35.8295C62.958 35.9231 62.7695 36.0395 62.5964 36.1764C62.4088 36.4019 62.3144 36.69 62.3324 36.9823C62.3324 37.4077 62.2986 37.9729 62.2762 38.6613V46.7651C62.2762 48.7089 62.7331 50.1435 63.6469 51.0688C64.557 51.9978 65.894 52.4623 67.6973 52.4623C68.2936 52.4527 68.8877 52.389 69.4724 52.272C70.1451 52.128 70.7767 51.8354 71.3207 51.4158C71.955 50.939 72.4623 50.3144 72.7981 49.5969C73.2532 48.6186 73.4652 47.5456 73.4161 46.4684C73.4161 45.0637 73.4161 43.8549 73.4161 42.8587C73.4161 41.8625 73.4161 40.9782 73.388 40.2619C73.3599 39.5455 73.388 38.9076 73.388 38.3927C73.388 37.8778 73.3543 37.4021 73.3374 36.9767C73.3471 36.8291 73.3256 36.6812 73.2743 36.5423C73.2231 36.4035 73.1431 36.277 73.0397 36.1708C72.8729 36.039 72.6943 35.9229 72.506 35.8239V35.6895C72.7026 35.7287 72.9273 35.7623 73.1745 35.8015C73.4217 35.8407 73.6576 35.8015 73.8767 35.8015C74.0958 35.8015 74.2924 35.8015 74.5452 35.8015C74.798 35.8015 75.0452 35.7287 75.2418 35.6895L75.2474 35.8015Z" fill="#3A3E55"/>
<path d="M94.7297 40.6979L94.5668 40.7483C93.9854 39.4457 93.0566 38.3269 91.8815 37.5135C90.6028 36.6733 89.0923 36.2525 87.5615 36.3102C86.6058 36.3089 85.6617 36.5192 84.7976 36.9259C83.9181 37.3176 83.1314 37.8897 82.4887 38.6048C81.8131 39.367 81.2855 40.2475 80.9326 41.2016C80.1439 43.3713 80.1439 45.7478 80.9326 47.9174C81.292 48.8752 81.8189 49.7619 82.4887 50.5366C83.1359 51.2466 83.9215 51.8179 84.7976 52.2156C85.6684 52.5961 86.6107 52.7869 87.5615 52.7752C89.0048 52.8554 90.4471 52.6006 91.7748 52.0309C92.9026 51.4489 93.8575 50.5825 94.5443 49.518L94.7016 49.5684L94.651 51.2809C94.2237 51.7209 93.7446 52.108 93.2241 52.4338C92.6695 52.7609 92.0867 53.0382 91.4827 53.2621C90.8457 53.4691 90.1915 53.6189 89.5277 53.7098C88.8719 53.8323 88.2062 53.8941 87.539 53.8945C86.1995 53.9 84.8691 53.6747 83.6067 53.2285C82.402 52.809 81.2844 52.1736 80.3091 51.3537C79.3657 50.5382 78.6008 49.538 78.062 48.4155C77.4971 47.2109 77.2128 45.8946 77.2306 44.5651C77.2104 43.2425 77.4948 41.933 78.062 40.7371C78.596 39.6036 79.3613 38.5934 80.3091 37.7709C81.2759 36.9391 82.3959 36.3023 83.6067 35.8961C84.8698 35.4526 86.1997 35.2274 87.539 35.2301C88.2034 35.231 88.8665 35.2853 89.5221 35.3924C90.1741 35.4961 90.814 35.6649 91.4321 35.8961C92.0432 36.1056 92.6276 36.3854 93.1736 36.73C93.6967 37.0387 94.1765 37.4151 94.6005 37.8493L94.7297 40.6979Z" fill="#3A3E55"/>
<path d="M123.049 53.4529C122.959 53.4529 122.807 53.4361 122.594 53.4025C122.397 53.4025 122.183 53.4025 121.953 53.3746C121.723 53.3466 121.493 53.3746 121.279 53.3746H119.667L119.026 53.4249C118.872 53.4357 118.718 53.4544 118.566 53.4809V53.3746C118.764 53.2783 118.953 53.162 119.127 53.0276C119.229 52.9202 119.307 52.7933 119.357 52.6547C119.407 52.5161 119.429 52.3688 119.42 52.2217C119.42 51.7963 119.42 51.3486 119.42 50.8841C119.42 50.4196 119.42 49.8991 119.42 49.3059V39.8478C119.42 39.2545 119.42 38.7285 119.42 38.2919C119.42 37.8554 119.42 37.3853 119.42 36.96C119.431 36.8127 119.41 36.6648 119.36 36.5259C119.31 36.387 119.23 36.2603 119.127 36.1541C118.959 36.0035 118.77 35.8772 118.566 35.7791V35.6728C118.716 35.7169 118.87 35.7432 119.026 35.7511C119.24 35.7511 119.453 35.7511 119.667 35.7791C119.88 35.8071 120.127 35.7791 120.341 35.7791H121.279C121.493 35.7791 121.717 35.7791 121.948 35.7791L122.594 35.7231C122.807 35.7231 122.959 35.7064 123.049 35.6728L123.077 35.7791C122.871 35.8747 122.682 36.0012 122.515 36.1541C122.326 36.3764 122.231 36.6635 122.251 36.9544C122.251 37.3853 122.217 37.8274 122.195 38.2919V50.8617C122.195 51.3262 122.228 51.7683 122.251 52.1993C122.231 52.4901 122.326 52.7772 122.515 52.9996C122.687 53.1384 122.875 53.255 123.077 53.3466L123.049 53.4529Z" fill="#3A3E55"/>
</svg>
