<svg width="160" height="160" viewBox="0 0 160 160" fill="none" xmlns="http://www.w3.org/2000/svg">
<rect width="160" height="160" fill="#F3F3F3"/>
<path d="M110.028 72.7072H108.825C108.682 72.7339 108.548 72.7989 108.438 72.8955C108.329 72.9921 108.247 73.1165 108.202 73.2556H110.022L110.028 72.7072Z" fill="#3A3E55"/>
<path d="M65.0484 72.7011H55.5915C55.4015 72.9049 55.1929 73.0905 54.9685 73.2557H65.6714C65.4416 73.0973 65.2324 72.911 65.0484 72.7011Z" fill="#3A3E55"/>
<path d="M110.028 72.7072L110.028 72.7134H110.034L110.028 72.7072Z" fill="#3A3E55"/>
<path d="M132.007 87.0489C130.306 86.5627 129.11 86.675 127.384 86.1016C125.82 85.578 125.515 84.6182 125.515 83.9825C125.515 83.3468 126.2 81.6827 128.63 81.6827C131.06 81.6827 132.686 83.3094 132.779 84.7366H135.14V79.8129H132.866V80.8849L132.935 81.2215C132.859 81.0585 132.748 80.9139 132.611 80.7977C131.433 79.848 129.948 79.3645 128.437 79.439C125.945 79.439 122.967 80.9909 122.967 84.0074C122.967 87.024 125.085 87.9651 126.886 88.4388C128.686 88.9124 129.602 88.9187 131.103 89.3238C132.605 89.7289 133.595 90.6326 133.595 91.9726C133.595 93.3126 132.816 94.9019 129.639 94.9019C126.462 94.9019 125.21 93.188 124.842 90.7386H122.6V96.7156H124.942V95.5875L124.861 95.2946C124.941 95.4522 125.061 95.5856 125.21 95.681C126.573 96.7046 128.241 97.2383 129.945 97.1955C132.169 97.1955 136.068 96.0549 136.068 92.0038C136.068 89.1368 134.523 87.7719 132.007 87.0489Z" fill="#3A3E55"/>
<path d="M94.5092 94.3156V96.7089H101.399V94.3156H99.1379V82.2183H101.399V79.8125H95.238L91.1575 89.6911L91.0765 90.1772L90.9956 89.6849L86.915 79.8125H80.7599V82.2183H83.0151V94.3156H80.7599V96.7089H87.6439V94.3156H85.4884V83.1905L85.507 82.4613L85.7064 83.041L90.4037 94.2844H91.7369L96.4529 83.041L96.6211 82.4489L96.6522 83.1157V94.3156H94.5092Z" fill="#3A3E55"/>
<path d="M116.015 94.3156H109.324V88.6814H115.08V86.2944H109.318V82.2183H116.064V84.5305H118.438V79.8125H104.558V82.2183H106.826V94.3156H104.558V96.7089H118.469V91.0809H116.015V94.3156Z" fill="#3A3E55"/>
<path d="M47.4431 72.7011V73.2557H49.7669C49.5364 73.0812 49.3183 72.8943 49.1065 72.7011H47.4431Z" fill="#3A3E55"/>
<path d="M34.08 82.2183H36.2293V86.3255H28.5853V82.2183H30.7222V79.8125H23.9316V82.2183H26.0934V94.3156H23.9316V96.7089H30.7222V94.3156H28.5853V88.7064H36.2231V94.3156H34.08V96.7089H40.8892V94.3156H38.7212V82.2183H40.8892V79.8125H34.08V82.2183Z" fill="#3A3E55"/>
<path d="M109.966 78.9831H114.831L113.585 77.4936H108.601L109.966 78.9831Z" fill="#3A3E55"/>
<path d="M57.9775 91.0809H55.523V94.3156H48.8259V88.6814H54.5885V86.2944H48.8259V82.2183H55.5728V84.5305H57.9464V79.8125H44.0726V82.2183H46.334V94.3156H44.0663V96.7089H57.9775V91.0809Z" fill="#3A3E55"/>
<path d="M47.4431 74.8635H110.022V73.698H69.7708C69.2446 73.9338 68.6747 74.0556 68.0981 74.0556C67.5216 74.0556 66.9516 73.9338 66.4254 73.698H54.2025C53.6281 73.9464 53.0091 74.0745 52.3834 74.0745C51.7577 74.0745 51.1386 73.9464 50.5643 73.698H47.4494L47.4431 74.8635Z" fill="#3A3E55"/>
<path d="M107.561 58.2354C107.492 58.2978 107.474 58.3726 107.523 58.385C107.635 58.4067 107.736 58.4661 107.81 58.5533C107.872 58.5845 107.86 58.4847 107.81 58.4287C107.773 58.2728 107.635 58.1544 107.561 58.2354Z" fill="#3A3E55"/>
<path d="M47.0568 68.1266C47.5386 68.2264 48.0245 68.3074 48.5146 68.3697C48.3991 68.7348 48.3383 69.1149 48.334 69.4978C48.3275 70.09 48.4514 70.6764 48.6967 71.2154C48.9421 71.7545 49.3029 72.2329 49.7537 72.6168C50.2045 73.0008 50.7341 73.2808 51.3052 73.4372C51.8762 73.5935 52.4745 73.6222 53.0579 73.5214C53.6413 73.4205 54.1954 73.1926 54.6808 72.8537C55.1663 72.5147 55.5714 72.0731 55.8673 71.5601C56.1631 71.0471 56.3425 70.4753 56.3929 69.8852C56.4433 69.2951 56.3633 68.7011 56.1586 68.1454C56.6196 68.0643 57.0744 67.9646 57.523 67.8399C57.7348 67.7838 57.7285 67.6841 57.5603 67.6343C56.946 67.4523 56.3221 67.3045 55.6914 67.1918C55.3205 66.6574 54.8261 66.2208 54.25 65.9191C53.674 65.6174 53.0336 65.4596 52.3834 65.4591C51.8816 65.4609 51.3847 65.5582 50.9193 65.7458C50.8288 65.5797 50.7774 65.3952 50.7687 65.2062C50.7601 65.0172 50.7945 64.8288 50.8695 64.6551C51.1194 64.3466 51.4344 64.0972 51.792 63.9248C52.1496 63.7524 52.5409 63.6613 52.9378 63.6579C53.2483 63.6347 53.5604 63.6664 53.8598 63.7514C53.9577 63.8148 54.0694 63.8536 54.1855 63.8644C54.3015 63.8753 54.4185 63.8579 54.5264 63.8137C54.788 63.9135 54.8503 63.9882 55.1494 64.0817C57.8029 65.0568 60.6618 65.3357 63.4537 64.892C63.8596 65.4115 64.2006 65.9787 64.4692 66.581C64.5501 66.7119 64.6561 66.4875 66.0703 66.4376C66.5749 66.4376 67.1854 66.4376 67.7212 66.4376C67.1897 66.4982 66.6786 66.6775 66.2257 66.9623C65.7728 67.2471 65.3896 67.6301 65.1046 68.083C64.4746 68.266 63.8617 68.5037 63.2731 68.7935C62.9616 68.9805 62.8993 69.0865 63.2731 69.1862C63.7096 69.2976 64.1528 69.3809 64.6 69.4355C64.5687 69.6168 64.5499 69.8 64.5439 69.9839C64.5825 70.9093 64.9771 71.7841 65.6452 72.4252C66.3134 73.0664 67.2034 73.4243 68.1292 73.4243C69.055 73.4243 69.9451 73.0664 70.6132 72.4252C71.2813 71.7841 71.6759 70.9093 71.7145 69.9839C71.7113 69.3907 71.5592 68.8078 71.2722 68.2887C71.7207 68.1204 72.1942 67.9459 72.6988 67.7465C73.0696 67.89 73.3931 68.1338 73.6333 68.4507C73.8638 68.7063 74.3746 68.6066 74.6799 68.5318C75.1782 68.4009 75.253 68.002 75.253 67.5533C75.2355 67.3581 75.2722 67.1618 75.359 66.9861C75.9383 65.6648 78.2558 65.4903 79.4457 65.1973C79.149 65.5648 78.7881 65.8753 78.3804 66.1135C78.2932 68.0394 77.5519 69.7222 77.4646 71.5608C78.0253 71.5608 78.0004 72.184 78.1374 72.5704C77.9817 72.907 77.7138 72.5704 77.4646 72.6826C76.6112 72.209 77.664 71.4361 76.9725 70.869C77.3276 69.3233 77.9131 67.815 77.8633 66.1821C77.6452 66.1821 77.5581 66.4501 77.4646 66.6308C77.2595 68.1226 76.9217 69.5931 76.4554 71.0248C76.6361 71.112 76.9475 71.2055 76.9288 71.4735C76.3868 71.8101 76.9288 72.3523 76.7233 72.72H71.1912L70.5682 73.2747H79.0594L79.1404 72.9631C77.8945 71.6605 78.3555 69.7097 78.9349 68.2326L80.3926 66.2569C81.6386 65.7894 82.3426 64.3061 83.6197 63.8387C83.6197 64.4619 82.8347 64.7361 82.4111 65.0852C81.9625 66.1385 80.5422 66.2506 80.3491 67.4224C80.984 68.0062 81.6584 68.5456 82.3675 69.0366C83.059 69.4604 82.8098 70.3579 83.3705 70.8066C83.4639 70.9437 83.3705 71.1432 83.2148 71.2554C82.6229 71.3987 82.6416 71.7976 82.9967 72.1279C83.2272 72.3398 83.4826 72.6141 83.4577 72.7512H79.5391C79.5391 72.9257 79.7011 72.9943 79.8693 73.2996H101.499C101.661 72.9943 101.312 72.6328 101.157 72.3336C99.6303 71.7602 99.6366 70.3143 99.5493 68.7187C99.5079 68.5408 99.485 68.3591 99.4808 68.1765C98.7202 66.7085 98.4474 65.0361 98.7021 63.4024L99.0385 62.7417C99.35 62.293 99.0385 62.0499 99.2378 61.5825L103.798 60.7037C103.879 60.6601 103.86 60.4731 103.798 60.3921L102.415 60.6476C100.942 60.0047 99.6453 59.0172 98.6336 57.7682C98.9037 56.011 98.8847 54.2215 98.5774 52.4705C99.244 51.9158 99.7861 51.3923 99.7861 51.3923C100.247 51.6665 100.347 51.5356 100.409 51.3923C100.334 51.3113 99.6552 51.0183 99.7861 50.7254C100.216 50.8376 100.309 50.7254 100.378 50.4636L100.079 50.3577L100.129 50.1956C100.216 50.0149 100.621 50.1956 100.752 50.1395C101.026 49.9775 100.752 49.7282 100.814 49.5163C100.191 48.9803 99.0323 48.9616 98.3221 48.463C98.2103 48.1788 98.0306 47.9263 97.7987 47.7275C97.3437 47.5569 96.8561 47.4909 96.3721 47.5343C96.1777 47.6446 95.9978 47.7785 95.8364 47.9332C95.5496 47.9899 95.2539 47.9848 94.9692 47.9182C94.6845 47.8516 94.4174 47.7249 94.1855 47.5468C94.2266 47.725 94.3089 47.8911 94.4257 48.0318C94.5425 48.1725 94.6907 48.2839 94.8583 48.357C94.6318 48.4585 94.4377 48.6202 94.297 48.8247C94.1564 49.0292 94.0746 49.2685 94.0608 49.5163C93.9417 49.5435 93.8298 49.5957 93.7322 49.6694C93.6347 49.743 93.5539 49.8365 93.495 49.9436C93.4362 50.0508 93.4006 50.1691 93.3908 50.291C93.3809 50.4128 93.397 50.5354 93.4378 50.6506C93.3302 50.7067 93.2357 50.7852 93.1607 50.8807C93.0858 50.9763 93.032 51.0867 93.0032 51.2047C92.9743 51.3227 92.9709 51.4455 92.9932 51.5649C93.0155 51.6843 93.063 51.7976 93.1326 51.8971C92.9426 52.0235 92.8075 52.2171 92.7543 52.4391C92.7012 52.6611 92.7339 52.895 92.846 53.0938C92.4224 53.3555 92.846 54.0723 92.9083 54.4961C94.1231 54.2468 95.6432 56.9268 97.8174 57.2571C97.9808 56.6183 98.0143 55.9531 97.9158 55.3011C97.8174 54.6491 97.5891 54.0235 97.2443 53.4615C97.6325 53.2245 98.003 52.96 98.3532 52.6699C98.6419 54.3165 98.6861 55.9966 98.4841 57.656C98.4841 57.656 98.484 57.6248 98.4466 57.6061C98.311 57.5862 98.1802 57.5418 98.0604 57.4752C98.0604 57.5375 98.3345 57.9365 98.2847 58.0112C98.2348 58.086 97.5807 58.4787 96.179 57.8866C95.8052 58.7654 91.002 60.9156 91.002 60.9156C91.166 62.0199 91.6765 63.0435 92.4598 63.8387C93.4834 64.5685 94.6592 65.0564 95.8987 65.2659C96.1665 65.9702 97.0512 68.3198 97.1446 68.6938C97.2381 69.0677 97.4436 69.074 97.4436 69.074C97.7058 69.4651 97.9016 69.8968 98.0231 70.3517L98.1227 71.5982C98.1663 71.8911 98.5463 71.673 98.6211 71.916L98.4404 72.7699H84.0558C84.2551 71.7602 83.7443 70.9001 84.006 69.9777C83.4328 68.9743 81.8629 68.2762 82.137 66.9549C82.9033 65.9016 85.2519 64.8733 84.741 63.6018C86.8966 62.5049 88.0304 64.331 90.0738 64.2251C90.8015 64.2047 91.5246 64.1023 92.2293 63.9197C91.3939 63.1824 90.7194 62.2807 90.2482 61.2708C86.0247 63.0399 81.6446 64.4087 77.1655 65.3594L76.8042 65.241C76.4554 65.2971 71.3407 66.4439 69.9889 66.9736C69.6325 66.7619 69.2427 66.6122 68.8363 66.5311H68.9547C69.4915 66.4727 70.0177 66.3406 70.5184 66.1385C72.5057 65.4093 73.2345 62.5797 74.1254 60.7847C74.9041 63.5831 76.717 63.8075 77.7637 63.4585L77.8633 64.3372C78.411 64.3136 78.9524 64.2107 79.4706 64.0319C79.3526 63.642 79.2753 63.241 79.2401 62.8352C79.6575 62.6171 79.8631 62.4613 80.0749 62.3491C80.1824 62.8908 80.148 63.4512 79.9752 63.9758L82.3363 63.3525C82.9422 60.7132 84.2862 58.3008 86.2113 56.397C85.2911 55.9819 84.2747 55.8275 83.2729 55.9506C82.271 56.0736 81.3221 56.4695 80.5297 57.095C77.7699 57.9738 77.6577 61.7819 77.7387 63.0907C77.2653 63.1842 75.2468 63.8823 74.3123 60.4108C74.9738 58.9205 75.9173 57.5723 77.0908 56.4406C77.1905 56.3534 77.0908 56.2162 76.8354 56.3534C74.4681 57.9801 73.6021 60.8408 72.3312 63.259C71.8854 64.0011 71.2404 64.6031 70.4694 64.9965C69.6984 65.3898 68.8325 65.5588 67.9703 65.4841C65.4784 65.4467 64.2324 62.8103 63.0737 61.1213C61.3044 57.2446 56.7193 58.6283 53.3116 57.8056C53.1247 57.7058 52.7447 56.559 52.2027 56.6276C51.8164 56.6276 52.2027 57.0577 51.9597 57.1885C51.5298 57.0078 51.1747 56.6962 50.639 56.7834C50.3026 56.852 50.2091 57.2135 50.234 57.5251C50.5019 58.7716 51.8226 59.3014 52.8069 59.7501C53.187 60.311 53.0437 62.2431 52.7322 62.9412C52.4207 63.6392 50.7262 63.4211 50.4085 65.135C50.3539 65.4553 50.4088 65.7846 50.5642 66.0699C49.944 66.394 49.4199 66.8754 49.0442 67.466C48.3819 67.6178 47.7288 67.8071 47.088 68.0331C46.8451 67.9833 46.845 68.0768 47.0568 68.1266ZM64.6125 69.1426C64.3368 69.1222 64.0636 69.0763 63.7964 69.0054C63.6406 68.9556 63.678 68.9057 63.7964 68.8683C64.1141 68.7374 64.4755 68.6128 64.8492 68.4944C64.7505 68.7027 64.6713 68.9197 64.6125 69.1426ZM98.9762 58.7778C99.8046 59.5985 100.781 60.2541 101.854 60.7099L99.269 61.1836C99.5618 60.068 98.5588 59.6504 98.9762 58.7778ZM99.2566 49.8965C99.3562 49.8591 99.6303 49.965 99.7424 49.9962C99.8546 50.0273 99.786 50.1582 99.7424 50.2829C99.6588 50.2983 99.5726 50.2933 99.4913 50.2683C99.41 50.2434 99.3358 50.1992 99.2752 50.1395C99.2253 50.0398 99.1568 49.9401 99.2752 49.8965H99.2566ZM96.8207 48.1825C96.9413 48.1673 97.0636 48.1914 97.1696 48.2511C97.2256 48.2947 97.1696 48.4568 97.1696 48.5129C97.1696 48.5689 96.9204 48.6873 96.9204 48.6873C96.9204 48.6873 96.6899 48.5066 96.6899 48.4505C96.7269 48.3581 96.7706 48.2685 96.8207 48.1825ZM97.1259 53.1685C96.7531 52.489 96.5823 51.717 96.6337 50.9435C97.0637 51.0415 97.5124 51.0178 97.9296 50.875C98.0709 51.3337 98.1873 51.7998 98.2784 52.2711C97.8361 52.6388 97.4 52.9816 97.1072 53.1685H97.1259ZM98.1788 50.7752C98.5159 50.5736 98.9098 50.4882 99.3001 50.5322C99.3314 50.7366 99.4057 50.9321 99.5182 51.1056C99.2188 51.482 98.8711 51.8173 98.4841 52.1028C98.3283 51.4359 98.1912 50.9685 98.1601 50.7877L98.1788 50.7752ZM93.2448 63.9134C92.3165 63.4522 92.8897 63.8386 93.1638 63.6392C94.1877 64.1423 95.3532 64.2787 96.4656 64.0256C96.6213 64.2251 96.8394 64.412 96.8394 64.6863C95.4813 65.0789 94.4409 64.5803 93.2261 63.9259L93.2448 63.9134ZM98.5339 71.1494C98.5503 70.5951 98.3911 70.0497 98.0791 69.5913C97.8175 68.887 97.0637 66.9113 96.5279 65.1413C96.8518 64.8172 97.1073 64.9854 97.3191 65.8642C97.5309 66.581 97.7801 67.1668 97.9421 67.7651C98.104 68.3635 98.3782 69.155 98.565 69.5788C98.6266 69.596 98.6828 69.6284 98.7286 69.673C98.7743 69.7177 98.808 69.7732 98.8267 69.8344C99.3001 71.1494 99.4497 71.3613 99.3438 71.9908C99.4559 72.4832 100.147 72.0781 100.085 72.6889H99.2628C98.8329 72.2214 99.1444 71.5234 98.5152 71.1619L98.5339 71.1494ZM80.8972 57.4378C79.7011 58.6407 79.8569 60.4419 79.9939 61.8629C79.725 62.0425 79.4463 62.2069 79.1591 62.3553C79.0096 60.6476 79.1965 58.0486 80.8786 57.4628L80.8972 57.4378ZM65.6716 68.2388L66.4191 68.0394L67.229 69.0615H67.1916C66.6995 69.1208 66.2046 69.1541 65.709 69.1612L65.466 69.0989C65.3975 69.0989 65.2978 68.993 65.304 68.9369C65.3948 68.6888 65.5184 68.454 65.6716 68.2388ZM67.4159 69.3358C67.3761 69.3911 67.3407 69.4494 67.31 69.5103C67.31 69.5103 67.2602 69.5664 67.2352 69.5601L66.6123 69.3981C66.9175 69.4043 67.1543 69.3732 67.4222 69.3358H67.4159ZM65.2728 70.8939C65.1667 70.5936 65.112 70.2775 65.1109 69.959C65.1125 69.7961 65.1271 69.6335 65.1545 69.4729C65.3912 69.4729 65.6404 69.4729 65.8896 69.4729L67.1355 69.8157C67.1355 69.8157 67.1355 69.8593 67.1355 69.8842C67.1296 69.9631 67.1296 70.0422 67.1355 70.1211C67.139 70.1289 67.1408 70.1374 67.1408 70.146C67.1408 70.1546 67.139 70.1631 67.1355 70.1709L65.4535 70.9126C65.3949 70.9256 65.3336 70.9191 65.2791 70.8939H65.2728ZM66.444 72.4333C66.444 72.4333 66.4441 72.4333 66.4005 72.4333H66.444ZM66.2758 72.2962C65.9264 72.0297 65.6429 71.6864 65.4473 71.2928C65.4473 71.2367 65.5345 71.1494 65.5968 71.1245L67.2851 70.4202C67.2851 70.4202 67.3349 70.4202 67.3473 70.4514C67.3598 70.4825 67.4221 70.5386 67.4595 70.5823C67.4969 70.6259 67.4969 70.6446 67.4595 70.6633L66.4503 72.2027C66.444 72.2526 66.3319 72.3149 66.2945 72.2962H66.2758ZM69.8517 72.3398C69.4366 72.65 68.9463 72.8436 68.4314 72.9008C68.4017 72.8791 68.3773 72.8511 68.3601 72.8187C68.3428 72.7864 68.3331 72.7505 68.3317 72.7138L68.2445 70.8814C68.2445 70.8814 68.2444 70.8378 68.2943 70.8316C68.3707 70.8047 68.4456 70.7734 68.5185 70.7381C68.5185 70.7381 68.5871 70.7381 68.5995 70.7381L69.8019 72.1342C69.8518 72.184 69.8891 72.2962 69.858 72.3398H69.8517ZM68.4314 69.1238H68.5124C68.5124 69.1238 68.4687 69.1238 68.4438 69.1238H68.4314ZM70.7426 68.8309L68.9173 69.5165C68.9173 69.5165 68.8674 69.5165 68.855 69.4853C68.8169 69.4307 68.7753 69.3787 68.7304 69.3295C68.7191 69.3195 68.7103 69.307 68.7049 69.2928C68.6994 69.2787 68.6975 69.2635 68.6992 69.2485L68.855 69.0054C69.4157 68.8621 70.0137 68.6751 70.6429 68.457C70.6933 68.5353 70.7391 68.6164 70.78 68.7C70.78 68.7561 70.6928 68.8434 70.6305 68.8683L70.7426 68.8309ZM70.2006 72.0594C70.1508 72.0594 70.0262 72.022 69.9826 71.9783L68.7865 70.5823C68.7865 70.5823 68.7865 70.5324 68.7865 70.5137C68.7865 70.495 68.8488 70.414 68.8737 70.3641C68.8986 70.3143 68.9235 70.308 68.9484 70.3143L70.7177 70.8066C70.753 70.8161 70.7861 70.8326 70.815 70.8551C70.8439 70.8775 70.868 70.9056 70.8859 70.9375C70.7395 71.3544 70.5083 71.7364 70.2069 72.0594H70.2006ZM71.0105 70.5262C71.0105 70.576 70.8423 70.5947 70.78 70.576L69.017 70.0899C69.017 70.0899 68.9858 70.0463 68.9858 70.0276C68.9858 70.0089 68.9858 69.8904 68.9858 69.8219C68.9858 69.7533 68.9858 69.7471 68.9858 69.7409L70.699 69.1176C70.7332 69.1019 70.7704 69.0938 70.808 69.0938C70.8457 69.0938 70.8829 69.1019 70.9171 69.1176C71.0019 69.388 71.046 69.6694 71.0479 69.9528C71.048 70.1473 71.0293 70.3415 70.9918 70.5324L71.0105 70.5262ZM75.5396 66.0824C74.7484 66.6557 75.1222 67.3289 74.63 67.466C74.179 67.4936 73.7321 67.5688 73.2968 67.6904C72.9673 67.3514 72.555 67.1044 72.1007 66.9736C73.2108 66.5444 74.3669 66.2453 75.5458 66.0824H75.5396ZM72.3126 67.5034C72.1444 67.5844 71.6896 67.7589 71.0666 67.9771C70.9135 67.7487 70.7336 67.5395 70.5308 67.3538C71.1309 67.2849 71.7386 67.3357 72.3188 67.5034H72.3126ZM69.9016 67.6093C70.1163 67.7732 70.307 67.9662 70.4685 68.1828L69.1229 68.6066L69.7085 67.7091C69.732 67.6785 69.7621 67.6536 69.7967 67.6363C69.8312 67.619 69.8693 67.6098 69.9079 67.6093H69.9016ZM69.5154 67.6093L68.7802 68.725L68.1572 68.887L68.1012 67.6904C68.5934 67.5969 69.0855 67.5159 69.5527 67.466C69.5481 67.5068 69.5377 67.5467 69.5216 67.5844L69.5154 67.6093ZM68.1822 66.9861C68.4816 66.9942 68.7779 67.0489 69.0605 67.1481C68.7366 67.1918 68.4376 67.2354 68.0887 67.2977V67.1855C68.0825 67.117 68.1635 66.9985 68.1635 66.9861H68.1822ZM68.0077 70.8939L68.1012 72.7637C68.1012 72.8322 68.0513 72.9444 67.9953 72.9569C67.5249 72.9385 67.0657 72.8082 66.6558 72.5767C66.6378 72.5432 66.6285 72.5057 66.6285 72.4676C66.6285 72.4296 66.6378 72.3921 66.6558 72.3585L67.6651 70.8253C67.6651 70.8253 67.7087 70.8253 67.7337 70.8253L67.933 70.8752C67.933 70.8752 68.014 70.869 68.014 70.8877L68.0077 70.8939ZM67.9267 68.9306L67.4907 69.0179L66.6683 67.9833C67.067 67.8898 67.472 67.7963 67.8707 67.7153L67.9267 68.9306ZM67.7523 67.0172C67.7799 67.0403 67.8024 67.0688 67.8185 67.101C67.8346 67.1332 67.8439 67.1683 67.8458 67.2042V67.3476C67.3598 67.439 66.8863 67.5449 66.4253 67.6654C66.4253 67.6031 66.3817 67.5346 66.4253 67.5034C66.8226 67.2333 67.2807 67.0662 67.7585 67.0172H67.7523ZM50.8632 58.0798C50.6577 57.8118 50.3649 57.3942 50.5954 57.1138C50.8259 56.8333 51.1062 57.0701 51.3118 57.1574C51.9169 57.498 52.5409 57.8039 53.1807 58.0736C55.8969 58.7529 59.3234 57.7557 61.4789 59.7065C61.5323 59.7408 61.5751 59.7892 61.6026 59.8465C61.6301 59.9037 61.6412 59.9674 61.6346 60.0306C58.4886 57.8679 53.7352 61.0527 50.8695 58.0736L50.8632 58.0798ZM53.4175 61.5513C53.6417 61.6822 53.729 62.0437 53.9782 62.2431C54.3831 62.9162 55.1431 63.1406 55.5481 63.7202C55.4117 63.7389 55.2733 63.7389 55.1369 63.7202C54.9322 63.6701 54.7353 63.5925 54.5513 63.4896C54.479 63.3986 54.3772 63.3356 54.2634 63.3117C54.1497 63.2878 54.0311 63.3044 53.9283 63.3587C53.5836 63.3855 53.2367 63.3582 52.9004 63.2777C52.9503 62.7168 53.4673 62.1995 53.4237 61.5451L53.4175 61.5513ZM49.5176 71.3489C49.3421 71.063 49.206 70.7549 49.1127 70.4327C49.1329 70.3682 49.1702 70.3103 49.2207 70.2653C49.2712 70.2203 49.3329 70.1898 49.3993 70.1771L51.3367 69.8219C51.3446 69.8153 51.3545 69.8117 51.3648 69.8117C51.375 69.8117 51.3849 69.8153 51.3928 69.8219C51.4067 69.8724 51.4277 69.9206 51.4551 69.9653C51.4593 69.9693 51.4625 69.9742 51.4648 69.9795C51.467 69.9849 51.4682 69.9906 51.4682 69.9964C51.4682 70.0022 51.467 70.0079 51.4648 70.0133C51.4625 70.0186 51.4593 70.0235 51.4551 70.0276L49.9163 71.2741C49.8673 71.3267 49.8024 71.3619 49.7316 71.3743C49.6607 71.3866 49.5878 71.3755 49.5238 71.3426L49.5176 71.3489ZM49.935 68.4881C50.3898 68.4881 50.8445 68.5255 51.3055 68.5255L51.5547 68.7998C51.5639 68.8101 51.569 68.8234 51.569 68.8372C51.569 68.851 51.5639 68.8643 51.5547 68.8746C51.5193 68.9113 51.4899 68.9533 51.4675 68.9992C51.4587 69.0063 51.4477 69.0101 51.4364 69.0101C51.4251 69.0101 51.4141 69.0063 51.4052 68.9992L49.935 68.4881ZM50.9069 72.558C50.5471 72.3882 50.2202 72.1562 49.9412 71.8724C49.9244 71.8047 49.9272 71.7335 49.9492 71.6673C49.9713 71.6011 50.0117 71.5425 50.0658 71.4984L51.6046 70.2519C51.6046 70.2519 51.6482 70.2208 51.6669 70.2519C51.7198 70.3004 51.7784 70.3423 51.8414 70.3766C51.8455 70.3806 51.8488 70.3855 51.851 70.3908C51.8533 70.3962 51.8545 70.4019 51.8545 70.4077C51.8545 70.4135 51.8533 70.4193 51.851 70.4247C51.8488 70.43 51.8455 70.4349 51.8414 70.4389L51.1747 72.3087C51.1311 72.4894 50.9817 72.5642 50.9131 72.5517L50.9069 72.558ZM51.6669 68.5255H52.0282C51.959 68.5503 51.8923 68.5816 51.8289 68.619C51.8248 68.6231 51.82 68.6265 51.8146 68.6287C51.8093 68.6309 51.8035 68.6321 51.7977 68.6321C51.7919 68.6321 51.7862 68.6309 51.7808 68.6287C51.7755 68.6265 51.7707 68.6231 51.7666 68.619L51.6669 68.5255ZM52.6387 72.8883C52.5453 72.8883 52.4519 72.8883 52.3584 72.8883C52.0806 72.8864 51.8043 72.8487 51.5361 72.7761C51.488 72.7295 51.4538 72.6705 51.4373 72.6055C51.4208 72.5406 51.4226 72.4723 51.4427 72.4084L52.1154 70.5386C52.1184 70.5265 52.1258 70.516 52.1362 70.509C52.1466 70.5021 52.1592 70.4993 52.1715 70.5012C52.2315 70.508 52.2922 70.508 52.3522 70.5012C52.3644 70.5011 52.3762 70.5055 52.3854 70.5136C52.3946 70.5216 52.4005 70.5328 52.402 70.5449L52.7634 72.4894C52.7843 72.5564 52.7841 72.6281 52.7629 72.695C52.7418 72.7619 52.7006 72.8206 52.645 72.8634L52.6387 72.8883ZM52.6387 68.2825H52.265L52.0594 67.1918H53.0374L52.6387 68.2825ZM52.8506 68.5068H53.3614L53.0562 68.7624C53.0521 68.7665 53.0473 68.7698 53.0419 68.772C53.0366 68.7743 53.0308 68.7755 53.025 68.7755C53.0192 68.7755 53.0134 68.7743 53.0081 68.772C53.0027 68.7698 52.9979 68.7665 52.9939 68.7624C52.9477 68.7221 52.8976 68.6866 52.8444 68.6564C52.8404 68.6529 52.8372 68.6486 52.835 68.6438C52.8328 68.6389 52.8317 68.6337 52.8317 68.6284C52.8317 68.6231 52.8328 68.6178 52.835 68.613C52.8372 68.6082 52.8404 68.6038 52.8444 68.6003L52.8506 68.5068ZM54.3333 72.2463C54.0041 72.4847 53.6349 72.6621 53.2431 72.7699C53.1822 72.7458 53.128 72.707 53.0857 72.657C53.0433 72.6069 53.0139 72.5473 53.0001 72.4832L52.6387 70.5449C52.6317 70.536 52.6279 70.525 52.6279 70.5137C52.6279 70.5024 52.6317 70.4914 52.6387 70.4826C52.706 70.4578 52.7707 70.4264 52.8319 70.3891C52.8407 70.382 52.8517 70.3781 52.863 70.3781C52.8743 70.3781 52.8853 70.382 52.8942 70.3891L54.2211 71.8475C54.2812 71.8869 54.3274 71.9442 54.3531 72.0113C54.3788 72.0784 54.3827 72.1519 54.3644 72.2214L54.3333 72.2463ZM54.8316 71.8039C54.7662 71.8229 54.6968 71.8237 54.6309 71.8061C54.565 71.7886 54.5052 71.7533 54.4579 71.7041L53.1434 70.2332C53.1374 70.2228 53.1342 70.211 53.1342 70.199C53.1342 70.1869 53.1374 70.1751 53.1434 70.1647C53.1779 70.1249 53.2072 70.0809 53.2306 70.0338C53.2306 70.0338 53.268 70.0338 53.2929 70.0338L55.1618 70.7007C55.3612 70.7755 55.411 70.9313 55.3923 70.9936C55.2502 71.277 55.0723 71.5409 54.8628 71.7789L54.8316 71.8039ZM56.6134 67.6592C56.7442 67.7028 56.7878 67.7839 56.6134 67.8337C56.4389 67.8836 56.2396 67.9147 56.0465 67.9521C55.9684 67.7841 55.8789 67.6217 55.7786 67.466C56.0705 67.5038 56.3597 67.5601 56.6445 67.6343L56.6134 67.6592ZM55.7101 69.3295C55.7101 69.3918 55.7101 69.4604 55.7101 69.5227C55.7067 69.7981 55.6712 70.0721 55.6041 70.3392C55.5607 70.3917 55.502 70.4296 55.4362 70.4474C55.3704 70.4653 55.3007 70.4623 55.2366 70.4389L53.3676 69.7658C53.3676 69.7658 53.324 69.7346 53.3302 69.7097C53.3367 69.6559 53.3367 69.6015 53.3302 69.5477C53.3302 69.5477 53.3303 69.5103 53.3739 69.504L55.3488 69.1924C55.4167 69.1607 55.4938 69.1546 55.5659 69.1752C55.638 69.1958 55.7003 69.2418 55.7412 69.3046L55.7101 69.3295ZM55.5979 68.7063C55.58 68.7715 55.5433 68.8299 55.4923 68.8743C55.4414 68.9186 55.3784 68.9469 55.3113 68.9556L53.3489 69.261C53.3397 69.2671 53.3289 69.2704 53.3178 69.2704C53.3067 69.2704 53.2959 69.2671 53.2867 69.261C53.2689 69.1931 53.2416 69.128 53.2057 69.0678C53.2057 69.0678 53.2057 69.0241 53.2057 68.9992L53.7913 68.5006C54.3458 68.457 54.9002 68.3946 55.4484 68.3136C55.5158 68.4239 55.5762 68.5384 55.6291 68.6564L55.5979 68.7063ZM55.1244 67.628C55.226 67.7754 55.3136 67.9319 55.3861 68.0955C54.9812 68.1516 54.5513 68.2014 54.0966 68.2326L54.7195 67.6841C54.7645 67.6136 54.835 67.5631 54.9163 67.5434C54.9976 67.5236 55.0833 67.5361 55.1556 67.5782L55.1244 67.628ZM53.4051 66.9674L53.486 66.7368C53.5049 66.6705 53.5438 66.6116 53.5973 66.5682C53.6508 66.5247 53.7163 66.4987 53.7851 66.4937C54.0979 66.6473 54.3874 66.8446 54.6448 67.0796C54.2336 67.0297 53.8162 66.9923 53.3988 66.9674H53.4051ZM54.651 67.3289C54.6368 67.3865 54.609 67.4399 54.57 67.4847L53.6542 68.27L52.944 68.3012L53.3178 67.2354C53.8349 67.2042 54.2523 67.2354 54.6759 67.279L54.651 67.3289ZM52.0532 66.1883C52.1486 66.1822 52.2443 66.1822 52.3397 66.1883C52.6129 66.1917 52.8848 66.2272 53.1496 66.2943C53.1976 66.3436 53.2316 66.4048 53.248 66.4717C53.2645 66.5385 53.2628 66.6085 53.2431 66.6745L53.1309 66.9861C52.8319 66.9861 52.508 66.9861 52.2339 66.9861C52.1529 66.9861 52.0843 66.9861 52.0034 66.9861L51.9285 66.5685C51.9087 66.5307 51.8968 66.4893 51.8936 66.4467C51.8904 66.4041 51.896 66.3613 51.91 66.321C51.9241 66.2807 51.9462 66.2437 51.9751 66.2123C52.004 66.1809 52.0391 66.1558 52.0781 66.1385L52.0532 66.1883ZM51.9909 68.3199H51.4239L50.5455 67.3601C50.9505 67.3102 51.3616 67.2728 51.7915 67.2479L51.9909 68.3199ZM51.4115 66.3005C51.476 66.3207 51.5338 66.3581 51.5788 66.4085C51.6238 66.459 51.6542 66.5208 51.6669 66.5872L51.7167 66.849C51.5473 66.6981 51.3929 66.5311 51.2557 66.3504L51.4177 66.3005H51.4115ZM50.3275 66.8303C50.4854 66.7174 50.6521 66.6174 50.8259 66.5311C50.9742 66.6982 51.1323 66.8564 51.2994 67.0048C50.9817 67.0048 50.6764 67.0671 50.3587 67.117C50.3248 67.0677 50.3061 67.0095 50.305 66.9496C50.3039 66.8898 50.3204 66.831 50.3524 66.7804L50.3275 66.8303ZM49.6672 67.4535L50.2403 67.3725L51.0626 68.2887C50.4397 68.2887 49.8914 68.2575 49.3432 68.2201C49.3234 68.2009 49.308 68.1775 49.2983 68.1516C49.2886 68.1258 49.2848 68.0981 49.2871 68.0705C49.4013 67.8461 49.5369 67.6332 49.692 67.4348L49.6672 67.4535ZM49.2123 68.2077C49.2135 68.1932 49.2135 68.1786 49.2123 68.164C49.2155 68.1784 49.2155 68.1933 49.2123 68.2077ZM49.0628 68.7C49.1123 68.6524 49.1741 68.6195 49.2413 68.6052C49.3085 68.5909 49.3782 68.5956 49.4428 68.619L51.3118 69.2796C51.3227 69.2844 51.3321 69.2923 51.3387 69.3022C51.3453 69.3122 51.349 69.3238 51.3492 69.3358C51.3431 69.3979 51.3431 69.4606 51.3492 69.5227C51.3492 69.5227 51.3491 69.5601 51.3055 69.5664L49.3618 69.9279C49.2973 69.9446 49.2292 69.941 49.1668 69.9176C49.1043 69.8942 49.0506 69.852 49.013 69.797C49.013 69.7035 49.013 69.61 49.013 69.5165C49.001 69.236 49.0262 68.9552 49.0878 68.6813L49.0628 68.7ZM47.8854 67.8836C48.182 67.7832 48.4835 67.698 48.7887 67.628C48.6984 67.795 48.6194 67.9679 48.552 68.1454C48.3215 68.1454 48.0785 68.0955 47.8854 68.0581C47.6922 68.0207 47.7857 67.9147 47.9103 67.8649L47.8854 67.8836Z" fill="#3A3E55"/>
<path d="M91.1576 102.679H89.7247V112.346H91.1576V102.679Z" fill="#3A3E55"/>
<path d="M84.6723 110.433C83.8936 109.23 83.3329 108.339 82.4109 107.753C82.9112 107.596 83.347 107.281 83.6526 106.855C83.9583 106.429 84.1172 105.915 84.1054 105.39C84.1054 103.72 82.8221 102.679 80.7725 102.679H78.212V112.377H79.6698V108.176H80.2928C81.0403 108.176 81.6447 108.401 82.9841 110.389L84.2674 112.371H85.9744L85.2268 111.249C85.0212 110.969 84.8406 110.701 84.6723 110.433ZM79.676 106.905V103.87H80.6105C82.0247 103.87 82.5916 104.424 82.6041 105.328C82.6165 106.232 82.1742 106.905 80.623 106.905H79.676Z" fill="#3A3E55"/>
<path d="M75.7699 90.8695C75.7425 90.3253 75.5857 89.7955 75.3127 89.324C75.0397 88.8525 74.6582 88.4529 74.2 88.1583C73.9769 88.0278 73.7283 87.947 73.4711 87.9215C73.7425 87.9424 74.015 87.9019 74.2686 87.8031C74.9197 87.462 75.4583 86.9399 75.8197 86.2997C76.1811 85.6595 76.3499 84.9284 76.3057 84.1944C76.3227 83.5189 76.1744 82.8494 75.8736 82.2443C75.5729 81.6393 75.1288 81.117 74.5801 80.7229C73.5663 80.0628 72.3673 79.746 71.1599 79.8192H61.703V82.2249H63.8336V94.3472H61.703V96.7468H68.4188V94.3472H66.3193V89.006H70.9605C71.2406 88.9785 71.5232 89.0089 71.7911 89.0952C72.0589 89.1815 72.3062 89.3219 72.5177 89.5077C72.7291 89.6935 72.9001 89.9207 73.0202 90.1754C73.1402 90.43 73.2068 90.7065 73.2157 90.9879L73.3341 96.7405H77.9753V94.3472H75.8011L75.7699 90.8695ZM71.4963 86.675H66.3504V82.2249H71.2222C71.7726 82.1778 72.3265 82.2566 72.8419 82.4555C73.2085 82.6486 73.5122 82.9424 73.7175 83.3024C73.9228 83.6623 74.021 84.0734 74.0007 84.4874C73.9575 85.1093 73.6697 85.6888 73.2003 86.0988C72.7308 86.5089 72.1181 86.7161 71.4963 86.675Z" fill="#3A3E55"/>
<path d="M69.621 102.623L65.3411 112.346H66.9173L68.0885 109.498H72.3248L73.5333 112.346H75.1095L70.6552 102.623H69.621ZM68.6118 108.233L70.1007 104.412L71.708 108.233H68.6118Z" fill="#3A3E55"/>
<path d="M60.8932 102.679H57.691V112.377H59.1177V108.195H60.6876C62.9926 108.195 64.0455 107.011 64.0455 105.49C64.0455 103.969 63.0674 102.679 60.8932 102.679ZM60.8371 106.917H59.1239V103.926H60.8994C62.1952 103.926 62.5877 104.692 62.5877 105.397C62.5877 106.363 61.9336 106.917 60.8371 106.917Z" fill="#3A3E55"/>
<path d="M90.3851 60.473C90.3166 59.5132 90.7153 58.703 90.2667 57.6809C90.2667 57.257 90.5657 56.9329 90.4847 56.5403L89.7621 56.7148C89.6101 57.313 89.5637 57.9331 89.625 58.5472C89.8182 59.401 89.9117 60.205 90.3851 60.473Z" fill="#3A3E55"/>
<path d="M82.8844 63.1408C85.2691 62.4963 87.6067 61.6883 89.8805 60.7225C89.2065 59.5228 88.9708 58.1257 89.2139 56.7711C88.3599 56.7619 87.5103 56.6467 86.6846 56.4283C85.071 57.4816 83.1897 61.2024 82.8844 63.1408Z" fill="#3A3E55"/>
<path d="M95.7553 57.531C94.5903 56.727 93.6807 54.851 92.4036 54.9756C92.279 53.5982 91.681 51.2361 93.5873 48.7742C93.8365 48.6621 94.2102 48.6184 94.3909 48.4377C93.6122 48.3566 92.5843 48.8365 91.8429 48.4377C91.8429 48.4377 92.1855 49.0609 92.5842 49.1295C92.3226 49.4848 91.8117 49.7528 92.1232 50.376C92.0172 50.4352 91.926 50.5177 91.8565 50.6173C91.7869 50.7169 91.7407 50.831 91.7215 50.9509C91.7024 51.0709 91.7106 51.1936 91.7457 51.3099C91.7807 51.4263 91.8417 51.5331 91.9239 51.6225C91.8354 51.6978 91.7627 51.79 91.71 51.8936C91.6573 51.9972 91.6257 52.1103 91.617 52.2262C91.6083 52.3422 91.6227 52.4587 91.6593 52.569C91.696 52.6794 91.7541 52.7813 91.8305 52.869C91.3134 53.4237 91.9613 53.8974 92.1108 54.1155C92.035 54.2686 91.9956 54.4371 91.9956 54.6079C91.9956 54.7787 92.035 54.9472 92.1108 55.1002C92.1108 55.5054 91.3881 56.0788 91.1265 56.2595C90.8212 57.2069 90.9396 59.1015 90.9832 60.3605C92.6954 59.6394 94.301 58.6874 95.7553 57.531Z" fill="#3A3E55"/>
<path d="M105.118 72.7068H101.923C101.885 72.925 102.134 73.0808 102.278 73.249H105.773L106.745 72.7754C106.919 72.3516 106.57 71.9776 106.583 71.6411C106.639 70.6189 106.072 69.6093 105.773 68.6744C105.972 68.4687 106.215 67.995 106.533 68.1197C107.229 69.3752 107.496 70.8242 107.293 72.2456C107.218 72.6133 106.595 72.9499 106.614 73.2927C106.614 73.4111 107.442 73.3613 107.779 73.0746C107.914 72.8189 108.134 72.6184 108.402 72.5074C108.557 72.0587 108.314 72.0774 108.352 71.8031C108.406 70.9934 108.351 70.1802 108.19 69.3849C108.134 69.3849 108.115 69.3849 108.115 69.3849C107.959 68.986 108.339 68.369 108.489 67.995L109.604 67.8891C109.473 66.8981 109.118 65.8697 108.894 64.8538C109.053 64.6193 109.267 64.4268 109.517 64.2929C110.688 63.5201 109.654 62.2673 109.616 61.3013C109.417 60.8027 108.726 60.41 108.663 59.8616C108.704 59.8915 108.75 59.913 108.8 59.9247C108.849 59.9365 108.9 59.9383 108.95 59.9301C109.286 59.6995 109.268 59.3692 109.099 58.9516C109.425 58.6081 109.731 58.246 110.015 57.8671C109.926 57.5595 109.756 57.2816 109.522 57.0623C109.289 56.843 109.001 56.6905 108.688 56.6206C108.402 56.7764 108.215 57.0881 107.698 57.4932C107.698 57.4932 107.075 57.2813 106.888 57.4932C106.701 57.7051 106.769 58.1165 107.1 58.3658C107.055 58.4763 107.005 58.5844 106.95 58.6898C106.95 58.7646 106.9 58.8457 106.95 58.8893C107.009 58.9527 107.047 59.0327 107.06 59.1185C107.072 59.2043 107.058 59.2918 107.019 59.3692C106.938 59.6185 107.212 59.7992 107.311 59.8304C107.342 59.854 107.369 59.8812 107.392 59.9114C107.43 60.1857 106.502 60.678 106.502 60.8899C106.427 61.5132 106.028 61.4633 105.642 63.5637C105.685 64.0155 105.685 64.4705 105.642 64.9224C105.168 66.1689 104.782 66.9043 104.458 67.8081C104.197 68.556 105.704 70.7249 105.704 72.202C105.399 72.632 105.137 72.5635 105.118 72.7068ZM107.548 70.4631C107.46 70.2438 107.426 70.0066 107.449 69.7713C107.579 69.6467 107.822 69.7339 107.947 69.7152C108.09 70.4133 108.128 70.513 107.548 70.4631ZM107.548 60.1233C107.59 60.0695 107.626 60.0109 107.654 59.9488C108.146 59.631 107.81 59.8616 107.318 59.5998C107.162 59.5188 107.156 59.3692 107.174 59.151C107.187 59.0785 107.182 59.004 107.161 58.9336C107.139 58.8632 107.101 58.7989 107.05 58.7459C107.05 58.7086 107.112 58.5777 107.174 58.4842C107.274 58.2811 107.364 58.0731 107.442 57.8609C108.258 57.8921 108.065 58.2536 108.103 58.3159C108.247 58.576 108.442 58.8048 108.676 58.989C108.626 59.4814 108.24 59.1947 108.408 59.6123C108.364 60.4661 107.349 60.3602 106.913 61.0644C106.875 60.41 107.492 60.41 107.554 60.1233H107.548ZM106.62 63.8068C106.844 64.0062 107.081 64.2617 107.243 64.2991C107.355 64.5921 107 64.6357 106.869 64.7728C106.564 64.8164 106.452 64.4986 106.246 64.6419C106.209 64.6731 106.022 64.6419 106.028 64.6045C106.169 64.2995 106.373 64.0277 106.626 63.8068H106.62ZM104.701 68.1695C104.589 67.5775 105.374 66.6613 105.897 64.8538C106.115 64.779 106.227 65.2714 106.52 65.0844C106.994 65.0844 106.788 66.3309 107.23 65.5394C107.23 65.1966 107.23 64.8102 107.486 64.6232C107.543 64.6033 107.605 64.5974 107.665 64.6061C107.725 64.6148 107.782 64.6379 107.832 64.6733C107.881 64.7087 107.921 64.7555 107.949 64.8097C107.977 64.8639 107.991 64.9239 107.991 64.9847L107.536 65.689C108.395 65.7264 107.262 67.11 108.395 66.8545C108.358 67.378 108.078 68.8364 107.878 68.7616C107.723 67.9514 107.598 68.288 107.598 68.5248C107.586 68.814 107.66 69.1002 107.81 69.3475C107.748 69.4161 107.517 69.4098 107.449 69.4223C106.826 68.5061 106.826 67.2409 106.421 66.2437C106.38 66.2466 106.342 66.2639 106.314 66.2926C106.285 66.3212 106.268 66.3591 106.265 66.3995C106.215 67.0227 105.984 67.8704 105.486 68.1571C105.181 68.3378 106.165 68.2256 105.355 68.6058C105.667 68.8115 105.355 69.092 105.044 69.092C104.896 68.7965 104.783 68.4849 104.707 68.1633L104.701 68.1695ZM105.548 70.164C105.404 69.9414 105.281 69.7056 105.181 69.4597L105.654 69.2665C105.824 69.4756 105.932 69.7282 105.966 69.9957C105.837 70.0783 105.693 70.1335 105.542 70.1577L105.548 70.164Z" fill="#3A3E55"/>
<path d="M97.1007 104.949C97.1007 104.263 97.7985 103.802 98.7641 103.802C99.6913 103.811 100.581 104.169 101.256 104.805V103.228C100.551 102.789 99.7377 102.556 98.9074 102.555C96.9762 102.555 95.7115 103.559 95.7115 105.129C95.7115 107.778 100.266 108.009 100.266 110.009C100.266 110.545 99.7298 111.225 98.5523 111.225C98.0154 111.209 97.4883 111.076 97.0083 110.835C96.5282 110.594 96.1068 110.25 95.7738 109.829V111.58C96.6349 112.186 97.6677 112.501 98.7206 112.477C100.421 112.477 101.673 111.368 101.673 109.854C101.661 106.768 97.1007 106.806 97.1007 104.949Z" fill="#3A3E55"/>
</svg>
