<svg width="158" height="20" viewBox="0 0 158 20" fill="none" xmlns="http://www.w3.org/2000/svg">
<path d="M3.34061 0.51332C3.5096 0.517493 3.67858 0.521665 3.84518 0.504538C4.13346 0.474742 4.19549 0.591019 4.19478 0.872993C4.18706 4.0296 4.18735 7.18621 4.18763 10.3428C4.18768 10.9347 4.18773 11.5266 4.18773 12.1185C4.18773 12.4954 4.18742 12.8723 4.18711 13.2492C4.18609 14.474 4.18508 15.6989 4.19478 16.9237C4.19689 17.202 4.11231 17.2711 3.85364 17.2682C3.03832 17.2585 2.22301 17.2599 1.39676 17.2613H1.39611L1.39486 17.2613C1.09815 17.2619 0.800034 17.2624 0.5 17.2624V0.509625H3.11637C3.19099 0.509625 3.2658 0.511472 3.34061 0.51332Z" fill="#6219FF"/>
<path d="M57.6662 2.16877C57.2123 2.18113 56.7562 2.18912 56.303 2.16659C56.0289 2.15278 55.9429 2.22982 55.9457 2.52633C55.9534 3.37981 55.9533 4.23349 55.9532 5.08716V5.08846C55.9531 5.88005 55.953 6.67163 55.9591 7.46305C55.9612 7.75302 55.8745 7.83368 55.5975 7.8315C54.2818 7.82278 52.9657 7.82387 51.6497 7.82496H51.6486C51.2103 7.82533 50.772 7.82569 50.3337 7.82569C49.8481 7.82569 49.8481 7.82569 49.8481 7.32642C49.8481 6.78931 49.8482 6.25212 49.8482 5.7149V5.6936C49.8484 4.62497 49.8486 3.55623 49.8481 2.48781C49.8481 2.46845 49.8489 2.44863 49.8496 2.42882C49.8546 2.29915 49.8597 2.16979 49.6493 2.17168C49.2323 2.17587 48.8148 2.17515 48.3915 2.17442C48.2274 2.17414 48.0625 2.17386 47.8964 2.17386V15.6003C48.0617 15.6003 48.2248 15.5992 48.3863 15.5981C48.7758 15.5954 49.156 15.5928 49.5351 15.6061C49.7896 15.6149 49.8551 15.5284 49.8537 15.2718C49.8488 14.4565 49.8488 13.641 49.8488 12.8255C49.8488 11.9081 49.8488 10.9907 49.8417 10.0735C49.8396 9.75736 49.9327 9.66652 50.2372 9.6687C52.0127 9.68178 53.7889 9.6825 55.5644 9.6687C55.8653 9.66652 55.9626 9.745 55.9598 10.0662C55.9488 11.3394 55.9502 12.6131 55.9517 13.8865C55.9522 14.3241 55.9527 14.7616 55.9527 15.1992V15.5989C56.0848 15.5989 56.2158 15.5992 56.3457 15.5994C56.8322 15.6005 57.3053 15.6016 57.7776 15.5872C57.8318 15.5858 57.9256 15.423 57.9263 15.3351C57.9308 12.8305 57.932 10.3256 57.9331 7.82081V7.8203C57.934 6.0314 57.9348 4.2424 57.9369 2.45365C57.9376 2.23854 57.8755 2.16296 57.6662 2.16877Z" fill="#6219FF"/>
<path d="M81.7513 8.08149C81.6357 7.35766 81.3107 6.74865 80.6968 6.33368C79.4859 5.51611 77.6202 5.73049 76.6066 6.8126C76.476 6.95216 76.357 7.10311 76.2293 7.26523C76.1661 7.3454 76.1007 7.4283 76.0308 7.5139C75.536 6.35839 74.6831 5.83442 73.5109 5.84168C72.3698 5.84895 71.5092 6.39909 70.8734 7.3751C70.8632 7.36676 70.8529 7.3586 70.8425 7.35045C70.8321 7.34225 70.8216 7.33406 70.8114 7.32568V6.09604C70.653 6.09604 70.4976 6.09762 70.3443 6.09917H70.3438C69.9864 6.10278 69.6407 6.10628 69.296 6.0895C68.9957 6.07497 68.902 6.16435 68.9034 6.48485C68.9137 8.39347 68.9127 10.3021 68.9117 12.2104V12.2106C68.9114 12.7756 68.9112 13.3406 68.9112 13.9056C68.9112 14.0307 68.9106 14.1559 68.91 14.2811C68.9084 14.6355 68.9067 14.9898 68.9182 15.3438C68.921 15.4295 69.0197 15.5829 69.0782 15.5843C69.5184 15.5984 69.9595 15.5972 70.4145 15.5959L70.4155 15.5959C70.5467 15.5956 70.679 15.5952 70.8128 15.5952V15.2021C70.8126 14.714 70.811 14.2258 70.8094 13.7377V13.7364C70.8056 12.5467 70.8018 11.3567 70.8177 10.1672C70.8304 9.22828 71.0856 8.35619 71.9018 7.82204C72.89 7.17525 74.2567 7.60257 74.3892 9.04441C74.4117 9.29368 74.4223 9.54441 74.4223 9.79513C74.4244 11.1398 74.4242 12.4844 74.4239 13.829V13.8424C74.4238 14.2913 74.4237 14.7401 74.4237 15.189V15.5705H76.3099C76.3111 15.5462 76.3124 15.5231 76.3138 15.501L76.3156 15.4712L76.3156 15.4707L76.3157 15.47C76.3197 15.404 76.3233 15.3459 76.3233 15.2878C76.3233 14.8961 76.3234 14.5043 76.3236 14.1126C76.3241 12.8372 76.3246 11.5616 76.3197 10.2857C76.3176 9.68612 76.4233 9.11927 76.6933 8.58511C77.0866 7.80533 77.9162 7.3969 78.7402 7.58294C79.5324 7.76172 79.913 8.25663 79.925 9.26316C79.9424 10.6645 79.9412 12.0658 79.94 13.4672C79.9395 14.0491 79.939 14.631 79.9398 15.213V15.5741H81.8415V15.2006C81.8415 14.713 81.8417 14.2253 81.842 13.7377C81.8428 12.2748 81.8436 10.8118 81.8372 9.34891C81.8344 8.92668 81.8175 8.49791 81.7513 8.08149Z" fill="#6219FF"/>
<path d="M16.5599 8.8911C16.5599 8.3085 16.5597 7.7259 16.5596 7.14331V7.14315C16.559 5.0464 16.5584 2.94961 16.5655 0.853396C16.5662 0.579416 16.4887 0.500928 16.2265 0.504562C15.2017 0.51837 14.1775 0.51619 13.1527 0.506015C12.918 0.503835 12.8228 0.552527 12.8235 0.827233C12.832 6.19709 12.8313 11.5662 12.8242 16.9361C12.8235 17.1963 12.8926 17.2718 13.1435 17.2682C14.1684 17.2551 15.1932 17.2522 16.2173 17.2697C16.5042 17.2747 16.5676 17.1781 16.5669 16.8968C16.5581 14.8002 16.5588 12.7035 16.5595 10.6068C16.5597 10.0349 16.5599 9.463 16.5599 8.8911Z" fill="#6219FF"/>
<path d="M37.8699 13.3664C38.1286 13.3664 38.192 13.4492 38.1892 13.6999C38.1786 14.7675 38.1744 15.8358 38.1927 16.9027C38.197 17.1897 38.1258 17.2704 37.8424 17.2689C35.8733 17.26 33.9045 17.2609 31.9356 17.2619C31.3363 17.2621 30.7371 17.2624 30.1378 17.2624C29.5817 17.2624 29.0257 17.2622 28.4697 17.2621C26.4681 17.2614 24.4667 17.2608 22.4649 17.2682C22.1858 17.2689 22.0793 17.2101 22.0857 16.8925C22.1068 15.8358 22.1012 14.7784 22.0892 13.7217C22.0864 13.4536 22.1625 13.3664 22.4296 13.3671C27.5764 13.3744 32.7232 13.3744 37.8699 13.3664Z" fill="#6219FF"/>
<path d="M22.0892 4.04377C22.0864 4.30758 22.1583 4.40351 22.4282 4.40278C27.5736 4.39551 32.7182 4.39551 37.8636 4.40278C38.1152 4.40278 38.192 4.3272 38.1892 4.07066C38.1786 3.00309 38.1751 1.93551 38.1913 0.867933C38.1955 0.583052 38.1258 0.500204 37.8417 0.501657C35.8817 0.510572 33.9214 0.509662 31.9612 0.508752C31.3646 0.508475 30.7681 0.508198 30.1716 0.508198C29.5676 0.508198 28.9636 0.50852 28.3596 0.508842C26.3963 0.509888 24.4329 0.510934 22.4698 0.500931C22.159 0.499477 22.0815 0.597587 22.0864 0.904996C22.104 1.95222 22.0998 2.998 22.0892 4.04377Z" fill="#6219FF"/>
<path fill-rule="evenodd" clip-rule="evenodd" d="M128.417 7.46911C128.459 7.43301 128.485 7.41019 128.504 7.38239C129.768 5.54011 132.683 5.26904 134.352 6.98777C135.549 8.22032 135.887 9.75519 135.77 11.4267C135.692 12.5284 135.303 13.516 134.61 14.3721C133.241 16.0604 130.642 16.3714 129.013 15.0269C128.861 14.9015 128.72 14.7612 128.567 14.6091C128.493 14.5348 128.415 14.4576 128.332 14.378V19.5H126.417V6.11569H128.32V7.55608C128.359 7.51906 128.391 7.49152 128.417 7.46911ZM130.519 14.0117C131.59 14.2014 132.503 13.8496 133.193 12.9717C133.976 11.9761 134.077 10.2988 133.456 9.14763C132.993 8.28863 132.298 7.76901 131.353 7.66C129.574 7.45506 128.127 8.90272 128.126 10.8286C128.15 10.9526 128.168 11.0782 128.187 11.2037L128.187 11.2042L128.187 11.2044C128.228 11.4766 128.269 11.7489 128.353 12.0059C128.706 13.0851 129.407 13.8147 130.519 14.0117Z" fill="#6219FF"/>
<path d="M114.392 11.6926C113.518 13.0814 112.359 13.9593 110.678 13.9666C109.082 13.9739 107.826 13.3205 106.956 11.9535C106.142 10.6738 105.946 9.24499 106.209 7.75518C106.584 5.62221 108.248 3.84388 110.462 3.809C111.783 3.78865 112.912 4.21743 113.762 5.285C113.971 5.54652 114.152 5.83141 114.337 6.12372C114.423 6.2595 114.51 6.39688 114.602 6.53426C114.713 6.45097 114.825 6.36809 114.936 6.28525L114.937 6.2849C115.296 6.01801 115.654 5.75154 116.004 5.47323C116.059 5.4289 116.078 5.25666 116.041 5.18108C115.585 4.23414 114.935 3.45363 114.058 2.90276C112.397 1.86062 110.602 1.62225 108.757 2.19056C106.495 2.88677 105.032 4.48487 104.361 6.80243C103.912 8.35329 103.973 9.93466 104.492 11.4637C105.195 13.5364 106.567 14.9404 108.615 15.5988C109.739 15.9608 110.889 15.9317 112.033 15.7173C113.986 15.3518 115.176 13.9833 116.197 12.3358C115.998 12.1901 115.802 12.047 115.607 11.9039L115.604 11.9016L115.597 11.8969C115.293 11.6741 114.989 11.4514 114.671 11.2188C114.655 11.2463 114.639 11.2731 114.624 11.2994L114.597 11.346L114.597 11.3465C114.525 11.4718 114.46 11.5837 114.392 11.6926Z" fill="#6219FF"/>
<path fill-rule="evenodd" clip-rule="evenodd" d="M153.991 11.8607V11.8613C153.991 12.1339 153.99 12.4064 153.99 12.6788C153.99 12.7217 153.99 12.7645 153.99 12.8074C153.988 13.7552 153.986 14.7023 154.541 15.5436C153.442 15.7449 152.408 15.4535 152.144 14.0117C152.134 14.0261 152.123 14.04 152.113 14.0534C152.094 14.0781 152.076 14.1011 152.059 14.123L152.059 14.1233C152.009 14.1874 151.967 14.2414 151.931 14.2995C150.895 15.9746 148.326 16.3903 146.877 15.117C145.704 14.0858 145.505 11.5778 147.296 10.4812C148.117 9.97846 149.019 9.83367 149.928 9.68793C149.976 9.68008 150.025 9.67223 150.074 9.66432C150.142 9.6534 150.209 9.64244 150.276 9.63146L150.387 9.61336L150.391 9.61286C150.859 9.5365 151.327 9.46015 151.796 9.39252C152.032 9.35837 152.111 9.24645 152.098 9.00009C152.054 8.15198 151.738 7.52917 150.82 7.3533C150.081 7.21159 149.371 7.22757 148.726 7.69487C148.417 7.91943 148.264 8.21521 148.259 8.60765C148.257 8.69994 148.187 8.84529 148.113 8.87363C147.747 9.01774 147.375 9.14705 146.995 9.27898C146.877 9.32003 146.759 9.36134 146.639 9.40342C146.284 8.43396 146.583 7.4158 147.378 6.76537C148.515 5.83587 149.825 5.72323 151.194 5.91218C151.943 6.01538 152.624 6.28209 153.173 6.84531C153.839 7.5299 153.979 8.40125 153.988 9.31185C153.996 10.1612 153.994 11.0111 153.991 11.8607ZM148.298 13.8758C148.774 14.2762 149.325 14.2726 149.89 14.1766C151.581 13.8888 152.224 12.008 152.045 10.7951C152.033 10.7938 152.021 10.7914 152.009 10.789C151.982 10.7838 151.953 10.7783 151.927 10.7828C151.692 10.8243 151.458 10.8637 151.223 10.9031C150.615 11.0052 150.007 11.1073 149.407 11.2457C149.038 11.3307 148.665 11.5073 148.352 11.7283C147.66 12.2152 147.649 13.33 148.298 13.8758Z" fill="#6219FF"/>
<path fill-rule="evenodd" clip-rule="evenodd" d="M125.034 12.6854C125.037 11.5524 125.038 10.4187 125.033 9.28571C125.029 8.34604 124.864 7.4616 124.159 6.78138C123.622 6.26321 122.967 6.01104 122.251 5.91293C120.869 5.72252 119.549 5.83444 118.409 6.78138C117.609 7.44634 117.31 8.52918 117.702 9.39836C117.82 9.35671 117.94 9.3156 118.059 9.27444C118.424 9.14823 118.791 9.02159 119.152 8.87801C119.231 8.84676 119.302 8.68543 119.307 8.5815C119.322 8.2036 119.473 7.92017 119.768 7.69779C120.369 7.24431 121.053 7.1978 121.738 7.32425C122.717 7.50521 123.11 8.02119 123.147 8.99356C123.156 9.26028 123.058 9.36347 122.817 9.39836C122.231 9.4812 121.647 9.57423 121.063 9.67161C121.025 9.67802 120.986 9.68439 120.948 9.69076L120.936 9.69273C120.054 9.83958 119.179 9.98517 118.374 10.463C116.544 11.5517 116.738 14.1439 117.993 15.1795C119.451 16.383 121.973 15.9368 122.994 14.2748C123.026 14.2221 123.064 14.1734 123.11 14.1146L123.111 14.1143C123.135 14.0831 123.162 14.0492 123.191 14.0102C123.463 15.4644 124.489 15.7362 125.591 15.5465C125.029 14.6954 125.031 13.7348 125.034 12.7735L125.034 12.6854ZM123.132 11.3504C123.027 12.4041 122.673 13.4746 121.492 13.9957C120.778 14.3111 120.032 14.4085 119.358 13.8772C118.687 13.3489 118.698 12.2246 119.398 11.7326C119.737 11.4943 120.146 11.3228 120.547 11.2254C121.072 11.0985 121.606 11.0127 122.14 10.927C122.337 10.8954 122.534 10.8637 122.73 10.83C123.152 10.7581 123.152 10.761 123.132 11.3504Z" fill="#6219FF"/>
<path fill-rule="evenodd" clip-rule="evenodd" d="M90.8636 10.848C90.8619 11.4594 90.8602 12.0708 90.8692 12.6818C90.8776 13.2886 90.9009 13.9005 90.9897 14.4993C91.0262 14.7505 91.1267 14.9919 91.227 15.2327C91.2718 15.3403 91.3165 15.4478 91.3555 15.556C90.201 15.8474 89.4926 15.399 88.971 13.9964C88.6778 14.5473 88.2915 14.9754 87.7925 15.2973C86.5294 16.112 84.797 16.0306 83.7594 15.1294C82.5619 14.0895 82.3716 11.5393 84.1992 10.4609C85.0063 9.98436 85.8814 9.83934 86.7644 9.69301C86.816 9.68445 86.8676 9.6759 86.9192 9.66727C87.5028 9.56916 88.0871 9.47687 88.6722 9.39039C88.878 9.35986 88.952 9.2603 88.9506 9.04228C88.9456 8.09025 88.5495 7.51032 87.6642 7.34753C86.9249 7.21163 86.2144 7.23343 85.5737 7.70654C85.2776 7.92456 85.112 8.22034 85.1254 8.59316C85.1325 8.78865 85.0535 8.86786 84.8956 8.92164C84.5842 9.02734 84.2737 9.13549 83.9521 9.24752C83.8094 9.29724 83.6645 9.34773 83.5163 9.39911C83.2886 8.93109 83.2928 8.44708 83.4408 7.97979C83.6939 7.18111 84.2387 6.6346 84.9753 6.29449C86.3723 5.64915 87.7968 5.65496 89.1895 6.24943C90.4427 6.78504 90.8466 7.90857 90.8607 9.21815C90.8667 9.76122 90.8651 10.3046 90.8636 10.848ZM87.309 13.9964C88.453 13.4885 88.842 12.4616 88.9449 11.333C88.9449 11.281 88.9446 11.2366 88.9443 11.1971V11.1964C88.9438 11.121 88.9433 11.0638 88.9456 11.0066C88.952 10.8206 88.8822 10.761 88.6947 10.7966C88.3015 10.8709 87.9075 10.9399 87.5137 11.009L87.5135 11.009C87.1174 11.0784 86.7215 11.1478 86.3265 11.2225C85.8408 11.3141 85.3968 11.5096 85.0443 11.8816C84.5418 12.4114 84.5869 13.4027 85.1522 13.8598C85.8338 14.4107 86.588 14.3169 87.309 13.9964Z" fill="#6219FF"/>
<path d="M100.782 8.47396C100.658 7.52775 100.227 6.7734 99.4025 6.28794C97.885 5.3955 95.8325 5.84681 94.7696 7.30973C94.7301 7.36424 94.6896 7.41775 94.649 7.47138L94.6489 7.47152L94.6484 7.47217L94.6269 7.5006C94.6148 7.51664 94.6027 7.5327 94.5906 7.54883C94.5145 7.4231 94.5039 7.32063 94.5032 7.21816C94.5025 7.12397 94.5036 7.02969 94.5046 6.93545C94.5069 6.7352 94.5091 6.53505 94.4947 6.3359C94.4884 6.25233 94.3841 6.10989 94.3214 6.10771C93.8956 6.09383 93.4694 6.09522 93.0293 6.09664L93.029 6.09665C92.8929 6.09709 92.7555 6.09753 92.6163 6.09753V15.5996C92.7725 15.5996 92.9275 15.5983 93.0818 15.5971L93.082 15.5971H93.0822C93.4499 15.5941 93.813 15.5911 94.1755 15.6054C94.4468 15.6163 94.5102 15.516 94.5088 15.2501C94.4989 13.8401 94.501 12.4302 94.5031 11.0202C94.5034 10.8284 94.5036 10.6366 94.5039 10.4449C94.506 9.21305 95.2891 7.91074 96.4577 7.68037C97.3071 7.51322 98.4433 7.76249 98.7767 8.87221C98.8838 9.22977 98.9352 9.61857 98.9395 9.9943C98.9516 11.2444 98.95 12.4945 98.9483 13.7446C98.9477 14.2379 98.947 14.7313 98.9472 15.2246V15.6011C99.1121 15.6011 99.273 15.6001 99.4311 15.5992C99.8118 15.597 100.176 15.5949 100.541 15.6062C100.79 15.6134 100.863 15.5313 100.862 15.2711C100.856 14.2662 100.856 13.2612 100.856 12.2562C100.856 11.4305 100.856 10.6049 100.853 9.77918C100.85 9.34241 100.838 8.90346 100.782 8.47396Z" fill="#6219FF"/>
<path d="M66.4101 6.0973C66.6936 6.09881 66.9775 6.10032 67.2606 6.09314C67.4566 6.08805 67.5433 6.14038 67.5433 6.36639C67.5376 9.35255 67.5383 12.3387 67.5425 15.3249C67.5425 15.5131 67.4996 15.6061 67.298 15.6025C66.8229 15.5938 66.3471 15.5945 65.8714 15.6018C65.693 15.6047 65.631 15.5364 65.636 15.3518C65.644 15.0766 65.6424 14.8014 65.6408 14.5262C65.6401 14.414 65.6395 14.3019 65.6395 14.1897C65.6113 14.1839 65.5831 14.1774 65.5549 14.1708C65.1278 14.8619 64.573 15.3939 63.8125 15.6606C62.6037 16.0843 60.9452 15.8903 60.0487 14.7137C59.5518 14.0604 59.3206 13.3031 59.3093 12.4979C59.2877 10.9802 59.2894 9.46184 59.291 7.94352C59.2916 7.38023 59.2922 6.81696 59.2917 6.25375C59.2917 6.22781 59.298 6.20187 59.3064 6.16728L59.3066 6.16637C59.3088 6.15734 59.3111 6.14771 59.3135 6.13734C59.3163 6.12537 59.3191 6.11241 59.322 6.09822C59.4542 6.09822 59.5863 6.09776 59.7181 6.09729C60.1568 6.09575 60.5935 6.09421 61.0298 6.10985C61.0925 6.11276 61.2011 6.27628 61.2025 6.36712C61.2122 6.92984 61.2115 7.49291 61.2109 8.05608C61.2106 8.31042 61.2103 8.56477 61.211 8.81913C61.2117 9.10371 61.2115 9.38835 61.2113 9.67301C61.2108 10.4671 61.2103 11.2614 61.23 12.0553C61.2504 12.8707 61.5465 13.5676 62.3253 13.8859C63.169 14.2311 63.9873 14.1323 64.6936 13.4957C65.3004 12.9484 65.6007 12.2268 65.6176 11.4165C65.641 10.2609 65.6398 9.10487 65.6386 7.94903C65.638 7.47014 65.6375 6.99127 65.6388 6.51247V6.51037C65.6395 6.09604 65.6395 6.09604 66.056 6.09604C66.1739 6.09604 66.2919 6.09667 66.4099 6.0973L66.4101 6.0973Z" fill="#6219FF"/>
<path d="M144.736 14.1047C143.992 14.2471 143.491 14.0291 143.283 13.4971C143.19 13.2617 143.146 12.9899 143.144 12.7341C143.137 11.8502 143.136 10.9664 143.136 10.0827V10.0728C143.135 9.36994 143.135 8.66715 143.131 7.96449C143.13 7.7174 143.222 7.64255 143.45 7.64836C143.675 7.6541 143.901 7.65262 144.127 7.65115C144.387 7.64945 144.647 7.64774 144.907 7.65708C145.162 7.6658 145.243 7.57351 145.227 7.3177C145.208 7.00302 145.212 6.68616 145.227 6.37076C145.238 6.15128 145.155 6.08806 144.952 6.09242C144.693 6.09787 144.434 6.09696 144.175 6.09605C143.916 6.09514 143.658 6.09424 143.399 6.09969C143.19 6.10405 143.127 6.02774 143.13 5.8148C143.137 5.43584 143.136 5.05687 143.135 4.6779C143.135 4.38173 143.134 4.08556 143.137 3.78939C143.139 3.58372 143.073 3.49579 142.862 3.50233C142.429 3.51541 141.996 3.51832 141.563 3.50087C141.33 3.49143 141.247 3.55756 141.253 3.80828C141.261 4.15089 141.26 4.49349 141.259 4.8361C141.258 5.15773 141.257 5.47936 141.263 5.801C141.267 6.02992 141.199 6.10913 140.976 6.10041C140.704 6.08969 140.431 6.09188 140.151 6.09414C140.033 6.09509 139.913 6.09605 139.792 6.09605V7.652C139.915 7.652 140.035 7.65326 140.152 7.6545C140.423 7.65736 140.68 7.66008 140.937 7.64691C141.187 7.63383 141.292 7.72031 141.26 7.98048C141.253 8.04721 141.255 8.11497 141.257 8.18281C141.257 8.21325 141.258 8.2437 141.258 8.27408C141.259 8.75715 141.258 9.24023 141.257 9.72328C141.254 10.9393 141.251 12.1552 141.275 13.3707C141.29 14.141 141.528 14.8576 142.175 15.3358C143.087 16.0087 144.097 15.9491 145.117 15.6948C145.181 15.6788 145.255 15.5153 145.25 15.4244C145.24 15.252 145.219 15.0802 145.198 14.9086C145.178 14.7454 145.158 14.5823 145.148 14.4186C145.131 14.1221 145.044 14.0458 144.736 14.1047Z" fill="#6219FF"/>
<path d="M155.593 2.57142C155.593 2.2662 155.659 2.14846 155.974 2.16518C156.327 2.18404 156.681 2.18001 157.039 2.17593C157.192 2.17419 157.345 2.17245 157.5 2.17245V15.5691H155.6V15.2188C155.6 14.418 155.6 13.6171 155.6 12.8162C155.6 9.40129 155.601 5.98636 155.593 2.57142Z" fill="#6219FF"/>
<path d="M138.656 6.30175C138.614 6.22399 138.54 6.10771 138.476 6.10626C138.049 6.09455 137.621 6.09567 137.181 6.09683C137.048 6.09718 136.913 6.09753 136.777 6.09753V15.5996C136.931 15.5996 137.084 15.5981 137.236 15.5965C137.595 15.5929 137.949 15.5893 138.302 15.6062C138.601 15.6207 138.669 15.5146 138.669 15.2181C138.66 12.9566 138.661 10.695 138.662 8.43351C138.662 7.78736 138.662 7.14121 138.662 6.49506C138.662 6.47434 138.664 6.45249 138.666 6.43072V6.43048C138.67 6.38283 138.674 6.33563 138.656 6.30175Z" fill="#6219FF"/>
<path d="M136.651 3.4842C136.661 2.86938 137.109 2.38101 137.702 2.36647C138.301 2.35194 138.781 2.85121 138.778 3.48565C138.774 4.08521 138.316 4.5554 137.734 4.55904C137.22 4.6259 136.642 4.07503 136.651 3.4842Z" fill="#6219FF"/>
</svg>
