<svg width="134" height="162" viewBox="0 0 134 162" fill="none" xmlns="http://www.w3.org/2000/svg">
<g clip-path="url(#clip0_434_6257)">
<path d="M38.775 163.05C48.5919 163.05 56.55 155.092 56.55 145.275C56.55 135.458 48.5919 127.5 38.775 127.5C28.9581 127.5 21 135.458 21 145.275C21 155.092 28.9581 163.05 38.775 163.05Z" fill="#E7CE95"/>
<path d="M88.5 132C110.868 132 129 113.868 129 91.5C129 69.1325 110.868 51 88.5 51C66.1325 51 48 69.1325 48 91.5C48 113.868 66.1325 132 88.5 132Z" fill="#D3D0F8"/>
<path d="M88.5151 44.655C79.4101 36.525 67.1701 32.655 54.9301 34.035C35.1001 36.285 19.2451 52.335 17.2201 72.195C15.5701 88.41 23.0251 103.965 36.6751 112.785C37.6051 113.385 38.1601 114.405 38.1601 115.5V142.29H38.2801C39.4051 153.225 48.6751 161.79 59.9101 161.79C71.1451 161.79 80.4151 153.225 81.5401 142.29H81.6601V115.485C81.6601 114.39 82.2301 113.37 83.1751 112.755C95.4901 104.805 102.84 91.32 102.84 76.68C102.84 64.47 97.6051 52.8 88.5001 44.655H88.5151ZM77.1751 137.79H42.6751V128.355H77.1751V137.79ZM59.9251 157.29C51.1801 157.29 43.9501 150.735 42.8401 142.29H77.0101C75.9001 150.735 68.6701 157.29 59.9251 157.29ZM80.7451 108.975C78.5101 110.415 77.1751 112.86 77.1751 115.485V123.855H42.6751V115.485C42.6751 112.86 41.3551 110.43 39.1201 108.99C26.8951 101.1 20.2201 87.165 21.6901 72.63C23.4901 54.855 37.6801 40.485 55.4251 38.49C66.5551 37.23 77.2351 40.605 85.5001 48C93.6601 55.29 98.3401 65.745 98.3401 76.665C98.3401 89.775 91.7551 101.835 80.7301 108.96L80.7451 108.975Z" fill="black"/>
<path d="M75.375 67.725L55.845 87.255L45.345 76.755C44.46 75.87 43.035 75.87 42.165 76.755C41.295 77.64 41.28 79.065 42.165 79.935L53.28 91.05C53.97 91.74 54.885 92.115 55.86 92.115C56.835 92.115 57.75 91.74 58.425 91.05L78.555 70.92C79.44 70.035 79.44 68.61 78.555 67.74C77.67 66.87 76.245 66.855 75.375 67.74V67.725Z" fill="black"/>
<path d="M59.9248 25.455C61.1698 25.455 62.1748 24.45 62.1748 23.205V2.25C62.1748 1.005 61.1698 0 59.9248 0C58.6798 0 57.6748 1.005 57.6748 2.25V23.205C57.6748 24.45 58.6798 25.455 59.9248 25.455Z" fill="black"/>
<path d="M82.5002 30.495C82.8002 30.63 83.1302 30.705 83.4452 30.705C84.3002 30.705 85.1102 30.225 85.4852 29.4L94.2752 10.365C94.8002 9.24 94.3052 7.905 93.1802 7.38C92.0552 6.855 90.7202 7.35 90.1952 8.475L81.4052 27.51C80.8802 28.635 81.3752 29.97 82.5002 30.495Z" fill="black"/>
<path d="M119.205 27.495C118.44 26.52 117.015 26.355 116.04 27.135L99.615 40.155C98.64 40.92 98.475 42.345 99.255 43.32C99.705 43.875 100.35 44.175 101.025 44.175C101.52 44.175 102.015 44.01 102.42 43.695L118.845 30.675C119.82 29.91 119.985 28.485 119.205 27.51V27.495Z" fill="black"/>
<path d="M34.2001 29.94C34.5751 30.765 35.4001 31.245 36.2401 31.245C36.5551 31.245 36.8701 31.185 37.1851 31.035C38.3101 30.51 38.8051 29.175 38.2801 28.05L29.4901 9.015C28.9651 7.89 27.6301 7.395 26.5051 7.92C25.3801 8.445 24.8851 9.78 25.4101 10.905L34.2001 29.94Z" fill="black"/>
<path d="M18.6751 44.7C19.3351 44.7 19.9951 44.415 20.4451 43.845C21.2101 42.87 21.0601 41.46 20.0851 40.68L3.64513 27.675C2.67013 26.91 1.26013 27.075 0.480131 28.035C-0.284869 29.01 -0.134869 30.42 0.840131 31.2L17.2651 44.22C17.6851 44.55 18.1651 44.7 18.6601 44.7H18.6751Z" fill="black"/>
</g>
<defs>
<clipPath id="clip0_434_6257">
<rect width="133.5" height="162" fill="white"/>
</clipPath>
</defs>
</svg>
