<svg width="162" height="163" viewBox="0 0 162 163" fill="none" xmlns="http://www.w3.org/2000/svg">
<g clip-path="url(#clip0_430_20061)">
<path d="M40.5 133.5C62.8675 133.5 81 115.368 81 93C81 70.6325 62.8675 52.5 40.5 52.5C18.1325 52.5 0 70.6325 0 93C0 115.368 18.1325 133.5 40.5 133.5Z" fill="#E6ECC7"/>
<path d="M159.27 43.815H132.915C131.49 43.815 130.335 44.97 130.335 46.395V159.54C130.335 160.965 131.49 162.12 132.915 162.12H159.27C160.695 162.12 161.85 160.965 161.85 159.54V46.38C161.85 44.955 160.695 43.8 159.27 43.8V43.815ZM157.35 157.62H134.85V48.315H157.35V157.605V157.62Z" fill="black"/>
<path d="M115.83 94.155H89.475C88.05 94.155 86.895 95.31 86.895 96.735V159.54C86.895 160.965 88.05 162.12 89.475 162.12H115.83C117.255 162.12 118.41 160.965 118.41 159.54V96.735C118.41 95.31 117.255 94.155 115.83 94.155ZM113.91 157.605H91.41V98.655H113.91V157.605Z" fill="black"/>
<path d="M72.3749 81.09H46.0199C44.5949 81.09 43.4399 82.245 43.4399 83.67V159.54C43.4399 160.965 44.5949 162.12 46.0199 162.12H72.3749C73.7999 162.12 74.9549 160.965 74.9549 159.54V83.67C74.9549 82.245 73.7999 81.09 72.3749 81.09ZM70.4549 157.62H47.9549V85.59H70.4549V157.62Z" fill="black"/>
<path d="M28.92 122.73H2.58C1.155 122.73 0 123.885 0 125.31V159.54C0 160.965 1.155 162.12 2.58 162.12H28.92C30.345 162.12 31.5 160.965 31.5 159.54V125.31C31.5 123.885 30.345 122.73 28.92 122.73ZM27 157.605H4.5V127.23H27V157.605Z" fill="black"/>
<path d="M15.75 105.675C23.16 105.675 29.175 99.66 29.175 92.25C29.175 89.46 28.32 86.865 26.865 84.72L51.225 61.35C53.46 63 56.22 64.005 59.205 64.005C64.44 64.005 68.955 61.005 71.175 56.64L89.325 62.25C89.25 62.82 89.1899 63.405 89.1899 64.005C89.1899 71.415 95.2049 77.43 102.615 77.43C110.025 77.43 116.04 71.415 116.04 64.005C116.04 60.75 114.885 57.765 112.95 55.44L139.185 24.93C141.21 26.145 143.565 26.865 146.1 26.865C153.51 26.865 159.525 20.85 159.525 13.44C159.525 6.03 153.51 0 146.1 0C138.69 0 132.675 6.015 132.675 13.425C132.675 16.68 133.83 19.665 135.765 21.99L109.53 52.5C107.505 51.285 105.15 50.565 102.615 50.565C97.38 50.565 92.865 53.565 90.645 57.93L72.495 52.32C72.57 51.75 72.63 51.165 72.63 50.565C72.63 43.155 66.615 37.14 59.205 37.14C51.795 37.14 45.78 43.155 45.78 50.565C45.78 53.355 46.635 55.95 48.09 58.095L23.7299 81.465C21.495 79.815 18.735 78.81 15.75 78.81C8.33995 78.81 2.32495 84.825 2.32495 92.235C2.32495 99.645 8.33995 105.66 15.75 105.66V105.675ZM146.1 4.5C151.02 4.5 155.025 8.505 155.025 13.425C155.025 18.345 151.02 22.35 146.1 22.35C141.18 22.35 137.175 18.345 137.175 13.425C137.175 8.505 141.18 4.5 146.1 4.5ZM102.615 55.065C107.535 55.065 111.54 59.07 111.54 63.99C111.54 68.91 107.535 72.915 102.615 72.915C97.695 72.915 93.6899 68.91 93.6899 63.99C93.6899 59.07 97.695 55.065 102.615 55.065ZM59.205 41.64C64.125 41.64 68.13 45.645 68.13 50.565C68.13 55.485 64.125 59.49 59.205 59.49C54.285 59.49 50.28 55.485 50.28 50.565C50.28 45.645 54.285 41.64 59.205 41.64ZM15.75 83.325C20.67 83.325 24.675 87.33 24.675 92.25C24.675 97.17 20.67 101.175 15.75 101.175C10.83 101.175 6.82495 97.17 6.82495 92.25C6.82495 87.33 10.83 83.325 15.75 83.325Z" fill="black"/>
<path d="M136.275 43.05C146.092 43.05 154.05 35.0919 154.05 25.275C154.05 15.4581 146.092 7.5 136.275 7.5C126.458 7.5 118.5 15.4581 118.5 25.275C118.5 35.0919 126.458 43.05 136.275 43.05Z" fill="#502374" fill-opacity="0.3"/>
</g>
<defs>
<clipPath id="clip0_430_20061">
<rect width="161.85" height="162.105" fill="white"/>
</clipPath>
</defs>
</svg>
