<svg width="162" height="163" viewBox="0 0 162 163" fill="none" xmlns="http://www.w3.org/2000/svg">
<g clip-path="url(#clip0_434_6270)">
<path d="M136.275 43.05C146.092 43.05 154.05 35.0919 154.05 25.275C154.05 15.4581 146.092 7.5 136.275 7.5C126.458 7.5 118.5 15.4581 118.5 25.275C118.5 35.0919 126.458 43.05 136.275 43.05Z" fill="#E7CE95"/>
<path d="M40.5 133.5C62.8675 133.5 81 115.368 81 93C81 70.6325 62.8675 52.5 40.5 52.5C18.1325 52.5 0 70.6325 0 93C0 115.368 18.1325 133.5 40.5 133.5Z" fill="#D3D0F8"/>
<path d="M159.27 43.815H132.915C131.49 43.815 130.335 44.97 130.335 46.395V159.54C130.335 160.965 131.49 162.12 132.915 162.12H159.27C160.695 162.12 161.85 160.965 161.85 159.54V46.38C161.85 44.955 160.695 43.8 159.27 43.8V43.815ZM157.35 157.62H134.85V48.315H157.35V157.605V157.62Z" fill="black"/>
<path d="M115.83 94.155H89.475C88.05 94.155 86.895 95.31 86.895 96.735V159.54C86.895 160.965 88.05 162.12 89.475 162.12H115.83C117.255 162.12 118.41 160.965 118.41 159.54V96.735C118.41 95.31 117.255 94.155 115.83 94.155ZM113.91 157.605H91.41V98.655H113.91V157.605Z" fill="black"/>
<path d="M72.3749 81.09H46.0199C44.5949 81.09 43.4399 82.245 43.4399 83.67V159.54C43.4399 160.965 44.5949 162.12 46.0199 162.12H72.3749C73.7999 162.12 74.9549 160.965 74.9549 159.54V83.67C74.9549 82.245 73.7999 81.09 72.3749 81.09ZM70.4549 157.62H47.9549V85.59H70.4549V157.62Z" fill="black"/>
<path d="M28.92 122.73H2.58C1.155 122.73 0 123.885 0 125.31V159.54C0 160.965 1.155 162.12 2.58 162.12H28.92C30.345 162.12 31.5 160.965 31.5 159.54V125.31C31.5 123.885 30.345 122.73 28.92 122.73ZM27 157.605H4.5V127.23H27V157.605Z" fill="black"/>
<path d="M15.7502 105.675C23.1602 105.675 29.1752 99.66 29.1752 92.25C29.1752 89.46 28.3202 86.865 26.8652 84.72L51.2252 61.35C53.4602 63 56.2202 64.005 59.2052 64.005C64.4402 64.005 68.9552 61.005 71.1752 56.64L89.3252 62.25C89.2502 62.82 89.1902 63.405 89.1902 64.005C89.1902 71.415 95.2052 77.43 102.615 77.43C110.025 77.43 116.04 71.415 116.04 64.005C116.04 60.75 114.885 57.765 112.95 55.44L139.185 24.93C141.21 26.145 143.565 26.865 146.1 26.865C153.51 26.865 159.525 20.85 159.525 13.44C159.525 6.03 153.51 0 146.1 0C138.69 0 132.675 6.015 132.675 13.425C132.675 16.68 133.83 19.665 135.765 21.99L109.53 52.5C107.505 51.285 105.15 50.565 102.615 50.565C97.3802 50.565 92.8652 53.565 90.6452 57.93L72.4952 52.32C72.5702 51.75 72.6302 51.165 72.6302 50.565C72.6302 43.155 66.6152 37.14 59.2052 37.14C51.7952 37.14 45.7802 43.155 45.7802 50.565C45.7802 53.355 46.6352 55.95 48.0902 58.095L23.7302 81.465C21.4952 79.815 18.7352 78.81 15.7502 78.81C8.34019 78.81 2.3252 84.825 2.3252 92.235C2.3252 99.645 8.34019 105.66 15.7502 105.66V105.675ZM146.1 4.5C151.02 4.5 155.025 8.505 155.025 13.425C155.025 18.345 151.02 22.35 146.1 22.35C141.18 22.35 137.175 18.345 137.175 13.425C137.175 8.505 141.18 4.5 146.1 4.5ZM102.615 55.065C107.535 55.065 111.54 59.07 111.54 63.99C111.54 68.91 107.535 72.915 102.615 72.915C97.6952 72.915 93.6902 68.91 93.6902 63.99C93.6902 59.07 97.6952 55.065 102.615 55.065ZM59.2052 41.64C64.1252 41.64 68.1302 45.645 68.1302 50.565C68.1302 55.485 64.1252 59.49 59.2052 59.49C54.2852 59.49 50.2802 55.485 50.2802 50.565C50.2802 45.645 54.2852 41.64 59.2052 41.64ZM15.7502 83.325C20.6702 83.325 24.6752 87.33 24.6752 92.25C24.6752 97.17 20.6702 101.175 15.7502 101.175C10.8302 101.175 6.8252 97.17 6.8252 92.25C6.8252 87.33 10.8302 83.325 15.7502 83.325Z" fill="black"/>
</g>
<defs>
<clipPath id="clip0_434_6270">
<rect width="161.85" height="162.105" fill="white"/>
</clipPath>
</defs>
</svg>
