<svg width="140" height="163" viewBox="0 0 140 163" fill="none" xmlns="http://www.w3.org/2000/svg">
<g clip-path="url(#clip0_434_7499)">
<path d="M32.775 157.05C42.5919 157.05 50.55 149.092 50.55 139.275C50.55 129.458 42.5919 121.5 32.775 121.5C22.9581 121.5 15 129.458 15 139.275C15 149.092 22.9581 157.05 32.775 157.05Z" fill="#C6CBBD"/>
<path d="M91.5 87C113.868 87 132 68.8675 132 46.5C132 24.1325 113.868 6 91.5 6C69.1325 6 51 24.1325 51 46.5C51 68.8675 69.1325 87 91.5 87Z" fill="#FADACA"/>
<path d="M139.56 81.12V37.89C139.56 36.48 138.405 35.325 137.01 35.325C115.635 35.175 102.255 22.62 102.105 2.55C102.105 1.14 100.935 0 99.54 0H40.155C38.745 0 37.605 1.14 37.59 2.55C37.44 22.62 24.015 35.175 2.565 35.325C1.155 35.325 0 36.48 0 37.89V81.12H0.03C-0.015 121.65 22.605 148.23 69.195 162.36C69.405 162.42 69.615 162.45 69.84 162.45C70.2 162.45 70.53 162.36 70.83 162.21C117.09 148.035 139.575 121.515 139.53 81.12H139.545H139.56ZM135.06 39.78V78.885H102.09C100.98 62.835 88.14 49.995 72.09 48.885L72 4.5H97.65C98.61 25.575 112.74 38.91 135.06 39.78V39.78ZM42.03 4.5H67.485L67.575 48.885C51.54 49.995 38.7 62.835 37.59 78.87H4.5V39.78C26.895 38.91 41.07 25.59 42.03 4.5ZM67.59 157.125C25.995 143.715 5.355 119.55 4.575 83.37H37.605C38.715 99.42 51.555 112.245 67.605 113.355V157.125H67.59ZM69.84 108.975C54.48 108.975 41.985 96.48 41.985 81.12C41.985 65.76 54.48 53.265 69.84 53.265C85.2 53.265 97.695 65.76 97.695 81.12C97.695 96.48 85.2 108.975 69.84 108.975V108.975ZM72.09 157.095V113.37C88.125 112.26 100.965 99.42 102.075 83.385H135C134.22 119.535 113.61 143.685 72.09 157.11V157.095Z" fill="black"/>
<path d="M84.855 69.255L65.325 88.785L54.825 78.285C53.94 77.4 52.515 77.4 51.645 78.285C50.76 79.17 50.76 80.595 51.645 81.465L62.76 92.58C63.465 93.285 64.395 93.645 65.325 93.645C66.255 93.645 67.185 93.285 67.905 92.58L88.035 72.45C88.92 71.565 88.92 70.14 88.035 69.27C87.15 68.385 85.725 68.385 84.855 69.27V69.255Z" fill="black"/>
</g>
<defs>
<clipPath id="clip0_434_7499">
<rect width="139.56" height="162.45" fill="white"/>
</clipPath>
</defs>
</svg>
