<svg width="112" height="50" viewBox="0 0 112 50" fill="none" xmlns="http://www.w3.org/2000/svg">
<path d="M39.7711 9.18452C39.7461 9.1868 39.7212 9.18908 39.6972 9.18908L39.6967 9.19048C39.6862 9.21903 39.6757 9.24769 39.6651 9.27555C39.7029 9.30971 39.74 9.34471 39.7771 9.37971C39.8584 9.45647 39.9401 9.53347 40.0282 9.60157C40.4471 9.92361 40.8673 10.244 41.2875 10.5643C41.8086 10.9616 42.3302 11.3592 42.8489 11.7597C43.5598 12.3091 44.2684 12.8618 44.9769 13.4144L44.9787 13.4158L44.9798 13.4167C45.316 13.6789 45.6521 13.941 45.9885 14.2028C46.0571 14.2563 46.1258 14.3097 46.1944 14.3631L46.4028 14.5254C46.9555 14.9558 47.5087 15.3867 48.0632 15.8153C48.1704 15.8979 48.2812 15.976 48.392 16.0542C48.4456 16.092 48.4993 16.1299 48.5525 16.1682C48.7158 16.2859 48.8606 16.2873 49.0375 16.1626C49.3463 15.945 49.6694 15.7437 50.0003 15.5608C50.6429 15.2057 51.3048 14.8875 52.0102 14.6749C52.4174 14.5523 52.8318 14.4488 53.2483 14.3574C53.5264 14.2963 53.8112 14.2602 54.0948 14.2242L54.1627 14.2156C54.4216 14.183 54.6812 14.1518 54.9415 14.1426C55.6676 14.1164 56.3815 14.1993 57.1025 14.3056C57.8856 14.4219 58.6338 14.6437 59.3584 14.9187C60.1308 15.2121 60.869 15.6019 61.5501 16.0825C61.8911 16.3227 61.9025 16.3291 62.2306 16.0825C62.6217 15.7882 63.0084 15.4884 63.3952 15.1885C63.6355 15.0022 63.8757 14.8159 64.117 14.6309C64.5875 14.2699 65.0588 13.9096 65.5301 13.5493L65.5326 13.5474L65.5344 13.5461L65.5352 13.5455C66.0596 13.1446 66.5841 12.7437 67.1075 12.3416C68.2907 11.433 69.4725 10.5223 70.6522 9.60937C70.7436 9.53875 70.8261 9.45707 70.9086 9.37535C70.9479 9.33649 70.9871 9.29763 71.0274 9.25995C71.0217 9.24684 71.0159 9.2339 71.0102 9.22097C71.0045 9.20804 70.9988 9.1951 70.9931 9.18199C70.9672 9.18375 70.9404 9.1836 70.9136 9.18344C70.8542 9.18309 70.7948 9.18274 70.7442 9.20325C70.2261 9.41332 69.7094 9.62678 69.1926 9.84024C68.89 9.96527 68.5873 10.0903 68.2843 10.2147C68.1657 10.2634 68.0459 10.3096 67.9261 10.3558C67.8141 10.3991 67.702 10.4423 67.5911 10.4875C67.3866 10.5708 67.1825 10.6553 66.9783 10.7397L66.9767 10.7404C66.6672 10.8683 66.3578 10.9963 66.047 11.1204C65.8097 11.2154 65.5711 11.3067 65.3324 11.398C65.0631 11.501 64.7937 11.6041 64.5264 11.7123C64.124 11.8752 63.723 12.0416 63.322 12.208C62.9697 12.3542 62.6173 12.5004 62.2641 12.6443C61.9782 12.7605 61.6907 12.8727 61.4033 12.9848C61.2282 13.0532 61.053 13.1215 60.8783 13.1907C60.8288 13.2103 60.7805 13.2334 60.7323 13.2565C60.6514 13.2952 60.5707 13.3338 60.4853 13.3552C60.2628 13.4112 60.1622 13.3148 60.2 13.0951C60.2179 12.9916 60.2557 12.8895 60.2963 12.7917C60.4262 12.4782 60.557 12.1652 60.6877 11.8522L60.6881 11.8512L60.6888 11.8496C60.8707 11.4141 61.0526 10.9787 61.2321 10.5421C61.3172 10.3354 61.3985 10.1271 61.4797 9.91892C61.5738 9.67749 61.6681 9.43582 61.7684 9.19687C61.9054 8.87023 62.0463 8.54507 62.1873 8.21991C62.3547 7.83386 62.5221 7.44781 62.6827 7.05925C62.7904 6.79841 62.8896 6.53385 62.9887 6.26929C63.0879 6.00476 63.187 5.74023 63.2947 5.47942C63.4905 5.00493 63.6916 4.53233 63.8929 4.05922C64.0612 3.6638 64.2296 3.26802 64.3952 2.87048C64.4156 2.82159 64.4175 2.76509 64.4193 2.70844C64.4201 2.68223 64.421 2.65574 64.4237 2.63021C64.3973 2.62029 64.3702 2.60966 64.3431 2.59902C64.3093 2.63526 64.2746 2.67089 64.24 2.70652C64.1622 2.78648 64.0843 2.86669 64.0157 2.9534C63.341 3.80604 62.6685 4.66081 61.9995 5.5177C61.7832 5.79482 61.5694 6.07373 61.3555 6.35265L61.3543 6.35426L61.3535 6.35522C61.1004 6.68536 60.8473 7.01551 60.5902 7.34276C60.1931 7.84823 59.7935 8.35175 59.3937 8.85536C59.0732 9.25914 58.7527 9.66298 58.4334 10.0679C58.2894 10.2503 58.148 10.4346 58.0067 10.619L58.0059 10.6201C57.8382 10.8389 57.6705 11.0576 57.4984 11.2728C57.4826 11.2926 57.4672 11.313 57.4516 11.3336C57.3563 11.4598 57.2562 11.5924 57.0576 11.6003C57.0492 11.585 57.0399 11.5706 57.0308 11.5567C57.0121 11.5281 56.9947 11.5013 56.9898 11.4727C56.9827 11.4303 56.9755 11.3879 56.9684 11.3455L56.955 11.2664C56.8899 10.8824 56.8247 10.4978 56.7709 10.1126C56.7389 9.88386 56.7143 9.65402 56.6898 9.42406C56.6705 9.24358 56.6511 9.06303 56.6283 8.88289C56.6057 8.70655 56.5795 8.53071 56.5534 8.35488L56.5532 8.35305C56.5257 8.16845 56.4982 7.98363 56.4749 7.79849C56.4658 7.72633 56.4652 7.65194 56.4647 7.57774C56.4639 7.46052 56.463 7.34308 56.4286 7.23644C56.2772 6.77 56.2441 6.2908 56.2109 5.80929L56.2082 5.77002C56.2003 5.65307 56.1896 5.534 56.1597 5.4206C56.0391 4.96203 55.9607 4.4985 55.9564 4.02292C55.9557 3.90134 55.9373 3.77912 55.9191 3.65805L55.9157 3.63594C55.8701 3.33557 55.8235 3.03529 55.7768 2.73496L55.7765 2.73295C55.6948 2.20767 55.6132 1.68226 55.537 1.15599C55.5107 0.975566 55.4963 0.79339 55.4819 0.611248C55.472 0.487147 55.4622 0.363063 55.4486 0.239561C55.4471 0.22622 55.4463 0.212193 55.4454 0.197896C55.4403 0.110435 55.4345 0.012789 55.2703 0C55.2673 0.0267995 55.2644 0.0534873 55.2615 0.0800806L55.2598 0.0949245C55.2505 0.179315 55.2413 0.262783 55.2325 0.345875C55.2215 0.451181 55.2111 0.556607 55.2007 0.662048L55.2006 0.663656C55.1751 0.921695 55.1496 1.17995 55.1162 1.43666C55.1046 1.52862 55.0814 1.61901 55.0582 1.70939C55.0375 1.79035 55.0167 1.87129 55.0043 1.95334C54.923 2.48917 54.8474 3.0257 54.7753 3.56223C54.7295 3.90409 54.6852 4.24611 54.6408 4.58814L54.6406 4.5903L54.6403 4.59259L54.6394 4.59866L54.6392 4.60073C54.5901 4.979 54.541 5.35791 54.49 5.736C54.4463 6.05904 54.399 6.38129 54.3518 6.70364C54.3358 6.81271 54.3197 6.92178 54.3039 7.0309C54.2707 7.25717 54.237 7.48331 54.2033 7.70941L54.2028 7.71273L54.202 7.71774L54.2018 7.71959L54.2013 7.72309C54.1297 8.20277 54.0582 8.68232 53.9922 9.16285C53.9617 9.38651 53.9381 9.61107 53.9146 9.83564C53.8964 10.0095 53.8782 10.1837 53.8567 10.3571C53.8146 10.6959 53.7711 11.034 53.7141 11.3706C53.6734 11.6102 53.555 11.6499 53.3767 11.494C53.3198 11.444 53.2721 11.3824 53.2251 11.3217L53.2141 11.3076C53.0795 11.1343 52.9455 10.9603 52.8115 10.7864L52.8099 10.7842C52.5767 10.4814 52.3435 10.1785 52.1065 9.8787C51.8026 9.49349 51.4965 9.11006 51.1904 8.72663L51.1893 8.72529C50.8835 8.34229 50.5777 7.95929 50.2742 7.57452C49.9007 7.10074 49.5309 6.62457 49.161 6.1484C49.0378 5.98988 48.9147 5.83135 48.7914 5.67292C48.6305 5.46604 48.4697 5.25903 48.3089 5.05201L48.3002 5.04093L48.2994 5.03979L48.2984 5.0386L48.2967 5.03635C47.9249 4.55779 47.5531 4.07917 47.1796 3.60192C47.004 3.37789 46.8251 3.15615 46.6463 2.93448C46.5614 2.82934 46.4766 2.72421 46.3922 2.61887L46.3216 2.64013C46.3216 2.66656 46.3191 2.69384 46.3167 2.72109C46.3114 2.77991 46.3062 2.83912 46.3251 2.88891C46.4792 3.29644 46.6425 3.70115 46.8087 4.10443C46.9081 4.34622 47.0094 4.58725 47.1108 4.8283C47.2284 5.10787 47.3461 5.38785 47.4606 5.66866C47.6965 6.24663 47.9286 6.82553 48.1607 7.40461L48.1712 7.43066C48.2205 7.55374 48.2699 7.67682 48.3193 7.79991C48.3554 7.88943 48.3897 7.97974 48.4241 8.07005C48.4692 8.18852 48.5142 8.30698 48.5632 8.42361C48.6462 8.6211 48.7312 8.81769 48.8162 9.01423C48.9459 9.31428 49.0756 9.6142 49.198 9.91697C49.3256 10.2333 49.446 10.5525 49.5663 10.8715L49.5668 10.8726C49.6452 11.0807 49.7238 11.289 49.8042 11.4961C49.8841 11.7023 49.9729 11.9055 50.0616 12.1084L50.0781 12.146C50.1208 12.2443 50.1651 12.342 50.2094 12.4397C50.2962 12.6309 50.3829 12.8222 50.4575 13.0178C50.4903 13.1036 50.4868 13.2524 50.4325 13.3084C50.3791 13.3644 50.23 13.3715 50.1416 13.3424C49.9061 13.2657 49.6778 13.1685 49.45 13.0716L49.4337 13.0646C49.4165 13.0573 49.3992 13.0499 49.382 13.0426C49.1724 12.9537 48.9636 12.8634 48.7549 12.7732C48.4542 12.6432 48.1537 12.5132 47.8514 12.3877C47.6089 12.2871 47.3642 12.1922 47.1195 12.0972C46.9678 12.0384 46.8158 11.9794 46.6646 11.9192C46.5635 11.8787 46.4633 11.8361 46.3632 11.7935C46.2565 11.748 46.1497 11.7026 46.042 11.6598C45.6738 11.5138 45.3052 11.3686 44.9366 11.2235L44.9353 11.223C44.512 11.0563 44.0886 10.8896 43.6656 10.7214C43.539 10.6711 43.4139 10.6178 43.2887 10.5645C43.1636 10.5112 43.0382 10.4577 42.9117 10.4074C42.6942 10.3213 42.4761 10.2367 42.2579 10.1522C41.9358 10.0274 41.6136 9.90252 41.2934 9.77239C41.0598 9.67721 40.828 9.57745 40.5962 9.47767C40.3722 9.38129 40.1483 9.2849 39.9226 9.19262C39.8787 9.1747 39.8249 9.17961 39.7711 9.18452Z" fill="#6219FF"/>
<path fill-rule="evenodd" clip-rule="evenodd" d="M23.1884 29.0751C23.0858 29.0135 22.9814 28.9507 22.876 28.8841C22.893 28.6881 23.0276 28.5806 23.1682 28.4683L23.172 28.4652C23.7754 27.9889 24.0913 27.3681 24.1049 26.5998C24.1077 26.4346 24.1077 26.2688 24.1063 26.1036C24.0992 25.0646 23.3446 24.2261 22.4909 23.8328C21.7698 23.5004 20.996 23.4529 20.23 23.4359C19.1582 23.4117 18.0856 23.4165 17.0131 23.4213C16.5764 23.4233 16.1392 23.4252 15.7025 23.4252L15.6926 23.4252L15.6803 23.4252C15.6698 23.4251 15.6593 23.425 15.6487 23.4249C15.5837 23.4243 15.5177 23.4237 15.4536 23.4309C15.2403 23.455 15.1597 23.5323 15.1319 23.7406C15.1232 23.8031 15.124 23.8664 15.1249 23.9299L15.1252 23.9474L15.1253 23.9608C15.1254 23.9699 15.1255 23.9789 15.1255 23.988C15.1255 25.2397 15.1257 26.4913 15.1258 27.743C15.126 28.9947 15.1262 30.2463 15.1262 31.498C15.1262 31.8416 15.1258 32.1851 15.1254 32.5286C15.1248 33.1299 15.1241 33.7311 15.1255 34.3323C15.1262 34.6371 15.1925 34.7016 15.4992 34.7207C15.5515 34.7244 15.6038 34.7238 15.6561 34.7233C15.6672 34.7232 15.6782 34.723 15.6892 34.723C15.6972 34.7229 15.7052 34.7229 15.7132 34.7229C16.2212 34.7229 16.7292 34.7223 17.2372 34.7217L17.2428 34.7217H17.2439C18.4332 34.7204 19.6224 34.719 20.8112 34.725C21.6321 34.7293 22.4181 34.5832 23.1549 34.2303C24.1255 33.7653 24.7225 33.0325 24.7396 31.9162C24.7411 31.8099 24.7403 31.7038 24.7396 31.5976C24.7389 31.4915 24.7382 31.3853 24.7396 31.279C24.7503 30.5228 24.403 29.9402 23.8231 29.4908C23.6266 29.3382 23.4119 29.2093 23.1884 29.0751ZM18.9439 30.05C19.0828 30.0503 19.2217 30.0507 19.3606 30.0507C19.4575 30.0507 19.5546 30.0516 19.6516 30.0526H19.653C19.876 30.0547 20.0992 30.0568 20.322 30.0479C20.7185 30.033 21.0987 30.0883 21.4774 30.2088C22.0358 30.3867 22.3732 30.875 22.3069 31.4519C22.2398 32.0331 21.8333 32.4102 21.252 32.5179C20.5156 32.654 19.776 32.6371 19.0367 32.6202C18.6633 32.6117 18.2899 32.6031 17.917 32.6143C17.5754 32.6242 17.4841 32.508 17.4812 32.1572C17.477 31.6142 17.4755 31.0713 17.4827 30.5291C17.4869 30.1379 17.5725 30.0564 17.9719 30.0521C18.2959 30.0482 18.6199 30.0491 18.9439 30.05ZM19.1245 25.582C19.2373 25.582 19.3501 25.5827 19.463 25.5834C19.7298 25.585 19.9966 25.5866 20.2628 25.5792C20.5987 25.5707 20.899 25.7025 21.1693 25.8542C21.543 26.0639 21.7277 26.424 21.6971 26.8641C21.6685 27.2738 21.4439 27.5672 21.0965 27.765C20.762 27.9556 20.4019 28.0407 20.0074 28.0286C19.5784 28.0156 19.149 28.018 18.7195 28.0204C18.473 28.0217 18.2264 28.0231 17.9798 28.0215C17.5504 28.0187 17.4841 27.9521 17.4812 27.5282C17.477 27.0335 17.4748 26.5381 17.4812 26.0434C17.4862 25.6727 17.5725 25.5905 17.9505 25.5841C18.2229 25.5797 18.4949 25.5807 18.7671 25.5818C18.8862 25.5822 19.0053 25.582 19.1245 25.582Z" fill="#6219FF"/>
<path fill-rule="evenodd" clip-rule="evenodd" d="M46.5754 34.6243C46.5247 34.6391 46.4803 34.6547 46.4399 34.6689C46.3622 34.6962 46.2995 34.7181 46.2366 34.7186C45.7455 34.7229 45.2543 34.7227 44.7632 34.7225C44.5176 34.7225 44.272 34.7224 44.0263 34.7229C43.7646 34.7236 43.6234 34.5549 43.4943 34.3628C43.3168 34.0993 43.1391 33.8359 42.9614 33.5724L42.9603 33.5708L42.9595 33.5696C42.4781 32.856 41.996 32.1415 41.5194 31.4243C41.3796 31.2131 41.1927 31.1224 40.9538 31.1195C40.5616 31.1153 40.1693 31.1139 39.7777 31.1195C39.3776 31.1259 39.2706 31.2343 39.2699 31.6291C39.2686 32.1627 39.2692 32.6962 39.2699 33.2297C39.2702 33.5346 39.2706 33.8396 39.2706 34.1445C39.2706 34.1623 39.2708 34.18 39.271 34.1977L39.2714 34.2218C39.272 34.2669 39.2727 34.312 39.2713 34.3571C39.2621 34.6534 39.2093 34.7172 38.9183 34.7214C38.372 34.7285 37.8249 34.7278 37.2786 34.7207C36.9284 34.7158 36.8685 34.6492 36.8685 34.2983C36.8681 33.2386 36.8684 32.1789 36.8688 31.1191V31.1102C36.869 30.4017 36.8692 29.6932 36.8692 28.9847C36.8692 28.1523 36.8691 27.3199 36.8689 26.4874C36.8687 25.655 36.8685 24.8225 36.8685 23.9901C36.8685 23.9799 36.8684 23.9696 36.8683 23.9594C36.8682 23.9515 36.8681 23.9436 36.868 23.9357C36.8674 23.8948 36.8668 23.8536 36.8692 23.8129C36.8871 23.5252 36.9669 23.4472 37.2658 23.4302C37.3264 23.4266 37.3875 23.4271 37.4486 23.4277C37.4709 23.4279 37.4931 23.4281 37.5154 23.4281C37.9329 23.4281 38.3503 23.427 38.7678 23.4259C39.7882 23.4233 40.8085 23.4207 41.8289 23.4337C42.3617 23.4401 42.9059 23.4607 43.4223 23.5755C44.4635 23.8065 45.3479 24.3204 45.8943 25.273C46.0497 25.5444 46.1524 25.8598 46.2145 26.1674C46.3578 26.879 46.3664 27.6055 46.1931 28.3086C46.0761 28.7835 45.8693 29.2392 45.5155 29.612C45.1454 30.0025 44.741 30.3378 44.2389 30.5504C43.99 30.656 43.9522 30.7978 44.1055 31.0267C44.3101 31.3331 44.5202 31.6359 44.7303 31.9386L44.7319 31.9409C44.8243 32.0741 44.9172 32.208 45.0092 32.3414C45.2639 32.7118 45.5181 33.0824 45.7722 33.4529L45.7752 33.4572C45.9335 33.688 46.0918 33.9188 46.2502 34.1495C46.3464 34.2905 46.4441 34.433 46.5754 34.6243ZM39.2692 27.2773C39.2692 27.3819 39.2691 27.4865 39.269 27.5911C39.2687 27.8522 39.2684 28.1134 39.2699 28.3745C39.2728 28.8912 39.3562 28.9769 39.8647 28.9791C40.0808 28.9799 40.2969 28.9791 40.5131 28.9783C40.8783 28.977 41.2443 28.9757 41.6093 28.9819C41.993 28.9883 42.3603 28.9472 42.7262 28.8154C43.2554 28.6247 43.5934 28.2845 43.771 27.7487C43.8873 27.3978 43.8331 27.081 43.7339 26.75C43.6391 26.4332 43.4672 26.183 43.1876 25.9945C42.8602 25.7734 42.4872 25.684 42.1135 25.6692C41.399 25.6411 40.6828 25.6492 39.9669 25.6573C39.8876 25.6582 39.8078 25.6591 39.7285 25.66C39.3798 25.6635 39.2756 25.7854 39.2706 26.1455C39.2674 26.3903 39.2681 26.6354 39.2687 26.8804V26.882C39.2691 27.0138 39.2695 27.1456 39.2692 27.2773Z" fill="#6219FF"/>
<path d="M26.2317 23.9738V29.0762C26.2324 30.7886 26.2324 32.5009 26.2317 34.2154C26.2317 34.2983 26.2317 34.3806 26.2331 34.4635C26.2353 34.6201 26.3237 34.7023 26.4728 34.7193C26.5351 34.7263 26.5982 34.7256 26.6616 34.7248L26.6744 34.7246L26.6881 34.7245L26.6975 34.7244C26.7056 34.7243 26.7136 34.7243 26.7217 34.7243C27.9809 34.7243 29.2404 34.7245 30.4999 34.7247C31.7598 34.7248 33.0204 34.725 34.2803 34.725C34.2981 34.725 34.316 34.7252 34.3338 34.7254C34.3875 34.7259 34.4414 34.7264 34.4943 34.7222C34.7832 34.6995 34.8481 34.6378 34.8509 34.3529C34.8566 33.8681 34.8559 33.384 34.8523 32.9C34.8502 32.5853 34.7988 32.5314 34.4779 32.5236C34.2566 32.5182 34.0352 32.5196 33.8139 32.521C33.7143 32.5216 33.6147 32.5222 33.5151 32.5222C33.0317 32.5222 32.5484 32.5223 32.0651 32.5223C31.0984 32.5225 30.1318 32.5227 29.1652 32.5222C28.7408 32.5222 28.7001 32.4797 28.7009 32.053C28.7011 31.8942 28.7007 31.7354 28.7004 31.5767C28.6996 31.2393 28.6989 30.9019 28.7037 30.5646C28.7094 30.2038 28.7864 30.1308 29.1516 30.1287C29.6418 30.1265 30.1316 30.1273 30.6212 30.1281L30.7449 30.1283C30.8438 30.1284 30.9427 30.1286 31.0416 30.1287C31.3484 30.1287 31.6552 30.1291 31.9619 30.1295H31.9637C32.5001 30.1301 33.0364 30.1308 33.5728 30.1294C33.9408 30.128 34.0164 30.0557 34.0214 29.6957C34.0271 29.247 34.0271 28.7977 34.0207 28.349C34.0172 28.0683 33.938 27.9925 33.6627 27.9748C33.6098 27.9716 33.5567 27.9731 33.5035 27.9745C33.4734 27.9754 33.4431 27.9762 33.4131 27.9762C33.1778 27.9768 32.9426 27.9774 32.7074 27.978C31.5283 27.9811 30.3492 27.9841 29.1701 27.9847C28.7943 27.9854 28.7116 27.906 28.7051 27.5268C28.6973 27.0428 28.6987 26.558 28.7044 26.0739C28.7094 25.643 28.775 25.582 29.203 25.582C30.0349 25.582 30.8669 25.5822 31.6989 25.5824C32.5308 25.5825 33.3628 25.5827 34.1948 25.5827C34.2083 25.5827 34.2219 25.5827 34.2355 25.5827C34.3169 25.5828 34.3988 25.5829 34.48 25.5799C34.6676 25.5728 34.7668 25.4665 34.7682 25.2872L34.7685 25.2358C34.772 24.7335 34.7755 24.2302 34.7596 23.7286C34.7525 23.5075 34.6648 23.4458 34.4422 23.4274C34.4004 23.4239 34.3583 23.4246 34.3163 23.4253C34.2988 23.4257 34.2813 23.426 34.2639 23.426C33.0101 23.426 31.7563 23.4261 30.5024 23.4263C29.2486 23.4265 27.9948 23.4267 26.7409 23.4267C26.7225 23.4267 26.7039 23.4263 26.6853 23.426C26.6444 23.4252 26.6034 23.4244 26.5626 23.4274C26.3444 23.4444 26.2681 23.5124 26.2388 23.7265C26.2299 23.79 26.2306 23.8552 26.2313 23.9205C26.2315 23.9383 26.2317 23.9561 26.2317 23.9738Z" fill="#6219FF"/>
<path d="M83.1142 26.7288C83.0618 26.6894 83.0111 26.6514 82.9615 26.6144C82.8416 26.5248 82.7288 26.4406 82.6178 26.3538C81.7099 25.6458 80.675 25.3417 79.5481 25.5714C78.6609 25.7521 77.942 26.2532 77.4662 27.0512C77.1146 27.6409 76.8864 28.2604 76.9427 28.9606C76.9507 29.0608 76.949 29.1616 76.9472 29.2625C76.9457 29.3507 76.9442 29.439 76.9492 29.5269C77.0162 30.6992 77.5961 31.5816 78.5589 32.2132C79.1801 32.6207 79.8933 32.7766 80.6336 32.6859C81.1878 32.6178 81.7241 32.4534 82.1963 32.1387C82.4078 31.9978 82.611 31.8438 82.814 31.6899C82.856 31.6581 82.8981 31.6261 82.9402 31.5944C83.1748 31.4172 83.2754 31.4215 83.4872 31.6327C83.5135 31.6589 83.5398 31.6851 83.5661 31.7113L83.6983 31.8431C83.9799 32.1237 84.2616 32.4045 84.5406 32.688C84.7517 32.9021 84.7631 33.0268 84.5485 33.2203C83.9586 33.7526 83.3374 34.2338 82.5736 34.5145C81.6357 34.8582 80.6714 35.0347 79.6794 34.9447C79.1295 34.8944 78.5839 34.7668 78.0575 34.5712C77.5083 34.3671 76.9934 34.1126 76.5327 33.7505C75.6647 33.0686 75.047 32.2146 74.6655 31.1777C74.4451 30.5787 74.3966 29.9635 74.3545 29.3405C74.3146 28.7473 74.398 28.1626 74.4929 27.5821C74.5378 27.3071 74.6448 27.0378 74.7553 26.7791C75.1419 25.874 75.7139 25.1064 76.487 24.4848C76.972 24.095 77.5155 23.798 78.0882 23.5882C78.7087 23.3614 79.3705 23.248 80.0417 23.2643C80.1633 23.2674 80.2853 23.2687 80.4073 23.2701C80.7732 23.2742 81.1397 23.2783 81.5002 23.3267C81.9645 23.3891 82.4167 23.5273 82.8582 23.7087C83.3809 23.9242 83.8374 24.229 84.2839 24.5607C84.2883 24.5639 84.2928 24.5669 84.2973 24.5699C84.2992 24.5711 84.3011 24.5724 84.3031 24.5736C84.3055 24.5751 84.308 24.5767 84.3105 24.5783C84.3217 24.5852 84.3328 24.5921 84.3431 24.6004C84.6933 24.8739 84.7118 24.9788 84.4294 25.3134C84.1013 25.7011 83.7625 26.081 83.423 26.4587C83.3649 26.5237 83.2971 26.5786 83.223 26.6387C83.1881 26.667 83.1517 26.6965 83.1142 26.7288Z" fill="#6219FF"/>
<path d="M63.8565 27.1999C63.7271 27.4246 63.5932 27.6571 63.3381 27.8309C63.3101 27.7993 63.2835 27.7713 63.2586 27.7452C63.2088 27.693 63.1657 27.6477 63.1334 27.5963C63.0105 27.4013 62.8917 27.2037 62.773 27.0062C62.7566 26.9789 62.7397 26.9509 62.7233 26.9235C62.6946 26.8758 62.6658 26.8281 62.637 26.7805C62.5666 26.6642 62.4961 26.548 62.4256 26.4317C62.1721 26.0135 61.9186 25.5953 61.6663 25.1766C61.6292 25.1149 61.5921 25.0533 61.5549 24.9916C61.2996 24.5679 61.0443 24.1443 60.7934 23.7179C60.6742 23.5152 60.5123 23.4203 60.2699 23.4231C59.8809 23.4278 59.4918 23.4271 59.1025 23.4263C58.791 23.4257 58.4789 23.4251 58.1673 23.4273C57.8613 23.4295 57.8036 23.5237 57.9576 23.7973C58.143 24.1262 58.3463 24.4444 58.5503 24.7619C58.7353 25.0504 58.9222 25.3375 59.1091 25.6247L59.1125 25.63L59.1132 25.6311L59.1154 25.6346C59.3319 25.9673 59.5484 26.3 59.762 26.6345C59.9719 26.9629 60.1796 27.2928 60.3873 27.6226C60.613 27.9812 60.8388 28.3397 61.0672 28.6963C61.208 28.9161 61.3536 29.1329 61.4991 29.3497C61.6167 29.5249 61.7346 29.7004 61.8496 29.8771C62.0201 30.1393 62.1107 30.4221 62.1078 30.7439C62.0992 31.6972 62.1003 32.651 62.1014 33.6048C62.1017 33.8317 62.102 34.0587 62.1021 34.2856C62.1028 34.6492 62.1656 34.7158 62.5379 34.7222C62.8032 34.727 63.0688 34.7256 63.3346 34.7242H63.3357L63.3368 34.7242C63.4625 34.7235 63.5883 34.7229 63.714 34.7229C63.7638 34.7229 63.8137 34.7234 63.8635 34.724C63.9798 34.7253 64.0962 34.7267 64.2125 34.7207C64.522 34.7051 64.5848 34.6385 64.5927 34.338C64.5941 34.2908 64.5936 34.2435 64.5931 34.1963C64.5929 34.1726 64.5927 34.149 64.5927 34.1254C64.5924 33.7677 64.5926 33.41 64.5927 33.0522C64.593 32.265 64.5932 31.4775 64.5898 30.69C64.5884 30.3732 64.6661 30.0947 64.8458 29.8253C65.1149 29.4228 65.3731 29.0135 65.6312 28.6041C65.763 28.3951 65.8951 28.1857 66.0284 27.9776C66.7346 26.8755 67.4418 25.7751 68.1492 24.6744L68.4961 24.1347C68.5243 24.0906 68.5551 24.0478 68.5859 24.005C68.645 23.9226 68.7042 23.8403 68.745 23.7498C68.8477 23.523 68.7942 23.4323 68.5517 23.4295C67.8513 23.4217 67.1502 23.4238 66.4492 23.4295C66.2202 23.4316 66.0533 23.5273 65.9399 23.7477C65.8137 23.9931 65.6684 24.2289 65.523 24.4646C65.4761 24.5407 65.4292 24.6168 65.3829 24.6932C65.2749 24.8714 65.1672 25.0497 65.0595 25.2281C64.6978 25.8272 64.3356 26.4269 63.9636 27.0193C63.9267 27.078 63.8917 27.1387 63.8565 27.1999Z" fill="#6219FF"/>
<path d="M100.566 23.4614C100.624 23.4561 100.676 23.4503 100.723 23.4451C100.813 23.435 100.887 23.4267 100.962 23.4267C101.166 23.4257 101.371 23.4285 101.575 23.4312C102.001 23.4369 102.427 23.4426 102.851 23.4153C103.261 23.3891 103.462 23.5953 103.637 23.8951L103.805 24.1833L103.806 24.1864L103.808 24.1885L103.808 24.1894L103.809 24.1903C104.274 24.9886 104.739 25.7872 105.205 26.5842C105.384 26.8889 105.569 27.1909 105.754 27.4921C105.796 27.5623 105.844 27.6331 105.901 27.692C106.036 27.8302 106.138 27.8344 106.25 27.6707C106.483 27.3298 106.702 26.9782 106.918 26.626C107.256 26.0737 107.591 25.52 107.927 24.9664C108.062 24.7428 108.198 24.5191 108.333 24.2956C108.37 24.2348 108.409 24.1748 108.447 24.1147C108.53 23.9852 108.613 23.8548 108.68 23.718C108.771 23.5337 108.915 23.443 109.101 23.4408C109.785 23.4332 110.469 23.4359 111.153 23.4385L111.382 23.4394C111.402 23.4394 111.423 23.4523 111.446 23.4666C111.457 23.4736 111.47 23.4813 111.482 23.4876C111.536 23.6451 111.456 23.7695 111.38 23.8878L111.38 23.889L111.379 23.89L111.371 23.9021L111.365 23.9114C111.087 24.3451 110.808 24.778 110.528 25.2108L110.525 25.2149L110.524 25.2176L110.522 25.2197C110.189 25.7362 109.855 26.2528 109.524 26.7706C109.283 27.1471 109.045 27.5257 108.807 27.9044C108.587 28.2548 108.367 28.6055 108.144 28.9543C107.908 29.3248 107.662 29.6898 107.416 30.0541L107.415 30.0559L107.415 30.0568L107.402 30.0755C107.27 30.2711 107.239 30.4845 107.241 30.7155C107.246 31.6611 107.246 32.6062 107.245 33.5516L107.245 34.2593C107.245 34.6747 107.199 34.7207 106.771 34.7222C106.284 34.7243 105.796 34.7257 105.309 34.7215C104.881 34.7179 104.834 34.669 104.834 34.2544C104.834 33.9417 104.832 33.6289 104.83 33.3161C104.824 32.5419 104.818 31.7676 104.848 30.9948C104.869 30.4703 104.686 30.0578 104.416 29.6453C104.154 29.247 103.898 28.8455 103.642 28.4441L103.64 28.4417L103.639 28.4408C103.496 28.2169 103.353 27.9931 103.21 27.7699C103.054 27.5278 102.897 27.2859 102.741 27.044C102.506 26.6812 102.271 26.3184 102.038 25.9548L101.971 25.8498C101.56 25.2093 101.149 24.5686 100.747 23.9221C100.697 23.8409 100.666 23.7477 100.629 23.6395C100.611 23.5842 100.591 23.5249 100.566 23.4614Z" fill="#6219FF"/>
<path d="M96.392 23.4265C95.9206 23.4266 95.4492 23.4267 94.9777 23.4267V23.4267L93.5405 23.4258C92.5817 23.4256 91.6228 23.4255 90.6642 23.4259C90.2762 23.4267 90.2099 23.4897 90.2056 23.8796C90.2006 24.3289 90.1999 24.7776 90.2056 25.2262C90.2106 25.5898 90.2805 25.6557 90.6521 25.6564C91.1234 25.6577 91.5947 25.6572 92.0661 25.6568C92.4028 25.6564 92.7396 25.6561 93.0763 25.6564C93.6647 25.6571 93.7125 25.7039 93.7125 26.2752C93.7118 28.3754 93.7118 30.4764 93.7118 32.5767V32.6526C93.7118 32.8527 93.7113 33.0529 93.7107 33.253V33.2559C93.7097 33.6218 93.7088 33.9877 93.7111 34.3536C93.7125 34.6789 93.7539 34.72 94.0834 34.7229C94.6661 34.7278 95.2488 34.7285 95.8307 34.7243C96.1303 34.7222 96.1852 34.6655 96.1881 34.372C96.191 34.0879 96.1902 33.8035 96.1895 33.5192L96.1891 33.3911C96.1889 33.3046 96.1888 33.2181 96.1888 33.1317C96.1881 30.8289 96.1881 28.5255 96.1881 26.2227C96.1881 25.6833 96.2159 25.6557 96.7437 25.6557L96.7564 25.6557C97.5716 25.6564 98.3876 25.6571 99.2035 25.6571C99.6215 25.6571 99.6693 25.6118 99.6736 25.1886C99.6778 24.7513 99.6786 24.314 99.6736 23.8774C99.6686 23.4812 99.6108 23.4267 99.2207 23.4267C98.2778 23.4262 97.3349 23.4263 96.392 23.4265Z" fill="#6219FF"/>
<path d="M51.886 23.4266H51.8983C53.2479 23.4266 54.5982 23.4266 55.9478 23.4274C55.972 23.4274 55.9961 23.4271 56.0203 23.4268C56.1033 23.426 56.1863 23.4251 56.268 23.4344C56.4777 23.4585 56.5769 23.5372 56.5826 23.7491C56.5961 24.28 56.5968 24.8116 56.5826 25.3417C56.5769 25.5536 56.4813 25.6266 56.2645 25.6493C56.1815 25.6582 56.0973 25.6575 56.0131 25.6568C55.9901 25.6566 55.9671 25.6564 55.9442 25.6564C55.687 25.6564 55.4297 25.6561 55.1724 25.6558C54.6577 25.6551 54.1429 25.6545 53.6284 25.6564C53.1905 25.6578 53.0842 25.7641 53.0842 26.205C53.0848 28.3601 53.0872 30.5148 53.0896 32.6698L53.0914 34.3139C53.0921 34.6399 53.0372 34.7122 52.7041 34.7186C52.1464 34.7292 51.5879 34.7278 51.0295 34.72C50.7591 34.7165 50.7007 34.6477 50.6921 34.3777C50.6889 34.27 50.6901 34.1623 50.6914 34.0546L50.692 34.0079C50.6922 33.9912 50.6923 33.9745 50.6925 33.9577C50.6927 33.9326 50.6928 33.9074 50.6928 33.8823C50.6928 31.3563 50.6928 28.8302 50.6935 26.3042C50.6935 26.2688 50.6942 26.2333 50.6935 26.1979C50.6885 25.7663 50.5858 25.6585 50.1422 25.6564C49.6505 25.6543 49.1587 25.6552 48.6669 25.6562C48.3392 25.6568 48.0115 25.6574 47.6838 25.6571C47.2551 25.6571 47.1952 25.5969 47.1924 25.1624C47.1906 24.8282 47.1913 24.494 47.192 24.1594L47.1924 23.9582C47.1931 23.4763 47.2423 23.4266 47.7173 23.4266C49.1066 23.4259 50.496 23.4259 51.886 23.4266Z" fill="#6219FF"/>
<path d="M0.501733 24.0078V29.1102C0.501733 30.7283 0.501733 32.3464 0.502446 33.9652C0.502446 34.0148 0.501835 34.0644 0.501223 34.114C0.500087 34.2062 0.498952 34.2983 0.501733 34.3905C0.510292 34.6697 0.554511 34.7115 0.839797 34.725C0.871628 34.7264 0.903142 34.7259 0.934761 34.7255C0.950494 34.7252 0.966603 34.725 0.98244 34.725C3.39453 34.7243 5.80734 34.7243 8.22015 34.7243C8.3036 34.7243 8.38633 34.7236 8.46978 34.7222C8.6274 34.7193 8.7137 34.6414 8.7137 34.4819C8.71441 33.9028 8.71441 33.3245 8.7137 32.7454C8.71298 32.6023 8.63952 32.5271 8.49474 32.5236C8.41129 32.5215 8.32856 32.5207 8.24511 32.5207C6.72382 32.5215 5.20254 32.5215 3.68125 32.5215C3.65417 32.5215 3.6271 32.5216 3.60003 32.5218C3.50811 32.5224 3.41604 32.5231 3.32464 32.5165C3.06432 32.4974 3.01368 32.4456 2.99585 32.1968C2.99299 32.1576 2.99395 32.118 2.9949 32.0786C2.99537 32.0589 2.99585 32.0392 2.99585 32.0196C2.99656 30.2832 2.99656 28.5474 2.99656 26.811C2.99656 26.3386 2.99674 25.8662 2.99692 25.3938C2.9971 24.9214 2.99727 24.449 2.99727 23.9766C2.99727 23.4522 2.96875 23.4259 2.42599 23.4266C2.21803 23.4269 2.01007 23.4266 1.80212 23.4263C1.51082 23.4259 1.21953 23.4254 0.928236 23.4266C0.565922 23.4281 0.514571 23.4791 0.501733 23.8306C0.500306 23.8699 0.500783 23.9094 0.501259 23.9489C0.501496 23.9686 0.501733 23.9882 0.501733 24.0078Z" fill="#6219FF"/>
<path d="M89.1901 29.1499V34.4606C89.1901 34.4745 89.1903 34.4884 89.1906 34.5023L89.1908 34.5108C89.1909 34.5168 89.1911 34.5228 89.1912 34.5288C89.1925 34.5772 89.1937 34.6255 89.1894 34.6733C89.1694 34.8831 89.1109 34.9532 88.9034 34.9553C88.1908 34.9624 87.4783 34.9624 86.7658 34.9568C86.5512 34.9546 86.4898 34.888 86.4763 34.6811C86.4708 34.5981 86.4732 34.5146 86.4757 34.4311C86.4762 34.4146 86.4767 34.3981 86.4771 34.3816C86.4779 34.3517 86.4784 34.3218 86.4784 34.292L86.4763 23.7413C86.4763 23.3473 86.4984 23.3246 86.9014 23.3246C87.5304 23.3239 88.1602 23.3239 88.7892 23.3253C89.1587 23.326 89.1901 23.3558 89.1901 23.7343C89.1911 25.0887 89.191 26.4427 89.1909 27.7969C89.1908 28.2483 89.1908 28.6998 89.1908 29.1513L89.1901 29.1499V29.1499Z" fill="#6219FF"/>
<path d="M10.2743 23.7675V29.1477C10.2743 30.9296 10.2743 32.7107 10.2757 34.4925C10.2757 34.5116 10.2755 34.5308 10.2754 34.55C10.2749 34.6012 10.2745 34.6529 10.2771 34.7044C10.2857 34.8738 10.3713 34.9638 10.5488 34.9575C10.6222 34.955 10.696 34.9556 10.7698 34.9562C10.8027 34.9565 10.8361 34.9567 10.8691 34.9567C11.0338 34.9569 11.1986 34.9574 11.3634 34.9579C11.7922 34.9591 12.2213 34.9603 12.65 34.9567C12.9167 34.9546 12.9602 34.905 12.9731 34.6484C12.9744 34.6193 12.9735 34.5904 12.9727 34.5615C12.9725 34.5551 12.9723 34.5485 12.9722 34.5421C12.972 34.5365 12.9719 34.5308 12.9718 34.5252C12.9717 34.519 12.9716 34.5128 12.9716 34.5067C12.9709 31.0033 12.9709 27.4992 12.9709 23.9951C12.9709 23.9518 12.9716 23.9086 12.9723 23.8654C12.9738 23.7789 12.9752 23.6924 12.9709 23.606C12.9595 23.377 12.9238 23.3288 12.6999 23.3267C12.2172 23.3224 11.7342 23.3232 11.2513 23.324C11.0101 23.3244 10.7685 23.3248 10.5274 23.3246C10.3691 23.3239 10.2828 23.3962 10.2771 23.5556C10.2743 23.6258 10.2743 23.6967 10.2743 23.7675Z" fill="#6219FF"/>
<path d="M41.5993 42.9863C41.7513 42.8764 41.749 42.7375 41.7467 42.6042L41.7465 42.5898L41.7463 42.5775C41.7462 42.5684 41.7462 42.5594 41.7462 42.5504C41.7479 42.2173 41.7471 41.8842 41.7463 41.5512C41.7458 41.3184 41.7452 41.0848 41.7455 40.8522C41.7462 40.49 41.7897 40.4482 42.1542 40.4426C42.7233 40.4341 42.7312 40.444 42.7312 41.0032C42.7307 41.7658 42.7308 42.5288 42.731 43.2917L42.7311 43.6721C42.7311 43.9267 42.7312 44.1812 42.7312 44.4357C42.7312 44.456 42.7315 44.4765 42.7319 44.4969C42.7332 44.5714 42.7346 44.6465 42.7183 44.7171C42.7041 44.778 42.6563 44.8489 42.6028 44.8794C42.3881 45.0006 41.876 44.8985 41.7234 44.7008C41.4388 44.3327 41.1561 43.9632 40.8734 43.5937L40.8706 43.59C40.6236 43.2673 40.3761 42.9439 40.1279 42.622C40.0716 42.5488 40.007 42.4821 39.9425 42.4154C39.914 42.3859 39.8854 42.3564 39.8576 42.3264L39.7742 42.352C39.7672 42.3935 39.7584 42.435 39.7496 42.4764C39.7306 42.5657 39.7117 42.6551 39.7107 42.7446C39.7067 43.1103 39.7077 43.4759 39.7086 43.8416C39.7092 44.0653 39.7098 44.29 39.7093 44.5137C39.7086 44.8837 39.6779 44.912 39.3027 44.9177C38.7414 44.9262 38.73 44.9127 38.7307 44.3471C38.7317 43.5845 38.7314 42.8215 38.7311 42.0586L38.7308 41.2747C38.7308 41.1547 38.7307 41.0346 38.7307 40.9146C38.7307 40.4752 38.7628 40.4645 39.1858 40.4355C39.526 40.4121 39.7342 40.5538 39.9232 40.8132C40.3164 41.3503 40.7199 41.8804 41.1233 42.4105C41.2489 42.5755 41.3748 42.7409 41.5002 42.9062C41.5136 42.9238 41.5323 42.9371 41.5562 42.9543C41.5637 42.9596 41.5716 42.9653 41.5801 42.9716C41.5862 42.9762 41.5926 42.981 41.5993 42.9863Z" fill="#6219FF"/>
<path fill-rule="evenodd" clip-rule="evenodd" d="M68.0019 44.878C68.3 44.9467 68.6052 44.9347 68.9754 44.8829C68.9636 44.8588 68.9528 44.8357 68.9427 44.8138C68.9322 44.7911 68.9225 44.7696 68.9132 44.7491C68.877 44.6689 68.8476 44.6038 68.8078 44.5449C68.7299 44.4295 68.6489 44.3161 68.5678 44.2026C68.4566 44.0469 68.3454 43.8912 68.2422 43.7305C68.0661 43.4562 68.0953 43.3237 68.357 43.1472C68.6602 42.9438 68.8456 42.6426 68.9226 42.3151C69.1558 41.3228 68.5175 40.4993 67.5568 40.4589C67.0961 40.4396 66.6341 40.4414 66.1722 40.4431C66.0042 40.4437 65.8362 40.4444 65.6682 40.444C65.2381 40.4426 65.2175 40.4702 65.2182 40.9139C65.2184 41.0581 65.2186 41.2022 65.2188 41.3464V41.3489C65.2201 42.3491 65.2214 43.3489 65.2189 44.3493L65.2189 44.362C65.2185 44.6437 65.2183 44.7844 65.289 44.8539C65.3595 44.9231 65.5005 44.9215 65.7822 44.9184C66.1473 44.9141 66.1946 44.8688 66.1989 44.5137C66.2 44.4325 66.1995 44.3511 66.199 44.2697C66.1979 44.1032 66.1969 43.9366 66.2103 43.7709C66.2302 43.532 66.3172 43.4803 66.5555 43.4562C66.8671 43.425 67.0376 43.6171 67.1909 43.8319C67.2848 43.9637 67.3739 44.0988 67.463 44.2338C67.5559 44.3745 67.649 44.5156 67.7472 44.6526C67.8121 44.744 67.9034 44.8553 68.0019 44.878ZM66.8821 41.3027C66.8821 41.3027 66.8825 41.2987 66.8828 41.2966C66.9042 41.2984 66.9256 41.3 66.9471 41.3015C66.9825 41.3039 67.018 41.3061 67.0535 41.3082C67.1858 41.3163 67.3178 41.3244 67.447 41.3477C67.7187 41.3951 67.8927 41.5716 67.9498 41.8353C68.0097 42.1152 67.9191 42.3562 67.6595 42.498C67.5183 42.5752 67.3585 42.6397 67.2002 42.6603C66.9932 42.6867 66.7806 42.6799 66.5706 42.6731C66.5556 42.6726 66.5405 42.6721 66.5255 42.6716C66.2787 42.6638 66.2181 42.605 66.2031 42.3491C66.1896 42.1259 66.1889 41.9012 66.1996 41.6779C66.2145 41.3774 66.2866 41.3172 66.5968 41.3094C66.6631 41.3074 66.7294 41.3078 66.7957 41.3083C66.8241 41.3085 66.8529 41.3087 66.8814 41.3087C66.8814 41.3087 66.882 41.3048 66.8821 41.3027Z" fill="#6219FF"/>
<path d="M73.9801 42.6624C73.9801 42.6163 73.9801 42.5702 73.98 42.5241C73.98 42.4643 73.98 42.4045 73.9799 42.3448L73.9797 42.1056C73.9792 41.6774 73.9788 41.2492 73.9808 40.821C73.9822 40.4943 74.0264 40.4447 74.3459 40.4433C75.2603 40.4397 76.1753 40.4397 77.0897 40.444C77.3956 40.4454 77.4527 40.5156 77.4499 40.8331C77.4463 41.152 77.385 41.2222 77.0875 41.2236C76.8478 41.2245 76.6081 41.224 76.3683 41.2234H76.3663C76.0604 41.2227 75.7545 41.2219 75.4486 41.2243C75.4388 41.2244 75.4289 41.2244 75.4188 41.2243C75.4076 41.2241 75.3962 41.2239 75.3847 41.2237C75.2338 41.2211 75.0618 41.218 75.0256 41.3944C74.98 41.6163 74.9957 41.8572 75.0313 42.0833C75.0399 42.1379 75.2296 42.1932 75.338 42.1982C75.5933 42.2088 75.849 42.2075 76.1048 42.2061C76.2055 42.2056 76.3063 42.205 76.4071 42.2052C76.435 42.2052 76.463 42.205 76.4909 42.2047C76.5699 42.2038 76.6491 42.203 76.7281 42.2088C77.0169 42.23 77.0754 42.2924 77.0854 42.5773C77.1047 43.1203 77.074 43.1507 76.512 43.1507C76.4063 43.1507 76.3007 43.1504 76.1952 43.15C75.9089 43.149 75.6224 43.148 75.3359 43.1543C75.0178 43.1614 74.9721 43.2159 74.9643 43.5363C74.9629 43.5838 74.9636 43.6306 74.9664 43.678C74.985 44.0346 75.0599 44.1161 75.4165 44.1217C75.7548 44.127 76.0934 44.1261 76.4318 44.1252C76.5922 44.1248 76.7525 44.1243 76.9128 44.1246C76.9174 44.1246 76.9221 44.1245 76.9267 44.1245C76.9303 44.1245 76.934 44.1244 76.9377 44.1244L76.9497 44.1241C76.9622 44.1239 76.9747 44.1235 76.9872 44.1232C77.0337 44.1219 77.0803 44.1206 77.1268 44.1239C77.3643 44.1409 77.432 44.2117 77.4463 44.457C77.4506 44.5271 77.4484 44.5987 77.4441 44.6696C77.4335 44.8213 77.355 44.9099 77.1981 44.917C77.139 44.92 77.0796 44.9194 77.02 44.9188C76.9962 44.9186 76.9723 44.9184 76.9485 44.9184C76.6712 44.9184 76.394 44.9182 76.1168 44.9181C75.5626 44.9177 75.0082 44.9174 74.4544 44.9184C74.0029 44.9191 73.9808 44.8985 73.9808 44.4343C73.9808 43.8432 73.9808 43.2528 73.9801 42.6624Z" fill="#6219FF"/>
<path d="M30.241 42.1079C30.2411 42.2885 30.2413 42.4691 30.2413 42.6496C30.2413 42.8373 30.241 43.0249 30.2407 43.2125C30.24 43.6623 30.2392 44.1123 30.2428 44.5619C30.2449 44.8673 30.2934 44.9155 30.5937 44.917C31.4609 44.9198 32.3282 44.9212 33.1948 44.9141C33.5428 44.9113 33.6348 44.7958 33.6013 44.452C33.5778 44.211 33.4886 44.1302 33.1876 44.126C32.8864 44.1214 32.5853 44.1225 32.2841 44.1235H32.2827C32.0736 44.1243 31.8646 44.125 31.6556 44.1239C31.2976 44.1217 31.222 44.0459 31.2049 43.6887C31.2013 43.6299 31.2006 43.5703 31.2028 43.5115C31.2142 43.2195 31.2705 43.1557 31.5601 43.1507C31.8507 43.1456 32.1414 43.1471 32.4321 43.1486C32.5451 43.1492 32.6581 43.1498 32.7711 43.15C33.2682 43.15 33.2889 43.1295 33.2818 42.627C33.2768 42.2577 33.2269 42.2074 32.8403 42.2045C32.6459 42.2032 32.4515 42.2039 32.2571 42.2047C32.0478 42.2055 31.8385 42.2064 31.6293 42.2045C31.2634 42.201 31.202 42.1337 31.2028 41.7616C31.2028 41.7141 31.202 41.6666 31.2056 41.6198C31.2291 41.2994 31.3019 41.2286 31.6186 41.2201C31.6631 41.2192 31.7077 41.2197 31.7523 41.2202C31.779 41.2205 31.8058 41.2208 31.8325 41.2208L31.8743 41.2208C31.9891 41.2208 32.1039 41.2209 32.2187 41.221H32.2209C32.5425 41.2213 32.8644 41.2216 33.1862 41.2201L33.1883 41.2201C33.3303 41.2194 33.4769 41.2186 33.5599 41.0698C33.7297 40.7665 33.5678 40.4688 33.2204 40.4454C33.1806 40.443 33.1413 40.4431 33.1017 40.4432L33.0896 40.4433L33.0778 40.4433L32.6743 40.4429C32.0013 40.4422 31.3279 40.4415 30.655 40.4433C30.2799 40.444 30.2435 40.4794 30.2421 40.8437C30.2401 41.265 30.2405 41.686 30.241 42.1069V42.1079Z" fill="#6219FF"/>
<path d="M59.9718 42.0961C59.9718 42.221 59.9734 42.346 59.975 42.4709C59.9785 42.7477 59.982 43.0245 59.9682 43.301C59.934 43.9892 59.6309 44.569 58.9883 44.8234C58.377 45.0658 57.6902 45.0502 57.0662 44.8284C56.594 44.6604 56.2845 44.2784 56.1675 43.761L56.1588 43.7227C56.0626 43.2978 55.9676 42.8787 55.9849 42.4356C55.9986 42.0884 55.9956 41.7404 55.9927 41.3922C55.991 41.197 55.9893 41.0007 55.9906 40.8054C55.9928 40.5014 56.0413 40.4511 56.3372 40.4426C56.9924 40.4235 56.9905 40.4959 56.981 40.8593C56.9795 40.9156 56.9779 40.9789 56.9784 41.05C56.9796 41.1901 56.9805 41.3302 56.9814 41.4704C56.9849 42.0151 56.9884 42.56 57.0077 43.104C57.0198 43.4435 57.1467 43.7461 57.4506 43.9488C57.7558 44.1522 58.0754 44.2529 58.4191 44.0615C58.7686 43.8673 59.0061 43.6058 58.9968 43.1628C58.9843 42.6009 58.9874 42.0391 58.9906 41.4769C58.9917 41.2711 58.9929 41.0652 58.9933 40.8593C58.994 40.4695 59.0197 40.4454 59.4226 40.4419C59.4583 40.4419 59.4939 40.4419 59.5296 40.4426C59.9454 40.4475 59.9739 40.4759 59.9754 40.8912C59.9758 41.1591 59.9757 41.4267 59.9755 41.6943C59.9754 41.8282 59.9754 41.9621 59.9754 42.0961H59.9718Z" fill="#6219FF"/>
<path d="M84.8473 41.4965C84.9268 41.5343 85.0084 41.5733 85.0941 41.612C85.1099 41.5912 85.125 41.5713 85.1396 41.5521L85.1696 41.5127C85.2173 41.4502 85.26 41.3943 85.3024 41.337C85.3093 41.3278 85.3163 41.3186 85.3234 41.3094L85.3246 41.3077C85.3533 41.2703 85.3819 41.2329 85.4051 41.1924C85.5327 40.9699 85.4799 40.8232 85.251 40.7041C84.6926 40.4135 84.0977 40.3447 83.4851 40.4348C82.9195 40.5177 82.5123 40.8076 82.3996 41.3973C82.2455 42.2031 82.5137 42.6702 83.244 42.9175C83.4002 42.97 83.559 43.0141 83.7179 43.0582C83.8768 43.1023 84.0357 43.1465 84.1919 43.1989C84.3238 43.2429 84.4501 43.3208 84.5628 43.4045C84.7567 43.5483 84.7774 43.7787 84.6241 43.963C84.5121 44.0983 84.363 44.1543 84.1876 44.1706C83.7468 44.2117 83.3695 44.0586 83.0265 43.807C82.8881 43.7057 82.7419 43.6355 82.6128 43.7695C82.5887 43.7946 82.5638 43.8193 82.5386 43.8443C82.4065 43.9752 82.2685 44.112 82.2206 44.3322C82.6043 44.6391 83.0072 44.9028 83.5143 44.9325C83.7925 44.9492 84.073 44.9437 84.3528 44.9381C84.4295 44.9366 84.5062 44.935 84.5827 44.934C85.1112 44.9269 85.5641 44.4407 85.6768 44.0501C85.8565 43.43 85.7039 42.9424 85.1754 42.6362C84.9476 42.5041 84.6942 42.4166 84.4405 42.329C84.3129 42.285 84.1852 42.2409 84.0606 42.1911C84.0223 42.1757 83.9836 42.1606 83.9448 42.1456C83.7856 42.0837 83.6256 42.0214 83.4822 41.9331C83.2376 41.7821 83.2376 41.5815 83.4487 41.381C83.724 41.1201 84.0407 41.1719 84.3502 41.2803C84.5166 41.3388 84.6768 41.4152 84.8473 41.4965Z" fill="#6219FF"/>
<path d="M23.0451 43.3421C23.2753 43.3665 23.3457 43.2038 23.4084 43.0589C23.413 43.0481 23.4177 43.0372 23.4224 43.0267C23.5059 42.8392 23.5737 42.6452 23.6415 42.4511C23.6629 42.3899 23.6844 42.3286 23.7062 42.2676C23.7663 42.101 23.8258 41.9342 23.8853 41.7674L23.886 41.7653C24.012 41.4119 24.1381 41.0584 24.2697 40.7069C24.2996 40.6262 24.3688 40.5425 24.443 40.4986C24.6242 40.3923 25.1056 40.4362 25.3588 40.5772C25.3046 40.7143 25.2505 40.852 25.1962 40.99L25.1956 40.9916L25.195 40.993C25.0838 41.2759 24.9719 41.5604 24.8581 41.8445C24.6398 42.391 24.4202 42.9367 24.1991 43.4817C24.0265 43.9077 23.8532 44.3323 23.6756 44.7561C23.6542 44.8071 23.6121 44.8589 23.565 44.8886C23.2284 45.0991 22.7049 44.9276 22.5508 44.5598C22.4899 44.4141 22.4304 44.2678 22.3708 44.1213C22.346 44.0603 22.3212 43.9992 22.2962 43.9382C22.1304 43.5326 21.9648 43.1269 21.7992 42.7212L21.7949 42.7107C21.6285 42.3031 21.4621 41.8954 21.2956 41.488C21.2626 41.4076 21.2285 41.3278 21.1944 41.248C21.1363 41.1119 21.0781 40.9759 21.026 40.8374C20.9261 40.5723 21.001 40.4624 21.2827 40.4433C21.9082 40.3993 22.0559 40.5177 22.2349 41.1258C22.3042 41.3624 22.3933 41.5931 22.4824 41.8241C22.529 41.9446 22.5755 42.0653 22.6193 42.1868C22.6855 42.3715 22.7504 42.5566 22.8153 42.7416C22.8706 42.8993 22.9262 43.0578 22.9823 43.2152C22.9927 43.2434 23.0071 43.2703 23.0221 43.2981C23.0298 43.3124 23.0376 43.327 23.0451 43.3421Z" fill="#6219FF"/>
<path d="M49.7986 40.4437C49.6594 40.4439 49.5203 40.444 49.3812 40.444C49.2815 40.4438 49.1817 40.4436 49.082 40.4434C48.6825 40.4426 48.283 40.4418 47.8834 40.4447C47.5554 40.4475 47.5083 40.4957 47.5047 40.8111C47.504 40.882 47.5047 40.9536 47.5154 41.023C47.5504 41.2484 47.6103 41.303 47.8406 41.3101C47.9442 41.3134 48.0477 41.3124 48.1513 41.3114C48.226 41.3106 48.3008 41.3099 48.3755 41.3108C48.8541 41.3172 48.9397 41.4015 48.9397 41.8693C48.9401 42.3553 48.9396 42.8413 48.9391 43.3273C48.9387 43.6918 48.9383 44.0563 48.9383 44.4208C48.9383 44.8872 49.0067 44.9481 49.4832 44.9148C49.4894 44.9145 49.4957 44.9141 49.502 44.9137C49.531 44.9121 49.5607 44.9104 49.5894 44.9063C49.7378 44.8865 49.8277 44.8057 49.8384 44.6533C49.8428 44.5887 49.8425 44.5237 49.8421 44.4585C49.842 44.4408 49.8419 44.423 49.8419 44.4052C49.8419 44.1293 49.8415 43.8533 49.8411 43.5773C49.8401 42.9791 49.8392 42.3808 49.8426 41.7828C49.8448 41.4206 49.951 41.32 50.3105 41.3108C50.3883 41.3089 50.4664 41.3103 50.5444 41.3118C50.6687 41.3141 50.7929 41.3164 50.916 41.3051C51.0123 41.2959 51.1678 41.2449 51.1849 41.1832C51.2355 40.9975 51.2726 40.7884 51.2363 40.6034C51.2047 40.4416 51.0349 40.4432 50.8894 40.4445C50.8737 40.4446 50.8582 40.4448 50.8433 40.4447C50.4952 40.4432 50.1468 40.4435 49.7986 40.4437Z" fill="#6219FF"/>
</svg>
