<svg width="160" height="160" viewBox="0 0 160 160" fill="none" xmlns="http://www.w3.org/2000/svg">
<rect width="160" height="160" fill="#F3F3F3"/>
<path d="M56.7091 116.954C52.6786 115.989 49.6071 112.411 49.292 108.305C48.9906 104.402 50.812 100.816 54.2407 98.5606C55.7848 97.544 58.2609 96.667 59.587 96.667C60.0303 96.667 60.394 96.609 60.394 96.5407C60.394 96.3123 59.4346 94.5583 59.3137 94.5583C59.2477 94.5583 58.1119 94.8757 56.7928 95.2614C53.8493 96.1246 52.2218 96.1724 51.1241 95.4353C49.8948 94.6131 49.3961 93.7806 49.2957 92.3987C49.1781 90.7678 49.874 89.543 51.3665 88.7547C53.4123 87.6731 56.474 88.4818 59.0227 90.7813L60.38 92.0064L66.987 90.1844C74.5119 88.11 75.5299 87.9905 76.8976 89.0174C78.0093 89.8534 78.5495 90.9007 78.5495 92.2143C78.5495 93.4939 78.0093 94.5791 77.0258 95.268L76.293 95.7834L75.4792 95.0054C75.0325 94.5791 74.6652 94.166 74.6652 94.0911C74.6652 94.0161 74.984 93.835 75.3751 93.6885C76.7672 93.1698 76.7708 91.3785 75.3751 90.6107C74.8316 90.3099 74.2255 90.4335 68.2694 92.0609C64.689 93.0402 61.7213 93.8759 61.6765 93.9205C61.6316 93.965 61.9207 94.5995 62.3241 95.3294C62.9333 96.4384 63.1586 96.6568 63.6951 96.6568C64.8588 96.6568 67.8478 97.6087 69.7864 98.5946C72.5324 99.9936 75.3892 102.846 76.7534 105.555C77.9137 107.855 78.405 109.588 78.6197 112.133C78.755 113.71 78.7064 114.081 78.2493 115.01C77.4979 116.542 76.3968 117.152 74.4298 117.132C71.6423 117.102 69.6581 115.835 67.6325 112.788C66.147 110.557 65.3748 108.757 61.7873 99.1747C61.5125 98.4412 61.1293 98.3867 59.1693 98.7926C56.0945 99.4307 53.5561 101.297 52.2716 103.87C51.5754 105.262 51.4923 105.645 51.4923 107.425C51.4923 109.022 51.5998 109.636 52.0291 110.492C52.9018 112.232 54.1054 113.433 55.8346 114.269C57.2087 114.938 57.663 115.04 59.2108 115.034C60.5891 115.03 61.2261 114.911 61.9879 114.511C62.9345 114.017 63.0261 114.01 64.2007 114.355C64.8829 114.552 65.3885 114.829 65.3366 114.976C65.1772 115.446 62.5421 116.729 61.1778 116.999C59.5259 117.343 58.2517 117.326 56.7106 116.954H56.7091ZM75.8618 114.487C76.6756 113.685 76.7382 112.907 76.1977 110.369C75.7702 108.376 74.5598 105.903 73.147 104.141C71.2148 101.734 67.6102 99.5249 64.9436 99.1019L64.0123 98.9554L65.5427 103.022C68.4585 110.774 70.4081 113.903 72.8734 114.794C74.3629 115.334 75.0792 115.258 75.8618 114.487ZM55.6255 93.3669C56.6157 93.0961 57.5125 92.7934 57.6166 92.6948C57.9525 92.3843 56.0548 91.05 54.7424 90.6715C53.2767 90.2482 52.2248 90.4052 51.7158 91.1183C51.2242 91.8102 51.2691 92.5103 51.8511 93.2405C52.4673 94.0083 53.1909 94.0321 55.6255 93.3669ZM83.2863 117.035C82.2197 116.715 81.1324 115.555 80.8102 114.398C80.2285 112.296 81.3089 107.54 83.016 104.67C84.2557 102.586 87.2786 99.771 89.5122 98.6178C91.4307 97.6283 94.4283 96.6694 95.6069 96.6694C96.1367 96.6694 96.3788 96.4408 97.0023 95.3661C97.4179 94.6498 97.7086 94.0149 97.65 93.9572C97.5913 93.8994 94.6093 93.0495 91.0289 92.0702C85.0869 90.4455 84.467 90.3198 83.9269 90.6167C82.5727 91.3689 82.5901 93.1996 83.9574 93.7081C84.3312 93.848 84.6359 94.0219 84.6359 94.0968C84.6359 94.1717 84.2725 94.5815 83.8292 95.0045C83.0396 95.7584 83.0084 95.7653 82.406 95.3763C81.3846 94.7178 80.8304 93.5952 80.8337 92.1896C80.8337 90.7022 81.4017 89.6272 82.555 88.9379C84.1028 88.0053 84.4664 88.051 91.9703 90.1017L99.0203 92.0293L100.229 90.8728C101.756 89.4088 103.595 88.5149 105.437 88.341C106.635 88.2285 107.033 88.2932 107.93 88.7505C109.932 89.7671 110.711 92.3876 109.53 94.1139C108.148 96.1372 106.434 96.4203 102.563 95.2707C101.268 94.885 100.146 94.5712 100.073 94.5676C99.9312 94.5643 98.8991 96.2873 98.8991 96.5295C98.8991 96.6081 99.2628 96.673 99.7061 96.673C100.991 96.673 103.446 97.526 104.987 98.5053C106.815 99.672 108.027 101.057 109.062 103.179C110.6 106.332 110.347 110.174 108.412 112.944C106.968 115.012 104.713 116.51 102.276 117.018C100.575 117.373 99.5052 117.349 97.8225 116.919C96.4683 116.575 93.9095 115.258 93.9095 114.906C93.9095 114.814 94.4591 114.579 95.1351 114.384C96.3055 114.046 96.406 114.053 97.3336 114.538C98.0781 114.927 98.7254 115.046 100.093 115.049C101.641 115.053 102.095 114.95 103.47 114.285C105.388 113.352 106.77 111.893 107.473 110.054C108.934 106.223 106.766 101.555 102.632 99.6308C101.229 98.9758 98.6839 98.3991 98.1333 98.6079C97.929 98.6864 97.3648 99.7812 96.8729 101.047C93.1434 110.689 92.0286 112.965 90.0686 114.917C88.2921 116.681 85.2588 117.629 83.285 117.036L83.2863 117.035ZM86.3611 114.804C87.8536 114.303 89.5782 112.453 90.8386 109.997C91.3925 108.915 92.6148 106.025 93.5535 103.579C95.489 98.529 95.5077 98.6383 92.9299 99.487C87.9644 101.125 84.2005 105.366 83.1131 110.548C82.5727 113.131 82.6145 113.684 83.4316 114.49C84.2212 115.264 84.8029 115.326 86.3611 114.804ZM107.384 93.3497C108.395 92.415 107.896 90.7623 106.511 90.4633C105.479 90.2379 103.453 90.9146 102.349 91.8451C101.286 92.7423 101.219 92.6674 103.658 93.3735C105.753 93.9843 106.705 93.9776 107.383 93.3497H107.384ZM52.1974 86.09C49.7906 85.5578 48.4538 82.5699 49.7143 80.5319C51.1271 78.2493 52.8483 78.0414 57.7653 79.5562C59.4102 80.0611 59.3513 80.0815 60.0404 78.8227C60.5045 77.9764 60.4905 77.9322 59.7351 77.9286C56.6255 77.915 52.2209 75.1411 50.59 72.1659C46.7122 65.0828 51.7228 56.9135 59.6734 57.3684C61.4844 57.4707 63.7525 58.2827 65.0233 59.2789C65.4285 59.5999 65.4508 59.685 65.1479 59.8806C64.3412 60.4062 63.0496 60.4095 61.5952 59.8875C58.0148 58.6001 53.8938 60.3265 52.1384 63.8477C51.5738 64.9765 51.4804 65.4579 51.4804 67.1605C51.4804 68.8324 51.5842 69.3682 52.1216 70.494C52.8868 72.1012 54.5836 73.8242 56.2908 74.7247C57.5409 75.3833 60.6954 76.1785 61.2426 75.9703C61.4053 75.9101 61.9803 74.7181 62.525 73.326C66.3134 63.5782 67.3107 61.5624 69.2985 59.6032C70.744 58.1771 72.2017 57.5152 74.1513 57.3949C75.4777 57.313 75.8826 57.3847 76.6826 57.8386C77.8252 58.4873 78.7049 60.0424 78.7015 61.4114C78.6979 63.9909 77.6695 67.6007 76.2844 69.9257C75.2627 71.6385 72.2954 74.5523 70.536 75.5725C68.8603 76.5449 65.9559 77.5823 64.2685 77.8073C63.067 77.9677 63.001 78.0179 62.2807 79.2539C61.8722 79.957 61.5745 80.5677 61.623 80.6077C61.6716 80.6477 64.6389 81.4802 68.223 82.4637C75.3598 84.4154 75.5919 84.4326 76.2774 83.0233C76.6792 82.2011 76.2637 81.2389 75.315 80.7885C74.4975 80.4028 74.5009 80.2771 75.3528 79.475C76.1736 78.7003 76.7269 78.789 77.6176 79.8297C79.238 81.7302 78.7119 84.685 76.5543 85.7834C75.2872 86.4285 73.7427 86.1998 67.1012 84.3745C63.5864 83.4087 60.5363 82.6172 60.3244 82.6172C60.1125 82.6172 59.8224 82.8323 59.6804 83.0949C59.2648 83.8591 56.7439 85.562 55.6114 85.8415C53.939 86.2627 53.205 86.3123 52.1974 86.0906V86.09ZM54.6071 83.9063C55.7879 83.5619 57.779 82.3301 57.779 81.9444C57.779 81.8352 56.7103 81.4631 55.4035 81.1153C52.9067 80.4534 52.3873 80.4979 51.6636 81.4225C50.9989 82.2721 51.5806 83.6539 52.7854 84.0872C53.3189 84.2851 53.3222 84.2815 54.6071 83.9063ZM66.9449 74.8613C69.6878 73.8519 72.8056 71.2684 74.3867 68.6994C75.6197 66.6966 76.3641 64.281 76.4056 62.162C76.4362 60.497 76.3882 60.2855 75.8792 59.8794C75.0966 59.2518 73.798 59.3132 72.3021 60.05C70.0478 61.1556 68.3891 63.9807 65.5323 71.5723L64.002 75.6357L64.8539 75.479C65.3177 75.3902 66.2627 75.1137 66.9449 74.8613ZM104.828 86.1174C103.304 85.8818 101.528 84.9335 100.257 83.6846C99.6613 83.0976 99.0451 82.6202 98.8829 82.6202C98.7208 82.6202 95.7144 83.4117 92.1996 84.3772C85.2463 86.288 83.8924 86.4688 82.5592 85.667C80.2255 84.2647 80.2255 80.4092 82.5559 79.1194C83.1617 78.7851 83.231 78.8023 83.9168 79.4503C84.8023 80.2897 84.8102 80.4092 83.9895 80.7982C83.0405 81.2449 82.6252 82.2107 83.0267 83.033C83.7125 84.4422 83.9428 84.425 91.0848 82.4803C94.6686 81.5043 97.6362 80.6685 97.6802 80.6276C97.7242 80.5867 97.4585 79.9958 97.0845 79.3206L96.4057 78.0889L94.5012 77.6897C88.5626 76.4411 84.1788 72.9575 81.9311 67.6963C81.1721 65.9092 80.5055 62.2474 80.696 60.8725C81.0976 57.9825 83.591 56.6996 86.9186 57.6753C90.3467 58.6786 92.4393 61.7901 95.9324 71.084C96.8151 73.4307 97.6671 75.5298 97.8255 75.7446C98.0851 76.096 98.2793 76.1057 99.6918 75.8436C104.423 74.9651 107.615 71.736 107.879 67.5736C108.014 65.4137 107.394 63.6874 105.894 62.0426C103.754 59.6986 100.6 58.8865 97.6353 59.917C96.2365 60.4017 95.9941 60.4254 94.9968 60.149C94.3907 59.982 93.937 59.7293 93.9822 59.586C94.0274 59.4428 94.8823 58.9139 95.8832 58.4091C98.2585 57.2114 100.582 57.0068 103.141 57.7743C108.969 59.5177 111.764 66.0654 109.014 71.5416C107.947 73.6672 106.23 75.4227 104.163 76.5094C102.577 77.3419 100.658 77.9355 99.5608 77.9424C98.7712 77.9457 98.7642 78.0071 99.4222 79.0887C99.7061 79.5562 99.9519 79.9588 99.9657 79.9825C99.9794 80.0063 101.06 79.7166 102.362 79.3309C105.302 78.4608 107.089 78.3826 108.214 79.0682C109.966 80.1363 110.572 82.5176 109.551 84.3089C108.654 85.8613 107.086 86.4655 104.828 86.1174ZM106.992 83.8994C108.246 83.2616 108.232 81.4926 106.968 80.8526C106.289 80.5081 106.102 80.5253 103.884 81.1324C102.582 81.4874 101.519 81.8491 101.519 81.9378C101.519 82.2754 103.361 83.4527 104.49 83.8381C105.958 84.3396 106.124 84.3432 106.993 83.8982L106.992 83.8994ZM95.0732 74.9467C94.9345 74.5917 94.2283 72.7222 93.5046 70.791C91.8838 66.4781 90.4157 63.4313 89.2246 61.9027C87.6005 59.818 84.6988 58.8038 83.497 59.9068C82.7641 60.5789 82.635 61.3509 82.9473 63.2027C83.5257 66.6487 84.9626 69.3273 87.5461 71.7633C89.2912 73.4078 90.8182 74.3393 92.9583 75.0593C95.0985 75.7792 95.3925 75.7621 95.0741 74.9467H95.0732ZM63.1036 55.5088C62.1172 55.2925 61.1927 54.8608 60.3982 54.2455C59.6038 53.6301 58.9596 52.8469 58.5134 51.9535C57.4294 49.7633 57.6062 47.3952 59.019 45.2594C59.9989 43.7786 61.5571 42.6323 63.1412 42.2294C63.8148 42.0555 65.1415 41.9975 65.8059 42.1067C68.4203 42.5435 70.4807 44.4065 71.1595 46.9484C71.6233 48.685 71.3153 50.705 70.3421 52.3085C69.4594 53.762 67.7901 55.0039 66.1662 55.4134C65.7055 55.5292 65.3384 55.5566 64.4209 55.5497C63.7836 55.5464 63.1916 55.5259 63.1052 55.5088H63.1036ZM67.0649 53.9744C67.2786 53.7969 67.6294 53.4217 67.8441 53.1452C70.0151 50.2997 69.4334 46.0314 66.6322 44.2675C65.6551 43.6531 64.2462 43.3426 63.0307 43.4792C62.2978 43.561 62.1339 43.6429 61.6145 44.1992C60.5946 45.2901 60.1033 46.6617 60.1033 48.4223C60.1033 50.3533 60.7094 51.8443 61.9525 52.9635C63.0087 53.9187 64.2829 54.3589 65.8551 54.3174L66.6759 54.2969L67.0649 53.9744ZM86.2176 55.3939C86.1586 55.3186 84.4307 49.2283 82.8759 43.626C82.8344 43.4723 82.6093 43.138 82.3773 42.882C82.1452 42.626 81.955 42.3636 81.955 42.3022C81.955 42.2066 82.2457 42.1894 83.915 42.1894C85.1718 42.1894 85.8921 42.2168 85.9269 42.2679C85.9544 42.3125 85.7986 42.5387 85.584 42.7695C85.3693 43.0002 85.1925 43.2575 85.1925 43.336C85.1925 43.4864 87.3812 51.5314 87.4918 51.7941C87.5577 51.9478 87.6615 51.6509 89.9296 45.059L90.9165 42.193H92.3571L92.5003 42.6663C92.58 42.9289 93.2136 45.1297 93.9049 47.5625C94.5962 49.9952 95.1794 51.9707 95.1965 51.9571C95.2521 51.9024 97.991 43.4476 97.991 43.3315C97.991 43.2668 97.8005 43.0246 97.5687 42.7993C97.337 42.5739 97.1461 42.3423 97.1461 42.2878C97.1461 42.2129 97.4994 42.1888 98.7669 42.1888C99.9544 42.1888 100.387 42.2129 100.387 42.2776C100.387 42.3254 100.148 42.6085 99.8576 42.9055L99.3278 43.4446L97.3858 49.2548C96.3193 52.4484 95.4188 55.1517 95.3843 55.2531C95.3287 55.4336 95.2927 55.4441 94.6536 55.4637L93.9819 55.4841L93.8814 55.235C93.8258 55.0984 93.1577 52.8739 92.3993 50.2946C91.6408 47.7153 91.0038 45.6066 90.9794 45.6066C90.955 45.6066 90.1901 47.8209 89.2725 50.5229L87.5999 55.4465L86.9455 55.467C86.4851 55.485 86.2747 55.461 86.2191 55.393L86.2176 55.3939ZM49.2676 55.2666C49.2676 55.1881 49.3925 55.031 49.5448 54.9152C49.6972 54.7994 49.8874 54.6014 49.9659 54.4681C50.1079 54.2395 50.1149 54.0111 50.1149 48.8249V43.4202L49.6935 42.888C49.4581 42.5947 49.2676 42.3182 49.2676 42.274C49.2676 42.2192 49.8743 42.1921 51.1964 42.1921C52.8899 42.1921 53.1253 42.2057 53.1253 42.3125C53.1253 42.3772 52.9522 42.6434 52.7409 42.8992L52.3531 43.3658V54.3454H53.3745C54.8981 54.3454 56.1345 54.1372 57.3082 53.6868C57.5958 53.5776 57.852 53.5096 57.8832 53.5364C57.9143 53.5631 57.8346 53.997 57.7134 54.4991L57.4917 55.4092H53.3781C49.4062 55.4092 49.2676 55.4032 49.2676 55.2666ZM72.5516 55.2633C72.5516 55.1848 72.6899 55.0073 72.863 54.8743C73.4346 54.4272 73.3998 54.806 73.3998 48.8077V43.4169L72.9775 42.8982C72.7455 42.6151 72.5549 42.3386 72.5549 42.2842C72.5549 42.209 73.3928 42.1921 76.6133 42.209L80.6744 42.2294L80.8093 42.8369C80.8857 43.1711 80.9479 43.4885 80.9513 43.5397C80.9583 43.6763 80.7159 43.6558 79.7983 43.4443C79.071 43.277 78.8212 43.2566 77.3119 43.2566H75.6368V48.1937H76.7034C77.6624 48.1937 77.8185 48.1732 78.2444 48.0026C78.504 47.8967 78.7534 47.8116 78.7983 47.8116C78.8432 47.8116 78.878 48.2277 78.878 48.9509C78.878 50.2579 78.8747 50.2648 78.2615 49.862C77.9153 49.6369 77.9119 49.6327 76.7751 49.6327H75.6404V54.3625L77.0081 54.318C78.5006 54.2701 79.6826 54.1211 80.554 53.8712C80.8621 53.7825 81.1342 53.7313 81.1598 53.7551C81.1855 53.7788 81.1079 54.1612 80.9867 54.6014L80.7653 55.4032H76.6618C72.6618 55.4098 72.5516 55.4032 72.5516 55.2633ZM101.227 55.2666C101.227 55.1881 101.352 55.031 101.504 54.9152C101.656 54.7994 101.847 54.6014 101.926 54.4681C102.068 54.2395 102.075 54.0111 102.075 48.8249V43.4202L101.653 42.888C101.421 42.5947 101.23 42.3182 101.23 42.2707C101.23 42.2126 102.418 42.1954 105.296 42.2105L109.361 42.2309L109.496 42.8008C109.676 43.5653 109.673 43.6369 109.466 43.6332C109.368 43.6332 108.929 43.5481 108.482 43.4458C107.755 43.2785 107.505 43.2581 105.996 43.2581H104.32V48.1952H105.4C106.38 48.1952 106.526 48.178 106.941 48.0041C107.672 47.7003 107.634 47.6491 107.634 48.9525C107.634 50.2696 107.63 50.2729 106.951 49.8635C106.577 49.6369 106.567 49.6327 105.447 49.6327H104.317V54.3682L105.722 54.324C107.248 54.2762 108.353 54.133 109.23 53.8805C109.538 53.7903 109.81 53.737 109.84 53.7644C109.871 53.7918 109.792 54.1706 109.674 54.6107L109.46 55.4089H105.348C101.365 55.4092 101.227 55.4032 101.227 55.2666Z" fill="#3A3E55"/>
</svg>
