<svg width="448" height="126" viewBox="0 0 448 126" fill="none" xmlns="http://www.w3.org/2000/svg">
<path d="M77.4384 22.8136V58.8768H67.6359V53.8905C64.3165 58.1742 60.4568 60.1195 55.2101 60.1195C45.1791 60.1195 38 52.2546 38 41.2699C38 29.8972 45.5635 21.5657 55.979 21.5657C60.8412 21.5657 64.1607 23.2802 67.6308 27.4067V22.8136H77.4384ZM48.4986 41.1179C48.4986 47.4255 52.5868 52.1759 57.9114 52.1759C63.3918 52.1759 67.7866 47.0323 67.7866 40.8033C67.7866 34.417 63.7763 29.8972 57.9841 29.8972C52.4362 29.9025 48.4986 34.4956 48.4986 41.1179Z" fill="#666666"/>
<path d="M96.8875 22.8137V27.2548C99.8173 23.2804 103.293 21.5711 108.617 21.5711C112.399 21.5711 115.563 22.5044 118.57 24.5283C123.973 28.2667 126.674 33.7197 126.674 40.9607C126.674 52.4854 119.573 60.1196 108.851 60.1196C103.682 60.1196 99.9004 58.4837 96.8875 54.9812V75H87.085V22.8137H96.8875ZM96.8875 41.2753C96.8875 47.8189 100.669 52.1813 106.378 52.1813C112.087 52.1813 116.176 47.5882 116.176 41.1966C116.176 34.5744 112.238 29.9026 106.685 29.9026C100.898 29.9026 96.8875 34.5744 96.8875 41.2753Z" fill="#666666"/>
<path d="M143.889 22.8137V27.2548C146.819 23.2804 150.295 21.5711 155.619 21.5711C159.401 21.5711 162.564 22.5044 165.572 24.5283C170.975 28.2667 173.676 33.7197 173.676 40.9607C173.676 52.4854 166.575 60.1196 155.853 60.1196C150.684 60.1196 146.902 58.4837 143.889 54.9812V75H134.087V22.8137H143.889ZM143.889 41.2753C143.889 47.8189 147.671 52.1813 153.38 52.1813C159.089 52.1813 163.183 47.5882 163.183 41.1966C163.183 34.5744 159.245 29.9026 153.692 29.9026C147.9 29.9026 143.889 34.5744 143.889 41.2753Z" fill="#666666"/>
<path d="M190.886 22.8136V28.1093C191.889 25.4614 192.585 24.3708 194.05 23.2802C195.593 22.1896 197.676 21.5657 199.837 21.5657C200.07 21.5657 200.455 21.5657 200.995 21.6443V31.7691C200.221 31.6904 199.452 31.6118 198.912 31.6118C196.211 31.6118 193.743 32.8597 192.351 34.8836C191.193 36.5195 190.886 38.0768 190.886 41.5059V58.8768H181.084V22.8136H190.886Z" fill="#666666"/>
<path d="M214.657 43.2205C215.504 48.2069 219.135 51.3214 223.997 51.3214C227.623 51.3214 230.709 49.5282 232.257 46.6496L241.285 49.1402C237.737 56.1504 231.483 60.1248 223.925 60.1248C212.579 60.1248 204.481 52.024 204.481 40.8086C204.481 29.5146 212.273 21.5711 223.312 21.5711C234.735 21.5711 242.683 29.6719 242.683 41.2753L242.605 43.2205H214.657ZM232.558 37.5368C231.712 32.7864 228.314 29.9026 223.452 29.9026C218.745 29.9026 215.582 32.6291 214.657 37.5368H232.558Z" fill="#666666"/>
<path d="M281.025 53.4817C277.228 57.5243 273.119 59.48 267.732 59.8942C256.885 60.7279 248.272 53.2667 247.446 42.3188C246.589 30.9776 253.831 22.3 264.911 21.4453C270.22 21.0364 274.745 22.5621 279.597 26.3321L273.508 32.8127C271.192 30.8046 268.807 29.9709 265.96 30.1911C260.574 30.6053 256.906 35.34 257.353 41.2439C257.815 47.3785 262.225 51.4945 267.924 51.0541C270.464 50.8601 272.251 49.9373 274.62 47.4939L281.025 53.4817Z" fill="#666666"/>
<path d="M297.96 12.6103C297.96 15.6462 295.643 17.9847 292.557 17.9847C289.394 17.9847 287.077 15.6461 287.077 12.5316C287.077 9.33849 289.394 7 292.557 7C295.721 7 297.96 9.33851 297.96 12.6103ZM297.42 58.8769H287.617V22.8137H297.42V58.8769Z" fill="#666666"/>
<path d="M342.536 22.8136V58.8768H332.734V53.8905C329.414 58.1742 325.554 60.1195 320.308 60.1195C310.277 60.1195 303.098 52.2546 303.098 41.2699C303.098 29.8972 310.661 21.5657 321.077 21.5657C325.939 21.5657 329.258 23.2802 332.728 27.4067V22.8136H342.536ZM313.596 41.1179C313.596 47.4255 317.684 52.1759 323.009 52.1759C328.489 52.1759 332.884 47.0323 332.884 40.8033C332.884 34.417 328.874 29.8972 323.082 29.8972C317.534 29.9025 313.596 34.4956 313.596 41.1179Z" fill="#666666"/>
<path d="M362.837 48.2855C362.837 50 363.455 50.4667 365.616 50.624H367.315V58.8821H359.523C354.738 58.7248 352.962 56.7796 353.04 52.0292V30.9932H348.951V22.6564H353.04V12.9983H362.842V22.6564H367.32V30.9932H362.842V48.2855H362.837Z" fill="#666666"/>
<path d="M381.974 43.2205C382.821 48.2069 386.452 51.3214 391.315 51.3214C394.94 51.3214 398.026 49.5282 399.574 46.6496L408.603 49.1402C405.055 56.1504 398.8 60.1248 391.242 60.1248C379.897 60.1248 371.798 52.024 371.798 40.8086C371.798 29.5146 379.59 21.5711 390.629 21.5711C402.052 21.5711 410 29.6719 410 41.2753L409.922 43.2205H381.974ZM399.875 37.5368C399.029 32.7864 395.631 29.9026 390.769 29.9026C386.063 29.9026 382.899 32.6291 381.974 37.5368H399.875Z" fill="#666666"/>
<path d="M111.81 108.82C111.84 108.49 111.84 108.1 111.84 107.92C111.84 103.87 108.84 100.84 104.82 100.84C100.77 100.84 97.8604 103.87 97.8604 108.13C97.8604 112.3 100.8 115.33 104.91 115.33C107.55 115.33 109.92 113.92 111.06 111.61L109.05 110.86C108.24 112.3 106.62 113.23 104.91 113.23C103.41 113.23 102.09 112.57 101.19 111.34C100.62 110.59 100.41 109.99 100.29 108.82H111.81ZM100.32 107.14C100.5 106.03 100.68 105.46 101.1 104.8C101.91 103.6 103.29 102.88 104.82 102.88C106.35 102.88 107.76 103.6 108.63 104.77C109.11 105.46 109.32 106.06 109.41 107.14H100.32ZM117.422 115V94.99H115.142V115H117.422ZM134.838 108.82C134.868 108.49 134.868 108.1 134.868 107.92C134.868 103.87 131.868 100.84 127.848 100.84C123.798 100.84 120.888 103.87 120.888 108.13C120.888 112.3 123.828 115.33 127.938 115.33C130.578 115.33 132.948 113.92 134.088 111.61L132.078 110.86C131.268 112.3 129.648 113.23 127.938 113.23C126.438 113.23 125.118 112.57 124.218 111.34C123.648 110.59 123.438 109.99 123.318 108.82H134.838ZM123.348 107.14C123.528 106.03 123.708 105.46 124.128 104.8C124.938 103.6 126.318 102.88 127.848 102.88C129.378 102.88 130.788 103.6 131.658 104.77C132.138 105.46 132.348 106.06 132.438 107.14H123.348ZM146.067 101.17L142.047 111.73L138.147 101.17H135.747L140.817 115H143.217L148.437 101.17H146.067ZM160.973 103.45C159.623 101.65 158.093 100.84 155.993 100.84C152.183 100.84 149.423 103.9 149.423 108.13C149.423 112.33 152.153 115.33 155.933 115.33C158.033 115.33 159.623 114.4 160.973 112.33V115H163.253V101.17H160.973V103.45ZM156.353 102.88C159.113 102.88 161.033 104.95 161.033 107.95C161.033 110.92 158.903 113.35 156.293 113.35C153.743 113.35 151.823 111.13 151.823 108.19C151.823 106.84 152.243 105.52 152.963 104.53C153.803 103.39 154.823 102.88 156.353 102.88ZM170.277 103.18H172.377V101.17H170.277V96.82H167.997V101.17H166.077V103.18H167.997V112.84C167.997 114.37 168.657 115 170.247 115H172.377V113.02H171.327C170.517 113.02 170.277 112.84 170.277 112.18V103.18ZM177.891 101.17H175.611V115H177.891V101.17ZM176.781 95.8C175.971 95.8 175.311 96.43 175.311 97.27C175.311 98.08 175.971 98.74 176.781 98.74C177.591 98.74 178.251 98.08 178.251 97.3C178.251 96.46 177.621 95.8 176.781 95.8ZM182.467 101.17V115H184.747V106.57C184.747 105.43 184.987 104.77 185.647 104.05C186.337 103.27 187.267 102.88 188.287 102.88C189.217 102.88 190.057 103.24 190.447 103.81C190.807 104.29 190.957 104.95 190.957 106.18V115H193.237V105.67C193.237 103.78 192.937 102.82 192.067 101.98C191.257 101.26 190.117 100.84 188.857 100.84C187.147 100.84 185.947 101.5 184.747 103.12V101.17H182.467ZM207.96 103.54C206.55 101.62 205.14 100.84 203.04 100.84C201.27 100.84 199.77 101.38 198.66 102.46C197.28 103.78 196.47 105.91 196.47 108.13C196.47 112.24 199.23 115.33 202.86 115.33C204.03 115.33 205.2 114.97 206.16 114.34C206.88 113.86 207.27 113.41 207.96 112.36V115.27C207.96 116.74 207.6 117.82 206.91 118.57C206.13 119.41 204.75 119.92 203.31 119.92C202.17 119.92 200.85 119.59 200.07 119.11C199.65 118.84 199.35 118.57 198.75 117.91L197.19 119.47C198.69 121.15 200.73 121.99 203.31 121.99C205.41 121.99 207.18 121.36 208.41 120.16C209.67 118.96 210.24 117.4 210.24 115.09V101.17H207.96V103.54ZM203.46 102.94C204.69 102.94 205.98 103.54 206.82 104.47C207.63 105.37 207.9 106.33 207.9 108.13C207.9 109.51 207.51 110.86 206.91 111.55C206.01 112.6 204.72 113.23 203.4 113.23C200.79 113.23 198.87 111.01 198.87 108.04C198.87 105.04 200.76 102.94 203.46 102.94ZM229.804 100.84C225.604 100.84 222.724 103.78 222.724 108.07C222.724 112.33 225.604 115.33 229.714 115.33C233.674 115.33 236.794 112.18 236.794 108.13C236.794 103.9 233.884 100.84 229.804 100.84ZM229.774 102.94C232.564 102.94 234.454 105.01 234.454 108.1C234.454 111.1 232.504 113.23 229.774 113.23C226.984 113.23 225.064 111.16 225.064 108.1C225.064 105.01 226.954 102.94 229.774 102.94ZM255.966 101.17L252.336 111.34L249.216 101.17H246.966L243.786 111.34L240.246 101.17H237.906L242.646 115H244.806L248.136 104.5L251.316 115H253.386L258.306 101.17H255.966ZM260.777 101.17V115H263.057V106.57C263.057 105.43 263.297 104.77 263.957 104.05C264.647 103.27 265.577 102.88 266.597 102.88C267.527 102.88 268.367 103.24 268.757 103.81C269.117 104.29 269.267 104.95 269.267 106.18V115H271.547V105.67C271.547 103.78 271.247 102.82 270.377 101.98C269.567 101.26 268.427 100.84 267.167 100.84C265.457 100.84 264.257 101.5 263.057 103.12V101.17H260.777ZM288.881 108.82C288.911 108.49 288.911 108.1 288.911 107.92C288.911 103.87 285.911 100.84 281.891 100.84C277.841 100.84 274.931 103.87 274.931 108.13C274.931 112.3 277.871 115.33 281.981 115.33C284.621 115.33 286.991 113.92 288.131 111.61L286.121 110.86C285.311 112.3 283.691 113.23 281.981 113.23C280.481 113.23 279.161 112.57 278.261 111.34C277.691 110.59 277.481 109.99 277.361 108.82H288.881ZM277.391 107.14C277.571 106.03 277.751 105.46 278.171 104.8C278.981 103.6 280.361 102.88 281.891 102.88C283.421 102.88 284.831 103.6 285.701 104.77C286.181 105.46 286.391 106.06 286.481 107.14H277.391ZM292.213 101.17V115H294.493V107.98C294.493 106.39 294.703 105.58 295.303 104.71C295.993 103.69 297.073 103.12 298.303 103.12C298.453 103.12 298.693 103.12 298.933 103.15V100.84H298.393C297.403 100.84 296.443 101.14 295.753 101.68C295.213 102.1 294.913 102.52 294.493 103.51V101.17H292.213ZM310.551 104.95C310.431 102.34 308.631 100.84 305.721 100.84C302.841 100.84 300.861 102.46 300.861 104.86C300.861 106.96 302.211 108.22 305.211 109.03C307.581 109.63 308.361 110.23 308.361 111.43C308.361 112.66 307.311 113.47 305.781 113.47C304.041 113.47 303.021 112.63 302.871 111.07H300.621C300.861 113.86 302.661 115.33 305.781 115.33C308.721 115.33 310.701 113.71 310.701 111.31C310.701 110.29 310.281 109.3 309.591 108.61C308.931 107.95 308.001 107.5 306.231 107.02C303.771 106.36 303.141 105.88 303.141 104.71C303.141 103.48 304.101 102.7 305.631 102.7C307.221 102.7 308.271 103.54 308.271 104.8V104.95H310.551ZM316.495 94.99H314.215V115H316.495V106.9C316.495 105.58 316.705 104.89 317.395 104.11C318.115 103.33 319.045 102.88 320.095 102.88C321.745 102.88 322.675 103.96 322.675 105.82V115H324.955V105.7C324.955 103.93 324.625 102.85 323.875 102.1C323.155 101.32 321.865 100.84 320.665 100.84C319.015 100.84 317.755 101.53 316.495 103.09V94.99ZM331.729 101.17H329.449V115H331.729V101.17ZM330.619 95.8C329.809 95.8 329.149 96.43 329.149 97.27C329.149 98.08 329.809 98.74 330.619 98.74C331.429 98.74 332.089 98.08 332.089 97.3C332.089 96.46 331.459 95.8 330.619 95.8ZM336.304 101.17V121.48H338.584V112.84C339.334 113.83 339.754 114.19 340.594 114.61C341.554 115.09 342.544 115.33 343.624 115.33C347.464 115.33 350.134 112.33 350.134 107.98C350.134 103.78 347.464 100.84 343.624 100.84C341.314 100.84 339.904 101.65 338.584 103.69V101.17H336.304ZM343.234 102.88C344.464 102.88 345.694 103.42 346.504 104.32C347.314 105.22 347.704 106.45 347.704 108.07C347.704 111.22 345.874 113.35 343.144 113.35C340.414 113.35 338.584 111.31 338.584 108.31C338.584 105.07 340.474 102.88 343.234 102.88Z" fill="#666666"/>
</svg>
