<svg width="160" height="160" viewBox="0 0 160 160" fill="none" xmlns="http://www.w3.org/2000/svg">
<rect width="160" height="160" fill="#F3F3F3"/>
<path d="M95.028 42.0513H111.23C111.23 43.2654 111.23 44.4794 111.23 45.6935C109.846 45.6943 108.475 45.9612 107.192 46.4794C105.891 47.0545 104.853 48.0922 104.279 49.39C97.7129 64.7902 91.1509 80.1868 84.5925 95.5797C84.4784 95.8344 84.386 96.1217 84.2556 96.3385C81.9022 96.3385 79.5542 96.3385 77.1899 96.3385C76.1518 94.2843 75.13 92.2193 74.0865 90.1705C72.8907 93.3756 71.6896 96.577 70.483 99.7748H93.7344C95.1627 99.8631 96.5941 99.6603 97.9412 99.1786C100.148 98.2952 101.903 96.5878 103.327 94.7396C105.007 92.4628 106.416 90.0002 107.529 87.4008C108.839 87.4008 110.148 87.4008 111.453 87.4008C108.974 92.68 106.483 97.9555 103.98 103.227H50.4329C50.8677 102.1 51.2807 100.956 51.7482 99.8344C51.7753 99.7206 51.9221 99.7477 52.009 99.7369C54.2428 99.7788 56.4751 99.5973 58.6725 99.1949C59.8418 99 60.9408 98.5071 61.8629 97.764C62.2687 97.2856 62.5322 96.7036 62.6238 96.0838C64.7326 90.4578 66.8433 84.8317 68.9557 79.2057C64.4953 69.7098 60.0313 60.2247 55.5636 50.7504C55.2379 49.9011 54.6921 49.153 53.982 48.5824C52.4384 47.4334 50.4329 47.2871 48.5469 47.2112V43.1353H67.3524V47.2112C66.522 47.1811 65.695 47.3309 64.9283 47.6502C64.7464 47.7406 64.5997 47.8886 64.5112 48.071C64.4227 48.2534 64.3974 48.46 64.4391 48.6583C64.5533 49.3033 65.0696 49.7694 65.3305 50.3548C67.9792 56.0422 70.6297 61.7279 73.2821 67.4117C74.6082 63.6971 75.9398 59.988 77.2769 56.2843C77.4985 55.7676 77.5141 55.1861 77.3204 54.6583C77.1136 54.2707 76.7683 53.9747 76.3529 53.829C75.5738 53.5766 74.7588 53.4521 73.9397 53.4605C74.3528 52.3114 74.7659 51.1678 75.1952 50.0242C75.2931 49.9646 75.4344 50.0242 75.5485 50.0242H94.6312C94.1909 51.1786 93.7561 52.3277 93.3213 53.4822C91.7886 53.5526 90.207 53.5906 88.7721 54.1868C88.0946 54.4435 87.511 54.8989 87.0981 55.493C86.8493 55.948 86.6436 56.4252 86.484 56.9185C83.8262 64.1488 81.1412 71.3683 78.5161 78.5987C79.9673 81.8832 81.4837 85.1353 82.9729 88.4036C88.3645 75.7062 93.7579 63.0088 99.1532 50.3114C99.5174 49.5472 100.11 48.848 100.153 47.97C100.147 47.6318 100.04 47.3031 99.8468 47.0254C99.6533 46.7476 99.3817 46.5331 99.0662 46.409C97.7944 45.8236 96.3487 45.7911 94.979 45.7423C95.0044 44.4957 95.0207 43.2654 95.028 42.0513Z" fill="#3A3E55"/>
<path d="M104.833 110.42C106.534 112.182 108.219 113.949 109.909 115.721C109.909 114.095 109.909 112.426 109.909 110.778H110.784V117.824C109.078 116.073 107.398 114.301 105.702 112.545C105.702 114.203 105.702 115.862 105.702 117.52H104.827C104.827 115.157 104.829 112.791 104.833 110.42Z" fill="#3A3E55"/>
<path d="M55.2757 110.663C56.219 110.545 57.1712 110.802 57.9253 111.379C58.6794 111.957 59.1745 112.808 59.3031 113.747C59.3718 114.295 59.309 114.85 59.12 115.369C58.931 115.887 58.6212 116.353 58.2161 116.728C57.535 117.348 56.6428 117.686 55.7209 117.673C54.7991 117.66 53.9169 117.297 53.2538 116.658C52.9083 116.323 52.637 115.919 52.4572 115.473C52.2775 115.026 52.1934 114.548 52.2103 114.067C52.2486 113.237 52.5727 112.445 53.1281 111.825C53.6835 111.205 54.4362 110.795 55.2594 110.663H55.2757ZM55.2594 111.525C54.7178 111.629 54.2219 111.898 53.8403 112.295C53.4586 112.692 53.21 113.198 53.1288 113.742C53.0323 114.36 53.1533 114.993 53.4713 115.532C53.7893 116.072 54.2848 116.485 54.8735 116.701C55.3984 116.887 55.9685 116.903 56.5031 116.747C57.0377 116.592 57.5096 116.272 57.8519 115.834C58.272 115.282 58.4698 114.593 58.4065 113.903C58.3431 113.213 58.0231 112.572 57.5095 112.105C57.2042 111.848 56.8451 111.663 56.4586 111.562C56.072 111.462 55.6678 111.449 55.2757 111.525H55.2594Z" fill="#3A3E55"/>
<path d="M68.8198 111.027C69.062 110.855 69.3375 110.735 69.6287 110.676C69.9199 110.616 70.2205 110.617 70.5111 110.68C70.8016 110.743 71.0759 110.865 71.3163 111.04C71.5566 111.214 71.7578 111.437 71.9069 111.694L71.2112 112.084C71.1049 111.926 70.9662 111.793 70.8041 111.694C70.6421 111.594 70.4606 111.53 70.2718 111.506C70.0829 111.482 69.8911 111.498 69.7091 111.554C69.5271 111.61 69.3592 111.703 69.2165 111.829C68.9828 111.997 69.0046 112.317 69.0318 112.577C69.0589 112.837 69.4611 113.059 69.7274 113.217C70.4177 113.58 71.2438 113.786 71.7276 114.442C71.9814 114.816 72.1055 115.263 72.081 115.714C72.0564 116.165 71.8846 116.596 71.5917 116.94C71.2718 117.295 70.847 117.538 70.3789 117.636C69.9107 117.733 69.4237 117.68 68.9883 117.482C68.6704 117.306 68.397 117.059 68.1889 116.761C67.9808 116.464 67.8434 116.123 67.7871 115.764L68.6785 115.564C68.6851 115.891 68.8122 116.205 69.0358 116.444C69.2593 116.684 69.5635 116.834 69.8905 116.864C70.1084 116.866 70.323 116.811 70.5125 116.704C70.7021 116.596 70.8599 116.441 70.9702 116.254C71.0804 116.066 71.1391 115.853 71.1404 115.636C71.1417 115.419 71.0855 115.205 70.9775 115.016C70.434 114.241 69.3035 114.23 68.6459 113.558C68.4662 113.393 68.326 113.19 68.2357 112.964C68.1453 112.738 68.1071 112.494 68.1238 112.251C68.1404 112.008 68.2117 111.772 68.3321 111.56C68.4526 111.348 68.6193 111.166 68.8198 111.027Z" fill="#3A3E55"/>
<path d="M100.175 110.658C100.791 110.593 101.414 110.686 101.985 110.928C102.556 111.17 103.055 111.553 103.436 112.041C103.859 112.588 104.109 113.248 104.156 113.937C104.204 114.627 104.045 115.315 103.701 115.914C103.357 116.514 102.843 116.999 102.223 117.308C101.603 117.617 100.906 117.736 100.218 117.65C99.7171 117.609 99.2309 117.458 98.7943 117.209C98.3576 116.96 97.981 116.618 97.6911 116.209C97.3393 115.707 97.1239 115.123 97.0659 114.513C97.0078 113.904 97.109 113.289 97.3597 112.731C97.6104 112.172 98.0019 111.687 98.4963 111.324C98.9906 110.961 99.5708 110.731 100.18 110.658H100.175ZM100.034 111.536C99.3661 111.677 98.7778 112.067 98.3897 112.626C98.0015 113.186 97.8429 113.872 97.9465 114.545C98.0412 115.184 98.3623 115.769 98.8517 116.194C99.3411 116.618 99.9666 116.854 100.615 116.859C101.055 116.854 101.486 116.74 101.871 116.528C102.256 116.316 102.583 116.013 102.822 115.645C103.167 115.111 103.316 114.475 103.243 113.844C103.17 113.213 102.879 112.627 102.42 112.187C102.105 111.892 101.722 111.678 101.305 111.565C100.888 111.451 100.45 111.441 100.028 111.536H100.034Z" fill="#3A3E55"/>
<path d="M49.2698 110.772H50.1285C50.1285 112.766 50.1285 114.761 50.1285 116.734H52.2102V117.503H49.2861L49.2698 110.772Z" fill="#3A3E55"/>
<path d="M59.9824 110.778H60.8683C60.8683 112.106 60.8683 113.434 60.8683 114.767C60.8269 115.367 61.0045 115.962 61.3683 116.442C61.5378 116.598 61.7392 116.716 61.9587 116.788C62.1783 116.859 62.4107 116.882 62.6401 116.856C62.8694 116.829 63.0902 116.753 63.2873 116.633C63.4844 116.513 63.653 116.351 63.7815 116.16C63.9972 115.76 64.0987 115.308 64.075 114.854C64.075 113.493 64.075 112.144 64.075 110.778H64.9664V114.935C65.0034 115.575 64.8235 116.209 64.4555 116.735C64.2276 117.017 63.9413 117.248 63.6161 117.411C63.2909 117.573 62.9343 117.664 62.5707 117.677C62.2071 117.69 61.845 117.624 61.509 117.485C61.1731 117.346 60.8711 117.136 60.6237 116.87C60.1935 116.381 59.9645 115.748 59.9824 115.098C59.977 113.656 59.9824 112.214 59.9824 110.778Z" fill="#3A3E55"/>
<path d="M66.0589 110.772H66.934V117.525H66.0589V110.772Z" fill="#3A3E55"/>
<path d="M74.831 110.778C75.1517 110.778 75.4723 110.778 75.793 110.778C76.467 112.422 77.1337 114.066 77.7931 115.71C78.4508 114.084 79.1302 112.458 79.7715 110.789C80.1031 110.789 80.4346 110.789 80.7661 110.789C79.7806 113.181 78.7914 115.567 77.7986 117.949C76.7876 115.558 75.8148 113.163 74.831 110.778Z" fill="#3A3E55"/>
<path d="M81.1629 110.772H82.038C82.038 112.078 82.038 113.39 82.038 114.696C81.9832 115.339 82.1777 115.979 82.5815 116.484C82.8637 116.711 83.2114 116.841 83.5735 116.856C83.9356 116.871 84.2928 116.769 84.5925 116.566C84.9207 116.307 85.1367 115.933 85.1958 115.52C85.2773 114.827 85.3045 114.129 85.2773 113.433C85.2773 112.544 85.2773 111.66 85.2773 110.772H86.1197C86.1197 112.002 86.1197 113.232 86.1197 114.463C86.2121 115.239 86.0459 116.023 85.6469 116.696C85.3344 117.123 84.893 117.44 84.3872 117.6C83.8814 117.76 83.3376 117.754 82.8352 117.584C82.3327 117.414 81.8979 117.089 81.5941 116.655C81.2904 116.221 81.1336 115.702 81.1466 115.173C81.1629 113.709 81.1684 112.24 81.1629 110.772Z" fill="#3A3E55"/>
<path d="M87.2341 110.778H88.1744V117.531H87.2558C87.2287 115.277 87.2395 113.054 87.2341 110.778Z" fill="#3A3E55"/>
<path d="M88.7179 110.778H96.8705V111.586H95.2998V117.548H94.3867C94.3867 115.569 94.3867 113.586 94.3867 111.586H91.1745C91.1745 113.564 91.1745 115.548 91.1745 117.548H90.3484V111.586H88.7179V110.778Z" fill="#3A3E55"/>
</svg>
