<svg width="160" height="160" viewBox="0 0 160 160" fill="none" xmlns="http://www.w3.org/2000/svg">
<rect width="160" height="160" fill="#F3F3F3"/>
<path d="M23.3161 81.6752L20.6358 75.5008H18.4614V84.4991H20.1024V78.3042L22.7828 84.4991H23.8905L26.5503 78.3042V84.4991H28.1913V75.5008H25.9965L23.3161 81.6752Z" fill="#3A3E55"/>
<path d="M34.0648 75.5008L30.27 84.4991H32.1366L33.0392 82.3453H36.2939L37.217 84.4991H39.07L35.2751 75.5008H34.0648ZM33.5794 80.7521L34.6665 78.017L35.7469 80.7521H33.5794Z" fill="#3A3E55"/>
<path d="M47.2819 81.7436L43.4255 75.5008H41.1554V84.4991H42.8238V77.6752L47.0289 84.4991H48.9503V75.5008H47.2819V81.7436Z" fill="#3A3E55"/>
<path d="M55.1452 79.1597C53.6614 78.5307 53.2922 78.2572 53.2922 77.7033C53.2922 77.1495 53.6614 76.8212 54.3794 76.8212C54.7236 76.8347 55.0592 76.932 55.3571 77.1048C55.6551 77.2776 55.9063 77.5207 56.0888 77.8127L57.1759 76.8007C56.8936 76.3321 56.4912 75.9475 56.0103 75.6867C55.5295 75.4258 54.9876 75.2982 54.4409 75.317C52.6358 75.317 51.5965 76.4041 51.6238 77.84C51.6512 79.2759 52.8204 80.0554 54.1196 80.5751C55.617 81.2041 55.7332 81.6896 55.7332 82.1272C55.7332 82.5648 55.2751 83.0982 54.4409 83.0982C54.0305 83.065 53.6328 82.9395 53.2776 82.7311C52.9224 82.5227 52.6189 82.2369 52.3896 81.8948L51.2819 82.9819C51.6214 83.5166 52.0929 83.9549 52.651 84.2543C53.2092 84.5537 53.8351 84.7042 54.4683 84.6913C54.8438 84.7186 55.2208 84.6681 55.5759 84.5429C55.931 84.4178 56.2564 84.2207 56.5318 83.9639C56.8071 83.7072 57.0265 83.3963 57.1762 83.0509C57.3259 82.7054 57.4026 82.3328 57.4016 81.9563C57.381 80.7734 56.8546 79.8982 55.1452 79.1597Z" fill="#3A3E55"/>
<path d="M65.1487 80.6842C65.1487 82.5098 64.4649 83.0637 63.323 83.0637C62.1812 83.0637 61.4974 82.5098 61.4495 80.6842V75.4808H59.7401V81.0055C59.7401 83.4603 61.176 84.6637 63.3025 84.6637C65.429 84.6637 66.8581 83.4329 66.8581 81.0055V75.4808H65.1487V80.6842Z" fill="#3A3E55"/>
<path d="M76.1777 78.188C76.1777 76.4512 75.0426 75.5008 72.9367 75.5008H69.9349V84.4991H71.6443V81.005H73.2169L74.7213 84.4991H76.5811L74.8239 80.4307C75.2512 80.2394 75.6098 79.922 75.8517 79.5212C76.0937 79.1204 76.2074 78.6552 76.1777 78.188ZM71.6238 79.364V77.0051H72.7999C73.8187 77.0051 74.352 77.3743 74.352 78.188C74.352 79.0016 74.0238 79.364 72.7793 79.364H71.6238Z" fill="#3A3E55"/>
<path d="M88.6083 81.1218H90.2494V82.2773C89.9932 82.5295 89.6899 82.7289 89.3567 82.8638C89.0235 82.9987 88.667 83.0666 88.3075 83.0636C86.7143 83.0636 85.5725 81.8123 85.5725 79.9662C85.5725 78.12 86.7075 76.8892 88.3075 76.8892C88.693 76.8784 89.0762 76.9517 89.4305 77.104C89.7847 77.2563 90.1015 77.4841 90.3588 77.7713L91.4939 76.7047C91.0976 76.2446 90.6031 75.8793 90.047 75.6355C89.4908 75.3917 88.887 75.2757 88.2801 75.2961C87.0662 75.3425 85.9175 75.8573 85.075 76.7325C84.2325 77.6077 83.7619 78.7753 83.7619 79.9901C83.7619 81.2049 84.2325 82.3725 85.075 83.2478C85.9175 84.123 87.0662 84.6378 88.2801 84.6841C88.9755 84.7127 89.6667 84.5639 90.2887 84.2517C90.9107 83.9395 91.4431 83.4742 91.8357 82.8995V79.597H88.6015L88.6083 81.1218Z" fill="#3A3E55"/>
<path d="M106.386 81.4906L104.027 75.5008H102.174L105.784 84.4991H106.988L110.591 75.5008H108.738L106.386 81.4906Z" fill="#3A3E55"/>
<path d="M118.865 78.188C118.865 76.4512 117.73 75.5008 115.631 75.5008H112.602V84.4991H114.311V81.005H115.884L117.388 84.4991H119.214L117.456 80.4307C117.895 80.2496 118.266 79.9363 118.519 79.5344C118.771 79.1324 118.892 78.6618 118.865 78.188ZM115.446 79.364H114.311V77.0051H115.487C116.506 77.0051 117.039 77.3743 117.039 78.188C117.039 79.0016 116.691 79.364 115.446 79.364Z" fill="#3A3E55"/>
<path d="M123.371 75.5008H121.661V84.4923H123.371V75.5008Z" fill="#3A3E55"/>
<path d="M128.13 80.7726H131.207V79.1795H128.13V77.1008H132.383V75.5008H126.42V84.4991H132.711V82.8991H128.13V80.7726Z" fill="#3A3E55"/>
<path d="M136.848 82.8991V75.5008H135.111V84.4991H141.538V82.8991H136.848Z" fill="#3A3E55"/>
<path d="M97.2649 75.7198L93.6 84.2122H95.3846L96.2598 82.1609H99.4119L100.301 84.2122H102.092L98.4273 75.7198H97.2649ZM96.7932 80.6771L97.8461 78.1198L98.8923 80.6771H96.7932Z" fill="#3A3E55"/>
</svg>
