<?xml version="1.0" encoding="utf-8"?>
<!-- Generator: Adobe Illustrator 15.1.0, SVG Export Plug-In . SVG Version: 6.00 Build 0)  -->
<!DOCTYPE svg PUBLIC "-//W3C//DTD SVG 1.1//EN" "http://www.w3.org/Graphics/SVG/1.1/DTD/svg11.dtd">
<svg version="1.1" id="Layer_1" xmlns="http://www.w3.org/2000/svg" xmlns:xlink="http://www.w3.org/1999/xlink" x="0px" y="0px"
	 width="439.876px" height="64.047px" viewBox="0 0 439.876 64.047" enable-background="new 0 0 439.876 64.047"
	 xml:space="preserve">
<g>
	<path fill="#6219FF" d="M100.299,32.184c-0.303,3.986,5.274,2.316,6.767,1.404c1.777-1.084,2.738-1.75,3.87-3.659
		c1.842-3.108-0.063-4.959-1.606-5.15c-0.863-0.107-2.772,0.234-4.135,2.72c-0.668,1.217-0.847,2.825-0.732,4.204
		c-2.264,1.311-2.286-1.074-2.248-2.009c0.022-0.509,0.051-1.29,0.14-1.93c0.245-1.751-0.282-1.313-1.48-0.285
		c-0.73,0.627-5.685,4.833-13.841,9.027c-8.123,4.175-19.698,8.411-37.82,12.64c-21.778,5.084-43.002,3.999-46.323-1.562
		c-3.323-5.562,13.605-15.308,14.746-15.971c1.139-0.663-0.216-1.092-0.974-0.716c0,0-20.173,10.958-16.127,18.755
		c4.048,7.798,24.692,7.632,46.558,3.062c36.241-7.579,51.107-20.976,52.784-21.987C100.746,30.202,100.377,31.155,100.299,32.184"
		/>
	<path fill="#6219FF" d="M81.5,17.877c-4.97,0.5-7.781,1.459-9.076,1.864c-1.468,0.458-2.342,1.066-2.409,1.624
		c-0.055,0.445,0.209,0.606,1.462,0.479c1.639-0.166,9.556-1.639,14.247-1.639c5.637,0,8.956,0.723,10.079,2.172
		c1.301,1.681-3.624,8.024-21.887,14.249c-19.473,6.637-34.519,9.214-54.591,10.755c-1.306,0.1-1.989,0.705,0.449,1.153
		c3.629,0.669,22.163,1.02,46.528-6.69c24.342-7.701,33.803-16.339,31.196-20.909C96.347,18.92,91.207,16.901,81.5,17.877"/>
	<path fill="#6219FF" d="M42.729,9.774c4-2.71,13.358-5.355,22.587-0.839c13.336,6.529,18.263,21.942,11.163,34.332
		c-6.622,11.562-17.413,12.698-21.295,12.971c-3.553,0.251-10.377-0.072-13.885-0.718c-1.55-0.287-1.643,0.73-0.645,1.032
		c4.402,1.329,16.739,4.667,28.467-1.909c12.848-7.205,15.536-18.986,12.504-31.054C78.286,10.305,66.082,3.08,53.185,3.623
		C45.91,3.932,42.071,7.83,41.502,9.322C41.168,10.201,41.744,10.441,42.729,9.774"/>
	<path fill="#6219FF" d="M36.63,14.221c1.161-1.262,1.653-1.7,2.217-2.256c0.365-0.362-0.861-1.177-2.978,0.065
		c-2.116,1.242-7.779,7.666-9.12,15.133c-1.786,9.94,3.441,18.649,6.824,21.438c3.156,2.6,3.27,1.018,2.741,0.494
		c-0.528-0.523-4.894-5.229-6.331-12.148c-1.058-5.101-0.917-8.467,0.729-13.276C32.167,19.42,35.953,14.957,36.63,14.221"/>
	<path fill="#6219FF" d="M70.639,24.188c-9.89-5.484-22.381-8.708-29.411-9.915c-1.888-0.324-2.856,1.261-1.186,1.567
		c10.559,1.937,17.957,3.728,30.441,9.387c0.18,0.082,0.581,0.094,0.717-0.135C71.368,24.806,71.181,24.49,70.639,24.188"/>
	<path fill="#6219FF" d="M76.815,31.517c-14.323-7.465-32.882-10.551-40.768-11.389c-1.728-0.184-2.549,1.675-1.018,1.849
		c18.906,2.162,31.696,5.968,41.368,10.448c0.205,0.096,0.59,0.222,0.803-0.062C77.362,32.147,77.316,31.779,76.815,31.517"/>
	<path fill="#6219FF" d="M33.883,29.114c15.262,0.505,30.689,3.889,36.524,5.546c0.36,0.104,0.618-0.037,0.683-0.316
		c0.054-0.245-0.111-0.536-0.587-0.68c-20.051-6.063-33.54-6.393-36.415-6.393C32.484,27.271,31.716,29.043,33.883,29.114"/>
	<path fill="#6219FF" d="M55.139,5.662l0.656-0.258c-0.004,0-0.007,0-0.011-0.002V5.064l0.007-0.229
		c-0.056-0.002-0.114-0.002-0.171-0.002c-3.199,0-6.545,2.52-9.274,6.99c-3.136,5.136-4.989,12.227-5.217,19.965
		C40.62,48.98,45.879,63.861,52.1,64.047h0.08c1.647,0,3.459-0.987,3.83-3.338c0.029-0.194,0.104-0.946-0.325-0.991
		c-0.385-0.04-0.545,0.385-0.756,0.857c-0.516,1.153-1.604,1.396-2.738,1.335c-2.031-0.097-4.445-2.974-6.133-9.156
		c-1.822-6.675-3.029-14.253-2.666-21.885C44.175,14.428,50.751,5.464,55.139,5.662"/>
	<path fill="#6219FF" d="M68.215,57.98c-0.002-0.007-0.085-0.693-0.465-0.685h-0.009c-0.322,0.015-0.331,0.458-0.38,0.739
		c-0.178,1.001-0.578,1.701-1.299,1.871c-0.238,0.057-0.713-0.081-1.028-0.292C62.007,57.568,57.254,45.985,55.576,32
		C53.703,16.399,57.68,6.409,60.446,5.646l0.458-0.356v0.002l-0.062-0.224c-0.155,0.042-0.314,0.118-0.478,0.207l-0.278-0.007
		l-0.065-0.222c-4.547,1.372-8.057,13.823-6.037,30.171c1.728,13.963,6.217,23.722,9.934,26.162c0.616,0.405,1.206,0.594,1.76,0.566
		c0.171-0.007,0.339-0.036,0.503-0.087C67.426,61.487,68.447,60.008,68.215,57.98"/>
	<path fill="#6219FF" d="M66.488,35.338c-0.098-0.344-0.167-0.597-0.512-2.012c-1.434-5.891-2.952-15.144-1.637-21.931
		c0.031-0.165,0.054-0.281,0.067-0.352c0.078-0.411-0.029-0.647-0.263-0.681c-0.285-0.037-0.558,0.201-0.622,0.566
		c-0.007,0.042-0.04,0.122-0.065,0.245c-1.475,7.262-0.789,17.671,1.306,24.758C65.309,37.779,66.902,36.789,66.488,35.338"/>
	<path fill="#6219FF" d="M38.71,7.781c-0.062-1.15-1.044-2.033-2.194-1.971s-2.033,1.045-1.971,2.194
		c0.062,1.15,1.044,2.033,2.194,1.972C37.889,9.914,38.772,8.931,38.71,7.781"/>
	<path fill="#6219FF" d="M102.739,40.812c0-1.151-0.934-2.085-2.086-2.085c-1.151,0-2.087,0.934-2.087,2.085
		c0,1.152,0.936,2.086,2.087,2.086C101.805,42.897,102.739,41.964,102.739,40.812"/>
	<path fill="#6219FF" d="M43.17,2.605c-0.082-1.519-1.379-2.683-2.898-2.602c-1.519,0.082-2.683,1.379-2.601,2.898
		c0.082,1.519,1.379,2.683,2.897,2.601C42.087,5.421,43.252,4.124,43.17,2.605"/>
	<path fill="#6219FF" d="M110.063,50.611c-0.324-1.565-1.813-3.747-4.195-5.744c-1.223-1.024-2.447-0.387-1.288,0.58
		c1.203,1.002,8.994,9.254-2.124,9.784c-3.566,0.171-10.744-0.443-24.62-4.182c-0.821-0.22-1.695-0.466-2.607-0.734
		c-1.066-0.311-2.191-0.648-3.366-1.022c-1.686-0.527-3.468-1.119-5.332-1.759c-1.739-0.606-3.55-1.255-5.407-1.953
		c-1.057-0.396-2.133-0.809-3.221-1.233c-0.158-0.065-0.316-0.127-0.479-0.188c-0.946-0.378-1.904-0.76-2.865-1.159
		c-0.39-0.158-0.781-0.32-1.171-0.487c-3.181-1.324-6.471-2.968-9.661-4.505c-0.967-0.456-1.922-0.927-2.876-1.404
		c-4.049-2.037-7.992-4.222-11.62-6.52c-1.006-0.632-1.983-1.277-2.936-1.931c-1.918-1.317-4.707-3.279-6.371-4.658
		c-12.586-10.432-0.2-10.47,12.962-8.842c0.872,0.105,1.755,0.226,2.636,0.347l1.204-1.993c-0.69-0.105-1.36-0.205-2.02-0.298
		c-10.062-1.382-16.935-0.861-19.782,0.943c-1.918,1.212-4.447,4.652,3.584,11.547c2.142,1.838,4.69,3.782,7.579,5.766
		c1.026,0.716,2.099,1.426,3.208,2.142c3.549,2.294,7.499,4.616,11.727,6.859c0.961,0.513,1.935,1.021,2.926,1.522
		c1.333,0.68,2.698,1.352,4.081,2.009c1.404,0.673,2.83,1.327,4.274,1.972c0.998,0.443,2.002,0.877,3.016,1.308
		c0.105,0.044,0.206,0.088,0.311,0.131c0.883,0.375,1.773,0.738,2.668,1.094c0.883,0.36,1.773,0.707,2.668,1.045h0.004
		c2.501,0.961,5.034,1.854,7.575,2.676c1.11,0.359,2.224,0.707,3.336,1.041c1.163,0.342,2.325,0.67,3.488,0.982
		c15.702,4.204,24.511,4.66,29.561,3.55c0.018,0,0.031-0.003,0.043-0.009C105.28,57.233,111.169,55.979,110.063,50.611"/>
	<path fill="#6219FF" d="M169.449,46.104h-3.201c-0.184,0-0.333-0.148-0.333-0.331v-9.364c0-2.574,0.125-4.78,0.18-6.76
		c0.007-0.246,0.118-0.791-0.033-0.823c-0.16-0.036-0.299,0.345-0.336,0.403c-0.543,0.845-1.531,2.422-2.118,3.288l-8.173,11.454
		c-0.132,0.186-0.407,0.186-0.54,0.002l-8.222-11.461c-0.585-0.863-1.548-2.512-2.105-3.35c-0.176-0.265-0.151-0.34-0.302-0.303
		c-0.147,0.037-0.045,0.489-0.038,0.732c0.055,1.98,0.16,4.059,0.16,6.637v9.546c0,0.183-0.149,0.331-0.331,0.331h-3.221
		c-0.184,0-0.333-0.148-0.333-0.331V18.305c0-0.323,0.415-0.458,0.602-0.194c2.498,3.531,12.015,16.987,13.767,19.547
		c0.133,0.192,0.409,0.192,0.542,0c1.753-2.561,11.267-16.014,13.767-19.546c0.185-0.265,0.6-0.131,0.6,0.192v27.468
		C169.779,45.955,169.632,46.104,169.449,46.104"/>
	<path fill="#6219FF" d="M198.341,46.681c-7.361,0-11.416-4.3-11.416-12.109V18.902c0-0.271,0.22-0.489,0.491-0.489h2.89
		c0.271,0,0.49,0.218,0.49,0.489v15.708c0,5.647,2.469,8.395,7.545,8.395c5.103,0,7.584-2.747,7.584-8.395V18.902
		c0-0.271,0.218-0.489,0.489-0.489h2.892c0.271,0,0.489,0.218,0.489,0.489v15.669C209.795,42.269,205.623,46.681,198.341,46.681"/>
	<path fill="#6219FF" d="M243.625,31.317c-0.391-0.201-0.467-0.743-0.109-0.995c1.49-1.07,2.671-2.878,2.671-4.921
		c0-4.115-3.345-6.987-8.139-6.987h-8.888c-0.321,0-0.587,0.264-0.587,0.587v26.511c0,0.329,0.266,0.592,0.587,0.592h9.504
		c5.622,0,9.261-3.257,9.261-8.293C247.925,34.726,245.823,32.435,243.625,31.317 M232.441,22.454c0-0.329,0.266-0.592,0.592-0.592
		h4.398c2.971,0,4.887,1.513,4.887,3.844c0,2.238-2.102,3.926-4.887,3.926h-4.398c-0.326,0-0.592-0.266-0.592-0.594V22.454z
		 M238.473,42.655h-5.439c-0.326,0-0.592-0.264-0.592-0.587v-8.633c0-0.329,0.266-0.587,0.592-0.587h5.245
		c3.178,0,5.657,2.158,5.657,4.921C243.936,40.693,241.743,42.655,238.473,42.655"/>
	<path fill="#6219FF" d="M315.882,18.413h-10.263c-0.241,0-0.443,0.202-0.443,0.449v26.792c0,0.248,0.202,0.448,0.443,0.448h10.499
		c8.022,0,14.071-5.888,14.071-13.692C330.189,24.434,324.044,18.413,315.882,18.413 M316.118,42.426h-6.626
		c-0.247,0-0.448-0.201-0.448-0.449V22.541c0-0.249,0.201-0.449,0.448-0.449h6.39c6.002,0,10.36,4.345,10.36,10.319
		C326.242,38.983,321.148,42.426,316.118,42.426"/>
	<path fill="#6219FF" d="M400.332,46.104h-17.701c-0.211,0-0.382-0.171-0.382-0.382V18.795c0-0.211,0.171-0.382,0.382-0.382h3.106
		c0.211,0,0.382,0.171,0.382,0.382v23.25c0,0.211,0.17,0.382,0.381,0.382h15.236c0.28,0,0.466,0.292,0.344,0.547l-1.404,2.914
		C400.612,46.02,400.479,46.104,400.332,46.104"/>
	<path fill="#6219FF" d="M289.961,46.062h-3.36c-0.118,0-0.224-0.065-0.276-0.171l-2.111-4.276
		c-0.053-0.105-0.159-0.173-0.275-0.173h-12.081c-0.229,0-0.378-0.242-0.274-0.445l1.475-2.894c0.053-0.104,0.158-0.168,0.273-0.168
		l8.593-0.016c0.227,0,0.376-0.24,0.275-0.443l-6.188-12.553c0,0-0.029-0.077-0.043-0.113c-0.017,0.042-0.051,0.127-0.051,0.127
		L265.56,45.934c-0.051,0.103-0.158,0.17-0.274,0.17h-3.261c-0.229,0-0.376-0.239-0.274-0.445l13.952-27.927
		c0.112-0.227,0.435-0.227,0.549-0.001l13.984,27.888C290.337,45.822,290.19,46.062,289.961,46.062"/>
	<path fill="#6219FF" d="M369.223,46.062h-3.36c-0.118,0-0.224-0.065-0.276-0.171l-2.111-4.276c-0.053-0.105-0.16-0.173-0.276-0.173
		h-12.08c-0.229,0-0.378-0.242-0.274-0.445l1.475-2.894c0.053-0.104,0.158-0.168,0.272-0.168l8.593-0.016
		c0.228,0,0.376-0.24,0.276-0.443l-6.188-12.553c0,0-0.029-0.077-0.044-0.113c-0.016,0.042-0.051,0.127-0.051,0.127l-10.356,20.996
		c-0.051,0.103-0.158,0.17-0.274,0.17h-3.261c-0.229,0-0.376-0.239-0.274-0.445l13.95-27.927c0.114-0.227,0.436-0.227,0.551-0.001
		l13.984,27.888C369.599,45.822,369.451,46.062,369.223,46.062"/>
	<path fill="#6219FF" d="M439.569,46.062h-3.361c-0.118,0-0.224-0.065-0.275-0.171l-2.111-4.276
		c-0.053-0.105-0.16-0.173-0.276-0.173h-12.081c-0.229,0-0.378-0.242-0.274-0.445l1.476-2.894c0.053-0.104,0.158-0.168,0.272-0.168
		l8.593-0.016c0.228,0,0.376-0.24,0.276-0.443l-6.188-12.553c0,0-0.029-0.077-0.044-0.113c-0.017,0.042-0.049,0.127-0.049,0.127
		l-10.359,20.996c-0.051,0.103-0.157,0.17-0.274,0.17h-3.261c-0.229,0-0.376-0.239-0.274-0.445l13.95-27.927
		c0.115-0.227,0.437-0.227,0.551-0.001l13.985,27.888C439.945,45.822,439.798,46.062,439.569,46.062"/>
</g>
</svg>
