<svg width="160" height="160" viewBox="0 0 160 160" fill="none" xmlns="http://www.w3.org/2000/svg">
<rect width="160" height="160" fill="#F3F3F3"/>
<path d="M107.008 43.0769H52.9912V59.898H107.008V43.0769Z" fill="#3A3E55"/>
<path fill-rule="evenodd" clip-rule="evenodd" d="M88.5403 68.2214H97.0966L79.9945 85.5067H79.8951L62.882 68.3058H71.4382V62.5511H52.9912V81.5876H58.7006L58.7425 72.072L75.7556 89.7371L75.7766 89.7212V89.7582L75.7556 89.7371L58.7425 107.407L58.7006 97.8865H52.9912V116.923H71.4382V111.168H62.882L79.9998 93.8672L79.9003 93.767H79.9893L79.9736 93.7828L97.0966 111.084H88.5403V116.839H106.982V97.8021H101.273L101.231 107.318L84.223 89.658V89.6474L101.231 71.9823L101.273 81.5032H106.982V62.4667H88.5403V68.2214Z" fill="#3A3E55"/>
</svg>
