<svg width="156" height="163" viewBox="0 0 156 163" fill="none" xmlns="http://www.w3.org/2000/svg">
<g clip-path="url(#clip0_434_5935)">
<path d="M41.775 146.55C51.5919 146.55 59.55 138.592 59.55 128.775C59.55 118.958 51.5919 111 41.775 111C31.9581 111 24 118.958 24 128.775C24 138.592 31.9581 146.55 41.775 146.55Z" fill="#D1B1BB"/>
<path d="M100.5 91.5C122.868 91.5 141 73.3675 141 51C141 28.6325 122.868 10.5 100.5 10.5C78.1325 10.5 60 28.6325 60 51C60 73.3675 78.1325 91.5 100.5 91.5Z" fill="#DBD4D0"/>
<path d="M153.555 83.19L121.98 69.225L118.485 48.765L141.465 32.64C142.26 32.04 142.62 31.02 142.35 29.97L137.895 14.94C141.27 12.51 142.35 7.85999 140.25 4.16999C138 0.224995 132.96 -1.17 129 1.08C127.08 2.17499 125.715 3.94499 125.13 6.05999C124.545 8.18999 124.83 10.41 125.91 12.315C127.005 14.235 128.76 15.6 130.89 16.185C131.61 16.38 132.36 16.485 133.095 16.485C133.275 16.485 133.47 16.455 133.65 16.455L137.61 29.85L114.78 45.87C114.09 46.395 113.715 47.25 113.835 48.255L117.57 70.11L94.9349 95.37L60.2549 95.46C59.3249 95.46 58.4699 95.955 58.0199 96.75L40.9499 126.48L16.4399 124.845C16.3049 123.765 15.9749 122.715 15.4199 121.755C14.3249 119.835 12.5699 118.47 10.4399 117.885C8.30989 117.3 6.08989 117.585 4.18489 118.665C0.239887 120.915 -1.15511 125.955 1.09489 129.915C2.60989 132.585 5.39989 134.085 8.27989 134.085C9.65989 134.085 11.0549 133.74 12.3449 133.005C13.8599 132.15 15.0149 130.86 15.7199 129.315L40.8599 130.995L58.1849 160.83C58.6499 161.61 59.4899 162.105 60.4199 162.105L95.9399 162.015C96.8549 162.015 97.7099 161.505 98.1599 160.725L115.44 130.635L149.46 123.375C150.555 123.135 151.365 122.235 151.485 121.125L155.115 85.815C155.235 84.705 154.62 83.655 153.6 83.19H153.555ZM129.825 10.095C129.33 9.22499 129.21 8.21999 129.465 7.245C129.72 6.26999 130.35 5.475 131.22 4.97999C131.805 4.64999 132.435 4.48499 133.065 4.48499C134.37 4.48499 135.645 5.16 136.335 6.375C137.355 8.175 136.725 10.47 134.925 11.49C134.055 11.985 133.035 12.105 132.075 11.85C131.115 11.58 130.305 10.965 129.81 10.095H129.825ZM11.8499 126.81C11.5799 127.77 10.9649 128.58 10.0949 129.075C8.29489 130.095 6.01489 129.465 4.97989 127.665C3.95989 125.865 4.58989 123.57 6.38989 122.55C6.95989 122.22 7.58989 122.055 8.23489 122.055C8.56489 122.055 8.90989 122.1 9.23989 122.19C10.1999 122.46 11.0099 123.075 11.5049 123.945C11.9999 124.815 12.1199 125.82 11.8649 126.795L11.8499 126.81ZM94.7699 157.5L61.4849 157.575L44.7749 128.79L61.3499 99.93L94.6349 99.855L101.58 111.825L111.345 128.64L94.7699 157.5ZM147.105 119.25L115.065 126.09L108.6 114.945L98.6999 97.875L120.54 73.485L150.45 86.715L147.105 119.235V119.25Z" fill="black"/>
<path d="M66.1952 105.72C65.1152 105.105 63.7352 105.465 63.1202 106.545L52.0052 125.91C51.3902 126.99 51.7652 128.37 52.8302 128.985C53.1902 129.195 53.5652 129.285 53.9552 129.285C54.7352 129.285 55.4852 128.88 55.9052 128.16L67.0202 108.795C67.6352 107.715 67.2602 106.335 66.1952 105.72Z" fill="black"/>
<path d="M121.965 82.68L142.38 91.71C142.68 91.845 142.98 91.905 143.295 91.905C144.165 91.905 144.975 91.41 145.35 90.57C145.845 89.43 145.35 88.11 144.195 87.6L123.78 78.57C122.64 78.06 121.32 78.57 120.81 79.71C120.315 80.85 120.81 82.17 121.965 82.68Z" fill="black"/>
<path d="M89.2354 149.445L66.9154 149.295C65.6854 149.235 64.6654 150.285 64.6504 151.53C64.6504 152.775 65.6404 153.78 66.8854 153.795L89.2054 153.945C90.4354 153.945 91.4404 152.94 91.4554 151.71C91.4554 150.465 90.4654 149.46 89.2204 149.445H89.2354Z" fill="black"/>
<path d="M93.5854 106.515C92.9704 105.435 91.5904 105.06 90.5254 105.675C89.4454 106.29 89.0704 107.67 89.6854 108.75L100.725 128.16C101.145 128.895 101.895 129.3 102.675 129.3C103.05 129.3 103.44 129.21 103.785 129C104.865 128.385 105.24 127.005 104.625 125.925L93.5854 106.515Z" fill="black"/>
</g>
<defs>
<clipPath id="clip0_434_5935">
<rect width="155.085" height="162.09" fill="white"/>
</clipPath>
</defs>
</svg>
