<svg fill="none" height="864" viewBox="0 0 864 864" width="864" xmlns="http://www.w3.org/2000/svg" xmlns:xlink="http://www.w3.org/1999/xlink"><mask id="a" height="864" maskUnits="userSpaceOnUse" width="864" x="0" y="0"><path d="m0 0h864v864h-864z" fill="#eee9f1"/></mask><g mask="url(#a)" stroke="#f6f4f8" stroke-miterlimit="10" stroke-width="2.5"><path d="m130.657 33.0165c-7.557 7.5546-17.445 11.3264-27.354 11.3153h-.622c-9.6985-.1442-19.3418-3.9271-26.7324-11.3153-7.5571-7.5545-11.319-17.4387-11.319-27.34507s-3.773-19.79053-11.3301-27.34513-17.4556-11.3263-27.3542-11.3263h77.3467c9.909 0 19.797 3.7717 27.354 11.3263 15.092 15.09807 15.092 39.5811 0 54.6792z"/><path d="m102.692 44.3318h-76.7911c-9.8875 0-19.75273-3.7718-27.29872-11.3152-15.09198-15.0981-15.09198-39.58113 0-54.6792 7.55709-7.5546 17.45562-11.3263 27.35422-11.3263 9.8985 0 19.7971 3.7717 27.3542 11.3263s11.3301 17.43877 11.3301 27.34513c0 9.90637 3.7619 19.79057 11.3189 27.34507 7.3907 7.3882 17.034 11.16 26.7324 11.3153z"/><path d="m285.35 33.0165c-7.557 7.5546-17.444 11.3264-27.354 11.3153h-.621c-9.699-.1442-19.342-3.9271-26.733-11.3153-7.557-7.5545-11.319-17.4387-11.319-27.34507s-3.773-19.79053-11.33-27.34513-17.456-11.3263-27.354-11.3263h77.346c9.91 0 19.797 3.7717 27.354 11.3263 15.092 15.09807 15.092 39.5811 0 54.6792z"/><path d="m257.375 44.3318h-76.781c-9.887 0-19.752-3.7718-27.298-11.3152-15.092-15.0981-15.092-39.58113 0-54.6792 7.557-7.5546 17.455-11.3263 27.354-11.3263 9.898 0 19.797 3.7717 27.354 11.3263s11.33 17.43877 11.33 27.34513c0 9.90637 3.762 19.79057 11.319 27.34507 7.391 7.3882 17.034 11.16 26.733 11.3153z"/><path d="m440.032 33.0165c-7.557 7.5546-17.445 11.3264-27.354 11.3153h-.622c-9.698-.1442-19.342-3.9271-26.732-11.3153-7.558-7.5545-11.319-17.4387-11.319-27.34507s-3.773-19.79053-11.33-27.34513c-7.558-7.5546-17.456-11.3263-27.355-11.3263h77.347c9.909 0 19.797 3.7717 27.354 11.3263 15.092 15.09807 15.092 39.5811 0 54.6792z"/><path d="m412.067 44.3318h-76.78c-9.888 0-19.753-3.7718-27.299-11.3152-15.092-15.0981-15.092-39.58113 0-54.6792 7.557-7.5546 17.456-11.3263 27.354-11.3263 9.899 0 19.797 3.7717 27.354 11.3263s11.33 17.43877 11.33 27.34513c0 9.90637 3.762 19.79057 11.319 27.34507 7.391 7.3882 17.034 11.16 26.733 11.3153z"/><path d="m91.3738 110.692c-7.5571 7.555-17.4446 11.327-27.3542 11.315h-.6215c-9.6988-.144-19.3421-3.927-26.7327-11.315-7.5571-7.554-11.319-17.4385-11.319-27.3449s-3.773-19.7906-11.3301-27.3451c-7.55707-7.5546-17.45563-11.3263-27.3542-11.3263h77.3575c9.9096 0 19.7971 3.7717 27.3542 11.3263 15.0922 15.098 15.0922 39.5811 0 54.679z"/><path d="m63.3981 122.007h-76.7804c-9.8875 0-19.7527-3.771-27.2987-11.315-15.092-15.0978-15.092-39.5809 0-54.6789 7.5571-7.5546 17.4556-11.3263 27.3542-11.3263 9.89854 0 19.7971 3.7717 27.3542 11.3263s11.3301 17.4387 11.3301 27.3451 3.7619 19.7908 11.3189 27.3448c7.3907 7.388 17.034 11.16 26.7328 11.316z"/><path d="m246.055 110.692c-7.557 7.555-17.444 11.327-27.354 11.315h-.621c-9.699-.144-19.342-3.927-26.733-11.315-7.557-7.554-11.319-17.4385-11.319-27.3449s-3.773-19.7906-11.33-27.3451c-7.557-7.5546-17.456-11.3263-27.354-11.3263h77.346c9.91 0 19.797 3.7717 27.354 11.3263 15.092 15.098 15.092 39.5811 0 54.679z"/><path d="m218.091 122.007h-76.78c-9.887 0-19.753-3.771-27.299-11.315-15.0916-15.0978-15.0916-39.5809 0-54.6789 7.557-7.5546 17.456-11.3263 27.355-11.3263 9.898 0 19.797 3.7717 27.354 11.3263s11.33 17.4387 11.33 27.3451 3.762 19.7908 11.319 27.3448c7.39 7.388 17.034 11.16 26.733 11.316z"/><path d="m400.749 110.692c-7.557 7.555-17.445 11.327-27.354 11.315h-.622c-9.699-.144-19.342-3.927-26.733-11.315-7.557-7.554-11.319-17.4385-11.319-27.3449s-3.773-19.7906-11.33-27.3451c-7.557-7.5546-17.455-11.3263-27.354-11.3263h77.346c9.91 0 19.798 3.7717 27.355 11.3263 15.092 15.098 15.092 39.5811 0 54.679z"/><path d="m372.773 122.007h-76.78c-9.888 0-19.753-3.771-27.299-11.315-15.092-15.0978-15.092-39.5809 0-54.6789 7.557-7.5546 17.456-11.3263 27.354-11.3263 9.899 0 19.797 3.7717 27.354 11.3263s11.33 17.4387 11.33 27.3451 3.762 19.7908 11.319 27.3448c7.391 7.388 17.034 11.16 26.733 11.316z"/><path d="m130.657 188.013c-7.557 7.554-17.445 11.326-27.354 11.315h-.622c-9.6985-.144-19.3418-3.927-26.7324-11.315-7.5571-7.555-11.319-17.439-11.319-27.345 0-9.907-3.773-19.791-11.3301-27.345-7.5571-7.555-17.4556-11.327-27.3542-11.327h77.3467c9.909 0 19.797 3.772 27.354 11.327 15.092 15.098 15.092 39.581 0 54.679z"/><path d="m102.692 199.328h-76.7911c-9.8875 0-19.75273-3.772-27.29872-11.315-15.09198-15.098-15.09198-39.581 0-54.679 7.55709-7.555 17.45562-11.327 27.35422-11.327 9.8985 0 19.7971 3.772 27.3542 11.327 7.5571 7.554 11.3301 17.438 11.3301 27.345 0 9.906 3.7619 19.79 11.3189 27.345 7.3907 7.388 17.034 11.16 26.7324 11.315z"/><path d="m285.35 188.013c-7.557 7.554-17.444 11.326-27.354 11.315h-.621c-9.699-.144-19.342-3.927-26.733-11.315-7.557-7.555-11.319-17.439-11.319-27.345 0-9.907-3.773-19.791-11.33-27.345-7.557-7.555-17.456-11.327-27.354-11.327h77.346c9.91 0 19.797 3.772 27.354 11.327 15.092 15.098 15.092 39.581 0 54.679z"/><path d="m257.375 199.328h-76.781c-9.887 0-19.752-3.772-27.298-11.315-15.092-15.098-15.092-39.581 0-54.679 7.557-7.555 17.455-11.327 27.354-11.327 9.898 0 19.797 3.772 27.354 11.327 7.557 7.554 11.33 17.438 11.33 27.345 0 9.906 3.762 19.79 11.319 27.345 7.391 7.388 17.034 11.16 26.733 11.315z"/><path d="m440.032 188.013c-7.557 7.554-17.445 11.326-27.354 11.315h-.622c-9.698-.144-19.342-3.927-26.732-11.315-7.558-7.555-11.319-17.439-11.319-27.345 0-9.907-3.773-19.791-11.33-27.345-7.558-7.555-17.456-11.327-27.355-11.327h77.347c9.909 0 19.797 3.772 27.354 11.327 15.092 15.098 15.092 39.581 0 54.679z"/><path d="m412.067 199.328h-76.78c-9.888 0-19.753-3.772-27.299-11.315-15.092-15.098-15.092-39.581 0-54.679 7.557-7.555 17.456-11.327 27.354-11.327 9.899 0 19.797 3.772 27.354 11.327 7.557 7.554 11.33 17.438 11.33 27.345 0 9.906 3.762 19.79 11.319 27.345 7.391 7.388 17.034 11.16 26.733 11.315z"/><path d="m91.3738 265.689c-7.5571 7.554-17.4446 11.326-27.3542 11.315h-.6215c-9.6988-.144-19.3421-3.927-26.7327-11.315-7.5571-7.555-11.319-17.439-11.319-27.346 0-9.906-3.773-19.79-11.3301-27.345-7.55707-7.554-17.45563-11.326-27.3542-11.326h77.3575c9.9096 0 19.7971 3.772 27.3542 11.326 15.0922 15.098 15.0922 39.581 0 54.679z"/><path d="m63.3981 276.993h-76.7804c-9.8875 0-19.7527-3.772-27.2987-11.316-15.092-15.098-15.092-39.581 0-54.679 7.5571-7.554 17.4556-11.326 27.3542-11.326 9.89854 0 19.7971 3.772 27.3542 11.326 7.5571 7.555 11.3301 17.439 11.3301 27.345 0 9.907 3.7619 19.791 11.3189 27.346 7.3907 7.388 17.034 11.159 26.7328 11.315z"/><path d="m246.055 265.689c-7.557 7.554-17.444 11.326-27.354 11.315h-.621c-9.699-.144-19.342-3.927-26.733-11.315-7.557-7.555-11.319-17.439-11.319-27.346 0-9.906-3.773-19.79-11.33-27.345-7.557-7.554-17.456-11.326-27.354-11.326h77.346c9.91 0 19.797 3.772 27.354 11.326 15.092 15.098 15.092 39.581 0 54.679z"/><path d="m218.091 276.993h-76.78c-9.887 0-19.753-3.772-27.299-11.316-15.0916-15.098-15.0916-39.581 0-54.679 7.557-7.554 17.456-11.326 27.355-11.326 9.898 0 19.797 3.772 27.354 11.326 7.557 7.555 11.33 17.439 11.33 27.345 0 9.907 3.762 19.791 11.319 27.346 7.39 7.388 17.034 11.159 26.733 11.315z"/><path d="m400.749 265.689c-7.557 7.554-17.445 11.326-27.354 11.315h-.622c-9.699-.144-19.342-3.927-26.733-11.315-7.557-7.555-11.319-17.439-11.319-27.346 0-9.906-3.773-19.79-11.33-27.345-7.557-7.554-17.455-11.326-27.354-11.326h77.346c9.91 0 19.798 3.772 27.355 11.326 15.092 15.098 15.092 39.581 0 54.679z"/><path d="m372.773 276.993h-76.78c-9.888 0-19.753-3.772-27.299-11.316-15.092-15.098-15.092-39.581 0-54.679 7.557-7.554 17.456-11.326 27.354-11.326 9.899 0 19.797 3.772 27.354 11.326 7.557 7.555 11.33 17.439 11.33 27.345 0 9.907 3.762 19.791 11.319 27.346 7.391 7.388 17.034 11.159 26.733 11.315z"/><path d="m130.657 343.009c-7.557 7.555-17.445 11.327-27.354 11.315h-.622c-9.6985-.144-19.3418-3.927-26.7324-11.315-7.5571-7.554-11.319-17.439-11.319-27.345s-3.773-19.79-11.3301-27.345-17.4556-11.326-27.3542-11.326h77.3467c9.909 0 19.797 3.771 27.354 11.326 15.092 15.098 15.092 39.581 0 54.679z"/><path d="m102.692 354.324h-76.7911c-9.8875 0-19.75273-3.771-27.29872-11.315-15.09198-15.098-15.09198-39.581 0-54.679 7.55709-7.555 17.45562-11.326 27.35422-11.326 9.8985 0 19.7971 3.771 27.3542 11.326s11.3301 17.439 11.3301 27.345 3.7619 19.791 11.3189 27.345c7.3907 7.388 17.034 11.16 26.7324 11.315z"/><path d="m285.35 343.009c-7.557 7.555-17.444 11.327-27.354 11.315h-.621c-9.699-.144-19.342-3.927-26.733-11.315-7.557-7.554-11.319-17.439-11.319-27.345s-3.773-19.79-11.33-27.345-17.456-11.326-27.354-11.326h77.346c9.91 0 19.797 3.771 27.354 11.326 15.092 15.098 15.092 39.581 0 54.679z"/><path d="m257.375 354.324h-76.781c-9.887 0-19.752-3.771-27.298-11.315-15.092-15.098-15.092-39.581 0-54.679 7.557-7.555 17.455-11.326 27.354-11.326 9.898 0 19.797 3.771 27.354 11.326s11.33 17.439 11.33 27.345 3.762 19.791 11.319 27.345c7.391 7.388 17.034 11.16 26.733 11.315z"/><path d="m440.032 343.009c-7.557 7.555-17.445 11.327-27.354 11.315h-.622c-9.698-.144-19.342-3.927-26.732-11.315-7.558-7.554-11.319-17.439-11.319-27.345s-3.773-19.79-11.33-27.345c-7.558-7.555-17.456-11.326-27.355-11.326h77.347c9.909 0 19.797 3.771 27.354 11.326 15.092 15.098 15.092 39.581 0 54.679z"/><path d="m412.067 354.324h-76.78c-9.888 0-19.753-3.771-27.299-11.315-15.092-15.098-15.092-39.581 0-54.679 7.557-7.555 17.456-11.326 27.354-11.326 9.899 0 19.797 3.771 27.354 11.326s11.33 17.439 11.33 27.345 3.762 19.791 11.319 27.345c7.391 7.388 17.034 11.16 26.733 11.315z"/><path d="m91.3738 420.674c-7.5571 7.554-17.4446 11.326-27.3542 11.315h-.6215c-9.6988-.144-19.3421-3.927-26.7327-11.315-7.5571-7.555-11.319-17.439-11.319-27.345 0-9.907-3.773-19.791-11.3301-27.345-7.55707-7.555-17.45563-11.327-27.3542-11.327h77.3575c9.9096 0 19.7971 3.772 27.3542 11.327 15.0922 15.098 15.0922 39.581 0 54.679z"/><path d="m63.3981 431.989h-76.7804c-9.8875 0-19.7527-3.772-27.2987-11.315-15.092-15.098-15.092-39.581 0-54.679 7.5571-7.555 17.4556-11.327 27.3542-11.327 9.89854 0 19.7971 3.772 27.3542 11.327 7.5571 7.554 11.3301 17.438 11.3301 27.345 0 9.906 3.7619 19.79 11.3189 27.345 7.3907 7.388 17.034 11.16 26.7328 11.315z"/><path d="m246.055 420.674c-7.557 7.554-17.444 11.326-27.354 11.315h-.621c-9.699-.144-19.342-3.927-26.733-11.315-7.557-7.555-11.319-17.439-11.319-27.345 0-9.907-3.773-19.791-11.33-27.345-7.557-7.555-17.456-11.327-27.354-11.327h77.346c9.91 0 19.797 3.772 27.354 11.327 15.092 15.098 15.092 39.581 0 54.679z"/><path d="m218.091 431.989h-76.78c-9.887 0-19.753-3.772-27.299-11.315-15.0916-15.098-15.0916-39.581 0-54.679 7.557-7.555 17.456-11.327 27.355-11.327 9.898 0 19.797 3.772 27.354 11.327 7.557 7.554 11.33 17.438 11.33 27.345 0 9.906 3.762 19.79 11.319 27.345 7.39 7.388 17.034 11.16 26.733 11.315z"/><path d="m400.749 420.674c-7.557 7.554-17.445 11.326-27.354 11.315h-.622c-9.699-.144-19.342-3.927-26.733-11.315-7.557-7.555-11.319-17.439-11.319-27.345 0-9.907-3.773-19.791-11.33-27.345-7.557-7.555-17.455-11.327-27.354-11.327h77.346c9.91 0 19.798 3.772 27.355 11.327 15.092 15.098 15.092 39.581 0 54.679z"/><path d="m372.773 431.989h-76.78c-9.888 0-19.753-3.772-27.299-11.315-15.092-15.098-15.092-39.581 0-54.679 7.557-7.555 17.456-11.327 27.354-11.327 9.899 0 19.797 3.772 27.354 11.327 7.557 7.554 11.33 17.438 11.33 27.345 0 9.906 3.762 19.79 11.319 27.345 7.391 7.388 17.034 11.16 26.733 11.315z"/><path d="m130.657 498.017c-7.557 7.554-17.445 11.326-27.354 11.315h-.622c-9.6985-.144-19.3418-3.927-26.7324-11.315-7.5571-7.555-11.319-17.439-11.319-27.346 0-9.906-3.773-19.79-11.3301-27.345-7.5571-7.554-17.4556-11.326-27.3542-11.326h77.3467c9.909 0 19.797 3.772 27.354 11.326 15.092 15.098 15.092 39.581 0 54.679z"/><path d="m102.692 509.332h-76.7911c-9.8875 0-19.75273-3.772-27.29872-11.315-15.09198-15.098-15.09198-39.581 0-54.679 7.55709-7.555 17.45562-11.327 27.35422-11.327 9.8985 0 19.7971 3.772 27.3542 11.327 7.5571 7.554 11.3301 17.438 11.3301 27.345 0 9.906 3.7619 19.79 11.3189 27.345 7.3907 7.388 17.034 11.16 26.7324 11.315z"/><path d="m285.35 498.017c-7.557 7.554-17.444 11.326-27.354 11.315h-.621c-9.699-.144-19.342-3.927-26.733-11.315-7.557-7.555-11.319-17.439-11.319-27.346 0-9.906-3.773-19.79-11.33-27.345-7.557-7.554-17.456-11.326-27.354-11.326h77.346c9.91 0 19.797 3.772 27.354 11.326 15.092 15.098 15.092 39.581 0 54.679z"/><path d="m257.375 509.332h-76.781c-9.887 0-19.752-3.772-27.298-11.315-15.092-15.098-15.092-39.581 0-54.679 7.557-7.555 17.455-11.327 27.354-11.327 9.898 0 19.797 3.772 27.354 11.327 7.557 7.554 11.33 17.438 11.33 27.345 0 9.906 3.762 19.79 11.319 27.345 7.391 7.388 17.034 11.16 26.733 11.315z"/><path d="m440.032 498.017c-7.557 7.554-17.445 11.326-27.354 11.315h-.622c-9.698-.144-19.342-3.927-26.732-11.315-7.558-7.555-11.319-17.439-11.319-27.346 0-9.906-3.773-19.79-11.33-27.345-7.558-7.554-17.456-11.326-27.355-11.326h77.347c9.909 0 19.797 3.772 27.354 11.326 15.092 15.098 15.092 39.581 0 54.679z"/><path d="m412.067 509.332h-76.78c-9.888 0-19.753-3.772-27.299-11.315-15.092-15.098-15.092-39.581 0-54.679 7.557-7.555 17.456-11.327 27.354-11.327 9.899 0 19.797 3.772 27.354 11.327 7.557 7.554 11.33 17.438 11.33 27.345 0 9.906 3.762 19.79 11.319 27.345 7.391 7.388 17.034 11.16 26.733 11.315z"/><path d="m91.3738 575.692c-7.5571 7.555-17.4446 11.327-27.3542 11.316h-.6215c-9.6988-.145-19.3421-3.927-26.7327-11.316-7.5571-7.554-11.319-17.438-11.319-27.345 0-9.906-3.773-19.79-11.3301-27.345-7.55707-7.554-17.45563-11.326-27.3542-11.326h77.3575c9.9096 0 19.7971 3.772 27.3542 11.326 15.0922 15.098 15.0922 39.581 0 54.679z"/><path d="m63.3981 587.007h-76.7804c-9.8875 0-19.7527-3.771-27.2987-11.315-15.092-15.098-15.092-39.581 0-54.679 7.5571-7.554 17.4556-11.326 27.3542-11.326 9.89854 0 19.7971 3.772 27.3542 11.326 7.5571 7.555 11.3301 17.439 11.3301 27.345 0 9.907 3.7619 19.791 11.3189 27.345 7.3907 7.388 17.034 11.16 26.7328 11.316z"/><path d="m246.055 575.692c-7.557 7.555-17.444 11.327-27.354 11.316h-.621c-9.699-.145-19.342-3.927-26.733-11.316-7.557-7.554-11.319-17.438-11.319-27.345 0-9.906-3.773-19.79-11.33-27.345-7.557-7.554-17.456-11.326-27.354-11.326h77.346c9.91 0 19.797 3.772 27.354 11.326 15.092 15.098 15.092 39.581 0 54.679z"/><path d="m218.091 587.007h-76.78c-9.887 0-19.753-3.771-27.299-11.315-15.0916-15.098-15.0916-39.581 0-54.679 7.557-7.554 17.456-11.326 27.355-11.326 9.898 0 19.797 3.772 27.354 11.326 7.557 7.555 11.33 17.439 11.33 27.345 0 9.907 3.762 19.791 11.319 27.345 7.39 7.388 17.034 11.16 26.733 11.316z"/><path d="m400.749 575.692c-7.557 7.555-17.445 11.327-27.354 11.316h-.622c-9.699-.145-19.342-3.927-26.733-11.316-7.557-7.554-11.319-17.438-11.319-27.345 0-9.906-3.773-19.79-11.33-27.345-7.557-7.554-17.455-11.326-27.354-11.326h77.346c9.91 0 19.798 3.772 27.355 11.326 15.092 15.098 15.092 39.581 0 54.679z"/><path d="m372.773 587.007h-76.78c-9.888 0-19.753-3.771-27.299-11.315-15.092-15.098-15.092-39.581 0-54.679 7.557-7.554 17.456-11.326 27.354-11.326 9.899 0 19.797 3.772 27.354 11.326 7.557 7.555 11.33 17.439 11.33 27.345 0 9.907 3.762 19.791 11.319 27.345 7.391 7.388 17.034 11.16 26.733 11.316z"/><path d="m130.657 653.013c-7.557 7.554-17.445 11.326-27.354 11.315h-.622c-9.6985-.144-19.3418-3.927-26.7324-11.315-7.5571-7.555-11.319-17.439-11.319-27.345 0-9.907-3.773-19.791-11.3301-27.345-7.5571-7.555-17.4556-11.327-27.3542-11.327h77.3467c9.909 0 19.797 3.772 27.354 11.327 15.092 15.098 15.092 39.581 0 54.679z"/><path d="m102.692 664.328h-76.7911c-9.8875 0-19.75273-3.772-27.29872-11.315-15.09198-15.098-15.09198-39.581 0-54.679 7.55709-7.555 17.45562-11.327 27.35422-11.327 9.8985 0 19.7971 3.772 27.3542 11.327 7.5571 7.554 11.3301 17.438 11.3301 27.345 0 9.906 3.7619 19.79 11.3189 27.345 7.3907 7.388 17.034 11.16 26.7324 11.315z"/><path d="m285.35 653.013c-7.557 7.554-17.444 11.326-27.354 11.315h-.621c-9.699-.144-19.342-3.927-26.733-11.315-7.557-7.555-11.319-17.439-11.319-27.345 0-9.907-3.773-19.791-11.33-27.345-7.557-7.555-17.456-11.327-27.354-11.327h77.346c9.91 0 19.797 3.772 27.354 11.327 15.092 15.098 15.092 39.581 0 54.679z"/><path d="m257.375 664.328h-76.781c-9.887 0-19.752-3.772-27.298-11.315-15.092-15.098-15.092-39.581 0-54.679 7.557-7.555 17.455-11.327 27.354-11.327 9.898 0 19.797 3.772 27.354 11.327 7.557 7.554 11.33 17.438 11.33 27.345 0 9.906 3.762 19.79 11.319 27.345 7.391 7.388 17.034 11.16 26.733 11.315z"/><path d="m440.032 653.013c-7.557 7.554-17.445 11.326-27.354 11.315h-.622c-9.698-.144-19.342-3.927-26.732-11.315-7.558-7.555-11.319-17.439-11.319-27.345 0-9.907-3.773-19.791-11.33-27.345-7.558-7.555-17.456-11.327-27.355-11.327h77.347c9.909 0 19.797 3.772 27.354 11.327 15.092 15.098 15.092 39.581 0 54.679z"/><path d="m412.067 664.328h-76.78c-9.888 0-19.753-3.772-27.299-11.315-15.092-15.098-15.092-39.581 0-54.679 7.557-7.555 17.456-11.327 27.354-11.327 9.899 0 19.797 3.772 27.354 11.327 7.557 7.554 11.33 17.438 11.33 27.345 0 9.906 3.762 19.79 11.319 27.345 7.391 7.388 17.034 11.16 26.733 11.315z"/><path d="m91.3738 730.688c-7.5571 7.555-17.4446 11.327-27.3542 11.316h-.6215c-9.6988-.145-19.3421-3.927-26.7327-11.316-7.5571-7.554-11.319-17.438-11.319-27.345 0-9.906-3.773-19.79-11.3301-27.345-7.55707-7.554-17.45563-11.326-27.3542-11.326h77.3575c9.9096 0 19.7971 3.772 27.3542 11.326 15.0922 15.098 15.0922 39.581 0 54.679z"/><path d="m63.3981 741.993h-76.7804c-9.8875 0-19.7527-3.772-27.2987-11.316-15.092-15.098-15.092-39.581 0-54.679 7.5571-7.554 17.4556-11.326 27.3542-11.326 9.89854 0 19.7971 3.772 27.3542 11.326 7.5571 7.555 11.3301 17.439 11.3301 27.345 0 9.907 3.7619 19.791 11.3189 27.345 7.3907 7.389 17.034 11.16 26.7328 11.316z"/><path d="m246.055 730.688c-7.557 7.555-17.444 11.327-27.354 11.316h-.621c-9.699-.145-19.342-3.927-26.733-11.316-7.557-7.554-11.319-17.438-11.319-27.345 0-9.906-3.773-19.79-11.33-27.345-7.557-7.554-17.456-11.326-27.354-11.326h77.346c9.91 0 19.797 3.772 27.354 11.326 15.092 15.098 15.092 39.581 0 54.679z"/><path d="m218.091 741.993h-76.78c-9.887 0-19.753-3.772-27.299-11.316-15.0916-15.098-15.0916-39.581 0-54.679 7.557-7.554 17.456-11.326 27.355-11.326 9.898 0 19.797 3.772 27.354 11.326 7.557 7.555 11.33 17.439 11.33 27.345 0 9.907 3.762 19.791 11.319 27.345 7.39 7.389 17.034 11.16 26.733 11.316z"/><path d="m400.749 730.688c-7.557 7.555-17.445 11.327-27.354 11.316h-.622c-9.699-.145-19.342-3.927-26.733-11.316-7.557-7.554-11.319-17.438-11.319-27.345 0-9.906-3.773-19.79-11.33-27.345-7.557-7.554-17.455-11.326-27.354-11.326h77.346c9.91 0 19.798 3.772 27.355 11.326 15.092 15.098 15.092 39.581 0 54.679z"/><path d="m372.773 741.993h-76.78c-9.888 0-19.753-3.772-27.299-11.316-15.092-15.098-15.092-39.581 0-54.679 7.557-7.554 17.456-11.326 27.354-11.326 9.899 0 19.797 3.772 27.354 11.326 7.557 7.555 11.33 17.439 11.33 27.345 0 9.907 3.762 19.791 11.319 27.345 7.391 7.389 17.034 11.16 26.733 11.316z"/><path d="m130.657 808.009c-7.557 7.555-17.445 11.327-27.354 11.315h-.622c-9.6985-.144-19.3418-3.927-26.7324-11.315-7.5571-7.554-11.319-17.439-11.319-27.345s-3.773-19.79-11.3301-27.345-17.4556-11.326-27.3542-11.326h77.3467c9.909 0 19.797 3.771 27.354 11.326 15.092 15.098 15.092 39.581 0 54.679z"/><path d="m102.692 819.324h-76.7911c-9.8875 0-19.75273-3.771-27.29872-11.315-15.09198-15.098-15.09198-39.581 0-54.679 7.55709-7.555 17.45562-11.326 27.35422-11.326 9.8985 0 19.7971 3.771 27.3542 11.326s11.3301 17.439 11.3301 27.345 3.7619 19.791 11.3189 27.345c7.3907 7.388 17.034 11.16 26.7324 11.315z"/><path d="m285.35 808.009c-7.557 7.555-17.444 11.327-27.354 11.315h-.621c-9.699-.144-19.342-3.927-26.733-11.315-7.557-7.554-11.319-17.439-11.319-27.345s-3.773-19.79-11.33-27.345-17.456-11.326-27.354-11.326h77.346c9.91 0 19.797 3.771 27.354 11.326 15.092 15.098 15.092 39.581 0 54.679z"/><path d="m257.375 819.324h-76.781c-9.887 0-19.752-3.771-27.298-11.315-15.092-15.098-15.092-39.581 0-54.679 7.557-7.555 17.455-11.326 27.354-11.326 9.898 0 19.797 3.771 27.354 11.326s11.33 17.439 11.33 27.345 3.762 19.791 11.319 27.345c7.391 7.388 17.034 11.16 26.733 11.315z"/><path d="m440.032 808.009c-7.557 7.555-17.445 11.327-27.354 11.315h-.622c-9.698-.144-19.342-3.927-26.732-11.315-7.558-7.554-11.319-17.439-11.319-27.345s-3.773-19.79-11.33-27.345c-7.558-7.555-17.456-11.326-27.355-11.326h77.347c9.909 0 19.797 3.771 27.354 11.326 15.092 15.098 15.092 39.581 0 54.679z"/><path d="m412.067 819.324h-76.78c-9.888 0-19.753-3.771-27.299-11.315-15.092-15.098-15.092-39.581 0-54.679 7.557-7.555 17.456-11.326 27.354-11.326 9.899 0 19.797 3.771 27.354 11.326s11.33 17.439 11.33 27.345 3.762 19.791 11.319 27.345c7.391 7.388 17.034 11.16 26.733 11.315z"/><path d="m91.3738 885.674c-7.5571 7.554-17.4446 11.326-27.3542 11.315h-.6215c-9.6988-.144-19.3421-3.927-26.7327-11.315-7.5571-7.555-11.319-17.439-11.319-27.345 0-9.907-3.773-19.791-11.3301-27.345-7.55707-7.555-17.45563-11.327-27.3542-11.327h77.3575c9.9096 0 19.7971 3.772 27.3542 11.327 15.0922 15.098 15.0922 39.581 0 54.679z"/><path d="m63.3981 896.989h-76.7804c-9.8875 0-19.7527-3.772-27.2987-11.315-15.092-15.098-15.092-39.581 0-54.679 7.5571-7.555 17.4556-11.327 27.3542-11.327 9.89854 0 19.7971 3.772 27.3542 11.327 7.5571 7.554 11.3301 17.438 11.3301 27.345 0 9.906 3.7619 19.79 11.3189 27.345 7.3907 7.388 17.034 11.16 26.7328 11.315z"/><path d="m246.055 885.674c-7.557 7.554-17.444 11.326-27.354 11.315h-.621c-9.699-.144-19.342-3.927-26.733-11.315-7.557-7.555-11.319-17.439-11.319-27.345 0-9.907-3.773-19.791-11.33-27.345-7.557-7.555-17.456-11.327-27.354-11.327h77.346c9.91 0 19.797 3.772 27.354 11.327 15.092 15.098 15.092 39.581 0 54.679z"/><path d="m218.091 896.989h-76.78c-9.887 0-19.753-3.772-27.299-11.315-15.0916-15.098-15.0916-39.581 0-54.679 7.557-7.555 17.456-11.327 27.355-11.327 9.898 0 19.797 3.772 27.354 11.327 7.557 7.554 11.33 17.438 11.33 27.345 0 9.906 3.762 19.79 11.319 27.345 7.39 7.388 17.034 11.16 26.733 11.315z"/><path d="m400.749 885.674c-7.557 7.554-17.445 11.326-27.354 11.315h-.622c-9.699-.144-19.342-3.927-26.733-11.315-7.557-7.555-11.319-17.439-11.319-27.345 0-9.907-3.773-19.791-11.33-27.345-7.557-7.555-17.455-11.327-27.354-11.327h77.346c9.91 0 19.798 3.772 27.355 11.327 15.092 15.098 15.092 39.581 0 54.679z"/><path d="m372.773 896.989h-76.78c-9.888 0-19.753-3.772-27.299-11.315-15.092-15.098-15.092-39.581 0-54.679 7.557-7.555 17.456-11.327 27.354-11.327 9.899 0 19.797 3.772 27.354 11.327 7.557 7.554 11.33 17.438 11.33 27.345 0 9.906 3.762 19.79 11.319 27.345 7.391 7.388 17.034 11.16 26.733 11.315z"/><path d="m594.514 33.0165c-7.557 7.5546-17.444 11.3264-27.354 11.3153h-.621c-9.699-.1442-19.342-3.9271-26.733-11.3153-7.557-7.5545-11.319-17.4387-11.319-27.34507s-3.773-19.79053-11.33-27.34513-17.456-11.3263-27.354-11.3263h77.346c9.91 0 19.797 3.7717 27.354 11.3263 15.092 15.09807 15.092 39.5811 0 54.6792z"/><path d="m566.55 44.3318h-76.792c-9.887 0-19.752-3.7718-27.298-11.3152-15.092-15.0981-15.092-39.58113 0-54.6792 7.557-7.5546 17.455-11.3263 27.354-11.3263 9.898 0 19.797 3.7717 27.354 11.3263s11.33 17.43877 11.33 27.34513c0 9.90637 3.762 19.79057 11.319 27.34507 7.391 7.3882 17.034 11.16 26.733 11.3153z"/><path d="m749.206 33.0165c-7.557 7.5546-17.445 11.3264-27.354 11.3153h-.622c-9.699-.1442-19.342-3.9271-26.733-11.3153-7.557-7.5545-11.319-17.4387-11.319-27.34507s-3.773-19.79053-11.33-27.34513-17.455-11.3263-27.354-11.3263h77.346c9.91 0 19.798 3.7717 27.355 11.3263 15.092 15.09807 15.092 39.5811 0 54.6792z"/><path d="m721.23 44.3318h-76.78c-9.888 0-19.753-3.7718-27.299-11.3152-15.092-15.0981-15.092-39.58113 0-54.6792 7.557-7.5546 17.456-11.3263 27.354-11.3263 9.899 0 19.797 3.7717 27.354 11.3263 7.558 7.5546 11.33 17.43877 11.33 27.34513 0 9.90637 3.762 19.79057 11.319 27.34507 7.391 7.3882 17.034 11.16 26.733 11.3153z"/><path d="m903.888 33.0165c-7.557 7.5546-17.444 11.3264-27.354 11.3153h-.621c-9.699-.1442-19.342-3.9271-26.733-11.3153-7.557-7.5545-11.319-17.4387-11.319-27.34507s-3.773-19.79053-11.33-27.34513-17.456-11.3263-27.354-11.3263h77.346c9.91 0 19.797 3.7717 27.354 11.3263 15.092 15.09807 15.092 39.5811 0 54.6792z"/><path d="m875.924 44.3318h-76.781c-9.887 0-19.753-3.7718-27.299-11.3152-15.092-15.0981-15.092-39.58113 0-54.6792 7.557-7.5546 17.456-11.3263 27.355-11.3263 9.898 0 19.797 3.7717 27.354 11.3263s11.33 17.43877 11.33 27.34513c0 9.90637 3.762 19.79057 11.319 27.34507 7.39 7.3882 17.034 11.16 26.733 11.3153z"/><path d="m555.23 110.692c-7.557 7.555-17.444 11.327-27.354 11.315h-.621c-9.699-.144-19.343-3.927-26.733-11.315-7.557-7.554-11.319-17.4385-11.319-27.3449s-3.773-19.7906-11.33-27.3451c-7.557-7.5546-17.456-11.3263-27.354-11.3263h77.357c9.91 0 19.797 3.7717 27.354 11.3263 15.092 15.098 15.092 39.5811 0 54.679z"/><path d="m527.255 122.007h-76.781c-9.887 0-19.753-3.771-27.299-11.315-15.092-15.0978-15.092-39.5809 0-54.6789 7.558-7.5546 17.456-11.3263 27.355-11.3263 9.898 0 19.797 3.7717 27.354 11.3263s11.33 17.4387 11.33 27.3451 3.762 19.7908 11.319 27.3448c7.391 7.388 17.034 11.16 26.733 11.316z"/><path d="m709.913 110.692c-7.557 7.555-17.445 11.327-27.354 11.315h-.622c-9.699-.144-19.342-3.927-26.733-11.315-7.557-7.554-11.319-17.4385-11.319-27.3449s-3.773-19.7906-11.33-27.3451c-7.557-7.5546-17.455-11.3263-27.354-11.3263h77.347c9.909 0 19.797 3.7717 27.354 11.3263 15.092 15.098 15.092 39.5811 0 54.679z"/><path d="m681.948 122.007h-76.781c-9.887 0-19.752-3.771-27.298-11.315-15.092-15.0978-15.092-39.5809 0-54.6789 7.557-7.5546 17.455-11.3263 27.354-11.3263s19.797 3.7717 27.354 11.3263 11.33 17.4387 11.33 27.3451 3.762 19.7908 11.319 27.3448c7.391 7.388 17.034 11.16 26.733 11.316z"/><path d="m864.605 110.692c-7.557 7.555-17.444 11.327-27.354 11.315h-.621c-9.699-.144-19.343-3.927-26.733-11.315-7.557-7.554-11.319-17.4385-11.319-27.3449s-3.773-19.7906-11.33-27.3451c-7.557-7.5546-17.456-11.3263-27.354-11.3263h77.346c9.91 0 19.797 3.7717 27.354 11.3263 15.092 15.098 15.092 39.5811 0 54.679z"/><path d="m836.63 122.007h-76.781c-9.887 0-19.753-3.771-27.299-11.315-15.092-15.0978-15.092-39.5809 0-54.6789 7.558-7.5546 17.456-11.3263 27.355-11.3263 9.898 0 19.797 3.7717 27.354 11.3263s11.33 17.4387 11.33 27.3451 3.762 19.7908 11.319 27.3448c7.391 7.388 17.034 11.16 26.733 11.316z"/><path d="m594.514 188.013c-7.557 7.554-17.444 11.326-27.354 11.315h-.621c-9.699-.144-19.342-3.927-26.733-11.315-7.557-7.555-11.319-17.439-11.319-27.345 0-9.907-3.773-19.791-11.33-27.345-7.557-7.555-17.456-11.327-27.354-11.327h77.346c9.91 0 19.797 3.772 27.354 11.327 15.092 15.098 15.092 39.581 0 54.679z"/><path d="m566.55 199.328h-76.792c-9.887 0-19.752-3.772-27.298-11.315-15.092-15.098-15.092-39.581 0-54.679 7.557-7.555 17.455-11.327 27.354-11.327 9.898 0 19.797 3.772 27.354 11.327 7.557 7.554 11.33 17.438 11.33 27.345 0 9.906 3.762 19.79 11.319 27.345 7.391 7.388 17.034 11.16 26.733 11.315z"/><path d="m749.206 188.013c-7.557 7.554-17.445 11.326-27.354 11.315h-.622c-9.699-.144-19.342-3.927-26.733-11.315-7.557-7.555-11.319-17.439-11.319-27.345 0-9.907-3.773-19.791-11.33-27.345-7.557-7.555-17.455-11.327-27.354-11.327h77.346c9.91 0 19.798 3.772 27.355 11.327 15.092 15.098 15.092 39.581 0 54.679z"/><path d="m721.23 199.328h-76.78c-9.888 0-19.753-3.772-27.299-11.315-15.092-15.098-15.092-39.581 0-54.679 7.557-7.555 17.456-11.327 27.354-11.327 9.899 0 19.797 3.772 27.354 11.327 7.558 7.554 11.33 17.438 11.33 27.345 0 9.906 3.762 19.79 11.319 27.345 7.391 7.388 17.034 11.16 26.733 11.315z"/><path d="m903.888 188.013c-7.557 7.554-17.444 11.326-27.354 11.315h-.621c-9.699-.144-19.342-3.927-26.733-11.315-7.557-7.555-11.319-17.439-11.319-27.345 0-9.907-3.773-19.791-11.33-27.345-7.557-7.555-17.456-11.327-27.354-11.327h77.346c9.91 0 19.797 3.772 27.354 11.327 15.092 15.098 15.092 39.581 0 54.679z"/><path d="m875.924 199.328h-76.781c-9.887 0-19.753-3.772-27.299-11.315-15.092-15.098-15.092-39.581 0-54.679 7.557-7.555 17.456-11.327 27.355-11.327 9.898 0 19.797 3.772 27.354 11.327 7.557 7.554 11.33 17.438 11.33 27.345 0 9.906 3.762 19.79 11.319 27.345 7.39 7.388 17.034 11.16 26.733 11.315z"/><path d="m555.23 265.689c-7.557 7.554-17.444 11.326-27.354 11.315h-.621c-9.699-.144-19.343-3.927-26.733-11.315-7.557-7.555-11.319-17.439-11.319-27.346 0-9.906-3.773-19.79-11.33-27.345-7.557-7.554-17.456-11.326-27.354-11.326h77.357c9.91 0 19.797 3.772 27.354 11.326 15.092 15.098 15.092 39.581 0 54.679z"/><path d="m527.255 276.993h-76.781c-9.887 0-19.753-3.772-27.299-11.316-15.092-15.098-15.092-39.581 0-54.679 7.558-7.554 17.456-11.326 27.355-11.326 9.898 0 19.797 3.772 27.354 11.326 7.557 7.555 11.33 17.439 11.33 27.345 0 9.907 3.762 19.791 11.319 27.346 7.391 7.388 17.034 11.159 26.733 11.315z"/><path d="m709.913 265.689c-7.557 7.554-17.445 11.326-27.354 11.315h-.622c-9.699-.144-19.342-3.927-26.733-11.315-7.557-7.555-11.319-17.439-11.319-27.346 0-9.906-3.773-19.79-11.33-27.345-7.557-7.554-17.455-11.326-27.354-11.326h77.347c9.909 0 19.797 3.772 27.354 11.326 15.092 15.098 15.092 39.581 0 54.679z"/><path d="m681.948 276.993h-76.781c-9.887 0-19.752-3.772-27.298-11.316-15.092-15.098-15.092-39.581 0-54.679 7.557-7.554 17.455-11.326 27.354-11.326s19.797 3.772 27.354 11.326c7.557 7.555 11.33 17.439 11.33 27.345 0 9.907 3.762 19.791 11.319 27.346 7.391 7.388 17.034 11.159 26.733 11.315z"/><path d="m864.605 265.689c-7.557 7.554-17.444 11.326-27.354 11.315h-.621c-9.699-.144-19.343-3.927-26.733-11.315-7.557-7.555-11.319-17.439-11.319-27.346 0-9.906-3.773-19.79-11.33-27.345-7.557-7.554-17.456-11.326-27.354-11.326h77.346c9.91 0 19.797 3.772 27.354 11.326 15.092 15.098 15.092 39.581 0 54.679z"/><path d="m836.63 276.993h-76.781c-9.887 0-19.753-3.772-27.299-11.316-15.092-15.098-15.092-39.581 0-54.679 7.558-7.554 17.456-11.326 27.355-11.326 9.898 0 19.797 3.772 27.354 11.326 7.557 7.555 11.33 17.439 11.33 27.345 0 9.907 3.762 19.791 11.319 27.346 7.391 7.388 17.034 11.159 26.733 11.315z"/><path d="m594.514 343.009c-7.557 7.555-17.444 11.327-27.354 11.315h-.621c-9.699-.144-19.342-3.927-26.733-11.315-7.557-7.554-11.319-17.439-11.319-27.345s-3.773-19.79-11.33-27.345-17.456-11.326-27.354-11.326h77.346c9.91 0 19.797 3.771 27.354 11.326 15.092 15.098 15.092 39.581 0 54.679z"/><path d="m566.55 354.324h-76.792c-9.887 0-19.752-3.771-27.298-11.315-15.092-15.098-15.092-39.581 0-54.679 7.557-7.555 17.455-11.326 27.354-11.326 9.898 0 19.797 3.771 27.354 11.326s11.33 17.439 11.33 27.345 3.762 19.791 11.319 27.345c7.391 7.388 17.034 11.16 26.733 11.315z"/><path d="m749.206 343.009c-7.557 7.555-17.445 11.327-27.354 11.315h-.622c-9.699-.144-19.342-3.927-26.733-11.315-7.557-7.554-11.319-17.439-11.319-27.345s-3.773-19.79-11.33-27.345-17.455-11.326-27.354-11.326h77.346c9.91 0 19.798 3.771 27.355 11.326 15.092 15.098 15.092 39.581 0 54.679z"/><path d="m721.23 354.324h-76.78c-9.888 0-19.753-3.771-27.299-11.315-15.092-15.098-15.092-39.581 0-54.679 7.557-7.555 17.456-11.326 27.354-11.326 9.899 0 19.797 3.771 27.354 11.326 7.558 7.555 11.33 17.439 11.33 27.345s3.762 19.791 11.319 27.345c7.391 7.388 17.034 11.16 26.733 11.315z"/><path d="m903.888 343.009c-7.557 7.555-17.444 11.327-27.354 11.315h-.621c-9.699-.144-19.342-3.927-26.733-11.315-7.557-7.554-11.319-17.439-11.319-27.345s-3.773-19.79-11.33-27.345-17.456-11.326-27.354-11.326h77.346c9.91 0 19.797 3.771 27.354 11.326 15.092 15.098 15.092 39.581 0 54.679z"/><path d="m875.924 354.324h-76.781c-9.887 0-19.753-3.771-27.299-11.315-15.092-15.098-15.092-39.581 0-54.679 7.557-7.555 17.456-11.326 27.355-11.326 9.898 0 19.797 3.771 27.354 11.326s11.33 17.439 11.33 27.345 3.762 19.791 11.319 27.345c7.39 7.388 17.034 11.16 26.733 11.315z"/><path d="m555.23 420.674c-7.557 7.554-17.444 11.326-27.354 11.315h-.621c-9.699-.144-19.343-3.927-26.733-11.315-7.557-7.555-11.319-17.439-11.319-27.345 0-9.907-3.773-19.791-11.33-27.345-7.557-7.555-17.456-11.327-27.354-11.327h77.357c9.91 0 19.797 3.772 27.354 11.327 15.092 15.098 15.092 39.581 0 54.679z"/><path d="m527.255 431.989h-76.781c-9.887 0-19.753-3.772-27.299-11.315-15.092-15.098-15.092-39.581 0-54.679 7.558-7.555 17.456-11.327 27.355-11.327 9.898 0 19.797 3.772 27.354 11.327 7.557 7.554 11.33 17.438 11.33 27.345 0 9.906 3.762 19.79 11.319 27.345 7.391 7.388 17.034 11.16 26.733 11.315z"/><path d="m709.913 420.674c-7.557 7.554-17.445 11.326-27.354 11.315h-.622c-9.699-.144-19.342-3.927-26.733-11.315-7.557-7.555-11.319-17.439-11.319-27.345 0-9.907-3.773-19.791-11.33-27.345-7.557-7.555-17.455-11.327-27.354-11.327h77.347c9.909 0 19.797 3.772 27.354 11.327 15.092 15.098 15.092 39.581 0 54.679z"/><path d="m681.948 431.989h-76.781c-9.887 0-19.752-3.772-27.298-11.315-15.092-15.098-15.092-39.581 0-54.679 7.557-7.555 17.455-11.327 27.354-11.327s19.797 3.772 27.354 11.327c7.557 7.554 11.33 17.438 11.33 27.345 0 9.906 3.762 19.79 11.319 27.345 7.391 7.388 17.034 11.16 26.733 11.315z"/><path d="m864.605 420.674c-7.557 7.554-17.444 11.326-27.354 11.315h-.621c-9.699-.144-19.343-3.927-26.733-11.315-7.557-7.555-11.319-17.439-11.319-27.345 0-9.907-3.773-19.791-11.33-27.345-7.557-7.555-17.456-11.327-27.354-11.327h77.346c9.91 0 19.797 3.772 27.354 11.327 15.092 15.098 15.092 39.581 0 54.679z"/><path d="m836.63 431.989h-76.781c-9.887 0-19.753-3.772-27.299-11.315-15.092-15.098-15.092-39.581 0-54.679 7.558-7.555 17.456-11.327 27.355-11.327 9.898 0 19.797 3.772 27.354 11.327 7.557 7.554 11.33 17.438 11.33 27.345 0 9.906 3.762 19.79 11.319 27.345 7.391 7.388 17.034 11.16 26.733 11.315z"/><path d="m594.514 498.017c-7.557 7.554-17.444 11.326-27.354 11.315h-.621c-9.699-.144-19.342-3.927-26.733-11.315-7.557-7.555-11.319-17.439-11.319-27.346 0-9.906-3.773-19.79-11.33-27.345-7.557-7.554-17.456-11.326-27.354-11.326h77.346c9.91 0 19.797 3.772 27.354 11.326 15.092 15.098 15.092 39.581 0 54.679z"/><path d="m566.55 509.332h-76.792c-9.887 0-19.752-3.772-27.298-11.315-15.092-15.098-15.092-39.581 0-54.679 7.557-7.555 17.455-11.327 27.354-11.327 9.898 0 19.797 3.772 27.354 11.327 7.557 7.554 11.33 17.438 11.33 27.345 0 9.906 3.762 19.79 11.319 27.345 7.391 7.388 17.034 11.16 26.733 11.315z"/><path d="m749.206 498.017c-7.557 7.554-17.445 11.326-27.354 11.315h-.622c-9.699-.144-19.342-3.927-26.733-11.315-7.557-7.555-11.319-17.439-11.319-27.346 0-9.906-3.773-19.79-11.33-27.345-7.557-7.554-17.455-11.326-27.354-11.326h77.346c9.91 0 19.798 3.772 27.355 11.326 15.092 15.098 15.092 39.581 0 54.679z"/><path d="m721.23 509.332h-76.78c-9.888 0-19.753-3.772-27.299-11.315-15.092-15.098-15.092-39.581 0-54.679 7.557-7.555 17.456-11.327 27.354-11.327 9.899 0 19.797 3.772 27.354 11.327 7.558 7.554 11.33 17.438 11.33 27.345 0 9.906 3.762 19.79 11.319 27.345 7.391 7.388 17.034 11.16 26.733 11.315z"/><path d="m903.888 498.017c-7.557 7.554-17.444 11.326-27.354 11.315h-.621c-9.699-.144-19.342-3.927-26.733-11.315-7.557-7.555-11.319-17.439-11.319-27.346 0-9.906-3.773-19.79-11.33-27.345-7.557-7.554-17.456-11.326-27.354-11.326h77.346c9.91 0 19.797 3.772 27.354 11.326 15.092 15.098 15.092 39.581 0 54.679z"/><path d="m875.924 509.332h-76.781c-9.887 0-19.753-3.772-27.299-11.315-15.092-15.098-15.092-39.581 0-54.679 7.557-7.555 17.456-11.327 27.355-11.327 9.898 0 19.797 3.772 27.354 11.327 7.557 7.554 11.33 17.438 11.33 27.345 0 9.906 3.762 19.79 11.319 27.345 7.39 7.388 17.034 11.16 26.733 11.315z"/><path d="m555.23 575.692c-7.557 7.555-17.444 11.327-27.354 11.316h-.621c-9.699-.145-19.343-3.927-26.733-11.316-7.557-7.554-11.319-17.438-11.319-27.345 0-9.906-3.773-19.79-11.33-27.345-7.557-7.554-17.456-11.326-27.354-11.326h77.357c9.91 0 19.797 3.772 27.354 11.326 15.092 15.098 15.092 39.581 0 54.679z"/><path d="m527.255 587.007h-76.781c-9.887 0-19.753-3.771-27.299-11.315-15.092-15.098-15.092-39.581 0-54.679 7.558-7.554 17.456-11.326 27.355-11.326 9.898 0 19.797 3.772 27.354 11.326 7.557 7.555 11.33 17.439 11.33 27.345 0 9.907 3.762 19.791 11.319 27.345 7.391 7.388 17.034 11.16 26.733 11.316z"/><path d="m709.913 575.692c-7.557 7.555-17.445 11.327-27.354 11.316h-.622c-9.699-.145-19.342-3.927-26.733-11.316-7.557-7.554-11.319-17.438-11.319-27.345 0-9.906-3.773-19.79-11.33-27.345-7.557-7.554-17.455-11.326-27.354-11.326h77.347c9.909 0 19.797 3.772 27.354 11.326 15.092 15.098 15.092 39.581 0 54.679z"/><path d="m681.948 587.007h-76.781c-9.887 0-19.752-3.771-27.298-11.315-15.092-15.098-15.092-39.581 0-54.679 7.557-7.554 17.455-11.326 27.354-11.326s19.797 3.772 27.354 11.326c7.557 7.555 11.33 17.439 11.33 27.345 0 9.907 3.762 19.791 11.319 27.345 7.391 7.388 17.034 11.16 26.733 11.316z"/><path d="m864.605 575.692c-7.557 7.555-17.444 11.327-27.354 11.316h-.621c-9.699-.145-19.343-3.927-26.733-11.316-7.557-7.554-11.319-17.438-11.319-27.345 0-9.906-3.773-19.79-11.33-27.345-7.557-7.554-17.456-11.326-27.354-11.326h77.346c9.91 0 19.797 3.772 27.354 11.326 15.092 15.098 15.092 39.581 0 54.679z"/><path d="m836.63 587.007h-76.781c-9.887 0-19.753-3.771-27.299-11.315-15.092-15.098-15.092-39.581 0-54.679 7.558-7.554 17.456-11.326 27.355-11.326 9.898 0 19.797 3.772 27.354 11.326 7.557 7.555 11.33 17.439 11.33 27.345 0 9.907 3.762 19.791 11.319 27.345 7.391 7.388 17.034 11.16 26.733 11.316z"/><path d="m594.514 653.013c-7.557 7.554-17.444 11.326-27.354 11.315h-.621c-9.699-.144-19.342-3.927-26.733-11.315-7.557-7.555-11.319-17.439-11.319-27.345 0-9.907-3.773-19.791-11.33-27.345-7.557-7.555-17.456-11.327-27.354-11.327h77.346c9.91 0 19.797 3.772 27.354 11.327 15.092 15.098 15.092 39.581 0 54.679z"/><path d="m566.55 664.328h-76.792c-9.887 0-19.752-3.772-27.298-11.315-15.092-15.098-15.092-39.581 0-54.679 7.557-7.555 17.455-11.327 27.354-11.327 9.898 0 19.797 3.772 27.354 11.327 7.557 7.554 11.33 17.438 11.33 27.345 0 9.906 3.762 19.79 11.319 27.345 7.391 7.388 17.034 11.16 26.733 11.315z"/><path d="m749.206 653.013c-7.557 7.554-17.445 11.326-27.354 11.315h-.622c-9.699-.144-19.342-3.927-26.733-11.315-7.557-7.555-11.319-17.439-11.319-27.345 0-9.907-3.773-19.791-11.33-27.345-7.557-7.555-17.455-11.327-27.354-11.327h77.346c9.91 0 19.798 3.772 27.355 11.327 15.092 15.098 15.092 39.581 0 54.679z"/><path d="m721.23 664.328h-76.78c-9.888 0-19.753-3.772-27.299-11.315-15.092-15.098-15.092-39.581 0-54.679 7.557-7.555 17.456-11.327 27.354-11.327 9.899 0 19.797 3.772 27.354 11.327 7.558 7.554 11.33 17.438 11.33 27.345 0 9.906 3.762 19.79 11.319 27.345 7.391 7.388 17.034 11.16 26.733 11.315z"/><path d="m903.888 653.013c-7.557 7.554-17.444 11.326-27.354 11.315h-.621c-9.699-.144-19.342-3.927-26.733-11.315-7.557-7.555-11.319-17.439-11.319-27.345 0-9.907-3.773-19.791-11.33-27.345-7.557-7.555-17.456-11.327-27.354-11.327h77.346c9.91 0 19.797 3.772 27.354 11.327 15.092 15.098 15.092 39.581 0 54.679z"/><path d="m875.924 664.328h-76.781c-9.887 0-19.753-3.772-27.299-11.315-15.092-15.098-15.092-39.581 0-54.679 7.557-7.555 17.456-11.327 27.355-11.327 9.898 0 19.797 3.772 27.354 11.327 7.557 7.554 11.33 17.438 11.33 27.345 0 9.906 3.762 19.79 11.319 27.345 7.39 7.388 17.034 11.16 26.733 11.315z"/><path d="m555.23 730.688c-7.557 7.555-17.444 11.327-27.354 11.316h-.621c-9.699-.145-19.343-3.927-26.733-11.316-7.557-7.554-11.319-17.438-11.319-27.345 0-9.906-3.773-19.79-11.33-27.345-7.557-7.554-17.456-11.326-27.354-11.326h77.357c9.91 0 19.797 3.772 27.354 11.326 15.092 15.098 15.092 39.581 0 54.679z"/><path d="m527.255 741.993h-76.781c-9.887 0-19.753-3.772-27.299-11.316-15.092-15.098-15.092-39.581 0-54.679 7.558-7.554 17.456-11.326 27.355-11.326 9.898 0 19.797 3.772 27.354 11.326 7.557 7.555 11.33 17.439 11.33 27.345 0 9.907 3.762 19.791 11.319 27.345 7.391 7.389 17.034 11.16 26.733 11.316z"/><path d="m709.913 730.688c-7.557 7.555-17.445 11.327-27.354 11.316h-.622c-9.699-.145-19.342-3.927-26.733-11.316-7.557-7.554-11.319-17.438-11.319-27.345 0-9.906-3.773-19.79-11.33-27.345-7.557-7.554-17.455-11.326-27.354-11.326h77.347c9.909 0 19.797 3.772 27.354 11.326 15.092 15.098 15.092 39.581 0 54.679z"/><path d="m681.948 741.993h-76.781c-9.887 0-19.752-3.772-27.298-11.316-15.092-15.098-15.092-39.581 0-54.679 7.557-7.554 17.455-11.326 27.354-11.326s19.797 3.772 27.354 11.326c7.557 7.555 11.33 17.439 11.33 27.345 0 9.907 3.762 19.791 11.319 27.345 7.391 7.389 17.034 11.16 26.733 11.316z"/><path d="m864.605 730.688c-7.557 7.555-17.444 11.327-27.354 11.316h-.621c-9.699-.145-19.343-3.927-26.733-11.316-7.557-7.554-11.319-17.438-11.319-27.345 0-9.906-3.773-19.79-11.33-27.345-7.557-7.554-17.456-11.326-27.354-11.326h77.346c9.91 0 19.797 3.772 27.354 11.326 15.092 15.098 15.092 39.581 0 54.679z"/><path d="m836.63 741.993h-76.781c-9.887 0-19.753-3.772-27.299-11.316-15.092-15.098-15.092-39.581 0-54.679 7.558-7.554 17.456-11.326 27.355-11.326 9.898 0 19.797 3.772 27.354 11.326 7.557 7.555 11.33 17.439 11.33 27.345 0 9.907 3.762 19.791 11.319 27.345 7.391 7.389 17.034 11.16 26.733 11.316z"/><path d="m594.514 808.009c-7.557 7.555-17.444 11.327-27.354 11.315h-.621c-9.699-.144-19.342-3.927-26.733-11.315-7.557-7.554-11.319-17.439-11.319-27.345s-3.773-19.79-11.33-27.345-17.456-11.326-27.354-11.326h77.346c9.91 0 19.797 3.771 27.354 11.326 15.092 15.098 15.092 39.581 0 54.679z"/><path d="m566.55 819.324h-76.792c-9.887 0-19.752-3.771-27.298-11.315-15.092-15.098-15.092-39.581 0-54.679 7.557-7.555 17.455-11.326 27.354-11.326 9.898 0 19.797 3.771 27.354 11.326s11.33 17.439 11.33 27.345 3.762 19.791 11.319 27.345c7.391 7.388 17.034 11.16 26.733 11.315z"/><path d="m749.206 808.009c-7.557 7.555-17.445 11.327-27.354 11.315h-.622c-9.699-.144-19.342-3.927-26.733-11.315-7.557-7.554-11.319-17.439-11.319-27.345s-3.773-19.79-11.33-27.345-17.455-11.326-27.354-11.326h77.346c9.91 0 19.798 3.771 27.355 11.326 15.092 15.098 15.092 39.581 0 54.679z"/><path d="m721.23 819.324h-76.78c-9.888 0-19.753-3.771-27.299-11.315-15.092-15.098-15.092-39.581 0-54.679 7.557-7.555 17.456-11.326 27.354-11.326 9.899 0 19.797 3.771 27.354 11.326 7.558 7.555 11.33 17.439 11.33 27.345s3.762 19.791 11.319 27.345c7.391 7.388 17.034 11.16 26.733 11.315z"/><path d="m903.888 808.009c-7.557 7.555-17.444 11.327-27.354 11.315h-.621c-9.699-.144-19.342-3.927-26.733-11.315-7.557-7.554-11.319-17.439-11.319-27.345s-3.773-19.79-11.33-27.345-17.456-11.326-27.354-11.326h77.346c9.91 0 19.797 3.771 27.354 11.326 15.092 15.098 15.092 39.581 0 54.679z"/><path d="m875.924 819.324h-76.781c-9.887 0-19.753-3.771-27.299-11.315-15.092-15.098-15.092-39.581 0-54.679 7.557-7.555 17.456-11.326 27.355-11.326 9.898 0 19.797 3.771 27.354 11.326s11.33 17.439 11.33 27.345 3.762 19.791 11.319 27.345c7.39 7.388 17.034 11.16 26.733 11.315z"/><path d="m555.23 885.674c-7.557 7.554-17.444 11.326-27.354 11.315h-.621c-9.699-.144-19.343-3.927-26.733-11.315-7.557-7.555-11.319-17.439-11.319-27.345 0-9.907-3.773-19.791-11.33-27.345-7.557-7.555-17.456-11.327-27.354-11.327h77.357c9.91 0 19.797 3.772 27.354 11.327 15.092 15.098 15.092 39.581 0 54.679z"/><path d="m527.255 896.989h-76.781c-9.887 0-19.753-3.772-27.299-11.315-15.092-15.098-15.092-39.581 0-54.679 7.558-7.555 17.456-11.327 27.355-11.327 9.898 0 19.797 3.772 27.354 11.327 7.557 7.554 11.33 17.438 11.33 27.345 0 9.906 3.762 19.79 11.319 27.345 7.391 7.388 17.034 11.16 26.733 11.315z"/><path d="m709.913 885.674c-7.557 7.554-17.445 11.326-27.354 11.315h-.622c-9.699-.144-19.342-3.927-26.733-11.315-7.557-7.555-11.319-17.439-11.319-27.345 0-9.907-3.773-19.791-11.33-27.345-7.557-7.555-17.455-11.327-27.354-11.327h77.347c9.909 0 19.797 3.772 27.354 11.327 15.092 15.098 15.092 39.581 0 54.679z"/><path d="m681.948 896.989h-76.781c-9.887 0-19.752-3.772-27.298-11.315-15.092-15.098-15.092-39.581 0-54.679 7.557-7.555 17.455-11.327 27.354-11.327s19.797 3.772 27.354 11.327c7.557 7.554 11.33 17.438 11.33 27.345 0 9.906 3.762 19.79 11.319 27.345 7.391 7.388 17.034 11.16 26.733 11.315z"/><path d="m864.605 885.674c-7.557 7.554-17.444 11.326-27.354 11.315h-.621c-9.699-.144-19.343-3.927-26.733-11.315-7.557-7.555-11.319-17.439-11.319-27.345 0-9.907-3.773-19.791-11.33-27.345-7.557-7.555-17.456-11.327-27.354-11.327h77.346c9.91 0 19.797 3.772 27.354 11.327 15.092 15.098 15.092 39.581 0 54.679z"/><path d="m836.63 896.989h-76.781c-9.887 0-19.753-3.772-27.299-11.315-15.092-15.098-15.092-39.581 0-54.679 7.558-7.555 17.456-11.327 27.355-11.327 9.898 0 19.797 3.772 27.354 11.327 7.557 7.554 11.33 17.438 11.33 27.345 0 9.906 3.762 19.79 11.319 27.345 7.391 7.388 17.034 11.16 26.733 11.315z"/></g></svg>