<svg width="160" height="160" viewBox="0 0 160 160" fill="none" xmlns="http://www.w3.org/2000/svg">
<rect width="160" height="160" fill="#F3F3F3"/>
<path d="M20.6973 89.5727H18.9674C18.8238 89.5727 18.4614 89.5727 18.4614 89.3607C18.4614 89.1488 18.5366 89.1419 18.7486 89.0667C20.3349 88.5676 20.6905 87.6992 20.6905 86.4752V73.5522C20.6905 72.3966 20.3349 71.5009 18.7486 70.9608C18.6817 70.9686 18.6144 70.9502 18.5608 70.9093C18.5072 70.8685 18.4716 70.8085 18.4614 70.7419C18.4614 70.4548 18.8238 70.5231 18.9674 70.5231H33.2306C34.0138 70.4963 34.7944 70.6274 35.5259 70.9086C36.2573 71.1898 36.9247 71.6154 37.4882 72.16C38.0517 72.7045 38.4999 73.3569 38.8059 74.0783C39.112 74.7997 39.2698 75.5754 39.2698 76.359C39.2698 77.1427 39.112 77.9183 38.8059 78.6397C38.4999 79.3611 38.0517 80.0135 37.4882 80.5581C36.9247 81.1026 36.2573 81.5282 35.5259 81.8094C34.7944 82.0906 34.0138 82.2218 33.2306 82.1949H26.0238V86.5915C26.099 87.7471 26.4614 88.5334 27.9725 89.0393C28.1845 89.1146 28.2597 89.183 28.2597 89.3266C28.2597 89.4701 27.8973 89.5454 27.7538 89.5454L20.6973 89.5727ZM130.441 82.5847L127.056 76.8205L126.694 76.2394L123.672 82.5847H130.441ZM127.056 70.4821H129.361L139.015 87.4872C139.283 87.9293 139.654 88.3 140.096 88.5676C140.452 88.7955 140.842 88.9662 141.251 89.0736C141.395 89.1488 141.538 89.2171 141.538 89.3607C141.538 89.5043 141.176 89.5795 141.032 89.5795H132.458C132.314 89.5795 131.884 89.5795 131.884 89.3607C131.884 89.1419 132.027 89.1488 132.171 89.0736C132.37 89.0257 132.554 88.9276 132.705 88.7888C132.855 88.65 132.968 88.475 133.032 88.2804C133.183 87.7744 133.032 87.4872 132.677 86.8377C132.184 85.7983 131.685 84.7864 131.166 83.7402H123.077L123.008 83.8838C122.933 84.171 122.359 85.1829 121.928 86.2633C121.354 87.4188 121.135 87.706 121.244 88.3146C121.32 88.7453 121.675 88.9642 122.113 89.1077C122.256 89.1761 122.325 89.2513 122.325 89.3949C122.325 89.5385 121.962 89.6137 121.819 89.6137H117.86C117.716 89.6137 117.354 89.6137 117.354 89.3949C117.354 89.1761 117.422 89.1761 117.641 89.1077C118.05 89.0004 118.44 88.8297 118.796 88.6018C119.24 88.3378 119.609 87.9662 119.87 87.5214L120.376 86.4411L125.846 74.9812L125.053 73.6137C124.522 72.6639 123.754 71.8677 122.824 71.3026C122.474 71.1545 122.113 71.0355 121.743 70.9471C121.525 70.8719 121.449 70.7966 121.525 70.6531C121.6 70.5095 121.668 70.5847 121.743 70.5095H127.002L127.056 70.4821ZM105.798 89.5043C119.063 89.5043 118.92 70.5505 105.798 70.5505H94.9195C94.7007 70.5505 94.3452 70.4753 94.3452 70.7624C94.3656 70.8235 94.4039 70.877 94.4551 70.916C94.5063 70.955 94.5681 70.9777 94.6324 70.9812C96.2187 71.4872 96.5743 72.3488 96.6837 73.4291V86.6189C96.6084 87.7744 96.2529 88.5676 94.6324 89.0736C94.4888 89.1419 94.3452 89.2171 94.3452 89.3607C94.3452 89.5043 94.7007 89.5795 94.9195 89.5795H101.88V89.5043H105.798ZM105.511 71.918C106.486 71.9198 107.421 72.3079 108.11 72.9974C108.8 73.6869 109.188 74.6216 109.19 75.5966V84.3829C109.188 85.358 108.8 86.2927 108.11 86.9821C107.421 87.6716 106.486 88.0598 105.511 88.0616H101.88V71.8907L105.511 71.918ZM81.4768 82.5847L78.058 76.8205L77.6956 76.2394L74.6734 82.5847H81.4768ZM78.058 70.4821H80.4307L90.0854 87.4872C90.3057 87.9414 90.6585 88.3181 91.0973 88.5676C91.471 88.8095 91.8859 88.9809 92.3213 89.0736C92.4649 89.1488 92.6084 89.2171 92.6084 89.3607C92.6084 89.5043 92.1776 89.5795 92.0341 89.5795H83.4597C83.3161 89.5795 82.9537 89.5795 82.9537 89.3607C82.9537 89.1419 83.0289 89.1488 83.2409 89.0736C83.4321 89.0246 83.6065 88.9251 83.7461 88.7856C83.8856 88.646 83.9851 88.4715 84.0341 88.2804C84.1777 87.7744 84.0341 87.4872 83.7469 86.8377C83.2409 85.7573 82.6665 84.7522 82.1674 83.7402H74.0922L74.017 83.8838C73.9486 84.171 73.4426 85.1829 72.9366 86.2633C72.4306 87.3436 72.1503 87.706 72.2939 88.3146C72.3581 88.5092 72.4709 88.6842 72.6217 88.823C72.7725 88.9618 72.9562 89.0598 73.1554 89.1077C73.299 89.1761 73.4426 89.2513 73.4426 89.3949C73.4426 89.5385 73.0802 89.6137 72.8683 89.6137H68.9777C68.8341 89.6137 68.3965 89.6137 68.3965 89.3949C68.3965 89.1761 68.5401 89.1761 68.6837 89.1077C69.1169 89.0015 69.5317 88.831 69.9144 88.6018C70.3355 88.3325 70.6813 87.9608 70.9195 87.5214L71.4255 86.4411L76.9708 74.9812L76.1845 73.6137C75.6316 72.678 74.8656 71.8861 73.9486 71.3026C73.574 71.1521 73.1875 71.0332 72.7931 70.9471C72.6495 70.8719 72.5059 70.7966 72.5811 70.6531C72.6563 70.5095 72.7931 70.5847 72.8683 70.5095H78.058V70.4821ZM54.2768 83.0907C55.9665 83.6977 57.8018 83.7717 59.5349 83.3026L65.805 88.7112L66.311 89.1419C66.3388 89.1704 66.3595 89.2051 66.3714 89.2431C66.3833 89.2812 66.386 89.3215 66.3794 89.3607C66.3794 89.5727 66.0238 89.5727 65.8802 89.5727H59.2478L54.2768 85.4701L50.2426 82.2223V86.6941C50.311 87.7744 50.7418 88.5676 52.2597 89.0667C52.4033 89.1419 52.4717 89.2103 52.4717 89.3539C52.4717 89.4975 52.1093 89.5727 51.9657 89.5727H43.2477C43.0358 89.5727 42.6734 89.5727 42.6734 89.3539C42.6734 89.1351 42.817 89.1419 42.9606 89.0667C44.6905 88.4924 44.9025 87.624 44.9777 86.2633V73.7642C44.9025 72.4719 44.6905 71.5283 42.9606 70.9608C42.8966 70.9564 42.8352 70.9332 42.7842 70.8944C42.7331 70.8555 42.6946 70.8025 42.6734 70.7419C42.6734 70.4548 43.0358 70.5231 43.2477 70.5231H57.299C58.0628 70.5195 58.8199 70.6665 59.5268 70.9557C60.2338 71.2449 60.8768 71.6706 61.4192 72.2085C61.9615 72.7463 62.3924 73.3859 62.6874 74.0904C62.9824 74.795 63.1357 75.5508 63.1384 76.3146V76.3624C63.1438 77.9027 62.5376 79.3821 61.453 80.4757C60.3684 81.5693 58.894 82.1877 57.3537 82.1949H52.7588C52.9776 82.6257 53.4836 82.7693 53.9144 82.9881C54.058 82.9881 54.1264 83.0633 54.2768 83.0633V83.0907ZM54.8511 80.8548C56.7247 80.8548 58.311 78.8035 58.311 76.2394C58.311 73.6753 56.7247 71.706 54.8511 71.706H50.2358V80.8548H54.8511ZM26.0307 71.706V80.8548H30.817C32.7589 80.8548 34.27 78.8035 34.27 76.2462C34.27 73.6889 32.7589 71.706 30.817 71.706H26.0307Z" fill="#3A3E55"/>
</svg>
