<svg width="158" height="160" viewBox="0 0 158 160" fill="none" xmlns="http://www.w3.org/2000/svg">
<g clip-path="url(#clip0_434_8169)">
<path d="M43.7187 97.0103C53.3038 97.0103 61.0741 89.2169 61.0741 79.6032C61.0741 69.9895 53.3038 62.196 43.7187 62.196C34.1336 62.196 26.3633 69.9895 26.3633 79.6032C26.3633 89.2169 34.1336 97.0103 43.7187 97.0103Z" fill="#D1B1BB"/>
<path d="M112.774 81.3546C134.614 81.3546 152.318 63.5973 152.318 41.6927C152.318 19.788 134.614 2.03082 112.774 2.03082C90.9349 2.03082 73.2305 19.788 73.2305 41.6927C73.2305 63.5973 90.9349 81.3546 112.774 81.3546Z" fill="#DBD4D0"/>
<path d="M88.8567 117.708C88.8567 113.874 86.1033 110.686 82.4857 109.996V109.849H60.634L61.9375 91.5164V91.3549C61.9375 86.8892 58.32 83.2609 53.8676 83.2609C50.6748 83.2609 47.7749 85.1559 46.4861 88.0938L34.4325 115.49H28.5009V111.744C28.5009 110.348 27.3732 109.217 25.9818 109.217H2.5191C1.12773 109.217 0 110.348 0 111.744V153.125C0 154.52 1.12773 155.651 2.5191 155.651H25.9672C27.3585 155.651 28.4863 154.52 28.4863 153.125V148.615H33.0558L34.1542 150.686C37.2152 156.474 44.5528 159.5 50.2354 159.5H70.4907C75.3092 159.5 79.2197 155.578 79.2197 150.745C79.2197 149.672 78.9561 148.674 78.5167 147.763C81.6363 146.735 83.921 143.811 83.921 140.33C83.921 138.699 83.4084 137.201 82.559 135.952C85.0634 134.645 86.7916 132.045 86.7916 129.019C86.7916 127.256 86.1911 125.64 85.2245 124.333C87.4067 122.937 88.8713 120.499 88.8713 117.723L88.8567 117.708ZM24.0925 151.23H4.39377V113.624H24.0925V151.23ZM76.0855 143.782H72.8487C72.7462 143.782 72.6583 143.797 72.5558 143.811C72.4533 143.811 72.3654 143.782 72.2629 143.782C71.0473 143.782 70.066 144.766 70.066 145.985C70.066 147.205 71.0473 148.189 72.2629 148.189C73.6689 148.189 74.8113 149.335 74.8113 150.745C74.8113 153.139 72.8634 155.093 70.4761 155.093H50.2208C45.9149 155.093 40.1737 152.669 38.0208 148.615L36.3804 145.501C35.9703 144.707 35.1502 144.208 34.2568 144.208H28.4863V119.882H35.7214C36.6733 119.882 37.5374 119.309 37.9182 118.442L50.4991 89.8565C51.0849 88.5198 52.4177 87.6531 53.8676 87.6531C55.8741 87.6531 57.5145 89.2689 57.5438 91.2814L55.9181 114.241H81.0211C82.9251 114.241 84.4629 115.784 84.4629 117.693C84.4629 119.603 82.9251 121.145 81.0211 121.145H77.7844C76.5688 121.145 75.5875 122.13 75.5875 123.349C75.5875 124.568 76.5688 125.552 77.7844 125.552H78.9561C80.86 125.552 82.3979 127.095 82.3979 129.004C82.3979 130.914 80.86 132.456 78.9561 132.456H75.7193C74.5037 132.456 73.5224 133.44 73.5224 134.66C73.5224 135.879 74.5037 136.863 75.7193 136.863H76.1001C78.0041 136.863 79.5419 138.406 79.5419 140.315C79.5419 142.225 78.0041 143.767 76.1001 143.767L76.0855 143.782Z" fill="black"/>
<path d="M14.2365 128.901C16.6678 128.901 18.645 126.918 18.645 124.48C18.645 122.041 16.6678 120.058 14.2365 120.058C11.8053 120.058 9.82812 122.041 9.82812 124.48C9.82812 126.918 11.8053 128.901 14.2365 128.901Z" fill="black"/>
<path d="M113.287 41.3369C99.4023 41.3369 88.0957 52.6625 88.0957 66.6029C88.0957 80.5433 99.3877 91.869 113.287 91.869C127.186 91.869 138.478 80.5433 138.478 66.6029C138.478 52.6625 127.186 41.3369 113.287 41.3369ZM113.287 87.4474C101.819 87.4474 92.4895 78.0902 92.4895 66.5882C92.4895 55.0863 101.819 45.729 113.287 45.729C124.754 45.729 134.084 55.0863 134.084 66.5882C134.084 78.0902 124.754 87.4474 113.287 87.4474Z" fill="black"/>
<path d="M155.759 60.257L149.154 59.6547C148.246 54.91 146.371 50.3416 143.706 46.3019L147.909 41.234C148.729 40.2498 148.671 38.8249 147.763 37.8995L142.051 32.1705C141.157 31.2598 139.693 31.201 138.726 32.009L133.717 36.1955C129.69 33.4632 125.12 31.5683 120.36 30.6281L119.774 24.1353C119.657 22.8574 118.603 21.9025 117.328 21.9025H109.244C107.97 21.9025 106.915 22.8574 106.798 24.15L106.212 30.6428C101.452 31.583 96.8828 33.4926 92.8552 36.2102L87.8463 32.0236C86.865 31.201 85.4443 31.2598 84.5217 32.1705L78.8098 37.8995C77.9017 38.8102 77.8431 40.2351 78.6633 41.2193L82.8667 46.2872C80.1865 50.3269 78.3264 54.8806 77.4184 59.64L70.8131 60.2423C69.5389 60.3598 68.5723 61.4175 68.5723 62.6955V70.8041C68.5723 72.0968 69.5389 73.1545 70.8131 73.2573L77.477 73.8596C78.429 78.5602 80.3036 83.0699 82.9838 87.0508L78.6486 92.2656C77.8285 93.2498 77.9017 94.6894 78.7951 95.5855L84.507 101.314C85.4151 102.225 86.8357 102.284 87.817 101.461L93.0456 97.0838C97.0146 99.7279 101.496 101.579 106.154 102.504L106.769 109.35C106.886 110.628 107.94 111.582 109.215 111.582H117.299C118.573 111.582 119.628 110.628 119.745 109.335L120.36 102.504C125.018 101.579 129.499 99.7279 133.468 97.0838L138.697 101.461C139.678 102.284 141.113 102.225 142.007 101.314L147.719 95.5855C148.612 94.6747 148.685 93.2498 147.865 92.2656L143.53 87.0508C146.21 83.0552 148.1 78.5455 149.037 73.8596L155.701 73.2573C156.975 73.1398 157.942 72.0821 157.942 70.8041V62.6955C157.942 61.4028 156.975 60.3451 155.701 60.2423L155.759 60.257ZM153.606 69.0414L147.25 69.6143C146.122 69.7171 145.214 70.5691 145.024 71.7002C144.233 76.724 142.212 81.5569 139.18 85.67C138.492 86.5954 138.536 87.8734 139.268 88.7548L143.413 93.7346L140.191 96.9516L135.196 92.7797C134.318 92.0453 133.058 92.0012 132.135 92.6769C128.035 95.6589 123.231 97.6567 118.237 98.4205C117.109 98.5968 116.245 99.5223 116.142 100.653L115.556 107.176H111.016L110.43 100.668C110.328 99.5223 109.478 98.5968 108.336 98.4205C103.342 97.642 98.5378 95.6589 94.4369 92.6769C93.5142 92.0012 92.2693 92.0453 91.3906 92.7797L86.3963 96.9516L83.1889 93.7346L87.319 88.7695C88.066 87.8881 88.0953 86.6101 87.4215 85.6847C84.4045 81.5716 82.3834 76.7387 81.5778 71.7149C81.4021 70.5838 80.494 69.7171 79.3517 69.6143L72.9953 69.0414V64.4876L79.3077 63.9147C80.4501 63.8119 81.3728 62.9452 81.5339 61.7994C82.2955 56.7168 84.2873 51.8399 87.2897 47.6827C87.9634 46.7573 87.9341 45.494 87.1872 44.6126L83.1742 39.7944L86.3817 36.5774L91.1563 40.573C92.035 41.3075 93.2946 41.3515 94.2172 40.6611C98.362 37.591 103.254 35.5491 108.336 34.7706C109.464 34.5943 110.328 33.6836 110.445 32.5378L111.001 26.3535H115.542L116.098 32.5525C116.215 33.6836 117.079 34.609 118.193 34.7706C123.289 35.5638 128.166 37.591 132.311 40.6611C133.234 41.3515 134.493 41.3075 135.387 40.573L140.161 36.5774L143.384 39.7944L139.371 44.6126C138.638 45.494 138.594 46.7573 139.268 47.6827C142.285 51.8399 144.277 56.7315 145.039 61.8141C145.214 62.9452 146.122 63.8266 147.265 63.9294L153.577 64.5023V69.0561L153.606 69.0414Z" fill="black"/>
<path d="M28.8086 52.1484C30.8297 52.9122 32.9387 53.2942 35.0477 53.2942C37.5082 53.2942 39.9541 52.7653 42.2682 51.7224C46.5594 49.7833 49.8254 46.2872 51.4951 41.8804C53.1647 37.4735 53.0183 32.67 51.085 28.3806C49.1517 24.0766 45.666 20.8008 41.2722 19.1262C36.8785 17.4516 32.1039 17.5985 27.8127 19.5375C23.5214 21.4765 20.2554 24.9727 18.5857 29.3795C16.9161 33.7864 17.0626 38.5899 18.9958 42.8792C20.9291 47.1833 24.4148 50.4591 28.8086 52.1337V52.1484ZM22.6866 30.9513C23.9315 27.6462 26.392 25.0167 29.6141 23.5625C31.3423 22.7839 33.1877 22.3873 35.0331 22.3873C36.6148 22.3873 38.1966 22.6811 39.7198 23.254C43.0151 24.5026 45.6367 26.9704 47.0867 30.2021C48.5366 33.4192 48.6391 37.0181 47.3942 40.338C46.1493 43.6431 43.6888 46.2725 40.4667 47.7268C37.2446 49.1811 33.671 49.2986 30.361 48.0353C27.0657 46.7867 24.4441 44.3188 22.9942 41.0871C21.5442 37.8554 21.4417 34.2712 22.6866 30.9513Z" fill="black"/>
<path d="M1.31845 31.348L8.8318 35.4317C8.8318 35.9605 8.8318 36.4894 8.87574 37.0182L1.47956 41.6454C0.410405 42.3064 0.000320075 43.6726 0.512927 44.8183L5.15568 55.1451C5.66828 56.2909 6.97177 56.8785 8.15809 56.5259L16.3451 54.0875C16.7113 54.4547 17.0921 54.8219 17.5022 55.1745L15.5396 63.6945C15.2614 64.9137 15.9351 66.177 17.1067 66.6177L27.6664 70.6279C27.9594 70.7308 28.2523 70.7895 28.5452 70.7895C29.4532 70.7895 30.3173 70.3048 30.7714 69.4675L34.8429 61.9317C35.3848 61.9317 35.8974 61.9317 36.4247 61.9023L41.0381 69.3206C41.6972 70.3782 43.0593 70.7895 44.2017 70.2901L54.4831 65.6482C55.6401 65.134 56.2259 63.8267 55.8744 62.6221L53.4432 54.4106C53.8094 54.0434 54.1755 53.6615 54.527 53.2502L63.0216 55.2186C64.2373 55.4977 65.4968 54.8219 65.9362 53.6615L69.9345 43.085C70.3885 41.9098 69.8906 40.5584 68.7775 39.9561L61.2641 35.8724C61.2641 35.3436 61.2641 34.8147 61.2202 34.2859L68.6017 29.6587C69.6709 28.9977 70.081 27.6315 69.5684 26.4858L64.9256 16.159C64.413 15.0132 63.1095 14.4256 61.9232 14.7782L53.7361 17.2166C53.37 16.8494 52.9892 16.4821 52.5791 16.1296L54.5417 7.60964C54.8199 6.39041 54.1462 5.1271 52.9746 4.68642L42.4295 0.661472C41.2578 0.220784 39.9251 0.72023 39.3246 1.82195L35.253 9.3577C34.7111 9.3577 34.1985 9.3577 33.6713 9.38708L29.0578 1.96884C28.3987 0.911194 27.0367 0.499886 25.8943 1.01402L15.6129 5.67062C14.4705 6.18475 13.87 7.49213 14.2361 8.68198L16.6674 16.8935C16.3012 17.2607 15.9351 17.6426 15.5836 18.0539L7.08894 16.0855C5.85868 15.8064 4.61378 16.4821 4.1744 17.6573L0.161425 28.2191C-0.292598 29.3943 0.205363 30.7457 1.31845 31.3333V31.348ZM7.68942 20.7568L15.7007 22.6224C16.6381 22.8427 17.6047 22.5196 18.2052 21.7704C18.9521 20.8449 19.6991 20.0664 20.4899 19.3466C21.1929 18.7003 21.4859 17.6867 21.2076 16.7759L18.9082 9.01984L26.2018 5.71469L30.537 12.6775C31.035 13.4855 31.9577 13.9702 32.9243 13.8674C34.0374 13.7646 35.1505 13.7352 36.2343 13.794C37.1863 13.838 38.1236 13.3239 38.5776 12.4866L42.4149 5.37683L49.8989 8.21191L48.0389 16.2471C47.8192 17.1872 48.1414 18.1568 48.8884 18.7737C49.7964 19.5229 50.5873 20.2721 51.2903 21.0506C51.9347 21.7704 52.9453 22.0642 53.868 21.7851L61.5863 19.4788L64.8817 26.7942L57.9102 31.157C57.1047 31.6712 56.6507 32.5819 56.7532 33.5367C56.8557 34.6532 56.885 35.7696 56.8264 36.8419C56.7678 37.8261 57.2804 38.7515 58.1299 39.2069L65.2185 43.0556L62.3919 50.562L54.3806 48.6964C53.4432 48.476 52.4619 48.8139 51.8761 49.5484C51.1292 50.4738 50.3822 51.2524 49.6206 51.9428C48.8884 52.5891 48.6101 53.6027 48.8884 54.5428L51.1878 62.2989L43.8941 65.6041L39.5443 58.6119C39.0317 57.7892 38.0943 57.3339 37.1716 57.4367C36.0585 57.5395 34.9601 57.5689 33.8617 57.5101C32.9097 57.4514 31.9723 57.9802 31.5183 58.8175L27.6811 65.942L20.197 63.0922L22.0571 55.0423C22.2621 54.1022 21.9252 53.1473 21.1929 52.5451C20.2849 51.7959 19.494 51.0467 18.791 50.2682C18.1466 49.5484 17.136 49.2546 16.2133 49.5337L8.49494 51.84L5.19962 44.5246L12.1564 40.1617C12.9766 39.6476 13.4306 38.7369 13.3281 37.782C13.2256 36.6656 13.1963 35.5492 13.2549 34.4769C13.3134 33.5074 12.8008 32.5819 11.9514 32.1119L4.86276 28.2632L7.68942 20.7568Z" fill="black"/>
<path d="M32.484 42.4092C33.3188 42.7176 34.1829 42.8792 35.047 42.8792C36.0576 42.8792 37.0682 42.6589 38.0055 42.2329C39.763 41.4396 41.1105 40.0001 41.7842 38.1932C42.4725 36.3864 42.3993 34.418 41.6084 32.6553C40.8175 30.8925 39.3822 29.5411 37.5808 28.8654C35.7793 28.1896 33.8168 28.2484 32.0593 29.0416C28.4271 30.6869 26.8161 34.9762 28.4417 38.6192C29.2326 40.382 30.6679 41.7334 32.4694 42.4092H32.484ZM33.8754 33.0666C34.2415 32.905 34.637 32.8169 35.0324 32.8169C35.3693 32.8169 35.7061 32.8756 36.0283 33.0078C36.7313 33.2722 37.2879 33.8011 37.5954 34.4915C37.903 35.1819 37.9323 35.9457 37.654 36.6508C37.3904 37.3559 36.8631 37.9141 36.1748 38.2226C35.4864 38.5311 34.7248 38.5605 34.0218 38.2961C33.3188 38.0317 32.7623 37.5028 32.4547 36.8124C31.8103 35.3875 32.4547 33.7129 33.8607 33.0666H33.8754Z" fill="black"/>
<path d="M117.299 56.1439C114.472 55.0716 111.397 55.1597 108.643 56.4084C105.89 57.657 103.781 59.9045 102.712 62.7396C101.643 65.5746 101.73 68.6595 102.975 71.4211C104.22 74.1827 106.461 76.298 109.288 77.3704C110.591 77.8698 111.953 78.1196 113.301 78.1196C114.882 78.1196 116.464 77.7817 117.943 77.106C123.641 74.5353 126.174 67.7928 123.611 62.0932C122.366 59.3316 120.126 57.2163 117.299 56.1439ZM116.142 73.0957C112.656 74.6675 108.555 73.1104 106.974 69.6143C106.212 67.925 106.153 66.03 106.813 64.2967C107.472 62.5633 108.76 61.1825 110.445 60.4186C112.129 59.6548 114.018 59.596 115.747 60.257C117.475 60.9181 118.851 62.2107 119.613 63.9C121.18 67.3962 119.613 71.5092 116.142 73.0957Z" fill="black"/>
</g>
<defs>
<clipPath id="clip0_434_8169">
<rect width="158" height="159" fill="white" transform="translate(0 0.499817)"/>
</clipPath>
</defs>
</svg>
