<svg width="864" height="865" viewBox="0 0 864 865" fill="none" xmlns="http://www.w3.org/2000/svg">
<path d="M431.977 46.7904L385.954 0.6875H380.464L357.112 24.0414C355.344 20.3041 352.925 16.8615 349.917 13.8376C343.032 6.95241 333.883 3.15315 324.161 3.15315H324.145C309.538 3.15315 296.916 11.8217 291.117 24.274L267.563 0.6875H262.073L216.019 46.7904L169.981 0.6875H164.492L141.139 24.0414C139.371 20.3041 136.952 16.8615 133.944 13.8376C127.059 6.95241 117.91 3.15315 108.188 3.15315H108.172C93.5655 3.15315 80.9588 11.8217 75.1439 24.274L51.5897 0.6875H46.1005L0 46.837V52.2335L23.4922 75.7269C19.8016 77.4947 16.3902 79.8828 13.413 82.8757C6.52818 89.7609 2.74463 98.9102 2.74463 108.649C2.74463 123.163 11.2576 135.709 23.5232 141.586L0 165.157V170.523L46.116 216.687L0 262.852V268.249L23.4922 291.727C19.8016 293.495 16.3902 295.898 13.413 298.876C6.52818 305.761 2.74463 314.926 2.74463 324.664C2.74463 339.163 11.2576 351.724 23.5232 357.586L0 381.173V386.538L46.085 432.687H51.6052L75.0819 409.163C76.8651 412.962 79.2996 416.467 82.3544 419.537C89.2392 426.423 98.388 430.206 108.11 430.206H108.126C122.671 430.206 135.262 421.615 141.093 409.241L164.476 432.687H169.996L216.05 386.585L262.089 432.687H267.609L291.086 409.163C292.869 412.962 295.303 416.467 298.358 419.537C305.243 426.423 314.392 430.206 324.114 430.206C331.387 430.206 338.179 428.066 343.869 424.36C349.56 420.669 354.166 415.428 357.081 409.241L380.48 432.687H386L432.039 386.585V381.126L408.671 357.695C421.014 351.848 429.558 339.272 429.558 324.726C429.558 310.18 420.983 297.558 408.609 291.727L432.039 268.296V262.806L385.985 216.703L432.039 170.569V165.11L408.671 141.695C421.014 135.848 429.558 123.257 429.558 108.726C429.558 94.196 420.983 81.5576 408.609 75.7114L432.039 52.28V46.7904H431.977ZM356.709 39.6261C356.709 47.9225 353.561 55.49 348.444 61.2432L336.923 49.7213L355.546 31.0971C356.29 33.8419 356.709 36.6953 356.709 39.6261V39.6261ZM326.502 357.369C325.696 357.307 324.89 357.276 324.083 357.276C323.277 357.276 322.533 357.307 321.773 357.353L291.52 357.307V326.494C291.551 325.889 291.566 325.285 291.566 324.664C291.566 324.044 291.551 323.455 291.52 322.85V292.099L356.476 292.208V357.415L326.487 357.369H326.502ZM353.809 361.292L348.459 366.642C346.087 364.502 343.466 362.703 340.675 361.261L353.809 361.292ZM307.662 361.199C304.731 362.688 302.033 364.549 299.63 366.735L294.094 361.184H307.662V361.199ZM279.316 346.405L264.988 332.061L242.411 354.671C230.766 349.708 222.579 338.14 222.579 324.68C222.579 311.219 230.75 299.667 242.38 294.689L265.019 317.329L279.347 302.985C284.325 308.537 287.411 315.794 287.643 323.765V325.595C287.411 333.581 284.309 340.854 279.316 346.405ZM287.643 341.117V354.733L282.092 349.181C284.278 346.762 286.155 344.048 287.643 341.117ZM276.572 349.15C270.834 354.19 263.345 357.276 255.126 357.276C252.134 357.276 249.25 356.826 246.489 356.066L264.988 337.535L276.572 349.15V349.15ZM246.474 293.293C249.234 292.533 252.134 292.084 255.126 292.084C263.36 292.084 270.865 295.185 276.603 300.24L265.019 311.84L246.474 293.293V293.293ZM282.123 300.209L287.643 294.689V308.258C286.155 305.327 284.294 302.613 282.123 300.209ZM279.363 297.48C272.928 291.727 264.43 288.207 255.126 288.207C251.017 288.207 247.048 288.905 243.357 290.176L218.748 265.566L264.802 219.463L289.566 244.228C288.372 247.826 287.721 251.656 287.721 255.657C287.721 264.682 290.977 273.211 296.932 279.895L279.363 297.48V297.48ZM167.035 332.061L152.769 346.328C147.667 340.575 144.55 333.023 144.55 324.742C144.55 316.461 147.683 308.878 152.8 303.125L167.004 317.329L189.643 294.673C201.381 299.605 209.646 311.219 209.646 324.742C209.646 338.264 201.412 349.832 189.721 354.779L167.035 332.061ZM185.611 356.159C182.898 356.904 180.045 357.338 177.098 357.338C168.818 357.338 161.266 354.19 155.513 349.073L167.035 337.535L185.611 356.159V356.159ZM150.009 349.104L144.38 354.733V340.761C145.868 343.8 147.776 346.607 150.009 349.104ZM144.38 308.723V294.689L150.04 300.349C147.791 302.846 145.884 305.668 144.38 308.723ZM155.544 300.38C161.297 295.278 168.833 292.146 177.098 292.146C180.014 292.146 182.836 292.58 185.534 293.309L167.004 311.84L155.544 300.38ZM188.666 290.176C185.038 288.951 181.145 288.269 177.098 288.269C167.763 288.269 159.235 291.804 152.784 297.604L135.231 280.034C141.046 273.568 144.597 265.023 144.597 255.657C144.597 251.625 143.93 247.702 142.69 243.996L167.221 219.448L213.275 265.566L188.666 290.176ZM110.529 357.384C109.723 357.322 108.917 357.291 108.11 357.291C107.304 357.291 106.575 357.322 105.816 357.369L75.5471 357.307V326.448C75.5781 325.858 75.5936 325.269 75.5936 324.68C75.5936 324.09 75.5781 323.501 75.5471 322.927V292.115L140.503 292.223V357.431L110.514 357.384H110.529ZM137.836 361.308L132.486 366.658C130.114 364.518 127.493 362.719 124.702 361.277L137.836 361.308ZM91.6892 361.215C88.774 362.703 86.0604 364.564 83.6569 366.751L78.1211 361.199H91.6892V361.215ZM75.5471 106.927V76.1146L140.503 76.2386V141.446L110.529 141.384C109.723 141.338 108.917 141.291 108.095 141.291C107.32 141.291 106.544 141.322 105.785 141.384L75.5316 141.322V110.448C75.5626 109.874 75.5781 109.285 75.5781 108.68C75.5781 108.075 75.5626 107.517 75.5316 106.927H75.5471ZM78.1056 72.2378L83.6879 66.6552C86.1689 68.9192 88.9136 70.7956 91.8443 72.2688L78.1056 72.2378V72.2378ZM124.346 72.3308C127.307 70.8421 130.052 68.9813 132.502 66.7792L138.069 72.3463H124.346V72.3308ZM167.019 101.314L189.658 78.6733C201.397 83.6046 209.662 95.2195 209.662 108.742C209.662 122.264 201.428 133.832 189.736 138.779L167.05 116.046L152.784 130.328C147.683 124.559 144.566 117.023 144.566 108.726C144.566 100.43 147.698 92.8779 152.815 87.1092L167.019 101.314ZM155.56 84.3644C161.313 79.2626 168.849 76.1456 177.114 76.1456C180.029 76.1456 182.851 76.5643 185.549 77.2931L167.019 95.8398L155.56 84.3644V84.3644ZM185.627 140.159C182.913 140.888 180.06 141.322 177.114 141.322C168.833 141.322 161.282 138.19 155.529 133.073L167.05 121.535L185.627 140.159V140.159ZM144.395 92.7073V78.6733L150.055 84.3489C147.807 86.8456 145.9 89.6524 144.395 92.7073V92.7073ZM150.024 133.088L144.395 138.733V124.745C145.884 127.8 147.791 130.591 150.024 133.088ZM152.769 135.833C159.219 141.648 167.763 145.199 177.114 145.199C181.177 145.199 185.1 144.517 188.759 143.276L213.275 167.855L167.221 213.974L142.643 189.333C143.868 185.689 144.535 181.796 144.535 177.749C144.535 168.662 141.248 160.102 135.231 153.403L152.769 135.833V135.833ZM129.726 153.418L115.523 167.638L138.131 190.31C133.215 202.064 121.617 210.345 108.11 210.345C99.4114 210.345 91.2395 206.949 85.0835 200.793C82.0132 197.722 79.6252 194.124 78.0126 190.217L100.543 167.638L86.4325 153.511C91.8133 148.673 98.8066 145.618 106.498 145.246H109.925C117.306 145.649 124.206 148.502 129.726 153.418V153.418ZM124.702 145.277H137.836L132.486 150.658C130.114 148.502 127.493 146.703 124.702 145.277ZM120.996 167.638L132.455 156.163C137.743 162.133 140.658 169.701 140.658 177.749C140.658 180.68 140.24 183.502 139.511 186.2L120.996 167.638V167.638ZM91.6892 145.215C88.7585 146.703 86.0604 148.549 83.6569 150.735L78.1211 145.184L91.6892 145.215ZM83.7034 156.256L95.0696 167.638L76.6635 186.092C75.9502 183.393 75.5471 180.602 75.5471 177.749C75.5471 169.515 78.6483 162.009 83.7034 156.256V156.256ZM82.3389 203.537C89.2237 210.423 98.3725 214.222 108.11 214.222C122.655 214.222 135.247 205.631 141.077 193.241L164.492 216.718L141.139 240.072C139.371 236.335 136.952 232.877 133.944 229.869C127.059 222.983 117.91 219.184 108.172 219.184C93.5655 219.184 80.9588 227.837 75.1439 240.289L51.5742 216.718L75.0664 193.163C76.8496 196.978 79.2841 200.482 82.3389 203.537V203.537ZM132.502 282.779L138.069 288.346L124.346 288.315C127.307 286.842 130.052 284.966 132.502 282.779V282.779ZM108.172 288.238C104.11 288.238 100.187 287.493 96.5117 286.082C92.8522 284.656 89.4408 282.562 86.4636 279.879L100.59 265.737L78.0901 243.236C82.9746 231.419 94.6199 223.061 108.172 223.061C116.872 223.061 125.043 226.442 131.199 232.598C134.223 235.637 136.58 239.173 138.193 243.019L115.476 265.737L129.726 280.003C123.989 285.121 116.453 288.238 108.172 288.238V288.238ZM132.471 277.259L120.965 265.737L139.573 247.113C140.317 249.873 140.736 252.726 140.736 255.657C140.736 263.953 137.588 271.505 132.471 277.259ZM76.7256 247.361L95.1006 265.737L83.7344 277.119C78.5088 271.18 75.6246 263.643 75.6246 255.657C75.6246 252.788 76.0278 250.012 76.7256 247.361V247.361ZM91.8443 288.253H78.1056L83.6879 282.655C86.1689 284.919 88.9136 286.78 91.8443 288.253ZM169.95 216.718L216.019 170.585L262.073 216.718L216.019 262.821L169.95 216.718ZM265.019 101.314L279.347 86.9696C284.325 92.5212 287.411 99.7786 287.643 107.765V109.579C287.411 117.581 284.309 124.838 279.316 130.405L264.988 116.046L242.411 138.671C230.766 133.693 222.579 122.124 222.579 108.664C222.579 95.204 230.75 83.6666 242.396 78.6888L265.019 101.314ZM246.474 77.2931C249.234 76.5178 252.134 76.0836 255.126 76.0836C263.36 76.0836 270.865 79.185 276.603 84.2404L265.019 95.8398L246.474 77.2931ZM282.123 84.2094L287.643 78.6733V92.2421C286.155 89.3112 284.294 86.613 282.123 84.2094ZM287.643 125.102V138.733L282.092 133.181C284.278 130.762 286.155 128.048 287.643 125.102V125.102ZM276.572 133.135C270.834 138.174 263.345 141.26 255.126 141.26C252.134 141.26 249.25 140.826 246.489 140.066L264.988 121.535L276.572 133.135ZM243.388 143.183C247.063 144.439 251.017 145.137 255.126 145.137C264.415 145.137 272.897 141.648 279.332 135.895L296.901 153.496C291.148 159.947 287.643 168.445 287.643 177.749C287.643 181.719 288.279 185.58 289.489 189.24L264.802 213.974L218.748 167.855L243.388 143.183V143.183ZM316.501 167.638L302.39 153.511C307.771 148.673 314.748 145.618 322.455 145.246H325.882C333.248 145.649 340.163 148.502 345.668 153.418L331.464 167.638L354.088 190.31C349.173 202.064 337.558 210.345 324.052 210.345C315.369 210.345 307.181 206.949 301.041 200.793C297.971 197.722 295.583 194.124 293.97 190.217L316.501 167.638ZM292.621 186.092C291.908 183.393 291.504 180.602 291.504 177.749C291.504 169.515 294.606 162.009 299.645 156.256L311.027 167.638L292.621 186.092V186.092ZM299.614 150.735L294.078 145.184L307.647 145.215C304.716 146.703 302.018 148.549 299.614 150.735ZM302.405 279.879L316.547 265.737L294.047 243.236C298.932 231.404 310.577 223.061 324.13 223.061H324.145C332.829 223.061 341.001 226.457 347.157 232.598C350.181 235.637 352.537 239.173 354.15 243.019L331.433 265.737L345.684 280.003C339.946 285.121 332.395 288.238 324.13 288.238C320.067 288.238 316.144 287.493 312.469 286.082C308.809 284.656 305.398 282.562 302.405 279.879V279.879ZM307.802 288.253H294.063L299.645 282.655C302.126 284.919 304.871 286.78 307.802 288.253V288.253ZM311.058 265.737L299.692 277.119C294.466 271.18 291.582 263.643 291.582 255.657C291.582 252.788 291.985 250.012 292.683 247.361L311.058 265.737ZM340.303 288.315C343.265 286.842 346.009 284.966 348.459 282.779L354.011 288.346L340.303 288.315ZM348.428 277.274L336.907 265.737L355.53 247.113C356.275 249.873 356.693 252.726 356.693 255.657C356.693 263.953 353.545 271.505 348.428 277.274V277.274ZM349.901 229.869C343.017 222.983 333.868 219.184 324.145 219.184H324.13C309.523 219.184 296.901 227.837 291.101 240.289L267.532 216.718L291.024 193.163C292.807 196.978 295.241 200.482 298.296 203.537C305.181 210.423 314.33 214.222 324.052 214.222C338.613 214.222 351.188 205.631 357.019 193.241L380.449 216.718L357.096 240.072C355.329 236.335 352.91 232.877 349.901 229.869V229.869ZM355.468 186.2L336.954 167.638L348.413 156.163C353.7 162.133 356.616 169.701 356.616 177.749C356.616 180.68 356.197 183.502 355.468 186.2V186.2ZM340.66 145.277H353.794L348.444 150.658C346.071 148.502 343.451 146.703 340.66 145.277ZM326.502 141.369C325.696 141.322 324.874 141.276 324.068 141.276C323.261 141.276 322.517 141.307 321.757 141.369L291.504 141.307V110.494C291.535 109.889 291.551 109.285 291.551 108.664C291.551 108.044 291.535 107.455 291.504 106.85V76.0991L356.461 76.2231V141.431L326.487 141.369H326.502ZM294.063 72.2223L299.645 66.6397C302.126 68.9037 304.871 70.7801 307.802 72.2533L294.063 72.2223V72.2223ZM340.303 72.3153C343.265 70.8266 346.009 68.9658 348.459 66.7637L354.011 72.3308H340.303V72.3153ZM324.13 7.02995H324.145C332.829 7.02995 341.001 10.426 347.157 16.5824C350.181 19.6218 352.537 23.1419 354.15 26.9877L331.433 49.7213L345.684 63.9879C339.931 69.0898 332.395 72.2223 324.13 72.2223C315.865 72.2223 308.391 69.2449 302.405 63.8639L316.547 49.7213L294.047 27.2203C298.932 15.3883 310.577 7.04546 324.13 7.02995V7.02995ZM292.683 31.3453L311.058 49.7213L299.692 61.1036C294.466 55.1488 291.582 47.6278 291.582 39.6261C291.582 36.7573 291.985 33.997 292.683 31.3453V31.3453ZM264.818 3.43228L289.582 28.1973C288.388 31.795 287.736 35.6408 287.736 39.6261C287.736 48.6668 290.993 57.1803 296.947 63.8639L279.378 81.4646C272.943 75.6959 264.446 72.1913 255.142 72.1913C251.033 72.1913 247.063 72.8891 243.373 74.1607L218.764 49.5352L264.818 3.43228ZM239.48 75.7424C227.215 81.6197 218.717 94.165 218.717 108.649C218.717 123.132 227.215 135.709 239.496 141.586L216.019 165.11L192.636 141.695C204.979 135.848 213.523 123.257 213.523 108.726C213.523 94.196 204.948 81.5576 192.589 75.7114L216.019 52.28L239.48 75.7424ZM142.705 27.9647L167.236 3.43228L213.29 49.5352L188.682 74.1452C185.053 72.9201 181.161 72.2533 177.114 72.2533C167.779 72.2533 159.25 75.7889 152.8 81.5886L135.231 64.0035C141.062 57.5369 144.612 48.9925 144.612 39.6261C144.612 35.5942 143.946 31.6709 142.705 27.9647V27.9647ZM140.736 39.6261C140.736 47.9225 137.588 55.4745 132.471 61.2432L120.965 49.7213L139.573 31.0971C140.317 33.8419 140.736 36.6953 140.736 39.6261ZM108.172 7.02995H108.188C116.872 7.02995 125.043 10.426 131.199 16.5824C134.223 19.6218 136.58 23.1419 138.193 26.9877L115.476 49.7213L129.726 63.9879C123.989 69.0898 116.453 72.2223 108.172 72.2223C99.8921 72.2223 92.4335 69.2449 86.4636 63.8484L100.59 49.7213L78.0901 27.2203C82.9746 15.3883 94.6199 7.02995 108.172 7.02995V7.02995ZM76.7256 31.3453L95.1006 49.7213L83.7344 61.1036C78.5088 55.1488 75.6246 47.6278 75.6246 39.6261C75.6246 36.7573 76.0278 33.997 76.7256 31.3453V31.3453ZM2.79115 49.5352L48.8451 3.43228L73.6088 28.1973C72.4148 31.795 71.7635 35.6408 71.7635 39.6261C71.7635 48.6668 75.0199 57.1803 80.9743 63.8639L63.4056 81.4646C56.9704 75.6959 48.4729 72.1913 39.1691 72.1913C35.1064 72.1913 31.1368 72.8581 27.3843 74.1452L2.79115 49.5352ZM71.6705 78.6578V92.2266C70.1819 89.2957 68.3366 86.5975 66.1502 84.1783L71.6705 78.6578ZM60.6299 84.2249L49.0467 95.8243L30.4855 77.2621C33.2767 76.4868 36.1919 76.0681 39.1536 76.0681C47.3875 76.0681 54.8926 79.154 60.6299 84.2249ZM6.62122 108.649C6.62122 99.9492 10.0171 91.7614 16.1576 85.605C19.1504 82.6121 22.6393 80.2705 26.4229 78.6578L49.0622 101.298L63.3901 86.9541C68.3676 92.5212 71.4689 99.7786 71.686 107.78V109.533C71.4689 117.55 68.3676 124.823 63.3746 130.39L49.0312 116.03L26.4539 138.655C14.8086 133.677 6.62122 122.109 6.62122 108.649V108.649ZM71.6705 125.086V138.717L66.1192 133.166C68.3211 130.747 70.1819 128.017 71.6705 125.086ZM60.5989 133.119C54.8616 138.159 47.372 141.245 39.1536 141.245C36.1609 141.245 33.2767 140.811 30.5321 140.051L49.0157 121.52L60.5989 133.119ZM2.79115 167.84L27.4308 143.168C31.1213 144.424 35.0599 145.122 39.1691 145.122C48.4574 145.122 56.9394 141.633 63.3746 135.879L80.9433 153.48C75.2059 159.931 71.686 168.429 71.686 177.733C71.686 181.703 72.3217 185.565 73.5312 189.224L48.8451 213.958L2.79115 167.84ZM2.79115 265.551L48.8451 219.432L73.6088 244.213C72.4148 247.81 71.7635 251.641 71.7635 255.642C71.7635 264.667 75.0199 273.196 80.9743 279.879L63.4056 297.465C56.9704 291.711 48.4729 288.191 39.1691 288.191C35.1064 288.191 31.1368 288.874 27.3843 290.145L2.79115 265.551V265.551ZM71.6705 294.658V308.242C70.1819 305.311 68.3366 302.597 66.1502 300.194L71.6705 294.658ZM60.6299 300.225L49.0467 311.824L30.4855 293.262C33.2767 292.502 36.1919 292.068 39.1536 292.068C47.3875 292.068 54.8926 295.17 60.6299 300.225V300.225ZM6.60572 324.664C6.60572 315.965 10.0016 307.777 16.1421 301.62C19.1349 298.612 22.6238 296.286 26.4074 294.673L49.0467 317.314L63.3746 302.97C68.3521 308.521 71.4534 315.794 71.6705 323.78V325.548C71.4534 333.55 68.3521 340.823 63.3591 346.39L49.0157 332.046L26.4384 354.655C14.7931 349.693 6.60572 338.124 6.60572 324.664V324.664ZM71.655 341.086V354.717L66.1037 349.166C68.3056 346.746 70.1664 344.033 71.655 341.086V341.086ZM60.5834 349.119C54.8461 354.174 47.3565 357.26 39.1381 357.26C36.1454 357.26 33.2612 356.811 30.5166 356.051L49.0002 337.52L60.5834 349.119ZM73.5002 405.224L48.8141 429.958L2.79115 383.855L27.4308 359.168C31.1213 360.439 35.0599 361.137 39.1691 361.137C48.4574 361.137 56.9394 357.633 63.3746 351.895L80.9433 369.48C75.2059 375.931 71.686 384.445 71.686 393.749C71.686 397.703 72.3217 401.564 73.5312 405.224H73.5002ZM75.5316 393.749C75.5316 385.515 78.6328 377.994 83.6879 372.256L95.0541 383.638L76.648 402.076C75.9347 399.393 75.5316 396.602 75.5316 393.749V393.749ZM108.095 426.33H108.079C99.3959 426.33 91.224 422.949 85.068 416.793C81.9977 413.707 79.6097 410.124 77.9971 406.217L100.528 383.638L86.417 369.496C91.7978 364.657 98.7911 361.602 106.498 361.23H109.894C117.275 361.633 124.191 364.487 129.711 369.418L115.507 383.638L138.115 406.294C133.2 418.049 121.601 426.33 108.095 426.33V426.33ZM139.495 402.185L120.981 383.638L132.44 372.163C137.728 378.133 140.643 385.701 140.643 393.733C140.643 396.664 140.224 399.487 139.495 402.185V402.185ZM167.205 429.958L142.628 405.317C143.853 401.689 144.519 397.796 144.519 393.733C144.519 384.662 141.232 376.086 135.216 369.387L152.753 351.833C159.204 357.648 167.748 361.199 177.098 361.199C181.161 361.199 185.084 360.517 188.744 359.276L213.259 383.855L167.205 429.958V429.958ZM192.636 357.695C204.979 351.848 213.523 339.272 213.523 324.726C213.523 310.18 204.948 297.558 192.589 291.727L216.019 268.28L239.48 291.742C227.215 297.62 218.717 310.165 218.717 324.664C218.717 339.163 227.215 351.724 239.496 357.586L216.019 381.126L192.636 357.695V357.695ZM289.489 405.224L264.802 429.958L218.748 383.855L243.373 359.168C247.063 360.439 251.017 361.137 255.126 361.137C264.415 361.137 272.897 357.633 279.332 351.895L296.901 369.496C291.148 375.931 287.643 384.445 287.643 393.749C287.643 397.703 288.279 401.564 289.489 405.224V405.224ZM291.52 393.749C291.52 385.515 294.621 377.994 299.661 372.256L311.042 383.638L292.636 402.076C291.923 399.393 291.52 396.602 291.52 393.749V393.749ZM324.068 426.33C315.384 426.33 307.197 422.949 301.056 416.793C297.986 413.707 295.598 410.124 293.985 406.217L316.516 383.638L302.39 369.496C307.786 364.673 314.779 361.618 322.471 361.23H325.882C333.263 361.649 340.179 364.487 345.684 369.418L331.48 383.638L354.104 406.294C349.188 418.049 337.574 426.33 324.068 426.33ZM355.484 402.185L336.969 383.638L348.428 372.163C353.716 378.133 356.631 385.701 356.631 393.733C356.631 396.664 356.212 399.487 355.484 402.185V402.185ZM429.232 383.855L383.178 429.958L358.6 405.333C359.81 401.689 360.492 397.796 360.492 393.733C360.492 384.662 357.205 376.086 351.173 369.387L368.726 351.833C375.177 357.648 383.721 361.199 393.071 361.199C397.134 361.199 401.057 360.517 404.701 359.276L429.232 383.855V383.855ZM360.368 354.717V340.745C361.857 343.785 363.764 346.591 365.997 349.088L360.368 354.717ZM371.502 349.057L383.023 337.52L401.6 356.144C398.886 356.888 396.033 357.322 393.087 357.322C384.806 357.322 377.255 354.174 371.502 349.057V349.057ZM425.635 324.726C425.635 338.218 417.401 349.817 405.709 354.764L383.023 332.046L368.757 346.312C363.656 340.559 360.523 333.007 360.523 324.726C360.523 316.445 363.671 308.862 368.788 303.109L382.992 317.314L405.631 294.658C417.37 299.589 425.635 311.204 425.635 324.726ZM360.384 308.707V294.673L366.044 300.333C363.795 302.83 361.888 305.652 360.384 308.707ZM371.548 300.364C377.301 295.263 384.837 292.13 393.102 292.13C396.017 292.13 398.84 292.564 401.538 293.293L383.008 311.824L371.548 300.364V300.364ZM429.263 265.551L404.654 290.161C401.01 288.936 397.134 288.253 393.087 288.253C383.752 288.253 375.223 291.789 368.773 297.604L351.204 280.019C357.034 273.552 360.585 265.008 360.585 255.642C360.585 251.61 359.919 247.686 358.678 243.98L383.209 219.448L429.263 265.551ZM429.248 167.84L383.194 213.958L358.616 189.317C359.825 185.673 360.508 181.781 360.508 177.733C360.508 168.662 357.22 160.086 351.188 153.387L368.742 135.817C375.192 141.633 383.736 145.184 393.087 145.184C397.149 145.184 401.072 144.501 404.716 143.261L429.248 167.84V167.84ZM360.384 138.717V124.745C361.872 127.785 363.78 130.576 366.013 133.073L360.384 138.717ZM371.517 133.057L383.039 121.52L401.615 140.144C398.902 140.888 396.048 141.307 393.102 141.307C384.822 141.307 377.27 138.174 371.517 133.057ZM425.65 108.726C425.65 122.218 417.416 133.817 405.724 138.764L383.039 116.03L368.773 130.312C363.671 124.559 360.539 117.007 360.539 108.726C360.539 100.445 363.687 92.8624 368.804 87.0937L383.008 101.298L405.647 78.6578C417.385 83.5891 425.65 95.204 425.65 108.726ZM360.399 92.6918V78.6578L366.059 84.3334C363.811 86.8301 361.903 89.6369 360.399 92.6918ZM371.564 84.3489C377.317 79.247 384.853 76.1301 393.118 76.1301C396.033 76.1301 398.855 76.5488 401.553 77.2776L383.023 95.8243L371.564 84.3489V84.3489ZM404.685 74.1452C401.041 72.9201 397.165 72.2533 393.118 72.2533C383.783 72.2533 375.254 75.7889 368.804 81.5886L351.235 64.0035C357.065 57.5525 360.616 48.9925 360.616 39.6261C360.616 35.5942 359.95 31.6709 358.709 27.9647L383.24 3.43228L429.294 49.5352L404.685 74.1452Z" fill="#FBF7F8"/>
<path d="M863.954 46.7904L817.931 0.6875H812.441L789.089 24.0414C787.321 20.3041 784.902 16.8615 781.894 13.8376C775.009 6.95241 765.86 3.15315 756.138 3.15315H756.122C741.515 3.15315 728.893 11.8217 723.094 24.274L699.524 0.6875H694.035L647.981 46.7904L601.958 0.6875H596.469L573.116 24.0414C571.348 20.3041 568.929 16.8615 565.921 13.8376C559.036 6.95241 549.887 3.15315 540.165 3.15315H540.149C525.542 3.15315 512.936 11.8217 507.121 24.274L483.551 0.6875H478.062L431.961 46.837V52.2335L455.454 75.7269C451.763 77.4947 448.352 79.8828 445.374 82.8757C438.49 89.7609 434.706 98.9102 434.706 108.649C434.706 123.163 443.219 135.709 455.485 141.586L431.961 165.157V170.523L478.077 216.687L431.961 262.852V268.249L455.454 291.727C451.763 293.495 448.352 295.898 445.374 298.876C438.49 305.761 434.706 314.926 434.706 324.664C434.706 339.163 443.219 351.724 455.485 357.586L431.961 381.173V386.538L478.046 432.687H483.567L507.043 409.163C508.827 412.962 511.261 416.467 514.316 419.537C521.201 426.423 530.349 430.206 540.072 430.206H540.087C554.632 430.206 567.224 421.615 573.054 409.241L596.438 432.687H601.958L648.012 386.585L694.05 432.687H699.57L723.047 409.163C724.83 412.962 727.265 416.467 730.32 419.537C737.204 426.423 746.353 430.206 756.076 430.206C763.348 430.206 770.14 428.066 775.831 424.36C781.522 420.669 786.127 415.428 789.042 409.241L812.441 432.687H817.962L864 386.585V381.126L840.632 357.695C852.975 351.848 861.519 339.272 861.519 324.726C861.519 310.18 852.944 297.558 840.57 291.727L864 268.296V262.806L817.946 216.703L864 170.569V165.11L840.632 141.695C852.975 135.848 861.519 123.257 861.519 108.726C861.519 94.196 852.944 81.5576 840.57 75.7114L864 52.28V46.7904H863.954ZM788.686 39.6261C788.686 47.9225 785.538 55.49 780.421 61.2432L768.899 49.7213L787.523 31.0971C788.267 33.8419 788.686 36.6953 788.686 39.6261ZM758.479 357.369C757.673 357.307 756.867 357.276 756.06 357.276C755.254 357.276 754.51 357.307 753.75 357.353L723.497 357.307V326.494C723.528 325.889 723.543 325.285 723.543 324.664C723.543 324.044 723.528 323.455 723.497 322.85V292.099L788.453 292.208V357.415L758.464 357.369H758.479ZM785.786 361.292L780.436 366.642C778.064 364.502 775.443 362.703 772.652 361.261L785.786 361.292V361.292ZM739.639 361.199C736.708 362.688 734.01 364.549 731.607 366.735L726.071 361.184H739.639V361.199ZM711.293 346.405L696.965 332.061L674.388 354.671C662.743 349.708 654.555 338.14 654.555 324.68C654.555 311.219 662.727 299.667 674.357 294.689L696.996 317.329L711.324 302.985C716.302 308.537 719.388 315.794 719.62 323.765V325.595C719.388 333.581 716.286 340.854 711.293 346.405ZM719.62 341.117V354.733L714.069 349.181C716.255 346.762 718.132 344.048 719.62 341.117ZM708.549 349.15C702.811 354.19 695.322 357.276 687.103 357.276C684.111 357.276 681.226 356.826 678.466 356.066L696.965 337.535L708.549 349.15V349.15ZM678.451 293.293C681.211 292.533 684.111 292.084 687.103 292.084C695.337 292.084 702.842 295.185 708.58 300.24L696.996 311.84L678.451 293.293V293.293ZM714.1 300.209L719.62 294.689V308.258C718.132 305.327 716.271 302.613 714.1 300.209ZM711.34 297.48C704.905 291.727 696.407 288.207 687.103 288.207C682.994 288.207 679.025 288.905 675.334 290.176L650.725 265.566L696.779 219.463L721.543 244.228C720.349 247.826 719.698 251.656 719.698 255.657C719.698 264.682 722.954 273.211 728.909 279.895L711.34 297.48V297.48ZM599.012 332.061L584.746 346.328C579.644 340.575 576.527 333.023 576.527 324.742C576.527 316.461 579.66 308.878 584.777 303.125L598.981 317.329L621.62 294.673C633.358 299.605 641.623 311.219 641.623 324.742C641.623 338.264 633.389 349.832 621.697 354.779L599.012 332.061ZM617.588 356.159C614.875 356.904 612.021 357.338 609.075 357.338C600.795 357.338 593.243 354.19 587.49 349.073L599.012 337.535L617.588 356.159V356.159ZM581.986 349.104L576.357 354.733V340.761C577.845 343.8 579.753 346.607 581.986 349.104ZM576.357 308.723V294.689L582.017 300.349C579.768 302.846 577.861 305.668 576.357 308.723ZM587.521 300.38C593.274 295.278 600.81 292.146 609.075 292.146C611.99 292.146 614.813 292.58 617.511 293.309L598.981 311.84L587.521 300.38ZM620.643 290.176C617.015 288.951 613.122 288.269 609.075 288.269C599.74 288.269 591.212 291.804 584.761 297.604L567.208 280.034C573.023 273.568 576.574 265.023 576.574 255.657C576.574 251.625 575.907 247.702 574.667 243.996L599.198 219.448L645.252 265.566L620.643 290.176ZM542.506 357.384C541.7 357.322 540.894 357.291 540.087 357.291C539.281 357.291 538.552 357.322 537.792 357.369L507.524 357.307V326.448C507.555 325.858 507.57 325.269 507.57 324.68C507.57 324.09 507.555 323.501 507.524 322.927V292.115L572.48 292.223V357.431L542.491 357.384H542.506ZM569.813 361.308L564.463 366.658C562.091 364.518 559.47 362.719 556.679 361.277L569.813 361.308V361.308ZM523.666 361.215C520.751 362.703 518.037 364.564 515.634 366.751L510.098 361.199H523.666V361.215ZM507.524 106.927V76.1146L572.48 76.2386V141.446L542.506 141.384C541.7 141.338 540.894 141.291 540.072 141.291C539.297 141.291 538.521 141.322 537.761 141.384L507.508 141.322V110.448C507.54 109.874 507.555 109.285 507.555 108.68C507.555 108.075 507.54 107.517 507.508 106.927H507.524ZM510.083 72.2378L515.665 66.6552C518.146 68.9192 520.89 70.7956 523.821 72.2688L510.083 72.2378V72.2378ZM556.323 72.3308C559.284 70.8421 562.029 68.9813 564.479 66.7792L570.046 72.3463H556.323V72.3308ZM598.996 101.314L621.635 78.6733C633.374 83.6046 641.639 95.2195 641.639 108.742C641.639 122.264 633.405 133.832 621.713 138.779L599.027 116.046L584.761 130.328C579.66 124.559 576.543 117.023 576.543 108.726C576.543 100.43 579.675 92.8779 584.792 87.1092L598.996 101.314ZM587.537 84.3644C593.29 79.2626 600.826 76.1456 609.091 76.1456C612.006 76.1456 614.828 76.5643 617.526 77.2931L598.996 95.8398L587.537 84.3644V84.3644ZM617.604 140.159C614.89 140.888 612.037 141.322 609.091 141.322C600.81 141.322 593.259 138.19 587.506 133.073L599.027 121.535L617.604 140.159ZM576.372 92.7073V78.6733L582.032 84.3489C579.784 86.8456 577.876 89.6524 576.372 92.7073V92.7073ZM582.001 133.088L576.372 138.733V124.745C577.861 127.8 579.768 130.591 582.001 133.088ZM584.746 135.833C591.196 141.648 599.74 145.199 609.091 145.199C613.153 145.199 617.077 144.517 620.736 143.276L645.252 167.855L599.198 213.974L574.62 189.333C575.845 185.689 576.512 181.796 576.512 177.749C576.512 168.662 573.225 160.102 567.208 153.403L584.746 135.833V135.833ZM561.703 153.418L547.499 167.638L570.108 190.31C565.192 202.064 553.593 210.345 540.087 210.345C531.388 210.345 523.216 206.949 517.06 200.793C513.99 197.722 511.602 194.124 509.99 190.217L532.52 167.638L518.409 153.511C523.79 148.673 530.784 145.618 538.475 145.246H541.902C549.283 145.649 556.183 148.502 561.703 153.418V153.418ZM556.679 145.277H569.813L564.463 150.658C562.091 148.502 559.47 146.703 556.679 145.277V145.277ZM552.973 167.638L564.432 156.163C569.72 162.133 572.635 169.701 572.635 177.749C572.635 180.68 572.217 183.502 571.488 186.2L552.973 167.638ZM523.666 145.215C520.735 146.703 518.037 148.549 515.634 150.735L510.098 145.184L523.666 145.215ZM515.68 156.256L527.047 167.638L508.64 186.092C507.927 183.393 507.524 180.602 507.524 177.749C507.524 169.515 510.625 162.009 515.68 156.256V156.256ZM514.316 203.537C521.201 210.423 530.349 214.222 540.087 214.222C554.632 214.222 567.224 205.631 573.054 193.241L596.469 216.718L573.116 240.072C571.348 236.335 568.929 232.877 565.921 229.869C559.036 222.983 549.887 219.184 540.149 219.184C525.542 219.184 512.936 227.837 507.121 240.289L483.551 216.718L507.043 193.163C508.827 196.978 511.261 200.482 514.316 203.537V203.537ZM564.479 282.779L570.046 288.346L556.323 288.315C559.284 286.842 562.029 284.966 564.479 282.779V282.779ZM540.149 288.238C536.087 288.238 532.164 287.493 528.489 286.082C524.829 284.656 521.418 282.562 518.44 279.879L532.567 265.737L510.067 243.236C514.952 231.419 526.597 223.061 540.149 223.061C548.848 223.061 557.02 226.442 563.176 232.598C566.2 235.637 568.557 239.173 570.17 243.019L547.453 265.737L561.703 280.003C555.966 285.121 548.43 288.238 540.149 288.238V288.238ZM564.448 277.259L552.942 265.737L571.55 247.113C572.294 249.873 572.713 252.726 572.713 255.657C572.713 263.953 569.565 271.505 564.448 277.259ZM508.702 247.361L527.078 265.737L515.711 277.119C510.486 271.18 507.602 263.643 507.602 255.657C507.602 252.788 508.005 250.012 508.702 247.361ZM523.821 288.253H510.083L515.665 282.655C518.146 284.919 520.89 286.78 523.821 288.253ZM601.927 216.718L647.996 170.585L694.05 216.718L647.996 262.821L601.927 216.718ZM696.996 101.314L711.324 86.9696C716.302 92.5212 719.388 99.7786 719.62 107.765V109.579C719.388 117.581 716.286 124.838 711.293 130.405L696.965 116.046L674.388 138.671C662.743 133.693 654.555 122.124 654.555 108.664C654.555 95.204 662.727 83.6666 674.373 78.6888L696.996 101.314V101.314ZM678.451 77.2931C681.211 76.5178 684.111 76.0836 687.103 76.0836C695.337 76.0836 702.842 79.185 708.58 84.2404L696.996 95.8398L678.451 77.2931ZM714.1 84.2094L719.62 78.6733V92.2421C718.132 89.3112 716.271 86.613 714.1 84.2094ZM719.62 125.102V138.733L714.069 133.181C716.255 130.762 718.132 128.048 719.62 125.102V125.102ZM708.549 133.135C702.811 138.174 695.322 141.26 687.103 141.26C684.111 141.26 681.226 140.826 678.466 140.066L696.965 121.535L708.549 133.135V133.135ZM675.365 143.183C679.04 144.439 682.994 145.137 687.103 145.137C696.392 145.137 704.874 141.648 711.309 135.895L728.878 153.496C723.125 159.947 719.62 168.445 719.62 177.749C719.62 181.719 720.256 185.58 721.465 189.24L696.779 213.974L650.725 167.855L675.365 143.183V143.183ZM748.478 167.638L734.367 153.511C739.747 148.673 746.725 145.618 754.432 145.246H757.859C765.224 145.649 772.14 148.502 777.645 153.418L763.441 167.638L786.065 190.31C781.15 202.064 769.535 210.345 756.029 210.345C747.346 210.345 739.158 206.949 733.018 200.793C729.947 197.722 727.559 194.124 725.947 190.217L748.478 167.638V167.638ZM724.598 186.092C723.884 183.393 723.481 180.602 723.481 177.749C723.481 169.515 726.583 162.009 731.622 156.256L743.004 167.638L724.598 186.092V186.092ZM731.591 150.735L726.055 145.184L739.623 145.215C736.693 146.703 733.995 148.549 731.591 150.735ZM734.382 279.879L748.524 265.737L726.024 243.236C730.909 231.404 742.554 223.061 756.107 223.061H756.122C764.806 223.061 772.978 226.457 779.134 232.598C782.157 235.637 784.514 239.173 786.127 243.019L763.41 265.737L777.661 280.003C771.923 285.121 764.372 288.238 756.107 288.238C752.044 288.238 748.121 287.493 744.446 286.082C740.786 284.656 737.375 282.562 734.382 279.879V279.879ZM739.778 288.253H726.04L731.622 282.655C734.103 284.919 736.848 286.78 739.778 288.253ZM743.035 265.737L731.669 277.119C726.443 271.18 723.559 263.643 723.559 255.657C723.559 252.788 723.962 250.012 724.66 247.361L743.035 265.737ZM772.28 288.315C775.242 286.842 777.986 284.966 780.436 282.779L785.988 288.346L772.28 288.315ZM780.405 277.274L768.884 265.737L787.507 247.113C788.251 249.873 788.67 252.726 788.67 255.657C788.67 263.953 785.522 271.505 780.405 277.274ZM781.878 229.869C774.994 222.983 765.845 219.184 756.122 219.184H756.107C741.5 219.184 728.878 227.837 723.078 240.289L699.508 216.718L723.001 193.163C724.784 196.978 727.218 200.482 730.273 203.537C737.158 210.423 746.307 214.222 756.029 214.222C770.59 214.222 783.165 205.631 788.996 193.241L812.426 216.718L789.073 240.072C787.306 236.335 784.887 232.877 781.878 229.869V229.869ZM787.445 186.2L768.931 167.638L780.39 156.163C785.677 162.133 788.593 169.701 788.593 177.749C788.593 180.68 788.174 183.502 787.445 186.2ZM772.637 145.277H785.77L780.421 150.658C778.048 148.502 775.428 146.703 772.637 145.277V145.277ZM758.479 141.369C757.673 141.322 756.851 141.276 756.045 141.276C755.238 141.276 754.494 141.307 753.734 141.369L723.481 141.307V110.494C723.512 109.889 723.528 109.285 723.528 108.664C723.528 108.044 723.512 107.455 723.481 106.85V76.0991L788.438 76.2231V141.431L758.464 141.369H758.479ZM726.04 72.2223L731.622 66.6397C734.103 68.9037 736.848 70.7801 739.778 72.2533L726.04 72.2223V72.2223ZM772.28 72.3153C775.242 70.8266 777.986 68.9658 780.436 66.7637L785.988 72.3308H772.28V72.3153ZM756.107 7.02995H756.122C764.806 7.02995 772.978 10.426 779.134 16.5824C782.157 19.6218 784.514 23.1419 786.127 26.9877L763.41 49.7213L777.661 63.9879C771.908 69.0898 764.372 72.2223 756.107 72.2223C747.842 72.2223 740.368 69.2449 734.382 63.8639L748.524 49.7213L726.024 27.2203C730.909 15.3883 742.554 7.04546 756.107 7.02995V7.02995ZM724.66 31.3453L743.035 49.7213L731.669 61.1036C726.443 55.1488 723.559 47.6278 723.559 39.6261C723.559 36.7573 723.962 33.997 724.66 31.3453V31.3453ZM696.795 3.43228L721.558 28.1973C720.365 31.795 719.713 35.6408 719.713 39.6261C719.713 48.6668 722.97 57.1803 728.924 63.8639L711.355 81.4646C704.92 75.6959 696.423 72.1913 687.119 72.1913C683.01 72.1913 679.04 72.8891 675.35 74.1607L650.741 49.5352L696.795 3.43228ZM671.457 75.7424C659.192 81.6197 650.694 94.165 650.694 108.649C650.694 123.132 659.192 135.709 671.473 141.586L647.996 165.11L624.613 141.695C636.956 135.848 645.5 123.257 645.5 108.726C645.5 94.196 636.925 81.5576 624.566 75.7114L647.996 52.28L671.457 75.7424V75.7424ZM574.682 27.9647L599.213 3.43228L645.267 49.5352L620.659 74.1452C617.03 72.9201 613.138 72.2533 609.091 72.2533C599.756 72.2533 591.227 75.7889 584.777 81.5886L567.208 64.0035C573.038 57.5369 576.589 48.9925 576.589 39.6261C576.589 35.5942 575.923 31.6709 574.682 27.9647V27.9647ZM572.713 39.6261C572.713 47.9225 569.565 55.4745 564.448 61.2432L552.942 49.7213L571.55 31.0971C572.294 33.8419 572.713 36.6953 572.713 39.6261ZM540.149 7.02995H540.165C548.848 7.02995 557.02 10.426 563.176 16.5824C566.2 19.6218 568.557 23.1419 570.17 26.9877L547.453 49.7213L561.703 63.9879C555.966 69.0898 548.43 72.2223 540.149 72.2223C531.869 72.2223 524.41 69.2449 518.44 63.8484L532.567 49.7213L510.067 27.2203C514.952 15.3883 526.597 7.02995 540.149 7.02995V7.02995ZM508.702 31.3453L527.078 49.7213L515.711 61.1036C510.486 55.1488 507.602 47.6278 507.602 39.6261C507.602 36.7573 508.005 33.997 508.702 31.3453ZM434.768 49.5352L480.822 3.43228L505.586 28.1973C504.392 31.795 503.74 35.6408 503.74 39.6261C503.74 48.6668 506.997 57.1803 512.951 63.8639L495.382 81.4646C488.947 75.6959 480.45 72.1913 471.146 72.1913C467.083 72.1913 463.114 72.8581 459.361 74.1452L434.768 49.5352V49.5352ZM503.647 78.6578V92.2266C502.159 89.2957 500.314 86.5975 498.127 84.1783L503.647 78.6578ZM492.607 84.2249L481.024 95.8243L462.462 77.2621C465.254 76.4868 468.169 76.0681 471.131 76.0681C479.364 76.0681 486.869 79.154 492.607 84.2249V84.2249ZM438.583 108.649C438.583 99.9492 441.979 91.7614 448.119 85.605C451.112 82.6121 454.601 80.2705 458.384 78.6578L481.024 101.298L495.352 86.9541C500.329 92.5212 503.43 99.7786 503.647 107.78V109.533C503.43 117.55 500.329 124.823 495.336 130.39L480.993 116.03L458.415 138.655C446.77 133.677 438.583 122.109 438.583 108.649ZM503.632 125.086V138.717L498.081 133.166C500.282 130.747 502.143 128.017 503.632 125.086ZM492.56 133.119C486.823 138.159 479.333 141.245 471.115 141.245C468.122 141.245 465.238 140.811 462.493 140.051L480.977 121.52L492.56 133.119V133.119ZM434.753 167.84L459.392 143.168C463.083 144.424 467.021 145.122 471.131 145.122C480.419 145.122 488.901 141.633 495.336 135.879L512.905 153.48C507.167 159.931 503.647 168.429 503.647 177.733C503.647 181.703 504.283 185.565 505.493 189.224L480.807 213.958L434.753 167.84V167.84ZM434.753 265.551L480.807 219.432L505.57 244.213C504.376 247.81 503.725 251.641 503.725 255.642C503.725 264.667 506.981 273.196 512.936 279.879L495.367 297.465C488.932 291.711 480.434 288.191 471.131 288.191C467.068 288.191 463.098 288.874 459.346 290.145L434.753 265.551ZM503.632 294.658V308.242C502.143 305.311 500.298 302.597 498.112 300.194L503.632 294.658ZM492.591 300.225L481.008 311.824L462.447 293.262C465.238 292.502 468.153 292.068 471.115 292.068C479.349 292.068 486.854 295.17 492.591 300.225V300.225ZM438.567 324.664C438.567 315.965 441.963 307.777 448.104 301.62C451.096 298.612 454.585 296.286 458.369 294.673L481.008 317.314L495.336 302.97C500.314 308.521 503.415 315.794 503.632 323.78V325.548C503.415 333.55 500.314 340.823 495.32 346.39L480.977 332.046L458.4 354.655C446.754 349.693 438.567 338.124 438.567 324.664V324.664ZM503.616 341.086V354.717L498.065 349.166C500.267 346.746 502.128 344.033 503.616 341.086V341.086ZM492.545 349.119C486.807 354.174 479.318 357.26 471.1 357.26C468.107 357.26 465.223 356.811 462.478 356.051L480.962 337.52L492.545 349.119V349.119ZM505.462 405.224L480.775 429.958L434.722 383.855L459.361 359.168C463.052 360.439 466.99 361.137 471.1 361.137C480.388 361.137 488.87 357.633 495.305 351.895L512.874 369.48C507.136 375.931 503.616 384.445 503.616 393.749C503.616 397.703 504.252 401.564 505.462 405.224V405.224ZM507.493 393.749C507.493 385.515 510.594 377.994 515.649 372.256L527.015 383.638L508.609 402.076C507.896 399.393 507.493 396.602 507.493 393.749V393.749ZM540.056 426.33H540.041C531.357 426.33 523.185 422.949 517.029 416.793C513.959 413.707 511.571 410.124 509.958 406.217L532.489 383.638L518.378 369.496C523.759 364.657 530.753 361.602 538.459 361.23H541.855C549.236 361.633 556.152 364.487 561.672 369.418L547.468 383.638L570.077 406.294C565.161 418.049 553.562 426.33 540.056 426.33V426.33ZM571.457 402.185L552.942 383.638L564.401 372.163C569.689 378.133 572.604 385.701 572.604 393.733C572.604 396.664 572.186 399.487 571.457 402.185ZM599.167 429.958L574.589 405.317C575.814 401.689 576.481 397.796 576.481 393.733C576.481 384.662 573.193 376.086 567.177 369.387L584.715 351.833C591.165 357.648 599.709 361.199 609.06 361.199C613.122 361.199 617.046 360.517 620.705 359.276L645.221 383.855L599.167 429.958ZM624.597 357.695C636.94 351.848 645.484 339.272 645.484 324.726C645.484 310.18 636.909 297.558 624.551 291.727L647.981 268.28L671.442 291.742C659.176 297.62 650.679 310.165 650.679 324.664C650.679 339.163 659.176 351.724 671.457 357.586L647.981 381.126L624.597 357.695V357.695ZM721.45 405.224L696.764 429.958L650.71 383.855L675.334 359.168C679.025 360.439 682.979 361.137 687.088 361.137C696.376 361.137 704.858 357.633 711.293 351.895L728.862 369.496C723.109 375.931 719.605 384.445 719.605 393.749C719.605 397.703 720.24 401.564 721.45 405.224V405.224ZM723.481 393.749C723.481 385.515 726.583 377.994 731.622 372.256L743.004 383.638L724.598 402.076C723.884 399.393 723.481 396.602 723.481 393.749V393.749ZM756.029 426.33C747.346 426.33 739.158 422.949 733.018 416.793C729.947 413.707 727.559 410.124 725.947 406.217L748.478 383.638L734.351 369.496C739.747 364.673 746.741 361.618 754.432 361.23H757.843C765.224 361.649 772.14 364.487 777.645 369.418L763.441 383.638L786.065 406.294C781.15 418.049 769.535 426.33 756.029 426.33V426.33ZM787.445 402.185L768.931 383.638L780.39 372.163C785.677 378.133 788.593 385.701 788.593 393.733C788.593 396.664 788.174 399.487 787.445 402.185ZM861.193 383.855L815.139 429.958L790.562 405.333C791.771 401.689 792.454 397.796 792.454 393.733C792.454 384.662 789.166 376.086 783.134 369.387L800.688 351.833C807.138 357.648 815.682 361.199 825.033 361.199C829.095 361.199 833.018 360.517 836.662 359.276L861.193 383.855V383.855ZM792.33 354.717V340.745C793.818 343.785 795.725 346.591 797.958 349.088L792.33 354.717ZM803.463 349.057L814.984 337.52L833.561 356.144C830.847 356.888 827.994 357.322 825.048 357.322C816.768 357.322 809.216 354.174 803.463 349.057V349.057ZM857.596 324.726C857.596 338.218 849.362 349.817 837.67 354.764L814.984 332.046L800.719 346.312C795.617 340.559 792.485 333.007 792.485 324.726C792.485 316.445 795.633 308.862 800.75 303.109L814.953 317.314L837.593 294.658C849.331 299.589 857.596 311.204 857.596 324.726V324.726ZM792.345 308.707V294.673L798.005 300.333C795.757 302.83 793.849 305.652 792.345 308.707V308.707ZM803.51 300.364C809.263 295.263 816.799 292.13 825.064 292.13C827.979 292.13 830.801 292.564 833.499 293.293L814.969 311.824L803.51 300.364ZM861.224 265.551L836.616 290.161C832.972 288.936 829.095 288.253 825.048 288.253C815.713 288.253 807.185 291.789 800.734 297.604L783.165 280.019C788.996 273.552 792.547 265.008 792.547 255.642C792.547 251.61 791.88 247.686 790.639 243.98L815.171 219.448L861.224 265.551V265.551ZM861.209 167.84L815.155 213.958L790.577 189.317C791.787 185.673 792.469 181.781 792.469 177.733C792.469 168.662 789.182 160.086 783.15 153.387L800.703 135.817C807.154 141.633 815.698 145.184 825.048 145.184C829.111 145.184 833.034 144.501 836.678 143.261L861.209 167.84V167.84ZM792.345 138.717V124.745C793.834 127.785 795.741 130.576 797.974 133.073L792.345 138.717ZM803.479 133.057L815 121.52L833.577 140.144C830.863 140.888 828.01 141.307 825.064 141.307C816.783 141.307 809.232 138.174 803.479 133.057ZM857.611 108.726C857.611 122.218 849.378 133.817 837.686 138.764L815 116.03L800.734 130.312C795.633 124.559 792.5 117.007 792.5 108.726C792.5 100.445 795.648 92.8624 800.765 87.0937L814.969 101.298L837.608 78.6578C849.347 83.5891 857.611 95.204 857.611 108.726V108.726ZM792.361 92.6918V78.6578L798.02 84.3334C795.772 86.8301 793.865 89.6369 792.361 92.6918V92.6918ZM803.525 84.3489C809.278 79.247 816.814 76.1301 825.079 76.1301C827.994 76.1301 830.816 76.5488 833.515 77.2776L814.984 95.8243L803.525 84.3489V84.3489ZM836.647 74.1452C833.003 72.9201 829.126 72.2533 825.079 72.2533C815.744 72.2533 807.216 75.7889 800.765 81.5886L783.196 64.0035C789.027 57.5525 792.578 48.9925 792.578 39.6261C792.578 35.5942 791.911 31.6709 790.67 27.9647L815.201 3.43228L861.255 49.5352L836.647 74.1452V74.1452Z" fill="#FBF7F8"/>
<path d="M431.977 478.79L385.938 432.688H380.449L357.096 456.041C355.329 452.304 352.91 448.862 349.901 445.838C343.017 438.952 333.868 435.153 324.145 435.153H324.13C309.523 435.153 296.901 443.822 291.101 456.274L267.532 432.688H262.042L215.988 478.79L169.934 432.688H164.445L141.093 456.041C139.325 452.304 136.906 448.862 133.898 445.838C127.013 438.952 117.864 435.153 108.141 435.153H108.126C93.519 435.153 80.9123 443.822 75.0974 456.274L51.5277 432.688H46.0384L0 478.837V484.234L23.4922 507.727C19.8016 509.495 16.3902 511.883 13.413 514.876C6.52818 521.761 2.74463 530.91 2.74463 540.649C2.74463 555.164 11.2576 567.709 23.5232 573.586L0 597.157V602.523L46.116 648.687L0 694.853V700.249L23.4922 723.727C19.8016 725.495 16.3902 727.898 13.413 730.876C6.52818 737.761 2.74463 746.926 2.74463 756.664C2.74463 771.163 11.2576 783.724 23.5232 789.586L0 813.173V818.538L46.085 864.687H51.6052L75.0819 841.163C76.8651 844.962 79.2996 848.467 82.3544 851.537C89.2392 858.423 98.388 862.206 108.11 862.206H108.126C122.671 862.206 135.262 853.615 141.093 841.241L164.476 864.687H169.996L216.05 818.585L262.089 864.687H267.609L291.086 841.163C292.869 844.962 295.303 848.467 298.358 851.537C305.243 858.423 314.392 862.206 324.114 862.206C331.387 862.206 338.179 860.066 343.869 856.36C349.56 852.669 354.166 847.428 357.081 841.241L380.48 864.687H386L432.039 818.585V813.126L408.671 789.695C421.014 783.848 429.558 771.272 429.558 756.726C429.558 742.181 420.983 729.558 408.609 723.727L432.039 700.296V694.806L385.985 648.703L432.039 602.569V597.11L408.671 573.695C421.014 567.848 429.558 555.257 429.558 540.726C429.558 526.196 420.983 513.558 408.609 507.711L432.039 484.28V478.79H431.977ZM356.709 471.626C356.709 479.922 353.561 487.49 348.444 493.243L336.923 481.721L355.546 463.097C356.29 465.842 356.709 468.695 356.709 471.626V471.626ZM326.502 789.369C325.696 789.307 324.89 789.276 324.083 789.276C323.277 789.276 322.533 789.307 321.773 789.353L291.52 789.307V758.494C291.551 757.889 291.566 757.285 291.566 756.664C291.566 756.044 291.551 755.455 291.52 754.85V724.099L356.476 724.208V789.415L326.487 789.369H326.502ZM353.809 793.292L348.459 798.642C346.087 796.502 343.466 794.703 340.675 793.261L353.809 793.292ZM307.662 793.199C304.731 794.688 302.033 796.549 299.63 798.735L294.094 793.184H307.662V793.199ZM279.316 778.405L264.988 764.061L242.411 786.671C230.766 781.708 222.579 770.14 222.579 756.68C222.579 743.219 230.75 731.667 242.38 726.689L265.019 749.329L279.347 734.985C284.325 740.537 287.411 747.794 287.643 755.765V757.595C287.411 765.581 284.309 772.854 279.316 778.405V778.405ZM287.643 773.117V786.733L282.092 781.181C284.278 778.762 286.155 776.048 287.643 773.117ZM276.572 781.15C270.834 786.19 263.345 789.276 255.126 789.276C252.134 789.276 249.25 788.826 246.489 788.066L264.988 769.535L276.572 781.15V781.15ZM246.474 725.293C249.234 724.533 252.134 724.084 255.126 724.084C263.36 724.084 270.865 727.185 276.603 732.24L265.019 743.84L246.474 725.293V725.293ZM282.123 732.209L287.643 726.689V740.258C286.155 737.327 284.294 734.613 282.123 732.209ZM279.363 729.48C272.928 723.727 264.43 720.207 255.126 720.207C251.017 720.207 247.048 720.905 243.357 722.176L218.748 697.566L264.802 651.463L289.566 676.228C288.372 679.826 287.721 683.656 287.721 687.657C287.721 696.682 290.977 705.211 296.932 711.895L279.363 729.48V729.48ZM167.035 764.061L152.769 778.328C147.667 772.575 144.55 765.023 144.55 756.742C144.55 748.461 147.683 740.878 152.8 735.125L167.004 749.329L189.643 726.673C201.381 731.605 209.646 743.219 209.646 756.742C209.646 770.264 201.412 781.832 189.721 786.779L167.035 764.061ZM185.611 788.159C182.898 788.904 180.045 789.338 177.098 789.338C168.818 789.338 161.266 786.19 155.513 781.073L167.035 769.535L185.611 788.159ZM150.009 781.104L144.38 786.733V772.761C145.868 775.8 147.776 778.607 150.009 781.104ZM144.38 740.723V726.689L150.04 732.349C147.791 734.846 145.884 737.668 144.38 740.723V740.723ZM155.544 732.38C161.297 727.278 168.833 724.146 177.098 724.146C180.014 724.146 182.836 724.58 185.534 725.309L167.004 743.84L155.544 732.38ZM188.666 722.176C185.038 720.951 181.145 720.269 177.098 720.269C167.763 720.269 159.235 723.804 152.784 729.604L135.231 712.034C141.046 705.568 144.597 697.023 144.597 687.657C144.597 683.625 143.93 679.702 142.69 675.996L167.221 651.448L213.275 697.566L188.666 722.176ZM110.529 789.384C109.723 789.322 108.917 789.291 108.11 789.291C107.304 789.291 106.575 789.322 105.816 789.369L75.5471 789.307V758.448C75.5781 757.858 75.5936 757.269 75.5936 756.68C75.5936 756.09 75.5781 755.501 75.5471 754.927V724.115L140.503 724.223V789.431L110.514 789.384H110.529ZM137.836 793.308L132.486 798.658C130.114 796.518 127.493 794.719 124.702 793.277L137.836 793.308ZM91.6892 793.215C88.774 794.703 86.0604 796.564 83.6569 798.751L78.1211 793.199H91.6892V793.215ZM75.5471 538.927V508.115L140.503 508.239V573.447L110.529 573.384C109.723 573.338 108.917 573.291 108.095 573.291C107.32 573.291 106.544 573.322 105.785 573.384L75.5316 573.322V542.448C75.5626 541.874 75.5781 541.285 75.5781 540.68C75.5781 540.075 75.5626 539.517 75.5316 538.927H75.5471ZM78.1056 504.238L83.6879 498.655C86.1689 500.919 88.9136 502.796 91.8443 504.269L78.1056 504.238ZM124.346 504.331C127.307 502.842 130.052 500.981 132.502 498.779L138.069 504.346H124.346V504.331ZM167.019 533.314L189.658 510.673C201.397 515.605 209.662 527.22 209.662 540.742C209.662 554.264 201.428 565.832 189.736 570.779L167.05 548.046L152.784 562.328C147.683 556.559 144.566 549.023 144.566 540.726C144.566 532.43 147.698 524.878 152.815 519.109L167.019 533.314V533.314ZM155.56 516.364C161.313 511.263 168.849 508.146 177.114 508.146C180.029 508.146 182.851 508.564 185.549 509.293L167.019 527.84L155.56 516.364ZM185.627 572.159C182.913 572.888 180.06 573.322 177.114 573.322C168.833 573.322 161.282 570.19 155.529 565.073L167.05 553.535L185.627 572.159V572.159ZM144.395 524.707V510.673L150.055 516.349C147.807 518.846 145.9 521.652 144.395 524.707ZM150.024 565.088L144.395 570.733V556.745C145.884 559.8 147.791 562.591 150.024 565.088ZM152.769 567.833C159.219 573.648 167.763 577.199 177.114 577.199C181.177 577.199 185.1 576.517 188.759 575.276L213.275 599.855L167.221 645.974L142.643 621.333C143.868 617.689 144.535 613.796 144.535 609.749C144.535 600.662 141.248 592.102 135.231 585.403L152.769 567.833V567.833ZM129.726 585.418L115.523 599.638L138.131 622.31C133.215 634.064 121.617 642.345 108.11 642.345C99.4114 642.345 91.2395 638.949 85.0835 632.793C82.0132 629.722 79.6252 626.124 78.0126 622.217L100.543 599.638L86.4325 585.511C91.8133 580.673 98.8066 577.618 106.498 577.246H109.925C117.306 577.649 124.206 580.502 129.726 585.418V585.418ZM124.702 577.277H137.836L132.486 582.658C130.114 580.502 127.493 578.703 124.702 577.277ZM120.996 599.638L132.455 588.163C137.743 594.133 140.658 601.701 140.658 609.749C140.658 612.68 140.24 615.502 139.511 618.2L120.996 599.638V599.638ZM91.6892 577.215C88.7585 578.703 86.0604 580.549 83.6569 582.735L78.1211 577.184L91.6892 577.215ZM83.7034 588.256L95.0696 599.638L76.6635 618.092C75.9502 615.394 75.5471 612.602 75.5471 609.749C75.5471 601.515 78.6483 594.009 83.7034 588.256V588.256ZM82.3389 635.537C89.2237 642.423 98.3725 646.222 108.11 646.222C122.655 646.222 135.247 637.631 141.077 625.241L164.492 648.719L141.139 672.072C139.371 668.335 136.952 664.877 133.944 661.869C127.059 654.983 117.91 651.184 108.172 651.184C93.5655 651.184 80.9588 659.837 75.1439 672.289L51.5742 648.719L75.0664 625.163C76.8496 628.978 79.2841 632.482 82.3389 635.537V635.537ZM132.502 714.779L138.069 720.346L124.346 720.315C127.307 718.842 130.052 716.966 132.502 714.779V714.779ZM108.172 720.238C104.11 720.238 100.187 719.493 96.5117 718.082C92.8522 716.656 89.4408 714.562 86.4636 711.879L100.59 697.737L78.0901 675.236C82.9746 663.419 94.6199 655.061 108.172 655.061C116.872 655.061 125.043 658.442 131.199 664.598C134.223 667.637 136.58 671.173 138.193 675.019L115.476 697.737L129.726 712.003C123.989 717.121 116.453 720.238 108.172 720.238V720.238ZM132.471 709.259L120.965 697.737L139.573 679.113C140.317 681.873 140.736 684.726 140.736 687.657C140.736 695.953 137.588 703.505 132.471 709.259ZM76.7256 679.361L95.1006 697.737L83.7344 709.119C78.5088 703.18 75.6246 695.643 75.6246 687.657C75.6246 684.788 76.0278 682.012 76.7256 679.361V679.361ZM91.8443 720.253H78.1056L83.6879 714.655C86.1689 716.919 88.9136 718.78 91.8443 720.253ZM169.95 648.719L216.019 602.585L262.073 648.719L216.019 694.821L169.95 648.719ZM265.019 533.314L279.347 518.97C284.325 524.521 287.411 531.779 287.643 539.765V541.579C287.411 549.581 284.309 556.838 279.316 562.405L264.988 548.046L242.411 570.671C230.766 565.693 222.579 554.125 222.579 540.664C222.579 527.204 230.75 515.667 242.396 510.689L265.019 533.314ZM246.474 509.293C249.234 508.518 252.134 508.084 255.126 508.084C263.36 508.084 270.865 511.185 276.603 516.24L265.019 527.84L246.474 509.293V509.293ZM282.123 516.209L287.643 510.673V524.242C286.155 521.311 284.294 518.613 282.123 516.209ZM287.643 557.102V570.733L282.092 565.181C284.278 562.762 286.155 560.048 287.643 557.102V557.102ZM276.572 565.135C270.834 570.174 263.345 573.26 255.126 573.26C252.134 573.26 249.25 572.826 246.489 572.066L264.988 553.535L276.572 565.135V565.135ZM243.388 575.183C247.063 576.439 251.017 577.137 255.126 577.137C264.415 577.137 272.897 573.648 279.332 567.895L296.901 585.496C291.148 591.947 287.643 600.445 287.643 609.749C287.643 613.719 288.279 617.58 289.489 621.24L264.802 645.974L218.748 599.855L243.388 575.183V575.183ZM316.501 599.638L302.39 585.511C307.771 580.673 314.748 577.618 322.455 577.246H325.882C333.248 577.649 340.163 580.502 345.668 585.418L331.464 599.638L354.088 622.31C349.173 634.064 337.558 642.345 324.052 642.345C315.369 642.345 307.181 638.949 301.041 632.793C297.971 629.722 295.583 626.124 293.97 622.217L316.501 599.638ZM292.621 618.092C291.908 615.394 291.504 612.602 291.504 609.749C291.504 601.515 294.606 594.009 299.645 588.256L311.027 599.638L292.621 618.092V618.092ZM299.614 582.735L294.078 577.184L307.647 577.215C304.716 578.703 302.018 580.549 299.614 582.735ZM302.405 711.879L316.547 697.737L294.047 675.236C298.932 663.404 310.577 655.061 324.13 655.061H324.145C332.829 655.061 341.001 658.457 347.157 664.598C350.181 667.637 352.537 671.173 354.15 675.019L331.433 697.737L345.684 712.003C339.946 717.121 332.395 720.238 324.13 720.238C320.067 720.238 316.144 719.493 312.469 718.082C308.809 716.656 305.398 714.562 302.405 711.879V711.879ZM307.802 720.253H294.063L299.645 714.655C302.126 716.919 304.871 718.78 307.802 720.253V720.253ZM311.058 697.737L299.692 709.119C294.466 703.18 291.582 695.643 291.582 687.657C291.582 684.788 291.985 682.012 292.683 679.361L311.058 697.737ZM340.303 720.315C343.265 718.842 346.009 716.966 348.459 714.779L354.011 720.346L340.303 720.315ZM348.428 709.274L336.907 697.737L355.53 679.113C356.275 681.873 356.693 684.726 356.693 687.657C356.693 695.953 353.545 703.506 348.428 709.274V709.274ZM349.901 661.869C343.017 654.983 333.868 651.184 324.145 651.184H324.13C309.523 651.184 296.901 659.837 291.101 672.289L267.532 648.719L291.024 625.163C292.807 628.978 295.241 632.482 298.296 635.537C305.181 642.423 314.33 646.222 324.052 646.222C338.613 646.222 351.188 637.631 357.019 625.241L380.449 648.719L357.096 672.072C355.329 668.335 352.91 664.877 349.901 661.869V661.869ZM355.468 618.2L336.954 599.638L348.413 588.163C353.7 594.133 356.616 601.701 356.616 609.749C356.616 612.68 356.197 615.502 355.468 618.2V618.2ZM340.66 577.277H353.794L348.444 582.658C346.071 580.502 343.451 578.703 340.66 577.277ZM326.502 573.369C325.696 573.322 324.874 573.276 324.068 573.276C323.261 573.276 322.517 573.307 321.757 573.369L291.504 573.307V542.494C291.535 541.889 291.551 541.285 291.551 540.664C291.551 540.044 291.535 539.455 291.504 538.85V508.099L356.461 508.223V573.431L326.487 573.369H326.502ZM294.063 504.222L299.645 498.64C302.126 500.904 304.871 502.78 307.802 504.253L294.063 504.222ZM340.303 504.315C343.265 502.827 346.009 500.966 348.459 498.764L354.011 504.331H340.303V504.315ZM324.13 439.03H324.145C332.829 439.03 341.001 442.426 347.157 448.582C350.181 451.622 352.537 455.142 354.15 458.988L331.433 481.721L345.684 495.988C339.931 501.09 332.395 504.222 324.13 504.222C315.865 504.222 308.391 501.245 302.405 495.864L316.547 481.721L294.047 459.22C298.932 447.388 310.577 439.045 324.13 439.03V439.03ZM292.683 463.345L311.058 481.721L299.692 493.104C294.466 487.149 291.582 479.628 291.582 471.626C291.582 468.757 291.985 465.997 292.683 463.345ZM264.787 435.432L289.551 460.197C288.357 463.795 287.705 467.641 287.705 471.626C287.705 480.667 290.962 489.18 296.916 495.864L279.347 513.465C272.912 507.696 264.415 504.191 255.111 504.191C251.002 504.191 247.032 504.889 243.342 506.161L218.733 481.535L264.787 435.432V435.432ZM239.449 507.742C227.184 513.62 218.686 526.165 218.686 540.649C218.686 555.133 227.184 567.709 239.465 573.586L215.988 597.11L192.605 573.695C204.948 567.848 213.492 555.257 213.492 540.726C213.492 526.196 204.917 513.558 192.558 507.711L215.988 484.28L239.449 507.742ZM142.674 459.965L167.205 435.432L213.259 481.535L188.651 506.145C185.022 504.92 181.13 504.253 177.083 504.253C167.748 504.253 159.219 507.789 152.769 513.589L135.2 496.003C141.031 489.537 144.581 480.992 144.581 471.626C144.581 467.594 143.915 463.671 142.674 459.965V459.965ZM140.705 471.626C140.705 479.922 137.557 487.475 132.44 493.243L120.934 481.721L139.542 463.097C140.286 465.842 140.705 468.695 140.705 471.626ZM108.141 439.03H108.157C116.841 439.03 125.012 442.426 131.168 448.582C134.192 451.622 136.549 455.142 138.162 458.988L115.445 481.721L129.695 495.988C123.958 501.09 116.422 504.222 108.141 504.222C99.8611 504.222 92.4025 501.245 86.4325 495.848L100.559 481.721L78.0591 459.22C82.9436 447.388 94.5889 439.03 108.141 439.03V439.03ZM76.6945 463.345L95.0696 481.721L83.7034 493.104C78.4778 487.149 75.5936 479.628 75.5936 471.626C75.5936 468.757 75.9968 465.997 76.6945 463.345V463.345ZM2.79115 481.535L48.8451 435.432L73.6088 460.197C72.4148 463.795 71.7635 467.641 71.7635 471.626C71.7635 480.667 75.0199 489.18 80.9743 495.864L63.4056 513.465C56.9704 507.696 48.4729 504.191 39.1691 504.191C35.1064 504.191 31.1368 504.858 27.3843 506.145L2.79115 481.535V481.535ZM71.6705 510.658V524.227C70.1819 521.296 68.3366 518.598 66.1502 516.178L71.6705 510.658ZM60.6299 516.225L49.0467 527.824L30.4855 509.262C33.2767 508.487 36.1919 508.068 39.1536 508.068C47.3875 508.068 54.8926 511.154 60.6299 516.225ZM6.60572 540.649C6.60572 531.949 10.0016 523.761 16.1421 517.605C19.1349 514.612 22.6238 512.271 26.4074 510.658L49.0467 533.298L63.3746 518.954C68.3521 524.521 71.4534 531.779 71.6705 539.78V541.533C71.4534 549.55 68.3521 556.823 63.3591 562.39L49.0157 548.03L26.4384 570.655C14.7931 565.677 6.60572 554.109 6.60572 540.649V540.649ZM71.655 557.086V570.717L66.1037 565.166C68.3056 562.747 70.1664 560.017 71.655 557.086V557.086ZM60.5834 565.119C54.8461 570.159 47.3565 573.245 39.1381 573.245C36.1454 573.245 33.2612 572.811 30.5166 572.051L49.0002 553.52L60.5834 565.119V565.119ZM2.79115 599.84L27.4308 575.168C31.1213 576.424 35.0599 577.122 39.1691 577.122C48.4574 577.122 56.9394 573.633 63.3746 567.879L80.9433 585.48C75.2059 591.931 71.686 600.429 71.686 609.733C71.686 613.703 72.3217 617.565 73.5312 621.224L48.8451 645.958L2.79115 599.84ZM2.79115 697.551L48.8451 651.432L73.6088 676.213C72.4148 679.81 71.7635 683.641 71.7635 687.642C71.7635 696.667 75.0199 705.196 80.9743 711.879L63.4056 729.465C56.9704 723.711 48.4729 720.191 39.1691 720.191C35.1064 720.191 31.1368 720.874 27.3843 722.145L2.79115 697.551V697.551ZM71.6705 726.658V740.242C70.1819 737.311 68.3366 734.597 66.1502 732.194L71.6705 726.658ZM60.6299 732.225L49.0467 743.824L30.4855 725.262C33.2767 724.502 36.1919 724.068 39.1536 724.068C47.3875 724.068 54.8926 727.17 60.6299 732.225ZM6.60572 756.664C6.60572 747.965 10.0016 739.777 16.1421 733.621C19.1349 730.612 22.6238 728.286 26.4074 726.673L49.0467 749.314L63.3746 734.97C68.3521 740.521 71.4534 747.794 71.6705 755.78V757.548C71.4534 765.55 68.3521 772.823 63.3591 778.39L49.0157 764.046L26.4384 786.655C14.7931 781.693 6.60572 770.124 6.60572 756.664ZM71.655 773.086V786.717L66.1037 781.166C68.3056 778.746 70.1664 776.033 71.655 773.086V773.086ZM60.5834 781.119C54.8461 786.174 47.3565 789.26 39.1381 789.26C36.1454 789.26 33.2612 788.811 30.5166 788.051L49.0002 769.52L60.5834 781.119V781.119ZM73.5002 837.224L48.8141 861.958L2.76014 815.855L27.3998 791.168C31.0903 792.439 35.0289 793.137 39.1381 793.137C48.4264 793.137 56.9084 789.633 63.3435 783.895L80.9123 801.48C75.1749 807.931 71.655 816.445 71.655 825.749C71.655 829.703 72.2907 833.565 73.5002 837.224V837.224ZM75.5316 825.749C75.5316 817.515 78.6328 809.994 83.6879 804.256L95.0541 815.638L76.648 834.076C75.9347 831.393 75.5316 828.602 75.5316 825.749ZM108.095 858.33H108.079C99.3959 858.33 91.224 854.949 85.068 848.793C81.9977 845.707 79.6097 842.125 77.9971 838.217L100.528 815.638L86.417 801.496C91.7978 796.657 98.7911 793.602 106.498 793.23H109.894C117.275 793.633 124.191 796.487 129.711 801.418L115.507 815.638L138.115 838.294C133.2 850.049 121.601 858.33 108.095 858.33V858.33ZM139.495 834.185L120.981 815.638L132.44 804.163C137.728 810.133 140.643 817.701 140.643 825.733C140.643 828.664 140.224 831.487 139.495 834.185V834.185ZM167.205 861.958L142.628 837.317C143.853 833.689 144.519 829.796 144.519 825.733C144.519 816.662 141.232 808.086 135.216 801.387L152.753 783.833C159.204 789.648 167.748 793.199 177.098 793.199C181.161 793.199 185.084 792.517 188.744 791.276L213.259 815.855L167.205 861.958V861.958ZM192.636 789.695C204.979 783.848 213.523 771.272 213.523 756.726C213.523 742.181 204.948 729.558 192.589 723.727L216.019 700.28L239.48 723.742C227.215 729.62 218.717 742.165 218.717 756.664C218.717 771.163 227.215 783.724 239.496 789.586L216.019 813.126L192.636 789.695V789.695ZM289.489 837.224L264.802 861.958L218.748 815.855L243.373 791.168C247.063 792.439 251.017 793.137 255.126 793.137C264.415 793.137 272.897 789.633 279.332 783.895L296.901 801.496C291.148 807.931 287.643 816.445 287.643 825.749C287.643 829.703 288.279 833.565 289.489 837.224V837.224ZM291.52 825.749C291.52 817.515 294.621 809.994 299.661 804.256L311.042 815.638L292.636 834.076C291.923 831.393 291.52 828.602 291.52 825.749ZM324.068 858.33C315.384 858.33 307.197 854.949 301.056 848.793C297.986 845.707 295.598 842.125 293.985 838.217L316.516 815.638L302.39 801.496C307.786 796.673 314.779 793.618 322.471 793.23H325.882C333.263 793.649 340.179 796.487 345.684 801.418L331.48 815.638L354.104 838.294C349.188 850.049 337.574 858.33 324.068 858.33ZM355.484 834.185L336.969 815.638L348.428 804.163C353.716 810.133 356.631 817.701 356.631 825.733C356.631 828.664 356.212 831.487 355.484 834.185V834.185ZM429.232 815.855L383.178 861.958L358.6 837.333C359.81 833.689 360.492 829.796 360.492 825.733C360.492 816.662 357.205 808.086 351.173 801.387L368.726 783.833C375.177 789.648 383.721 793.199 393.071 793.199C397.134 793.199 401.057 792.517 404.701 791.276L429.232 815.855ZM360.368 786.717V772.745C361.857 775.785 363.764 778.591 365.997 781.088L360.368 786.717ZM371.502 781.057L383.023 769.52L401.6 788.144C398.886 788.888 396.033 789.322 393.087 789.322C384.806 789.322 377.255 786.174 371.502 781.057ZM425.635 756.726C425.635 770.218 417.401 781.817 405.709 786.764L383.023 764.046L368.757 778.312C363.656 772.559 360.523 765.007 360.523 756.726C360.523 748.445 363.671 740.862 368.788 735.109L382.992 749.314L405.631 726.658C417.37 731.589 425.635 743.204 425.635 756.726ZM360.384 740.707V726.673L366.044 732.333C363.795 734.83 361.888 737.652 360.384 740.707V740.707ZM371.548 732.364C377.301 727.263 384.837 724.13 393.102 724.13C396.017 724.13 398.84 724.564 401.538 725.293L383.008 743.824L371.548 732.364V732.364ZM429.263 697.551L404.654 722.161C401.01 720.936 397.134 720.253 393.087 720.253C383.752 720.253 375.223 723.789 368.773 729.604L351.204 712.019C357.034 705.552 360.585 697.008 360.585 687.642C360.585 683.61 359.919 679.686 358.678 675.98L383.209 651.448L429.263 697.551ZM429.248 599.84L383.194 645.958L358.616 621.317C359.825 617.673 360.508 613.781 360.508 609.733C360.508 600.662 357.22 592.086 351.188 585.387L368.742 567.817C375.192 573.633 383.736 577.184 393.087 577.184C397.149 577.184 401.072 576.501 404.716 575.261L429.248 599.84V599.84ZM360.384 570.717V556.745C361.872 559.785 363.78 562.576 366.013 565.073L360.384 570.717ZM371.517 565.057L383.039 553.52L401.615 572.144C398.902 572.888 396.048 573.307 393.102 573.307C384.822 573.307 377.27 570.174 371.517 565.057ZM425.65 540.726C425.65 554.218 417.416 565.817 405.724 570.764L383.039 548.03L368.773 562.312C363.671 556.559 360.539 549.007 360.539 540.726C360.539 532.445 363.687 524.862 368.804 519.094L383.008 533.298L405.647 510.658C417.385 515.589 425.65 527.204 425.65 540.726V540.726ZM360.399 524.692V510.658L366.059 516.333C363.811 518.83 361.903 521.637 360.399 524.692ZM371.564 516.349C377.317 511.247 384.853 508.13 393.118 508.13C396.033 508.13 398.855 508.549 401.553 509.278L383.023 527.824L371.564 516.349V516.349ZM404.685 506.145C401.041 504.92 397.165 504.253 393.118 504.253C383.783 504.253 375.254 507.789 368.804 513.589L351.235 496.003C357.065 489.552 360.616 480.992 360.616 471.626C360.616 467.594 359.95 463.671 358.709 459.965L383.24 435.432L429.294 481.535L404.685 506.145Z" fill="#FBF7F8"/>
<path d="M863.953 478.79L817.915 432.688H812.426L789.073 456.041C787.305 452.304 784.886 448.862 781.878 445.838C774.993 438.952 765.844 435.153 756.122 435.153H756.106C741.499 435.153 728.877 443.822 723.078 456.274L699.508 432.688H694.019L647.965 478.79L601.911 432.688H596.422L573.069 456.041C571.301 452.304 568.882 448.862 565.874 445.838C558.989 438.952 549.841 435.153 540.118 435.153H540.103C525.496 435.153 512.889 443.822 507.074 456.274L483.504 432.688H478.015L431.915 478.837V484.234L455.407 507.727C451.716 509.495 448.305 511.883 445.328 514.876C438.443 521.761 434.659 530.91 434.659 540.649C434.659 555.164 443.172 567.709 455.438 573.586L431.915 597.157V602.523L478.031 648.687L431.915 694.853V700.249L455.407 723.727C451.716 725.495 448.305 727.898 445.328 730.876C438.443 737.761 434.659 746.926 434.659 756.664C434.659 771.163 443.172 783.724 455.438 789.586L431.915 813.173V818.538L478 864.687H483.52L506.997 841.163C508.78 844.962 511.214 848.467 514.269 851.537C521.154 858.423 530.303 862.206 540.025 862.206H540.041C554.586 862.206 567.177 853.615 573.007 841.241L596.391 864.687H601.911L647.965 818.585L694.003 864.687H699.524L723 841.163C724.784 844.962 727.218 848.467 730.273 851.537C737.158 858.423 746.306 862.206 756.029 862.206C763.301 862.206 770.093 860.066 775.784 856.36C781.475 852.669 786.08 847.428 788.996 841.241L812.395 864.687H817.915L863.953 818.585V813.126L840.585 789.695C852.928 783.848 861.472 771.272 861.472 756.726C861.472 742.181 852.897 729.558 840.523 723.727L863.953 700.296V694.806L817.899 648.703L863.953 602.569V597.11L840.585 573.695C852.928 567.848 861.472 555.257 861.472 540.726C861.472 526.196 852.897 513.558 840.523 507.711L863.953 484.28V478.79V478.79ZM788.685 471.626C788.685 479.922 785.538 487.49 780.421 493.243L768.899 481.721L787.522 463.097C788.267 465.842 788.685 468.695 788.685 471.626ZM758.479 789.369C757.673 789.307 756.866 789.276 756.06 789.276C755.254 789.276 754.509 789.307 753.75 789.353L723.497 789.307V758.494C723.528 757.889 723.543 757.285 723.543 756.664C723.543 756.044 723.528 755.455 723.497 754.85V724.099L788.453 724.208V789.415L758.463 789.369H758.479ZM785.786 793.292L780.436 798.642C778.063 796.502 775.443 794.703 772.652 793.261L785.786 793.292V793.292ZM739.639 793.199C736.708 794.688 734.01 796.549 731.606 798.735L726.071 793.184H739.639V793.199ZM711.293 778.405L696.965 764.061L674.388 786.671C662.743 781.708 654.555 770.14 654.555 756.68C654.555 743.219 662.727 731.667 674.357 726.689L696.996 749.329L711.324 734.985C716.302 740.537 719.387 747.794 719.62 755.765V757.595C719.387 765.581 716.286 772.854 711.293 778.405V778.405ZM719.62 773.117V786.733L714.069 781.181C716.255 778.762 718.131 776.048 719.62 773.117ZM708.548 781.15C702.811 786.19 695.321 789.276 687.103 789.276C684.11 789.276 681.226 788.826 678.466 788.066L696.965 769.535L708.548 781.15V781.15ZM678.451 725.293C681.211 724.533 684.11 724.084 687.103 724.084C695.337 724.084 702.842 727.185 708.579 732.24L696.996 743.84L678.451 725.293V725.293ZM714.1 732.209L719.62 726.689V740.258C718.131 737.327 716.271 734.613 714.1 732.209ZM711.34 729.48C704.904 723.727 696.407 720.207 687.103 720.207C682.994 720.207 679.024 720.905 675.334 722.176L650.725 697.566L696.779 651.463L721.543 676.228C720.349 679.826 719.698 683.656 719.698 687.657C719.698 696.682 722.954 705.211 728.908 711.895L711.34 729.48V729.48ZM599.011 764.061L584.746 778.328C579.644 772.575 576.527 765.023 576.527 756.742C576.527 748.461 579.659 740.878 584.777 735.125L598.98 749.329L621.62 726.673C633.358 731.605 641.623 743.219 641.623 756.742C641.623 770.264 633.389 781.832 621.697 786.779L599.011 764.061ZM617.588 788.159C614.874 788.904 612.021 789.338 609.075 789.338C600.795 789.338 593.243 786.19 587.49 781.073L599.011 769.535L617.588 788.159ZM581.985 781.104L576.357 786.733V772.761C577.845 775.8 579.752 778.607 581.985 781.104ZM576.357 740.723V726.689L582.016 732.349C579.768 734.846 577.861 737.668 576.357 740.723V740.723ZM587.521 732.38C593.274 727.278 600.81 724.146 609.075 724.146C611.99 724.146 614.812 724.58 617.511 725.309L598.98 743.84L587.521 732.38ZM620.643 722.176C617.014 720.951 613.122 720.269 609.075 720.269C599.74 720.269 591.212 723.804 584.761 729.604L567.208 712.034C573.023 705.568 576.574 697.023 576.574 687.657C576.574 683.625 575.907 679.702 574.666 675.996L599.197 651.448L645.251 697.566L620.643 722.176ZM542.506 789.384C541.7 789.322 540.893 789.291 540.087 789.291C539.281 789.291 538.552 789.322 537.792 789.369L507.524 789.307V758.448C507.555 757.858 507.57 757.269 507.57 756.68C507.57 756.09 507.555 755.501 507.524 754.927V724.115L572.48 724.223V789.431L542.491 789.384H542.506ZM569.813 793.308L564.463 798.658C562.091 796.518 559.47 794.719 556.679 793.277L569.813 793.308V793.308ZM523.666 793.215C520.751 794.703 518.037 796.564 515.634 798.751L510.098 793.199H523.666V793.215ZM507.524 538.927V508.115L572.48 508.239V573.447L542.506 573.384C541.7 573.338 540.893 573.291 540.072 573.291C539.296 573.291 538.521 573.322 537.761 573.384L507.508 573.322V542.448C507.539 541.874 507.555 541.285 507.555 540.68C507.555 540.075 507.539 539.517 507.508 538.927H507.524ZM510.082 504.238L515.665 498.655C518.146 500.919 520.89 502.796 523.821 504.269L510.082 504.238ZM556.322 504.331C559.284 502.842 562.029 500.981 564.479 498.779L570.045 504.346H556.322V504.331ZM598.996 533.314L621.635 510.673C633.374 515.605 641.638 527.22 641.638 540.742C641.638 554.264 633.405 565.832 621.713 570.779L599.027 548.046L584.761 562.328C579.659 556.559 576.543 549.023 576.543 540.726C576.543 532.43 579.675 524.878 584.792 519.109L598.996 533.314V533.314ZM587.537 516.364C593.29 511.263 600.826 508.146 609.091 508.146C612.006 508.146 614.828 508.564 617.526 509.293L598.996 527.84L587.537 516.364ZM617.604 572.159C614.89 572.888 612.037 573.322 609.091 573.322C600.81 573.322 593.259 570.19 587.506 565.073L599.027 553.535L617.604 572.159ZM576.372 524.707V510.673L582.032 516.349C579.783 518.846 577.876 521.652 576.372 524.707ZM582.001 565.088L576.372 570.733V556.745C577.861 559.8 579.768 562.591 582.001 565.088ZM584.746 567.833C591.196 573.648 599.74 577.199 609.091 577.199C613.153 577.199 617.076 576.517 620.736 575.276L645.251 599.855L599.197 645.974L574.62 621.333C575.845 617.689 576.512 613.796 576.512 609.749C576.512 600.662 573.224 592.102 567.208 585.403L584.746 567.833V567.833ZM561.703 585.418L547.499 599.638L570.107 622.31C565.192 634.064 553.593 642.345 540.087 642.345C531.388 642.345 523.216 638.949 517.06 632.793C513.99 629.722 511.602 626.124 509.989 622.217L532.52 599.638L518.409 585.511C523.79 580.673 530.783 577.618 538.474 577.246H541.901C549.282 577.649 556.183 580.502 561.703 585.418V585.418ZM556.679 577.277H569.813L564.463 582.658C562.091 580.502 559.47 578.703 556.679 577.277V577.277ZM552.973 599.638L564.432 588.163C569.72 594.133 572.635 601.701 572.635 609.749C572.635 612.68 572.216 615.502 571.488 618.2L552.973 599.638ZM523.666 577.215C520.735 578.703 518.037 580.549 515.634 582.735L510.098 577.184L523.666 577.215ZM515.68 588.256L527.046 599.638L508.64 618.092C507.927 615.394 507.524 612.602 507.524 609.749C507.524 601.515 510.625 594.009 515.68 588.256V588.256ZM514.316 635.537C521.2 642.423 530.349 646.222 540.087 646.222C554.632 646.222 567.223 637.631 573.054 625.241L596.468 648.719L573.116 672.072C571.348 668.335 568.929 664.877 565.921 661.869C559.036 654.983 549.887 651.184 540.149 651.184C525.542 651.184 512.935 659.837 507.121 672.289L483.551 648.719L507.043 625.163C508.826 628.978 511.261 632.482 514.316 635.537V635.537ZM564.479 714.779L570.045 720.346L556.322 720.315C559.284 718.842 562.029 716.966 564.479 714.779V714.779ZM540.149 720.238C536.086 720.238 532.163 719.493 528.488 718.082C524.829 716.656 521.417 714.562 518.44 711.879L532.567 697.737L510.067 675.236C514.951 663.419 526.597 655.061 540.149 655.061C548.848 655.061 557.02 658.442 563.176 664.598C566.2 667.637 568.557 671.173 570.17 675.019L547.453 697.737L561.703 712.003C555.966 717.121 548.43 720.238 540.149 720.238V720.238ZM564.448 709.259L552.942 697.737L571.55 679.113C572.294 681.873 572.713 684.726 572.713 687.657C572.713 695.953 569.565 703.505 564.448 709.259ZM508.702 679.361L527.077 697.737L515.711 709.119C510.485 703.18 507.601 695.643 507.601 687.657C507.601 684.788 508.004 682.012 508.702 679.361ZM523.821 720.253H510.082L515.665 714.655C518.146 716.919 520.89 718.78 523.821 720.253ZM601.927 648.719L647.996 602.585L694.05 648.719L647.996 694.821L601.927 648.719ZM696.996 533.314L711.324 518.97C716.302 524.521 719.387 531.779 719.62 539.765V541.579C719.387 549.581 716.286 556.838 711.293 562.405L696.965 548.046L674.388 570.671C662.743 565.693 654.555 554.125 654.555 540.664C654.555 527.204 662.727 515.667 674.372 510.689L696.996 533.314V533.314ZM678.451 509.293C681.211 508.518 684.11 508.084 687.103 508.084C695.337 508.084 702.842 511.185 708.579 516.24L696.996 527.84L678.451 509.293V509.293ZM714.1 516.209L719.62 510.673V524.242C718.131 521.311 716.271 518.613 714.1 516.209ZM719.62 557.102V570.733L714.069 565.181C716.255 562.762 718.131 560.048 719.62 557.102V557.102ZM708.548 565.135C702.811 570.174 695.321 573.26 687.103 573.26C684.11 573.26 681.226 572.826 678.466 572.066L696.965 553.535L708.548 565.135V565.135ZM675.365 575.183C679.04 576.439 682.994 577.137 687.103 577.137C696.391 577.137 704.873 573.648 711.309 567.895L728.877 585.496C723.124 591.947 719.62 600.445 719.62 609.749C719.62 613.719 720.256 617.58 721.465 621.24L696.779 645.974L650.725 599.855L675.365 575.183V575.183ZM748.477 599.638L734.367 585.511C739.747 580.673 746.725 577.618 754.432 577.246H757.859C765.224 577.649 772.14 580.502 777.645 585.418L763.441 599.638L786.065 622.31C781.149 634.064 769.535 642.345 756.029 642.345C747.345 642.345 739.158 638.949 733.017 632.793C729.947 629.722 727.559 626.124 725.947 622.217L748.477 599.638V599.638ZM724.598 618.092C723.884 615.394 723.481 612.602 723.481 609.749C723.481 601.515 726.582 594.009 731.622 588.256L743.004 599.638L724.598 618.092V618.092ZM731.591 582.735L726.055 577.184L739.623 577.215C736.693 578.703 733.994 580.549 731.591 582.735ZM734.382 711.879L748.524 697.737L726.024 675.236C730.909 663.404 742.554 655.061 756.106 655.061H756.122C764.806 655.061 772.977 658.457 779.133 664.598C782.157 667.637 784.514 671.173 786.127 675.019L763.41 697.737L777.66 712.003C771.923 717.121 764.371 720.238 756.106 720.238C752.044 720.238 748.121 719.493 744.446 718.082C740.786 716.656 737.375 714.562 734.382 711.879ZM739.778 720.253H726.04L731.622 714.655C734.103 716.919 736.848 718.78 739.778 720.253ZM743.035 697.737L731.668 709.119C726.443 703.18 723.559 695.643 723.559 687.657C723.559 684.788 723.962 682.012 724.66 679.361L743.035 697.737ZM772.28 720.315C775.241 718.842 777.986 716.966 780.436 714.779L785.987 720.346L772.28 720.315ZM780.405 709.274L768.884 697.737L787.507 679.113C788.251 681.873 788.67 684.726 788.67 687.657C788.67 695.953 785.522 703.506 780.405 709.274ZM781.878 661.869C774.993 654.983 765.844 651.184 756.122 651.184H756.106C741.499 651.184 728.877 659.837 723.078 672.289L699.508 648.719L723 625.163C724.784 628.978 727.218 632.482 730.273 635.537C737.158 642.423 746.306 646.222 756.029 646.222C770.589 646.222 783.165 637.631 788.996 625.241L812.426 648.719L789.073 672.072C787.305 668.335 784.886 664.877 781.878 661.869V661.869ZM787.445 618.2L768.93 599.638L780.389 588.163C785.677 594.133 788.592 601.701 788.592 609.749C788.592 612.68 788.174 615.502 787.445 618.2ZM772.636 577.277H785.77L780.421 582.658C778.048 580.502 775.427 578.703 772.636 577.277V577.277ZM758.479 573.369C757.673 573.322 756.851 573.276 756.044 573.276C755.238 573.276 754.494 573.307 753.734 573.369L723.481 573.307V542.494C723.512 541.889 723.528 541.285 723.528 540.664C723.528 540.044 723.512 539.455 723.481 538.85V508.099L788.437 508.223V573.431L758.463 573.369H758.479ZM726.04 504.222L731.622 498.64C734.103 500.904 736.848 502.78 739.778 504.253L726.04 504.222ZM772.28 504.315C775.241 502.827 777.986 500.966 780.436 498.764L785.987 504.331H772.28V504.315ZM756.106 439.03H756.122C764.806 439.03 772.977 442.426 779.133 448.582C782.157 451.622 784.514 455.142 786.127 458.988L763.41 481.721L777.66 495.988C771.908 501.09 764.371 504.222 756.106 504.222C747.842 504.222 740.368 501.245 734.382 495.864L748.524 481.721L726.024 459.22C730.909 447.388 742.554 439.045 756.106 439.03V439.03ZM724.66 463.345L743.035 481.721L731.668 493.104C726.443 487.149 723.559 479.628 723.559 471.626C723.559 468.757 723.962 465.997 724.66 463.345ZM696.764 435.432L721.527 460.197C720.333 463.795 719.682 467.641 719.682 471.626C719.682 480.667 722.938 489.18 728.893 495.864L711.324 513.465C704.889 507.696 696.391 504.191 687.088 504.191C682.978 504.191 679.009 504.889 675.318 506.161L650.71 481.535L696.764 435.432V435.432ZM671.426 507.742C659.161 513.62 650.663 526.165 650.663 540.649C650.663 555.133 659.161 567.709 671.442 573.586L647.965 597.11L624.581 573.695C636.924 567.848 645.469 555.257 645.469 540.726C645.469 526.196 636.893 513.558 624.535 507.711L647.965 484.28L671.426 507.742V507.742ZM574.651 459.965L599.182 435.432L645.236 481.535L620.627 506.145C616.999 504.92 613.107 504.253 609.06 504.253C599.725 504.253 591.196 507.789 584.746 513.589L567.177 496.003C573.007 489.537 576.558 480.992 576.558 471.626C576.558 467.594 575.891 463.671 574.651 459.965ZM572.682 471.626C572.682 479.922 569.534 487.475 564.417 493.243L552.911 481.721L571.519 463.097C572.263 465.842 572.682 468.695 572.682 471.626ZM540.118 439.03H540.134C548.817 439.03 556.989 442.426 563.145 448.582C566.169 451.622 568.526 455.142 570.138 458.988L547.422 481.721L561.672 495.988C555.935 501.09 548.399 504.222 540.118 504.222C531.838 504.222 524.379 501.245 518.409 495.848L532.536 481.721L510.036 459.22C514.92 447.388 526.566 439.03 540.118 439.03V439.03ZM508.671 463.345L527.046 481.721L515.68 493.104C510.454 487.149 507.57 479.628 507.57 471.626C507.57 468.757 507.973 465.997 508.671 463.345ZM434.737 481.535L480.791 435.432L505.554 460.197C504.36 463.795 503.709 467.641 503.709 471.626C503.709 480.667 506.966 489.18 512.92 495.864L495.351 513.465C488.916 507.696 480.419 504.191 471.115 504.191C467.052 504.191 463.082 504.858 459.33 506.145L434.737 481.535ZM503.616 510.658V524.227C502.128 521.296 500.282 518.598 498.096 516.178L503.616 510.658ZM492.576 516.225L480.992 527.824L462.431 509.262C465.222 508.487 468.138 508.068 471.099 508.068C479.333 508.068 486.838 511.154 492.576 516.225V516.225ZM438.551 540.649C438.551 531.949 441.947 523.761 448.088 517.605C451.081 514.612 454.569 512.271 458.353 510.658L480.992 533.298L495.32 518.954C500.298 524.521 503.399 531.779 503.616 539.78V541.533C503.399 549.55 500.298 556.823 495.305 562.39L480.961 548.03L458.384 570.655C446.739 565.677 438.551 554.109 438.551 540.649V540.649ZM503.601 557.086V570.717L498.049 565.166C500.251 562.747 502.112 560.017 503.601 557.086V557.086ZM492.529 565.119C486.792 570.159 479.302 573.245 471.084 573.245C468.091 573.245 465.207 572.811 462.462 572.051L480.946 553.52L492.529 565.119V565.119ZM434.721 599.84L459.361 575.168C463.051 576.424 466.99 577.122 471.099 577.122C480.388 577.122 488.87 573.633 495.305 567.879L512.873 585.48C507.136 591.931 503.616 600.429 503.616 609.733C503.616 613.703 504.252 617.565 505.461 621.224L480.775 645.958L434.721 599.84V599.84ZM434.721 697.551L480.775 651.432L505.539 676.213C504.345 679.81 503.694 683.641 503.694 687.642C503.694 696.667 506.95 705.196 512.904 711.879L495.336 729.465C488.901 723.711 480.403 720.191 471.099 720.191C467.037 720.191 463.067 720.874 459.314 722.145L434.721 697.551V697.551ZM503.601 726.658V740.242C502.112 737.311 500.267 734.597 498.08 732.194L503.601 726.658ZM492.56 732.225L480.977 743.824L462.416 725.262C465.207 724.502 468.122 724.068 471.084 724.068C479.318 724.068 486.823 727.17 492.56 732.225V732.225ZM438.536 756.664C438.536 747.965 441.932 739.777 448.072 733.621C451.065 730.612 454.554 728.286 458.338 726.673L480.977 749.314L495.305 734.97C500.282 740.521 503.384 747.794 503.601 755.78V757.548C503.384 765.55 500.282 772.823 495.289 778.39L480.946 764.046L458.369 786.655C446.723 781.693 438.536 770.124 438.536 756.664ZM503.585 773.086V786.717L498.034 781.166C500.236 778.746 502.097 776.033 503.585 773.086V773.086ZM492.514 781.119C486.776 786.174 479.287 789.26 471.068 789.26C468.076 789.26 465.191 788.811 462.447 788.051L480.93 769.52L492.514 781.119V781.119ZM505.43 837.224L480.744 861.958L434.69 815.855L459.33 791.168C463.02 792.439 466.959 793.137 471.068 793.137C480.357 793.137 488.839 789.633 495.274 783.895L512.842 801.48C507.105 807.931 503.585 816.445 503.585 825.749C503.585 829.703 504.221 833.565 505.43 837.224V837.224ZM507.462 825.749C507.462 817.515 510.563 809.994 515.618 804.256L526.984 815.638L508.578 834.076C507.865 831.393 507.462 828.602 507.462 825.749V825.749ZM540.025 858.33H540.01C531.326 858.33 523.154 854.949 516.998 848.793C513.928 845.707 511.54 842.125 509.927 838.217L532.458 815.638L518.347 801.496C523.728 796.657 530.721 793.602 538.428 793.23H541.824C549.205 793.633 556.121 796.487 561.641 801.418L547.437 815.638L570.045 838.294C565.13 850.049 553.531 858.33 540.025 858.33V858.33ZM571.426 834.185L552.911 815.638L564.37 804.163C569.658 810.133 572.573 817.701 572.573 825.733C572.573 828.664 572.154 831.487 571.426 834.185ZM599.135 861.958L574.558 837.317C575.783 833.689 576.45 829.796 576.45 825.733C576.45 816.662 573.162 808.086 567.146 801.387L584.683 783.833C591.134 789.648 599.678 793.199 609.029 793.199C613.091 793.199 617.014 792.517 620.674 791.276L645.189 815.855L599.135 861.958ZM624.566 789.695C636.909 783.848 645.453 771.272 645.453 756.726C645.453 742.181 636.878 729.558 624.519 723.727L647.949 700.28L671.411 723.742C659.145 729.62 650.648 742.165 650.648 756.664C650.648 771.163 659.145 783.724 671.426 789.586L647.949 813.126L624.566 789.695V789.695ZM721.419 837.224L696.733 861.958L650.679 815.855L675.303 791.168C678.993 792.439 682.947 793.137 687.057 793.137C696.345 793.137 704.827 789.633 711.262 783.895L728.831 801.496C723.078 807.931 719.573 816.445 719.573 825.749C719.573 829.703 720.209 833.565 721.419 837.224V837.224ZM723.45 825.749C723.45 817.515 726.551 809.994 731.591 804.256L742.973 815.638L724.566 834.076C723.853 831.393 723.45 828.602 723.45 825.749V825.749ZM755.998 858.33C747.314 858.33 739.127 854.949 732.986 848.793C729.916 845.707 727.528 842.125 725.916 838.217L748.446 815.638L734.32 801.496C739.716 796.673 746.71 793.618 754.401 793.23H757.812C765.193 793.649 772.109 796.487 777.614 801.418L763.41 815.638L786.034 838.294C781.118 850.049 769.504 858.33 755.998 858.33V858.33ZM787.414 834.185L768.899 815.638L780.358 804.163C785.646 810.133 788.561 817.701 788.561 825.733C788.561 828.664 788.143 831.487 787.414 834.185ZM861.162 815.855L815.108 861.958L790.531 837.333C791.74 833.689 792.422 829.796 792.422 825.733C792.422 816.662 789.135 808.086 783.103 801.387L800.656 783.833C807.107 789.648 815.651 793.199 825.001 793.199C829.064 793.199 832.987 792.517 836.631 791.276L861.162 815.855V815.855ZM792.298 786.717V772.745C793.787 775.785 795.694 778.591 797.927 781.088L792.298 786.717ZM803.432 781.057L814.953 769.52L833.53 788.144C830.816 788.888 827.963 789.322 825.017 789.322C816.736 789.322 809.185 786.174 803.432 781.057ZM857.565 756.726C857.565 770.218 849.331 781.817 837.639 786.764L814.953 764.046L800.687 778.312C795.586 772.559 792.453 765.007 792.453 756.726C792.453 748.445 795.601 740.862 800.718 735.109L814.922 749.314L837.562 726.658C849.3 731.589 857.565 743.204 857.565 756.726V756.726ZM792.314 740.707V726.673L797.974 732.333C795.725 734.83 793.818 737.652 792.314 740.707V740.707ZM803.478 732.364C809.231 727.263 816.767 724.13 825.032 724.13C827.948 724.13 830.77 724.564 833.468 725.293L814.938 743.824L803.478 732.364ZM861.193 697.551L836.585 722.161C832.941 720.936 829.064 720.253 825.017 720.253C815.682 720.253 807.153 723.789 800.703 729.604L783.134 712.019C788.965 705.552 792.515 697.008 792.515 687.642C792.515 683.61 791.849 679.686 790.608 675.98L815.139 651.448L861.193 697.551V697.551ZM861.178 599.84L815.124 645.958L790.546 621.317C791.756 617.673 792.438 613.781 792.438 609.733C792.438 600.662 789.151 592.086 783.119 585.387L800.672 567.817C807.122 573.633 815.666 577.184 825.017 577.184C829.079 577.184 833.003 576.501 836.647 575.261L861.178 599.84V599.84ZM792.314 570.717V556.745C793.802 559.785 795.71 562.576 797.943 565.073L792.314 570.717ZM803.447 565.057L814.969 553.52L833.545 572.144C830.832 572.888 827.979 573.307 825.032 573.307C816.752 573.307 809.2 570.174 803.447 565.057ZM857.58 540.726C857.58 554.218 849.346 565.817 837.655 570.764L814.969 548.03L800.703 562.312C795.601 556.559 792.469 549.007 792.469 540.726C792.469 532.445 795.617 524.862 800.734 519.094L814.938 533.298L837.577 510.658C849.315 515.589 857.58 527.204 857.58 540.726V540.726ZM792.329 524.692V510.658L797.989 516.333C795.741 518.83 793.834 521.637 792.329 524.692V524.692ZM803.494 516.349C809.247 511.247 816.783 508.13 825.048 508.13C827.963 508.13 830.785 508.549 833.483 509.278L814.953 527.824L803.494 516.349ZM836.616 506.145C832.972 504.92 829.095 504.253 825.048 504.253C815.713 504.253 807.185 507.789 800.734 513.589L783.165 496.003C788.996 489.552 792.546 480.992 792.546 471.626C792.546 467.594 791.88 463.671 790.639 459.965L815.17 435.432L861.224 481.535L836.616 506.145V506.145Z" fill="#FBF7F8"/>
</svg>
