<svg width="160" height="160" viewBox="0 0 160 160" fill="none" xmlns="http://www.w3.org/2000/svg">
<rect width="160" height="160" fill="#F3F3F3"/>
<path d="M82.6302 123.871C80.9121 123.923 79.1425 123.923 77.3729 123.923C77.0792 123.848 76.8226 123.668 76.6501 123.417C76.4776 123.167 76.4008 122.862 76.4337 122.559L80.1562 106.232C81.08 105.778 81.9251 105.178 82.6588 104.453C83.9975 103.271 85.1096 101.853 85.9403 100.268C88.0191 95.9734 88.5403 89.6926 85.9403 84.5689L85.2302 83.6248L89.657 64.1548H82.7332C82.5271 64.2066 83.4606 67.3499 83.1513 68.8122L82.6302 71.3798L81.1698 78.4435L77.5791 73.7862C78.3064 70.7523 79.091 67.7126 80.0244 64.7305C80.8777 63.5791 81.7425 62.3241 82.5271 61.0691L82.7561 60.7237C85.1614 57.1717 87.6183 53.4642 90.1266 49.7855C91.5037 51.0198 92.65 52.4918 93.5112 54.132C93.9293 52.4568 94.6566 50.6779 94.3416 49.0026C93.6339 48.3033 92.8479 47.689 91.9993 47.1719C95.1405 42.6063 98.5663 38.2453 102.256 34.1152H97.4684L89.8918 45.9457C89.5818 45.7383 89.2518 45.5628 88.9068 45.4218C86.9027 44.5668 84.7765 44.0364 82.6073 43.8501C80.0511 43.6528 77.4802 43.9001 75.0077 44.5813C74.2231 41.1271 73.4958 37.6211 72.6082 34.1152H70.9932H66.6236L67.6659 36.3143L69.8478 47.0395C69.159 47.5212 68.515 48.0645 67.9236 48.6629C64.5906 51.8062 60.6333 56.9356 64.2813 66.354L72.087 75.5133L68.5478 94.0391L67.454 96.1864H70.9932H73.6447C73.1236 95.5071 73.1751 94.6666 73.072 93.78C74.1143 89.3299 75.0535 84.7762 76.0901 80.2224L79.9443 84.7762L75.5747 106.284C74.3586 106.542 73.118 106.666 71.8751 106.652H70.9932C65.2148 106.077 60.221 101.575 57.5122 96.6009C56.85 98.3015 56.3271 100.054 55.9487 101.84C60.221 105.708 65.2148 108.011 70.7355 108.328H70.9359H71.039H71.0676C72.4566 108.357 73.8452 108.251 75.2139 108.011L72.5566 121.252L70.9932 126.174V126.226H102.205L104.392 120.889C97.259 122.63 89.9667 123.63 82.6302 123.871ZM82.6302 95.1386L83.6724 90.5331L83.8271 90.9533C85.2817 94.3557 84.6059 98.2762 82.6302 101.264C82.3073 101.827 81.9041 102.339 81.4332 102.784C81.2157 103.051 80.972 103.296 80.7059 103.515L82.6302 95.1386ZM73.4672 68.5013L72.0584 66.7742C71.6976 66.354 71.3311 65.8819 70.9703 65.4098C68.1069 61.4318 66.8584 56.3081 69.2522 51.8062C69.5988 51.1616 70.0012 50.549 70.4549 49.9755L71.1765 53.2915L73.8853 66.354L73.4672 68.5013ZM75.3399 46.1529C76.775 45.5663 78.3242 45.3163 79.8698 45.4218C80.7986 45.4627 81.7221 45.584 82.6302 45.7845C84.7174 46.2131 86.6883 47.0888 88.4086 48.3521L82.6302 57.4595L79.091 62.9516C77.6822 57.402 76.5368 51.7544 75.3399 46.1529Z" fill="#3A3E55"/>
</svg>
