<svg width="158" height="160" viewBox="0 0 158 160" fill="none" xmlns="http://www.w3.org/2000/svg">
<g clip-path="url(#clip0_434_8194)">
<path d="M55.748 77.5012C65.3008 77.5012 73.0449 69.7493 73.0449 60.1869C73.0449 50.6244 65.3008 42.8725 55.748 42.8725C46.1952 42.8725 38.4512 50.6244 38.4512 60.1869C38.4512 69.7493 46.1952 77.5012 55.748 77.5012Z" fill="#D1B1BB"/>
<path d="M96.8363 158.302C118.602 158.302 136.247 140.639 136.247 118.851C136.247 97.0633 118.602 79.4008 96.8363 79.4008C75.0705 79.4008 57.4258 97.0633 57.4258 118.851C57.4258 140.639 75.0705 158.302 96.8363 158.302Z" fill="#DBD4D0"/>
<path d="M90.4727 16.207C89.8743 15.6809 89.0423 15.4618 88.2687 15.6371C87.4805 15.7978 86.809 16.3238 86.4587 17.0836L82.6198 25.4413C76.898 24.1847 71.0302 23.6733 65.1478 23.9655C61.849 24.1117 58.5356 24.5208 55.2806 25.1637C31.2693 29.8247 12.688 46.7445 4.73286 68.1647L4.64528 68.2085L4.68907 68.2962C0.529068 79.5469 -0.697038 92.0541 1.75517 104.678C3.40458 113.182 6.60121 121.145 11.2429 128.349C18.7163 139.979 29.4156 148.936 42.1729 154.254C50.4491 157.732 59.2508 159.485 68.1401 159.485C72.4898 159.485 76.8688 159.061 81.2186 158.214C84.7363 157.527 88.1957 156.563 91.4945 155.365C122.979 143.91 141.152 111.662 134.715 78.6848C134.35 76.8584 133.956 75.1635 133.518 73.5855L143.94 66.7912C144.626 66.3529 145.064 65.6077 145.107 64.8041C145.151 64.0005 144.83 63.1968 144.217 62.6708L90.4727 16.207ZM56.1126 29.4448C57.8641 29.0941 59.6449 28.8311 61.4403 28.6412C61.8636 30.8328 62.6372 34.7925 63.3962 38.4892C64.5201 43.8807 62.8415 47.0514 57.9517 48.7609C50.9454 51.2156 48.5224 58.2144 50.741 69.5527C51.5001 73.4394 50.7265 77.2967 48.61 80.1167C47.2087 81.987 45.3257 83.1559 43.4574 83.3312C37.7648 83.8426 35.4439 79.8683 32.3057 73.2786C31.3569 71.2915 30.4665 69.4212 29.3718 67.7702C25.708 62.2471 16.4976 64.0297 10.3671 66.0168C18.4828 47.7381 35.0644 33.5652 56.1126 29.4448ZM14.9358 125.982C13.5929 123.892 12.396 121.73 11.3013 119.509C17.0669 116.397 28.9485 111.414 32.6998 116.309C35.6629 120.181 35.2979 122.095 34.9038 124.141C34.5389 126.04 34.0864 128.407 36.4511 131.183C38.8303 133.989 41.881 134.354 44.5667 134.69C47.3693 135.041 49.15 135.347 50.5513 137.32C52.8867 140.622 54.215 148.658 54.7843 153.67C51.0622 152.852 47.413 151.712 43.8661 150.222C31.9261 145.239 21.9129 136.852 14.9212 125.982H14.9358ZM80.3866 153.918C73.3656 155.292 66.2425 155.467 59.2946 154.474C58.8859 150.178 57.543 139.599 54.142 134.778C51.5585 131.125 47.9969 130.686 45.1214 130.336C42.6108 130.029 41.0198 129.766 39.7937 128.334C38.7865 127.15 38.9033 126.551 39.2098 124.959C39.6915 122.475 40.3337 119.07 36.1737 113.65C30.0286 105.613 15.2715 112.378 9.49132 115.491C7.98788 111.75 6.83476 107.864 6.04655 103.845C3.85707 92.6386 4.80584 81.5486 8.22143 71.4376C13.8557 69.1729 23.3434 66.6451 25.6934 70.1956C26.613 71.5837 27.445 73.3225 28.3208 75.1635C31.0066 80.8034 34.32 87.7438 42.4648 87.7438C42.9027 87.7438 43.3552 87.7292 43.8223 87.6854C46.9751 87.4077 49.8945 85.6544 52.0839 82.7467C54.9448 78.9332 56.0104 73.8192 55.0178 68.7053C52.405 55.336 57.6598 53.495 59.3822 52.8959C66.3739 50.4412 69.2348 45.1519 67.673 37.5979C66.9724 34.1934 66.2571 30.5698 65.8192 28.3197C70.8258 28.1152 75.8178 28.5389 80.7077 29.5471L51.0768 94.0413C48.9457 93.676 46.6686 94.3773 45.1506 96.1307C42.8589 98.7899 43.1509 102.823 45.8074 105.117L62.8415 119.845C64.0385 120.882 65.5273 121.394 67.0016 121.394C68.7823 121.394 70.5631 120.648 71.833 119.187C73.351 117.434 73.7159 115.082 73.0299 113.021L89.4218 102.34C92.3995 105.423 96.2092 107.527 100.471 108.404C98.8803 110.055 97.4645 110.333 95.4647 110.727C92.9103 111.224 89.7429 111.852 85.7435 115.388C79.1167 121.262 84.5903 141.572 87.9621 151.96C85.4953 152.764 82.9555 153.436 80.3574 153.933L80.3866 153.918ZM51.2811 98.7753L68.3152 113.503C69.1472 114.219 69.2348 115.476 68.5196 116.309C67.8044 117.142 66.5491 117.229 65.7171 116.513L48.6829 101.785C47.8509 101.069 47.7634 99.8127 48.4786 98.9799C49.1938 98.147 50.4491 98.0594 51.2811 98.7753ZM112.367 87.3639C112.674 89.7455 111.754 92.2295 109.682 93.7636C108.207 94.8449 106.412 95.2978 104.602 95.0348C103.683 94.9033 102.821 94.5819 102.048 94.0997L112.367 87.3785V87.3639ZM98.1505 96.6275C99.7707 98.074 101.77 99.0237 103.96 99.3598C104.529 99.4474 105.084 99.4913 105.639 99.4913C108.018 99.4913 110.339 98.7315 112.28 97.285C116.25 94.3481 117.71 89.278 116.279 84.8069L120.819 81.8555C121.797 84.6754 122.045 87.7146 121.447 90.7099C120.571 95.1663 118.002 99.0237 114.236 101.551C110.47 104.079 105.93 105 101.479 104.123C98.3257 103.495 95.4793 102.019 93.1877 99.8712L98.1505 96.6275ZM130.409 79.5177C136.291 109.617 120.235 139.044 92.0929 150.412C87.641 136.619 85.1158 121.773 88.6482 118.632C91.7572 115.885 93.9613 115.447 96.3113 114.994C98.8073 114.512 101.639 113.956 104.515 110.421C104.909 109.924 105.244 109.383 105.493 108.799C109.448 108.667 113.302 107.454 116.673 105.19C121.417 102.004 124.643 97.1535 125.738 91.5573C126.555 87.4077 126.132 83.2143 124.585 79.4008L129.635 76.0986C129.912 77.1945 130.161 78.3195 130.409 79.5323V79.5177ZM131.168 69.8596H131.022V69.9619L122.527 75.4849L121.709 76.0109L70.4025 109.471L54.9302 96.1015L89.4218 21.0871L139.546 64.4242L131.168 69.8888V69.8596Z" fill="black"/>
<path d="M102.105 21.394C102.251 21.4232 102.412 21.4378 102.558 21.4378C103.565 21.4378 104.485 20.7219 104.704 19.6991L108.163 3.14451C108.411 1.96099 107.652 0.792089 106.47 0.543697C105.302 0.295305 104.12 1.05509 103.872 2.23861L100.412 18.7932C100.164 19.9767 100.923 21.1456 102.105 21.394Z" fill="black"/>
<path d="M120.995 37.3934C121.608 37.3934 122.221 37.1303 122.659 36.6336L135.722 21.4817C136.511 20.5611 136.409 19.1877 135.489 18.3841C134.569 17.5951 133.197 17.6973 132.394 18.6032L119.331 33.7551C118.542 34.6757 118.645 36.0491 119.564 36.8527C119.973 37.218 120.484 37.3787 120.995 37.3787V37.3934Z" fill="black"/>
<path d="M157.369 44.5382C156.96 43.3986 155.705 42.8141 154.552 43.2378L138.685 49.0823C137.547 49.5061 136.963 50.7626 137.386 51.9023C137.707 52.7936 138.554 53.3342 139.444 53.3342C139.692 53.3342 139.955 53.2904 140.203 53.2027L156.07 47.3582C157.208 46.9345 157.792 45.6779 157.369 44.5382Z" fill="black"/>
</g>
<defs>
<clipPath id="clip0_434_8194">
<rect width="157" height="159" fill="white" transform="translate(0.5 0.499817)"/>
</clipPath>
</defs>
</svg>
