<svg width="160" height="160" viewBox="0 0 160 160" fill="none" xmlns="http://www.w3.org/2000/svg">
<rect width="160" height="160" fill="#F3F3F3"/>
<path d="M101.563 94.8834C97.6503 100.498 91.6892 104.352 84.9633 105.614V73.2391H115.397C109.991 48.4698 81.9199 36.2962 60.6706 50.1787C39.5642 63.7957 39.1557 95.074 59.8195 109.29C77.9029 122.124 104.075 114.737 112.817 94.3728L104.013 90.4987C103.342 92.0368 102.521 93.5054 101.563 94.8834ZM62.0732 61.3515C72.4766 50.8391 91.3497 51.7311 100.296 63.6187H60.017C60.6477 62.8234 61.3252 62.0663 62.0459 61.3515H62.0732ZM69.7327 103.864C58.1583 99.0025 51.5948 85.2902 55.0808 73.2255H75.4177V105.593C73.4527 105.241 71.5356 104.661 69.7055 103.864H69.7327Z" fill="#3A3E55"/>
</svg>
