<svg width="160" height="160" viewBox="0 0 160 160" fill="none" xmlns="http://www.w3.org/2000/svg">
<rect width="160" height="160" fill="#F3F3F3"/>
<path d="M69.5385 47.7738C55.0223 48.5875 52.0822 68.2866 65.7369 73.3191C66.9106 73.7195 68.1355 73.9497 69.3744 74.0029C74.6668 73.4627 93.395 75.7054 97.8257 71.8148C100.116 70.2875 101.869 68.079 102.837 65.5014C103.804 62.9237 103.937 60.1073 103.217 57.45C102.497 54.7927 100.959 52.4289 98.8228 50.6926C96.6862 48.9563 94.058 47.9353 91.3095 47.7738C91.0019 47.7738 90.7078 47.7738 88.7796 47.7738H86.7283V48.7858C87.0839 48.7858 89.4086 48.7858 89.1898 48.7858C89.142 48.9157 82.1677 66.4405 81.9078 67.09L75.9318 48.7858C75.9318 48.7858 76.0001 48.7858 77.2377 48.7858H78.5574V47.7738H69.5385ZM75.4942 60.9636C77.7301 67.6644 79.5967 73.1482 79.5967 73.155C79.5967 73.1618 79.3848 73.155 74.742 73.155H69.7642C68.0615 73.0715 66.3929 72.6465 64.8576 71.9054C63.3224 71.1642 61.9518 70.1219 60.8274 68.8405C53.518 60.4234 60.6018 47.9584 71.4463 48.7789L75.4942 60.9636ZM90.6395 48.7858C103.836 49.4695 107.433 66.673 95.2206 72.1362C90.783 73.6405 92.1916 73.0114 85.5454 73.1687H80.3898C80.3898 73.1687 82.53 67.6986 85.1761 60.9841C87.8223 54.2695 89.9625 48.7994 89.9625 48.7926C90.1878 48.7769 90.4139 48.7747 90.6395 48.7858Z" fill="#3A3E55"/>
<path d="M35.4394 92.4582C34.2496 96.1642 31.1385 108.287 29.8735 111.316C29.6274 111.583 28.7112 111.474 28.3146 111.508C28.3146 111.508 28.3146 111.604 28.3146 111.692C28.3146 111.781 28.3146 111.863 28.3146 111.904H32.8889C32.8889 111.87 32.9368 111.494 32.93 111.494C32.9232 111.494 31.3505 111.535 31.1727 111.453C30.653 111.214 30.7966 110.674 30.9334 110.031C31.33 108.315 31.706 106.92 32.1163 105.662H32.2599L36.93 105.703C36.889 105.559 38.6462 111.624 38.6052 111.474C38.7146 111.474 36.7385 111.474 36.4103 111.474V111.884H42.9129V111.474H41.183C41.0257 110.913 35.7676 92.5744 35.7129 92.3625C35.7129 92.3625 35.4872 92.3625 35.4462 92.3625L35.4394 92.4582ZM35.7334 101.197C36.3625 103.494 36.8685 105.299 36.8753 105.361H32.2599C32.2599 105.279 34.5505 97.1214 34.5847 97.0189L35.7334 101.197Z" fill="#3A3E55"/>
<path d="M138.031 92.3962C133.996 92.7928 131.296 97.0663 131.145 101.285C130.742 105.456 132.417 109.907 136.048 111.726C140.068 113.654 144.102 109.907 145.128 105.914C146.202 101.688 145.354 96.3415 141.812 93.668C140.75 92.7948 139.404 92.3422 138.031 92.3962ZM138.626 92.7449C143.877 93.2372 143.59 105.907 141.668 109.312C140.8 110.912 139.726 111.952 137.935 111.788C134.585 111.145 133.88 107.104 133.75 103.699C133.6 99.8697 133.778 92.5808 138.626 92.7449Z" fill="#3A3E55"/>
<path d="M14.4341 92.6838L14.4751 93.0872C14.4751 93.0872 14.6597 93.0872 15.3845 93.0872H16.3007C16.5401 93.894 20.9572 108.766 21.9691 112.185H22.2084C23.9452 106.537 26.5093 98.0992 28.1572 93.7983C28.5128 93.2034 29.47 93.1146 30.2085 93.0804V92.6496H27.7196C25.3606 92.6496 25.2375 92.6496 25.2375 92.6496C25.3401 93.3334 25.1144 93.1898 25.7708 93.2034C26.7486 93.1282 27.3435 93.5248 27.2409 94.4479C26.5982 96.9983 24.2119 104.383 23.2751 107.508C23.1726 109.06 22.5503 105.32 21.0871 100.506C19.9589 96.4035 19.0358 93.0804 19.0358 93.0735H20.1093C20.4689 93.1005 20.83 93.1005 21.1896 93.0735L21.1487 92.6701C21.8324 92.6701 15.3708 92.6701 14.4409 92.6701L14.4341 92.6838Z" fill="#3A3E55"/>
<path d="M43.9657 93.2308H46.2357V111.549H43.9383V111.925H57.4357V111.809C57.4357 111.884 57.4836 105.655 57.4357 105.73L57.1212 105.778C57.1691 107.521 56.8408 109.962 55.7195 110.667C54.5161 111.788 51.446 111.48 49.9212 111.535C49.4836 111.535 48.9229 111.535 48.4853 111.535V93.2103H50.7827V92.6496H43.9657V93.2308Z" fill="#3A3E55"/>
<path d="M74.0102 92.9093V93.1486H76.2734C76.2734 93.1008 76.2734 107.733 76.1572 110.202C76.1572 111.802 75.0836 111.473 73.9076 111.569C73.9076 111.569 73.9076 111.569 73.9076 111.767V111.966H78.9196V111.453C77.7914 111.453 76.5811 111.897 76.5333 110.325C76.5333 106.906 76.6016 96.3555 76.6358 93.9486C78.5845 97.2239 87.0836 111.48 87.576 112.246H87.9863C87.9863 105.627 87.8905 98.5025 88.0341 94.3726C88.0341 92.8751 89.135 93.2102 90.188 93.1418V92.7452L85.4495 92.711C85.4495 92.7452 85.4153 93.1897 85.4085 93.217C86.1606 93.217 87.1657 93.0461 87.4598 93.4769C87.7743 94.6392 87.5555 94.6324 87.617 98.1128C87.617 101.238 87.617 104.472 87.617 107.214L78.9332 92.7521H74.0717L74.0102 92.9093Z" fill="#3A3E55"/>
<path d="M91.1248 92.7595C91.1248 92.6843 91.1248 98.3732 91.1248 98.298H91.2889C91.4188 98.2638 91.453 98.298 91.453 98.2228C91.453 97.9493 91.5008 97.6621 91.5282 97.2382C91.6923 95.5288 91.6102 94.2843 93.135 93.6142C93.8188 93.2655 95.9248 93.1561 96.8957 93.2108C96.8957 93.6006 96.8957 107.221 96.8547 111.542H94.5299V111.953H101.518V111.542C101.374 111.542 99.2547 111.488 99.241 111.495C99.241 111.392 99.2752 94.0382 99.282 93.163C101.053 93.2382 103.207 93.2655 104.116 94.4689C104.691 95.3442 104.622 96.91 104.8 98.3595H105.176C105.176 98.0587 105.101 92.9305 105.101 92.6843H91.1795L91.1248 92.7595Z" fill="#3A3E55"/>
<path d="M106.407 92.95V93.2303H108.403V111.453H106.27V111.911H112.677V111.453H110.728V93.2303H112.779V92.6696H106.414L106.407 92.95Z" fill="#3A3E55"/>
<path d="M113.723 92.691C113.723 92.691 113.723 93.0671 113.723 93.1491C114.407 93.1491 115.514 93.1491 115.993 93.1491C115.993 96.5679 115.993 105.669 115.856 110.4C115.795 111.809 114.708 111.447 113.607 111.549V111.946H118.626V111.453C117.511 111.453 116.273 111.905 116.239 110.318C116.239 106.954 116.301 97.2175 116.328 94.6671C116.328 94.2705 116.328 93.9491 116.328 93.9491L121.798 103.098C124.8 108.13 127.268 112.247 127.268 112.247H127.679C127.679 106.879 127.583 98.9953 127.726 94.5372C127.767 92.8825 128.526 93.2107 129.887 93.1696V92.7662C129.203 92.7662 125.846 92.7662 125.149 92.7662C125.149 93.3679 124.923 93.2449 125.579 93.2517C126.352 93.2517 126.851 93.1491 127.152 93.5252C127.508 94.6124 127.234 98.4688 127.303 102.373C127.303 104.123 127.303 106.106 127.303 107.248L118.626 92.8072C118.626 92.8072 118.516 92.8072 116.574 92.8072H114.147L113.723 92.691Z" fill="#3A3E55"/>
<path d="M59.0426 92.9921V93.2724H61.0255V111.522H59.0426C58.9332 112.206 59.7742 111.795 65.6955 111.905H72.3075C72.3075 111.556 72.3075 110.64 72.3075 109.054C72.3075 107.686 72.3075 106.544 72.3075 106.544H71.8699C71.8699 107.672 71.7195 109.45 71.1862 110.12C69.593 112.007 65.887 111.577 63.4118 111.597C63.4118 111.597 63.364 102.517 63.3708 102.517C63.3777 102.517 65.1212 102.455 65.1623 102.469C67.5076 102.626 67.6169 103.802 67.5964 105.772H68.0682C68.0682 105.457 68.0272 98.934 68.0682 98.6057H67.7264C67.5965 100.028 67.7263 100.828 66.9879 101.484C66.3154 101.924 65.52 102.137 64.7178 102.093H63.405C63.405 102.093 63.446 93.3271 63.446 93.3203L67.364 93.3681C69.8323 93.4639 70.9879 94.6946 71.1862 97.2245C71.2272 97.5869 71.1861 97.4639 71.5212 97.5254C71.5212 97.5254 71.2067 92.7391 71.1998 92.7391H59.0768L59.0426 92.9921Z" fill="#3A3E55"/>
</svg>
