<svg width="865" height="865" viewBox="0 0 865 865" fill="none" xmlns="http://www.w3.org/2000/svg">
<path d="M432.301 46.1342L386.278 0.03125H380.789L357.437 23.3851C355.669 19.6479 353.25 16.2053 350.242 13.1814C343.357 6.29616 334.208 2.4969 324.486 2.4969H324.47C309.863 2.4969 297.241 11.1654 291.441 23.6177L267.887 0.03125H262.398L216.344 46.1342L170.306 0.03125H164.816L141.464 23.3851C139.696 19.6479 137.277 16.2053 134.269 13.1814C127.384 6.29616 118.235 2.4969 108.513 2.4969H108.497C93.8902 2.4969 81.2835 11.1654 75.4686 23.6177L51.9144 0.03125H46.4252L0.324707 46.1807V51.5772L23.8169 75.0707C20.1263 76.8385 16.7149 79.2266 13.7377 82.2195C6.85289 89.1047 3.06934 98.2539 3.06934 107.992C3.06934 122.507 11.5823 135.053 23.8479 140.93L0.324707 164.501V169.866L46.4407 216.031L0.324707 262.196V267.593L23.8169 291.071C20.1263 292.838 16.7149 295.242 13.7377 298.219C6.85289 305.105 3.06934 314.269 3.06934 324.008C3.06934 338.507 11.5823 351.068 23.8479 356.93L0.324707 380.516V385.882L46.4097 432.031H51.9299L75.4066 408.507C77.1898 412.306 79.6243 415.811 82.6791 418.881C89.5639 425.766 98.7127 429.55 108.435 429.55H108.451C122.996 429.55 135.587 420.959 141.417 408.584L164.801 432.031H170.321L216.375 385.928L262.414 432.031H267.934L291.41 408.507C293.194 412.306 295.628 415.811 298.683 418.881C305.568 425.766 314.717 429.55 324.439 429.55C331.712 429.55 338.503 427.41 344.194 423.704C349.885 420.013 354.49 414.772 357.406 408.584L380.805 432.031H386.325L432.363 385.928V380.47L408.995 357.038C421.338 351.192 429.882 338.616 429.882 324.07C429.882 309.524 421.307 296.901 408.933 291.071L432.363 267.639V262.15L386.309 216.047L432.363 169.913V164.454L408.995 141.038C421.338 135.192 429.882 122.6 429.882 108.07C429.882 93.5397 421.307 80.9014 408.933 75.0552L432.363 51.6238V46.1342H432.301ZM357.033 38.9699C357.033 47.2662 353.886 54.8337 348.769 60.5869L337.247 49.0651L355.87 30.4409C356.615 33.1857 357.033 36.039 357.033 38.9699V38.9699ZM326.827 356.713C326.021 356.651 325.214 356.62 324.408 356.62C323.602 356.62 322.857 356.651 322.098 356.697L291.845 356.651V325.838C291.876 325.233 291.891 324.628 291.891 324.008C291.891 323.388 291.876 322.798 291.845 322.194V291.443L356.801 291.551V356.759L326.811 356.713H326.827ZM354.134 360.636L348.784 365.986C346.412 363.846 343.791 362.047 341 360.605L354.134 360.636ZM307.987 360.543C305.056 362.032 302.358 363.893 299.954 366.079L294.419 360.527H307.987V360.543ZM279.641 345.749L265.313 331.405L242.736 354.014C231.091 349.052 222.903 337.484 222.903 324.023C222.903 310.563 231.075 299.01 242.705 294.033L265.344 316.673L279.672 302.329C284.65 307.88 287.735 315.138 287.968 323.109V324.938C287.735 332.925 284.634 340.198 279.641 345.749ZM287.968 340.461V354.076L282.417 348.525C284.603 346.106 286.479 343.392 287.968 340.461ZM276.896 348.494C271.159 353.534 263.67 356.62 255.451 356.62C252.458 356.62 249.574 356.17 246.814 355.41L265.313 336.879L276.896 348.494V348.494ZM246.799 292.637C249.559 291.877 252.458 291.427 255.451 291.427C263.685 291.427 271.19 294.529 276.927 299.584L265.344 311.183L246.799 292.637V292.637ZM282.448 299.553L287.968 294.033V307.601C286.479 304.67 284.619 301.957 282.448 299.553ZM279.688 296.824C273.252 291.071 264.755 287.551 255.451 287.551C251.342 287.551 247.372 288.248 243.682 289.52L219.073 264.91L265.127 218.807L289.891 243.572C288.697 247.17 288.046 251 288.046 255.001C288.046 264.026 291.302 272.555 297.256 279.239L279.688 296.824V296.824ZM167.359 331.405L153.094 345.672C147.992 339.918 144.875 332.366 144.875 324.086C144.875 315.805 148.007 308.222 153.125 302.468L167.328 316.673L189.968 294.017C201.706 298.948 209.971 310.563 209.971 324.086C209.971 337.608 201.737 349.176 190.045 354.123L167.359 331.405ZM185.936 355.503C183.222 356.247 180.369 356.682 177.423 356.682C169.143 356.682 161.591 353.534 155.838 348.416L167.359 336.879L185.936 355.503V355.503ZM150.333 348.447L144.705 354.076V340.104C146.193 343.144 148.1 345.951 150.333 348.447ZM144.705 308.067V294.033L150.364 299.693C148.116 302.189 146.209 305.012 144.705 308.067ZM155.869 299.724C161.622 294.622 169.158 291.489 177.423 291.489C180.338 291.489 183.16 291.924 185.859 292.652L167.328 311.183L155.869 299.724ZM188.991 289.52C185.362 288.295 181.47 287.613 177.423 287.613C168.088 287.613 159.56 291.148 153.109 296.948L135.556 279.378C141.371 272.912 144.922 264.367 144.922 255.001C144.922 250.969 144.255 247.046 143.014 243.339L167.545 218.792L213.599 264.91L188.991 289.52ZM110.854 356.728C110.048 356.666 109.242 356.635 108.435 356.635C107.629 356.635 106.9 356.666 106.14 356.713L75.8718 356.651V325.791C75.9028 325.202 75.9183 324.613 75.9183 324.023C75.9183 323.434 75.9028 322.845 75.8718 322.271V291.458L140.828 291.567V356.775L110.839 356.728H110.854ZM138.161 360.652L132.811 366.002C130.439 363.862 127.818 362.063 125.027 360.62L138.161 360.652ZM92.0139 360.558C89.0987 362.047 86.3851 363.908 83.9816 366.095L78.4458 360.543H92.0139V360.558ZM75.8718 106.271V75.4583L140.828 75.5824V140.79L110.854 140.728C110.048 140.682 109.241 140.635 108.42 140.635C107.644 140.635 106.869 140.666 106.109 140.728L75.8563 140.666V109.791C75.8873 109.218 75.9028 108.628 75.9028 108.023C75.9028 107.419 75.8873 106.86 75.8563 106.271H75.8718ZM78.4303 71.5815L84.0126 65.9989C86.4936 68.263 89.2383 70.1394 92.169 71.6125L78.4303 71.5815V71.5815ZM124.67 71.6746C127.632 70.1859 130.377 68.325 132.827 66.123L138.393 71.6901H124.67V71.6746ZM167.344 100.658L189.983 78.017C201.722 82.9483 209.986 94.5632 209.986 108.086C209.986 121.608 201.753 133.176 190.061 138.123L167.375 115.389L153.109 129.672C148.007 123.903 144.891 116.366 144.891 108.07C144.891 99.7736 148.023 92.2216 153.14 86.453L167.344 100.658ZM155.885 83.7082C161.638 78.6063 169.174 75.4894 177.439 75.4894C180.354 75.4894 183.176 75.9081 185.874 76.6369L167.344 95.1835L155.885 83.7082V83.7082ZM185.952 139.503C183.238 140.232 180.385 140.666 177.439 140.666C169.158 140.666 161.607 137.534 155.854 132.416L167.375 120.879L185.952 139.503V139.503ZM144.72 92.0511V78.017L150.38 83.6927C148.131 86.1893 146.224 88.9961 144.72 92.0511V92.0511ZM150.349 132.432L144.72 138.076V124.089C146.209 127.144 148.116 129.935 150.349 132.432ZM153.094 135.177C159.544 140.992 168.088 144.543 177.439 144.543C181.501 144.543 185.424 143.861 189.084 142.62L213.599 167.199L167.545 213.317L142.968 188.677C144.193 185.032 144.86 181.14 144.86 177.093C144.86 168.005 141.572 159.445 135.556 152.746L153.094 135.177V135.177ZM130.051 152.762L115.847 166.982L138.456 189.653C133.54 201.408 121.941 209.689 108.435 209.689C99.7361 209.689 91.5642 206.293 85.4082 200.136C82.3379 197.066 79.95 193.468 78.3373 189.56L100.868 166.982L86.7573 152.855C92.138 148.017 99.1313 144.962 106.823 144.59H110.249C117.63 144.993 124.531 147.846 130.051 152.762V152.762ZM125.027 144.621H138.161L132.811 150.002C130.439 147.846 127.818 146.047 125.027 144.621ZM121.321 166.982L132.78 155.507C138.068 161.477 140.983 169.044 140.983 177.093C140.983 180.023 140.564 182.846 139.836 185.544L121.321 166.982V166.982ZM92.0139 144.558C89.0832 146.047 86.3851 147.893 83.9816 150.079L78.4458 144.527L92.0139 144.558ZM84.0281 155.6L95.3943 166.982L76.9882 185.435C76.2749 182.737 75.8718 179.946 75.8718 177.093C75.8718 168.858 78.9731 161.353 84.0281 155.6V155.6ZM82.6636 202.881C89.5484 209.766 98.6972 213.566 108.435 213.566C122.98 213.566 135.571 204.975 141.402 192.584L164.816 216.062L141.464 239.416C139.696 235.679 137.277 232.221 134.269 229.212C127.384 222.327 118.235 218.528 108.497 218.528C93.8902 218.528 81.2835 227.181 75.4686 239.633L51.8989 216.062L75.3911 192.507C77.1743 196.322 79.6088 199.826 82.6636 202.881V202.881ZM132.827 282.123L138.393 287.69L124.67 287.659C127.632 286.186 130.377 284.31 132.827 282.123V282.123ZM108.497 287.582C104.435 287.582 100.511 286.837 96.8364 285.426C93.1769 283.999 89.7655 281.906 86.7883 279.223L100.915 265.081L78.4148 242.58C83.2993 230.763 94.9446 222.405 108.497 222.405C117.196 222.405 125.368 225.785 131.524 231.942C134.548 234.981 136.905 238.517 138.518 242.362L115.801 265.081L130.051 279.347C124.314 284.465 116.778 287.582 108.497 287.582V287.582ZM132.796 276.602L121.29 265.081L139.898 246.456C140.642 249.217 141.061 252.07 141.061 255.001C141.061 263.297 137.913 270.849 132.796 276.602ZM77.0503 246.705L95.4253 265.081L84.0591 276.463C78.8335 270.524 75.9493 262.987 75.9493 255.001C75.9493 252.132 76.3525 249.356 77.0503 246.705V246.705ZM92.169 287.597H78.4303L84.0126 281.999C86.4936 284.263 89.2383 286.124 92.169 287.597ZM170.275 216.062L216.344 169.928L262.398 216.062L216.344 262.165L170.275 216.062ZM265.344 100.658L279.672 86.3134C284.65 91.865 287.735 99.1224 287.968 107.109V108.923C287.735 116.925 284.634 124.182 279.641 129.749L265.313 115.389L242.736 138.014C231.091 133.037 222.903 121.468 222.903 108.008C222.903 94.5477 231.075 83.0104 242.72 78.0325L265.344 100.658ZM246.799 76.6369C249.559 75.8615 252.458 75.4273 255.451 75.4273C263.685 75.4273 271.19 78.5288 276.927 83.5841L265.344 95.1835L246.799 76.6369ZM282.448 83.5531L287.968 78.017V91.5858C286.479 88.655 284.619 85.9567 282.448 83.5531ZM287.968 124.446V138.076L282.417 132.525C284.603 130.106 286.479 127.392 287.968 124.446V124.446ZM276.896 132.478C271.159 137.518 263.67 140.604 255.451 140.604C252.458 140.604 249.574 140.17 246.814 139.41L265.313 120.879L276.896 132.478ZM243.713 142.527C247.388 143.783 251.342 144.481 255.451 144.481C264.739 144.481 273.221 140.992 279.657 135.239L297.225 152.839C291.472 159.29 287.968 167.788 287.968 177.093C287.968 181.062 288.604 184.924 289.813 188.583L265.127 213.317L219.073 167.199L243.713 142.527V142.527ZM316.825 166.982L302.715 152.855C308.095 148.017 315.073 144.962 322.78 144.59H326.207C333.572 144.993 340.488 147.846 345.993 152.762L331.789 166.982L354.413 189.653C349.497 201.408 337.883 209.689 324.377 209.689C315.693 209.689 307.506 206.293 301.366 200.136C298.295 197.066 295.907 193.468 294.295 189.56L316.825 166.982ZM292.946 185.435C292.232 182.737 291.829 179.946 291.829 177.093C291.829 168.858 294.93 161.353 299.97 155.6L311.352 166.982L292.946 185.435V185.435ZM299.939 150.079L294.403 144.527L307.971 144.558C305.041 146.047 302.342 147.893 299.939 150.079ZM302.73 279.223L316.872 265.081L294.372 242.58C299.257 230.748 310.902 222.405 324.455 222.405H324.47C333.154 222.405 341.325 225.801 347.481 231.942C350.505 234.981 352.862 238.517 354.475 242.362L331.758 265.081L346.008 279.347C340.271 284.465 332.719 287.582 324.455 287.582C320.392 287.582 316.469 286.837 312.794 285.426C309.134 283.999 305.723 281.906 302.73 279.223V279.223ZM308.126 287.597H294.388L299.97 281.999C302.451 284.263 305.196 286.124 308.126 287.597V287.597ZM311.383 265.081L300.016 276.463C294.791 270.524 291.907 262.987 291.907 255.001C291.907 252.132 292.31 249.356 293.008 246.705L311.383 265.081ZM340.628 287.659C343.589 286.186 346.334 284.31 348.784 282.123L354.335 287.69L340.628 287.659ZM348.753 276.618L337.232 265.081L355.855 246.456C356.599 249.217 357.018 252.07 357.018 255.001C357.018 263.297 353.87 270.849 348.753 276.618V276.618ZM350.226 229.212C343.341 222.327 334.193 218.528 324.47 218.528H324.455C309.848 218.528 297.225 227.181 291.426 239.633L267.856 216.062L291.348 192.507C293.132 196.322 295.566 199.826 298.621 202.881C305.506 209.766 314.654 213.566 324.377 213.566C338.937 213.566 351.513 204.975 357.344 192.584L380.774 216.062L357.421 239.416C355.653 235.679 353.234 232.221 350.226 229.212V229.212ZM355.793 185.544L337.278 166.982L348.738 155.507C354.025 161.477 356.94 169.044 356.94 177.093C356.94 180.023 356.522 182.846 355.793 185.544V185.544ZM340.984 144.621H354.118L348.769 150.002C346.396 147.846 343.775 146.047 340.984 144.621ZM326.827 140.713C326.021 140.666 325.199 140.62 324.392 140.62C323.586 140.62 322.842 140.651 322.082 140.713L291.829 140.651V109.838C291.86 109.233 291.876 108.628 291.876 108.008C291.876 107.388 291.86 106.798 291.829 106.194V75.4428L356.785 75.5669V140.775L326.811 140.713H326.827ZM294.388 71.566L299.97 65.9834C302.451 68.2475 305.196 70.1239 308.126 71.597L294.388 71.566V71.566ZM340.628 71.6591C343.589 70.1704 346.334 68.3095 348.784 66.1075L354.335 71.6746H340.628V71.6591ZM324.455 6.3737H324.47C333.154 6.3737 341.325 9.76978 347.481 15.9261C350.505 18.9656 352.862 22.4857 354.475 26.3315L331.758 49.0651L346.008 63.3317C340.255 68.4336 332.719 71.566 324.455 71.566C316.19 71.566 308.716 68.5886 302.73 63.2076L316.872 49.0651L294.372 26.5641C299.257 14.7321 310.902 6.38921 324.455 6.3737V6.3737ZM293.008 30.689L311.383 49.0651L300.016 60.4474C294.791 54.4926 291.907 46.9716 291.907 38.9699C291.907 36.101 292.31 33.3407 293.008 30.689V30.689ZM265.143 2.77603L289.906 27.541C288.712 31.1387 288.061 34.9845 288.061 38.9699C288.061 48.0106 291.317 56.524 297.272 63.2076L279.703 80.8083C273.268 75.0396 264.77 71.535 255.467 71.535C251.357 71.535 247.388 72.2328 243.697 73.5044L219.089 48.879L265.143 2.77603ZM239.805 75.0862C227.54 80.9634 219.042 93.5087 219.042 107.992C219.042 122.476 227.54 135.053 239.821 140.93L216.344 164.454L192.96 141.038C205.304 135.192 213.848 122.6 213.848 108.07C213.848 93.5397 205.272 80.9014 192.914 75.0552L216.344 51.6238L239.805 75.0862ZM143.03 27.3084L167.561 2.77603L213.615 48.879L189.006 73.4889C185.378 72.2639 181.486 71.597 177.439 71.597C168.104 71.597 159.575 75.1327 153.125 80.9324L135.556 63.3472C141.386 56.8807 144.937 48.3362 144.937 38.9699C144.937 34.938 144.27 31.0147 143.03 27.3084V27.3084ZM141.061 38.9699C141.061 47.2662 137.913 54.8182 132.796 60.5869L121.29 49.0651L139.898 30.4409C140.642 33.1857 141.061 36.039 141.061 38.9699ZM108.497 6.3737H108.513C117.196 6.3737 125.368 9.76978 131.524 15.9261C134.548 18.9656 136.905 22.4857 138.518 26.3315L115.801 49.0651L130.051 63.3317C124.314 68.4336 116.778 71.566 108.497 71.566C100.217 71.566 92.7582 68.5886 86.7883 63.1921L100.915 49.0651L78.4148 26.5641C83.2993 14.7321 94.9446 6.3737 108.497 6.3737V6.3737ZM77.0503 30.689L95.4253 49.0651L84.0591 60.4474C78.8335 54.4926 75.9493 46.9716 75.9493 38.9699C75.9493 36.101 76.3525 33.3407 77.0503 30.689V30.689ZM3.11585 48.879L49.1698 2.77603L73.9335 27.541C72.7395 31.1387 72.0882 34.9845 72.0882 38.9699C72.0882 48.0106 75.3446 56.524 81.299 63.2076L63.7303 80.8083C57.2951 75.0396 48.7976 71.535 39.4938 71.535C35.4311 71.535 31.4615 72.2018 27.709 73.4889L3.11585 48.879ZM71.9952 78.0015V91.5703C70.5066 88.6395 68.6613 85.9412 66.4749 83.5221L71.9952 78.0015ZM60.9546 83.5686L49.3714 95.168L30.8102 76.6059C33.6014 75.8305 36.5166 75.4118 39.4783 75.4118C47.7122 75.4118 55.2173 78.4978 60.9546 83.5686ZM6.94593 107.992C6.94593 99.2929 10.3418 91.1051 16.4824 84.9488C19.4751 81.9559 22.964 79.6143 26.7476 78.0015L49.3869 100.642L63.7148 86.2979C68.6923 91.865 71.7936 99.1223 72.0107 107.124V108.876C71.7936 116.894 68.6923 124.166 63.6993 129.734L49.3559 115.374L26.7786 137.999C15.1333 133.021 6.94593 121.453 6.94593 107.992V107.992ZM71.9952 124.43V138.061L66.4439 132.509C68.6458 130.09 70.5066 127.361 71.9952 124.43ZM60.9236 132.463C55.1863 137.503 47.6967 140.589 39.4783 140.589C36.4856 140.589 33.6014 140.154 30.8568 139.395L49.3404 120.863L60.9236 132.463ZM3.11585 167.184L27.7555 142.512C31.446 143.768 35.3846 144.465 39.4938 144.465C48.7821 144.465 57.2641 140.976 63.6993 135.223L81.268 152.824C75.5306 159.275 72.0107 167.773 72.0107 177.077C72.0107 181.047 72.6464 184.908 73.8559 188.568L49.1698 213.302L3.11585 167.184ZM3.11585 264.894L49.1698 218.776L73.9335 243.557C72.7395 247.154 72.0882 250.985 72.0882 254.985C72.0882 264.011 75.3446 272.54 81.299 279.223L63.7303 296.808C57.2951 291.055 48.7976 287.535 39.4938 287.535C35.4311 287.535 31.4615 288.217 27.709 289.489L3.11585 264.894V264.894ZM71.9952 294.002V307.586C70.5066 304.655 68.6613 301.941 66.4749 299.538L71.9952 294.002ZM60.9546 299.569L49.3714 311.168L30.8102 292.606C33.6014 291.846 36.5166 291.412 39.4783 291.412C47.7122 291.412 55.2173 294.513 60.9546 299.569V299.569ZM6.93042 324.008C6.93042 315.308 10.3263 307.121 16.4668 300.964C19.4596 297.956 22.9485 295.63 26.7321 294.017L49.3714 316.658L63.6993 302.313C68.6768 307.865 71.7781 315.138 71.9952 323.124V324.892C71.7781 332.894 68.6768 340.166 63.6838 345.734L49.3404 331.389L26.7631 353.999C15.1178 349.037 6.93042 337.468 6.93042 324.008V324.008ZM71.9797 340.43V354.061L66.4284 348.509C68.6303 346.09 70.4911 343.376 71.9797 340.43V340.43ZM60.9081 348.463C55.1708 353.518 47.6812 356.604 39.4628 356.604C36.4701 356.604 33.5859 356.154 30.8413 355.395L49.3249 336.863L60.9081 348.463ZM73.8249 404.568L49.1388 429.302L3.11585 383.199L27.7555 358.512C31.446 359.783 35.3846 360.481 39.4938 360.481C48.7821 360.481 57.2641 356.976 63.6993 351.239L81.268 368.824C75.5306 375.275 72.0107 383.788 72.0107 393.093C72.0107 397.047 72.6464 400.908 73.8559 404.568H73.8249ZM75.8563 393.093C75.8563 384.858 78.9575 377.337 84.0126 371.6L95.3788 382.982L76.9727 401.42C76.2594 398.737 75.8563 395.946 75.8563 393.093V393.093ZM108.42 425.673H108.404C99.7206 425.673 91.5487 422.293 85.3927 416.136C82.3224 413.05 79.9344 409.468 78.3218 405.56L100.853 382.982L86.7417 368.839C92.1225 364.001 99.1158 360.946 106.823 360.574H110.218C117.599 360.977 124.515 363.83 130.036 368.762L115.832 382.982L138.44 405.638C133.524 417.392 121.926 425.673 108.42 425.673V425.673ZM139.82 401.529L121.305 382.982L132.765 371.507C138.052 377.477 140.968 385.044 140.968 393.077C140.968 396.008 140.549 398.83 139.82 401.529V401.529ZM167.53 429.302L142.952 404.661C144.177 401.032 144.844 397.14 144.844 393.077C144.844 384.005 141.557 375.43 135.54 368.731L153.078 351.177C159.529 356.992 168.073 360.543 177.423 360.543C181.486 360.543 185.409 359.861 189.068 358.62L213.584 383.199L167.53 429.302V429.302ZM192.96 357.038C205.304 351.192 213.848 338.616 213.848 324.07C213.848 309.524 205.272 296.901 192.914 291.071L216.344 267.624L239.805 291.086C227.54 296.963 219.042 309.509 219.042 324.008C219.042 338.507 227.54 351.068 239.821 356.93L216.344 380.47L192.96 357.038V357.038ZM289.813 404.568L265.127 429.302L219.073 383.199L243.697 358.512C247.388 359.783 251.342 360.481 255.451 360.481C264.739 360.481 273.221 356.976 279.657 351.239L297.225 368.839C291.472 375.275 287.968 383.788 287.968 393.093C287.968 397.047 288.604 400.908 289.813 404.568V404.568ZM291.845 393.093C291.845 384.858 294.946 377.337 299.985 371.6L311.367 382.982L292.961 401.42C292.248 398.737 291.845 395.946 291.845 393.093V393.093ZM324.392 425.673C315.709 425.673 307.522 422.293 301.381 416.136C298.311 413.05 295.923 409.468 294.31 405.56L316.841 382.982L302.715 368.839C308.111 364.017 315.104 360.962 322.795 360.574H326.207C333.588 360.993 340.504 363.83 346.008 368.762L331.805 382.982L354.428 405.638C349.513 417.392 337.899 425.673 324.392 425.673ZM355.808 401.529L337.294 382.982L348.753 371.507C354.041 377.477 356.956 385.044 356.956 393.077C356.956 396.008 356.537 398.83 355.808 401.529V401.529ZM429.557 383.199L383.503 429.302L358.925 404.676C360.135 401.032 360.817 397.14 360.817 393.077C360.817 384.005 357.53 375.43 351.498 368.731L369.051 351.177C375.501 356.992 384.046 360.543 393.396 360.543C397.459 360.543 401.382 359.861 405.026 358.62L429.557 383.199V383.199ZM360.693 354.061V340.089C362.182 343.128 364.089 345.935 366.322 348.432L360.693 354.061ZM371.826 348.401L383.348 336.863L401.924 355.488C399.211 356.232 396.358 356.666 393.411 356.666C385.131 356.666 377.579 353.518 371.826 348.401V348.401ZM425.959 324.07C425.959 337.561 417.725 349.161 406.034 354.107L383.348 331.389L369.082 345.656C363.98 339.903 360.848 332.351 360.848 324.07C360.848 315.789 363.996 308.206 369.113 302.453L383.317 316.658L405.956 294.002C417.694 298.933 425.959 310.548 425.959 324.07ZM360.708 308.051V294.017L366.368 299.677C364.12 302.174 362.213 304.996 360.708 308.051ZM371.873 299.708C377.626 294.606 385.162 291.474 393.427 291.474C396.342 291.474 399.164 291.908 401.862 292.637L383.332 311.168L371.873 299.708V299.708ZM429.588 264.894L404.979 289.504C401.335 288.279 397.459 287.597 393.411 287.597C384.077 287.597 375.548 291.133 369.097 296.948L351.529 279.363C357.359 272.896 360.91 264.352 360.91 254.985C360.91 250.953 360.243 247.03 359.003 243.324L383.534 218.792L429.588 264.894ZM429.572 167.184L383.518 213.302L358.941 188.661C360.15 185.017 360.832 181.124 360.832 177.077C360.832 168.005 357.545 159.43 351.513 152.731L369.066 135.161C375.517 140.976 384.061 144.527 393.411 144.527C397.474 144.527 401.397 143.845 405.041 142.605L429.572 167.184V167.184ZM360.708 138.061V124.089C362.197 127.128 364.104 129.92 366.337 132.416L360.708 138.061ZM371.842 132.401L383.363 120.863L401.94 139.488C399.226 140.232 396.373 140.651 393.427 140.651C385.146 140.651 377.595 137.518 371.842 132.401ZM425.975 108.07C425.975 121.561 417.741 133.161 406.049 138.107L383.363 115.374L369.097 129.656C363.996 123.903 360.863 116.351 360.863 108.07C360.863 99.7892 364.011 92.2061 369.128 86.4374L383.332 100.642L405.972 78.0015C417.71 82.9328 425.975 94.5477 425.975 108.07ZM360.724 92.0356V78.0015L366.384 83.6772C364.135 86.1738 362.228 88.9806 360.724 92.0356ZM371.889 83.6927C377.641 78.5908 385.177 75.4738 393.442 75.4738C396.358 75.4738 399.18 75.8925 401.878 76.6214L383.348 95.168L371.889 83.6927V83.6927ZM405.01 73.4889C401.366 72.2639 397.49 71.597 393.442 71.597C384.108 71.597 375.579 75.1327 369.128 80.9324L351.56 63.3472C357.39 56.8962 360.941 48.3362 360.941 38.9699C360.941 34.938 360.274 31.0147 359.034 27.3084L383.565 2.77603L429.619 48.879L405.01 73.4889Z" fill="#FCF8EF"/>
<path d="M864.278 46.1342L818.255 0.03125H812.766L789.414 23.3851C787.646 19.6479 785.227 16.2053 782.219 13.1814C775.334 6.29616 766.185 2.4969 756.462 2.4969H756.447C741.84 2.4969 729.218 11.1654 723.418 23.6177L699.849 0.03125H694.359L648.305 46.1342L602.283 0.03125H596.793L573.441 23.3851C571.673 19.6479 569.254 16.2053 566.246 13.1814C559.361 6.29616 550.212 2.4969 540.49 2.4969H540.474C525.867 2.4969 513.26 11.1654 507.446 23.6177L483.876 0.03125H478.387L432.286 46.1807V51.5772L455.778 75.0707C452.088 76.8385 448.676 79.2266 445.699 82.2195C438.814 89.1047 435.031 98.2539 435.031 107.992C435.031 122.507 443.544 135.053 455.809 140.93L432.286 164.501V169.866L478.402 216.031L432.286 262.196V267.593L455.778 291.071C452.088 292.838 448.676 295.242 445.699 298.219C438.814 305.105 435.031 314.269 435.031 324.008C435.031 338.507 443.544 351.068 455.809 356.93L432.286 380.516V385.882L478.371 432.031H483.891L507.368 408.507C509.151 412.306 511.586 415.811 514.64 418.881C521.525 425.766 530.674 429.55 540.397 429.55H540.412C554.957 429.55 567.548 420.959 573.379 408.584L596.762 432.031H602.283L648.336 385.928L694.375 432.031H699.895L723.372 408.507C725.155 412.306 727.59 415.811 730.644 418.881C737.529 425.766 746.678 429.55 756.4 429.55C763.673 429.55 770.465 427.41 776.156 423.704C781.846 420.013 786.452 414.772 789.367 408.584L812.766 432.031H818.286L864.325 385.928V380.47L840.957 357.038C853.3 351.192 861.844 338.616 861.844 324.07C861.844 309.524 853.269 296.901 840.895 291.071L864.325 267.639V262.15L818.271 216.047L864.325 169.913V164.454L840.957 141.038C853.3 135.192 861.844 122.6 861.844 108.07C861.844 93.5397 853.269 80.9014 840.895 75.0552L864.325 51.6238V46.1342H864.278ZM789.01 38.9699C789.01 47.2662 785.863 54.8337 780.745 60.5869L769.224 49.0651L787.847 30.4409C788.592 33.1857 789.01 36.039 789.01 38.9699ZM758.804 356.713C757.998 356.651 757.191 356.62 756.385 356.62C755.579 356.62 754.834 356.651 754.074 356.697L723.821 356.651V325.838C723.853 325.233 723.868 324.628 723.868 324.008C723.868 323.388 723.853 322.798 723.821 322.194V291.443L788.778 291.551V356.759L758.788 356.713H758.804ZM786.111 360.636L780.761 365.986C778.388 363.846 775.768 362.047 772.977 360.605L786.111 360.636V360.636ZM739.964 360.543C737.033 362.032 734.335 363.893 731.931 366.079L726.396 360.527H739.964V360.543ZM711.618 345.749L697.29 331.405L674.713 354.014C663.068 349.052 654.88 337.484 654.88 324.023C654.88 310.563 663.052 299.01 674.682 294.033L697.321 316.673L711.649 302.329C716.627 307.88 719.712 315.138 719.945 323.109V324.938C719.712 332.925 716.611 340.198 711.618 345.749ZM719.945 340.461V354.076L714.394 348.525C716.58 346.106 718.456 343.392 719.945 340.461ZM708.873 348.494C703.136 353.534 695.646 356.62 687.428 356.62C684.435 356.62 681.551 356.17 678.791 355.41L697.29 336.879L708.873 348.494V348.494ZM678.775 292.637C681.536 291.877 684.435 291.427 687.428 291.427C695.662 291.427 703.167 294.529 708.904 299.584L697.321 311.183L678.775 292.637V292.637ZM714.425 299.553L719.945 294.033V307.601C718.456 304.67 716.596 301.957 714.425 299.553ZM711.665 296.824C705.229 291.071 696.732 287.551 687.428 287.551C683.319 287.551 679.349 288.248 675.659 289.52L651.05 264.91L697.104 218.807L721.868 243.572C720.674 247.17 720.022 251 720.022 255.001C720.022 264.026 723.279 272.555 729.233 279.239L711.665 296.824V296.824ZM599.336 331.405L585.07 345.672C579.969 339.918 576.852 332.366 576.852 324.086C576.852 315.805 579.984 308.222 585.101 302.468L599.305 316.673L621.945 294.017C633.683 298.948 641.948 310.563 641.948 324.086C641.948 337.608 633.714 349.176 622.022 354.123L599.336 331.405ZM617.913 355.503C615.199 356.247 612.346 356.682 609.4 356.682C601.12 356.682 593.568 353.534 587.815 348.416L599.336 336.879L617.913 355.503V355.503ZM582.31 348.447L576.682 354.076V340.104C578.17 343.144 580.077 345.951 582.31 348.447ZM576.682 308.067V294.033L582.341 299.693C580.093 302.189 578.186 305.012 576.682 308.067ZM587.846 299.724C593.599 294.622 601.135 291.489 609.4 291.489C612.315 291.489 615.137 291.924 617.835 292.652L599.305 311.183L587.846 299.724ZM620.968 289.52C617.339 288.295 613.447 287.613 609.4 287.613C600.065 287.613 591.537 291.148 585.086 296.948L567.533 279.378C573.348 272.912 576.899 264.367 576.899 255.001C576.899 250.969 576.232 247.046 574.991 243.339L599.522 218.792L645.576 264.91L620.968 289.52ZM542.831 356.728C542.025 356.666 541.218 356.635 540.412 356.635C539.606 356.635 538.877 356.666 538.117 356.713L507.849 356.651V325.791C507.88 325.202 507.895 324.613 507.895 324.023C507.895 323.434 507.88 322.845 507.849 322.271V291.458L572.805 291.567V356.775L542.816 356.728H542.831ZM570.138 360.652L564.788 366.002C562.416 363.862 559.795 362.063 557.004 360.62L570.138 360.652V360.652ZM523.991 360.558C521.076 362.047 518.362 363.908 515.959 366.095L510.423 360.543H523.991V360.558ZM507.849 106.271V75.4583L572.805 75.5824V140.79L542.831 140.728C542.025 140.682 541.218 140.635 540.397 140.635C539.621 140.635 538.846 140.666 538.086 140.728L507.833 140.666V109.791C507.864 109.218 507.88 108.628 507.88 108.023C507.88 107.419 507.864 106.86 507.833 106.271H507.849ZM510.407 71.5815L515.99 65.9989C518.471 68.263 521.215 70.1394 524.146 71.6125L510.407 71.5815V71.5815ZM556.647 71.6746C559.609 70.1859 562.354 68.325 564.804 66.123L570.37 71.6901H556.647V71.6746ZM599.321 100.658L621.96 78.017C633.698 82.9483 641.963 94.5632 641.963 108.086C641.963 121.608 633.729 133.176 622.038 138.123L599.352 115.389L585.086 129.672C579.984 123.903 576.868 116.366 576.868 108.07C576.868 99.7736 580 92.2216 585.117 86.453L599.321 100.658ZM587.862 83.7082C593.614 78.6063 601.151 75.4894 609.415 75.4894C612.331 75.4894 615.153 75.9081 617.851 76.6369L599.321 95.1835L587.862 83.7082V83.7082ZM617.928 139.503C615.215 140.232 612.362 140.666 609.415 140.666C601.135 140.666 593.583 137.534 587.831 132.416L599.352 120.879L617.928 139.503ZM576.697 92.0511V78.017L582.357 83.6927C580.108 86.1893 578.201 88.9961 576.697 92.0511V92.0511ZM582.326 132.432L576.697 138.076V124.089C578.186 127.144 580.093 129.935 582.326 132.432ZM585.07 135.177C591.521 140.992 600.065 144.543 609.415 144.543C613.478 144.543 617.401 143.861 621.061 142.62L645.576 167.199L599.522 213.317L574.945 188.677C576.17 185.032 576.837 181.14 576.837 177.093C576.837 168.005 573.549 159.445 567.533 152.746L585.07 135.177V135.177ZM562.028 152.762L547.824 166.982L570.432 189.653C565.517 201.408 553.918 209.689 540.412 209.689C531.713 209.689 523.541 206.293 517.385 200.136C514.315 197.066 511.927 193.468 510.314 189.56L532.845 166.982L518.734 152.855C524.115 148.017 531.108 144.962 538.799 144.59H542.226C549.607 144.993 556.508 147.846 562.028 152.762V152.762ZM557.004 144.621H570.138L564.788 150.002C562.416 147.846 559.795 146.047 557.004 144.621V144.621ZM553.298 166.982L564.757 155.507C570.045 161.477 572.96 169.044 572.96 177.093C572.96 180.023 572.541 182.846 571.812 185.544L553.298 166.982ZM523.991 144.558C521.06 146.047 518.362 147.893 515.959 150.079L510.423 144.527L523.991 144.558ZM516.005 155.6L527.371 166.982L508.965 185.435C508.252 182.737 507.849 179.946 507.849 177.093C507.849 168.858 510.95 161.353 516.005 155.6V155.6ZM514.64 202.881C521.525 209.766 530.674 213.566 540.412 213.566C554.957 213.566 567.548 204.975 573.379 192.584L596.793 216.062L573.441 239.416C571.673 235.679 569.254 232.221 566.246 229.212C559.361 222.327 550.212 218.528 540.474 218.528C525.867 218.528 513.26 227.181 507.446 239.633L483.876 216.062L507.368 192.507C509.151 196.322 511.586 199.826 514.64 202.881V202.881ZM564.804 282.123L570.37 287.69L556.647 287.659C559.609 286.186 562.354 284.31 564.804 282.123V282.123ZM540.474 287.582C536.411 287.582 532.488 286.837 528.813 285.426C525.154 283.999 521.742 281.906 518.765 279.223L532.892 265.081L510.392 242.58C515.276 230.763 526.922 222.405 540.474 222.405C549.173 222.405 557.345 225.785 563.501 231.942C566.525 234.981 568.882 238.517 570.494 242.362L547.778 265.081L562.028 279.347C556.291 284.465 548.755 287.582 540.474 287.582V287.582ZM564.773 276.602L553.267 265.081L571.875 246.456C572.619 249.217 573.038 252.07 573.038 255.001C573.038 263.297 569.89 270.849 564.773 276.602ZM509.027 246.705L527.402 265.081L516.036 276.463C510.81 270.524 507.926 262.987 507.926 255.001C507.926 252.132 508.329 249.356 509.027 246.705ZM524.146 287.597H510.407L515.99 281.999C518.471 284.263 521.215 286.124 524.146 287.597ZM602.252 216.062L648.321 169.928L694.375 216.062L648.321 262.165L602.252 216.062ZM697.321 100.658L711.649 86.3134C716.627 91.865 719.712 99.1224 719.945 107.109V108.923C719.712 116.925 716.611 124.182 711.618 129.749L697.29 115.389L674.713 138.014C663.068 133.037 654.88 121.468 654.88 108.008C654.88 94.5477 663.052 83.0104 674.697 78.0325L697.321 100.658V100.658ZM678.775 76.6369C681.536 75.8615 684.435 75.4273 687.428 75.4273C695.662 75.4273 703.167 78.5288 708.904 83.5841L697.321 95.1835L678.775 76.6369ZM714.425 83.5531L719.945 78.017V91.5858C718.456 88.655 716.596 85.9567 714.425 83.5531ZM719.945 124.446V138.076L714.394 132.525C716.58 130.106 718.456 127.392 719.945 124.446V124.446ZM708.873 132.478C703.136 137.518 695.646 140.604 687.428 140.604C684.435 140.604 681.551 140.17 678.791 139.41L697.29 120.879L708.873 132.478V132.478ZM675.69 142.527C679.365 143.783 683.319 144.481 687.428 144.481C696.716 144.481 705.198 140.992 711.634 135.239L729.202 152.839C723.449 159.29 719.945 167.788 719.945 177.093C719.945 181.062 720.581 184.924 721.79 188.583L697.104 213.317L651.05 167.199L675.69 142.527V142.527ZM748.802 166.982L734.691 152.855C740.072 148.017 747.05 144.962 754.757 144.59H758.184C765.549 144.993 772.465 147.846 777.97 152.762L763.766 166.982L786.39 189.653C781.474 201.408 769.86 209.689 756.354 209.689C747.67 209.689 739.483 206.293 733.342 200.136C730.272 197.066 727.884 193.468 726.272 189.56L748.802 166.982V166.982ZM724.922 185.435C724.209 182.737 723.806 179.946 723.806 177.093C723.806 168.858 726.907 161.353 731.947 155.6L743.329 166.982L724.922 185.435V185.435ZM731.916 150.079L726.38 144.527L739.948 144.558C737.017 146.047 734.319 147.893 731.916 150.079ZM734.707 279.223L748.849 265.081L726.349 242.58C731.234 230.748 742.879 222.405 756.431 222.405H756.447C765.131 222.405 773.302 225.801 779.458 231.942C782.482 234.981 784.839 238.517 786.452 242.362L763.735 265.081L777.985 279.347C772.248 284.465 764.696 287.582 756.431 287.582C752.369 287.582 748.446 286.837 744.771 285.426C741.111 283.999 737.7 281.906 734.707 279.223V279.223ZM740.103 287.597H726.365L731.947 281.999C734.428 284.263 737.172 286.124 740.103 287.597ZM743.36 265.081L731.993 276.463C726.768 270.524 723.884 262.987 723.884 255.001C723.884 252.132 724.287 249.356 724.984 246.705L743.36 265.081ZM772.605 287.659C775.566 286.186 778.311 284.31 780.761 282.123L786.312 287.69L772.605 287.659ZM780.73 276.618L769.209 265.081L787.832 246.456C788.576 249.217 788.995 252.07 788.995 255.001C788.995 263.297 785.847 270.849 780.73 276.618ZM782.203 229.212C775.318 222.327 766.169 218.528 756.447 218.528H756.431C741.824 218.528 729.202 227.181 723.403 239.633L699.833 216.062L723.325 192.507C725.109 196.322 727.543 199.826 730.598 202.881C737.483 209.766 746.631 213.566 756.354 213.566C770.914 213.566 783.49 204.975 789.32 192.584L812.751 216.062L789.398 239.416C787.63 235.679 785.211 232.221 782.203 229.212V229.212ZM787.77 185.544L769.255 166.982L780.714 155.507C786.002 161.477 788.917 169.044 788.917 177.093C788.917 180.023 788.499 182.846 787.77 185.544ZM772.961 144.621H786.095L780.745 150.002C778.373 147.846 775.752 146.047 772.961 144.621V144.621ZM758.804 140.713C757.998 140.666 757.176 140.62 756.369 140.62C755.563 140.62 754.819 140.651 754.059 140.713L723.806 140.651V109.838C723.837 109.233 723.853 108.628 723.853 108.008C723.853 107.388 723.837 106.798 723.806 106.194V75.4428L788.762 75.5669V140.775L758.788 140.713H758.804ZM726.365 71.566L731.947 65.9834C734.428 68.2475 737.172 70.1239 740.103 71.597L726.365 71.566V71.566ZM772.605 71.6591C775.566 70.1704 778.311 68.3095 780.761 66.1075L786.312 71.6746H772.605V71.6591ZM756.431 6.3737H756.447C765.131 6.3737 773.302 9.76978 779.458 15.9261C782.482 18.9656 784.839 22.4857 786.452 26.3315L763.735 49.0651L777.985 63.3317C772.232 68.4336 764.696 71.566 756.431 71.566C748.167 71.566 740.692 68.5886 734.707 63.2076L748.849 49.0651L726.349 26.5641C731.234 14.7321 742.879 6.38921 756.431 6.3737V6.3737ZM724.984 30.689L743.36 49.0651L731.993 60.4474C726.768 54.4926 723.884 46.9716 723.884 38.9699C723.884 36.101 724.287 33.3407 724.984 30.689V30.689ZM697.12 2.77603L721.883 27.541C720.689 31.1387 720.038 34.9845 720.038 38.9699C720.038 48.0106 723.294 56.524 729.249 63.2076L711.68 80.8083C705.245 75.0396 696.747 71.535 687.444 71.535C683.334 71.535 679.365 72.2328 675.674 73.5044L651.066 48.879L697.12 2.77603ZM671.782 75.0862C659.517 80.9634 651.019 93.5087 651.019 107.992C651.019 122.476 659.517 135.053 671.798 140.93L648.321 164.454L624.937 141.038C637.28 135.192 645.824 122.6 645.824 108.07C645.824 93.5397 637.249 80.9014 624.891 75.0552L648.321 51.6238L671.782 75.0862V75.0862ZM575.007 27.3084L599.538 2.77603L645.592 48.879L620.983 73.4889C617.355 72.2639 613.463 71.597 609.415 71.597C600.081 71.597 591.552 75.1327 585.101 80.9324L567.533 63.3472C573.363 56.8807 576.914 48.3362 576.914 38.9699C576.914 34.938 576.247 31.0147 575.007 27.3084V27.3084ZM573.038 38.9699C573.038 47.2662 569.89 54.8182 564.773 60.5869L553.267 49.0651L571.875 30.4409C572.619 33.1857 573.038 36.039 573.038 38.9699ZM540.474 6.3737H540.49C549.173 6.3737 557.345 9.76978 563.501 15.9261C566.525 18.9656 568.882 22.4857 570.494 26.3315L547.778 49.0651L562.028 63.3317C556.291 68.4336 548.755 71.566 540.474 71.566C532.194 71.566 524.735 68.5886 518.765 63.1921L532.892 49.0651L510.392 26.5641C515.276 14.7321 526.922 6.3737 540.474 6.3737V6.3737ZM509.027 30.689L527.402 49.0651L516.036 60.4474C510.81 54.4926 507.926 46.9716 507.926 38.9699C507.926 36.101 508.329 33.3407 509.027 30.689ZM435.093 48.879L481.147 2.77603L505.91 27.541C504.716 31.1387 504.065 34.9845 504.065 38.9699C504.065 48.0106 507.321 56.524 513.276 63.2076L495.707 80.8083C489.272 75.0396 480.775 71.535 471.471 71.535C467.408 71.535 463.438 72.2018 459.686 73.4889L435.093 48.879V48.879ZM503.972 78.0015V91.5703C502.483 88.6395 500.638 85.9412 498.452 83.5221L503.972 78.0015ZM492.932 83.5686L481.348 95.168L462.787 76.6059C465.578 75.8305 468.493 75.4118 471.455 75.4118C479.689 75.4118 487.194 78.4978 492.932 83.5686V83.5686ZM438.907 107.992C438.907 99.2929 442.303 91.1051 448.444 84.9488C451.436 81.9559 454.925 79.6143 458.709 78.0015L481.348 100.642L495.676 86.2979C500.654 91.865 503.755 99.1223 503.972 107.124V108.876C503.755 116.894 500.654 124.166 495.661 129.734L481.317 115.374L458.74 137.999C447.095 133.021 438.907 121.453 438.907 107.992ZM503.957 124.43V138.061L498.405 132.509C500.607 130.09 502.468 127.361 503.957 124.43ZM492.885 132.463C487.148 137.503 479.658 140.589 471.44 140.589C468.447 140.589 465.563 140.154 462.818 139.395L481.302 120.863L492.885 132.463V132.463ZM435.077 167.184L459.717 142.512C463.407 143.768 467.346 144.465 471.455 144.465C480.744 144.465 489.226 140.976 495.661 135.223L513.229 152.824C507.492 159.275 503.972 167.773 503.972 177.077C503.972 181.047 504.608 184.908 505.817 188.568L481.131 213.302L435.077 167.184V167.184ZM435.077 264.894L481.131 218.776L505.895 243.557C504.701 247.154 504.05 250.985 504.05 254.985C504.05 264.011 507.306 272.54 513.26 279.223L495.692 296.808C489.257 291.055 480.759 287.535 471.455 287.535C467.393 287.535 463.423 288.217 459.67 289.489L435.077 264.894ZM503.957 294.002V307.586C502.468 304.655 500.623 301.941 498.436 299.538L503.957 294.002ZM492.916 299.569L481.333 311.168L462.772 292.606C465.563 291.846 468.478 291.412 471.44 291.412C479.674 291.412 487.179 294.513 492.916 299.569V299.569ZM438.892 324.008C438.892 315.308 442.288 307.121 448.428 300.964C451.421 297.956 454.91 295.63 458.693 294.017L481.333 316.658L495.661 302.313C500.638 307.865 503.74 315.138 503.957 323.124V324.892C503.74 332.894 500.638 340.166 495.645 345.734L481.302 331.389L458.724 353.999C447.079 349.037 438.892 337.468 438.892 324.008V324.008ZM503.941 340.43V354.061L498.39 348.509C500.592 346.09 502.452 343.376 503.941 340.43V340.43ZM492.87 348.463C487.132 353.518 479.643 356.604 471.424 356.604C468.431 356.604 465.547 356.154 462.803 355.395L481.286 336.863L492.87 348.463V348.463ZM505.786 404.568L481.1 429.302L435.046 383.199L459.686 358.512C463.376 359.783 467.315 360.481 471.424 360.481C480.713 360.481 489.195 356.976 495.63 351.239L513.198 368.824C507.461 375.275 503.941 383.788 503.941 393.093C503.941 397.047 504.577 400.908 505.786 404.568V404.568ZM507.818 393.093C507.818 384.858 510.919 377.337 515.974 371.6L527.34 382.982L508.934 401.42C508.221 398.737 507.818 395.946 507.818 393.093V393.093ZM540.381 425.673H540.366C531.682 425.673 523.51 422.293 517.354 416.136C514.284 413.05 511.896 409.468 510.283 405.56L532.814 382.982L518.703 368.839C524.084 364.001 531.077 360.946 538.784 360.574H542.18C549.561 360.977 556.477 363.83 561.997 368.762L547.793 382.982L570.401 405.638C565.486 417.392 553.887 425.673 540.381 425.673V425.673ZM571.781 401.529L553.267 382.982L564.726 371.507C570.014 377.477 572.929 385.044 572.929 393.077C572.929 396.008 572.51 398.83 571.781 401.529ZM599.491 429.302L574.914 404.661C576.139 401.032 576.806 397.14 576.806 393.077C576.806 384.005 573.518 375.43 567.502 368.731L585.039 351.177C591.49 356.992 600.034 360.543 609.384 360.543C613.447 360.543 617.37 359.861 621.03 358.62L645.545 383.199L599.491 429.302ZM624.922 357.038C637.265 351.192 645.809 338.616 645.809 324.07C645.809 309.524 637.234 296.901 624.875 291.071L648.305 267.624L671.767 291.086C659.501 296.963 651.004 309.509 651.004 324.008C651.004 338.507 659.501 351.068 671.782 356.93L648.305 380.47L624.922 357.038V357.038ZM721.775 404.568L697.089 429.302L651.035 383.199L675.659 358.512C679.349 359.783 683.303 360.481 687.413 360.481C696.701 360.481 705.183 356.976 711.618 351.239L729.187 368.839C723.434 375.275 719.929 383.788 719.929 393.093C719.929 397.047 720.565 400.908 721.775 404.568V404.568ZM723.806 393.093C723.806 384.858 726.907 377.337 731.947 371.6L743.329 382.982L724.922 401.42C724.209 398.737 723.806 395.946 723.806 393.093V393.093ZM756.354 425.673C747.67 425.673 739.483 422.293 733.342 416.136C730.272 413.05 727.884 409.468 726.272 405.56L748.802 382.982L734.676 368.839C740.072 364.017 747.066 360.962 754.757 360.574H758.168C765.549 360.993 772.465 363.83 777.97 368.762L763.766 382.982L786.39 405.638C781.474 417.392 769.86 425.673 756.354 425.673V425.673ZM787.77 401.529L769.255 382.982L780.714 371.507C786.002 377.477 788.917 385.044 788.917 393.077C788.917 396.008 788.499 398.83 787.77 401.529ZM861.518 383.199L815.464 429.302L790.887 404.676C792.096 401.032 792.778 397.14 792.778 393.077C792.778 384.005 789.491 375.43 783.459 368.731L801.012 351.177C807.463 356.992 816.007 360.543 825.357 360.543C829.42 360.543 833.343 359.861 836.987 358.62L861.518 383.199V383.199ZM792.654 354.061V340.089C794.143 343.128 796.05 345.935 798.283 348.432L792.654 354.061ZM803.788 348.401L815.309 336.863L833.886 355.488C831.172 356.232 828.319 356.666 825.373 356.666C817.092 356.666 809.541 353.518 803.788 348.401V348.401ZM857.921 324.07C857.921 337.561 849.687 349.161 837.995 354.107L815.309 331.389L801.043 345.656C795.942 339.903 792.809 332.351 792.809 324.07C792.809 315.789 795.957 308.206 801.074 302.453L815.278 316.658L837.917 294.002C849.656 298.933 857.921 310.548 857.921 324.07V324.07ZM792.67 308.051V294.017L798.33 299.677C796.081 302.174 794.174 304.996 792.67 308.051V308.051ZM803.834 299.708C809.587 294.606 817.123 291.474 825.388 291.474C828.304 291.474 831.126 291.908 833.824 292.637L815.294 311.168L803.834 299.708ZM861.549 264.894L836.941 289.504C833.297 288.279 829.42 287.597 825.373 287.597C816.038 287.597 807.509 291.133 801.059 296.948L783.49 279.363C789.32 272.896 792.871 264.352 792.871 254.985C792.871 250.953 792.205 247.03 790.964 243.324L815.495 218.792L861.549 264.894V264.894ZM861.534 167.184L815.48 213.302L790.902 188.661C792.112 185.017 792.794 181.124 792.794 177.077C792.794 168.005 789.507 159.43 783.475 152.731L801.028 135.161C807.478 140.976 816.022 144.527 825.373 144.527C829.435 144.527 833.359 143.845 837.003 142.605L861.534 167.184V167.184ZM792.67 138.061V124.089C794.158 127.128 796.066 129.92 798.299 132.416L792.67 138.061ZM803.803 132.401L815.325 120.863L833.901 139.488C831.188 140.232 828.335 140.651 825.388 140.651C817.108 140.651 809.556 137.518 803.803 132.401ZM857.936 108.07C857.936 121.561 849.702 133.161 838.01 138.107L815.325 115.374L801.059 129.656C795.957 123.903 792.825 116.351 792.825 108.07C792.825 99.7892 795.973 92.2061 801.09 86.4374L815.294 100.642L837.933 78.0015C849.671 82.9328 857.936 94.5477 857.936 108.07V108.07ZM792.685 92.0356V78.0015L798.345 83.6772C796.097 86.1738 794.189 88.9806 792.685 92.0356V92.0356ZM803.85 83.6927C809.603 78.5908 817.139 75.4738 825.404 75.4738C828.319 75.4738 831.141 75.8925 833.839 76.6214L815.309 95.168L803.85 83.6927V83.6927ZM836.972 73.4889C833.328 72.2639 829.451 71.597 825.404 71.597C816.069 71.597 807.54 75.1327 801.09 80.9324L783.521 63.3472C789.351 56.8962 792.902 48.3362 792.902 38.9699C792.902 34.938 792.236 31.0147 790.995 27.3084L815.526 2.77603L861.58 48.879L836.972 73.4889V73.4889Z" fill="#FCF8EF"/>
<path d="M432.301 478.134L386.263 432.031H380.774L357.421 455.385C355.653 451.648 353.234 448.205 350.226 445.181C343.341 438.296 334.193 434.497 324.47 434.497H324.455C309.848 434.497 297.225 443.165 291.426 455.618L267.856 432.031H262.367L216.313 478.134L170.259 432.031H164.77L141.417 455.385C139.65 451.648 137.231 448.205 134.222 445.181C127.337 438.296 118.189 434.497 108.466 434.497H108.451C93.8437 434.497 81.237 443.165 75.4221 455.618L51.8524 432.031H46.3631L0.324707 478.181V483.577L23.8169 507.071C20.1263 508.839 16.7149 511.227 13.7377 514.219C6.85289 521.105 3.06934 530.254 3.06934 539.993C3.06934 554.507 11.5823 567.053 23.8479 572.93L0.324707 596.501V601.866L46.4407 648.031L0.324707 694.196V699.593L23.8169 723.071C20.1263 724.839 16.7149 727.242 13.7377 730.219C6.85289 737.105 3.06934 746.269 3.06934 756.008C3.06934 770.507 11.5823 783.068 23.8479 788.93L0.324707 812.516V817.882L46.4097 864.031H51.9299L75.4066 840.507C77.1898 844.306 79.6243 847.811 82.6791 850.881C89.5639 857.766 98.7127 861.55 108.435 861.55H108.451C122.996 861.55 135.587 852.959 141.417 840.584L164.801 864.031H170.321L216.375 817.928L262.414 864.031H267.934L291.41 840.507C293.194 844.306 295.628 847.811 298.683 850.881C305.568 857.766 314.717 861.55 324.439 861.55C331.712 861.55 338.503 859.41 344.194 855.704C349.885 852.013 354.49 846.772 357.406 840.584L380.805 864.031H386.325L432.363 817.928V812.47L408.995 789.038C421.338 783.192 429.882 770.616 429.882 756.07C429.882 741.524 421.307 728.901 408.933 723.071L432.363 699.639V694.15L386.309 648.047L432.363 601.913V596.454L408.995 573.038C421.338 567.192 429.882 554.6 429.882 540.07C429.882 525.54 421.307 512.901 408.933 507.055L432.363 483.624V478.134H432.301ZM357.033 470.97C357.033 479.266 353.886 486.834 348.769 492.587L337.247 481.065L355.87 462.441C356.615 465.186 357.033 468.039 357.033 470.97V470.97ZM326.827 788.713C326.021 788.651 325.214 788.62 324.408 788.62C323.602 788.62 322.857 788.651 322.098 788.697L291.845 788.651V757.838C291.876 757.233 291.891 756.628 291.891 756.008C291.891 755.388 291.876 754.798 291.845 754.194V723.443L356.801 723.551V788.759L326.811 788.713H326.827ZM354.134 792.636L348.784 797.986C346.412 795.846 343.791 794.047 341 792.605L354.134 792.636ZM307.987 792.543C305.056 794.032 302.358 795.893 299.954 798.079L294.419 792.527H307.987V792.543ZM279.641 777.749L265.313 763.405L242.736 786.014C231.091 781.052 222.903 769.484 222.903 756.024C222.903 742.563 231.075 731.01 242.705 726.033L265.344 748.673L279.672 734.329C284.65 739.88 287.735 747.138 287.968 755.109V756.938C287.735 764.925 284.634 772.198 279.641 777.749V777.749ZM287.968 772.461V786.076L282.417 780.525C284.603 778.106 286.479 775.392 287.968 772.461ZM276.896 780.494C271.159 785.534 263.67 788.62 255.451 788.62C252.458 788.62 249.574 788.17 246.814 787.41L265.313 768.879L276.896 780.494V780.494ZM246.799 724.637C249.559 723.877 252.458 723.427 255.451 723.427C263.685 723.427 271.19 726.529 276.927 731.584L265.344 743.184L246.799 724.637V724.637ZM282.448 731.553L287.968 726.033V739.601C286.479 736.671 284.619 733.957 282.448 731.553ZM279.688 728.824C273.252 723.071 264.755 719.551 255.451 719.551C251.342 719.551 247.372 720.248 243.682 721.52L219.073 696.91L265.127 650.807L289.891 675.572C288.697 679.17 288.046 683 288.046 687.001C288.046 696.026 291.302 704.555 297.256 711.239L279.688 728.824V728.824ZM167.359 763.405L153.094 777.672C147.992 771.918 144.875 764.366 144.875 756.086C144.875 747.805 148.007 740.222 153.125 734.468L167.328 748.673L189.968 726.017C201.706 730.948 209.971 742.563 209.971 756.086C209.971 769.608 201.737 781.176 190.045 786.123L167.359 763.405ZM185.936 787.503C183.222 788.247 180.369 788.682 177.423 788.682C169.143 788.682 161.591 785.534 155.838 780.416L167.359 768.879L185.936 787.503ZM150.333 780.447L144.705 786.076V772.104C146.193 775.144 148.1 777.951 150.333 780.447ZM144.705 740.067V726.033L150.364 731.693C148.116 734.189 146.209 737.012 144.705 740.067V740.067ZM155.869 731.724C161.622 726.622 169.158 723.489 177.423 723.489C180.338 723.489 183.16 723.924 185.859 724.652L167.328 743.184L155.869 731.724ZM188.991 721.52C185.362 720.295 181.47 719.613 177.423 719.613C168.088 719.613 159.56 723.148 153.109 728.948L135.556 711.378C141.371 704.912 144.922 696.367 144.922 687.001C144.922 682.969 144.255 679.046 143.014 675.339L167.545 650.792L213.599 696.91L188.991 721.52ZM110.854 788.728C110.048 788.666 109.242 788.635 108.435 788.635C107.629 788.635 106.9 788.666 106.14 788.713L75.8718 788.651V757.791C75.9028 757.202 75.9183 756.613 75.9183 756.024C75.9183 755.434 75.9028 754.845 75.8718 754.271V723.458L140.828 723.567V788.775L110.839 788.728H110.854ZM138.161 792.652L132.811 798.002C130.439 795.862 127.818 794.063 125.027 792.62L138.161 792.652ZM92.0139 792.559C89.0987 794.047 86.3851 795.908 83.9816 798.095L78.4458 792.543H92.0139V792.559ZM75.8718 538.271V507.458L140.828 507.582V572.79L110.854 572.728C110.048 572.682 109.241 572.635 108.42 572.635C107.644 572.635 106.869 572.666 106.109 572.728L75.8563 572.666V541.791C75.8873 541.218 75.9028 540.628 75.9028 540.024C75.9028 539.419 75.8873 538.86 75.8563 538.271H75.8718ZM78.4303 503.582L84.0126 497.999C86.4936 500.263 89.2383 502.139 92.169 503.613L78.4303 503.582ZM124.67 503.675C127.632 502.186 130.377 500.325 132.827 498.123L138.393 503.69H124.67V503.675ZM167.344 532.658L189.983 510.017C201.722 514.948 209.986 526.563 209.986 540.086C209.986 553.608 201.753 565.176 190.061 570.123L167.375 547.389L153.109 561.672C148.007 555.903 144.891 548.366 144.891 540.07C144.891 531.774 148.023 524.222 153.14 518.453L167.344 532.658V532.658ZM155.885 515.708C161.638 510.606 169.174 507.489 177.439 507.489C180.354 507.489 183.176 507.908 185.874 508.637L167.344 527.184L155.885 515.708ZM185.952 571.503C183.238 572.232 180.385 572.666 177.439 572.666C169.158 572.666 161.607 569.534 155.854 564.416L167.375 552.879L185.952 571.503V571.503ZM144.72 524.051V510.017L150.38 515.693C148.131 518.189 146.224 520.996 144.72 524.051ZM150.349 564.432L144.72 570.076V556.089C146.209 559.144 148.116 561.935 150.349 564.432ZM153.094 567.177C159.544 572.992 168.088 576.543 177.439 576.543C181.501 576.543 185.424 575.861 189.084 574.62L213.599 599.199L167.545 645.317L142.968 620.677C144.193 617.032 144.86 613.14 144.86 609.093C144.86 600.005 141.572 591.445 135.556 584.746L153.094 567.177V567.177ZM130.051 584.762L115.847 598.982L138.456 621.653C133.54 633.408 121.941 641.689 108.435 641.689C99.7361 641.689 91.5642 638.293 85.4082 632.136C82.3379 629.066 79.95 625.468 78.3373 621.56L100.868 598.982L86.7573 584.855C92.138 580.017 99.1313 576.962 106.823 576.59H110.249C117.63 576.993 124.531 579.846 130.051 584.762V584.762ZM125.027 576.621H138.161L132.811 582.002C130.439 579.846 127.818 578.047 125.027 576.621ZM121.321 598.982L132.78 587.507C138.068 593.477 140.983 601.044 140.983 609.093C140.983 612.024 140.564 614.846 139.836 617.544L121.321 598.982V598.982ZM92.0139 576.559C89.0832 578.047 86.3851 579.893 83.9816 582.079L78.4458 576.528L92.0139 576.559ZM84.0281 587.6L95.3943 598.982L76.9882 617.436C76.2749 614.737 75.8718 611.946 75.8718 609.093C75.8718 600.858 78.9731 593.353 84.0281 587.6V587.6ZM82.6636 634.881C89.5484 641.766 98.6972 645.566 108.435 645.566C122.98 645.566 135.571 636.975 141.402 624.584L164.816 648.062L141.464 671.416C139.696 667.679 137.277 664.221 134.269 661.212C127.384 654.327 118.235 650.528 108.497 650.528C93.8902 650.528 81.2835 659.181 75.4686 671.633L51.8989 648.062L75.3911 624.507C77.1743 628.322 79.6088 631.826 82.6636 634.881V634.881ZM132.827 714.123L138.393 719.69L124.67 719.659C127.632 718.186 130.377 716.31 132.827 714.123V714.123ZM108.497 719.582C104.435 719.582 100.511 718.837 96.8364 717.426C93.1769 715.999 89.7655 713.906 86.7883 711.223L100.915 697.081L78.4148 674.58C83.2993 662.763 94.9446 654.405 108.497 654.405C117.196 654.405 125.368 657.785 131.524 663.942C134.548 666.981 136.905 670.517 138.518 674.363L115.801 697.081L130.051 711.347C124.314 716.465 116.778 719.582 108.497 719.582V719.582ZM132.796 708.602L121.29 697.081L139.898 678.456C140.642 681.217 141.061 684.07 141.061 687.001C141.061 695.297 137.913 702.849 132.796 708.602ZM77.0503 678.705L95.4253 697.081L84.0591 708.463C78.8335 702.524 75.9493 694.987 75.9493 687.001C75.9493 684.132 76.3525 681.356 77.0503 678.705V678.705ZM92.169 719.597H78.4303L84.0126 713.999C86.4936 716.263 89.2383 718.124 92.169 719.597ZM170.275 648.062L216.344 601.928L262.398 648.062L216.344 694.165L170.275 648.062ZM265.344 532.658L279.672 518.313C284.65 523.865 287.735 531.122 287.968 539.109V540.923C287.735 548.925 284.634 556.182 279.641 561.749L265.313 547.389L242.736 570.014C231.091 565.037 222.903 553.468 222.903 540.008C222.903 526.548 231.075 515.01 242.72 510.033L265.344 532.658ZM246.799 508.637C249.559 507.862 252.458 507.427 255.451 507.427C263.685 507.427 271.19 510.529 276.927 515.584L265.344 527.184L246.799 508.637V508.637ZM282.448 515.553L287.968 510.017V523.586C286.479 520.655 284.619 517.957 282.448 515.553ZM287.968 556.446V570.076L282.417 564.525C284.603 562.106 286.479 559.392 287.968 556.446V556.446ZM276.896 564.478C271.159 569.518 263.67 572.604 255.451 572.604C252.458 572.604 249.574 572.17 246.814 571.41L265.313 552.879L276.896 564.478V564.478ZM243.713 574.527C247.388 575.783 251.342 576.481 255.451 576.481C264.739 576.481 273.221 572.992 279.657 567.239L297.225 584.839C291.472 591.29 287.968 599.788 287.968 609.093C287.968 613.063 288.604 616.924 289.813 620.584L265.127 645.317L219.073 599.199L243.713 574.527V574.527ZM316.825 598.982L302.715 584.855C308.095 580.017 315.073 576.962 322.78 576.59H326.207C333.572 576.993 340.488 579.846 345.993 584.762L331.789 598.982L354.413 621.653C349.497 633.408 337.883 641.689 324.377 641.689C315.693 641.689 307.506 638.293 301.366 632.136C298.295 629.066 295.907 625.468 294.295 621.56L316.825 598.982ZM292.946 617.436C292.232 614.737 291.829 611.946 291.829 609.093C291.829 600.858 294.93 593.353 299.97 587.6L311.352 598.982L292.946 617.436V617.436ZM299.939 582.079L294.403 576.528L307.971 576.559C305.041 578.047 302.342 579.893 299.939 582.079ZM302.73 711.223L316.872 697.081L294.372 674.58C299.257 662.748 310.902 654.405 324.455 654.405H324.47C333.154 654.405 341.325 657.801 347.481 663.942C350.505 666.981 352.862 670.517 354.475 674.363L331.758 697.081L346.008 711.347C340.271 716.465 332.719 719.582 324.455 719.582C320.392 719.582 316.469 718.837 312.794 717.426C309.134 715.999 305.723 713.906 302.73 711.223V711.223ZM308.126 719.597H294.388L299.97 713.999C302.451 716.263 305.196 718.124 308.126 719.597V719.597ZM311.383 697.081L300.016 708.463C294.791 702.524 291.907 694.987 291.907 687.001C291.907 684.132 292.31 681.356 293.008 678.705L311.383 697.081ZM340.628 719.659C343.589 718.186 346.334 716.31 348.784 714.123L354.335 719.69L340.628 719.659ZM348.753 708.618L337.232 697.081L355.855 678.456C356.599 681.217 357.018 684.07 357.018 687.001C357.018 695.297 353.87 702.849 348.753 708.618V708.618ZM350.226 661.212C343.341 654.327 334.193 650.528 324.47 650.528H324.455C309.848 650.528 297.225 659.181 291.426 671.633L267.856 648.062L291.348 624.507C293.132 628.322 295.566 631.826 298.621 634.881C305.506 641.766 314.654 645.566 324.377 645.566C338.937 645.566 351.513 636.975 357.344 624.584L380.774 648.062L357.421 671.416C355.653 667.679 353.234 664.221 350.226 661.212V661.212ZM355.793 617.544L337.278 598.982L348.738 587.507C354.025 593.477 356.94 601.044 356.94 609.093C356.94 612.024 356.522 614.846 355.793 617.544V617.544ZM340.984 576.621H354.118L348.769 582.002C346.396 579.846 343.775 578.047 340.984 576.621ZM326.827 572.713C326.021 572.666 325.199 572.62 324.392 572.62C323.586 572.62 322.842 572.651 322.082 572.713L291.829 572.651V541.838C291.86 541.233 291.876 540.628 291.876 540.008C291.876 539.388 291.86 538.798 291.829 538.194V507.443L356.785 507.567V572.775L326.811 572.713H326.827ZM294.388 503.566L299.97 497.983C302.451 500.247 305.196 502.124 308.126 503.597L294.388 503.566ZM340.628 503.659C343.589 502.17 346.334 500.31 348.784 498.108L354.335 503.675H340.628V503.659ZM324.455 438.374H324.47C333.154 438.374 341.325 441.77 347.481 447.926C350.505 450.966 352.862 454.486 354.475 458.332L331.758 481.065L346.008 495.332C340.255 500.434 332.719 503.566 324.455 503.566C316.19 503.566 308.716 500.589 302.73 495.208L316.872 481.065L294.372 458.564C299.257 446.732 310.902 438.389 324.455 438.374V438.374ZM293.008 462.689L311.383 481.065L300.016 492.447C294.791 486.493 291.907 478.972 291.907 470.97C291.907 468.101 292.31 465.341 293.008 462.689ZM265.112 434.776L289.875 459.541C288.681 463.139 288.03 466.985 288.03 470.97C288.03 480.011 291.286 488.524 297.241 495.208L279.672 512.808C273.237 507.04 264.739 503.535 255.436 503.535C251.326 503.535 247.357 504.233 243.666 505.504L219.058 480.879L265.112 434.776V434.776ZM239.774 507.086C227.509 512.963 219.011 525.509 219.011 539.993C219.011 554.476 227.509 567.053 239.79 572.93L216.313 596.454L192.929 573.038C205.272 567.192 213.816 554.6 213.816 540.07C213.816 525.54 205.241 512.901 192.883 507.055L216.313 483.624L239.774 507.086ZM142.999 459.308L167.53 434.776L213.584 480.879L188.975 505.489C185.347 504.264 181.455 503.597 177.408 503.597C168.073 503.597 159.544 507.133 153.094 512.932L135.525 495.347C141.355 488.881 144.906 480.336 144.906 470.97C144.906 466.938 144.239 463.015 142.999 459.308V459.308ZM141.03 470.97C141.03 479.266 137.882 486.818 132.765 492.587L121.259 481.065L139.867 462.441C140.611 465.186 141.03 468.039 141.03 470.97ZM108.466 438.374H108.482C117.165 438.374 125.337 441.77 131.493 447.926C134.517 450.966 136.874 454.486 138.487 458.332L115.77 481.065L130.02 495.332C124.283 500.434 116.747 503.566 108.466 503.566C100.186 503.566 92.7272 500.589 86.7573 495.192L100.884 481.065L78.3838 458.564C83.2683 446.732 94.9136 438.374 108.466 438.374V438.374ZM77.0192 462.689L95.3943 481.065L84.0281 492.447C78.8025 486.493 75.9183 478.972 75.9183 470.97C75.9183 468.101 76.3215 465.341 77.0192 462.689V462.689ZM3.11585 480.879L49.1698 434.776L73.9335 459.541C72.7395 463.139 72.0882 466.985 72.0882 470.97C72.0882 480.011 75.3446 488.524 81.299 495.208L63.7303 512.808C57.2951 507.04 48.7976 503.535 39.4938 503.535C35.4311 503.535 31.4615 504.202 27.709 505.489L3.11585 480.879V480.879ZM71.9952 510.002V523.57C70.5066 520.639 68.6613 517.941 66.4749 515.522L71.9952 510.002ZM60.9546 515.569L49.3714 527.168L30.8102 508.606C33.6014 507.831 36.5166 507.412 39.4783 507.412C47.7122 507.412 55.2173 510.498 60.9546 515.569ZM6.93042 539.993C6.93042 531.293 10.3263 523.105 16.4668 516.949C19.4596 513.956 22.9485 511.614 26.7321 510.002L49.3714 532.642L63.6993 518.298C68.6768 523.865 71.7781 531.122 71.9952 539.124V540.876C71.7781 548.894 68.6768 556.167 63.6838 561.734L49.3404 547.374L26.7631 569.999C15.1178 565.021 6.93042 553.453 6.93042 539.993V539.993ZM71.9797 556.43V570.061L66.4284 564.509C68.6303 562.09 70.4911 559.361 71.9797 556.43V556.43ZM60.9081 564.463C55.1708 569.503 47.6812 572.589 39.4628 572.589C36.4701 572.589 33.5859 572.154 30.8413 571.395L49.3249 552.863L60.9081 564.463V564.463ZM3.11585 599.184L27.7555 574.512C31.446 575.768 35.3846 576.465 39.4938 576.465C48.7821 576.465 57.2641 572.976 63.6993 567.223L81.268 584.824C75.5306 591.275 72.0107 599.773 72.0107 609.077C72.0107 613.047 72.6464 616.908 73.8559 620.568L49.1698 645.302L3.11585 599.184ZM3.11585 696.894L49.1698 650.776L73.9335 675.557C72.7395 679.154 72.0882 682.985 72.0882 686.985C72.0882 696.011 75.3446 704.54 81.299 711.223L63.7303 728.808C57.2951 723.055 48.7976 719.535 39.4938 719.535C35.4311 719.535 31.4615 720.217 27.709 721.489L3.11585 696.894V696.894ZM71.9952 726.002V739.586C70.5066 736.655 68.6613 733.941 66.4749 731.538L71.9952 726.002ZM60.9546 731.569L49.3714 743.168L30.8102 724.606C33.6014 723.846 36.5166 723.412 39.4783 723.412C47.7122 723.412 55.2173 726.513 60.9546 731.569ZM6.93042 756.008C6.93042 747.308 10.3263 739.121 16.4668 732.964C19.4596 729.956 22.9485 727.63 26.7321 726.017L49.3714 748.658L63.6993 734.313C68.6768 739.865 71.7781 747.138 71.9952 755.124V756.892C71.7781 764.894 68.6768 772.167 63.6838 777.734L49.3404 763.389L26.7631 785.999C15.1178 781.037 6.93042 769.468 6.93042 756.008ZM71.9797 772.43V786.061L66.4284 780.509C68.6303 778.09 70.4911 775.376 71.9797 772.43V772.43ZM60.9081 780.463C55.1708 785.518 47.6812 788.604 39.4628 788.604C36.4701 788.604 33.5859 788.154 30.8413 787.395L49.3249 768.863L60.9081 780.463V780.463ZM73.8249 836.568L49.1388 861.302L3.08484 815.199L27.7245 790.512C31.415 791.783 35.3536 792.481 39.4628 792.481C48.7511 792.481 57.2331 788.976 63.6683 783.239L81.237 800.824C75.4996 807.275 71.9797 815.788 71.9797 825.093C71.9797 829.047 72.6154 832.908 73.8249 836.568V836.568ZM75.8563 825.093C75.8563 816.858 78.9575 809.337 84.0126 803.6L95.3788 814.982L76.9727 833.42C76.2594 830.737 75.8563 827.946 75.8563 825.093ZM108.42 857.673H108.404C99.7206 857.673 91.5487 854.293 85.3927 848.136C82.3224 845.05 79.9344 841.468 78.3218 837.56L100.853 814.982L86.7417 800.839C92.1225 796.001 99.1158 792.946 106.823 792.574H110.218C117.599 792.977 124.515 795.83 130.036 800.762L115.832 814.982L138.44 837.638C133.524 849.392 121.926 857.673 108.42 857.673V857.673ZM139.82 833.529L121.305 814.982L132.765 803.507C138.052 809.477 140.968 817.044 140.968 825.077C140.968 828.008 140.549 830.83 139.82 833.529V833.529ZM167.53 861.302L142.952 836.661C144.177 833.032 144.844 829.14 144.844 825.077C144.844 816.005 141.557 807.43 135.54 800.731L153.078 783.177C159.529 788.992 168.073 792.543 177.423 792.543C181.486 792.543 185.409 791.861 189.068 790.62L213.584 815.199L167.53 861.302V861.302ZM192.96 789.038C205.304 783.192 213.848 770.616 213.848 756.07C213.848 741.524 205.272 728.901 192.914 723.071L216.344 699.624L239.805 723.086C227.54 728.963 219.042 741.509 219.042 756.008C219.042 770.507 227.54 783.068 239.821 788.93L216.344 812.47L192.96 789.038V789.038ZM289.813 836.568L265.127 861.302L219.073 815.199L243.697 790.512C247.388 791.783 251.342 792.481 255.451 792.481C264.739 792.481 273.221 788.976 279.657 783.239L297.225 800.839C291.472 807.275 287.968 815.788 287.968 825.093C287.968 829.047 288.604 832.908 289.813 836.568V836.568ZM291.845 825.093C291.845 816.858 294.946 809.337 299.985 803.6L311.367 814.982L292.961 833.42C292.248 830.737 291.845 827.946 291.845 825.093ZM324.392 857.673C315.709 857.673 307.522 854.293 301.381 848.136C298.311 845.05 295.923 841.468 294.31 837.56L316.841 814.982L302.715 800.839C308.111 796.017 315.104 792.962 322.795 792.574H326.207C333.588 792.993 340.504 795.83 346.008 800.762L331.805 814.982L354.428 837.638C349.513 849.392 337.899 857.673 324.392 857.673ZM355.808 833.529L337.294 814.982L348.753 803.507C354.041 809.477 356.956 817.044 356.956 825.077C356.956 828.008 356.537 830.83 355.808 833.529V833.529ZM429.557 815.199L383.503 861.302L358.925 836.677C360.135 833.032 360.817 829.14 360.817 825.077C360.817 816.005 357.53 807.43 351.498 800.731L369.051 783.177C375.501 788.992 384.046 792.543 393.396 792.543C397.459 792.543 401.382 791.861 405.026 790.62L429.557 815.199ZM360.693 786.061V772.089C362.182 775.128 364.089 777.935 366.322 780.432L360.693 786.061ZM371.826 780.401L383.348 768.863L401.924 787.488C399.211 788.232 396.358 788.666 393.411 788.666C385.131 788.666 377.579 785.518 371.826 780.401ZM425.959 756.07C425.959 769.561 417.725 781.161 406.034 786.107L383.348 763.389L369.082 777.656C363.98 771.903 360.848 764.351 360.848 756.07C360.848 747.789 363.996 740.206 369.113 734.453L383.317 748.658L405.956 726.002C417.694 730.933 425.959 742.548 425.959 756.07ZM360.708 740.051V726.017L366.368 731.677C364.12 734.174 362.213 736.996 360.708 740.051V740.051ZM371.873 731.708C377.626 726.606 385.162 723.474 393.427 723.474C396.342 723.474 399.164 723.908 401.862 724.637L383.332 743.168L371.873 731.708V731.708ZM429.588 696.894L404.979 721.504C401.335 720.279 397.459 719.597 393.411 719.597C384.077 719.597 375.548 723.133 369.097 728.948L351.529 711.363C357.359 704.896 360.91 696.352 360.91 686.985C360.91 682.953 360.243 679.03 359.003 675.324L383.534 650.792L429.588 696.894ZM429.572 599.184L383.518 645.302L358.941 620.661C360.15 617.017 360.832 613.125 360.832 609.077C360.832 600.005 357.545 591.43 351.513 584.731L369.066 567.161C375.517 572.976 384.061 576.528 393.411 576.528C397.474 576.528 401.397 575.845 405.041 574.605L429.572 599.184V599.184ZM360.708 570.061V556.089C362.197 559.128 364.104 561.92 366.337 564.416L360.708 570.061ZM371.842 564.401L383.363 552.863L401.94 571.488C399.226 572.232 396.373 572.651 393.427 572.651C385.146 572.651 377.595 569.518 371.842 564.401ZM425.975 540.07C425.975 553.561 417.741 565.161 406.049 570.107L383.363 547.374L369.097 561.656C363.996 555.903 360.863 548.351 360.863 540.07C360.863 531.789 364.011 524.206 369.128 518.437L383.332 532.642L405.972 510.002C417.71 514.933 425.975 526.548 425.975 540.07V540.07ZM360.724 524.036V510.002L366.384 515.677C364.135 518.174 362.228 520.981 360.724 524.036ZM371.889 515.693C377.641 510.591 385.177 507.474 393.442 507.474C396.358 507.474 399.18 507.893 401.878 508.621L383.348 527.168L371.889 515.693V515.693ZM405.01 505.489C401.366 504.264 397.49 503.597 393.442 503.597C384.108 503.597 375.579 507.133 369.128 512.932L351.56 495.347C357.39 488.896 360.941 480.336 360.941 470.97C360.941 466.938 360.274 463.015 359.034 459.308L383.565 434.776L429.619 480.879L405.01 505.489Z" fill="#FCF8EF"/>
<path d="M864.278 478.134L818.24 432.031H812.75L789.398 455.385C787.63 451.648 785.211 448.205 782.203 445.181C775.318 438.296 766.169 434.497 756.447 434.497H756.431C741.824 434.497 729.202 443.165 723.403 455.618L699.833 432.031H694.344L648.29 478.134L602.236 432.031H596.747L573.394 455.385C571.626 451.648 569.207 448.205 566.199 445.181C559.314 438.296 550.165 434.497 540.443 434.497H540.427C525.82 434.497 513.214 443.165 507.399 455.618L483.829 432.031H478.34L432.24 478.181V483.577L455.732 507.071C452.041 508.839 448.63 511.227 445.653 514.219C438.768 521.105 434.984 530.254 434.984 539.993C434.984 554.507 443.497 567.053 455.763 572.93L432.24 596.501V601.866L478.355 648.031L432.24 694.196V699.593L455.732 723.071C452.041 724.839 448.63 727.242 445.653 730.219C438.768 737.105 434.984 746.269 434.984 756.008C434.984 770.507 443.497 783.068 455.763 788.93L432.24 812.516V817.882L478.324 864.031H483.845L507.321 840.507C509.105 844.306 511.539 847.811 514.594 850.881C521.479 857.766 530.627 861.55 540.35 861.55H540.365C554.91 861.55 567.502 852.959 573.332 840.584L596.716 864.031H602.236L648.29 817.928L694.328 864.031H699.849L723.325 840.507C725.108 844.306 727.543 847.811 730.598 850.881C737.483 857.766 746.631 861.55 756.354 861.55C763.626 861.55 770.418 859.41 776.109 855.704C781.8 852.013 786.405 846.772 789.32 840.584L812.719 864.031H818.24L864.278 817.928V812.47L840.91 789.038C853.253 783.192 861.797 770.616 861.797 756.07C861.797 741.524 853.222 728.901 840.848 723.071L864.278 699.639V694.15L818.224 648.047L864.278 601.913V596.454L840.91 573.038C853.253 567.192 861.797 554.6 861.797 540.07C861.797 525.54 853.222 512.901 840.848 507.055L864.278 483.624V478.134V478.134ZM789.01 470.97C789.01 479.266 785.862 486.834 780.745 492.587L769.224 481.065L787.847 462.441C788.592 465.186 789.01 468.039 789.01 470.97ZM758.804 788.713C757.997 788.651 757.191 788.62 756.385 788.62C755.578 788.62 754.834 788.651 754.074 788.697L723.821 788.651V757.838C723.852 757.233 723.868 756.628 723.868 756.008C723.868 755.388 723.852 754.798 723.821 754.194V723.443L788.778 723.551V788.759L758.788 788.713H758.804ZM786.111 792.636L780.761 797.986C778.388 795.846 775.768 794.047 772.977 792.605L786.111 792.636V792.636ZM739.964 792.543C737.033 794.032 734.335 795.893 731.931 798.079L726.395 792.527H739.964V792.543ZM711.618 777.749L697.29 763.405L674.713 786.014C663.067 781.052 654.88 769.484 654.88 756.024C654.88 742.563 663.052 731.01 674.682 726.033L697.321 748.673L711.649 734.329C716.626 739.88 719.712 747.138 719.945 755.109V756.938C719.712 764.925 716.611 772.198 711.618 777.749V777.749ZM719.945 772.461V786.076L714.394 780.525C716.58 778.106 718.456 775.392 719.945 772.461ZM708.873 780.494C703.136 785.534 695.646 788.62 687.428 788.62C684.435 788.62 681.551 788.17 678.791 787.41L697.29 768.879L708.873 780.494V780.494ZM678.775 724.637C681.536 723.877 684.435 723.427 687.428 723.427C695.662 723.427 703.167 726.529 708.904 731.584L697.321 743.184L678.775 724.637V724.637ZM714.425 731.553L719.945 726.033V739.601C718.456 736.671 716.595 733.957 714.425 731.553ZM711.664 728.824C705.229 723.071 696.732 719.551 687.428 719.551C683.319 719.551 679.349 720.248 675.659 721.52L651.05 696.91L697.104 650.807L721.868 675.572C720.674 679.17 720.022 683 720.022 687.001C720.022 696.026 723.279 704.555 729.233 711.239L711.664 728.824V728.824ZM599.336 763.405L585.07 777.672C579.969 771.918 576.852 764.366 576.852 756.086C576.852 747.805 579.984 740.222 585.101 734.468L599.305 748.673L621.945 726.017C633.683 730.948 641.948 742.563 641.948 756.086C641.948 769.608 633.714 781.176 622.022 786.123L599.336 763.405ZM617.913 787.503C615.199 788.247 612.346 788.682 609.4 788.682C601.119 788.682 593.568 785.534 587.815 780.416L599.336 768.879L617.913 787.503ZM582.31 780.447L576.681 786.076V772.104C578.17 775.144 580.077 777.951 582.31 780.447ZM576.681 740.067V726.033L582.341 731.693C580.093 734.189 578.186 737.012 576.681 740.067V740.067ZM587.846 731.724C593.599 726.622 601.135 723.489 609.4 723.489C612.315 723.489 615.137 723.924 617.835 724.652L599.305 743.184L587.846 731.724ZM620.968 721.52C617.339 720.295 613.447 719.613 609.4 719.613C600.065 719.613 591.536 723.148 585.086 728.948L567.533 711.378C573.348 704.912 576.898 696.367 576.898 687.001C576.898 682.969 576.232 679.046 574.991 675.339L599.522 650.792L645.576 696.91L620.968 721.52ZM542.831 788.728C542.025 788.666 541.218 788.635 540.412 788.635C539.606 788.635 538.877 788.666 538.117 788.713L507.849 788.651V757.791C507.88 757.202 507.895 756.613 507.895 756.024C507.895 755.434 507.88 754.845 507.849 754.271V723.458L572.805 723.567V788.775L542.815 788.728H542.831ZM570.138 792.652L564.788 798.002C562.416 795.862 559.795 794.063 557.004 792.62L570.138 792.652V792.652ZM523.991 792.559C521.076 794.047 518.362 795.908 515.958 798.095L510.423 792.543H523.991V792.559ZM507.849 538.271V507.458L572.805 507.582V572.79L542.831 572.728C542.025 572.682 541.218 572.635 540.396 572.635C539.621 572.635 538.846 572.666 538.086 572.728L507.833 572.666V541.791C507.864 541.218 507.88 540.628 507.88 540.024C507.88 539.419 507.864 538.86 507.833 538.271H507.849ZM510.407 503.582L515.989 497.999C518.47 500.263 521.215 502.139 524.146 503.613L510.407 503.582ZM556.647 503.675C559.609 502.186 562.353 500.325 564.804 498.123L570.37 503.69H556.647V503.675ZM599.321 532.658L621.96 510.017C633.698 514.948 641.963 526.563 641.963 540.086C641.963 553.608 633.729 565.176 622.038 570.123L599.352 547.389L585.086 561.672C579.984 555.903 576.867 548.366 576.867 540.07C576.867 531.774 580 524.222 585.117 518.453L599.321 532.658V532.658ZM587.861 515.708C593.614 510.606 601.15 507.489 609.415 507.489C612.331 507.489 615.153 507.908 617.851 508.637L599.321 527.184L587.861 515.708ZM617.928 571.503C615.215 572.232 612.362 572.666 609.415 572.666C601.135 572.666 593.583 569.534 587.83 564.416L599.352 552.879L617.928 571.503ZM576.697 524.051V510.017L582.357 515.693C580.108 518.189 578.201 520.996 576.697 524.051ZM582.326 564.432L576.697 570.076V556.089C578.186 559.144 580.093 561.935 582.326 564.432ZM585.07 567.177C591.521 572.992 600.065 576.543 609.415 576.543C613.478 576.543 617.401 575.861 621.061 574.62L645.576 599.199L599.522 645.317L574.945 620.677C576.17 617.032 576.836 613.14 576.836 609.093C576.836 600.005 573.549 591.445 567.533 584.746L585.07 567.177V567.177ZM562.028 584.762L547.824 598.982L570.432 621.653C565.517 633.408 553.918 641.689 540.412 641.689C531.713 641.689 523.541 638.293 517.385 632.136C514.315 629.066 511.927 625.468 510.314 621.56L532.845 598.982L518.734 584.855C524.115 580.017 531.108 576.962 538.799 576.59H542.226C549.607 576.993 556.508 579.846 562.028 584.762V584.762ZM557.004 576.621H570.138L564.788 582.002C562.416 579.846 559.795 578.047 557.004 576.621V576.621ZM553.298 598.982L564.757 587.507C570.045 593.477 572.96 601.044 572.96 609.093C572.96 612.024 572.541 614.846 571.812 617.544L553.298 598.982ZM523.991 576.559C521.06 578.047 518.362 579.893 515.958 582.079L510.423 576.528L523.991 576.559ZM516.005 587.6L527.371 598.982L508.965 617.436C508.252 614.737 507.849 611.946 507.849 609.093C507.849 600.858 510.95 593.353 516.005 587.6V587.6ZM514.64 634.881C521.525 641.766 530.674 645.566 540.412 645.566C554.957 645.566 567.548 636.975 573.379 624.584L596.793 648.062L573.441 671.416C571.673 667.679 569.254 664.221 566.246 661.212C559.361 654.327 550.212 650.528 540.474 650.528C525.867 650.528 513.26 659.181 507.445 671.633L483.876 648.062L507.368 624.507C509.151 628.322 511.586 631.826 514.64 634.881V634.881ZM564.804 714.123L570.37 719.69L556.647 719.659C559.609 718.186 562.353 716.31 564.804 714.123V714.123ZM540.474 719.582C536.411 719.582 532.488 718.837 528.813 717.426C525.154 715.999 521.742 713.906 518.765 711.223L532.891 697.081L510.392 674.58C515.276 662.763 526.921 654.405 540.474 654.405C549.173 654.405 557.345 657.785 563.501 663.942C566.525 666.981 568.882 670.517 570.494 674.363L547.777 697.081L562.028 711.347C556.29 716.465 548.754 719.582 540.474 719.582V719.582ZM564.773 708.602L553.267 697.081L571.874 678.456C572.619 681.217 573.037 684.07 573.037 687.001C573.037 695.297 569.89 702.849 564.773 708.602ZM509.027 678.705L527.402 697.081L516.036 708.463C510.81 702.524 507.926 694.987 507.926 687.001C507.926 684.132 508.329 681.356 509.027 678.705ZM524.146 719.597H510.407L515.989 713.999C518.47 716.263 521.215 718.124 524.146 719.597ZM602.251 648.062L648.321 601.928L694.375 648.062L648.321 694.165L602.251 648.062ZM697.321 532.658L711.649 518.313C716.626 523.865 719.712 531.122 719.945 539.109V540.923C719.712 548.925 716.611 556.182 711.618 561.749L697.29 547.389L674.713 570.014C663.067 565.037 654.88 553.468 654.88 540.008C654.88 526.548 663.052 515.01 674.697 510.033L697.321 532.658V532.658ZM678.775 508.637C681.536 507.862 684.435 507.427 687.428 507.427C695.662 507.427 703.167 510.529 708.904 515.584L697.321 527.184L678.775 508.637V508.637ZM714.425 515.553L719.945 510.017V523.586C718.456 520.655 716.595 517.957 714.425 515.553ZM719.945 556.446V570.076L714.394 564.525C716.58 562.106 718.456 559.392 719.945 556.446V556.446ZM708.873 564.478C703.136 569.518 695.646 572.604 687.428 572.604C684.435 572.604 681.551 572.17 678.791 571.41L697.29 552.879L708.873 564.478V564.478ZM675.69 574.527C679.365 575.783 683.319 576.481 687.428 576.481C696.716 576.481 705.198 572.992 711.633 567.239L729.202 584.839C723.449 591.29 719.945 599.788 719.945 609.093C719.945 613.063 720.581 616.924 721.79 620.584L697.104 645.317L651.05 599.199L675.69 574.527V574.527ZM748.802 598.982L734.691 584.855C740.072 580.017 747.05 576.962 754.757 576.59H758.184C765.549 576.993 772.465 579.846 777.97 584.762L763.766 598.982L786.39 621.653C781.474 633.408 769.86 641.689 756.354 641.689C747.67 641.689 739.483 638.293 733.342 632.136C730.272 629.066 727.884 625.468 726.271 621.56L748.802 598.982V598.982ZM724.922 617.436C724.209 614.737 723.806 611.946 723.806 609.093C723.806 600.858 726.907 593.353 731.947 587.6L743.328 598.982L724.922 617.436V617.436ZM731.916 582.079L726.38 576.528L739.948 576.559C737.017 578.047 734.319 579.893 731.916 582.079ZM734.707 711.223L748.849 697.081L726.349 674.58C731.233 662.748 742.879 654.405 756.431 654.405H756.447C765.13 654.405 773.302 657.801 779.458 663.942C782.482 666.981 784.839 670.517 786.452 674.363L763.735 697.081L777.985 711.347C772.248 716.465 764.696 719.582 756.431 719.582C752.369 719.582 748.446 718.837 744.771 717.426C741.111 715.999 737.7 713.906 734.707 711.223ZM740.103 719.597H726.364L731.947 713.999C734.428 716.263 737.172 718.124 740.103 719.597ZM743.359 697.081L731.993 708.463C726.768 702.524 723.883 694.987 723.883 687.001C723.883 684.132 724.287 681.356 724.984 678.705L743.359 697.081ZM772.604 719.659C775.566 718.186 778.311 716.31 780.761 714.123L786.312 719.69L772.604 719.659ZM780.73 708.618L769.209 697.081L787.832 678.456C788.576 681.217 788.995 684.07 788.995 687.001C788.995 695.297 785.847 702.849 780.73 708.618ZM782.203 661.212C775.318 654.327 766.169 650.528 756.447 650.528H756.431C741.824 650.528 729.202 659.181 723.403 671.633L699.833 648.062L723.325 624.507C725.108 628.322 727.543 631.826 730.598 634.881C737.483 641.766 746.631 645.566 756.354 645.566C770.914 645.566 783.49 636.975 789.32 624.584L812.75 648.062L789.398 671.416C787.63 667.679 785.211 664.221 782.203 661.212V661.212ZM787.77 617.544L769.255 598.982L780.714 587.507C786.002 593.477 788.917 601.044 788.917 609.093C788.917 612.024 788.499 614.846 787.77 617.544ZM772.961 576.621H786.095L780.745 582.002C778.373 579.846 775.752 578.047 772.961 576.621V576.621ZM758.804 572.713C757.997 572.666 757.176 572.62 756.369 572.62C755.563 572.62 754.819 572.651 754.059 572.713L723.806 572.651V541.838C723.837 541.233 723.852 540.628 723.852 540.008C723.852 539.388 723.837 538.798 723.806 538.194V507.443L788.762 507.567V572.775L758.788 572.713H758.804ZM726.364 503.566L731.947 497.983C734.428 500.247 737.172 502.124 740.103 503.597L726.364 503.566ZM772.604 503.659C775.566 502.17 778.311 500.31 780.761 498.108L786.312 503.675H772.604V503.659ZM756.431 438.374H756.447C765.13 438.374 773.302 441.77 779.458 447.926C782.482 450.966 784.839 454.486 786.452 458.332L763.735 481.065L777.985 495.332C772.232 500.434 764.696 503.566 756.431 503.566C748.166 503.566 740.692 500.589 734.707 495.208L748.849 481.065L726.349 458.564C731.233 446.732 742.879 438.389 756.431 438.374V438.374ZM724.984 462.689L743.359 481.065L731.993 492.447C726.768 486.493 723.883 478.972 723.883 470.97C723.883 468.101 724.287 465.341 724.984 462.689ZM697.088 434.776L721.852 459.541C720.658 463.139 720.007 466.985 720.007 470.97C720.007 480.011 723.263 488.524 729.218 495.208L711.649 512.808C705.214 507.04 696.716 503.535 687.412 503.535C683.303 503.535 679.334 504.233 675.643 505.504L651.034 480.879L697.088 434.776V434.776ZM671.751 507.086C659.485 512.963 650.988 525.509 650.988 539.993C650.988 554.476 659.485 567.053 671.767 572.93L648.29 596.454L624.906 573.038C637.249 567.192 645.793 554.6 645.793 540.07C645.793 525.54 637.218 512.901 624.86 507.055L648.29 483.624L671.751 507.086V507.086ZM574.976 459.308L599.507 434.776L645.561 480.879L620.952 505.489C617.324 504.264 613.432 503.597 609.384 503.597C600.05 503.597 591.521 507.133 585.07 512.932L567.502 495.347C573.332 488.881 576.883 480.336 576.883 470.97C576.883 466.938 576.216 463.015 574.976 459.308ZM573.006 470.97C573.006 479.266 569.859 486.818 564.741 492.587L553.236 481.065L571.843 462.441C572.588 465.186 573.006 468.039 573.006 470.97ZM540.443 438.374H540.458C549.142 438.374 557.314 441.77 563.47 447.926C566.494 450.966 568.851 454.486 570.463 458.332L547.746 481.065L561.997 495.332C556.259 500.434 548.723 503.566 540.443 503.566C532.163 503.566 524.704 500.589 518.734 495.192L532.86 481.065L510.361 458.564C515.245 446.732 526.89 438.374 540.443 438.374V438.374ZM508.996 462.689L527.371 481.065L516.005 492.447C510.779 486.493 507.895 478.972 507.895 470.97C507.895 468.101 508.298 465.341 508.996 462.689ZM435.062 480.879L481.116 434.776L505.879 459.541C504.685 463.139 504.034 466.985 504.034 470.97C504.034 480.011 507.29 488.524 513.245 495.208L495.676 512.808C489.241 507.04 480.743 503.535 471.44 503.535C467.377 503.535 463.407 504.202 459.655 505.489L435.062 480.879ZM503.941 510.002V523.57C502.452 520.639 500.607 517.941 498.421 515.522L503.941 510.002ZM492.9 515.569L481.317 527.168L462.756 508.606C465.547 507.831 468.462 507.412 471.424 507.412C479.658 507.412 487.163 510.498 492.9 515.569V515.569ZM438.876 539.993C438.876 531.293 442.272 523.105 448.413 516.949C451.405 513.956 454.894 511.614 458.678 510.002L481.317 532.642L495.645 518.298C500.623 523.865 503.724 531.122 503.941 539.124V540.876C503.724 548.894 500.623 556.167 495.63 561.734L481.286 547.374L458.709 569.999C447.064 565.021 438.876 553.453 438.876 539.993V539.993ZM503.925 556.43V570.061L498.374 564.509C500.576 562.09 502.437 559.361 503.925 556.43V556.43ZM492.854 564.463C487.117 569.503 479.627 572.589 471.409 572.589C468.416 572.589 465.532 572.154 462.787 571.395L481.271 552.863L492.854 564.463V564.463ZM435.046 599.184L459.686 574.512C463.376 575.768 467.315 576.465 471.424 576.465C480.712 576.465 489.194 572.976 495.63 567.223L513.198 584.824C507.461 591.275 503.941 599.773 503.941 609.077C503.941 613.047 504.577 616.908 505.786 620.568L481.1 645.302L435.046 599.184V599.184ZM435.046 696.894L481.1 650.776L505.864 675.557C504.67 679.154 504.018 682.985 504.018 686.985C504.018 696.011 507.275 704.54 513.229 711.223L495.661 728.808C489.225 723.055 480.728 719.535 471.424 719.535C467.361 719.535 463.392 720.217 459.639 721.489L435.046 696.894V696.894ZM503.925 726.002V739.586C502.437 736.655 500.592 733.941 498.405 731.538L503.925 726.002ZM492.885 731.569L481.302 743.168L462.741 724.606C465.532 723.846 468.447 723.412 471.409 723.412C479.642 723.412 487.148 726.513 492.885 731.569V731.569ZM438.861 756.008C438.861 747.308 442.257 739.121 448.397 732.964C451.39 729.956 454.879 727.63 458.662 726.017L481.302 748.658L495.63 734.313C500.607 739.865 503.708 747.138 503.925 755.124V756.892C503.708 764.894 500.607 772.167 495.614 777.734L481.271 763.389L458.693 785.999C447.048 781.037 438.861 769.468 438.861 756.008ZM503.91 772.43V786.061L498.359 780.509C500.561 778.09 502.421 775.376 503.91 772.43V772.43ZM492.838 780.463C487.101 785.518 479.611 788.604 471.393 788.604C468.4 788.604 465.516 788.154 462.772 787.395L481.255 768.863L492.838 780.463V780.463ZM505.755 836.568L481.069 861.302L435.015 815.199L459.655 790.512C463.345 791.783 467.284 792.481 471.393 792.481C480.681 792.481 489.163 788.976 495.599 783.239L513.167 800.824C507.43 807.275 503.91 815.788 503.91 825.093C503.91 829.047 504.546 832.908 505.755 836.568V836.568ZM507.787 825.093C507.787 816.858 510.888 809.337 515.943 803.6L527.309 814.982L508.903 833.42C508.19 830.737 507.787 827.946 507.787 825.093V825.093ZM540.35 857.673H540.334C531.651 857.673 523.479 854.293 517.323 848.136C514.253 845.05 511.865 841.468 510.252 837.56L532.783 814.982L518.672 800.839C524.053 796.001 531.046 792.946 538.753 792.574H542.149C549.53 792.977 556.446 795.83 561.966 800.762L547.762 814.982L570.37 837.638C565.455 849.392 553.856 857.673 540.35 857.673V857.673ZM571.75 833.529L553.236 814.982L564.695 803.507C569.983 809.477 572.898 817.044 572.898 825.077C572.898 828.008 572.479 830.83 571.75 833.529ZM599.46 861.302L574.883 836.661C576.108 833.032 576.774 829.14 576.774 825.077C576.774 816.005 573.487 807.43 567.471 800.731L585.008 783.177C591.459 788.992 600.003 792.543 609.353 792.543C613.416 792.543 617.339 791.861 620.999 790.62L645.514 815.199L599.46 861.302ZM624.891 789.038C637.234 783.192 645.778 770.616 645.778 756.07C645.778 741.524 637.203 728.901 624.844 723.071L648.274 699.624L671.735 723.086C659.47 728.963 650.972 741.509 650.972 756.008C650.972 770.507 659.47 783.068 671.751 788.93L648.274 812.47L624.891 789.038V789.038ZM721.744 836.568L697.057 861.302L651.003 815.199L675.628 790.512C679.318 791.783 683.272 792.481 687.381 792.481C696.67 792.481 705.152 788.976 711.587 783.239L729.156 800.839C723.403 807.275 719.898 815.788 719.898 825.093C719.898 829.047 720.534 832.908 721.744 836.568V836.568ZM723.775 825.093C723.775 816.858 726.876 809.337 731.916 803.6L743.297 814.982L724.891 833.42C724.178 830.737 723.775 827.946 723.775 825.093V825.093ZM756.323 857.673C747.639 857.673 739.452 854.293 733.311 848.136C730.241 845.05 727.853 841.468 726.24 837.56L748.771 814.982L734.645 800.839C740.041 796.017 747.034 792.962 754.726 792.574H758.137C765.518 792.993 772.434 795.83 777.939 800.762L763.735 814.982L786.359 837.638C781.443 849.392 769.829 857.673 756.323 857.673V857.673ZM787.739 833.529L769.224 814.982L780.683 803.507C785.971 809.477 788.886 817.044 788.886 825.077C788.886 828.008 788.467 830.83 787.739 833.529ZM861.487 815.199L815.433 861.302L790.855 836.677C792.065 833.032 792.747 829.14 792.747 825.077C792.747 816.005 789.46 807.43 783.428 800.731L800.981 783.177C807.432 788.992 815.976 792.543 825.326 792.543C829.389 792.543 833.312 791.861 836.956 790.62L861.487 815.199V815.199ZM792.623 786.061V772.089C794.112 775.128 796.019 777.935 798.252 780.432L792.623 786.061ZM803.757 780.401L815.278 768.863L833.855 787.488C831.141 788.232 828.288 788.666 825.342 788.666C817.061 788.666 809.51 785.518 803.757 780.401ZM857.89 756.07C857.89 769.561 849.656 781.161 837.964 786.107L815.278 763.389L801.012 777.656C795.911 771.903 792.778 764.351 792.778 756.07C792.778 747.789 795.926 740.206 801.043 734.453L815.247 748.658L837.886 726.002C849.625 730.933 857.89 742.548 857.89 756.07V756.07ZM792.639 740.051V726.017L798.299 731.677C796.05 734.174 794.143 736.996 792.639 740.051V740.051ZM803.803 731.708C809.556 726.606 817.092 723.474 825.357 723.474C828.272 723.474 831.095 723.908 833.793 724.637L815.262 743.168L803.803 731.708ZM861.518 696.894L836.909 721.504C833.265 720.279 829.389 719.597 825.342 719.597C816.007 719.597 807.478 723.133 801.028 728.948L783.459 711.363C789.289 704.896 792.84 696.352 792.84 686.985C792.84 682.953 792.173 679.03 790.933 675.324L815.464 650.792L861.518 696.894V696.894ZM861.503 599.184L815.449 645.302L790.871 620.661C792.08 617.017 792.763 613.125 792.763 609.077C792.763 600.005 789.475 591.43 783.443 584.731L800.997 567.161C807.447 572.976 815.991 576.528 825.342 576.528C829.404 576.528 833.327 575.845 836.971 574.605L861.503 599.184V599.184ZM792.639 570.061V556.089C794.127 559.128 796.035 561.92 798.268 564.416L792.639 570.061ZM803.772 564.401L815.294 552.863L833.87 571.488C831.157 572.232 828.303 572.651 825.357 572.651C817.077 572.651 809.525 569.518 803.772 564.401ZM857.905 540.07C857.905 553.561 849.671 565.161 837.979 570.107L815.294 547.374L801.028 561.656C795.926 555.903 792.794 548.351 792.794 540.07C792.794 531.789 795.942 524.206 801.059 518.437L815.262 532.642L837.902 510.002C849.64 514.933 857.905 526.548 857.905 540.07V540.07ZM792.654 524.036V510.002L798.314 515.677C796.066 518.174 794.158 520.981 792.654 524.036V524.036ZM803.819 515.693C809.572 510.591 817.108 507.474 825.373 507.474C828.288 507.474 831.11 507.893 833.808 508.621L815.278 527.168L803.819 515.693ZM836.94 505.489C833.296 504.264 829.42 503.597 825.373 503.597C816.038 503.597 807.509 507.133 801.059 512.932L783.49 495.347C789.32 488.896 792.871 480.336 792.871 470.97C792.871 466.938 792.205 463.015 790.964 459.308L815.495 434.776L861.549 480.879L836.94 505.489V505.489Z" fill="#FCF8EF"/>
</svg>
