<svg width="139" height="32" viewBox="0 0 139 32" fill="none" xmlns="http://www.w3.org/2000/svg">
<path d="M12.7698 21.0558H12.7168C11.6874 22.8241 9.76239 23.6944 7.75663 23.6944C3.37748 23.6944 0 20.476 0 16.0704C0 11.6647 3.32444 8.31373 7.75663 8.31373C9.70935 8.31373 11.6344 9.10567 12.7168 10.7679H12.7698V8.71031H15.5133V23.3256H12.7698V21.0558ZM7.75784 10.8185C4.85528 10.8185 2.74466 13.1931 2.74466 16.0426C2.74466 18.8922 4.93484 21.1872 7.73132 21.1872C10.5278 21.1872 12.8229 18.8656 12.8229 16.0426C12.8229 13.2196 10.7387 10.8185 7.75784 10.8185Z" fill="#222222"/>
<path d="M26.3111 23.6932C24.3584 23.6932 22.2224 22.9543 21.1665 21.2137H21.1135V28.205H18.37V8.7079H20.876V10.9499H20.9291C22.1429 9.20813 24.0426 8.31133 26.1267 8.31133C30.6384 8.31133 33.6989 11.7937 33.6989 16.1993C33.6989 20.341 30.507 23.692 26.3123 23.692L26.3111 23.6932ZM25.9422 10.8185C23.1192 10.8185 21.0616 13.2462 21.0616 15.9896C21.0616 18.7331 23.1192 21.1872 26.0218 21.1872C28.9244 21.1872 30.9554 18.8391 30.9554 16.0426C30.9554 13.2462 28.7652 10.8185 25.9422 10.8185Z" fill="#222222"/>
<path d="M44.0567 23.6932C42.104 23.6932 39.9681 22.9543 38.9121 21.2137H38.8591V28.205H36.1157V8.7079H38.6217V10.9499H38.6747C39.8885 9.20813 41.7882 8.31133 43.8723 8.31133C48.3841 8.31133 51.4445 11.7937 51.4445 16.1993C51.4445 20.341 48.2527 23.692 44.0579 23.692L44.0567 23.6932ZM43.6879 10.8185C40.8649 10.8185 38.8073 13.2462 38.8073 15.9896C38.8073 18.7331 40.8649 21.1872 43.7674 21.1872C46.67 21.1872 48.7011 18.8391 48.7011 16.0426C48.7011 13.2462 46.5109 10.8185 43.6879 10.8185Z" fill="#222222"/>
<path d="M58.2139 11.6635C56.9218 12.3228 56.6048 14.0116 56.6048 15.3303V23.3244H53.8613V8.7091H56.4203V10.0278H56.4734C57.3702 8.76093 58.7154 8.36556 60.1932 8.31253V11.1355C59.5869 11.1355 58.7419 11.373 58.2139 11.6635Z" fill="#222222"/>
<path d="M75.5389 17.2034H63.4296C63.9841 19.472 65.8307 21.1872 68.2307 21.1872C69.9459 21.1872 71.6081 20.2639 72.3989 18.7331H75.1423C74.0346 21.714 71.3165 23.6932 68.1246 23.6932C63.9564 23.6932 60.685 20.0783 60.685 15.9896C60.685 11.901 63.9033 8.31253 68.1776 8.31253C72.4519 8.31253 75.6172 11.7153 75.6172 15.8317C75.6172 16.2801 75.5907 16.755 75.5377 17.2034H75.5389ZM68.1523 10.8185C65.7777 10.8185 63.5888 12.6917 63.4296 15.0928H72.875C72.7171 12.6917 70.5269 10.8185 68.1523 10.8185Z" fill="#222222"/>
<path d="M84.66 23.6932C80.3074 23.6932 77.1674 20.2639 77.1674 15.9896C77.1674 11.7153 80.3592 8.31253 84.6865 8.31253C87.8266 8.31253 91.0449 10.4232 91.8622 13.5632H88.8282C88.0098 11.8479 86.6646 10.8197 84.7131 10.8197C81.7056 10.8197 79.912 13.1148 79.912 15.9908C79.912 18.8669 81.7322 21.1884 84.6612 21.1884C86.5344 21.1884 88.0387 20.1855 88.8029 18.4968H91.8634C90.7822 21.6368 88.011 23.6944 84.6612 23.6944L84.66 23.6932Z" fill="#222222"/>
<path d="M94.0837 7.01915V3.80078H96.8271V7.01915H94.0837ZM94.0837 23.3232V8.7079H96.8271V23.3232H94.0837Z" fill="#222222"/>
<path d="M112.005 21.0558H111.952C110.923 22.8241 108.998 23.6944 106.992 23.6944C102.613 23.6944 99.2355 20.476 99.2355 16.0704C99.2355 11.6647 102.56 8.31373 106.992 8.31373C108.945 8.31373 110.87 9.10567 111.952 10.7679H112.005V8.71031H114.749V23.3256H112.005V21.0558ZM106.993 10.8185C104.091 10.8185 101.98 13.1931 101.98 16.0426C101.98 18.8922 104.17 21.1872 106.967 21.1872C109.763 21.1872 112.058 18.8656 112.058 16.0426C112.058 13.2196 109.974 10.8185 106.993 10.8185Z" fill="#222222"/>
<path d="M121.253 11.2151V23.3244H118.51V11.2151H116.53V8.7091H118.51V3.80199H121.253V8.7091H123.654V11.2151H121.253Z" fill="#222222"/>
<path d="M138.922 17.2034H126.812C127.367 19.472 129.213 21.1872 131.613 21.1872C133.329 21.1872 134.991 20.2639 135.782 18.7331H138.525C137.417 21.714 134.699 23.6932 131.507 23.6932C127.339 23.6932 124.068 20.0783 124.068 15.9896C124.068 11.901 127.286 8.31253 131.56 8.31253C135.835 8.31253 139 11.7153 139 15.8317C139 16.2801 138.973 16.755 138.92 17.2034H138.922ZM131.535 10.8185C129.16 10.8185 126.971 12.6917 126.812 15.0928H136.258C136.1 12.6917 133.91 10.8185 131.535 10.8185Z" fill="#222222"/>
</svg>
